<svg id="Group_158430" data-name="Group 158430" xmlns="http://www.w3.org/2000/svg" xmlns:xlink="http://www.w3.org/1999/xlink" width="65.346" height="65.318" viewBox="0 0 65.346 65.318">
  <defs>
    <clipPath id="clip-path">
      <rect id="Rectangle_14302" data-name="Rectangle 14302" width="65.346" height="65.318" fill="none"/>
    </clipPath>
  </defs>
  <g id="Group_158430-2" data-name="Group 158430" clip-path="url(#clip-path)">
    <path id="Path_63328" data-name="Path 63328" d="M0,414.531l1.357-2.79,16.7-8.546,13.079,13.061-.892.7H1.4a2.747,2.747,0,0,1-1.4-1.4Z" transform="translate(0 -351.638)" fill="#0aafe2"/>
    <path id="Path_63329" data-name="Path 63329" d="M326.808,429.864h-25.4L324.126,418l4.055,9.537a2.078,2.078,0,0,1-1.373,2.331" transform="translate(-262.869 -364.547)" fill="#0aafe2"/>
    <path id="Path_63330" data-name="Path 63330" d="M139.37,49.321a1.982,1.982,0,0,1-2.72,0c-1.425-1.206-4.046-5.01-5.253-6.679-5.691-7.868-12.064-18.033-10.321-28.141C124.6-5.914,153.663-4.38,155.244,16.625c.742,9.848-6.785,21.123-12.589,28.643a36.776,36.776,0,0,1-3.285,4.053m-1.9-37.823c-8.533.895-5.554,14,2.489,11.166,6.339-2.23,4.112-11.858-2.489-11.166" transform="translate(-105.339 0)" fill="#fbab1e"/>
    <path id="Path_63331" data-name="Path 63331" d="M208.561,286.276l-24.826,12.761L170.656,285.96l3.375-1.733c2.474,3.238,5.053,7.4,9.817,5.35,2.054-.885,4.85-4.876,6.258-6.76a97.979,97.979,0,0,0,7.633-11.828c1.442.134,3.671-.588,4.594.777Z" transform="translate(-148.834 -236.275)" fill="#0aafe2"/>
    <path id="Path_63332" data-name="Path 63332" d="M41.689,271.01A101.454,101.454,0,0,0,48.1,281.191l-19.142,9.7L37.139,271.7c.911-1.236,3.19-.57,4.55-.694" transform="translate(-25.252 -236.294)" fill="#0aafe2"/>
    <path id="Path_63333" data-name="Path 63333" d="M242.426,119.738c2.4-.186,2.8,3.444.594,3.793a1.923,1.923,0,1,1-.594-3.793" transform="translate(-209.909 -104.421)" fill="#fbab1e"/>
  </g>
</svg>
