<svg xmlns="http://www.w3.org/2000/svg" xmlns:xlink="http://www.w3.org/1999/xlink" width="165.34" height="130.349" viewBox="0 0 165.34 130.349">
  <defs>
    <clipPath id="clip-path">
      <rect id="Rectangle_10174" data-name="Rectangle 10174" width="144.58" height="90.08" fill="#21a2a2"/>
    </clipPath>
  </defs>
  <g id="Group_158448" data-name="Group 158448" transform="matrix(0.951, -0.309, 0.309, 0.951, 0, 44.677)" opacity="0.33">
    <g id="Group_158447" data-name="Group 158447" transform="translate(0 0)" clip-path="url(#clip-path)">
      <path id="Path_66217" data-name="Path 66217" d="M142.694,1.571a3.613,3.613,0,0,0,.533-.255A7.419,7.419,0,0,0,143.8.823c.181.228.477.433.52.683a13.909,13.909,0,0,1,.256,2.426q-.114,21.418-.271,42.838c-.07,7.954-.265,15.908-.368,23.864-.074,5.711-.081,11.422-.137,17.134-.007.618.188,1.707-.831,1.423-.858-.237-2.442.927-2.566-1-4.042,0-8.07-.034-12.1.009-4.3.045-8.606.2-12.91.242-7.345.069-14.691.042-22.034.139-10.262.134-20.522.414-30.786.509-13.464.123-26.932.107-40.395.19-6.619.042-13.235.168-19.849.26-.271,0-.632-.074-.8.067C.173,90.751.213,89.575.168,88.755c-.1-1.9-.163-3.805-.163-5.707Q-.008,50.669.013,18.29c0-4.488.076-8.974.11-13.462C.134,3.776.535,3.375,1.642,2.916c3.488-1.443,7.064-.489,10.578-.793,3.558-.307,7.157-.172,10.737-.208,9.475-.1,18.948-.139,28.42-.3C59.649,1.477,67.916,1.181,76.184,1,82.075.865,87.967.782,93.858.717c9.61-.11,19.22-.157,28.83-.291,5.057-.072,10.114-.28,15.171-.41,1.152-.031,2.308-.009,3.462.007,1.042.013,1.618.464,1.414,1.595a8.644,8.644,0,0,1-1.927.5c-7.589.213-15.18.448-22.771.547-11.51.15-23.024.134-34.532.307-13.016.2-26.026.576-39.042.777-9.292.143-18.586.1-27.877.181-4.786.042-9.574.172-14.362.262A7.653,7.653,0,0,0,1.51,6.269c-.063,3.894-.034,7.79-.034,11.683V87.8c4.609,0,9.047.036,13.482-.007q16.694-.163,33.392-.386,17.945-.244,35.885-.549c7.82-.141,15.639-.453,23.457-.531,9.97-.1,19.943-.036,29.914-.054,1.551,0,3.1-.074,4.847-.117,0-1.862,0-3.4,0-4.934.052-19.814.069-39.631.181-59.443.034-5.776.365-11.548.506-17.324a8.031,8.031,0,0,0-.475-2c-.15.011-.3.02-.446.029l.473-.907" transform="translate(0 0)" fill="#21a2a2"/>
      <path id="Path_66218" data-name="Path 66218" d="M61.474,60.447c-.184,2.063-1.8,2.366-2.9,3.135-2.733,1.916-5.94,2-9.112,2.026a64.786,64.786,0,0,1-9.738-.21c-3.106-.453-6.316-.829-9.177-2.487-1.656-.957-3.592-1.425-5.277-2.341a11.881,11.881,0,0,1-4.965-4.8c-1.448-2.736-2.738-5.563-3.964-8.405a7.017,7.017,0,0,1-.385-2.8,49.181,49.181,0,0,1,.347-7.99c.627-3.459,1.241-6.989,3.594-9.906,1.033-1.281,1.526-2.994,2.556-4.279a27.665,27.665,0,0,1,4.779-4.961,36.853,36.853,0,0,1,9.536-4.772,19.761,19.761,0,0,1,11.768-.515c2.277.558,4.7.941,6.675,2.671A11.97,11.97,0,0,0,59.784,17c.7.2,1.716-.482,2.518-.9.921-.477,1.707-1.257,2.657-1.64,3.32-1.335,6.547-3.034,10.325-2.7,1.434.126,2.9-.094,4.331.033a24.721,24.721,0,0,1,9.191,3.052c1.362.706,2.958,1.08,4.123,2.012,1.472,1.179,2.523,2.872,3.926,4.154a8.293,8.293,0,0,1,2.628,3.446c.7,2.128,1.544,4.215,2.149,6.37,1.1,3.908.856,7.939.834,11.938a15.4,15.4,0,0,1-1.893,6.953c-.535,1.048-.793,2.234-1.317,3.287a15.334,15.334,0,0,1-1.6,2.362,27.877,27.877,0,0,1-2.474,3.049A24.742,24.742,0,0,1,91.8,61.2c-1.886,1.295-3.858,2.465-5.976,3.805-.036.1-.186.5-.338.9-.249-.238-.461-.6-.755-.688a2.912,2.912,0,0,0-1.638-.164,17.915,17.915,0,0,1-10.363.585c-3-.713-5.832-2.185-8.705-3.4-.565-.238-.964-.851-1.474-1.246a7.025,7.025,0,0,0-1.08-.547m-1.235-.619c-.809-.657-1.309-1-1.732-1.42a38.033,38.033,0,0,1-4.477-4.656C52.861,52.1,52.359,49.99,51.3,48.24c-.809-1.338-.435-3.19-1.929-4.19-.1-.067-.045-.406-.016-.61.177-1.279.529-2.566-.639-3.632a.894.894,0,0,1-.011-.865c1.223-.908.639-2.079.549-3.186a2.053,2.053,0,0,1,.052-1.028c1.6-3.119,2.232-6.7,4.51-9.5,1.313-1.62,2.594-3.269,3.809-4.963.367-.511,1.5-1.132.45-1.846a17.257,17.257,0,0,0-3.91-1.967c-3.13-1.1-6.276-2.193-9.489-3a10.58,10.58,0,0,0-4.687,0,31.763,31.763,0,0,0-4.716,1.931A21.315,21.315,0,0,0,32.3,16.431c-2.126,1.255-4.5,2.205-6.112,4.181a46.582,46.582,0,0,0-3.722,5c-1.022,1.669-1.649,3.576-2.6,5.3a14.014,14.014,0,0,0-1.62,9.052,63.605,63.605,0,0,0,1.279,6.863,14.21,14.21,0,0,0,1.763,3.287c.446.76,1.439,1.555,1.342,2.205a3.113,3.113,0,0,0,1.463,3.1c1.934,1.553,4.046,2.892,5.938,4.488a16.491,16.491,0,0,0,8.053,3.361,43.91,43.91,0,0,0,8.07.473c2.689-.033,5.445.32,8-1.082,1.878-1.029,3.887-1.819,6.081-2.828m2.917-.643c1.644.827,3.029,1.573,4.456,2.229,1.674.769,3.348,1.963,5.09,2.091,5.532.412,10.961.034,16.146-2.545,3.493-1.739,5.742-4.69,8.035-7.452a17.789,17.789,0,0,0,3.267-7.878c.6-3.162.376-6.493.358-9.749a16.416,16.416,0,0,0-.589-5.23c-.908-2.608-1.6-5.27-3.977-7.32-2.274-1.963-3.354-5.211-6.569-6.323-1.257-.435-2.373-1.293-3.639-1.68a28.285,28.285,0,0,0-4.824-.952c-3.668-.446-7.259-1.064-10.959.542-2.409,1.044-4.9,1.842-7.078,3.37-.619.433-.806.8-.332,1.411.854,1.1,1.633,2.274,2.574,3.294A24.835,24.835,0,0,1,70.79,33.206c1.223,4.367.365,8.792-.955,13.083a2.912,2.912,0,0,1-.19.354c-.574,1.217-1.14,2.44-1.719,3.654-.9,1.893-1.775,3.8-2.747,5.658-.578,1.1-1.322,2.122-2.023,3.229M51.787,42.177c1.172-.553,2.189-1.037,3.211-1.508.679-.312,1.383-.574,2.044-.919,3.516-1.828,7.036-3.654,10.519-5.543.488-.265,1.114-.9,1.1-1.336a6.863,6.863,0,0,0-.8-2.371c-.061-.139-.567-.233-.766-.137-1.541.739-3.074,1.5-4.575,2.31-3.159,1.716-6.312,3.441-9.428,5.229a3.419,3.419,0,0,0-1.631,1.589,7.393,7.393,0,0,0,.331,2.687m17.568-3.182c-.128-.108-.255-.217-.381-.325L52.838,47.611a11.012,11.012,0,0,0,1.026,1.671,1.007,1.007,0,0,0,.914.114c1.615-.686,3.2-1.427,4.8-2.16q1.311-.6,2.612-1.241c2.189-1.073,4.374-2.155,6.847-3.376.083-.954.2-2.288.32-3.625M66.835,28.832c-.482-.574-.69-1.945-1.844-1.714A12.271,12.271,0,0,0,61.427,28.8C58.76,30.376,56.121,32,53.5,33.648c-1.145.719-2.352,1.465-2.088,3.083l15.422-7.9m1.573,15.691c-.63.325-.93.482-1.234.634-2.3,1.154-4.6,2.333-6.919,3.45-1.663.8-3.376,1.5-5.043,2.286a.808.808,0,0,0-.231.755c.74,1.7,1.8,1.963,3.289.849a2.192,2.192,0,0,1,.4-.3c2.2-.927,4.409-1.833,6.6-2.776.462-.2,1.057-.423,1.268-.811.661-1.223,1.17-2.528,1.864-4.084m.538-7.513V35.317a2.439,2.439,0,0,0-.639.1c-2.552,1.277-5.118,2.532-7.643,3.865-2.42,1.279-4.779,2.671-7.2,3.955-1.2.638-1.351,1.058-.567,2.382l16.045-8.606M64.637,25.456a4.429,4.429,0,0,1-.775-1.064c-.4-1.046-.872-1.011-1.714-.41-1.512,1.084-3.074,2.108-4.683,3.041-2.42,1.4-3.083,2.044-4.2,4.387l11.369-5.955M65.643,50.8c-2.581,1.223-4.884,2.268-7.121,3.439a1.567,1.567,0,0,0-.049,1.456c.666.591,1.147,2.044,2.532.833.639-.558,1.788-.645,2.243-1.277a36.774,36.774,0,0,0,2.395-4.45M62.282,22.317a3.25,3.25,0,0,1-.748-.838c-.677-1.445-1.389-.957-2.171-.126a5.023,5.023,0,0,1-.553.361,7.366,7.366,0,0,0-3.052,4.3l6.524-3.7" transform="translate(12.86 9.258)" fill="#21a2a2"/>
      <path id="Path_66219" data-name="Path 66219" d="M75.614,8.434c0,3.321.258,6.69-.069,10-.363,3.684-2.864,6.843-7.3,6.173-2.778-.419-3.417-.782-4.176-3.654a1.608,1.608,0,0,1-.076-.4c.018-4.013.034-8.028.081-12.041,0-.181.323-.524.441-.5.264.049.65.24.706.448a12.858,12.858,0,0,1,.547,2.74c.152,3.2.188,6.412.343,9.616.027.556.294,1.457.656,1.577,1.176.386,2.575.921,3.652.6,2.395-.708,3.211-2.827,3.3-5.173.107-2.752.117-5.507.164-8.261.027-1.528.161-1.624,1.73-1.127" transform="translate(51.584 6.458)" fill="#21a2a2"/>
      <path id="Path_66220" data-name="Path 66220" d="M32.643,29.4h1.468c.47,1.141-.193,1.387-1.327,1.43.442,1.234.861,2.315,1.208,3.423a3.007,3.007,0,0,1,.079,1.288c-.023.168-.385.376-.607.4a.71.71,0,0,1-.538-.374c-.661-1.519-1.284-3.052-1.952-4.663-.908.2-1.978.406-3.022.7-.208.058-.39.442-.459.708-.332,1.286-.569,2.6-.955,3.865-.139.457-.605.813-.919,1.215-.168-.07-.332-.143-.5-.213q.564-3.14,1.123-6.278.341-1.929.672-3.858c.365-2.1.688-4.206,1.125-6.291.088-.41.609-.728.93-1.087.314.311.8.565.917.939.95,2.892,1.828,5.808,2.756,8.8M29.47,23.813l-.229.014c-.448,2.1-.9,4.21-1.365,6.408l2.872-1c-.423-1.788-.851-3.6-1.277-5.422" transform="translate(20.248 15.847)" fill="#21a2a2"/>
      <path id="Path_66221" data-name="Path 66221" d="M56.1,25.605c2.007,1.47,3.646,3.043,3.249,5.7a5.462,5.462,0,0,1-.847,1.987,12.574,12.574,0,0,1-5.066,4.291c-1.663.878-3.35-.374-3.574-2.357-.1-.883-.461-1.737-.562-2.621-.1-.825.1-1.685-.011-2.505-.26-1.922-.737-3.818-.9-5.743a10.347,10.347,0,0,1,.5-3.132,3.528,3.528,0,0,1,1.277.224,5.126,5.126,0,0,1,4.611-.2c1.754.907,1.8,2.687,1.327,4.354m-5.144,5.106a5.3,5.3,0,0,0,.007.908A30.267,30.267,0,0,0,51.6,35.19c.085.311.95.757,1.123.641a31.113,31.113,0,0,0,3.831-2.9c1.463-1.347,1.544-2.72.5-4.36-.961-1.517-1.781-1.56-3.11-.307-.907.856-1.931,1.589-2.993,2.449M50.7,28.1c.82-.58,1.578-1.06,2.268-1.624a5.789,5.789,0,0,0,1.486-1.535,2.947,2.947,0,0,0,.17-1.674,15.9,15.9,0,0,0-3.208-.5c-.338-.016-.731.359-1.028.634-.108.1-.016.432,0,.656.1,1.3.2,2.6.311,4.04" transform="translate(38.99 16.757)" fill="#21a2a2"/>
    </g>
  </g>
</svg>
