<svg xmlns="http://www.w3.org/2000/svg" xmlns:xlink="http://www.w3.org/1999/xlink" width="129.101" height="173.645" viewBox="0 0 129.101 173.645">
  <defs>
    <clipPath id="clip-path">
      <rect id="Rectangle_10161" data-name="Rectangle 10161" width="98.711" height="156.543" fill="#5c9f15"/>
    </clipPath>
  </defs>
  <g id="Group_158422" data-name="Group 158422" transform="matrix(0.978, 0.208, -0.208, 0.978, 32.547, 0)" opacity="0.44">
    <g id="Group_158421" data-name="Group 158421" transform="translate(0 0)" clip-path="url(#clip-path)">
      <path id="Path_65940" data-name="Path 65940" d="M24.018,86.67c-1.91,6.981-4.173,13.872-5.938,20.891-.135.535-.184.861.453,1.077a.784.784,0,0,1,.494.986,45.546,45.546,0,0,1-1.831,6.924c-.258.684-.562,1.375-1.456,1.521-.457.076-.433.465-.511.743-1.784,6.417-3.643,12.819-5.246,19.277a35.357,35.357,0,0,0-.426,4.048,3.769,3.769,0,0,1-1.051,2.243,4.214,4.214,0,0,0-1.071,2.767A1.374,1.374,0,0,1,6,148.509c-.586.046-.968.055-.87.863a1.682,1.682,0,0,1-2.361,1.659c-.291-.1-.581-.12-.863-.2-1.222-.33-1.613-1.314-.975-2.629.218-.446.334-.708-.1-1.1a1.777,1.777,0,0,1-.465-2.428c.732-1.3.212-2.743.367-4.115A6.183,6.183,0,0,1,2.244,136.8c.684-.737.612-1.821.865-2.754,1.526-5.652,3.034-11.309,4.572-16.959.192-.7.479-1.351-.168-2.006-.345-.348-.175-.863-.074-1.265.57-2.277,1.2-4.54,1.784-6.817.1-.391.291-.771.647-.824.8-.12.831-.686.977-1.22q3.625-13.3,7.232-26.6c.2-.739.262-1.451,1.113-1.829.35-.153.116-.59.216-.9a2.92,2.92,0,0,1,3.1-2.36c.267-.018.536,0,.8-.026.807-.076,1.239-.369,1.23-1.281-.028-2.658.072-5.313.105-7.971.042-3.381.125-6.769.077-10.152a44.106,44.106,0,0,1-.133-5.32c.077-.719-.536-.914-1.143-.61-1.309.653-2.551,1.423-3.867,2.057a42.263,42.263,0,0,1-5.833,2.579c-1.368.422-2.938.559-3.829,1.626-1.1,1.313-2.214.8-3.436.559a2.54,2.54,0,0,0-1.241-.018c-2.767.8-4.9-.741-5.219-3.573a3.012,3.012,0,0,1,1.729-3.15c1-.527,1.335-1.412,1.976-2.118A4.271,4.271,0,0,1,5.4,44.62a46.565,46.565,0,0,0,5.558-2.937c1.982-1.045,4.074-1.908,5.917-2.984-.778-1.626-1.766-.748-2.867-.262-1.965.866-3.834,1.9-5.746,2.855a6.7,6.7,0,0,1-2.747.581c-.756.033-1.947-1.283-2.208-2.4-.208-.885-.076-1.727.944-2.065a34.456,34.456,0,0,0,4.774-2.5c3.014-1.547,5.851-3.381,8.8-5.025,3.74-2.085,7.357-4.354,11.116-6.4a1.923,1.923,0,0,1,2.135.146c2.494,1.659,2.395,4.236-.214,5.654-3.263,1.77-6.511,3.573-9.79,5.316-.855.453-1.053.907-.319,1.644,1.46-1.491,3.571-1.882,5.374-2.795,2.522-1.277,4.911-2.754,7.379-4.1,5.313-2.907,10.563-5.921,15.829-8.9.535-.3.9-.511,1.4.146.59.758,1.335.726,2.232.144,2.918-1.888,6-3.521,9.086-5.156A54.742,54.742,0,0,1,66.979,13.1c.428-.173.374-.435.334-.682-.245-1.489.7-2.3,1.873-2.918,4.645-2.459,9.156-5.147,13.9-7.442,1.132-.546,2.258-1.11,3.423-1.587A6.136,6.136,0,0,1,92.1.92c3.108,1.858,5.506,4.374,6.332,7.912a10.02,10.02,0,0,1-.848,6.987c-.512.992-1.8,1.292-2.837,1.7-1.67.658-3.444,1.1-5.068,1.842a42.9,42.9,0,0,0-5.884,3.093A32.02,32.02,0,0,1,78.255,24.9c-.763.319-1.543.6-2.286.953A1.943,1.943,0,0,1,73.7,25.6c-1.062-.925-2.046-.767-3.248-.16-4.111,2.085-8.426,3.751-12.7,5.5a1.018,1.018,0,0,0-.778,1.03,1.808,1.808,0,0,1-1.2,1.672c-1.821.8-3.576,1.727-5.4,2.522-2.385,1.045-4.728,2.151-7.042,3.337a25.3,25.3,0,0,1-4.31,1.6c-.872.26-1.69.627-2.549.905-.723.234-1.325.455-1.438,1.368a1.545,1.545,0,0,1-1.408,1.244c-.994.007-1.536.691-2.31,1-.442.177-.5.56-.505,1-.07,5.092-.059,10.189-.282,15.276-.146,3.337.009,6.686-.393,10.013-.076.625.02.959.846,1.008a11,11,0,0,1,4.282.986,2.668,2.668,0,0,1,1.436,1.1,1.469,1.469,0,0,0,1.314.97c.372.015.64.374.761.743,1.735,5.209,3.025,10.535,4.494,15.811,1.045,3.757,1.961,7.547,3.152,11.267.256.8.234,1.744,1.453,2.013.551.124.723.874.756,1.373.144,2.122,1.152,4.028,1.561,6.081a4.66,4.66,0,0,1,.092,2.044,4.326,4.326,0,0,0,.278,2.529c1.606,5,3.143,10.021,4.671,15.044a21.569,21.569,0,0,0,1.8,4.631c.549.953.446,2.247.642,3.386a13.409,13.409,0,0,0,.688,2.905,2.632,2.632,0,0,1-.385,2.723c-.208.24-.037.468.05.708a2.018,2.018,0,0,1-.968,2.45,2.27,2.27,0,0,1-2.835.269,5.923,5.923,0,0,0-2.107-.909,1.916,1.916,0,0,1-1.453-1.508c-.846-3.246-1.823-6.463-2.618-9.722-1.558-6.395-4.126-12.524-5.455-18.972-.192-.927-1.027-1.4-1.237-2.284-.459-1.936-1.464-3.844-1.477-5.766-.026-3.5-1.591-6.55-2.391-9.813s-1.8-6.491-2.6-9.755c-.741-3.027-1.622-6.013-2.5-9-.035-.125-.142-.23-.452-.319q0,2.9,0,5.785c-.007,6.555-.053,13.11.029,19.666A7.061,7.061,0,0,0,32.577,110a12.786,12.786,0,0,1,.531,3.855c.087.977-.044,1.96.109,2.944a1.419,1.419,0,0,1-.623,1.641c-.719.347-.745.859-.761,1.5-.181,7.245-.111,14.489-.111,21.734,0,1.414.144,2.828.254,4.24.16,2.041-.369,4.05-.286,6.089.013.361-.083.618.4.855.748.369.524.881-.1,1.215A2.039,2.039,0,0,1,31,154.3c-.632-.022-.9.068-.911.806-.013,1.045-.771,1.454-2.229,1.432-1.171-.017-2.046-.616-2.074-1.536-.015-.494-.168-.675-.653-.806a1.425,1.425,0,0,1-1.2-1.818c.354-2.387-.5-4.774-.208-7.158,1-8.2.177-16.423.457-24.632a3.313,3.313,0,0,0-.642-2.758,2.158,2.158,0,0,1-.284-1.366c-.024-2.072-.28-4.207.26-6.2,1.373-5.077.369-10.205.653-15.3.149-2.68.072-5.372.1-8.059a1.078,1.078,0,0,0,.026-1c-.109.3-.19.533-.271.756m32.864,57.693c-1.58,1.1-3.46.885-5.245,1.095.28,2.365.7,2.2,2.977,2.074,1.43-.076,2.192-1.124,2.446-2.953.133-.074.19-.182.072-.293-.029-.026-.164.05-.251.077M48.617,22.416c-.446.2-.916.352-1.335.588-5.674,3.23-11.33,6.487-17.022,9.687a1.734,1.734,0,0,0-.959,1.56,8.57,8.57,0,0,0,1.663,5.423,4.847,4.847,0,0,0,2.564,1.748c.579.208.983-.505,1.539-.667.649-.186,1.272-.485,1.932-.616a39.051,39.051,0,0,0,6.587-2.356c1.836-.717,3.521-1.768,5.359-2.509,1.5-.6,2.972-1.254,4.446-1.9.7-.306.973-.64.168-1.213a11.382,11.382,0,0,1-2.293-1.945,10.293,10.293,0,0,1-2.472-7.587c.031-.081.061-.16.09-.241l-.267.029M83.631,3.348a1.286,1.286,0,0,0-.315.018c-4.793,2.2-9.228,5.014-13.907,7.411-.223.116-.5.21-.472.538.081,1.049-.238,2.063-.175,3.136.127,2.157,1.4,3.86,2.164,5.763a5.323,5.323,0,0,0,2.057,2.269A8.6,8.6,0,0,1,74.576,23.7c.372.428.619.317,1.036.1,1.572-.8,3.149-1.6,4.765-2.313,3.9-1.725,7.823-3.4,11.868-5.158-5.18-3.031-8.692-6.924-8.614-12.987M71.141,23.821c-1.676-3.115-3.678-6.085-3.761-9.811-2.345,1.263-4.557,2.431-6.74,3.643-2.942,1.633-5.831,3.355-8.812,4.924A1.592,1.592,0,0,0,50.8,24.549a11.084,11.084,0,0,0,.759,2.712,36.533,36.533,0,0,0,2.376,3.44c.361.551.855.4,1.4.147,1.945-.9,3.884-1.814,5.879-2.6,3.394-1.346,6.71-2.833,9.925-4.424M20.11,77.864c-.907-.35-.8.778-.973,1.388-1.091,3.856-2.116,7.733-3.174,11.6-1.39,5.088-2.776,10.177-4.2,15.256a1.178,1.178,0,0,0,.533,1.447,7.671,7.671,0,0,0,3.327,1.01c.835.17,1.231-.1,1.462-.984,2.28-8.7,4.537-17.407,7.175-26.022.212-.693.706-1.4-.382-2.334a5.871,5.871,0,0,0-3.762-1.362m22.032,31.021a5.943,5.943,0,0,0,2.925-1.165,1.37,1.37,0,0,0,.736-1.9c-1.845-5-2.949-10.2-4.413-15.3-1.224-4.266-2.131-8.616-3.683-12.8a.933.933,0,0,0-1.32-.688c-1.195.313-2.247,1.018-3.53,1.093-.3.015-.549.223-.284.61a3.194,3.194,0,0,1,.319.806c1.508,4.465,2.68,9.02,3.9,13.556,1.307,4.854,2.535,9.73,4.133,14.51.234.695.474,1.3,1.215,1.277m-16.631-11.1c0,3.493.015,6.985-.015,10.478-.006.625.094.929.853.868a20.862,20.862,0,0,0,3.3-.223c.684-.164.97-.4.962-1.137-.037-5.128.007-10.26-.028-15.391-.026-4.072.1-8.141.249-12.207.026-.684-.129-.97-.92-.92a9.887,9.887,0,0,0-2.557.153c-.382.125-1.049-.63-1.217-.087a4.619,4.619,0,0,0-.4,1.344c-.124,5.707-.286,11.414-.227,17.122M50.9,138.811a5.293,5.293,0,0,0,1.98-.188c1.724-.334,2.524-1.543,2-3.086-.409-1.2-1.01-2.349-1.3-3.567-1.148-4.819-2.925-9.46-4.319-14.207-.118-.4-.243-.566-.63-.334a7.394,7.394,0,0,1-3.949.837c-.8-.006-.874.254-.7.874q.744,2.715,1.445,5.444c1.13,4.4,3.139,8.572,3.91,13.072.166.973.575,1.434,1.572,1.156M25.541,131h-.029c0,3.565.035,7.13-.028,10.694a1.181,1.181,0,0,0,1.042,1.344,6.723,6.723,0,0,0,2.452.389c.883-.068,1.388-.409,1.392-1.346q.041-10.964.138-21.926c0-.6-.131-.824-.813-.783a12.631,12.631,0,0,1-3.077.052c-.758-.138-1.124-.042-1.106.885.072,3.561.029,7.128.029,10.692M9.015,116.631c-1.711,6.469-3.346,12.8-5.09,19.111a2.155,2.155,0,0,0,.743,2.306,3.324,3.324,0,0,0,2.846.728c1.018-.107,1.113-.756,1.313-1.471q2.574-9.249,5.191-18.491c.142-.505.109-.723-.575-.789a8.019,8.019,0,0,1-4.428-1.394M8.884,44.358c1.941-.216,4.043-.824,5.219,1.36a3.626,3.626,0,0,1-1.191,4.515,4.924,4.924,0,0,1-4.656,0c-1.268-.844-1.43-2.588-.448-5.169a5.445,5.445,0,0,0-2.2.837,3.752,3.752,0,0,0-1.827,3.42c.046,1.248.89,2.319,1.254,3.512.1.319.389.426.68.518a3.784,3.784,0,0,0,3.985-.8,2.389,2.389,0,0,1,1.032-.66c4.078-.973,7.449-3.453,11.341-4.817.551-.192.581-.38.26-.846a14.669,14.669,0,0,1-2.207-4.586c-.227-.872-.389-1.759-.6-2.73-3.757,1.513-7.079,3.661-10.64,5.449M97,11.782c-.369-4.269-2.087-7.713-6.439-9.558a4.49,4.49,0,0,0-3.1-.2c-.962.282-1.67.778-1.569,1.95.061.7.365,1.329.461,2,.583,4.067,3.46,6.546,6.771,8.6,2.107,1.307,3.969.12,3.877-2.253-.007-.181,0-.363,0-.546M29.613,47.918c.19-1.139-.16-1.268-.96-.9a6.112,6.112,0,0,1-1.707.555c-.837.124-.964.536-.96,1.261.02,5.525-.007,11.053-.015,16.582,0,2.142.02,4.286-.179,6.424-.028.293-.273.852.315.876a24.849,24.849,0,0,0,2.767-.133c.011,0-.006-.271,0-.417.249-8.168.5-16.334.739-24.25m-3.982-1.733a2.729,2.729,0,0,0,1-.225A15.322,15.322,0,0,0,30.682,44.1c.3-.171.815-.009.872-.538.05-.461-.374-.6-.638-.828a9.577,9.577,0,0,1-1.528-1.37,10.312,10.312,0,0,1-1.873-6.139c-.024-.684-.206-.748-.774-.428-1.757.988-3.528,1.958-5.287,2.949-.295.164-.691.457-.474.765.584.83.1,1.77.418,2.614a17.6,17.6,0,0,0,.979,2.631,4.338,4.338,0,0,0,3.254,2.43M8.784,113.6a3.621,3.621,0,0,0,2.14,2.732,16.729,16.729,0,0,0,2.889.527c1.552.249,2.142-.042,2.513-1.475.288-1.112.555-2.227.833-3.34.551-2.194.544-2.1-1.792-2.306-1.368-.12-2.948-.024-3.766-1.525a.728.728,0,0,0-.916-.247c-.3.1-.562.286-.522.629a2.477,2.477,0,0,1-.437,1.327,12.4,12.4,0,0,0-.942,3.678m22.506-.271v-1.744a1.231,1.231,0,0,0-.013-.218,1.35,1.35,0,0,0-1.661-1.178,10.442,10.442,0,0,1-3.624.077,1.2,1.2,0,0,0-1.574,1.342c.151,1.23.1,2.468.241,3.689.28,2.435,1.237,3.123,3.781,2.885.341-.031.682-.066,1.023-.087a2,2,0,0,0,2.013-2.277,18.916,18.916,0,0,1-.186-2.49M46.5,108.214c-1.368.933-2.725,1.941-4.6,1.567-.092-.018-.245-.02-.225.14.083.7-.557,1.313-.12,2.116a19.933,19.933,0,0,1,1.008,2.863c.758,2.124,1.263,2.4,3.595,2.05,2.69-.409,3.313-1.558,2.483-4.026a15.005,15.005,0,0,0-2.144-4.71M28.689,25.17a2.984,2.984,0,0,0-1.255.542c-2.033,1.182-4.05,2.385-6.085,3.561-.936.542-1.287,1.412-.6,2.2.422.487,1.124,1.252,1.9.865,2.343-1.167,4.61-2.468,6.9-3.727.136-.074.483-.133.177-.437a4.541,4.541,0,0,1-1.045-3.008m-15.5,8.9c-2.656,1.156-4.787,2.828-7.337,3.755a1.265,1.265,0,0,0-.575.5,1.839,1.839,0,0,0-.356,1.528.95.95,0,0,0,.916.713,4.818,4.818,0,0,0,2-.347c2.151-1.195,4.373-2.258,6.666-3.3-.789-.8-1.648-1.48-1.314-2.85m12.338,109.7c-.076,1.609-.133,3.09-.219,4.568a.872.872,0,0,0,.728.962,6.756,6.756,0,0,0,3.7.068c.444-.125.642-.289.636-.736-.017-1.414-.006-2.828-.006-4.249a6.61,6.61,0,0,1-4.837-.614m30.068-5.13c-2.061,1.2-1.768,1.139-4.373,1.281-.807.042-1.075.28-.846,1.071.92,3.195.9,3.2,4.4,2.872.151-.015.335.028.452-.041.524-.308,1.392-.459,1.266-1.2a17.833,17.833,0,0,0-.9-3.982m-52.309-.114c-.383.955-.684,1.764-1.034,2.551a1.126,1.126,0,0,0,.465,1.5,7.681,7.681,0,0,0,3.025,1.115,1.812,1.812,0,0,0,2.037-1.1c.371-.618.529-1.346.857-1.991a.589.589,0,0,0-.124-.776.657.657,0,0,0-.841-.011A2.1,2.1,0,0,1,5.94,140a4.2,4.2,0,0,1-2.655-1.473M20.621,33.5a13.106,13.106,0,0,1-1.086-.979c-.606-.428-.317-1.6-1.154-1.539-.671.052-1.3.678-1.937,1.064-.477.289-.935.614-1.418.9a2.234,2.234,0,0,0-.907,1.206c-.234.583.1.922.529,1.289.457.393.994.747,1.508.4,1.36-.911,2.972-1.379,4.465-2.336M8.755,46.923c-.013,1.3.612,2.319,1.419,2.352a2.88,2.88,0,0,0,2.218-.929c.542-.555.055-1.442.634-2.015.018-.018-.046-.136-.094-.188a2.686,2.686,0,0,0-2.647-.758c-1.038.192-1.681.6-1.53,1.537m-6.78,96.565c-.175.669-.336,1.331-.52,1.984-.105.376-.122.7.275.94a5.509,5.509,0,0,0,3.326.938,2.066,2.066,0,0,0,1.475-2.212c-.1-.238-.3-.17-.465-.179a8.39,8.39,0,0,1-4.091-1.471m32.494-68.5a7.535,7.535,0,0,0-3.775-.874c-.371-.031-.459.162-.653.417-.759.994-4.044,1.48-4.833.573-1.158-1.331-2.378-.608-3.609-.435-.151.018-.4.109-.4.334,0,.3.245.241.474.288a31.772,31.772,0,0,0,7.5.455,25.708,25.708,0,0,0,5.3-.758M30.3,150.6a9.413,9.413,0,0,1-4.988-.12v.929c0,1.626,0,1.626,1.644,1.63.418,0,.841.026,1.257-.006,2.232-.175,2.232-.181,2.087-2.433M2.41,48.971a2.059,2.059,0,0,0-.828,3,2.7,2.7,0,0,0,2.5,1.915A10.247,10.247,0,0,1,2.41,48.971M17.367,36.793c-.147.885.466.841,1.04.879s1.108-.074,1.176-.693c.059-.562-.492-1.178-.854-1.121-.474.081-1.228.254-1.362.935m12.508-12.3c.286.962-.111,2.057,1.137,2.542.162.065.289.256.492.092.149-.124.312-.306.2-.463-.509-.743-.588-1.816-1.832-2.172M1.824,148.061c.188.6-.625,1.471.536,1.718.686.146.691-.341.769-.75.2-1.053-.892-.588-1.305-.968m26.4,7.39c.249.041.524.009.54-.483.02-.665-.474-.439-.774-.409s-.876-.278-.85.361c.022.557.524.524,1.084.531m26.551-6.587c.912.476,1.506.077,1.943-.717a16.3,16.3,0,0,1-1.943.717M23.4,76.511a4.4,4.4,0,0,0,3.114.347L23.4,76.511m-.977-.079c.066.033.127.092.188.088.107-.006.35.072.286-.1s-.308-.085-.474.007" transform="translate(0 -0.001)" fill="#5c9f15"/>
    </g>
  </g>
</svg>
