<svg id="Group_158617" data-name="Group 158617" xmlns="http://www.w3.org/2000/svg" xmlns:xlink="http://www.w3.org/1999/xlink" width="167.877" height="95.887" viewBox="0 0 167.877 95.887">
  <defs>
    <clipPath id="clip-path">
      <rect id="Rectangle_14371" data-name="Rectangle 14371" width="167.877" height="95.887" fill="#06b0e3"/>
    </clipPath>
  </defs>
  <g id="Group_158616" data-name="Group 158616" clip-path="url(#clip-path)">
    <path id="Path_74704" data-name="Path 74704" d="M223.115,102.533c1.84.781,4.585,1.947,4.907,2.405-.5.129-2.972-1.037-4.629-1.815-3.2-1.5-4.346-1.985-4.618-1.472a.214.214,0,0,0,.089.29l8.229,4.376a15.6,15.6,0,0,1-3.921-1.221c-.466-.2-.971-.416-1.5-.638-.664-.293-1.354-.612-2.053-.951a.214.214,0,0,0-.283.092.248.248,0,0,0-.013.186c.061.17.263.271,1.966.978l.026.011c.644.29,1.344.577,2.028.865a9.257,9.257,0,0,1,2.4,1.3c-.381-.074-1.274-.385-2.014-.644-2.72-.949-3.6-1.176-3.832-.747a.282.282,0,0,0-.014.2c.074.213.465.4,1.974,1.066.533.234,1.245.546,1.71.786-.748-.051-1.992-.144-2.906-.214a.207.207,0,0,0-.223.155.215.215,0,0,0,.108.249c.755.387,1.606.833,1.7.9l.134-.166.2-.065c-.027-.087-.035-.113-.9-.561,2.653.2,2.66.188,2.729.057a.341.341,0,0,0,.015-.217c-.093-.266-.651-.547-2.4-1.313-.449-.2-1.006-.441-1.374-.625a26.1,26.1,0,0,1,2.933.906c2.057.718,2.436.824,2.588.536a.392.392,0,0,0,.018-.325,1.056,1.056,0,0,0-.346-.413c.988.256,1.729.3,1.921-.067a.214.214,0,0,0-.089-.29l-7.471-3.973c.854.333,2.04.89,3.008,1.344,3.463,1.627,4.9,2.229,5.224,1.623a.349.349,0,0,0,.017-.291c-.142-.4-1.064-.909-2.907-1.728,1.43.5,2.267.579,2.492.155a.445.445,0,0,0,.015-.376c-.2-.541-1.631-1.371-3.293-2.178,2.621.872,2.682.765,2.755.624a.215.215,0,0,0,.016-.164c-.033-.108-.04-.132-5.094-2.788,1.474.424,3.728,1.142,5.309,1.662a.211.211,0,0,0,.256-.1.287.287,0,0,0,.015-.2c-.082-.249-.64-.557-3.138-1.736-.465-.22-1-.47-1.388-.665a26.953,26.953,0,0,1,2.611,1.024c2.489,1.071,3.531,1.455,3.807.936a.3.3,0,0,0,.015-.2c-.091-.275-.879-.71-3.659-2.024l3.05.488a.219.219,0,0,0,.223-.111.273.273,0,0,0,.012-.2c-.03-.082-.093-.253-1.388-.775a.215.215,0,0,0-.16.4l.166.068-3.227-.516a.214.214,0,0,0-.223.111.219.219,0,0,0-.015.17c.04.121.04.121,1.353.741.908.429,2.655,1.254,3.268,1.65a17.908,17.908,0,0,1-3.054-1.131c-2.418-1.04-3.428-1.414-3.693-.916a.237.237,0,0,0-.014.178c.053.159.2.251,2.132,1.161.4.191.885.418,1.34.639-5.124-1.651-5.215-1.486-5.307-1.31a.214.214,0,0,0-.015.164.211.211,0,0,0,.105.126c1.462.768,3.372,1.775,4.722,2.492-1.769-.581-4.485-1.531-6.4-2.217a.214.214,0,0,0-.15.4c4.83,1.87,8.718,3.831,8.67,4.369-.216.407-2.728-.508-7.458-2.72-1.865-.872-1.863-.871-1.983-.647a.338.338,0,0,0-.017.275c.177.5,1.707,1.194,4.914,2.556" transform="translate(-154.811 -68.428)" fill="#06b0e3"/>
    <path id="Path_74705" data-name="Path 74705" d="M261.72,100.152l-3.434-1.826c1.737.644,3.142.951,3.427.413a.3.3,0,0,0,.015-.2c-.145-.441-3.731-2.313-7.076-3.979l6.559,2.5a.214.214,0,0,0,.28-.266c-.014-.043-.021-.066-.13-.129l0-.005s-.42-.211-.915-.452c-7.335-3.582-9.991-5.04-10.779-5.591,1.417.284,6.465,2.414,11,4.5a.215.215,0,0,0,.279-.094.221.221,0,0,0,.014-.172c-.047-.14-.049-.146-2.809-1.414-2.806-1.29-9.718-4.469-11.356-5.77l2.288,1.067c8.106,3.771,10.364,4.752,11.045,4.907l.041.019,0-.01a.7.7,0,0,0,.126.015.145.145,0,0,0,.156-.1.214.214,0,0,0,.014-.169c-.029-.088-.029-.088-.426-.272-14.68-6.824-20.26-10.042-20.635-10.768.572-.186,3.942,1.31,5.774,2.124a13.837,13.837,0,0,0,3.1,1.218.375.375,0,0,0,.007.247c.233.65,2.326,1.562,5.748,2.988,2.09.871,4.953,2.064,5.093,2.44a.214.214,0,0,0,.089.29.211.211,0,0,0,.1.025.214.214,0,0,0,.189-.114.357.357,0,0,0,.017-.3c-.208-.582-2.159-1.42-5.324-2.739-2.119-.883-5.3-2.209-5.506-2.69.692-.124,4.983,1.593,6.415,2.167s1.426.572,1.528.382a.237.237,0,0,0,.013-.181c-.05-.144-.17-.209-1.286-.693a12.827,12.827,0,0,1-2.111-1.045.214.214,0,0,0-.4-.095.278.278,0,0,0-.015.226.332.332,0,0,0,.031.065c-2.846-1.083-3.928-1.345-4.349-1.217a.2.2,0,0,0-.1-.186L240.75,81.2a49.077,49.077,0,0,1,8.556,3.383.214.214,0,0,0,.281-.092.222.222,0,0,0,.015-.17c-.043-.133-.046-.141-2.507-1.343-1.8-.881-4.986-2.434-5.864-3.031a26.339,26.339,0,0,1,4.082,1.733c3.433,1.651,4.863,2.26,5.19,1.644a.214.214,0,0,0-.114-.3c-3.212-1.195-8.44-3.438-8.793-4.368a.168.168,0,0,1-.008-.023,24.207,24.207,0,0,1,4.11,1.676c3.74,1.729,5.3,2.377,5.608,1.791a.32.32,0,0,0,.017-.261c-.186-.549-2.207-1.554-6.385-3.466-.485-.222-.975-.446-1.414-.65,1.029.4,2.364.963,3.471,1.432,4.337,1.838,4.747,1.936,4.917,1.615a.468.468,0,0,0,.021-.39,1.777,1.777,0,0,0-.745-.724c.649.1,1.026-.007,1.18-.3a.358.358,0,0,0,.015-.295c-.148-.418-1.361-1.167-2.916-1.982,3.068,1.14,3.172.944,3.245.808a.5.5,0,0,0,.021-.412c-.174-.487-1.126-1.109-2.55-1.824,2.428.886,2.507.738,2.577.609a.508.508,0,0,0,.019-.425c-.335-.925-3.35-2.546-9.451-5.075,2.156.773,5.72,2.317,9.052,3.889a.214.214,0,0,0,.192-.383L240.7,67.96c1.047.109,4.358,1.807,6.256,2.78,3.791,1.944,5.141,2.576,5.434,2.027a.4.4,0,0,0,.02-.327c-.288-.855-3.734-2.5-8.957-4.912-2.527-1.167-4.914-2.269-5.951-2.919a.215.215,0,0,0-.228.364c1.059.665,3.459,1.773,6,2.945,3.374,1.558,8.432,3.894,8.722,4.621-.514.04-2.912-1.191-4.842-2.18-4.533-2.325-6.715-3.33-7.144-2.523a.214.214,0,0,0,.089.29l6.51,3.462c-2.953-1.24-5.326-2.047-5.583-1.56a.213.213,0,0,0-.012.174c.035.1.035.1.728.378,8.578,3.483,10.354,4.846,10.612,5.361-1.144-.27-6.921-2.585-10.533-4.08a.217.217,0,0,0-.272.1.268.268,0,0,0-.013.194c.079.22.5.424,3.207,1.559,2.682,1.124,7.146,2.994,7.569,3.877-1.073-.2-6.712-2.462-10.216-3.929a.214.214,0,0,0-.167.4c4.818,2.06,9.893,4.552,10.059,5.107-.214.4-1.912.144-8.822-3.337-1.269-.639-1.27-.64-1.378-.435a.341.341,0,0,0-.016.281c.17.465,1.461,1.023,4.366,2.184,2.068.827,4.86,1.942,5.337,2.611-.642-.147-2.66-1-4.314-1.7-4.556-1.931-5.335-2.187-5.534-1.806a.249.249,0,0,0-.014.183c.063.186.322.335,3.145,1.627,1.98.906,5.58,2.552,6.1,3.132-.613.052-3.225-1.163-4.983-1.975-3.515-1.625-4.434-1.977-4.667-1.536a.5.5,0,0,0-.016.424,2.928,2.928,0,0,0,1.142,1.044c-1.03-.4-1.529-.448-1.7-.123a.3.3,0,0,0-.016.2c.071.22.655.6,2.342,1.474-1.589-.555-2.813-.811-3.036-.4a.214.214,0,0,0,.089.29l4.9,2.6c-4.073-1.8-5.6-2.326-5.91-1.733a.36.36,0,0,0-.017.29c.23.684,3.409,2.5,7.486,4.589-2.826-1.321-5.693-2.671-8.18-3.849a.213.213,0,0,0-.281.094.267.267,0,0,0-.015.19c.029.085.112.331,3.055,1.719a30.392,30.392,0,0,1-3.916-.983c-.127-.038-.257-.078-.343.066a.215.215,0,0,0,.1.307,10.99,10.99,0,0,1,1.256.623.215.215,0,0,0,.382.006.245.245,0,0,0,.023-.146c3.25.892,3.44.577,3.538.391l3.927,1.843a.365.365,0,0,0,.012.1c.2.584,2.091,1.7,5.286,3.276-2.1-.719-2.234-.467-2.3-.349a.312.312,0,0,0-.015.2c.1.3,1.219,1.086,8.055,4.478l-6.685-2.55a.214.214,0,0,0-.169.394c3.935,1.893,10.2,5.024,11.049,5.75-.729.315-5.234-1.5-10.24-4.154a.215.215,0,0,0-.2.379l7.733,4.112-.816-.4c-3.851-1.89-6.22-2.978-6.654-2.164a.252.252,0,0,0-.016.181c.08.25.934.741,6.44,3.51l1.188.6-7.137-2.624a.214.214,0,0,0-.263.1.383.383,0,0,0-.015.318c.393,1.1,7.167,4.034,9.467,5-1.2-.072-5.022-1.623-9.223-3.791a.214.214,0,0,0-.288.09.465.465,0,0,0-.021.392c.116.31.563.631,1.3,1-.789-.181-1.279-.138-1.445.175a.482.482,0,0,0-.019.4,3.06,3.06,0,0,0,1.275,1.125q-1.4-.375-1.581-.047a.218.218,0,0,0-.013.17c.04.121.04.121,1.809.946,1.98.924,6.512,3.039,7.093,3.675a6.028,6.028,0,0,1-2.4-.577,66.869,66.869,0,0,0-6.668-2.9.215.215,0,0,0-.17.394,68.833,68.833,0,0,0,6.664,2.9,7.15,7.15,0,0,1,1.792,1.184l-8.855-3.126a.214.214,0,0,0-.261.1.249.249,0,0,0-.013.186c.066.19.366.342,2.672,1.352,1.779.779,5.432,2.379,5.739,2.94-.512.134-3.243-1.1-4.895-1.855-3.144-1.43-3.964-1.746-4.185-1.333a.239.239,0,0,0-.015.176c.021.065.062.2,1.9,1.19-1.366-.445-2.437-.6-2.684-.14a.214.214,0,0,0-.012.175.217.217,0,0,0,.124.125c3.7,1.422,7.687,3.294,7.833,3.9-.535.087-3.34-1.114-5.036-1.841-3.21-1.376-3.635-1.509-3.806-1.186a.244.244,0,0,0-.015.177c.065.2.517.474,4.511,2.472.482.241.986.493,1.45.728-.956-.338-2.1-.755-3.073-1.108-3.779-1.376-3.779-1.378-3.9-1.161a.3.3,0,0,0-.015.24c.135.388,1.284.924,3.874,2.053l.635.278c-5.283-2.075-5.449-1.759-5.586-1.5a.214.214,0,0,0,.089.29l6.283,3.34c-.8-.3-1.926-.815-2.841-1.236-3.157-1.451-4.473-1.985-4.781-1.407a.266.266,0,0,0-.015.188c.1.309,2.348,1.527,6.679,3.622a34.962,34.962,0,0,1-7.671-2.936.215.215,0,0,0-.193.383l6.3,3.351a42.161,42.161,0,0,1-7.6-2.877.214.214,0,0,0-.279.095.219.219,0,0,0-.012.173c.04.114.04.114,1.221.632a52,52,0,0,1,4.849,2.336l-7.3-2.388a.215.215,0,0,0-.167.394l5.182,2.756c-1.151-.362-2.911-1.037-4.123-1.5-2.755-1.056-2.758-1.046-2.881-.814a.214.214,0,0,0,.089.29l5.7,3.033a38.55,38.55,0,0,1-7.247-2.687.215.215,0,0,0-.279.095.3.3,0,0,0-.017.244c.143.416,1.406,1.04,4.181,2.284l.021.01c-1-.334-2.166-.747-3.041-1.055-2.868-1.012-2.866-1.01-2.975-.8a.212.212,0,0,0-.015.166.214.214,0,0,0,.109.127c1.292.64,3.07,1.539,4.347,2.214l-6.032-1.94a.214.214,0,0,0-.142.4,32.639,32.639,0,0,1,5.638,2.627c-1.414-.448-5.575-1.79-7.343-2.361a.213.213,0,0,0-.255.1.366.366,0,0,0-.018.307c.174.469,1.359.949,3.276,1.693a17.164,17.164,0,0,1,2.59,1.142c-.513-.012-2.167-.477-6.777-2.318-.824-.329-.824-.33-.917-.154a.332.332,0,0,0-.017.274c.162.461,1.4,1.06,4.109,2.229.52.224,1.084.468,1.457.644a21.7,21.7,0,0,1-4.249-1.383c-1.246-.523-2.448-1.027-2.881-1.193a.214.214,0,0,0-.163.4c1,.439,2.069.889,3.087,1.288a12.555,12.555,0,0,1,2.685,1.466c-1-.188-4.955-1.565-7.436-2.47a.214.214,0,0,0-.263.1.3.3,0,0,0-.015.245c.041.118.126.36,1.659,1.163-2.55-.945-3.267-1.067-3.452-.718a.328.328,0,0,0-.015.212c.079.231.537.5,1.908,1.133-1.935-.686-3.479-1.072-3.7-.654a.214.214,0,0,0,.112.3c2.592,1,5.447,2.337,5.752,2.784a20.372,20.372,0,0,1-3.389-1.235c-3.108-1.3-4.047-1.605-4.284-1.16a.367.367,0,0,0-.018.3c.184.512,1.6,1.135,3.74,2.021-.434-.161-.877-.33-1.276-.482-3.479-1.326-4.076-1.488-4.255-1.153a.317.317,0,0,0-.014.209c.111.32,1.565,1.061,3.092,1.763-1.082-.271-2.663-.786-3.5-1.057-1.357-.441-1.358-.441-1.455-.26a.212.212,0,0,0-.016.163.214.214,0,0,0,.1.127l1.976,1.051a.214.214,0,0,0,.232-.359c3.223,1.023,3.9,1.085,4.076.754a.214.214,0,0,0-.1-.3c-1.338-.59-2.766-1.274-3.508-1.7.784.231,2.144.75,3.216,1.158a17.735,17.735,0,0,0,3.662,1.218.275.275,0,0,0,.283-.144.287.287,0,0,0,.014-.2c-.08-.223-.525-.427-2.241-1.134a17.824,17.824,0,0,1-3.617-1.75,18.229,18.229,0,0,1,3.725,1.325c2.964,1.236,3.741,1.494,3.956,1.085a.368.368,0,0,0,.014-.31c-.247-.663-2.985-1.885-4.732-2.608a60.3,60.3,0,0,1,6.279,2.338.215.215,0,0,0,.274-.1.322.322,0,0,0,.015-.209c-.1-.279-.769-.617-3.037-1.637-.885-.4-2.022-.908-2.573-1.224a43.665,43.665,0,0,1,4.656,1.625c2.639,1.022,2.65,1,2.775.769a.216.216,0,0,0,.014-.171c-.032-.089-.046-.1-.289-.2-2.593-1.13-4-1.831-4.759-2.261,6.638,2.389,6.771,2.144,6.869,1.958a.376.376,0,0,0,.014-.318,1.42,1.42,0,0,0-.5-.523c1.247.374,2.147.5,2.324.165a.251.251,0,0,0,.013-.187c-.063-.179-.295-.3-2.069-1.063-.788-.34-1.986-.857-2.843-1.294,5.92,2.341,6.574,2.242,6.764,1.884a.328.328,0,0,0,.015-.273c-.139-.375-1-.744-2.939-1.5-.749-.291-1.843-.716-2.494-1.039l3.119,1.005c4.082,1.314,4.087,1.317,4.175,1.148a.382.382,0,0,0,.014-.324,4.8,4.8,0,0,0-1.968-1.376l3.574,1.15a.211.211,0,0,0,.255-.1.236.236,0,0,0,.015-.175c-.026-.082-.081-.253-3.444-1.97,5.138,1.811,5.173,1.741,5.305,1.491a.241.241,0,0,0,.014-.181c-.056-.162-.2-.251-2.116-1.107-.253-.113-.548-.245-.861-.387,2.3.916,4.526,1.613,4.839,1.022a.214.214,0,0,0-.089-.29l-3.722-1.979c4.69,1.8,5.457,1.962,5.651,1.6a.214.214,0,0,0-.089-.29l-4.123-2.193,5.722,1.873a.213.213,0,0,0,.256-.1.33.33,0,0,0,.016-.27,1.6,1.6,0,0,0-.646-.612c1.24.378,2.172.512,2.363.152a.214.214,0,0,0-.089-.29l-2.059-1.1c1.806.669,3.385,1.063,3.664.539a.214.214,0,0,0-.1-.294c-2.249-1.083-5.749-2.83-6.718-3.457a24.107,24.107,0,0,1,3.987,1.6c2.94,1.351,4.074,1.814,4.344,1.307a.215.215,0,0,0-.089-.29l-6.409-3.408a71.776,71.776,0,0,1,6.929,2.592c.759.312.759.311.852.137a.3.3,0,0,0,.015-.239c-.135-.388-1.284-.924-3.871-2.053-.836-.365-1.849-.807-2.6-1.173.671.239,1.52.548,2.315.837,5.262,1.915,5.271,1.894,5.4,1.649a.228.228,0,0,0,.015-.171c-.048-.15-.059-.185-3.455-1.884-.92-.46-2.02-1.01-2.883-1.459.578.236,1.236.518,1.832.774,4.023,1.725,5.32,2.181,5.591,1.673a.431.431,0,0,0,.015-.364c-.4-1.06-5.6-3.192-7.56-3.963,1.068.074,4.032,1.214,7.4,2.869l.9.448a.215.215,0,0,0,.193-.383c-.274-.139-.587-.3-.929-.465-2.215-1.114-4.993-2.538-6.359-3.3.76.29,1.865.792,2.821,1.227,3.564,1.62,5.159,2.265,5.477,1.667a.368.368,0,0,0,.018-.3c-.2-.574-2.081-1.5-4.672-2.653l5.21,1.839a.215.215,0,0,0,.261-.1.48.48,0,0,0,.016-.408,2.026,2.026,0,0,0-.715-.745c.748.163,1.276.156,1.42-.116a.3.3,0,0,0,.016-.238c-.185-.553-2.732-1.83-7.368-3.994l-.776-.363a28.453,28.453,0,0,1,3.4,1.206c1.187.5,2.5,1.082,3.852,1.633l.583.238.6.27a.215.215,0,0,0,.29-.27c-.034-.095-.041-.113-.707-.387q-2.791-1.248-4.745-2.011c-1.859-.849-3.575-1.75-3.763-2.268-.014-.037-.008-.05-.005-.054.238-.445,2.867.524,7.82,2.886,1.773.845,1.771.845,1.89.624a.438.438,0,0,0,.019-.37c-.11-.293-.536-.6-1.237-.943.813.179,1.391.164,1.562-.156a.212.212,0,0,0,.012-.173.215.215,0,0,0-.119-.126c-4.125-1.716-8.424-3.771-9.479-4.64l9.565,3.517a.214.214,0,0,0,.263-.1.224.224,0,0,0,.015-.17c-.047-.148-.057-.179-4.06-2.192-2.161-1.087-5.324-2.678-6.091-3.184.776-.1,4.214,1.579,5.94,2.426,3.263,1.6,4.048,1.933,4.275,1.51a.214.214,0,0,0-.089-.29m-9.339.451q.374.187.784.389c-.292-.133-.558-.264-.784-.389m8.093,3.918c-.283-.131-.654-.308-1.036-.49q-.615-.294-1.189-.563a14.561,14.561,0,0,1,2.225,1.052" transform="translate(-153.305 -45.821)" fill="#06b0e3"/>
    <path id="Path_74706" data-name="Path 74706" d="M266.057,52.631h0c1.126,0,12.976,5.662,20.749,9.509a.214.214,0,0,0,.284-.092.334.334,0,0,0,.018-.27c-.112-.338-.938-.9-2.343-1.669a1.81,1.81,0,0,0,.858.04.644.644,0,0,0,.408-.315.315.315,0,0,0,.017-.256c-.225-.679-3.454-2.312-9.731-5.278l6.317,2.317a.215.215,0,0,0,.263-.1.3.3,0,0,0,.013-.244c-.193-.531-2.847-1.65-3.979-2.106a.214.214,0,1,0-.16.4c.827.333,1.708.721,2.409,1.063l-8.415-3.087a.214.214,0,0,0-.263.1.226.226,0,0,0-.014.174c.05.152.06.179,3.506,1.807,2.994,1.414,9.164,4.329,9.628,5.055a.257.257,0,0,1-.114.061c-1.018.289-4.832-1.95-8.2-3.925-4.444-2.606-7.217-4.168-8.274-3.868a.612.612,0,0,0-.387.3.305.305,0,0,0-.015.2c.125.379,1.765,1.2,7.34,3.83,3.169,1.5,7.565,3.569,9.607,4.783-1.892-.929-5.416-2.649-8.931-4.314-10.575-5.009-10.751-4.683-10.9-4.393a.214.214,0,0,0,.089.29.216.216,0,0,0,.219-.01m10.1,3.257c-3.02-1.424-6.418-3.027-7.041-3.519l.036-.012c.963-.268,4.667,1.906,7.94,3.825.449.263.894.525,1.333.78Z" transform="translate(-188.547 -36.831)" fill="#06b0e3"/>
    <path id="Path_74707" data-name="Path 74707" d="M246.9,166.748c.538.254,1.186.559,1.781.851-5.99-2.128-6.1-1.93-6.191-1.751a.214.214,0,0,0-.015.164.212.212,0,0,0,.105.126c1.384.727,3.188,1.678,4.475,2.362-1.707-.549-4.315-1.442-6.157-2.087a.214.214,0,0,0-.148.4c4.011,1.553,8.327,3.594,8.31,4.178-.241.454-2.977-.577-8.129-3.065-2.014-.972-2.014-.971-2.135-.741a.346.346,0,0,0-.017.285c.19.537,1.864,1.3,5.373,2.788,2.108.895,5.293,2.248,5.427,2.656-.373.331-3.708-1.347-5.7-2.353-3.769-1.9-5.224-2.562-5.539-1.969a.214.214,0,0,0,.089.29l11.417,6.071a3.157,3.157,0,0,1-1.082-.137c-1.545-.829-3.8-1.789-6.289-2.822-.667-.277-1.344-.558-1.9-.8-.53-.278-1-.529-1.37-.734a.215.215,0,0,0-.293.087.275.275,0,0,0-.013.2c.059.165.3.322,1.469.827a50.215,50.215,0,0,0,8.21,3.63c1.012.54,1.738,1.03,1.863,1.38a.246.246,0,0,1,.01.036,27.34,27.34,0,0,1-4.055-1.786c-4.412-2.155-6.533-3.087-6.932-2.338a.284.284,0,0,0-.015.23c.133.384,1.351.95,4.307,2.247,1.493.655,3.573,1.567,4.526,2.143-1.58-.528-5.343-1.84-8.005-2.776a.214.214,0,0,0-.169.393c1.548.8,3.573,1.844,5.031,2.618-4.346-1.388-4.484-1.127-4.57-.963a.214.214,0,0,0,.089.29l3.534,1.879-.356-.078c-1.737-.383-2.518-.512-2.714-.145a.214.214,0,0,0,.105.3,14.144,14.144,0,0,1,2.034,1.007.215.215,0,0,0,.4.043.283.283,0,0,0,.013-.2c-.026-.076-.091-.258-1.473-.892.5.075,1.127.214,1.547.307,1.316.291,1.631.349,1.757.112a.214.214,0,0,0-.089-.29l-3.5-1.859c1.221.31,3.275.944,5.181,1.585a.214.214,0,0,0,.258-.1.221.221,0,0,0,.015-.168c-.029-.094-.062-.2-4.312-2.4,6.005,2.107,6.018,2.083,6.122,1.889a.334.334,0,0,0,.017-.274c-.19-.546-2.116-1.424-5.266-2.805a31.8,31.8,0,0,1-4.005-1.928c.67-.178,4.292,1.593,6.285,2.567,3.539,1.729,4.387,2.091,4.614,1.664a.538.538,0,0,0,.023-.444,2.7,2.7,0,0,0-1.1-1.05,1.285,1.285,0,0,0,.346-.045.614.614,0,0,0,.387-.3.213.213,0,0,0-.089-.29l-10.8-5.744c1.038.391,2.745,1.251,4.1,1.934,4.075,2.052,5.9,2.879,6.273,2.174a.364.364,0,0,0,.018-.3c-.14-.4-1.04-.91-2.551-1.6,1.136.35,1.813.364,2.018-.021a.436.436,0,0,0,.015-.368c-.2-.535-1.643-1.361-3.294-2.157,2.693.882,2.748.777,2.826.633a.216.216,0,0,0,.015-.164c-.033-.107-.04-.129-4.648-2.552,1.7.542,4.36,1.475,6.22,2.149a.215.215,0,0,0,.262-.1.307.307,0,0,0,.016-.2c-.1-.3-.983-.756-3.768-2.07-.7-.332-1.471-.694-1.938-.935a25.208,25.208,0,0,1,3.269,1.36c2.8,1.3,4.055,1.811,4.364,1.229a.32.32,0,0,0,.016-.207c-.1-.313-1.084-.854-4.353-2.4l3.619.807a.217.217,0,0,0,.236-.109.3.3,0,0,0,.013-.206c-.028-.078-.115-.315-1.865-1.021a.215.215,0,0,0-.16.4c.168.067.342.141.513.215l-4-.891a.217.217,0,0,0-.236.108.221.221,0,0,0-.014.171c.042.125.042.128,1.614.87a44.985,44.985,0,0,1,4.089,2.085,17.92,17.92,0,0,1-3.659-1.441c-2.775-1.292-3.935-1.762-4.231-1.2a.244.244,0,0,0-.015.18c.057.171.267.3,2.551,1.376" transform="translate(-169.095 -116.792)" fill="#06b0e3"/>
    <path id="Path_74708" data-name="Path 74708" d="M219.29,85.565a14.674,14.674,0,0,0-1.668-4.257A11.82,11.82,0,0,0,214.374,78a15.683,15.683,0,0,0-4.048-2.12,10.486,10.486,0,0,0-3.132-.484,13.888,13.888,0,0,0,2.111-2.63,13.616,13.616,0,0,0,1.6-4.572,12.54,12.54,0,0,0,.163-2.43,13.878,13.878,0,0,0-.331-2.389,15.388,15.388,0,0,0-.7-2.307,13.172,13.172,0,0,0-1.032-2.195,10.261,10.261,0,0,0-1.464-1.94A13.5,13.5,0,0,0,205.68,55.4a20.85,20.85,0,0,0-4.119-2.343,19.514,19.514,0,0,0-4.5-1.371c-1.547-.258-3.1-.4-4.646-.584a32.453,32.453,0,0,0-9.327.248c-.4.07-.8.151-1.194.236-.793.114-1.583.245-2.362.43a13.573,13.573,0,0,0-1.982.593c-.046.02-.09.035-.136.055-1.139.367-2.2.808-3.3,1.213-1.245.466-2.474.978-3.73,1.414-4.554,1.584-9.124,3.121-13.573,4.981l-.026.011a.644.644,0,0,0-.162.107c-.008.006-.017.01-.024.016a.647.647,0,0,0-.1.127.632.632,0,0,0-.046.066.649.649,0,0,0-.049.165.568.568,0,0,0-.015.058.648.648,0,0,0,.024.27c.435,1.367.967,2.7,1.379,4.077.273.911.47,1.846.743,2.757.068.239.159.47.229.708.482,1.623,1.049,3.217,1.544,4.836.093.44.188.88.307,1.308.083.3.177.588.283.872.189.783.372,1.567.6,2.337.157.57.346,1.129.543,1.686.018.1.033.2.053.291a12.2,12.2,0,0,0,.511,1.722c.145.368.3.729.456,1.089l.576,1.937c.216.727.492,1.436.764,2.145.135.541.266,1.084.4,1.624a35.8,35.8,0,0,0,.981,3.477c.253.724.522,1.436.79,2.146.071.238.137.477.211.713.573,1.994,1.314,3.937,1.945,5.915.132.414.249.831.392,1.229.6,2.116,1.109,4.262,1.865,6.33l.288.845.434,1.559s.948,2.99,1.157,3.629c.061.239.129.476.185.716l.013.048a.578.578,0,0,0,.139.223c.052.147.1.3.152.445,1.54.285,3.133.54,4.74.77s3.212.508,4.838.648l.042,0a.8.8,0,0,0,.346-.049c2.734-1.033,5.439-2.153,8.231-3.032,2.805-.841,5.445-2.144,8.192-3.151,1.378-.5,2.764-.934,4.166-1.4q1.061-.345,2.1-.756c.693-.276,1.353-.631,2.016-.973s1.3-.731,1.935-1.131,1.243-.832,1.867-1.246a21.2,21.2,0,0,0,3.431-2.925,17.65,17.65,0,0,0,2.632-3.7,18.461,18.461,0,0,0,1.526-4.272,21.4,21.4,0,0,0,.631-4.5,18.7,18.7,0,0,0-.749-4.482m-25.98-9.949.221.317a.507.507,0,0,0,.538.2,14.489,14.489,0,0,1,5.806.186,6.59,6.59,0,0,1,2.693,1c.792.566,1.464,1.23,2.251,1.808a5.014,5.014,0,0,1,1.573,2.387c.348.895.788,1.736,1.228,2.626a10.4,10.4,0,0,1,.685,5.757,25.148,25.148,0,0,1-1.187,5.681,18.013,18.013,0,0,1-3.365,4.811,16.107,16.107,0,0,1-4.747,3.524c-.437.236-.888.443-1.33.667s-.883.455-1.332.669a29.867,29.867,0,0,1-2.752,1.175c-1.7.6-3.432,1.144-5.133,1.755-1.714.577-3.375,1.292-5.037,2l-2.488,1.067-2.531.953c-.84.326-1.692.621-2.522.972-.631.265-1.253.553-1.876.839-.037-.1-1.311-4.39-1.311-4.39l-.385-1.136c-.05-.183-.1-.366-.151-.548-.558-2.215-1.385-4.348-2.094-6.517-.013-.051-.028-.1-.041-.15-.052-.206-.119-.4-.177-.6-.577-2.086-1.112-4.185-1.787-6.242-.111-.369-.232-.734-.351-1.1-.191-.785-.38-1.57-.586-2.342a32.969,32.969,0,0,0-1.109-3.317c-.161-.442-.327-.882-.491-1.324-.162-.688-.324-1.375-.537-2.047l-.7-2.208c-.08-.407-.16-.815-.25-1.215A11.631,11.631,0,0,0,163.5,79.2c-.033-.076-.069-.15-.1-.226-.13-.484-.262-.967-.423-1.441-.258-.8-.563-1.591-.86-2.382-.077-.326-.167-.645-.272-.956-.143-.422-.31-.83-.479-1.24-.477-1.572-.9-3.16-1.4-4.726-.081-.256-.141-.518-.225-.772-.28-.888-.636-1.751-.917-2.641-.364-1.155-.642-2.336-.971-3.5,2.631-.94,5.221-1.987,7.845-2.945.073-.026.148-.049.221-.074,1.448-.514,2.875-1.084,4.309-1.634s2.89-1.045,4.331-1.576c1.23-.437,2.471-.906,3.658-1.349.219-.067.438-.126.682-.182l.965-.276c.8-.242,1.612-.473,2.431-.648.319-.046.638-.094.957-.132.717-.084,1.44-.132,2.162-.188a16.91,16.91,0,0,1,2.179.1,15.626,15.626,0,0,1,1.9.328,14.827,14.827,0,0,1,1.857.481,12.19,12.19,0,0,1,1.761.744,7.4,7.4,0,0,1,1.56,1.1,13.829,13.829,0,0,1,3.919,6.453,12.72,12.72,0,0,1-.229,7.517,11.1,11.1,0,0,1-.82,1.731,12.132,12.132,0,0,1-1.188,1.51,33.216,33.216,0,0,1-2.879,2.571l-.079.068a.535.535,0,0,0-.087.708M218.364,94.3a14.862,14.862,0,0,1-1.627,3.9,19.424,19.424,0,0,1-2.484,3.417,24.123,24.123,0,0,1-3.085,2.94,13.015,13.015,0,0,1-1.79,1.181c-.626.349-1.262.68-1.914.98s-1.316.572-1.976.854-1.322.57-2,.823c-1.356.517-2.724,1.076-4.1,1.563-2.764.969-5.636,1.641-8.343,2.777-2.651,1.069-5.385,1.911-8.094,2.826-1.4-.215-2.824-.3-4.246-.454-1.015-.1-2.045-.182-3.087-.257.272-.1.548-.18.817-.28.846-.314,1.669-.685,2.5-1.026l2.493-1.048,2.54-.926c1.692-.618,3.391-1.214,5.046-1.92,1.669-.672,6.964-2.685,7.916-3.1q.713-.313,1.414-.657c.46-.244.9-.519,1.345-.8a33.96,33.96,0,0,0,4.888-3.895,17.543,17.543,0,0,0,3.606-5.127,12.531,12.531,0,0,0,1.721-6.091,16.612,16.612,0,0,0-.345-3.169c-.227-1.036-.455-2.044-.638-3.089a7,7,0,0,0-1.172-2.97c-.662-.87-1.413-1.633-2.074-2.478a6.542,6.542,0,0,0-2.556-1.917,21.313,21.313,0,0,0-2.957-1.238,11.214,11.214,0,0,0-4.676-.281,13.033,13.033,0,0,0,1.762-1.8,19.981,19.981,0,0,0,2.191-3.571,9.868,9.868,0,0,0,.895-4.124A17.574,17.574,0,0,0,199.8,61.2a13,13,0,0,0-7.788-9.024c.1.006.208,0,.312.01a20.9,20.9,0,0,1,4.473.729c1.458.383,2.915.738,4.323,1.252A16.505,16.505,0,0,1,205.09,56.2a9.994,9.994,0,0,1,1.547,1.556,13.078,13.078,0,0,1,1.261,1.77,11.27,11.27,0,0,1,.909,1.983,14.734,14.734,0,0,1,.485,2.148,21.624,21.624,0,0,1,.217,2.187,13.554,13.554,0,0,1-.017,2.172,10.542,10.542,0,0,1-1.341,4.107,10.8,10.8,0,0,1-2.7,3.438.535.535,0,0,0,.359.946h.015a13.027,13.027,0,0,1,4.107.641,12.793,12.793,0,0,1,3.775,1.791,9.586,9.586,0,0,1,2.6,3.16,21.881,21.881,0,0,1,1.683,3.832,19.079,19.079,0,0,1,.642,4.167,12.66,12.66,0,0,1-.27,4.2" transform="translate(-110.958 -36.106)" fill="#06b0e3"/>
    <path id="Path_74709" data-name="Path 74709" d="M223.462,106.641c.255-.108.462-.339.719-.431s.553-.108.817-.2.5-.253.767-.338a1.829,1.829,0,0,0,.778-.346,6.387,6.387,0,0,1,.655-.562c.081-.061.163-.125.243-.189l.007,0a1.418,1.418,0,0,0,.158-.1l-.007-.042a1.527,1.527,0,0,0,.233-.253,1.934,1.934,0,0,1,.258-.356l.34-.269a2.241,2.241,0,0,0,1.038-1.418,11.441,11.441,0,0,0,.634-1.692,2.2,2.2,0,0,0-.061-.9,2.713,2.713,0,0,1-.035-.884,4.08,4.08,0,0,0-.5-1.678,6.893,6.893,0,0,0-.38-.824,2.17,2.17,0,0,0-.658-.658,6.271,6.271,0,0,1-.694-.625,1.238,1.238,0,0,0-.85-.389,2.315,2.315,0,0,1-.877-.264,1.439,1.439,0,0,0-.888-.01,1.172,1.172,0,0,1-.432.019,1.433,1.433,0,0,0-.44-.12c-.146,0-.276.127-.411.181a.534.534,0,0,1-.439-.068.6.6,0,0,0-.827.176.919.919,0,0,1-.8.237,3.041,3.041,0,0,0-.843.033,4.473,4.473,0,0,0-.78.5l.051-.021a2.794,2.794,0,0,1-.5.3,3.29,3.29,0,0,1-.572.131c-.394.091-.636.39-1.023.48-.366.119-.834.161-1.2.308a4.4,4.4,0,0,0-.978.5,7.9,7.9,0,0,0,.649,2.655c.2.468.116.866.281,1.329a13.447,13.447,0,0,1,.576,1.373c.11.44.08.876.231,1.33.074.222.213.445.3.665a1.946,1.946,0,0,1,.142.669,4.3,4.3,0,0,0,.285,1.348,4.21,4.21,0,0,1,.475,1.307.391.391,0,0,0,.4.385l.346-.006a1.819,1.819,0,0,0,.8-.139,1.944,1.944,0,0,1,.759-.263c.581.032.934-.559,1.46-.685a4.434,4.434,0,0,0,.786-.19m5.329-6.364-.041.705a1.413,1.413,0,0,1-.266.656,3.315,3.315,0,0,0-.462.548l-.357.643a1.4,1.4,0,0,1-.4.4v0a1.378,1.378,0,0,1-.012-.138c-.008,0-.011.011-.019.014a4.674,4.674,0,0,0-.049-.521c-.031-.2-.19-.221-.171-.538a.725.725,0,0,0-.034-.357c-.047-.068-.171-.705-.234-.888a2.261,2.261,0,0,1-.158-.607.677.677,0,0,0-.2-.592.267.267,0,0,1-.07-.319,4.773,4.773,0,0,1,.2-.6c.124-.1.331.033.471-.022.07-.028.7-.266.838-.331s.288-.086.376-.288a.326.326,0,0,1,.31-.072c0,.013,0,.026,0,.039.012-.008.027-.011.039-.018a4.048,4.048,0,0,0,.255.877,1.178,1.178,0,0,1,.125.713,5.165,5.165,0,0,0-.14.7m-8.07,5.878a1.954,1.954,0,0,1-.752.286,1,1,0,0,0-.155.067,4.864,4.864,0,0,0-.058-.528,3.85,3.85,0,0,0-.44-1.208,1.788,1.788,0,0,1-.221-.609c-.036-.206-.012-.411-.064-.613a13.158,13.158,0,0,0-.494-1.226,7.171,7.171,0,0,1-.15-1.183c-.076-.388-.4-.842-.444-1.226a7.478,7.478,0,0,0-.8-2.455,4.735,4.735,0,0,0,.974-.2c.281-.087.464-.279.748-.395.264-.144.673-.08.929-.223a2.047,2.047,0,0,1,.4-.221,2.073,2.073,0,0,1,.48-.056l.052-.021a2.9,2.9,0,0,0,.729-.049,5.193,5.193,0,0,0,.7-.412.749.749,0,0,1,.76-.161c.293.127.543.153.749-.14a.423.423,0,0,1,.355-.186c.131.026.266.112.388.1a1.873,1.873,0,0,0,.362-.17.688.688,0,0,1,.372.008,1.569,1.569,0,0,0,.713.123.8.8,0,0,1,.681.122,1.151,1.151,0,0,0,.59.317.906.906,0,0,1,.552.383,6.49,6.49,0,0,0,.339.6c.022.03.044.062.066.093a.271.271,0,0,1-.235.1c-.2-.109-.319,0-.462.047s-.344-.07-.472.021c-.064.044-.114.128-.178.171a.97.97,0,0,1-.21.083c-.143.046-.217.285-.375.291-.078.005-.171-.034-.253-.038a.263.263,0,0,0-.206.093.347.347,0,0,1-.436.122l-.01,0a.141.141,0,0,0-.177.09l-.237.728c-.048.148-.083.3.038.4a.416.416,0,0,1,.152.369.381.381,0,0,0,.218.335c.128.083.129.222.121.373a1.137,1.137,0,0,0,.178.791.569.569,0,0,1,.206.31,4.048,4.048,0,0,0,.019.466c.065.278.316.333.331.66.007.159-.009.365.01.526a.558.558,0,0,0,.158.335.983.983,0,0,1,.144.506,2.361,2.361,0,0,1-.651.273,2,2,0,0,0-.633.422,5.365,5.365,0,0,1-.678.363c-.231.115-.412.349-.659.437s-.534.069-.78.147a5.355,5.355,0,0,0-.725.36c-.484.241-1.135.015-1.561.413" transform="translate(-153.245 -66.775)" fill="#06b0e3"/>
    <path id="Path_74710" data-name="Path 74710" d="M247.909,162.591a7.383,7.383,0,0,0-1.048,0c-.338.021-.688-.322-1.03-.117a.853.853,0,0,1-.507.107c-.173-.035-.357-.13-.54-.181-.367-.1-.669.206-.969.4a3.2,3.2,0,0,1-1.029.182,2.856,2.856,0,0,0-.918.154l-.06.019c-.494.254-.912.629-1.394.834-.243.1-.541.121-.8.212a4.05,4.05,0,0,0-.7.355,10.418,10.418,0,0,1-1.616.482,6.464,6.464,0,0,0-1.427.644,12.031,12.031,0,0,0,.823,3.267c.228.57.173,1.07.369,1.635s.538,1.143.662,1.678.137,1.08.319,1.636c.089.273.243.547.342.818a2.948,2.948,0,0,1,.184.822,6.513,6.513,0,0,0,.373,1.653,6.186,6.186,0,0,1,.561,1.613v.009a.428.428,0,0,0,.461.393l.284-.023a2.749,2.749,0,0,0,.96-.195,3.164,3.164,0,0,1,.91-.33,1.949,1.949,0,0,0,.915-.316,3.434,3.434,0,0,1,.858-.473c.3-.116.642-.122.942-.241a7.181,7.181,0,0,0,.865-.456,3.794,3.794,0,0,1,.945-.23,7.751,7.751,0,0,0,.949-.323,6.374,6.374,0,0,0,.976-.315,7.069,7.069,0,0,0,.843-.605,7.691,7.691,0,0,0,.841-.6c.267-.227.411-.586.708-.77.508-.447,1.171-.875,1.369-1.6.178-.706.5-1.326.682-2.024a2.883,2.883,0,0,0,.089-1.057,7.666,7.666,0,0,1-.157-1.032,5.1,5.1,0,0,0-.047-1.035,6.8,6.8,0,0,0-.3-1,6.623,6.623,0,0,0-1-1.9,9.687,9.687,0,0,0-.844-.7,6.842,6.842,0,0,0-.836-.707,3.139,3.139,0,0,0-1.034-.3c-.332-.091-.636-.316-.984-.383m3.933,7.043a6.043,6.043,0,0,0-.078.872,2.2,2.2,0,0,1-.525,1.636c-.381.432-.567,1-.969,1.467a1.143,1.143,0,0,1-.351.284,3.963,3.963,0,0,0-.421.194c-.058.041-.121.078-.18.119a2.579,2.579,0,0,1-.157-.8.6.6,0,0,1-.031-.249.838.838,0,0,0-.073-.482c-.082-.147-.218-.282-.3-.427-.177-.294-.005-.667-.112-.976-.043-.157-.191-.289-.247-.443a1.034,1.034,0,0,1-.008-.5,1.6,1.6,0,0,0-.294-.937.558.558,0,0,1-.108-.479.616.616,0,0,0-.008-.5c-.063-.111.07-.394.133-.452a.878.878,0,0,1,.246-.2c.187-.071.442.055.615-.055a5.838,5.838,0,0,0,1.641-.75,1.893,1.893,0,0,1,.477-.023.849.849,0,0,1,.261-.122,1.686,1.686,0,0,1,.057.18,7.884,7.884,0,0,1,.2.874c.068.3.209.576.277.875a2.5,2.5,0,0,1-.041.9m-1.752-4.842a2.352,2.352,0,0,1,.507.686c.047.075.1.15.15.224a3.51,3.51,0,0,1-.456.323c-.458-.1-.776.2-1.23.112a.539.539,0,0,0-.26.166.706.706,0,0,1-.274.125c-.2.02-.328.274-.52.331a.888.888,0,0,1-.322-.012.406.406,0,0,0-.286.09.559.559,0,0,1-.577.166l-.016,0a.217.217,0,0,0-.261.162l-.154.657a.5.5,0,0,0,.054.486.614.614,0,0,1,.166.458.608.608,0,0,0,.232.442.544.544,0,0,1,.128.469,1.6,1.6,0,0,0,.169.96,1.027,1.027,0,0,1,.221.448c.02.163-.053.347-.02.507.045.324.367.579.344.923-.011.169-.07.353-.075.522a.851.851,0,0,0,.16.466c.192.289.041.664.12.983a3.637,3.637,0,0,0,.12.374,1.254,1.254,0,0,0-.128.046,6.707,6.707,0,0,1-1.661.829,3.834,3.834,0,0,1-.877.431,7.141,7.141,0,0,0-.957.2c-.308.1-.574.315-.881.42a3.45,3.45,0,0,1-.964.188,2.074,2.074,0,0,0-.908.345,2.926,2.926,0,0,1-.913.331,1.685,1.685,0,0,0-.333.143c-.044-.285-.064-.575-.123-.851a5.924,5.924,0,0,0-.526-1.514,2.763,2.763,0,0,1-.265-.762c-.051-.257-.047-.511-.107-.766-.119-.5-.407-1.021-.58-1.532a14.029,14.029,0,0,1-.237-1.489c-.1-.49-.459-1.046-.53-1.532a11.527,11.527,0,0,0-.975-3.067,6.269,6.269,0,0,0,1.387-.374,5.748,5.748,0,0,1,1.2-.536,3.918,3.918,0,0,0,.71-.154c.212-.079.383-.23.609-.3.456-.134.976-.1,1.42-.184l-.06.019a2.456,2.456,0,0,0,.918-.467,1.326,1.326,0,0,1,.84-.325c.331.05.661.238.938.052a2.349,2.349,0,0,1,.423-.292.563.563,0,0,1,.459.038c.3.174.6-.169.907-.106a8.4,8.4,0,0,1,.875.234,4.611,4.611,0,0,1,.894.09c.289.1.481.367.751.448a3.153,3.153,0,0,1,.773.367" transform="translate(-167.368 -115.221)" fill="#06b0e3"/>
    <path id="Path_74711" data-name="Path 74711" d="M56.818,175.529a.212.212,0,0,0,.073.064.215.215,0,0,0,.291-.087.233.233,0,0,0,.014-.179c-.016-.045-.03-.086-.15-.162.324-.021.742-.024,1.018-.025.884,0,1.1-.012,1.19-.186a.214.214,0,0,0-.089-.29l-1.56-.829c.863.133,2.229.4,3.494.683a.212.212,0,0,0,.236-.108.218.218,0,0,0,.016-.167c-.028-.092-.048-.153-2.508-1.432,4.486,1.251,4.494,1.231,4.586,1.059a.3.3,0,0,0,.016-.239c-.131-.376-1.169-.866-3.508-1.891-.913-.4-2.008-.881-2.459-1.15A25.455,25.455,0,0,1,62,172.278c2.737,1.19,3.344,1.413,3.529,1.058a.436.436,0,0,0,.02-.363c-.155-.431-1-.959-2.284-1.575.728.139,1.258.119,1.41-.168a.214.214,0,0,0-.089-.29l-5.959-3.168c.457.146.983.331,1.431.49,2.253.8,3.127,1.06,3.348.641a.3.3,0,0,0,.016-.24c-.123-.347-1.017-.757-3.026-1.611-.572-.243-1.258-.534-1.791-.786,2.588.67,3.455.757,3.658.377a.334.334,0,0,0,.014-.277c-.181-.487-1.984-1.322-3.341-1.891,2.163.126,2.188.08,2.259-.053.1-.2.109-.206-2.879-1.775.446-.083,1.112-.194,1.733-.29a.215.215,0,0,0,.156-.111.246.246,0,0,0,.015-.181c-.049-.148-.189-.243-1.452-.839-.2-.1-.439-.207-.609-.292.125-.079.283-.172.406-.244.509-.3.708-.423.778-.555a.235.235,0,0,0,.015-.177c-.043-.129-.147-.2-1.073-.64l-.164-.077.4-1.2a.224.224,0,0,0,.012-.178c-.031-.084-.087-.137-.353-.244a.214.214,0,1,0-.16.4l.053.021-.414,1.237a.213.213,0,0,0,0,.136c.032.1.032.1.445.292.167.078.488.23.7.341-.134.086-.314.192-.452.272-.494.29-.687.41-.754.537a.224.224,0,0,0-.014.173c.04.119.07.143,1,.585.243.114.578.272.844.406-1.828.292-1.855.344-1.911.448a.215.215,0,0,0,.09.29c.793.417,1.85.974,2.548,1.345-.658-.028-1.619-.081-2.511-.138a.211.211,0,0,0-.223.168.215.215,0,0,0,.132.246,20.072,20.072,0,0,1,4.269,2.061,16.768,16.768,0,0,1-3.4-.665c-.968-.254-.969-.254-1.059-.085a.287.287,0,0,0-.015.232c.114.323.923.694,2.88,1.525a24.133,24.133,0,0,1,2.624,1.223,18.812,18.812,0,0,1-2.651-.813c-2.087-.738-2.778-.946-2.969-.584a.214.214,0,0,0,.089.29L63.97,171.1a28.247,28.247,0,0,1-6.623-2.355.214.214,0,0,0-.279.094.254.254,0,0,0-.013.19c.069.191.341.324,2.431,1.192,1.629.676,5.345,2.219,5.647,2.836a24.413,24.413,0,0,1-2.96-1.17c-3.422-1.488-4.955-2.078-5.271-1.484a.316.316,0,0,0-.015.21c.094.27.7.567,2.876,1.522.81.355,1.889.829,2.587,1.193-1.29-.346-3.678-1.007-5.412-1.491a.215.215,0,0,0-.156.4c.892.458,2.112,1.09,3.012,1.567-3.155-.654-3.255-.468-3.33-.327a.214.214,0,0,0,.089.29l1.781.947-.274,0c-1.186.006-1.683.033-1.821.293a.214.214,0,0,0,.105.3,5.056,5.056,0,0,1,.473.226" transform="translate(-39.888 -111.831)" fill="#06b0e3"/>
    <path id="Path_74712" data-name="Path 74712" d="M113.858,151.73c-.322-.842-2.511-2.057-4.937-3.181,1.16.5,2.367,1.027,3.535,1.555a.214.214,0,0,0,.278-.094.264.264,0,0,0,.015-.186c-.141-.436-5.37-3.123-9.648-5.26,1.162.434,7.823,3.136,8.26,3.3a.214.214,0,0,0,.16-.4c-1.735-.723-3.194-1.323-4.422-1.817-3.6-1.565-7.076-3.3-7.383-4.125-.023-.064-.011-.087-.006-.1.347-.645,5.695,1.969,7.708,2.953,2.779,1.359,2.955,1.425,3.1,1.144a.351.351,0,0,0,.016-.217c-.142-.432-1.922-1.347-6.862-3.707-1.6-.767-3.358-1.6-4.35-2.135,1.991.653,6.714,2.591,9.817,3.916a.214.214,0,0,0,.185-.387l-6.63-3.525c3.546,1.68,5.25,2.261,5.613,1.575a.214.214,0,0,0-.091-.291c-3.781-1.953-9.146-4.754-11.205-5.893,1.4.437,4.374,1.642,8.88,3.6,1.214.527,1.213.527,1.31.345a.328.328,0,0,0,.016-.267c-.175-.49-1.753-1.2-5.313-2.686a41.175,41.175,0,0,1-6.506-3.109c4.059,1.96,10.21,4.738,10.7,3.822a.289.289,0,0,0,.014-.2c-.1-.274-.895-.643-4-1.975-3.184-1.367-7.995-3.434-8.308-4.361.312-.585,5.292,1.415,10.876,4.374a.214.214,0,0,0,.29-.089.315.315,0,0,0,.017-.252c-.2-.613-2.962-2.027-8.314-4.561l6.866,2.641a.214.214,0,0,0,.178-.389l-6.191-3.292c3.482,1.534,4.831,1.847,5.114,1.31a.569.569,0,0,0,.025-.478c-.34-.909-2.935-1.964-6.857-3.471-2.367-.91-5.3-2.035-5.675-2.659a10.6,10.6,0,0,1,2.106.642c3.475,1.75,8.187,3.505,8.972,3.794a.214.214,0,0,0,.163-.4c-4.461-2.025-7.2-3.15-8.887-3.759-1.9-.948-3.38-1.852-3.612-2.458a.363.363,0,0,1-.022-.083c1.042.19,7.3,2.765,11.182,4.422a.214.214,0,0,0,.274-.1.389.389,0,0,0,.016-.324c-.462-1.311-9.922-5.471-12.346-6.519,1.114.067,4.541,1.821,6.507,2.827,3.5,1.793,4.418,2.2,4.658,1.745a.214.214,0,0,0-.089-.29L87.451,116.5c2.017.66,6.327,2.491,10.252,4.285a.216.216,0,0,0,.279-.095.227.227,0,0,0,.016-.17c-.007-.021-.015-.047-.117-.124,0,0-.005-.005-.009-.007-.381-.282-1.975-1.213-8.9-4.8,7.717,3.069,7.738,3.032,7.845,2.827a.383.383,0,0,0,.018-.314c-.253-.728-2.922-1.943-7.286-3.858-2.374-1.041-5.306-2.327-5.689-2.782.528-.32,4.752,1.787,6.818,2.819,3.788,1.894,4.7,2.291,4.937,1.844a.582.582,0,0,0,.024-.482c-.152-.425-.783-.929-1.757-1.5.033-.006.066-.014.1-.023a.636.636,0,0,0,.4-.307.213.213,0,0,0-.089-.29L82,107c1.087.4,3,1.376,4.5,2.148,4.321,2.217,6.256,3.112,6.651,2.371a.4.4,0,0,0,.019-.332c-.154-.435-1.125-1.011-2.769-1.781.825.192,1.338.141,1.516-.194a.567.567,0,0,0,.018-.48c-.2-.539-1.24-1.277-2.662-2.072,1.3.451,1.357.347,1.411.244a.215.215,0,0,0,.015-.164c-.033-.108-.056-.182-11.54-6.219,2.556.975,6.972,2.844,10.016,4.171a.213.213,0,0,0,.275-.1.3.3,0,0,0,.016-.241c-.182-.55-2.466-1.7-7.859-4.246-2.008-.947-4.252-2.006-4.9-2.425h.026c.809,0,3.166,1.265,5.261,2.39,3.152,1.692,5.119,2.7,5.908,2.465a.515.515,0,0,0,.316-.25.348.348,0,0,0,.015-.217c-.123-.372-1.407-1.074-5.495-3.005l-.044-.02,4.047,1.042a.215.215,0,0,0,.243-.108.238.238,0,0,0,.012-.183c-.026-.073-.057-.154-.622-.383a.213.213,0,0,0-.253.071l-5.293-1.362a.214.214,0,0,0-.243.107.221.221,0,0,0-.014.171c.043.13.046.138,1.985,1.054a47.52,47.52,0,0,1,5.2,2.68c-.716.165-3.395-1.279-5.556-2.439-3.067-1.646-4.979-2.625-5.732-2.4a.5.5,0,0,0-.3.239.28.28,0,0,0-.015.193c.1.3,1.15.827,5.279,2.774,2.009.948,4.718,2.225,6.313,3.1-10.549-4.562-10.725-4.226-10.832-4.022a.214.214,0,0,0,.089.29c2.613,1.372,8.292,4.362,11.341,5.993-1.053-.407-2.4-.949-3.841-1.536-2.791-1.241-5.43-2.273-6.015-2.5a.212.212,0,0,0-.276.119.214.214,0,0,0,.116.278c2.537,1.071,4.549,1.909,6.145,2.561,3.574,1.6,6.758,3.261,7.069,4.1.03.082.012.116.006.129-.447.833-7.308-2.652-9.562-3.8-2.322-1.181-2.326-1.185-2.456-.94a.376.376,0,0,0-.018.311c.24.678,2.656,1.733,6.577,3.4,2.635,1.119,6.617,2.81,6.693,3.337-.331.4-4.067-1.521-6.076-2.551-4-2.052-5.539-2.77-5.869-2.148a.214.214,0,0,0,.089.29l12.852,6.834a2.2,2.2,0,0,1-.71-.039c-1.743-.911-4.2-1.957-6.909-3.08-.814-.338-1.641-.681-2.3-.97-.548-.293-1.031-.557-1.419-.774a.212.212,0,0,0-.165-.019.215.215,0,0,0-.129.105.282.282,0,0,0-.013.2c.064.177.4.379,1.524.867,2.363,1.268,6.894,3.588,9.232,4.061a5.74,5.74,0,0,1,2.361,1.7.235.235,0,0,1,.016.078,28.085,28.085,0,0,1-4.381-1.969c-4.732-2.365-7.009-3.391-7.431-2.594a.313.313,0,0,0-.016.254c.174.5,1.947,1.323,5.953,3.08a54.229,54.229,0,0,1,6.823,3.31c-1.652-.612-7.292-2.843-11.184-4.395a.215.215,0,0,0-.177.39c2.624,1.346,5.967,3.078,8.579,4.457-7.049-3.05-7.3-2.585-7.388-2.415a.214.214,0,0,0,.089.29l8.709,4.631-.143-.073c-4.29-2.2-6.93-3.465-7.422-2.54a.214.214,0,0,0,.105.3c5.408,2.313,11.025,5.038,12.3,6.113-10.892-4.636-11.058-4.315-11.171-4.1a.636.636,0,0,0-.018.542,4.854,4.854,0,0,0,1.958,1.683c-.6-.113-.669.011-.707.082a.451.451,0,0,0-.02.38c.271.726,2.437,1.589,5.948,2.938,2.812,1.08,6.312,2.425,6.609,3.221a.144.144,0,0,1,0,.119c-.565.467-6.535-2.372-8.783-3.442-2.4-1.142-2.4-1.143-2.524-.909a.214.214,0,0,0,.089.29l9.353,4.973-7.942-3.055a.215.215,0,0,0-.267.1.231.231,0,0,0-.014.175c.054.163.159.235,3.54,1.83,1.379.65,3.3,1.557,5,2.407-3.181-1.507-6.828-2.987-7.3-2.1a.477.477,0,0,0-.021.394c.344.977,3.911,2.575,8.539,4.563,1.443.62,2.927,1.257,3.523,1.587-1.265-.109-6.1-2.169-10.524-4.327a.214.214,0,0,0-.283.092.458.458,0,0,0-.021.38c.249.7,2.227,1.658,5.312,2.976-3.872-1.545-4-1.31-4.119-1.082a.222.222,0,0,0-.015.168c.035.111.092.3,11.813,6.354-1.133-.066-5.008-1.963-6.788-2.835-3.271-1.6-3.667-1.748-3.843-1.414a.214.214,0,0,0,.089.29l7.9,4.2c-6.566-2.693-6.729-2.393-6.822-2.218a.279.279,0,0,0-.015.193c.1.3,1.227.875,5.341,2.84,1.457.7,3.206,1.532,4.545,2.217l-.43-.21c-5.242-2.562-7.818-3.63-8.275-2.769a.529.529,0,0,0-.017.447c.2.532,1.3,1.279,2.769,2.071-1.459-.481-1.53-.35-1.586-.246a.215.215,0,0,0,.094.293c2.646,1.307,6.288,3.143,8.819,4.487-7.383-3.2-7.652-2.689-7.747-2.508a.215.215,0,0,0,.115.3c3.062,1.126,11.128,4.365,11.678,5.8a.241.241,0,0,1,.02.115l-.036,0c-.874,0-5.88-2.042-10.333-4.047a.214.214,0,0,0-.277.1.479.479,0,0,0-.019.4c.261.719,2.28,1.781,4.9,2.937-1.554-.581-3.229-1.228-4.556-1.753a.216.216,0,0,0-.268.1.307.307,0,0,0-.015.2c.1.31,1.067.808,4.11,2.247.637.3,1.355.64,1.92.921-1.019-.356-2.551-.986-3.784-1.493-3.931-1.616-4.243-1.685-4.4-1.381a.215.215,0,0,0,.1.3c2.209.992,4.535,2.118,5.82,2.84l-7.857-2.754a.212.212,0,0,0-.26.1.217.217,0,0,0-.016.166c.031.1.053.171,4.135,2.3-6.169-2.225-6.188-2.191-6.3-1.976a.373.373,0,0,0-.015.315c.256.7,3.155,2.031,5.185,2.893-1.483-.517-3.555-1.393-4.786-1.914-2.422-1.024-2.426-1.027-2.551-.793a.351.351,0,0,0-.015.221c.11.319.929.728,3.506,1.877a26.308,26.308,0,0,1,3.244,1.588c-.618.314-4.411-1.116-8.6-3.27a.215.215,0,0,0-.288.09.288.288,0,0,0-.015.2,7.959,7.959,0,0,0,2.28,1.412c-2.685-.948-3.5-1.084-3.693-.715a.214.214,0,0,0,.089.29l.6.32a.215.215,0,0,0,.282-.3c1.036.239,3,.959,4.074,1.353,2.019.741,2.057.749,2.175.529a.214.214,0,0,0,.014-.169.173.173,0,0,0-.011-.028,9.5,9.5,0,0,0,2.825.716c.36,0,.613-.086.719-.285a.356.356,0,0,0,.015-.222c-.1-.3-.8-.667-2.918-1.617,3.705,1.523,4.869,1.81,5.108,1.359a.214.214,0,0,0-.11-.3,38.313,38.313,0,0,1-6.548-3.123c1.346.427,5.723,2.009,7.513,2.656.523.189.83.3,1.018.354l.056.029.007-.012c.206.053.231.014.28-.071a.216.216,0,0,0,.028-.106c0-.13-.088-.176-.188-.228-1.84-.953-3.4-1.768-4.559-2.381l6.7,2.347a.213.213,0,0,0,.26-.1.361.361,0,0,0,.015-.223,9.964,9.964,0,0,0-2.971-1.839c4.227,1.737,5.009,1.976,5.206,1.606a.254.254,0,0,0,.015-.184c-.069-.208-.505-.443-3.112-1.676-.468-.221-1.011-.478-1.542-.735,6.674,2.579,6.8,2.331,6.9,2.145a.216.216,0,0,0,.012-.174c-.041-.112-.041-.112-1.192-.581-1.74-.709-6.7-2.728-7.894-3.87,9.971,4.463,10.281,3.869,10.386,3.671a.611.611,0,0,0,.018-.52M80.393,104.89c.382.188.877.44,1.387.7l.681.345a21.892,21.892,0,0,1-2.068-1.045" transform="translate(-54.022 -69.009)" fill="#06b0e3"/>
    <path id="Path_74713" data-name="Path 74713" d="M34.5,247.046c-.728-.344-1.519-.717-2.028-.977.555.143,1.4.458,2.028.692,2.061.767,2.922,1.036,3.159.594a.275.275,0,0,0,.015-.192c-.071-.214-.484-.468-2.787-1.556l-.356-.169,1.705-.3a.213.213,0,0,0,.152-.11.225.225,0,0,0,.012-.179c-.031-.086-.089-.14-.369-.252a.215.215,0,0,0-.279.119.222.222,0,0,0-.015.074l-1.912.336a.214.214,0,0,0-.152.11.218.218,0,0,0-.014.17c.037.112.037.112,1.044.588.605.286,1.717.811,2.268,1.128a18.836,18.836,0,0,1-2.322-.762c-2.045-.762-2.84-1.009-3.065-.582a.246.246,0,0,0-.015.181c.06.179.286.315,2.747,1.476.577.272,1.271.6,1.911.913-6.517-2.427-6.637-2.209-6.732-2.029a.215.215,0,0,0,.09.29c1.507.791,3.474,1.828,4.867,2.569-1.865-.631-4.749-1.67-6.783-2.418a.214.214,0,0,0-.152.4c3.044,1.179,6.384,2.751,6.479,3.2-.25.341-2.548-.468-6.837-2.4-1.727-.778-1.728-.779-1.843-.561a.3.3,0,0,0-.016.241c.128.363,1.063.79,3.327,1.752a22.4,22.4,0,0,1,3.179,1.514h-.019a21.261,21.261,0,0,1-4.23-1.648c-3-1.368-4.073-1.8-4.331-1.318a.214.214,0,0,0,.089.29l7.189,3.822a6.02,6.02,0,0,1-1.974-.462c-1.2-.591-2.752-1.249-4.435-1.948-.4-.165-.8-.332-1.165-.486-.5-.249-1.008-.5-1.5-.764a.214.214,0,0,0-.289.09.261.261,0,0,0-.013.192c.059.165.287.3,1.588.856a49.069,49.069,0,0,0,5.591,2.433,6.344,6.344,0,0,1,2.2,1.441,28.045,28.045,0,0,1-3.564-1.522c-3.964-1.862-5.873-2.664-6.237-1.981a.29.29,0,0,0-.016.233c.137.393,1.391.976,4.438,2.313,1.539.675,3.682,1.615,4.666,2.209-1.725-.609-6-2.186-9.021-3.308a.215.215,0,0,0-.173.392c1.868.959,4.229,2.181,6.138,3.187-6.128-2.5-6.343-2.1-6.431-1.933a.213.213,0,0,0,.089.29l6.615,3.518-.543-.263c-3.673-1.78-5.933-2.8-6.361-2a.214.214,0,0,0-.013.172.216.216,0,0,0,.118.126,72.46,72.46,0,0,1,8.967,4.389c-9.023-3.607-9.165-3.337-9.269-3.139a.533.533,0,0,0-.016.455,3.488,3.488,0,0,0,1.393,1.229c-1.418-.418-1.516-.234-1.57-.135a.4.4,0,0,0-.018.332c.215.575,1.881,1.24,4.58,2.277,2.143.823,4.809,1.848,5.029,2.435.01.028.008.042.011.042-.555.363-5.653-1.942-7.575-2.81-2.1-.949-2.1-.949-2.219-.726a.214.214,0,0,0,.089.29l6.9,3.671-6.919-2.51a.211.211,0,0,0-.263.1.223.223,0,0,0-.014.172c.046.139.052.156,2.409,1.268.789.372,1.849.872,2.854,1.366-2.493-1.058-5.173-1.994-5.537-1.307a.351.351,0,0,0-.017.29c.2.559,2.027,1.382,4.593,2.484.509.219,1.058.455,1.451.636a55.748,55.748,0,0,1-7.783-2.933.217.217,0,0,0-.276.1.343.343,0,0,0-.017.283c.118.331.811.723,1.97,1.245-3.77-1.374-3.878-1.171-3.989-.959a.221.221,0,0,0-.015.166c.034.108.062.2,6.078,3.308a33.671,33.671,0,0,1-5.039-1.944c-2.613-1.159-2.9-1.248-3.053-.957a.214.214,0,0,0,.089.29l3.543,1.884c-5.433-2-5.56-1.761-5.649-1.6a.247.247,0,0,0-.015.182c.061.186.321.343,2.941,1.595l1.027.493c-3.211-1.341-4.82-1.838-5.161-1.2a.4.4,0,0,0-.014.342,2.194,2.194,0,0,0,.895.778c-2.511-.8-2.589-.648-2.662-.509a.214.214,0,0,0,.095.293c1.134.558,2.383,1.208,2.595,1.373a.215.215,0,0,0,.376-.006.235.235,0,0,0,.015-.174c-.024-.074-.055-.17-1.172-.757,1.595.5,3.986,1.319,5.669,1.919a.2.2,0,0,0,.072.013.214.214,0,0,0,.073-.416c-2.619-.937-5.49-2.228-5.563-2.654.253-.467,4.14,1.185,5.418,1.728,1.956.831,2.139.9,2.274.647a.283.283,0,0,0,.015-.194c-.086-.26-.755-.626-3.767-2.066-.535-.256-1.131-.54-1.632-.788,1.754.555,4.964,1.737,7.141,2.572a.214.214,0,0,0,.177-.39L16.511,265.6c3.481,1.527,5.017,2.05,5.344,1.432a.214.214,0,0,0-.091-.291c-1.752-.9-4.154-2.157-5.481-2.872,1.191.36,3.381,1.159,6.548,2.392.978.38.978.381,1.07.207a.347.347,0,0,0,.014-.223c-.107-.3-.88-.65-2.9-1.5l-.362-.152c2.689,1.073,5.031,1.822,5.3,1.313a.254.254,0,0,0,.013-.187c-.063-.18-.308-.3-2.179-1.109-1.334-.573-4.072-1.748-4.341-2.2.474-.295,4.214,1.071,8.293,3.033a.214.214,0,0,0,.282-.093.282.282,0,0,0,.016-.224c-.135-.405-1.681-1.227-4.842-2.734l6.033,2.188a.214.214,0,0,0,.174-.391l-4.8-2.553c3.535,1.51,4.809,1.8,5.081,1.292a.484.484,0,0,0,.022-.407c-.268-.717-2.172-1.493-5.276-2.685-1.6-.615-3.977-1.528-4.3-1.942a24.889,24.889,0,0,1,3.972,1.326c2.4,1.1,5.013,2.075,5.516,2.26a.215.215,0,0,0,.159-.4c-2.416-1.036-4.247-1.783-5.635-2.317-2-.925-3.616-1.827-3.844-2.373,1.029.209,6.258,2.232,9.516,3.541a.216.216,0,0,0,.27-.1.35.35,0,0,0,.015-.288c-.345-.979-6.858-3.876-9.177-4.881a32.688,32.688,0,0,1,5.358,2.249c3.057,1.481,3.792,1.784,4.009,1.378a.214.214,0,0,0-.089-.29l-8.445-4.49c1.784.567,5.279,1.965,8.466,3.334a.212.212,0,0,0,.274-.1.224.224,0,0,0,.016-.169c-.008-.024-.016-.05-.121-.128l-.006,0c-.331-.241-1.572-.956-6.423-3.468,6.628,2.458,6.638,2.431,6.745,2.229a.336.336,0,0,0,.017-.277c-.195-.561-2.179-1.465-5.424-2.889a33.427,33.427,0,0,1-4.123-1.981c.676-.1,3.842,1.38,5.583,2.2,3.184,1.495,3.95,1.805,4.159,1.41a.472.472,0,0,0,.021-.394A2.279,2.279,0,0,0,30,252.4c.579.078.989.014,1.132-.255a.214.214,0,0,0-.089-.29L24.7,248.478c.785.3,1.829.78,2.687,1.172,3.244,1.479,4.594,2.024,4.9,1.452a.311.311,0,0,0,.016-.251c-.054-.152-.245-.318-.6-.521,1.548.548,2.448.665,2.676.236a.385.385,0,0,0,.015-.326,3.5,3.5,0,0,0-1.422-1.111c3.382,1.18,3.446,1.062,3.526.912a.216.216,0,0,0,.016-.164c-.033-.108-.041-.133-5.064-2.773,1.85.618,4.785,1.7,6.833,2.476a.217.217,0,0,0,.265-.1.314.314,0,0,0,.015-.205c-.1-.315-1.106-.832-4.061-2.226" transform="translate(-5.62 -173.545)" fill="#06b0e3"/>
    <path id="Path_74714" data-name="Path 74714" d="M60.565,151.336c-1.161-2.2-2.355-4.391-3.361-6.67l-1.577-3.385c-.5-1.14-1.119-2.224-1.7-3.324-1.168-2.2-2.258-4.437-3.294-6.7-1.1-2.231-2.208-4.463-3.433-6.632l-1.778-3.284-1.579-3.387c-1.093-2.238-2.375-4.377-3.411-6.645-1.084-2.243-2.493-4.314-3.665-6.509-1.148-2.209-2.239-4.45-3.552-6.569l-.026-.042a.55.55,0,0,0-.353-.248c-.816-.175-1.646-.291-2.451-.514l-2.423-.631c-1.607-.46-3.244-.787-4.868-1.177a.633.633,0,0,0-.277,0l-3.787.827c-.468.122-.932.258-1.4.385-.926.195-1.855.382-2.77.63,0,0-4.69,1.21-5.271,1.383l-.911.273a8.955,8.955,0,0,0-1.152.449c-.323,1.307-.572,2.752-.776,4.132-.195,1.178-.3,2.369-.421,3.557l-.047.282c-.272,1.772-.374,3.567-.624,5.341-.106.749-.25,1.493-.344,2.243-.033.285-.06.572-.087.858-.287,1.925-.609,3.846-.84,5.779l-.181.96a38.632,38.632,0,0,0-.621,6.019c-.089.575-.179,1.15-.266,1.725-.158,1.067-.287,2.137-.407,3.208l-.109.475-.151.948c-.038.318-.045.639-.069.958,0,.192,0,.386.01.579-.052.5-.1.991-.159,1.486-.267,2.554-.7,5.091-.849,7.659-.111,1.28-.18,2.564-.34,3.838l-.5,3.822c-.171,1.274-.188,2.563-.29,3.843C.371,158.556.149,159.824,0,161.1a.613.613,0,0,0,.467.665l1.162.277,3.426.6a15.5,15.5,0,0,1,2.261.514,15.16,15.16,0,0,0,2.254.543l.083.012a.529.529,0,0,0,.245-.024c.57-.194,1.123-.444,1.706-.593a13.005,13.005,0,0,1,1.772-.361,14.135,14.135,0,0,0,3.5-.87,23.123,23.123,0,0,1,3.424-1.153c1.165-.3,2.347-.533,3.522-.791a.7.7,0,0,0,.535-.543l.018-.088c.115-.563.2-1.129.3-1.694l.142-.848.086-.855c.126-1.138.2-2.283.289-3.427s.19-2.285.343-3.42l.474-2.985,3.362-.929c1.08-.321,2.186-.532,3.284-.778l.516.967c.437.929.848,1.869,1.3,2.8l1.026,2.115c.179.351.349.707.548,1.048l.315.548c.14.236.295.465.451.677.227.1.468.187.712.265l1.6.527c.689.221,1.373.459,2.064.7l2.1.73c.708.228,1.414.475,2.137.651l.038.009a.778.778,0,0,0,.357,0l3.558-.816c1.187-.265,2.366-.573,3.561-.8l3.587-.681c1.2-.207,2.382-.5,3.564-.795l.064-.016a.667.667,0,0,0,.423-.956m-23.026-.793c-.437-.89-.876-1.78-1.386-2.631-.349-.627-.73-1.237-1.078-1.865-.458-.826-.909-1.661-1.388-2.475l-.973-1.771c-.6-1-1.26-1.974-1.77-3.027a.471.471,0,0,0-.523-.254l-3.841.84c-1.269.277-2.538.556-3.778.946s-2.477.789-3.742,1.083l-3.782.932a.594.594,0,0,0-.446.492l0,.02c-.162,1.138-.367,2.271-.455,3.418l-.337,3.434c-.128,1.142-.342,2.274-.518,3.411-.182.993-.29,2-.41,3-2.066.6-4.078,1.351-6.091,2.038-1.068.389-2.142.743-3.2,1.146-.793.3-1.592.589-2.4.861.033-.353.054-.708.105-1.059l.484-3.805c.058-.636.084-1.276.108-1.916a31.11,31.11,0,0,1,.431-3.81,33.059,33.059,0,0,0,.368-3.817c.029-.631.086-1.26.149-1.887l0-.033c.079-.631.218-1.256.342-1.882.267-1.256.093-2.558.341-3.82.123-.628.306-1.252.442-1.879.048-.316.112-.63.146-.948l.065-.957a22.816,22.816,0,0,1,.2-3.836A61.419,61.419,0,0,0,5.721,122.9c.073-1.157.139-2.315.242-3.469.01-.094.19-1.7.19-1.7.121-.82.27-1.636.386-2.456.146-1.071.233-2.149.349-3.224.231-1.385.68-4.3.692-4.372.217-1.26.466-2.515.61-3.785a32.179,32.179,0,0,0,.313-3.461,2.785,2.785,0,0,0,.6-.007l6.129-1.391c1.182-.242,2.343-.578,3.516-.87l3.01-.792c1.126,1.976,2.113,4.029,3.311,5.964.639,1.046,1.318,2.071,1.932,3.131s1.2,2.136,1.753,3.231l1.679,3.271c.586,1.076,1.2,2.136,1.829,3.189,1.254,2.11,2.217,4.372,3.384,6.526.58,1.079,1.135,2.172,1.735,3.24l1.8,3.2a31.064,31.064,0,0,1,1.62,3.3c.48,1.131,1.072,2.2,1.645,3.287l.861,1.624.776,1.668a31.126,31.126,0,0,0,1.715,3.251c.62,1.059,1.244,2.117,1.776,3.22l1.222,2.573c-.777.2-1.55.4-2.322.62-1.041.288-2.1.477-3.163.685-1.062.192-2.127.378-3.176.628-.866.19-1.73.387-2.6.553m-8.43-6.461-3.813.882a.6.6,0,0,0-.459.518l-.371,3.421c-.151,1.136-.357,2.265-.568,3.394s-.444,2.254-.622,3.387l-.142.849s-.165,1.693-.2,2.111c-.973.33-1.944.667-2.927.96a23.245,23.245,0,0,1-3.536.771,14.2,14.2,0,0,0-3.458,1.055,13.037,13.037,0,0,1-1.708.6c-.511.152-1.045.228-1.571.331a15.785,15.785,0,0,0-2.165-.374,15.514,15.514,0,0,1-2.283-.428l-2.574-.616c.512-.151,1.029-.291,1.538-.451,1.091-.343,2.146-.777,3.209-1.17s2.111-.815,3.186-1.151,2.148-.664,3.231-.956a.646.646,0,0,0,.472-.54v-.008c.147-1.139.326-2.274.408-3.42.113-1.143.189-2.291.351-3.428l.531-3.4c.179-1,.267-2.015.373-3.026l3.323-.974c1.241-.373,2.515-.626,3.784-.893s2.515-.622,3.761-.979l3.379-.941c.5.906.906,1.863,1.355,2.8l.471.882c-.987.285-1.968.59-2.973.8m27.113,7.569-3.57.8c-1.191.264-2.4.452-3.6.682l-3.38.63c-.635-.194-1.278-.358-1.911-.557,0,0-3.5-1.114-4.214-1.321l-.8-.2c.563-.132,1.127-.258,1.689-.389,1.053-.225,2.091-.515,3.131-.8,1.044-.268,2.083-.553,3.145-.74s2.123-.371,3.175-.6l.023,0a.655.655,0,0,0,.433-.947l-1.737-3.245c-.578-1.082-1.064-2.211-1.555-3.337a31.135,31.135,0,0,0-1.635-3.3l-.908-1.6-.823-1.645c-.555-1.094-1.092-2.2-1.741-3.242a31.122,31.122,0,0,1-1.785-3.218l-1.619-3.305c-.547-1.1-1.14-2.172-1.708-3.259-1.138-2.174-2.484-4.232-3.562-6.44-.538-1.1-1.092-2.2-1.674-3.278l-1.845-3.185c-1.272-2.1-2.358-4.3-3.427-6.514-.964-1.932-2.127-3.753-3.194-5.627,1.514.337,3.019.714,4.549.979l2.453.485c.729.132,1.439.346,2.156.531,1.044,2.17,2.275,4.239,3.444,6.342.6,1.089,1.1,2.23,1.66,3.342.541,1.121,1.06,2.253,1.7,3.321,1.289,2.132,2.321,4.4,3.529,6.573l1.859,3.238,1.64,3.352c1.044,2.259,2.2,4.462,3.337,6.672l1.774,3.284c.606,1.087,1.1,2.233,1.619,3.361,1.046,2.259,2.186,4.467,3.321,6.68,1.035,1.928,1.916,3.931,2.793,5.936-.92.156-1.837.324-2.744.544" transform="translate(0.001 -67.833)" fill="#06b0e3"/>
    <path id="Path_74715" data-name="Path 74715" d="M64.9,171.726a4.685,4.685,0,0,0-.543-.915,3,3,0,0,1-.561-.907c-.029-.79-.687-1.243-.789-1.991a3.99,3.99,0,0,0-.656-.858,3.459,3.459,0,0,1-.437-.972,6.546,6.546,0,0,0-.616-.882c-.191-.3-.2-.693-.371-1a3.658,3.658,0,0,1-.389-.99,2.618,2.618,0,0,0-.508-.932c-.2-.3-.314-.634-.487-.943-.087-.155-.232-.284-.333-.434a2.435,2.435,0,0,1-.193-.495,8.782,8.782,0,0,0-.27-1.038c-.12-.333-.4-.6-.532-.93-.29-.649-.254-1.417-.68-2.013l-.159-.223a.45.45,0,0,0-.512-.163,3.533,3.533,0,0,1-.347.123l-.1.024a.452.452,0,0,0-.344.5,4.334,4.334,0,0,1-.172,1.108c-.036.369-.017.74-.021,1.111a6.411,6.411,0,0,1-.09,1.109,4.679,4.679,0,0,0,.064,1.116,4.814,4.814,0,0,1-.168,1.1c-.069.367.178.754.048,1.117a1.836,1.836,0,0,0-.086,1.108,1.163,1.163,0,0,1,0,.558c-.077.18-.214.355-.167.543s.154.385.052.562c-.084.178-.3.343-.326.526a.9.9,0,0,0,.128.57.783.783,0,0,1,.037.562c-.058.18-.133.358-.2.536a2.27,2.27,0,0,0-.2.535,4.569,4.569,0,0,0,.092,1.13,2.131,2.131,0,0,1-.161,1.1,6.623,6.623,0,0,1-.082,1.111c-.095.361-.283.707-.358,1.07l-.069.411a1.911,1.911,0,0,0-.023.2,2.051,2.051,0,0,0,.2,1.1,11.178,11.178,0,0,0,1.129-.135,7.71,7.71,0,0,0,1.262-.285,6.092,6.092,0,0,1,1.278-.328,3.96,3.96,0,0,0,1.247-.268,5.288,5.288,0,0,1,1.271-.449c.406-.076.815-.065,1.232-.164s.816-.366,1.222-.448.846-.047,1.256-.164a.768.768,0,0,0,.094-.034.7.7,0,0,0,.353-.923Zm-1.829.112c-.367.12-.745.045-1.1.156s-.722.315-1.09.44a2.949,2.949,0,0,1-1.051.155,3.079,3.079,0,0,0-1.075.336,4.52,4.52,0,0,1-1.045.275,6.105,6.105,0,0,0-1.06.319c-.242.086-.514.2-.779.306l.051-.339c.041-.373-.034-.763-.02-1.138a7.608,7.608,0,0,1,.237-1.1c.026-.185-.027-.381-.006-.567a1.659,1.659,0,0,1,.144-.547,4.285,4.285,0,0,0,.37-1.087,2.194,2.194,0,0,0-.066-.574L56.5,167.9a.815.815,0,0,1,.155-.549.909.909,0,0,0,.24-.541c.008-.188-.169-.394-.22-.586-.068-.195.069-.37.151-.551s-.024-.378-.088-.571a1.175,1.175,0,0,1,.058-.558,1.872,1.872,0,0,0,.025-1.123c-.093-.38.191-.737.159-1.114a4.941,4.941,0,0,1-.057-1.127,5.074,5.074,0,0,0,.175-1.115,5.986,5.986,0,0,1,.021-1.122c.01-.106.021-.212.033-.318.028.064.064.126.087.193.128.335.116.726.267,1.053a7.55,7.55,0,0,0,.555.935,2.611,2.611,0,0,1,.228.487c.04.178.039.374.1.545.115.342.324.642.41,1a2.414,2.414,0,0,0,.377,1.014,6.541,6.541,0,0,1,.549.931c.161.32.482.56.623.889a6.481,6.481,0,0,0,.379,1.01,3.53,3.53,0,0,1,.557.921,4.044,4.044,0,0,0,.338,1.035c.561.514.566,1.322,1.2,1.794a3.065,3.065,0,0,1,.434.985c.034.1.08.2.121.3a2.392,2.392,0,0,1-.308.121" transform="translate(-38.571 -110.698)" fill="#06b0e3"/>
    <path id="Path_74716" data-name="Path 74716" d="M497.738,5.083c.741.4,1.626.877,2.592,1.39-.078-.006-.152-.007-.219-.006a.214.214,0,0,0-.094.4c2.268,1.215,4.039,2.347,5.6,3.347,2.788,1.783,4.81,3.077,7.386,3.3a11.6,11.6,0,0,1,2.142,1.844c.028.036.051.069.071.1-10.321-4.293-10.482-3.986-10.59-3.781a.214.214,0,0,0,.089.29c3.361,1.765,7.923,4.171,10.455,5.524-1.742-.641-8.165-3.175-8.41-3.269a.214.214,0,0,0-.157.4c.761.3,1.467.587,2.122.848,3.97,1.633,8.589,3.788,8.934,4.713.02.054.01.073.007.08-.234.442-2.917-.561-7.972-2.984-1.973-.947-1.976-.949-2.1-.719a.324.324,0,0,0-.016.263c.159.448,1.441,1.033,4.33,2.26a23.619,23.619,0,0,1,4.284,2.086c-.539.131-3.328-1.215-5.021-2.035-3.382-1.638-4.688-2.208-4.975-1.665a.214.214,0,0,0,.089.29l8.295,4.411a5.982,5.982,0,0,1-2.091-.486,51.579,51.579,0,0,0-4.968-2.255c-.425-.176-.855-.355-1.231-.516-.4-.206-.807-.415-1.206-.626a.215.215,0,0,0-.29.089.256.256,0,0,0-.013.191c.053.149.247.273,1.307.727a53.553,53.553,0,0,0,6.15,2.747,3.4,3.4,0,0,1,1.117.832,28.4,28.4,0,0,1-3.629-1.561c-4.03-1.9-5.97-2.727-6.339-2.033a.28.28,0,0,0-.015.225c.126.362,1.189.857,3.973,2.078,1.27.557,3,1.318,3.948,1.846-1.834-.656-6.046-2.221-9.04-3.342a.215.215,0,0,0-.174.392c1.487.763,3.327,1.715,4.918,2.549-6.1-2.5-6.313-2.1-6.4-1.93a.214.214,0,0,0,.089.29l5.506,2.928-.525-.255c-3.732-1.818-6.027-2.862-6.46-2.049a.213.213,0,0,0-.013.172.216.216,0,0,0,.118.126,70.512,70.512,0,0,1,7.8,3.782c-9.038-3.634-9.18-3.363-9.286-3.164a.5.5,0,0,0-.016.425,2.475,2.475,0,0,0,.934.9c-1.911-.619-2.026-.406-2.083-.3a.294.294,0,0,0-.013.207c.067.18.306.284,1.028.562a6.188,6.188,0,0,1,.909.4.215.215,0,0,0,.4.069.338.338,0,0,0,.013-.223c-.042-.112-.155-.2-.371-.313.78.266,1.777.638,2.881,1.07,2.159,1,4.538,1.883,4.992,2.05a.209.209,0,0,0,.074.014.215.215,0,0,0,.084-.412c-2.1-.9-3.754-1.577-5.059-2.087-1.718-.8-3.121-1.574-3.371-2.052,1.076.229,6.357,2.288,9.653,3.621a.215.215,0,0,0,.27-.1.334.334,0,0,0,.015-.275c-.309-.875-6.043-3.432-8.154-4.348a32.574,32.574,0,0,1,5.467,2.3c3.1,1.512,3.847,1.822,4.067,1.411a.214.214,0,0,0-.089-.29l-7.414-3.942c1.808.577,5.376,2.013,8.63,3.421a.214.214,0,0,0,.275-.1.221.221,0,0,0,.016-.168c-.008-.024-.016-.051-.121-.128l-.009-.006c-.308-.221-1.388-.841-5.333-2.888,6.733,2.516,6.746,2.489,6.854,2.286a.329.329,0,0,0,.017-.266c-.171-.492-1.684-1.2-4.854-2.591a31.836,31.836,0,0,1-3.646-1.744c.7-.076,3.905,1.419,5.672,2.254,3.235,1.53,4.014,1.848,4.227,1.448a.451.451,0,0,0,.02-.375,1,1,0,0,0-.245-.35c.849.191,1.463.176,1.646-.17a.214.214,0,0,0-.089-.29l-7.541-4.01c.933.362,2.312,1.03,3.425,1.569,3.655,1.77,5.292,2.479,5.631,1.836a.34.34,0,0,0,.016-.276c-.065-.184-.308-.39-.745-.644,1.221.393,1.945.427,2.157.028a.51.51,0,0,0,.017-.43c-.194-.521-1.307-1.259-2.767-2.037,1.959.7,2.017.582,2.082.459a.216.216,0,0,0,.015-.165c-.033-.107-.054-.174-10.611-5.723,2.268.83,6.041,2.356,8.655,3.447a.217.217,0,0,0,.272-.1.642.642,0,0,0-.1-.648,9.931,9.931,0,0,0-2.232-2c-.011-.148-.258-.372-1.809-1.251a55.664,55.664,0,0,0-9.39-5.05c-.833-.442-1.654-.878-2.417-1.285l7.531,3.386a.214.214,0,0,0,.277-.1c.1-.191.292-.548-4.069-3.092a.214.214,0,0,0-.216.37c1.1.643,2.259,1.368,3.024,1.9l-10.609-4.77a.214.214,0,0,0-.277.095c-.125.236-.141.266,2.321,1.6m4.228,2.259c.334.177,7.393,3.918,9.415,5.062q.448.294.862.579c-2.118-.391-3.958-1.568-6.395-3.127-1.284-.821-2.707-1.732-4.432-2.705.173.055.357.119.55.191" transform="translate(-351.498 -2.388)" fill="#06b0e3"/>
    <path id="Path_74717" data-name="Path 74717" d="M470.19,145.628a.215.215,0,0,0-.239.055l-8.467-3.032a.214.214,0,0,0-.262.1.224.224,0,0,0-.014.172c.046.138.049.15,2.426,1.272,1.959.925,5.945,2.809,6.5,3.377-.482.152-3.185-1.207-4.527-1.881-3.219-1.617-4.663-2.258-5.005-1.616a.26.26,0,0,0-.015.186c.075.225.6.5,3.739,1.985,1.142.539,2.612,1.232,3.721,1.8-7.767-3.057-7.9-2.806-8-2.617a.214.214,0,0,0,.09.29c2.258,1.186,5.267,2.773,7.166,3.785-2.045-.724-5.276-1.941-7.546-2.818a.214.214,0,1,0-.155.4c4.817,1.866,8.838,3.894,8.778,4.426-.221.412-2.76-.517-7.546-2.766-1.886-.886-1.885-.884-2-.66a.326.326,0,0,0-.017.265c.162.458,1.479,1.058,4.443,2.317a24.15,24.15,0,0,1,4.4,2.144c-.522.125-3.061-1.087-4.765-1.9-3.293-1.565-4.471-2.066-4.748-1.543a.213.213,0,0,0,.089.29l8.421,4.478a7.033,7.033,0,0,1-2.164-.532c-1.121-.565-2.63-1.206-4.334-1.913-.365-.152-.735-.3-1.071-.447q-.687-.34-1.395-.708a.216.216,0,0,0-.288.089.258.258,0,0,0-.013.191c.057.158.272.289,1.5.809a50.55,50.55,0,0,0,5.393,2.36,5.328,5.328,0,0,1,1.776,1.185,27.707,27.707,0,0,1-3.436-1.45c-3.841-1.781-5.689-2.547-6.043-1.881a.28.28,0,0,0-.015.226c.127.364,1.2.864,4.012,2.1,1.306.573,3.1,1.358,4.039,1.893-1.748-.611-5.764-2.07-8.617-3.116a.214.214,0,0,0-.172.392c1.564.8,3.518,1.814,5.159,2.677-5.936-2.386-6.142-2-6.226-1.835a.214.214,0,0,0,.089.29l5.685,3.023-.562-.268c-3.574-1.713-5.772-2.7-6.189-1.911a.214.214,0,0,0-.013.172.216.216,0,0,0,.118.126,69.545,69.545,0,0,1,7.641,3.7c-8.7-3.443-8.84-3.182-8.943-2.987a.492.492,0,0,0-.016.42,2.477,2.477,0,0,0,.938.9c-1.953-.633-2.068-.418-2.126-.308a.367.367,0,0,0-.017.309c.189.5,1.545,1.046,3.926,1.961,1.726.663,4.09,1.572,4.288,2.065-.543.361-5.572-1.9-7.466-2.751-2.073-.931-2.074-.932-2.192-.709a.214.214,0,0,0,.089.29l5.473,2.91-6.816-2.456a.214.214,0,0,0-.262.1.223.223,0,0,0-.014.173c.046.139.051.153,2.323,1.225l.2.1c-2.125-.853-3.981-1.382-4.3-.79a.383.383,0,0,0-.019.316c.233.663,2.458,1.662,5.576,3,.735.315,1.537.66,2.013.891a58.338,58.338,0,0,1-9.151-3.639.214.214,0,0,0-.28.094.368.368,0,0,0-.018.306c.105.294.613.636,1.464,1.059-3.4-1.294-3.509-1.079-3.621-.87a.22.22,0,0,0-.015.167c.034.107.068.218,7.426,4.023-1.095-.112-4.526-1.739-6.118-2.493-3-1.421-3.362-1.551-3.529-1.233a.214.214,0,0,0,.089.29l3.76,2c-6.217-2.482-6.365-2.2-6.46-2.026a.251.251,0,0,0-.014.183c.036.11.181.231.715.514-2.27-.961-3.472-1.228-3.766-.674a.4.4,0,0,0-.015.34,1.726,1.726,0,0,0,.618.631c-3.75-1.431-3.852-1.239-3.932-1.088a.215.215,0,0,0,.094.293c.888.438,1.978.984,3.019,1.516-6.125-2.549-6.365-2.1-6.453-1.933a.215.215,0,0,0,.115.3c2.229.82,4.694,1.951,4.8,2.31a.214.214,0,0,0,.379.2.376.376,0,0,0,.014-.32c-.143-.374-1.044-.887-2.054-1.362,1.933.728,4.534,1.814,6.961,2.888a.214.214,0,0,0,.276-.1.242.242,0,0,0,.015-.177c-.029-.091-.1-.312-4.624-2.591,1.536.57,7.684,3.053,8.1,3.213a.214.214,0,0,0,.16-.4c-.962-.4-1.838-.757-2.635-1.081-2.4-1.04-4.4-2.076-4.452-2.445.322-.6,5.415,1.84,7.333,2.762a12.789,12.789,0,0,0,2.773,1.2.2.2,0,0,0,.2-.132.292.292,0,0,0,.016-.2c-.092-.278-.875-.706-4.188-2.289-.644-.308-1.366-.653-1.951-.944,2.025.685,6.029,2.284,8.719,3.4a.215.215,0,0,0,.183-.388l-3.076-1.635c3.589,1.666,5.292,2.26,5.647,1.594a.214.214,0,0,0-.091-.291c-2.19-1.132-5.229-2.717-6.752-3.542,1.34.421,3.98,1.456,7.89,3.093,1.112.466,1.112.467,1.207.288a.285.285,0,0,0,.015-.233c-.106-.3-.791-.641-2.485-1.362,2.365.938,4.222,1.482,4.476,1.009a.26.26,0,0,0,.014-.19c-.071-.2-.39-.362-2.63-1.324-1.7-.731-5.241-2.251-5.348-2.721.267-.5,4.616,1.167,9.5,3.644a.215.215,0,0,0,.286-.091.281.281,0,0,0,.016-.222c-.13-.39-1.6-1.173-4.6-2.606l5.953,2.145a.214.214,0,0,0,.173-.391l-3.454-1.836c3.529,1.5,4.8,1.793,5.068,1.285a.443.443,0,0,0,.02-.373c-.233-.624-1.863-1.289-4.52-2.31a20.973,20.973,0,0,1-3.633-1.6,30.534,30.534,0,0,1,4.557,1.549c2.068.945,4.287,1.771,4.72,1.931a.214.214,0,0,0,.158-.4c-1.966-.836-3.537-1.478-4.792-1.969-1.745-.8-3.2-1.593-3.459-2.075,1.062.227,6.136,2.174,9.305,3.436a.216.216,0,0,0,.268-.1.33.33,0,0,0,.015-.273c-.3-.856-5.866-3.342-7.968-4.254a32.679,32.679,0,0,1,5.17,2.153c2.974,1.426,3.692,1.719,3.9,1.317a.214.214,0,0,0-.089-.29l-7.392-3.931c1.743.549,5.111,1.879,8.181,3.183a.214.214,0,0,0,.273-.1.223.223,0,0,0,.015-.168c-.008-.024-.016-.051-.122-.128l-.008-.006c-.311-.224-1.416-.857-5.482-2.966,6.452,2.36,6.463,2.333,6.569,2.133a.331.331,0,0,0,.017-.267c-.172-.5-1.7-1.212-4.9-2.617a32.452,32.452,0,0,1-3.679-1.759c.715-.057,3.71,1.327,5.372,2.1,3.136,1.453,3.827,1.727,4.032,1.339a.454.454,0,0,0,.02-.378,1.57,1.57,0,0,0-.57-.626c.7.128,1.2.087,1.363-.216a.214.214,0,0,0-.089-.29l-7.648-4.066c.884.345,2.139.941,3.158,1.425,3.482,1.655,5.043,2.318,5.372,1.7a.336.336,0,0,0,.017-.279c-.1-.278-.6-.608-1.554-1.073,1.259.41,2,.457,2.213.059a.449.449,0,0,0,.016-.378,5.434,5.434,0,0,0-2.192-1.625c2.714.967,2.779.848,2.854.711a.216.216,0,0,0,.015-.165c-.033-.108-.046-.149-7.348-3.988,2.047.719,5.366,2,7.674,2.924a.216.216,0,0,0,.269-.1.357.357,0,0,0,.016-.22c-.134-.4-1.57-1.141-5.55-3.018-1.286-.607-2.711-1.279-3.29-1.611a23.478,23.478,0,0,1,4.195,1.828c3.044,1.531,4.786,2.363,5.162,1.652a.285.285,0,0,0,.016-.228c-.149-.449-1.944-1.392-5.628-3.146l5.883,2.106a.217.217,0,0,0,.262-.1.253.253,0,0,0,.012-.189c-.029-.078-.072-.195-.936-.543" transform="translate(-303.677 -101.211)" fill="#06b0e3"/>
    <path id="Path_74718" data-name="Path 74718" d="M422.147,76.631a.214.214,0,0,0,.095.293c2.419,1.195,5.888,2.948,7.883,4.033-5-1.723-5.172-1.4-5.259-1.229a.215.215,0,0,0,.115.3,10.876,10.876,0,0,1,2.64,1.252.215.215,0,0,0,.4.125.308.308,0,0,0,.012-.258A2.36,2.36,0,0,0,427,80.409c1.3.383,3.1.983,4.793,1.591a.219.219,0,0,0,.073.012.215.215,0,0,0,.19-.114.256.256,0,0,0,.015-.182c-.093-.288-2.562-1.645-7.35-4.041,1.254.466,7.706,3.067,8.1,3.22a.214.214,0,0,0,.16-.4c-1.522-.631-2.828-1.164-3.949-1.615-3.626-1.56-7.225-3.335-7.534-4.163-.022-.06-.01-.081-.006-.089.321-.608,5.4,1.834,7.314,2.752,2.652,1.274,2.817,1.332,2.962,1.06a.338.338,0,0,0,.016-.213c-.133-.405-1.687-1.205-6.289-3.4-1.4-.669-2.928-1.4-3.851-1.885,1.924.626,6.222,2.345,9.063,3.527a.215.215,0,0,0,.183-.388l-6.03-3.206c3.593,1.675,5.3,2.269,5.657,1.6a.214.214,0,0,0-.091-.291c-3.17-1.637-7.636-3.968-9.521-5,1.33.414,4.009,1.465,8,3.143,1.123.471,1.124.473,1.221.294a.309.309,0,0,0,.016-.252c-.153-.43-1.428-1-4.52-2.3a44.7,44.7,0,0,1-5.393-2.515c4.33,2.023,9.249,4.1,9.676,3.293a.277.277,0,0,0,.013-.2c-.081-.23-.549-.463-3.343-1.663-2.241-.963-6.906-2.966-6.894-3.578.274-.516,4.735,1.212,9.74,3.77a.214.214,0,0,0,.287-.091.3.3,0,0,0,.016-.237c-.169-.508-2.265-1.593-6.581-3.638l6.246,2.294a.215.215,0,0,0,.175-.391l-5.055-2.688c3.544,1.524,4.826,1.822,5.1,1.3a.494.494,0,0,0,.023-.414c-.276-.736-2.237-1.535-5.433-2.764-1.661-.638-4.127-1.586-4.442-2.014a22.763,22.763,0,0,1,3.761,1.251c2.535,1.185,5.421,2.26,5.958,2.458a.214.214,0,0,0,.159-.4c-2.649-1.147-4.61-1.951-6.063-2.509-1.928-.906-3.449-1.776-3.66-2.31,1.031.208,6.373,2.291,9.7,3.637a.215.215,0,0,0,.27-.1.349.349,0,0,0,.016-.288c-.348-.986-6.917-3.906-9.235-4.91a32.6,32.6,0,0,1,5.475,2.307c3.105,1.515,3.854,1.828,4.073,1.414a.213.213,0,0,0-.089-.29l-8.429-4.482c1.8.575,5.358,2,8.6,3.4a.214.214,0,0,0,.274-.1.227.227,0,0,0,.016-.169c-.008-.023-.016-.05-.121-.127l-.008-.006c-.328-.237-1.536-.932-6.153-3.325,6.692,2.495,6.7,2.469,6.813,2.265A.333.333,0,0,0,431.13,58c-.189-.544-2.107-1.419-5.244-2.795a32.828,32.828,0,0,1-3.972-1.907c.687-.091,3.871,1.4,5.625,2.223,3.206,1.51,3.978,1.824,4.189,1.426a.466.466,0,0,0,.02-.387,1.518,1.518,0,0,0-.528-.6c.684.118,1.169.069,1.329-.231a.214.214,0,0,0-.089-.29L424.665,51.3c.917.356,2.252,1,3.332,1.519,3.594,1.73,5.2,2.424,5.54,1.789a.34.34,0,0,0,.017-.277c-.076-.215-.4-.463-.989-.78,1.219.391,1.941.425,2.151.032a.437.437,0,0,0,.015-.368A4.089,4.089,0,0,0,433.08,51.9c3.015,1.1,3.082.977,3.16.834a.215.215,0,0,0,.016-.164c-.033-.108-.045-.143-6.485-3.53,2.11.75,5.554,2.1,7.948,3.07a.216.216,0,0,0,.27-.1A.337.337,0,0,0,438,51.8c-.12-.361-1.308-.973-4.818-2.629-1.08-.509-2.275-1.073-2.8-1.367a24.253,24.253,0,0,1,4.36,1.926c3.151,1.6,4.952,2.476,5.341,1.747a.349.349,0,0,0,.015-.218c-.139-.419-1.914-1.319-5.594-3.057l-.024-.012,4.123,1.084a.213.213,0,0,0,.244-.107.3.3,0,0,0,.013-.208c-.03-.082-.12-.33-1.978-1.078a.215.215,0,0,0-.16.4c.122.05.248.1.373.155l-4.531-1.191a.212.212,0,0,0-.243.107.219.219,0,0,0-.015.171c.044.131.046.139,2.015,1.069a47.149,47.149,0,0,1,5.305,2.74c-.527.137-3.2-1.225-4.69-1.982-3.057-1.557-4.806-2.406-5.176-1.707a.251.251,0,0,0-.015.183c.069.208.494.435,3.251,1.736.766.361,1.7.8,2.532,1.213-7.611-3.026-7.749-2.775-7.849-2.586a.216.216,0,0,0-.015.164.212.212,0,0,0,.105.126c1.958,1.028,4.54,2.39,6.269,3.31-2.006-.723-7.781-2.958-7.861-2.988a.215.215,0,0,0-.156.4l.6.236c3.828,1.517,7.724,3.387,7.707,3.941-.23.43-2.848-.542-7.785-2.888-1.931-.918-1.934-.92-2.056-.693a.323.323,0,0,0-.016.263c.159.449,1.445,1.035,4.34,2.265a23.745,23.745,0,0,1,4.293,2.09c-.537.129-3.271-1.188-4.931-1.987-3.329-1.6-4.613-2.158-4.9-1.623a.215.215,0,0,0,.089.29l8.554,4.548a6.082,6.082,0,0,1-1.974-.456c-1.217-.642-2.939-1.374-4.834-2.161-.43-.179-.867-.36-1.252-.524-.446-.225-.891-.454-1.33-.686a.215.215,0,0,0-.289.089.261.261,0,0,0-.013.192c.056.156.265.288,1.421.781a50.935,50.935,0,0,0,6.085,2.687,4.588,4.588,0,0,1,1.569,1.1,28.206,28.206,0,0,1-3.592-1.539c-3.994-1.881-5.919-2.695-6.282-2a.283.283,0,0,0-.015.23c.133.383,1.345.946,4.29,2.238,1.454.638,3.467,1.521,4.443,2.1-1.767-.628-6.055-2.217-9.086-3.348a.215.215,0,0,0-.173.392c1.765.906,3.981,2.053,5.812,3.016-6.16-2.522-6.374-2.12-6.463-1.953a.214.214,0,0,0,.089.29l6.515,3.464-.522-.254c-3.736-1.821-6.035-2.868-6.469-2.054a.214.214,0,0,0-.013.172.218.218,0,0,0,.118.126,72.827,72.827,0,0,1,9.011,4.41c-9.192-3.7-9.338-3.43-9.445-3.23a.539.539,0,0,0-.017.462,3.411,3.411,0,0,0,1.353,1.214c-1.368-.4-1.464-.22-1.517-.12a.4.4,0,0,0-.018.337c.221.59,1.936,1.275,4.716,2.343,2.209.849,4.958,1.9,5.186,2.513.014.039.008.051.012.049-.545.383-5.778-2-7.747-2.9-2.144-.976-2.145-.979-2.265-.754a.214.214,0,0,0,.089.29l7.277,3.87-7.107-2.611a.214.214,0,0,0-.264.1.227.227,0,0,0-.014.173c.049.148.056.171,2.9,1.514.861.406,1.985.936,3.088,1.473-2.734-1.214-5.505-2.211-5.9-1.468a.432.432,0,0,0-.02.356c.291.826,3.265,2.16,7.124,3.817,1.109.476,2.245.964,2.8,1.25-1.294-.177-5.574-1.944-9.485-3.792a.215.215,0,0,0-.281.093.42.42,0,0,0-.02.349c.222.621,1.988,1.464,4.73,2.631-4.232-1.662-4.352-1.427-4.473-1.2a.22.22,0,0,0-.016.168c.033.106.084.266,10.148,5.469-1.1-.106-4.6-1.774-6.221-2.546-3.039-1.449-3.409-1.581-3.579-1.261a.215.215,0,0,0,.089.29l6.818,3.625c-6.25-2.5-6.4-2.218-6.491-2.042a.273.273,0,0,0-.015.191c.089.27.866.685,4.9,2.609,1.1.525,2.377,1.136,3.478,1.685-4.852-2.325-7.242-3.283-7.674-2.469a.519.519,0,0,0-.017.44c.194.521,1.278,1.253,2.717,2.028-1.537-.512-1.607-.378-1.666-.266" transform="translate(-297.449 -33.518)" fill="#06b0e3"/>
    <path id="Path_74719" data-name="Path 74719" d="M428.062,44.427l-.02-.008c-1.721-.708-3.436-1.443-5.208-2.006-1.334-.42-2.681-.789-4.006-1.224a.758.758,0,0,0-.3-.232l-.019-.008c-.941-.379-1.883-.764-2.85-1.073s-7.977-2.5-7.977-2.5c-.093-.028-.19-.042-.286-.062-.118-.053-.389-.17-.389-.17a.621.621,0,0,0-.8.362l-.035.091a33.184,33.184,0,0,1-1.361,3.2c-.274.524-.612,1.082-.915,1.565a11.965,11.965,0,0,1-1.089,1.344c-.4.416-.773.852-1.184,1.253-.378.429-.811.827-1.183,1.207a3.978,3.978,0,0,1-.6.491c-.059.033-.116.069-.175.1-.04.024-.083.044-.124.068a7.813,7.813,0,0,1-1.474.543c-.195.04-.388.082-.593.1l-.355.03a.922.922,0,0,1-.246-.017c-.112-.046-.046-.016-.089-.119l-.042-.1a.628.628,0,0,0-.066-.12c-1.632-2.33-2.183-5.225-2.844-8.039a26.912,26.912,0,0,1-.645-8.721,21.2,21.2,0,0,1,.351-2.147c.144-.708.295-1.413.5-2.1a13.742,13.742,0,0,1,.762-2.014,7.939,7.939,0,0,1,1.106-1.806,9.607,9.607,0,0,1,3.3-2.551,15.581,15.581,0,0,1,3.658-1.121c.45.545.883,1.108,1.288,1.692l1.336,2.025a2.055,2.055,0,0,0,.227.3c1.52.608,3.055,1.216,4.617,1.786l4.678,1.734a.813.813,0,0,0,.7-.067l.029-.018c1.01-.612,1.981-1.283,2.969-1.93,0,0,4.906-3.283,5.91-3.906l3.012-1.863a.726.726,0,0,0,.282-.91l-.01-.022a24.757,24.757,0,0,0-5.28-7.36q-.8-.8-1.659-1.536c-.563-.5-1.121-1.008-1.712-1.477a32.336,32.336,0,0,0-3.71-2.588,28.855,28.855,0,0,0-8.37-3.355A34.312,34.312,0,0,0,398.224.008c-.754.008-1.506.05-2.257.1-.41.036-1.531.107-1.682.119a11.053,11.053,0,0,0-1.226.193c-.377.073-.766.132-1.157.217-.052.01-.1.023-.154.034-.219.044-.438.1-.656.143Q390.7.9,390.317,1c-.339.081-.678.15-1.016.242a34.058,34.058,0,0,0-8.4,3.355A33.554,33.554,0,0,0,377.249,7.3c-.115.1-.224.2-.339.3l-.055.044q-.529.446-1.041.916c-.159.147-.316.294-.471.446-.438.42-.859.857-1.26,1.315-.04.046-.086.086-.126.132-.079.095-.151.195-.228.291s-.185.212-.272.324a29.051,29.051,0,0,0-2.576,4.081,24.673,24.673,0,0,0-1.907,4.412,31.454,31.454,0,0,0-.967,3.059,27.074,27.074,0,0,0-.536,3.427c-.146.96-.256,1.926-.308,2.895-.026,1.018.022,2.034.045,3.049a38.514,38.514,0,0,0,.236,4.114q.12.849.255,1.7a27.645,27.645,0,0,0,.873,4.288,26.634,26.634,0,0,0,.893,2.818c.369.96.827,1.885,1.279,2.814.328.673.655,1.349,1.033,2a19.213,19.213,0,0,0,1.125,1.633c.343.478.666.971,1.019,1.437a27.08,27.08,0,0,0,3.066,3.327,34.888,34.888,0,0,0,3.437,2.947,31.605,31.605,0,0,0,3.836,2.4,24.559,24.559,0,0,0,4.2,1.7c1.436.469,2.924.748,4.381,1.083a41.029,41.029,0,0,0,4.449.7,34.654,34.654,0,0,0,4.508.184c.748-.035,1.511-.095,2.242-.162a19.853,19.853,0,0,0,2.265-.274l-.048.006c.656-.078,1.307-.179,1.95-.311.645-.114,1.288-.242,1.924-.4a28.384,28.384,0,0,0,3.741-1.2,21.232,21.232,0,0,0,6.591-4.326,33.725,33.725,0,0,0,4.759-6.212,42.948,42.948,0,0,0,3.145-7.147.54.54,0,0,0-.3-.676M380.869,57.095a19.307,19.307,0,0,1-5.32-4.267c-.2-.267-.409-.535-.615-.8-.185-.25-.371-.5-.547-.76-.069-.1-.14-.2-.2-.3a35.358,35.358,0,0,1-2.574-4.693c-.266-.619-.493-1.255-.714-1.893q-.3-.907-.6-1.825l-.567-2.118c-.217-.738-.405-1.486-.578-2.236-.1-.435-.179-.873-.253-1.313-.053-.315-.091-.633-.126-.951-.112-1.044-.254-2.094-.313-3.15A37.711,37.711,0,0,1,368.5,29c.041-.922.074-1.844.157-2.762q.254-1.671.651-3.308a23.13,23.13,0,0,1,.726-2.651c.036-.1.074-.2.113-.306a39.567,39.567,0,0,1,1.919-4.179,22.113,22.113,0,0,1,2.083-3.11c.271-.339.543-.676.825-1,.212-.253.43-.5.648-.75s.419-.485.635-.721c.485-.525.984-1.04,1.51-1.529.329-.306.682-.581,1.026-.867a31.161,31.161,0,0,1,2.853-2.01,29.36,29.36,0,0,1,5.309-2.7,28.541,28.541,0,0,1,3.444-.927c.25-.052.5-.1.752-.149.311-.057.623-.112.934-.161a49.784,49.784,0,0,1,6.159-.506c.423,0,.848-.012,1.273,0a15.437,15.437,0,0,1,3.99.717c2.955.812,5.244,2.829,7.494,4.952a26.333,26.333,0,0,1,5.094,6.934c-1.713,1.109-3.4,2.258-5.064,3.427-.915.643-1.849,1.254-2.772,1.878l-2.176,1.445-.029-.051c-.221-.389-.467-.763-.719-1.135-.068-.1-.144-.2-.212-.3-.263-.392-.511-.793-.79-1.178a14.942,14.942,0,0,0-2.744-2.914A8.843,8.843,0,0,0,397.9,13.39a13.7,13.7,0,0,0-3.987.064l-.04,0a15.025,15.025,0,0,0-6.036,2.021,11.3,11.3,0,0,0-2.412,2.169,22.393,22.393,0,0,0-1.83,2.668,8.9,8.9,0,0,0-1.055,3.016c-.185,1.048-.411,2.071-.651,3.109a11.843,11.843,0,0,0-.3,3.156c.057,1.056.252,2.1.393,3.129.281,2.061.436,4.141.879,6.215a16.52,16.52,0,0,0,.957,3.051,12.377,12.377,0,0,0,1.7,2.781,11.674,11.674,0,0,0,5.338,3.643,10.957,10.957,0,0,0,3.186.557c.538,0,1.073-.032,1.6-.08l.766-.077a4.1,4.1,0,0,0,.856-.165l.052-.012c.108-.01.333-.035.333-.035.607-.117,1.226-.229,1.87-.4a6.527,6.527,0,0,0,1.864-.818,9.019,9.019,0,0,0,2.242-2.173c.113-.119.229-.236.339-.358a13.97,13.97,0,0,0,2.109-3.281q.428-.864.786-1.764c.123-.3.22-.607.319-.915l.091-.3.007,0a.361.361,0,0,0,.089.1,2.609,2.609,0,0,0,.286.118l.354.138c.473.18.945.367,1.424.527l7.8,2.689a29.306,29.306,0,0,1-3.736,7.534,45.278,45.278,0,0,1-2.841,3.6,16.531,16.531,0,0,1-3.379,3.006,20.808,20.808,0,0,1-8.591,3.062c-.746.113-1.572.31-2.268.4-.744.1-1.551.168-2.3.224s-1.539.1-2.31.08a21.6,21.6,0,0,1-2.3-.19,27.16,27.16,0,0,1-4.477-.965,18.063,18.063,0,0,1-4.142-1.825m14.173-35.454a15.614,15.614,0,0,0-2.118,4.133,16.284,16.284,0,0,0-.876,4.5,51.847,51.847,0,0,0,.234,9.09c.107.755.238,1.509.4,2.26a20.266,20.266,0,0,0,.706,2.2,14.958,14.958,0,0,0,2.212,3.9l-.061,0c-.5.021-.989.031-1.479,0a12.546,12.546,0,0,1-2.886-.393,8.129,8.129,0,0,1-4.509-3.425,14.383,14.383,0,0,1-1.317-2.583c-.369-.9-.734-1.825-1.022-2.783a23.914,23.914,0,0,1-1.166-5.933,29.717,29.717,0,0,1,.087-3.027c.046-1,0-1.994,0-3a8.293,8.293,0,0,1,.451-2.953l1.046-2.772a8.4,8.4,0,0,1,3.772-4.311,15.4,15.4,0,0,1,5.5-2.031,13.3,13.3,0,0,1,3.64.16,7.606,7.606,0,0,1,3.26,1.352,7.106,7.106,0,0,1,1.38,1.219,11.812,11.812,0,0,0-7.257,4.385M414.921,5.582a29.137,29.137,0,0,1,3.648,2.379,20.833,20.833,0,0,1,3.2,2.962,32.206,32.206,0,0,1,4.522,6.616l-2.39,1.575c-.989.65-2.013,1.245-3.018,1.87,0,0-4.817,2.955-5.695,3.53l-4.089-1.393c-1.383-.479-2.791-.925-4.211-1.369,0,0,3.916-2.736,4.841-3.36,1.848-1.25,3.7-2.475,5.584-3.66a.657.657,0,0,0,.237-.845l0-.008a34.074,34.074,0,0,0-5.69-7.675,19.5,19.5,0,0,0-3.578-3.225,12.587,12.587,0,0,0-1.189-.721,41.229,41.229,0,0,1,7.836,3.324m9.16,45.992a30.123,30.123,0,0,1-4.493,6.017,20.6,20.6,0,0,1-6.242,3.976,25.525,25.525,0,0,1-3.511,1.325,18.711,18.711,0,0,1-1.821.457,18.085,18.085,0,0,1-1.856.217l-.036,0-.012,0a18.958,18.958,0,0,1-2.153.168c-.746.038-1.463.064-2.195.069-1.456.028-2.914.036-4.37-.073a30.34,30.34,0,0,1-8.555-1.7,41.912,41.912,0,0,1-3.99-1.731c-.049-.023-.095-.051-.143-.075a22.112,22.112,0,0,0,4.669.791,34.669,34.669,0,0,0,9.541-.357,32.025,32.025,0,0,0,4.615-1.3,31.5,31.5,0,0,0,4.349-2.078,18.35,18.35,0,0,0,3.825-3,15.473,15.473,0,0,0,1.585-1.818c.493-.635.948-1.3,1.39-1.964a45.978,45.978,0,0,0,4.143-8.181c1.213.4,2.406.849,3.6,1.3,1.568.581,3.162,1.082,4.728,1.661a23.077,23.077,0,0,1-1.233,2.992,35.733,35.733,0,0,1-1.834,3.3" transform="translate(-260.518 -0.001)" fill="#06b0e3"/>
  </g>
</svg>
