<svg xmlns="http://www.w3.org/2000/svg" xmlns:xlink="http://www.w3.org/1999/xlink" width="88.585" height="90.846" viewBox="0 0 88.585 90.846">
  <defs>
    <clipPath id="clip-path">
      <rect id="Rectangle_10158" data-name="Rectangle 10158" width="70.146" height="73.552" fill="#20a2a2"/>
    </clipPath>
  </defs>
  <g id="Group_158606" data-name="Group 158606" transform="translate(21.505 0) rotate(17)" opacity="0.61">
    <g id="Group_158415" data-name="Group 158415" transform="translate(0 0)" clip-path="url(#clip-path)">
      <path id="Path_65928" data-name="Path 65928" d="M15.682,37.673c-1.732-.891-3.452-1.78-5.177-2.658-.464-.237-1.027-.348-.956-1.083.013-.144-.222-.322-.358-.47-2.04-2.213-4.177-4.347-6.082-6.673a9.231,9.231,0,0,1-1.275-3.309c-.214-.749-.279-1.433-1.08-1.924-.985-.6-.947-1.631-.222-3.241a1.721,1.721,0,0,1,2.106-.981A1.692,1.692,0,0,0,3.7,17.194c3.161-2.061,6.7-2.155,10.271-1.964a16.687,16.687,0,0,1,3.109.657c1.4.351,2.781.753,4.174,1.117,1.246.326,1.437.145,1.825-1.08.714-2.259,1.532-4.486,2.25-6.744a1.915,1.915,0,0,0-.082-1.269c-.882-1.929-.451-3.063,1.337-4.185a15.945,15.945,0,0,0,2.941-2.564c1.645-1.723,4.9-1.372,6.767.024A12.2,12.2,0,0,1,39.9,6.078c.633,1.342,1.4,2.629,1.941,4a31.272,31.272,0,0,1,.955,3.556c2.7-1.044,5.254-1.984,7.769-3.016a31.07,31.07,0,0,1,8.6-2.229,3.339,3.339,0,0,1,1.063-.012,2.192,2.192,0,0,0,2.552-.791,1.833,1.833,0,0,1,1.576-.264,3.167,3.167,0,0,1,1.456,5.05,4.44,4.44,0,0,0-.934,3.244,17.628,17.628,0,0,1-3.025,8.62c-1.382,2.256-3,4.371-4.576,6.647a49.055,49.055,0,0,1,3.73,3.2c2.467,2.543,5.064,5.013,6.708,8.211a9.083,9.083,0,0,1,.905,3.317,3.763,3.763,0,0,0,.889,2.594,1.608,1.608,0,0,1,.128,2.443c-1.26,1.474-1.755,1.768-3,1.167a1.565,1.565,0,0,0-1.558.027A15.205,15.205,0,0,1,57.255,53.4c-2.9-.126-5.819-.1-8.721-.254a24.615,24.615,0,0,1-3.512-.7,41.4,41.4,0,0,1-3.594,15.72,2.231,2.231,0,0,1,.607,3.112,3.264,3.264,0,0,1-3.649,1.43,1.6,1.6,0,0,0-1.024.035c-3.378,1.7-6.874.543-9.27-1.7-2.7-2.519-3.934-5.729-4.892-9.132-.073-.266-.154-.528-.271-.922a23.98,23.98,0,0,0-2.642,1.253,13.593,13.593,0,0,1-6.211,1.843c-1.367.127-2.778.05-4.034.967-.982.718-1.988.061-2.813-.578a1.547,1.547,0,0,1-.366-2.125c.841-1.106.487-2.162.315-3.285a14.658,14.658,0,0,1,1.672-9.348c2.121-3.929,4.429-7.757,6.653-11.631.05-.086.081-.184.179-.412M43.9,30.855l-.266,0c-.086-1.381-.212-2.76-.246-4.142-.026-1.032-.606-1.375-1.5-1.524a3.63,3.63,0,0,1-1.826-.522c-1.873-1.8-4.344-2.132-6.643-2.883a1,1,0,0,0-.836.153q-5.277,4.8-10.505,9.651a1.164,1.164,0,0,0-.369.7q-.151,3.135-.224,6.277a1.12,1.12,0,0,0,.28.832,40.334,40.334,0,0,0,5.182,3.5c3.37,1.677,6.873,3.088,10.335,4.576a1.028,1.028,0,0,0,.9-.112c1.726-1.581,3.44-3.181,5.092-4.841a2.3,2.3,0,0,0,.6-1.453c.051-3.406.027-6.812.027-10.216m12.23,1.091c-1.037,1.1-2.083,2.311-3.234,3.414-2.333,2.235-4.732,4.4-7.077,6.627a1.759,1.759,0,0,0-.526,1.072c-.115,2.233-.123,4.473-.251,6.7-.052.917.272,1.282,1.144,1.512a29.7,29.7,0,0,0,9.4.8c3.015-.175,6.128.154,8.938-1.462.619-.354.8-.674.693-1.309-.345-2.014-.029-2.471,1.912-2.82a6.787,6.787,0,0,0-1.992-5.714c-2.751-3.207-5.438-6.482-9.012-8.821M63.678,13.98l-.286.077a8.56,8.56,0,0,1-1.547-1.482,3.914,3.914,0,0,1-.453-1.83c-.044-.861-.485-1.112-1.229-1.032a18.27,18.27,0,0,0-3.782.489c-4.188,1.4-8.321,2.952-12.484,4.423-.753.267-.66.782-.569,1.371.4,2.582.84,5.158,1.133,7.752a1.564,1.564,0,0,0,1.148,1.505c3.508,1.393,6.993,2.841,10.714,4.363,3.709-4.371,7.248-9.178,7.356-15.637M37.928,49.563c-.272.249-.5.471-.74.677-2.363,2.036-4.671,4.141-7.11,6.08-1.689,1.341-3.572,2.431-5.33,3.69a1.136,1.136,0,0,0-.334,1c.522,1.679,1.109,3.342,1.719,4.992A10.159,10.159,0,0,0,31.1,71.455a7.154,7.154,0,0,0,3.463.662,5.689,5.689,0,0,0,2.73-1.012c.285-.183.09-1.1.119-1.689a1.713,1.713,0,0,1,1.751-1.764,1.448,1.448,0,0,0,1.528-1.13A44.052,44.052,0,0,0,43.7,52.8a1.071,1.071,0,0,0-.807-1.26c-1.638-.607-3.248-1.288-4.964-1.979M16.465,36.576c1.286-1.685,2.519-3.285,3.726-4.906a1.774,1.774,0,0,0,.222-.79c.335-2.417.615-4.841,1-7.25.255-1.589.657-3.153,1.01-4.818-1.792-.475-3.47-.862-5.111-1.368a18.593,18.593,0,0,0-8.051-.789,9.183,9.183,0,0,0-4.574,1.628c1.282,1.42,1.059,2.964-.681,3.7a1.289,1.289,0,0,0-.832,1.827,9.353,9.353,0,0,0,1.313,2.628C5.44,27.72,6.558,28.873,7.6,30.083a25.484,25.484,0,0,0,8.861,6.492M8.674,60.17c2.393-.368,3.325.34,3.711,2.7,1.222-.129,2.447-.264,3.673-.388a2.088,2.088,0,0,0,1.889-1.15c.124-.252.637-.357.991-.438.3-.069.667.081.95-.02.7-.251,1.347-.632,2.044-.878.541-.192.721-.472.582-1.024a72.039,72.039,0,0,1-2.331-17.226,1.222,1.222,0,0,0-.412-.772c-.931-.838-1.9-1.639-2.89-2.486.055-.014.005-.017-.007,0-1.785,2.977-3.576,5.95-5.332,8.943-.175.3-.007.836-.213,1.083-2.847,3.427-3.364,7.35-2.654,11.65m20.3-56.6a15.989,15.989,0,0,1,1.491,1.14c1.569,1.528,1.4,3.006-.586,3.968a24.448,24.448,0,0,1-3.728,1.1c-.654,2.388-1.427,5.215-2.174,7.947,3.008.773,5.742,1.483,8.483,2.161a1.133,1.133,0,0,0,.764-.194c2.605-1.655,5.207-3.317,7.783-5.017a1.042,1.042,0,0,0,.407-.874c-.579-1.759-1.177-3.517-1.89-5.225A21.333,21.333,0,0,0,37.45,4.4c-2.1-2.964-5.255-4.835-8.473-.836m7.469,45.337c-5.165-1.679-10.267-3.442-14.724-6.8C21.178,45.139,23.046,57.327,24,58.778c4.366-2.964,8.9-5.716,12.442-9.872M55.176,31.249c-.047-.2-.1-.394-.143-.59L44.818,26.353c.174,4.784.339,9.359.514,14.161l9.843-9.265M23.689,19.258c-.672,3.471-1.737,6.826-1.831,10.534l9.672-8.858-7.841-1.675M41.9,15.609c-2.6,1.665-4.99,3.2-7.684,4.919,3.28.808,6.264,1.461,8.719,3.433l.247-.166c-.413-2.634-.825-5.268-1.282-8.186M38.992,48.331l4.635,2.052c.1-2.188.191-4.245.3-6.639l-4.933,4.587M17.686,37.257l2.468,1.325V33.768l-2.468,3.49" transform="translate(0 -0.001)" fill="#20a2a2" fill-rule="evenodd"/>
      <path id="Path_65929" data-name="Path 65929" d="M33.091,27.906a6.671,6.671,0,0,1-4.341,5.659A3.632,3.632,0,0,1,25.245,32a3.163,3.163,0,0,0-.936-.986,4.349,4.349,0,0,1-1.844-4.727,5.782,5.782,0,0,1,5.051-4.865,4,4,0,0,1,4.418,2.237,28.6,28.6,0,0,1,1.413,4.163c-.085.027-.17.056-.255.082M28.511,29.7c.581-.632.583-.49,1.583-.51a2.023,2.023,0,0,0,1.546-.955c.527-1.334-.829-4.276-2.254-5.122l-2.56,2.446c1.43.8.5,1.579.273,2.214.454.038,1.2-.026,1.252.131a7.335,7.335,0,0,1,.16,1.8" transform="translate(6.879 6.58)" fill="#20a2a2" fill-rule="evenodd"/>
    </g>
  </g>
</svg>
