<svg xmlns="http://www.w3.org/2000/svg" xmlns:xlink="http://www.w3.org/1999/xlink" width="144.227" height="68.735" viewBox="0 0 144.227 68.735">
  <defs>
    <clipPath id="clip-path">
      <rect id="Rectangle_10167" data-name="Rectangle 10167" width="144.227" height="68.735" fill="#0095da"/>
    </clipPath>
  </defs>
  <g id="Group_158568" data-name="Group 158568" transform="translate(0 0)" opacity="0.29">
    <g id="Group_158433" data-name="Group 158433" transform="translate(0 0)" clip-path="url(#clip-path)">
      <path id="Path_65990" data-name="Path 65990" d="M9.012,48.722a6.6,6.6,0,0,1-1.3,1.867,2.55,2.55,0,0,1-.866,1.034A1.563,1.563,0,0,0,6.626,53a2.179,2.179,0,0,0,1.48.393l0,0a5.855,5.855,0,0,1,2.121-.327l1.053.012c.955-.031,1.907-.013,2.858.027,3.824.04,7.648.083,11.471.029,4.136-.062,8.28.087,12.406-.3a10.506,10.506,0,0,1,1.2.019,54.839,54.839,0,0,1,5.953-.05,2.911,2.911,0,0,1,1.3-.012l0,.008a62.84,62.84,0,0,1,7.275-.146c.447-.008.5.148.273.487-.239.368-.435.758-.651,1.139-.008.131-.013.264-.031.393-.081.618,0,1.191.731,1.4.758.225,1.1-.3,1.413-.81-.015-.425-.14-.864.208-1.234.314-.4.208-1.082.943-1.191l3.091.019c6.651.549,13.326.6,19.993.829.431.013.866.094,1.3.144v0l.04-.042.05.025c2.985.065,5.976-.146,8.953.217h0a1.9,1.9,0,0,1,.974.031c.589,0,1.178,0,1.765.006.42-.148.841-.3,1.261-.448a.966.966,0,0,1,.277-.073,6.359,6.359,0,0,0,1.728-.362c.381-.318.508-.9,1.139-.958.187-.156.373-.31.558-.468.269-.676-.085-1.488.522-2.09l-.023-.077.062-.052A8.291,8.291,0,0,1,99.6,47.063a1.5,1.5,0,0,1,.664-.868c.048-.054.094-.114.142-.169a32.906,32.906,0,0,0,1.636-3.264,6.433,6.433,0,0,1,1.524-2.962c-.056-.242.142-.364.287-.506q.531-.826,1.064-1.647.739-1.648,1.484-3.295c.05-.279-.079-.6.243-.812q.554-.958,1.11-1.915a.781.781,0,0,1,.366-.772c.814-1.1,1.045-2.488,2.069-3.478a11.035,11.035,0,0,1,1.776-2.458c-.013-.169-.038-.345.214-.391.214-.283.425-.564.641-.847q1.1-2.182,2.206-4.365c.127-.187.252-.371.381-.558a6.692,6.692,0,0,1,1.17-1.69c.048-.05.094-.1.141-.154.254-.333.506-.67.758-1a.762.762,0,0,1,.412-.635,1.8,1.8,0,0,1,.475-.808c-.04-.119.008-.192.139-.219.179-.258.356-.52.535-.779l0,0a4.278,4.278,0,0,1,1.324-1.607c.244-.077.046-.433.341-.477l.739-.829c.046-.065.092-.133.135-.2a1.752,1.752,0,0,1,.739-.816c.112-.175.294-.156.47-.14.983.089,1.413-.312,1.27-1.228a3.539,3.539,0,0,0-2.342-.635,5.569,5.569,0,0,1-.828-.133,1.915,1.915,0,0,1-.325-.067l0,0a21.761,21.761,0,0,1-4.444-.42c-.133-.01-.262-.023-.389-.035-3.514-.135-7.025-.3-10.537-.391a103.14,103.14,0,0,0-10.318.337c-.91.069-1.828.038-2.743.052-.558.012-1.112.027-1.669.037A1.793,1.793,0,0,1,89.693,7c-2.04.206-4.09.306-6.143.341l.023-.008a1.79,1.79,0,0,1-.793.083c-2.485.244-4.981.279-7.473.383-.464.019-.695-.079-.458-.583a4.866,4.866,0,0,1,.722-1.236c-.046-.152-.023-.277.158-.337.173-.345.344-.689.518-1.034a.114.114,0,0,1,.046-.169.821.821,0,0,0-.115-1l-.7,0a8.362,8.362,0,0,0-1.609,1.7c-.092.173-.183.346-.275.522a5.639,5.639,0,0,0-.447.922c-.3,1.051-.987,1.313-2.15,1.324-6.857.06-13.711-.448-20.572.191C45.383,8.575,40.4,9.435,35.34,9.741c-.448.029-.591.235-.62.664a5.442,5.442,0,0,1-1,2.737c-.552.8-1.028,1.651-1.578,2.454-.883,1.284-1.334,2.793-2.4,3.976q-.32.531-.641,1.06a4.7,4.7,0,0,1-1.343,2.054c-.36.545-.724,1.091-1.084,1.64A6.161,6.161,0,0,1,25.548,25.9c-.146.16-.289.319-.433.477a1.6,1.6,0,0,1-.67.962c-.166.223-.329.448-.495.672a19.414,19.414,0,0,1-2.564,3.31,21.87,21.87,0,0,1-2.015,2.637l0,0a2.621,2.621,0,0,1-.656.972l-.216.258a6.229,6.229,0,0,1-1.263,1.871c-.029.06-.062.119-.092.179q-.65.808-1.3,1.613l-.192.235a4.806,4.806,0,0,1-1.107,1.459q-.756,1.028-1.511,2.055a2.81,2.81,0,0,1-.935,1.2l-.225.41a1.323,1.323,0,0,1-.656,1.007c-.148.214-.3.423-.443.633a1.181,1.181,0,0,1-.448.8l-.006.012c-.437.683-.872,1.37-1.309,2.055M94.527,51.7c-.14.029-.291.031-.433.062-3.441.695-6.919.289-10.374.227-8.478-.148-16.952-.427-25.416-.937-.93-.056-.91-.252-.57-.92a6.023,6.023,0,0,0,.945-2.9c-.013-.425-.131-.872-.625-.962-.568-.106-.547.429-.714.743-.589,1.1-1.186,2.192-1.767,3.293a.988.988,0,0,1-1.012.627c-5.1-.217-10.2.05-15.308.071a53.241,53.241,0,0,1-6.78.333c-6.3.054-12.61.192-18.913-.033-.131-.006-.262-.038-.585-.09a2.353,2.353,0,0,1,1.313-.46c5.9-1.663,11.507-4.051,17.264-6.066,1.778-.622,3.47-1.463,5.183-2.24a1.883,1.883,0,0,1,2.1.2c1.187.856,2.444,1.628,3.662,2.446.552.371,1.126.637,1.632.015.472-.577.073-1.039-.425-1.386-1.172-.812-2.369-1.592-3.559-2.386,1.5-.958,1.857-.978,3.285-.148.9.525,1.784,1.074,2.679,1.607a.882.882,0,0,0,1.261-.129.733.733,0,0,0-.16-1.168,14.7,14.7,0,0,0-1.314-.918c-.447-.277-.924-.516-1.6-.889.964-.373,1.7-.727,2.485-.951,6.037-1.709,11.892-3.9,17.81-5.92a1.308,1.308,0,0,1,1.284.131c1.971,1.22,3.738,2.731,6.159,3.547-.831.585-1.459,1.043-2.106,1.472-.273.181-.62.325-.456.7.194.443.6.283.951.2a12.818,12.818,0,0,0,2.9-.931c.658-.335.676-.31,1.459.281-.77.493-1.515.983-2.275,1.451-.333.2-.618.427-.408.822s.635.335.966.217A24.6,24.6,0,0,0,75.9,39.619a1.372,1.372,0,0,1,1.85.3c-.826.479-1.636.962-2.463,1.424-.273.152-.514.3-.416.627.117.4.472.377.8.314a10.19,10.19,0,0,0,2.991-1,1.056,1.056,0,0,1,1.2.025c2.679,1.605,5.372,3.193,8.091,4.74,1.855,1.055,3.249,2.664,5.179,3.616a6.586,6.586,0,0,1,1.721,1.091c.583.552.366.808-.331.939m23.186-39.673a88.88,88.88,0,0,0-6.447,10.327,48.788,48.788,0,0,1-3.006,4.392,71.108,71.108,0,0,0-5.052,9.862,20.43,20.43,0,0,1-1.53,2.483,12.962,12.962,0,0,0-1.663,3.439c-.508,1.944-2.215,3.283-2.952,5.112-.217.539-.383,1.291-.826,1.509-.568.285-.947-.556-1.5-.791a24.5,24.5,0,0,1-4.071-2.769c-2.685-1.848-5.564-3.43-8.426-5.031a1.863,1.863,0,0,1-.856-.61c1.288-.4,2.367-1.182,3.691-1.476.652-.4.51.175.6.433.15.418-.137.991.512,1.23A5.815,5.815,0,0,0,87.3,37.6c.108-1.055-.366-1.465-1.468-1.236a27.156,27.156,0,0,0-5.348,2.111,1.07,1.07,0,0,1-1.542-.327,18.562,18.562,0,0,1,4.64-2.025c.595-.177,1.187-.346,1.757-.575.5-.2.9-.506.722-1.085-.187-.608-.679-.743-1.3-.629-.319.06-.647.094-.97.139-2.082,1.085-4.38,1.767-6.411,2.956a.6.6,0,0,1-.868-.144c-.2-.364.268-.421.479-.512a45.546,45.546,0,0,1,6.318-2.531c.481-.146.968-.279,1.445-.439.587-.2,1.128-.495.872-1.187s-.893-.745-1.549-.516c-1.715.595-3.458,1.13-5.106,1.89-1.313.606-2.637,1.191-3.959,1.782a1.2,1.2,0,0,1-1.049.14,27.294,27.294,0,0,1-6.213-3.649c3.129-1.084,6.066-2.308,8.953-3.63,4.913-2.252,10.206-3.607,15.239-5.566a1.086,1.086,0,0,1,1.107.16c1.334.845,2.725,1.607,3.967,2.579.574.45,1.268.745,1.811.027.525-.693-.058-1.091-.647-1.467-1.174-.743-2.319-1.524-3.516-2.317.878-.766,1.6-.993,2.564-.114,1.01.928,2.331,1.524,3.316,2.517a1,1,0,0,0,1.611-.089c.387-.585.189-1.159-.472-1.58-1.139-.733-2.25-1.5-3.564-2.386,1.671-.641,3.156-1.236,4.659-1.78A89.9,89.9,0,0,0,113.4,13.41c1.311-.676,2.692-1.234,4.044-1.842.142-.223.493-.373.6-.239.237.3-.094.508-.329.695m-74.3-1.39c3.16-.395,6.343-.67,9.523-.9,5.649-.416,11.307-.023,16.961-.081.535-.008,1.338-.254,1.553.137.262.479-.241,1.066-.606,1.53-.4.506-.552,1.082.092,1.415a1.229,1.229,0,0,0,1.792-.416,15.917,15.917,0,0,0,.708-2.036c.16-.477.448-.66,1.035-.689,7.771-.368,15.537-.785,23.309-1.164,4.55-.225,9.1-.077,13.647.129a62.711,62.711,0,0,1,7,.552c-2.215,1.028-4.351,1.925-6.39,2.989-4.748,2.477-9.842,4.226-14.794,6.276a1.43,1.43,0,0,1-1.611-.192,6.812,6.812,0,0,0-2.567-1.128c-.4-.112-.762-.121-.935.26-.158.346.144.525.431.724.641.443,1.239.935,1.938,1.472-2.181.935-1.49,1-3.249-.352a15.594,15.594,0,0,0-1.977-1.286c-.269-.148-.547-.243-.8,0a.569.569,0,0,0-.046.831,6.839,6.839,0,0,0,1.73,1.84c.556.385.6.583-.131.833-3.3,1.118-6.584,2.3-9.885,3.422-2.692.918-5.177,2.252-7.8,3.312-1.984.8-3.961,1.609-6.02,2.236a1.288,1.288,0,0,1-1.236-.112c-2.852-2.044-6.138-3.464-9.047-5.427-1.522-1.026-1.49-1.047.185-1.78,1.628-.712,3.276-1.37,4.967-1.934.51-.173,1.028-.391.762-1.012-.244-.574-.772-.506-1.309-.346A36.443,36.443,0,0,0,54.7,22.141c-1.507.754-1.842.693-3.112-.575a14.794,14.794,0,0,1,3.9-1.28,7.564,7.564,0,0,0,1.861-.61c.46-.246.754-.606.512-1.1a.925.925,0,0,0-1.234-.373c-1.965.662-3.92,1.345-5.878,2.021-.169.06-.327.154-.5.223a.594.594,0,0,1-.745-.283c-.191-.3.181-.4.383-.489q1.842-.794,3.7-1.545c.37-.148.768-.233,1.139-.377.5-.191.8-.525.579-1.045-.217-.491-.67-.464-1.122-.318a33.805,33.805,0,0,0-5.616,2.329,1.268,1.268,0,0,1-1.561-.139,93.347,93.347,0,0,1-7.825-5.8c-.572-.51-1.461-.641-1.927-1.438,2.111-.2,4.13-.462,6.147-.712M10.594,49.769c2.82-4.8,6.376-9.148,9.665-13.661,2.81-3.855,5.743-7.631,8.568-11.478,2.256-3.075,3.934-6.463,5.882-9.7,1.365-2.267,1.359-2.356,3.449-.606a64.2,64.2,0,0,0,6.988,5.127c.8.5.658.831-.1,1.17-.691.306-1.372.633-2.071.931-.318.135-.654.275-.581.643.081.418.481.479.868.435a11.908,11.908,0,0,0,3.16-1.139c.235-.1.447-.237.677-.343.3-.14.483.05.662.219.294.279.006.423-.179.564-.421.329-.862.635-1.286.96a.554.554,0,0,0-.146.824c.216.293.523.16.787.025.514-.26,1.012-.552,1.536-.793.314-.144.612-.5.993-.316.545.268,1.28.514,1.432,1.032.117.4-.687.462-1.055.716-.41.287-.866.512-1.3.776-.293.179-.541.418-.319.758.2.316.508.31.862.16.931-.4,1.888-.754,2.82-1.161a1.047,1.047,0,0,1,1.288.09,30.473,30.473,0,0,0,6.228,3.992c1.27.66,2.448,1.472,3.632,2.194-.031.437-.371.389-.575.466-6.455,2.433-13.1,4.382-19.633,6.609a1.353,1.353,0,0,1-1.224-.175,41.346,41.346,0,0,1-3.84-2.562c-.242-.173-.429-.42-.747-.256-.356.185-.291.525-.21.826a4.836,4.836,0,0,0,2.044,2.325c.327.262.7.472,1.078.718-1.376.98-1.553.966-2.835.013a4.5,4.5,0,0,0-2.777-1.326c-.412,0-.853.008-.97.479-.112.443.306.535.612.72.762.462,1.861.928,1.89,1.686.023.56-1.253.743-1.978,1.039a208.364,208.364,0,0,1-21.417,7.685,13.649,13.649,0,0,0-1.692.733c-.1.252-.473.385-.543.273-.179-.285.054-.525.356-.67" transform="translate(6.05 3.184)" fill="#0095da"/>
      <path id="Path_65991" data-name="Path 65991" d="M54.7,31.094v-.006a.609.609,0,0,1,.052.09,2.029,2.029,0,0,1,.2,1.141,10.206,10.206,0,0,1,.664,3.482h0a3.817,3.817,0,0,1,.217,1.634c.291.391.123.866.289,1.28.189.475.464.893,1.089.812a.84.84,0,0,0,.778-1.043c-.019-.2-.027-.41-.056-.612-.237-1.7-.237-1.705,1.576-1.807a8.947,8.947,0,0,1,1.759.015c1.351.2,1.855,1.245,1.137,2.336a6.531,6.531,0,0,1-3.047,2.419c-.558.233-1.139.579-1.459-.333-.112-.321-.525-.329-.841-.1a1.8,1.8,0,0,0-.547,2.342,4.479,4.479,0,0,0,2.56.158c.164-.194.391-.152.608-.14q1.365-.713,2.727-1.428c.179-.1.1-.391.371-.418q.471-.511.945-1.022c.129-.206.26-.408.389-.61a3.569,3.569,0,0,0,.192-3.441c-.05-.062-.1-.125-.148-.189a6.251,6.251,0,0,0-1.771-1.234c-.631-.1-1.264-.2-1.934-.3,1.226-1.534,3.333-2.542,3.031-4.84-.312-.269-.625-.537-.941-.808-.641-.183-1.284-.362-1.928-.543a15.047,15.047,0,0,0-2.839-.071,1,1,0,0,1-.818.194c-.46.194-.924.393-1.386.589l0,0c-.843.649-1.5,1.353-.862,2.452m1.565-.856a6.594,6.594,0,0,1,4.8-.335c.323.1.331.169.346.4a4.008,4.008,0,0,1-.252.383,14.735,14.735,0,0,1-3.249,2.883c-.458.308-.633.281-.783-.285a7.407,7.407,0,0,0-.945-2.694c-.137-.181-.146-.252.079-.35" transform="translate(50.337 25.722)" fill="#0095da"/>
      <path id="Path_65992" data-name="Path 65992" d="M3.6,34.12h0a.818.818,0,0,1,.283-.094,7.067,7.067,0,0,1,2.885.1c.57.071.348.916.395,1.436.046.285-.108.61.185.855A2.959,2.959,0,0,1,8.025,37.6a1.435,1.435,0,0,0,1.526.614c.112-.142.223-.285.335-.425.248-.491-.139-.924-.142-1.388a2.912,2.912,0,0,1-.668-1.307c-.121-.618-.013-1.022.664-1.2a1.233,1.233,0,0,0,0-1.174C9.3,32.3,8.3,32.4,8.416,31.476a6.122,6.122,0,0,1-.647-2.057q-.436-1.025-.876-2.052l-.751-.595c-.493.081-1.072-.125-1.434.379C3.7,28.878,2.92,30.7,2.086,32.5a4.22,4.22,0,0,1-.695,1.6c-.337.358.069.93-.41,1.249a5.5,5.5,0,0,1-.639,1.672,1.048,1.048,0,0,1-.242.808c0,.4-.21.8-.019,1.2a1.272,1.272,0,0,0,1.084-.2l.856-1.126v0c0-.2-.067-.41.187-.531a7.282,7.282,0,0,1,.9-1.851,2.391,2.391,0,0,1,.493-1.2m1.848-4.654a1.377,1.377,0,0,1,.589.931c.772,2.077.766,2.08-1.813,1.967.408-.962.8-1.884,1.224-2.9" transform="translate(0 24.753)" fill="#0095da"/>
      <path id="Path_65993" data-name="Path 65993" d="M79.867,11.268c.008-.254.015-.51.021-.766-.208-.05-.221-.2-.2-.356a2.289,2.289,0,0,0-1.068-.262A3.8,3.8,0,0,1,75.76,11.35l0-.006c-1.54.425-2.373.208-3.143-.818a4.52,4.52,0,0,1,.242-6.2l0-.006v0a3.66,3.66,0,0,1,4.627.013l.008.006a.972.972,0,0,0,.881-.217c-.019-.329-.038-.656-.056-.985a4.6,4.6,0,0,0-1.255-1.066l-.006,0a7.9,7.9,0,0,0-4.19-.013l-.056.064-.085-.019q-.927.687-1.851,1.376c-.4.258-.312.768-.649,1.059a12.431,12.431,0,0,0-.643,3.9l.031.046-.04.042a.13.13,0,0,1,.033.081.744.744,0,0,1,.037.312c.044.248.087.5.129.743l.062.046-.027.065q.759,1.175,1.52,2.35.107.1.219.191a5.892,5.892,0,0,0,3.967,1.034l.05-.048.065.029a7.052,7.052,0,0,0,4.228-2.063" transform="translate(64.336 1.646)" fill="#0095da"/>
      <path id="Path_65994" data-name="Path 65994" d="M17.775,3.822c.477.114.5-.293.652-.537A4.279,4.279,0,0,1,20.006,1.68a2.135,2.135,0,0,1,1.846-.2,2.67,2.67,0,0,1,2.65,2.5,7.484,7.484,0,0,1-2.175,6.143c-.3-.256-.235-.608-.279-.914a45.6,45.6,0,0,1-.181-5.1,3.414,3.414,0,0,0-.535-2.344,1.064,1.064,0,0,0-1.06.352,31.654,31.654,0,0,0-.114,7.052,2.15,2.15,0,0,1-.853,2.206.842.842,0,0,0-.318,1.186c.62,1,1.786.148,2.6.631.306.181.753-.089.853-.456a2.115,2.115,0,0,1,.872-1.018,7.359,7.359,0,0,0,1.9-2.356,11.722,11.722,0,0,0,.916-5c.106-2.831-2.662-4.7-5.649-4.315a3.553,3.553,0,0,0-3.089,2.931c-.012.325-.112.722.387.841" transform="translate(16.063 0)" fill="#0095da"/>
    </g>
  </g>
</svg>
