<svg xmlns="http://www.w3.org/2000/svg" xmlns:xlink="http://www.w3.org/1999/xlink" width="129" height="91" viewBox="0 0 129 91">
  <defs>
    <clipPath id="clip-path">
      <rect id="Rectangle_14380" data-name="Rectangle 14380" width="129" height="91" transform="translate(10406 -1159)" fill="#fff" opacity="0.32"/>
    </clipPath>
    <clipPath id="clip-path-2">
      <rect id="Rectangle_10185" data-name="Rectangle 10185" width="67.691" height="131.905" transform="translate(0 63.609) rotate(-70)" fill="none"/>
    </clipPath>
    <clipPath id="clip-path-3">
      <rect id="Rectangle_10186" data-name="Rectangle 10186" width="147.102" height="108.723" fill="none"/>
    </clipPath>
  </defs>
  <g id="Group_158659" data-name="Group 158659" transform="translate(-10406 1159)">
    <g id="Mask_Group_332" data-name="Mask Group 332" clip-path="url(#clip-path)">
      <g id="Group_158658" data-name="Group 158658" transform="translate(9490 -2836)">
        <g id="Group_158567" data-name="Group 158567" transform="translate(915.898 1658.906)">
          <g id="Group_158472" data-name="Group 158472" transform="translate(0 0)">
            <g id="Group_158471" data-name="Group 158471" transform="translate(0 0)" clip-path="url(#clip-path-2)">
              <path id="Path_66432" data-name="Path 66432" d="M125.56,163.24c-.556-.238-1.1-.5-1.671-.712-6.053-2.273-12.1-4.578-18.172-6.787-2.618-.953-5.344-1.6-7.958-2.565-2.76-1.012-5.437-2.252-8.168-3.346-2.906-1.163-5.813-2.325-8.756-3.386-3.635-1.313-7.3-2.532-10.962-3.773-1.835-.623-3.671-1.245-5.529-1.785a16.322,16.322,0,0,0-2.44-.329c.024-.891-.554-.913-1.2-1.11-1.873-.578-3.7-1.325-5.534-2.021-.386-.14-.734-.379-1.119-.512-2.507-.867-5.047-1.645-7.525-2.6-1.975-.754-3.866-1.732-5.815-2.563a20.463,20.463,0,0,0-4.413-1.686c-3.541-.6-6.6-2.426-9.918-3.578-3.653-1.267-7.189-2.91-10.9-3.935-1.583-.434-3.012-1.176-4.576-1.586-1.126-.3-2.236-.656-3.339-1.031-1.343-.46-2.667-.971-3.875-1.411-.32-2.176.639-3.741,1.378-5.349a45.794,45.794,0,0,1,4.427-8.522A55.068,55.068,0,0,1,14.1,98.441c3.169-3.2,6.166-6.572,9.249-9.859a3.8,3.8,0,0,1,2.036-1.25,4.182,4.182,0,0,0,2-1.582A8.114,8.114,0,0,1,30.1,83.879c2.75-1.559,5.6-2.938,8.4-4.41a2.246,2.246,0,0,0,.554-.667c.473,0,1.053.184,1.449-.016a35.875,35.875,0,0,1,7.839-2.337c3.139-.787,6.254-1.675,9.4-2.44.748-.184,1.653.175,2.346-.089a14.612,14.612,0,0,1,5.431-.6,43.57,43.57,0,0,1,5.248.6c1.224.153,2.455.287,3.665.481a32.661,32.661,0,0,1,3.243.631c2.866.753,5.742,1.486,8.568,2.375a40.175,40.175,0,0,1,5.128,2.09,71.333,71.333,0,0,1,8.1,4.14,90.189,90.189,0,0,1,7.673,5.96q2.643,2.14,5.167,4.43a21.7,21.7,0,0,1,1.86,2.152c1.685,1.981,3.451,3.9,5.016,5.974a22.663,22.663,0,0,1,1.8,3.575c1.683,3.361,3.405,6.706,5.047,10.085a21.638,21.638,0,0,1,.706,2.475c.89,2.614,1.837,5.208,2.708,7.83a10.766,10.766,0,0,1,.394,2.254c.3,2.893.564,5.79.854,8.683a5.825,5.825,0,0,0,.206.63,2.51,2.51,0,0,1,.129.852c-.213,1.487-.549,2.953-.662,4.435-.093,1.239.156,2.5.094,3.731-.065,1.273-.314,2.538-.5,3.8-.392,2.613-.676,5.252-1.244,7.825a19.5,19.5,0,0,1-1.751,4.31c-.214.428-.876.633-1.336.936-.023-.116-.045-.232-.069-.347m-9.539-62.681a44.92,44.92,0,0,0-6.708-7.834c-.941.67-1.757,1.272-2.6,1.834-.137.092-.381,0-.576,0a2.325,2.325,0,0,1,.053-.615c.049-.136.223-.222.335-.339,1.434-1.533,1.42-2.013-.157-3.288-.363-.3-.792-.507-1.183-.773a2.891,2.891,0,0,1-.479-.419,6.438,6.438,0,0,0-1.05-1.132c-1.434-.913-2.919-1.746-4.419-2.631-.2.239-.381.454-.555.68-.488.634-.495,1.879-1.94,1.13-.655-.337-.558-.487-.32-.906.389-.678.794-1.346,1.309-2.207L88.659,79.6c-.627.868-1.128,1.606-1.68,2.3a1.379,1.379,0,0,1-.807.508c-.147.013-.418-.414-.475-.679a3.211,3.211,0,0,1,.005-1.187,14.676,14.676,0,0,1,.367-1.431c-2.751-2.052-5.97-2.1-9.019-2.731a13.881,13.881,0,0,1-.665,1.749.916.916,0,0,1-.745.4c-.169-.023-.389-.444-.4-.7a8.758,8.758,0,0,1,.2-1.491,26.875,26.875,0,0,0-9.047-.931c.037.679.048,1.221.086,1.765.032.516.147,1.16-.533,1.208-.22.017-.579-.671-.7-1.09-.23-.795-.333-1.624-.492-2.454-2.607.28-5.2.559-7.891.851.012.693.044,1.488.022,2.283a.813.813,0,0,1-.322.493.418.418,0,0,1-.377-.137c-.32-.685-.593-1.385-.924-2.178l-7.2,1.613a9.211,9.211,0,0,1,.285,1.345c.025.5.093,1.045-.7,1.109-.744.06-.94-.284-.951-.943a15,15,0,0,0-.186-1.489c-2.934,1.083-5.738,2.115-8.558,3.154.224.709.4,1.176.517,1.657a8.5,8.5,0,0,1,.135.992,3.444,3.444,0,0,1-1.2-.435,5.2,5.2,0,0,1-.762-1.317l-7.455,4.462c.147.229.313.491.483.752a3.164,3.164,0,0,1,.542.878,2.615,2.615,0,0,1-.159.953c-.3-.127-.706-.169-.886-.4-1.016-1.273-1.529-1.268-2.755-.1-1.083,1.043-2.23,2.032-3.378,2.992-.784.657-1.628,1.243-2.442,1.86,1.493,2.032,1.508,2.152.378,2.748l-.82-1.294a42.433,42.433,0,0,0-3.283,2.835c-1.337,1.4-2.528,2.955-3.789,4.44-.333.4-.247.678.172.927a9.571,9.571,0,0,1,1.1.742,2.447,2.447,0,0,1,.4.573c-.176.092-.366.17-.536.273-.759.463-1.278.128-1.743-.481a4.347,4.347,0,0,0-.584-.522,4.16,4.16,0,0,1-.532,1.177,14.307,14.307,0,0,0-2.653,5.206,7.408,7.408,0,0,1-.77,1.446c-.311.483-.686.925-1.035,1.388.406.419.7.7.964,1,.175.2.32.426.478.639a4.24,4.24,0,0,1-1.011.229,4.294,4.294,0,0,1-.989-.237l-1.287,3.536L9.89,119.62c.835.3,1.67.608,2.514.884,2.769.9,5.554,1.737,8.306,2.673,1.6.547,3.134,1.283,4.726,1.862a90.1,90.1,0,0,0,9.69,3.558,21.2,21.2,0,0,1,3.044,1.1c3.358,1.386,6.679,2.873,10.066,4.187,4.537,1.756,9.127,3.378,13.682,5.091a1.051,1.051,0,0,0,1.351-.32,15.922,15.922,0,0,0,1.382-2.28,22.286,22.286,0,0,0,.836-2.243c1.117.5,1.327,1.272.581,2.363a3.519,3.519,0,0,0-.475,2.65c.048.366.085.729.115,1.008.937.341,1.824.674,2.72.99q8.482,2.975,16.961,5.953c.9.315,1.792.643,2.662,1.024,2.247.983,4.438,2.107,6.728,2.972,2.809,1.061,5.7,1.931,8.549,2.853,1.774.573,3.595,1.024,5.343,1.673,2.347.866,4.621,1.929,6.967,2.8,3.232,1.2,6.5,2.3,9.766,3.4a.964.964,0,0,0,.876-.337c.393-.838.666-1.733.993-2.632-.7-.255-1.413-.555-1.059-1.338.152-.333.88-.4,1.407-.626.243-1.4.522-3.015.768-4.454-.516-.145-.438-2.161.276-2.283a2.293,2.293,0,0,0-.545-.331c-.615-.15-1.347.009-1.7-.763a2.749,2.749,0,0,0-.566-.633c.306-.1.609-.205.92-.3.639-.194,1.609-.193,1.852-.616a6.165,6.165,0,0,0,.456-2.527,10.5,10.5,0,0,1,.109-2.793,5.638,5.638,0,0,0,.442-2.825,2.611,2.611,0,0,1-.787-.183,5.864,5.864,0,0,1-.795-.7,5.337,5.337,0,0,0,.685-.617,1.851,1.851,0,0,0,.5-.889,12.5,12.5,0,0,0-.21-1.513c-.117-1.632-.209-3.269-.308-4.9,0-.022.064-.058.061-.069a3.482,3.482,0,0,0-.563-1.15,3.561,3.561,0,0,0-1.193-.47V128.5c.414-.2.828-.4,1.217-.585-.456-1.6-.93-3.251-1.394-4.9-.456-1.624-.452-1.622-2.182-1.691a7.314,7.314,0,0,1-.773-.149c.5-.476.834-.786,1.165-1.1s.9-.48.612-1.174q-1.363-3.262-2.655-6.548c-.237-.6-.491-.961-1.245-.788a10.356,10.356,0,0,1-2.076.152,2.021,2.021,0,0,1-.639-.2c.092-.225.121-.563.286-.66a18.645,18.645,0,0,1,1.791-.867c.208-.1.434-.145.9-.293-.269-.409-.459-.955-.65-.948-.995,0-.68-.845-.9-1.323-.138-.288-.111-.665-.267-.935-.495-.853-1.013-1.694-1.574-2.5-.518-.746-1.1-1.444-1.662-2.169a18.718,18.718,0,0,1-1.659.935c-.374.164-.812.667-1.208-.034s-.036-1.074.507-1.392c.431-.254.874-.487,1.4-.779" transform="translate(-2.738 -55.415)" fill="#3f93d3"/>
              <path id="Path_66433" data-name="Path 66433" d="M138.791,189.4a7.6,7.6,0,0,1,.776-1.578c.8-.913,1.656-1.769,2.527-2.61,2-1.931,3.94-3.941,6.064-5.72,1.281-1.072,2.928-1.68,4.3-2.657a33.762,33.762,0,0,1,9.2-4.045,33.085,33.085,0,0,1,4.752-.972,22.915,22.915,0,0,1,7.317.005c2.113.3,4.2.817,6.3,1.223.759.147,1.5.7,2.314.081.053-.04.413.331.629.514-.053.069-.109.141-.16.21a28.668,28.668,0,0,1,4.943,1.872,48.367,48.367,0,0,1,5.395,4.119c.7.571,1.267,1.314,1.946,1.921a23.615,23.615,0,0,1,5.133,6.658c.729,1.368,1.284,2.829,1.983,4.214.458.906,1.133,1.707,1.529,2.633a21.117,21.117,0,0,1,1.209,3.711q.8,3.6,1.368,7.253a11.748,11.748,0,0,1-.141,2.582c-.115,1.594-.235,3.185-.358,4.827a19.32,19.32,0,0,1-2.979-.434c-.579-.175-.994-.843-1.567-1.1-2.278-1.01-4.568-2-6.9-2.871-.859-.323-1.9-.154-2.77-.458-1.991-.7-3.922-1.56-5.886-2.327-.7-.271-1.424-.456-2.136-.687-2.224-.716-4.47-1.368-6.663-2.174-1.923-.707-3.774-1.6-5.674-2.385-.7-.287-1.46-.434-2.157-.715-3.247-1.307-6.475-2.671-9.734-3.947-1.295-.505-2.659-.825-3.989-1.243-.9-.285-1.79-.616-2.693-.9-.3-.091-.637-.051-.927-.156-.631-.22-1.247-.481-1.85-.746a8.676,8.676,0,0,0-1.536-.72,20.213,20.213,0,0,1-5.642-1.857,18.023,18.023,0,0,0-2.61-.775,7.309,7.309,0,0,1-1.314-.762m2.941-1.047.125.272a17.055,17.055,0,0,1,2.693.807,36.861,36.861,0,0,0,7.282,2.854,7.279,7.279,0,0,1,1.415.452c1.259.585,2.454,1.329,3.749,1.811,2.755,1.027,5.576,1.871,8.33,2.9,2.128.795,4.18,1.772,6.282,2.632,1.257.513,2.526,1.008,3.821,1.415,1.741.547,3.56.869,5.256,1.526,1.856.718,3.577,1.78,5.414,2.557a40.194,40.194,0,0,0,4.8,1.647c1.777.5,3.657.685,5.392,1.29,2.011.7,3.9,1.731,5.865,2.585.767.335,1.57.582,2.342.862.017-2.039.1-3.888.03-5.727s-.24-3.695-.479-5.526a28.443,28.443,0,0,0-2.138-5.925,25.945,25.945,0,0,0-4.19-8.173c-1.146-1.356-2.133-2.859-3.344-4.147-1.1-1.169-2.514-2.036-3.6-3.21-2.683-2.9-6.3-3.864-9.831-5a25.524,25.524,0,0,0-3.954-.889c-1.522-.227-3.11-.117-4.593-.474-3.674-.88-7.159.078-10.623,1.076a30.538,30.538,0,0,0-3.852,1.9,86,86,0,0,0-9.317,5.672,4.4,4.4,0,0,0-.947.81c-1.446,1.629-2.875,3.28-4.315,4.916a2.36,2.36,0,0,1-.485.435c-.361.234-.742.441-1.111.652" transform="translate(-104.957 -129.719)" fill="#3f93d3"/>
              <path id="Path_66434" data-name="Path 66434" d="M40.344,233.73a2.056,2.056,0,0,1,.184-2.55,2.17,2.17,0,0,1,2.8-.674,1.263,1.263,0,0,1,.312,2.179,18.385,18.385,0,0,1-1.558,1.082,7.087,7.087,0,0,1,.594,1.95c.006.34-.539.749-.905,1.037a1.359,1.359,0,0,1-1.92.077l-.055-.054c-.594-.6-.293-2.109.549-3.044m1.032-.462c.651-.531,1.274-1.034,1.884-1.551.025-.022-.034-.236-.084-.247-.443-.1-.956-.362-1.321-.224-.5.192-1.172.485-1.01,1.282.039.2.243.355.527.74m-.957,2.955.306.254q.571-.581,1.149-1.163c-.3-.29-.692-.88-.883-.821-.888.291-.659,1.059-.571,1.729" transform="translate(-29.865 -174.129)" fill="#3f93d3"/>
              <path id="Path_66435" data-name="Path 66435" d="M62.37,240.106a4.027,4.027,0,0,1-.622,1.184c-.48.447-1.168,1.128-1.621,1.03a2.7,2.7,0,0,1-1.6-1.414,4.311,4.311,0,0,1,2.255-5.664l.032-.014c.736-.314,1.221.1,1.5.758a5.2,5.2,0,0,1,.05,4.124m-3.165.412c.7-.133.676-.134.633.629-.01.153.24.318.37.477a4.259,4.259,0,0,0,1.069-5.608c-2.16,1.5-2.545,2.026-2.068,4.509" transform="translate(-43.999 -177.813)" fill="#3f93d3"/>
              <path id="Path_66436" data-name="Path 66436" d="M491.664,401.132a18.925,18.925,0,0,1-1.95,1.983c-.805.622-1.468.3-1.938-.587-.33-.626-.788-1.225-.4-1.927a16.3,16.3,0,0,1,1.867-2.835,1.539,1.539,0,0,1,1.5-.266,3.9,3.9,0,0,1,1.069,1.872c.124.463-.173,1.049-.282,1.58l.137.179m-3.577-.574.255.057c.052.278.1.558.158.838.074.361.15.717.228,1.078a3.228,3.228,0,0,0,2.266-3.376,1.384,1.384,0,0,0-.64-.876c-.193-.094-.675.131-.866.355-.512.6-.939,1.276-1.4,1.922" transform="translate(-368.47 -300.535)" fill="#3f93d3"/>
              <path id="Path_66437" data-name="Path 66437" d="M321.495,118.4c.419-.824.753-1.476,1.012-2a7.156,7.156,0,0,1-.917-1.352c-.572-1.582.5-2.119,1.734-2.213a.754.754,0,0,1,.812,1.021c-.574,1.9-1.212,3.791-1.859,5.676-.06.166-.362.248-.55.369a2.292,2.292,0,0,1-.224-.556,8.949,8.949,0,0,1-.021-.946" transform="translate(-243.086 -85.325)" fill="#3f93d3"/>
              <path id="Path_66438" data-name="Path 66438" d="M330.186,121.924c.649-.883,1.152-1.66,1.746-2.351a.919.919,0,0,1,1.49.015,3.019,3.019,0,0,1,.45,3.062,3.183,3.183,0,0,1-2.629,1.792c-.268.025-.733-.428-.838-.752a8.67,8.67,0,0,1-.219-1.766m2.464-1.977c-.725,1.11-1.99,1.835-1.391,3.333.908.288,1.441-.251,1.83-.918.494-.843.093-1.577-.439-2.416" transform="translate(-249.706 -90.146)" fill="#3f93d3"/>
              <path id="Path_66439" data-name="Path 66439" d="M26.728,229.677c-1.077-.089-1.325-.424-.748-1.043a16.989,16.989,0,0,1,1.667-1.539.689.689,0,0,1,.668-.041.746.746,0,0,1,.071.676c-.787,1.72-1.588,3.434-2.445,5.121-.122.24-.543.319-.827.472A3.322,3.322,0,0,1,25.166,232a23.619,23.619,0,0,1,1.559-2.331" transform="translate(-18.961 -171.66)" fill="#3f93d3"/>
              <path id="Path_66440" data-name="Path 66440" d="M82.647,235.783c.862.3,1.4,1.021,1.2,1.595-.186.544-1.7,1.355-2.171,1.09-.977-.555-.234-1.439-.227-2.14.008-.643.613-.813,1.194-.545" transform="translate(-61.388 -178.22)" fill="#3f93d3"/>
              <path id="Path_66441" data-name="Path 66441" d="M351,117.15c-.763.37-1.309.86-1.657.74a1.528,1.528,0,0,1-.859-1.224c.121-.688.87-.656,1.411-.454a5.086,5.086,0,0,1,1.1.936" transform="translate(-263.543 -87.791)" fill="#3f93d3"/>
            </g>
          </g>
          <g id="Group_158474" data-name="Group 158474" transform="translate(0)">
            <g id="Group_158473" data-name="Group 158473" clip-path="url(#clip-path-3)">
              <path id="Path_66442" data-name="Path 66442" d="M144,247.756c-.846,5.141,1.986,9.795,1.881,14.88a.976.976,0,0,0,1.95,0c.1-4.864-2.751-9.5-1.951-14.361.2-1.228-1.676-1.756-1.88-.518" transform="translate(-108.783 -186.834)" fill="#3f93d3"/>
              <path id="Path_66443" data-name="Path 66443" d="M159.857,248.484c-.971,5.854,2.133,10.911,3.922,16.262.4,1.184,2.279.677,1.88-.518-1.636-4.895-4.811-9.862-3.922-15.226.2-1.227-1.675-1.755-1.88-.518" transform="translate(-120.754 -187.385)" fill="#3f93d3"/>
              <path id="Path_66444" data-name="Path 66444" d="M181.27,257.752c-.063,2.7,1.233,5.025,2.33,7.41a29.063,29.063,0,0,1,2.437,8.682c.111.923,1.575.934,1.462,0a30.885,30.885,0,0,0-2.038-8.042c-1.07-2.617-2.8-5.123-2.729-8.049a.732.732,0,0,0-1.462,0" transform="translate(-137.086 -194.393)" fill="#3f93d3"/>
              <path id="Path_66445" data-name="Path 66445" d="M217.846,268.023c-.341,3.219.834,6.229,2.06,9.143,1.275,3.028,2.56,6.053,3.941,9.035l1-1-.45-.307c-.78-.531-1.512.735-.738,1.263l.45.307c.663.451,1.278-.4,1-1-1.29-2.785-2.494-5.608-3.688-8.436-1.214-2.875-2.45-5.818-2.113-9,.1-.935-1.364-.928-1.462,0" transform="translate(-164.703 -202.166)" fill="#3f93d3"/>
              <path id="Path_66446" data-name="Path 66446" d="M251.752,287.343c.223,2.808,1.362,5.461,2.273,8.1l2.914,8.444.511-.9h.063c-.824-.457-1.562.806-.738,1.263a1.248,1.248,0,0,0,1.063.147.736.736,0,0,0,.511-.9l-2.761-8c-.908-2.631-2.151-5.357-2.374-8.156-.074-.932-1.537-.94-1.462,0" transform="translate(-190.388 -216.775)" fill="#3f93d3"/>
              <path id="Path_66447" data-name="Path 66447" d="M271.616,298.6c1.6,5.719,4.978,10.732,6.62,16.434a.732.732,0,0,0,1.41-.389c-1.642-5.7-5.019-10.717-6.62-16.434a.732.732,0,0,0-1.41.389" transform="translate(-205.389 -225.138)" fill="#3f93d3"/>
              <path id="Path_66448" data-name="Path 66448" d="M300.3,303.877c-.293,2.737,1.478,5.614,2.675,7.971a68.627,68.627,0,0,0,4.576,7.69c.528.772,1.8.041,1.263-.738a68.9,68.9,0,0,1-4.175-6.913q-.913-1.741-1.723-3.533a8.643,8.643,0,0,1-1.153-4.476c.1-.935-1.363-.928-1.462,0" transform="translate(-227.08 -229.282)" fill="#3f93d3"/>
              <path id="Path_66449" data-name="Path 66449" d="M330.626,318.021c1.781,2.49,2.33,5.492,3.376,8.311a33.7,33.7,0,0,0,2.018,4.239c.419.777.832,1.558,1.257,2.332.219.4.355.735.815.869a.738.738,0,0,0,.9-.511l.015-.071a.741.741,0,0,0-.511-.9l-.051-.01c-.92-.175-1.314,1.234-.389,1.41l.051.01-.511-.9-.015.071.9-.511q.469.462.173.015l-.229-.424-.571-1.06c-.377-.7-.759-1.4-1.13-2.1a26.845,26.845,0,0,1-1.822-4.341c-.8-2.482-1.477-5.02-3.014-7.169-.543-.759-1.812-.029-1.263.738" transform="translate(-249.937 -239.706)" fill="#3f93d3"/>
              <path id="Path_66450" data-name="Path 66450" d="M356.984,328.285a52.28,52.28,0,0,0,3.388,9.237c1.52,2.8,3.707,5.229,4.682,8.312.283.894,1.7.512,1.41-.389-.933-2.951-2.872-5.326-4.426-7.953-1.749-2.956-2.611-6.346-3.644-9.6-.284-.894-1.7-.512-1.41.389" transform="translate(-269.944 -247.59)" fill="#3f93d3"/>
              <path id="Path_66451" data-name="Path 66451" d="M386.127,332.738c.141,3.037,1.605,5.816,2.864,8.523q2.079,4.473,4.431,8.81c.447.828,1.711.091,1.263-.738q-2.121-3.926-4.032-7.96c-1.277-2.7-2.921-5.589-3.062-8.636-.044-.937-1.506-.943-1.462,0" transform="translate(-292.011 -251.103)" fill="#3f93d3"/>
              <path id="Path_66452" data-name="Path 66452" d="M405.075,338.078c-.211,1.333.469,2.274,1.136,3.377q1.281,2.116,2.415,4.316a72.821,72.821,0,0,1,4,9.324c.309.882,1.723.5,1.41-.389a76.342,76.342,0,0,0-3.342-8.064q-.932-1.922-1.976-3.787-.549-.981-1.128-1.945c-.389-.647-1.231-1.642-1.1-2.443.145-.921-1.264-1.317-1.41-.389" transform="translate(-306.312 -255.274)" fill="#3f93d3"/>
              <path id="Path_66453" data-name="Path 66453" d="M408.777,321.225c4.223,4.2,7.11,9.434,10.66,14.164A71.612,71.612,0,0,0,431.462,347.9c.716.584,1.743-.391,1.034-1.034l-1.692-1.535c-.7-.631-1.733.4-1.034,1.034l1.692,1.535,1.034-1.034a70.314,70.314,0,0,1-12.309-12.9c-3.4-4.64-6.27-9.686-10.377-13.769a.732.732,0,0,0-1.034,1.034" transform="translate(-308.978 -241.985)" fill="#3f93d3"/>
              <path id="Path_66454" data-name="Path 66454" d="M412.134,295.778a20.093,20.093,0,0,0,4.473,4.556c1.909,1.512,3.8,3.036,5.623,4.653a102.936,102.936,0,0,1,10.187,10.453c.609.719,1.639-.32,1.034-1.034a102.978,102.978,0,0,0-9.862-10.163c-1.72-1.541-3.5-3.016-5.313-4.444a21.277,21.277,0,0,1-4.879-4.76c-.517-.782-1.784-.05-1.263.738" transform="translate(-311.587 -222.874)" fill="#3f93d3"/>
              <path id="Path_66455" data-name="Path 66455" d="M409.988,280c8.082,4.786,15.9,10.152,25.39,11.538.921.135,1.318-1.275.389-1.41a39.327,39.327,0,0,1-13.017-4.353c-4.086-2.2-8.033-4.675-12.023-7.038a.732.732,0,0,0-.738,1.263" transform="translate(-309.791 -210.713)" fill="#3f93d3"/>
              <path id="Path_66456" data-name="Path 66456" d="M66.509,147.919q7.189,18.227,15.106,36.155c.379.859,1.64.116,1.263-.738Q75.04,165.585,67.919,147.53c-.341-.866-1.756-.488-1.41.389" transform="translate(-50.257 -111.201)" fill="#3f93d3"/>
              <path id="Path_66457" data-name="Path 66457" d="M84.121,139.883a191.888,191.888,0,0,0,14.529,36.676c.435.835,1.7.1,1.263-.738a189.985,189.985,0,0,1-14.382-36.326.732.732,0,0,0-1.41.389" transform="translate(-63.594 -105.104)" fill="#3f93d3"/>
              <path id="Path_66458" data-name="Path 66458" d="M110.221,130.239a220.95,220.95,0,0,1,8.783,24.8.732.732,0,0,0,1.41-.389,223.96,223.96,0,0,0-8.931-25.149c-.366-.864-1.626-.119-1.263.738" transform="translate(-83.306 -97.645)" fill="#3f93d3"/>
              <path id="Path_66459" data-name="Path 66459" d="M138.649,116.228q2.586,11.4,6.254,22.509c.294.89,1.706.509,1.41-.389q-3.665-11.1-6.254-22.509c-.208-.917-1.618-.529-1.41.389" transform="translate(-104.839 -87.209)" fill="#3f93d3"/>
              <path id="Path_66460" data-name="Path 66460" d="M156.945,95.411a65.87,65.87,0,0,0,4.074,22.621c.323.875,1.737.5,1.41-.389a64.663,64.663,0,0,1-4.022-22.232.732.732,0,0,0-1.462,0" transform="translate(-118.691 -71.622)" fill="#3f93d3"/>
              <path id="Path_66461" data-name="Path 66461" d="M181.357,85.1a41.881,41.881,0,0,0,5.059,21.851c.45.827,1.713.09,1.263-.738a40.4,40.4,0,0,1-4.86-21.113c.042-.941-1.421-.939-1.462,0" transform="translate(-137.122 -63.827)" fill="#3f93d3"/>
              <path id="Path_66462" data-name="Path 66462" d="M208.811,82.346c-.066,5.189-.132,10.384.176,15.567.144,2.416.372,4.826.711,7.222.1.71.025,2.09.717,2.539a.862.862,0,0,0,1.239-.32.734.734,0,0,0,0-.738l-.043-.077c-.457-.823-1.721-.086-1.263.738l.043.077v-.738l.272-.222.711.188c-.307-.311-.367-2.576-.424-3.042q-.172-1.4-.294-2.809c-.18-2.034-.291-4.073-.356-6.114-.131-4.089-.079-8.181-.027-12.271a.732.732,0,0,0-1.462,0" transform="translate(-157.874 -61.741)" fill="#3f93d3"/>
              <path id="Path_66463" data-name="Path 66463" d="M236.487,82.434a156.259,156.259,0,0,0-.717,22.46c.038.938,1.5.943,1.462,0a156.254,156.254,0,0,1,.717-22.46c.1-.935-1.366-.928-1.462,0" transform="translate(-178.208 -61.813)" fill="#3f93d3"/>
              <path id="Path_66464" data-name="Path 66464" d="M252.331,73.9a55.173,55.173,0,0,0-.956,23.7c.164.925,1.574.533,1.41-.389a53.426,53.426,0,0,1,.956-22.925.732.732,0,0,0-1.41-.389" transform="translate(-189.458 -55.499)" fill="#3f93d3"/>
              <path id="Path_66465" data-name="Path 66465" d="M274.641,81.679a73.444,73.444,0,0,0,2.038,22.686.732.732,0,0,0,1.41-.389,72.11,72.11,0,0,1-1.985-22.3c.063-.94-1.4-.936-1.462,0" transform="translate(-207.577 -61.239)" fill="#3f93d3"/>
              <path id="Path_66466" data-name="Path 66466" d="M295.3,89.826c-.179,6.836,1.594,13.468,3.4,20a.732.732,0,0,0,1.41-.389c-1.768-6.413-3.519-12.9-3.343-19.614a.732.732,0,0,0-1.462,0" transform="translate(-223.315 -67.398)" fill="#3f93d3"/>
              <path id="Path_66467" data-name="Path 66467" d="M352.21,100.559q2.679,16.783,5.6,33.527c.161.925,1.571.533,1.41-.389q-2.92-16.743-5.6-33.527c-.148-.927-1.557-.534-1.41.389" transform="translate(-266.354 -75.354)" fill="#3f93d3"/>
              <path id="Path_66468" data-name="Path 66468" d="M379.79,119.563q1,9.749,2.006,19.5c.642,6.243,1.05,12.6,2.738,18.669a.732.732,0,0,0,1.41-.389c-1.7-6.1-2.09-12.483-2.735-18.756l-1.957-19.023c-.1-.927-1.559-.937-1.462,0" transform="translate(-287.216 -89.892)" fill="#3f93d3"/>
              <path id="Path_66469" data-name="Path 66469" d="M405.682,153.218a229.721,229.721,0,0,0,3.841,34.534c.174.924,1.584.533,1.41-.389a227.074,227.074,0,0,1-3.789-34.145c-.033-.938-1.5-.943-1.462,0" transform="translate(-306.8 -115.339)" fill="#3f93d3"/>
              <path id="Path_66470" data-name="Path 66470" d="M424.8,178.981l6.634,30.086c.2.919,1.613.53,1.41-.389l-6.634-30.086c-.2-.919-1.613-.53-1.41.389" transform="translate(-321.241 -134.665)" fill="#3f93d3"/>
              <path id="Path_66471" data-name="Path 66471" d="M476.916,233.684a133.243,133.243,0,0,0,2.837,24.658c.194.92,1.6.531,1.41-.389a131.12,131.12,0,0,1-2.785-24.269.732.732,0,0,0-1.462,0" transform="translate(-360.672 -176.192)" fill="#3f93d3"/>
            </g>
          </g>
        </g>
      </g>
    </g>
  </g>
</svg>
