<svg xmlns="http://www.w3.org/2000/svg" xmlns:xlink="http://www.w3.org/1999/xlink" width="138.907" height="114.462" viewBox="0 0 138.907 114.462">
  <defs>
    <clipPath id="clip-path">
      <rect id="Rectangle_10164" data-name="Rectangle 10164" width="120.069" height="71.836" fill="#bbd56e"/>
    </clipPath>
  </defs>
  <g id="Group_158566" data-name="Group 158566" transform="matrix(0.914, -0.407, 0.407, 0.914, 0, 48.836)" opacity="0.91">
    <g id="Group_158427" data-name="Group 158427" transform="translate(0 0)" clip-path="url(#clip-path)">
      <path id="Path_65969" data-name="Path 65969" d="M68.828,55.017l1.112,0a6.369,6.369,0,0,1,2.762.223l7.261.111q1.106.149,2.215.293l1.112-.008c.373,0,.745,0,1.116,0,2.867-.293,5.678.444,8.534.349l1.857-.01c.483-.043.966-.085,1.452-.13.95-.328,2.154.314,2.959-.576.02-.058.039-.118.059-.18a1.756,1.756,0,0,0-.77-2.031l-.352-.132c-.332-.091-.758.128-1-.235-.244-.314-.123-.644-.059-.976l.006-1.936c0-.76,0-1.521,0-2.281.023-.539.043-1.08.066-1.621q-.08-5.509-.16-11.022a5.911,5.911,0,0,1-.139-2.665,3.451,3.451,0,0,1,.147-.65.162.162,0,0,1,.029-.262q0-.65,0-1.3c-.235-.526-.649-1.043-.092-1.6-.188-.425-.606-.855.377-1.024A6.458,6.458,0,0,0,99.9,26.208c.837-.576,1.124-1.235.436-2.056a2.36,2.36,0,0,0-2.549.027c-.784.681-1.276.774-1.188-.427.063-.844.082-1.689.121-2.535.008-.217.014-.434.025-.652a3.1,3.1,0,0,1,.059-.8q.126-1.706.25-3.41a35.8,35.8,0,0,1,.416-9.092c.074-.855.149-1.713.223-2.57a2.667,2.667,0,0,1,.041-.458l-.068-.114.094-.1a10.751,10.751,0,0,0-.3-2.925c-.27-.31-.545-.617-.819-.925a4.5,4.5,0,0,0-2.963.2q-1.474.7-2.944,1.41a1.822,1.822,0,0,1-1.5.574q-1.874.83-3.751,1.666c-.4.846-1.566.776-2.162,1.389.53.592.17,1.123-.289,1.511-.571.483-.86-.341-1.358-.361-.313.037-.627.072-.94.107l0-.006q-1.883.914-3.759,1.823c-.229.138-.459.279-.688.419a2.266,2.266,0,0,1-1.53.609c-.248.107-.5.215-.741.324q-.9.56-1.8,1.125-1.732.907-3.467,1.815a3.029,3.029,0,0,1-1.777.976c-.625.114-.561.793-1.077.991a5.9,5.9,0,0,1-2.269,1.175c-.479.149-.958.3-1.437.45-.872.981-2.246,1.261-3.395,1.856l-1.425.415c-.1.584-.6.78-1.165.91a.444.444,0,0,1-.324.136q-3.154,1.808-6.3,3.613-1.5.759-3,1.515c-.4.844-1.548.743-2.179,1.3a4.041,4.041,0,0,1-1.56.91L42.1,27.4a8.386,8.386,0,0,1-2.553,1.422c-.784.192-1.222,1.061-2.209.861-.074.84-1,.853-1.556,1.23a1.569,1.569,0,0,1-1.122-.019H32.821c-.6.029-1.2.054-1.794.081-.45.26-1.087.528-.758,1.08.5.832,1.528.388,2.42.59a3.027,3.027,0,0,1-1.73,1.164l-.731.388c-.348.729-1.184.9-1.867,1.232l-1.372.751A29.51,29.51,0,0,1,22.129,39.1c-.659.27-1.028.976-1.882.96-1.587.9-2.926,2.151-4.832,2.593q-1.674,1.161-3.348,2.325-1.459.988-2.916,1.984c-.272.182-.545.367-.815.551-.029.107-.055.215-.082.322.141.229.283.456.424.683l1.884.006a5.724,5.724,0,0,0,2.527-.917c7.367-4.476,15.074-8.516,22.268-13.214,1.8-1.171,3.09-.091,3.923.853,1.749,1.976,4.064,3.561,5.305,5.894,1.726,3.251,2.17,6.439-.088,9.67a2.039,2.039,0,0,1-2.293.882,130.374,130.374,0,0,0-17.935-1.654c-3.28-.114-6.544-.795-9.843-1.067-1.292-.107-2.584-.06-3.866-.2-.625.006-1.251.012-1.876.017l-1.075.372c-.432.97.559,1.162,1.143,1.577.227.047.455.093.68.138.373.089.743.171,1.116.258.676.392,1.644,0,2.222.648.747,0,1.491.006,2.238.01.555.066,1.11.126,1.665.192a2.342,2.342,0,0,1,.295.033,20.081,20.081,0,0,1,4.767.557c.6.062,1.2.12,1.8.184.231,0,.461,0,.692,0a.166.166,0,0,1,.055,0h2.24a50.98,50.98,0,0,1,8.3.871l.078,0a1.353,1.353,0,0,1,1.286-.008c.846-.326,1.435.4,2.2.407,1.476-.039,2.977-.165,4.155.869q.9.053,1.788.1a.846.846,0,0,1,.723-.349,3.328,3.328,0,0,1,2.334-.029c.342.019.684.037,1.024.058h3.34c2.867-.283,5.678.493,8.538.353l3.344,0,5.2-.006m25.224-7.632a35.459,35.459,0,0,0-.278,3.854c.057,1.3-.837,1.788-1.958,1.8-2.146.023-4.292-.206-6.442-.281-.7-.021-.506-.407-.612-.751-.6-1.951-.215-3.951-.416-5.917-.092-.884.391-.935,1.2-.9,1.288.058,2.584.019,3.878.019V45.2c.737,0,1.476.019,2.215-.006,2.562-.085,2.57-.089,2.416,2.188M75.659,12.193c6.282-2.651,11.95-6.284,18.348-8.745.094-.037.233.021.457.045a52.962,52.962,0,0,1-.358,5.756c-.751,4.872-.137,9.81-.7,14.7-.1.848-.2,1.154-1.294,1.2a34.117,34.117,0,0,1-10.5-1.449A7.811,7.811,0,0,1,77.1,20.079a14.639,14.639,0,0,1-1.951-7.106.732.732,0,0,1,.508-.78M43.5,35.147c-.278-.081-.584-.262-.512-.526a.589.589,0,0,1,.678-.415c.434.07.289.388.321.526-.047.349-.2.5-.487.415M58.557,52.073c-3.622-.114-7.24-.374-11.145-.3a10.38,10.38,0,0,0,1-9.37,15.22,15.22,0,0,0-2.306-4.017,1.394,1.394,0,0,1-.094-1.98,2.882,2.882,0,0,0-1.362-4.544,2.848,2.848,0,0,0-3.356.518c-.792.822-1.382.541-2.183-.029,10.9-6.282,22.069-12.075,33.259-18.023a13.84,13.84,0,0,0,3.295,8.617c2.39,3.113,6.2,3.66,9.89,4.414a24.341,24.341,0,0,0,7.16.394c.977-.091,1.009.275.977.888-.211,4.164.373,8.309.4,12.467.008,1-.342,1.129-1.394,1.3-2.7.436-5.438-.066-8.111.448-.543.105-.766-.151-.95-.549a1.177,1.177,0,0,0-1.478-.667c-.776.2-.711.778-.711,1.329.006,2.861-.053,5.725.02,8.584.029,1.078-.3,1.336-1.456.974a6.7,6.7,0,0,0-1.833-.147c-6.542-.1-13.084-.111-19.622-.312" transform="translate(7.86 -0.001)" fill="#bbd56e"/>
      <path id="Path_65970" data-name="Path 65970" d="M27.983,35.025c.039-.539.076-1.08.115-1.616a1.32,1.32,0,0,1-.029-.32c.348-2.217.346-2.176,2.94-2.027a62.019,62.019,0,0,0,10.756-.514q1.3,0,2.6,0l2.2-.116c.291-.19.586-.378.876-.57.137-.277.215-.6.614-.706q-.2-.455-.4-.91-.344-.334-.688-.667l0,0a7.838,7.838,0,0,0-2.975-.054c-.244.006-.493.014-.739.023a15.329,15.329,0,0,1-3.622.394,3.429,3.429,0,0,1-1.943.235,57.035,57.035,0,0,1-7.054.031c-.5-.006-.989-.019-1.482-.029-.809.242-1.456-.367-2.226-.328-.608.041-.962.473-1.435.718-.055.213-.113.423-.168.632-.162.679.168,1.393-.2,2.058-.037.613-.072,1.228-.109,1.841.068,1.288-.334,2.153-2.1,1.775-.119.066-.233.132-.352.2-.281.681.258,1.272.293,1.918a.963.963,0,0,1,.311.981c.1.749.966,1.369.483,2.217.8.293.807.76.379,1.321.448.081.285.419.362.656.475.13.952.262,1.427.4.485-.153.969-.3,1.452-.458.663-1.228.268-2.552.469-3.821.006-.758.014-1.513.02-2.273.082-.328.16-.65.242-.979" transform="translate(23.533 29.159)" fill="#bbd56e"/>
      <path id="Path_65971" data-name="Path 65971" d="M23.78,16.369c.356.128.715.26,1.071.388a6.732,6.732,0,0,0,4.419-1.08,2.38,2.38,0,0,1,2.471-.023,2.87,2.87,0,0,0,3.088.006c.1-.609.68-1.216.016-1.829l-.721-.483c-.248-.072-.5-.149-.743-.223-.125-.006-.248-.014-.373-.023-.612-.109-1.163-.223-.727-.97a16.368,16.368,0,0,0,.737-1.588c0-.109.012-.219.018-.33-.008-.646-.014-1.294-.018-1.941q-.541-1.465-1.077-2.923c-.156-.211-.311-.421-.467-.63-.4-.425-.79-.848-1.184-1.274-1.255-.555-2.5-1.14-3.913-.349L24.851,5.049c.242.524-.377,1.065.035,1.588.2.328.4.661.6.989a4.138,4.138,0,0,0,2.33,1.294c2.2-.4,2.2-.4,1.9,1.311-.02.105-.045.209-.066.314-.109,1.457-.827.822-1.5.337-.231-.043-.461-.081-.69-.122l-1.13-.235h-.373c-.733.1-1.527-.089-2.187.357q-.605,1.13-1.212,2.254c0,.223,0,.44,0,.659.16.626-.106,1.332.459,1.881q.381.344.766.694M27.915,5.417c.7.105.9.623,1.28,1.061-1.22.056-1.22.056-1.28-1.061M25.7,13.429a.953.953,0,0,1,1.366.2,1.168,1.168,0,0,1-1.337.464.378.378,0,0,1-.029-.667" transform="translate(23.629 2.888)" fill="#bbd56e"/>
      <path id="Path_65972" data-name="Path 65972" d="M11.7,30.629c-.25-.221-.5-.446-.751-.665l-.338-.322c-3.7-3.685-3.5-2-.305-5.729a5.072,5.072,0,0,1,.647-.537c.115-.122.231-.244.346-.363a2.518,2.518,0,0,1,1.116-1.2c.285-.533.565-1.065.848-1.6-.926-1.03-1.953-1.41-3.161-.337a4.374,4.374,0,0,0-1.415,1.633c-.86,1.189-1.72,2.38-2.648,3.666-.391-.423-.692-.745-.989-1.069-.4-.025-.412-.281-.43-.539q-1.3-1.124-2.592-2.254c-.471-.13-.909-.413-1.444-.215-.211.4-.989.7-.3,1.268,1.276,1.515,2.189,3.243,3.7,4.622.829.758.172,1.4-.412,1.994-.655.65-.207,1.6-.8,2.269a10.056,10.056,0,0,1-.674,2.595c0,.2,0,.4.008.6a1.632,1.632,0,0,0,1.448.353c.233-.351.467-.7.7-1.053.039-.184.076-.37.113-.553q.439-1,.88-2a3.448,3.448,0,0,1,1.1-1.8c.444.5.883.989,1.317,1.478.633,1.16,2.24,1.639,2.686,2.929.307-.012.6,0,.639.355a1.938,1.938,0,0,0,2.863.628c.444-1.1-.217-1.961-.794-2.843L11.7,30.629" transform="translate(0 20.475)" fill="#bbd56e"/>
      <path id="Path_65973" data-name="Path 65973" d="M36.5,29.465c-3.123-.787-7.771.694-8.588,3.318a.221.221,0,0,1,.088.254c.35.122.7.25,1.044.374a4.8,4.8,0,0,1,.631-.264c.319-.085.821-.33.936.019.145.444-.543.357-.813.566a1.557,1.557,0,0,0-.487,1.325c.295.343.35.844.887,1.026.616-.1,1.233-.211,1.849-.318l.579-.118c.094-.068.186-.192.278-.192.981.012,2.433-.568,2.734.531.26.962-1.069,1.383-2.109,1.616l-.668.081c-1.038.252-2.144.927-2.922-.367-.166-.118-.328-.233-.493-.349-1.847.233-2.08.6-1.9,2.958.246.677,1,.572,1.554.774.975-.01,1.955-.023,2.936-.035.981-.167,1.962-.339,2.94-.506.152-.293.491-.217.754-.293.377-.206.756-.413,1.132-.615.252-.209.5-.415.756-.619.066-.343.358-.518.665-.681.188-.423.379-.846.567-1.268,0-.436-.006-.869-.012-1.3l-.049-.332c-.1-.215-.207-.427-.309-.644l-.547-.63c-.115-.091-.231-.188-.346-.279-2.072-.59-.166-1.117.035-1.67-.012-.526-.027-1.051-.037-1.579-.244-.221-.487-.446-.731-.667-.117-.039-.235-.078-.352-.114" transform="translate(28.802 31.138)" fill="#bbd56e"/>
      <path id="Path_65974" data-name="Path 65974" d="M58.039,14.005a23.371,23.371,0,0,1-.057,4.218c-.221,1.15-1.851,1.014-2.772,1.571a11.162,11.162,0,0,1-1.63.632c-.735.353-.09.714-.01,1.074.373.221.747.44,1.122.665.618.01,1.239.023,1.857.035l1.48,0q2.23,0,4.458-.006c.8.118,1.179-.487,1.743-.77.027-.493.051-.985.076-1.478-.52-.235-1.1-.739-1.552-.667-2.027.328-1.786-.809-1.747-1.866.012-.372.039-.743.059-1.115.066-.71.129-1.427.192-2.139a3.974,3.974,0,0,1,.08-.879c.008-.714.016-1.431.027-2.145-.469-.993-1.032-1.872-2.545-1.581l-1.169.811c-.324.26-.649.524-.977.784a4.085,4.085,0,0,1-1.826,1.633c-.059.091-.125.184-.188.277-.01.324-.025.646-.039.972.031.105.059.213.086.32,1.122,1.071,2.173.5,3.333-.347" transform="translate(55.764 10.109)" fill="#bbd56e"/>
      <path id="Path_65975" data-name="Path 65975" d="M47.154,15.559c-1.568-1.1-3.512-.842-5.848.758-.35.239-.612.774-1.212.341-.977-.71-2.062-.438-3.141-.192-.149-1.086-.289-2.1-.428-3.109-.063-.462.1-1.047-.643-1.2-.817-.165-1.091.4-1.286.9a11.425,11.425,0,0,0,.025,8.679,2.66,2.66,0,0,0,3.96,1.092c1.341-.774,2.074-.718,2.742.652s2.132,1.728,3.686,1.071a6.831,6.831,0,0,0,3.358-3.307,4.115,4.115,0,0,0-1.212-5.69m-1.192,3.549A3.931,3.931,0,0,1,44.5,21.569c-.833-.367-.7-1.707-2.062-1.365-.4.1-.348-.192-.338-.382.037-.7,1.888-2.285,2.691-2.244,1.093.058,1.188.838,1.167,1.53" transform="translate(35.358 12.911)" fill="#bbd56e"/>
      <path id="Path_65976" data-name="Path 65976" d="M39.716,15.422a2.785,2.785,0,0,0,2.938-2.548,2.427,2.427,0,0,0-2.572-2.595c-1.581-.019-3.5,1.6-3.548,2.977-.029.933,1.736,2.137,3.182,2.166" transform="translate(38.272 10.941)" fill="#bbd56e"/>
      <path id="Path_65977" data-name="Path 65977" d="M25.307,23.258c-1.067-.114-1.659-.337-1.462-1.567.223-1.416-1.055-2.172-2.654-1.78a8.453,8.453,0,0,0-4.11,2.3c-.418.421-.618.848-.178,1.282s.905.118,1.3-.14a10.41,10.41,0,0,1,3.52-1.718c-.231.5-.332.729-.446.954-.358.7-1.368,1.28-.776,2.164.635.95,1.591.444,2.465.244.663-.155.934.147.776.7a2.19,2.19,0,0,1-2.856,1.069,1.424,1.424,0,0,0-1.538.1c-.485.38-.446.772-.16,1.292A2.541,2.541,0,0,0,22.832,29.2c1.714-.834,3.192-1.91,3.411-3.85,2.418,1.536,3.217,1.61,4.834.531,2.1-1.4,2.65-3.163,1.683-5.266a3.432,3.432,0,0,0-3.376-2.31c-2.111.089-3.493,1.893-4.077,4.951m4.206-2.888c1.112-.06,1.313,1.084,1.329,1.934a1.672,1.672,0,0,1-1.511,1.941c-.309.043-1.769-.7-1.738-1.422.045-1.047.514-2.378,1.921-2.453" transform="translate(17.449 19.483)" fill="#bbd56e"/>
    </g>
  </g>
</svg>
