<svg id="Group_158432" data-name="Group 158432" xmlns="http://www.w3.org/2000/svg" xmlns:xlink="http://www.w3.org/1999/xlink" width="66.157" height="73.787" viewBox="0 0 66.157 73.787">
  <defs>
    <clipPath id="clip-path">
      <rect id="Rectangle_14303" data-name="Rectangle 14303" width="66.157" height="73.787" fill="none"/>
    </clipPath>
  </defs>
  <g id="Group_158431" data-name="Group 158431" clip-path="url(#clip-path)">
    <path id="Path_63334" data-name="Path 63334" d="M23.96,8.989c7.524.369,12.756,8.623,9.213,15.5,1.351.4,2.884,2.094,4.349,1.5.481-.195.624-.8.985-1.062,1.132-.827,2.666.694,3.921.412a11.174,11.174,0,0,0,2.231-1.865c1.1-1.539-1.18-1.957-.552-3.479a16.9,16.9,0,0,1,2.156-1.937c2.1-1.246,2.3,2.107,2.924,3.362.7,1.4,1.444,1.708,2.906,1.151,3.938-1.5,4.329-8.2,10.258-8.606,3.646-.25,4.013,2,3.735,5.05-.138,1.515-.841,1.153-1.862,1.648-3.2,1.552-2.388,2.543-2.868,5.614a32.9,32.9,0,0,1-2.039,7.175c-.561,1.034-1.249.881-2.111.424a23.691,23.691,0,0,1-3.189-2.221c-.531-1.257,1.135-2.662.342-3.854-.841-1.266-2.146.174-3.111.052-1.041-.132-1.665-1.416-2.935-1.164a8.07,8.07,0,0,0-1.832,1.532,1.116,1.116,0,0,0-.158,1.178c.209.534,1.785,2.131,2.266,2.857a13.129,13.129,0,0,1,1.529,2.979,2.2,2.2,0,0,1-.578,1.311c-.771.676-1.39.145-2.24.243-1.658.191-2.2,2.257-2.348,3.651-3.281,3.273-6.43,6.9-9.875,10.013-1.648,1.489-3.531,2.695-5.19,4.168-.348.822.5,2.306.728,3.215,1.272,5.16-1.032,6.09-1.616,10.23-.131.932.227,2.382-.834,2.822-.889.369-1.6.151-2.521.989-.871.79-.723,1.913-2.341,1.912a2.453,2.453,0,0,1-2.4-2,14.979,14.979,0,0,0-1.011-4.838c-1.638-3.93-4.589-7.556-6.024-11.525-1.574-4.353-1.615-9.075-2.009-13.639-.441-.637-1.167-1.352-2-1.061-1.183.413-.752,2.365-2.931,2.493-1.288.075-4.475-1.42-4.97-2.645-.631-1.561,1.146-1.609,1.452-2.337,1-2.38-5.1-2.878-2.944-5.358.093-.107,1.145-1.02,1.222-1.043,1.159-.345,2.955,1.1,3.769-.034,1.14-1.591-2.28-3.537-2.277-5.042,0-.6,1.564-3.544,2.1-3.763,1.43-.588,2.137,1.727,3.615.1.326-.358,2.561-3.335,2.672-3.617a20.36,20.36,0,0,0,.3-2.039,11.119,11.119,0,0,1,3.173-5.455c-.811-.784-3.621-2.217-4.1-3.063-.456-.8.113-1.269.164-1.91C11.244,5.207,7.593,5,8.278,3.033A10.607,10.607,0,0,1,10.4.18C11.473-.253,14.24.249,15.52.1a8.683,8.683,0,0,1,1.568,1.21C17.738,1.885,19,3.558,19.8,3.59c1.112.044,3.415-1.965,4.527-1.922.894.035,2.559,2.537,2.52,3.278-.043.816-2.77,2.871-2.881,4.044m-2.078,2.53c-4.153.424-7.992,4.229-7.876,8.513.089,3.3,4.86,10.654,6.91,13.426.442.6,1.381,2.167,2.1,2.159.583-.007,1.428-1.492,1.8-2.012,2.182-3.074,5.214-7.6,6.424-11.125,2.116-6.154-3.144-11.594-9.352-10.961M17.013,32.1a7.613,7.613,0,0,0,7.539,12.216c5.4-1.149,7.908-7.8,4.307-12.07l-1.506,2.144a5.11,5.11,0,1,1-8.87-.111Z" transform="translate(0 0)" fill="#0aafe2"/>
    <path id="Path_63335" data-name="Path 63335" d="M79.554,58.757c6.209-.633,11.468,4.807,9.352,10.961-1.211,3.521-4.243,8.051-6.424,11.125-.369.52-1.214,2.005-1.8,2.012-.716.008-1.656-1.561-2.1-2.159-2.05-2.772-6.821-10.129-6.91-13.426-.116-4.285,3.724-8.089,7.876-8.513M77,71.239c4.73,4.65,11.916-2.511,7.186-7.259-4.709-4.727-11.97,2.556-7.186,7.259" transform="translate(-57.672 -47.237)" fill="#fbab1e"/>
    <path id="Path_63336" data-name="Path 63336" d="M80.059,164.3l1.47,2.179a5.11,5.11,0,1,0,8.87.111l1.506-2.144c3.6,4.268,1.09,10.921-4.307,12.07A7.613,7.613,0,0,1,80.059,164.3" transform="translate(-63.046 -132.203)" fill="#fbab1e"/>
    <path id="Path_63337" data-name="Path 63337" d="M92.5,86.642c-4.784-4.7,2.477-11.986,7.186-7.259,4.73,4.748-2.456,11.909-7.186,7.259m2.834-6.057c-2.353.481-2.33,4.553.271,4.925a2.536,2.536,0,1,0-.271-4.925" transform="translate(-73.164 -62.64)" fill="#0aafe2"/>
    <path id="Path_63338" data-name="Path 63338" d="M106.353,91.508a2.536,2.536,0,1,1,.271,4.925c-2.6-.372-2.624-4.444-.271-4.925" transform="translate(-84.188 -73.563)" fill="#fbab1e"/>
  </g>
</svg>
