<svg id="Group_158575" data-name="Group 158575" xmlns="http://www.w3.org/2000/svg" xmlns:xlink="http://www.w3.org/1999/xlink" width="122.056" height="87.894" viewBox="0 0 122.056 87.894">
  <defs>
    <clipPath id="clip-path">
      <rect id="Rectangle_10199" data-name="Rectangle 10199" width="122.056" height="87.894" fill="#c39a6b"/>
    </clipPath>
  </defs>
  <g id="Group_158503" data-name="Group 158503" transform="translate(0 0)">
    <g id="Group_158502" data-name="Group 158502" clip-path="url(#clip-path)">
      <path id="Path_66558" data-name="Path 66558" d="M103.654,87.037a1.042,1.042,0,0,0,.2-.849,9.422,9.422,0,0,0-5.139-5.264.947.947,0,0,0,.032-.353,12.816,12.816,0,0,1,.813-5.838,21.058,21.058,0,0,0,1.46-3.462c2.09.645,4.084.74,5.49-.6a1.344,1.344,0,0,0,.469-1.166l-.149-.519a15.62,15.62,0,0,0,4.6-.567c1.017-.286,1.421-2.161.656-2.346.005-.269-.092-.484-.372-.511a62.431,62.431,0,0,1-6.272-.97,2.222,2.222,0,0,0,.047-1.985,4.64,4.64,0,0,0-1.006-1.3c-1.512-1.72-.245-3.731,2.18-4.252,1.66-.357,4.329-.357,4.834-2.32,1.114.35,2.225.708,3.341,1.043.828.249,1.455-.911,1.413-1.573-.091-1.443.057-1.109-.8-2.151.414-.541.6-1.266.112-1.512-1.194-.6-2.41-1.179-3.622-1.758-.282-2.111-.682-3.441.626-5.366,1.2-1.763,2.923-2.709,4.6-3.843,1.095.235,2.182.486,3.276.7,1.268.246,2.358-2.3.908-2.3a.421.421,0,0,0-.127-.123,79.25,79.25,0,0,0-10.659-4.353,7.262,7.262,0,0,0,1.4-1.853c.165-.253.374-.8-.061-.931-.681-.21-1.354-.439-2.033-.653a.54.54,0,0,0,.016-.068,5.907,5.907,0,0,1,3.088-5.5,1.168,1.168,0,0,0,.425-1.017,2.533,2.533,0,0,0,.482-.373l.023.01c.985.436,2.354-1.888,1.143-2.268C96.2,14.936,78,6.851,59.292.448c-2.174-1.279-5.2.421-6.7,2.072a8.437,8.437,0,0,0-1.942,7.593c-.747-.22-1.49-.439-2.226-.662C42.753,7.722,37.043,5.482,31.28,4.066a.285.285,0,0,0-.247-.285c-3.394-.766-8.72,2.468-10.433,5.325a8.56,8.56,0,0,0,.026,7.816c-3.519.854-6.969,3.891-9.149,6.46-2.794,3.3-2.581,6.231.273,9.357.018.02.042.018.061.034l-.064.009C7.438,30.937,2.19,35.5.708,39.273c-1.369,3.49-.983,10.2,3.232,11.3a.245.245,0,0,0,.1.087c7.093,3.589,15.057,5.452,22.51,8.2C35.037,61.986,43.424,65.4,51.8,68.807c16.542,6.715,33.043,13.582,50.168,18.659.017.041.045.078.063.12.179.436.613.357,1.017.078a1.172,1.172,0,0,0,.6-.626m-5.374-12.3a19.255,19.255,0,0,0-1.107,5.493c-2.2-.884-4.594-1.517-6.713-2.3C80.58,74.267,70.448,71.5,60.586,67.752,44.1,61.482,27.611,50.85,10.01,48.219c.2-.439.174-.923-.365-.923-.055,0-.119.014-.176.017-.827-1.383-1.922-2.479-2.247-4.166a6.562,6.562,0,0,1,2.033-5.809,9.2,9.2,0,0,0,2.849-.762c17.439,8.474,36.381,14.41,54.529,21.217C75.518,61.13,84.417,64.413,93.285,67.8c1.841.7,4.557,2.368,7.194,3.289-1.089.791-1.774,2.553-2.2,3.653m5.153-11.282c-7.764-2.993-15.843-5.212-23.8-7.729-4.654-1.993-9.228-4.023-13.671-5.82C49.924,43.424,34.044,36.217,17.717,30.471a.692.692,0,0,0-.22-.464c-.769-.669-2.1-1.7-2.424-2.737a1.932,1.932,0,0,1,.359-1.841c14.08,6.9,28.975,12.427,43.406,18.555,14.186,6.021,28.635,12.21,44.027,14.254a4.683,4.683,0,0,0-.87,2.721,11.74,11.74,0,0,0,1.439,2.5M17.5,23.178a9.652,9.652,0,0,1,3.523-1.985,1,1,0,0,0,.453-.416c14.695,7.444,30.452,12.833,45.959,18.3,14.405,5.083,28.75,10.8,43.331,15.418-1.491,1.048-3.11.5-4.794,1.031a4.614,4.614,0,0,0-.578.252,480.816,480.816,0,0,1-58.555-20.4c-.013-.005-.03.023-.015.03A438.48,438.48,0,0,0,104.765,56.13a6.11,6.11,0,0,0-1.666,1.734c-30.889-5.9-58.122-22.11-87.431-32.742.164-.2.342-.4.513-.6a12.473,12.473,0,0,1,1.073-1.145,238.674,238.674,0,0,0,23.979,8.937M25.541,17.986a1.4,1.4,0,0,0,.247-.782c-.007-.1,0-.189,0-.289,13.861,6.011,28.661,10.557,42.791,15.939q11,4.189,21.955,8.5c6.483,2.538,13.558,4.823,19.593,8.484a2.341,2.341,0,0,0,.326.321C81.862,40.273,54.2,27.683,25.541,17.986m85.3,32.273c.031.02.064.038.1.058l-.152-.053.056,0m1.615-9.131c-28.516-8.5-54.937-22.879-83.536-31.03-.134-.038-.3.239-.148.292,28.04,9.6,54.866,22.594,83.236,31.187-.181.2-.347.4-.51.6a.2.2,0,0,0-.152-.195c-4.5-1.229-8.953-2.623-13.372-4.114,4.329,1.625,8.657,3.256,13,4.86.041.016.084-.016.127-.024-.127.176-.26.353-.368.525a9.077,9.077,0,0,0-.449.819c-5.379-1.777-10.732-3.652-16.071-5.58q7.919,3.1,15.673,6.5a7.934,7.934,0,0,0-.557,2.571c-12.007-5.51-24.741-9.951-36.965-14.745C57.193,26.844,41.5,20.142,25.779,15.865c.094-3.621,1.72-6.243,4.174-8.665,27.673,10.961,56,25.27,85.229,31.932a11.108,11.108,0,0,0-2.728,1.994m-3.669-8.861c-.017,0-.032.016-.049.02C90.33,26.108,72.8,18.377,54.9,11.005a1.591,1.591,0,0,0,.048-.226c.048-.427.134-.852.217-1.278q13.611,6.334,27.58,11.766c4.5,1.742,9.041,3.352,13.557,5.044q3,1.125,6,2.262c-.469-.179,7.827,3.457,6.485,3.691m-.368-2.683C90.3,23.771,72.767,16.366,55.283,8.882a25.1,25.1,0,0,1,1.726-4.848c.1-.221.241-.457.384-.7.005,0,0,.01.009.013,17.76,7.429,36.646,12.6,54.071,20.778a7.65,7.65,0,0,0-3.056,5.453m3.256-7.2C93.328,17.117,75.8,8.821,57.665,2.87a4.546,4.546,0,0,0,.49-1.139l.323-.084C76.085,8.9,94.38,14.655,111.85,22.213a.91.91,0,0,0-.177.161M54.271,3.5a5.684,5.684,0,0,1,1.864-1.15c-.391.677-.7,1.42-.974,1.972a36.358,36.358,0,0,0-1.979,5.077.837.837,0,0,0-.008-.109,5.3,5.3,0,0,1,1.095-5.791m7.418,12.9c14.306,6.735,29.492,12.108,44.435,16.942.56.225,1.117.457,1.677.687a.342.342,0,0,0,.328.135Q112.1,35.8,116,37.615C102.045,35.972,87.334,28.5,74.73,23.48c-14.645-5.837-29.106-12.105-44.136-16.9.367-.339.741-.678,1.136-1.017.005,0,.009-.013.016-.018,4.05,2.5,8.9,3.8,13.375,5.248,5.5,1.774,10.982,4.079,16.561,5.611M23.021,8.88c1.494-1.564,3.637-2.163,5.634-2.947-3.284,2.571-5.034,7.356-5.02,11.4-.141-.047-.28-.1-.421-.145-.162-2.961-2.965-5.405-.194-8.31M14.947,22.287A20.516,20.516,0,0,1,21.5,18.236a.48.48,0,0,0,.145.112C51.78,31.138,83.408,40.267,113.6,52.9a.834.834,0,0,0,.032.52c-6.742-1.209-13.758-4.719-20.09-6.892q-11.942-4.1-23.86-8.272C53.5,32.583,37.659,26.317,21.836,19.71a.459.459,0,0,0-.473.184.511.511,0,0,0-.108-.023c-2.953-.034-5.278,2.666-6.97,4.779a4.435,4.435,0,0,0-1.363,2.911c.111,1.72,1.886,3.339,3.081,4.421a.718.718,0,0,0,.92-.043c15.83,7.07,32.347,12.751,48.484,19.081,4.348,1.7,8.659,3.441,12.969,5.153A148.48,148.48,0,0,0,100.621,64.4q1.53.5,3.069.983a.605.605,0,0,0,.8.306.561.561,0,0,0,.061-.031c1.434.44,2.882.85,4.332,1.257-7.539,1.32-16.434-3.979-23.045-6.6q-11.874-4.7-23.785-9.282c-16.07-6.21-33.3-11.412-48.36-19.887a.9.9,0,0,0-.227-.68c-3.226-3.3-1.461-5.49,1.486-8.186M2.317,40.315c.962-4.316,4.29-5.373,7.864-6.178.717.05,1.433.121,2.136.218.578.078,1.153.178,1.731.261a3.025,3.025,0,0,0,1.113-.016c5.874,3.441,12.683,5.379,18.989,7.812q15.086,5.823,30.166,11.659c9.528,3.688,19.1,7.262,28.631,10.942,4.035,1.559,7.994,3.327,12.108,3.821A.839.839,0,0,0,105,69.3c.543,2.268-10.652-2.118-11.287-2.357-3.948-1.486-7.925-2.9-11.863-4.411-7.415-2.841-14.786-5.8-22.2-8.636C44,47.92,28.387,41.047,12.268,36.494a14.67,14.67,0,0,0,2.815-1.7c.032-.025.044-.127-.02-.1a29.018,29.018,0,0,1-3.017,1.34c-.616.214-1.244.386-1.872.559.05-.032.1-.074.147-.1.1-.062.169-.363-.016-.278a9.883,9.883,0,0,0-1.355.753c-.059.02-.12.033-.179.054a.306.306,0,0,0-.134.147A6.694,6.694,0,0,0,5.8,41.895c-.257,1.9.347,4.58,1.973,5.851a4.626,4.626,0,0,0-1.486,1.017c-.012-.007-.014-.018-.026-.024a7.188,7.188,0,0,1-3.944-8.423m51.911,27.23C39.267,61.46,22.853,52.84,6.733,50.12a3.834,3.834,0,0,1,.734-.741,2.876,2.876,0,0,1,1.712-.463c.013,0,.024-.008.037-.009,15.176,2.98,29.022,10.886,43.323,16.5,8.227,3.227,16.657,5.9,24.811,9.3,6.239,2.6,18.437,4.889,23.23,10.572C84.94,79.845,69.56,73.784,54.225,67.546" transform="translate(0 0)" fill="#c39a6b"/>
      <path id="Path_66559" data-name="Path 66559" d="M89.6,85.276A367.7,367.7,0,0,1,40.995,65.264c-.151-.078-.378.222-.235.307A193.355,193.355,0,0,0,89.5,85.484c.094.023.213-.168.1-.2" transform="translate(-8.876 -14.225)" fill="#c39a6b"/>
    </g>
  </g>
  <g id="Group_158505" data-name="Group 158505" transform="translate(0 0)">
    <g id="Group_158504" data-name="Group 158504" clip-path="url(#clip-path)">
      <path id="Path_66560" data-name="Path 66560" d="M10.052,55.31a72.283,72.283,0,0,0,11.671-1.8c1.468-.353.846-2.616-.623-2.262a68.324,68.324,0,0,1-11.048,1.72,1.2,1.2,0,0,0-1.173,1.173,1.183,1.183,0,0,0,1.173,1.173" transform="translate(-1.936 -11.163)" fill="#c39a6b"/>
      <path id="Path_66561" data-name="Path 66561" d="M14.344,60.727c7.172-.5,13.744-3.631,20.761-4.911,1.483-.271.855-2.532-.624-2.262-6.8,1.24-13.2,4.34-20.136,4.827-1.5.106-1.509,2.452,0,2.346" transform="translate(-2.881 -11.67)" fill="#c39a6b"/>
      <path id="Path_66562" data-name="Path 66562" d="M25.666,66.079Q34.772,64.272,43.7,61.7a1.174,1.174,0,0,0-.624-2.262q-8.919,2.572-18.032,4.38c-1.48.293-.853,2.556.624,2.262" transform="translate(-5.275 -12.946)" fill="#c39a6b"/>
      <path id="Path_66563" data-name="Path 66563" d="M38.959,67.912c3.191-.13,6.191-1.23,9.195-2.216l4.553-1.5,2.452-.8,1.05-.346.7-.23q.488-.046,0-.208c1.167.937,2.836-.713,1.659-1.659-1.341-1.078-2.952-.175-4.382.295l-5.078,1.667c-3.28,1.078-6.66,2.509-10.147,2.65-1.5.061-1.512,2.408,0,2.346" transform="translate(-8.246 -13.177)" fill="#c39a6b"/>
      <path id="Path_66564" data-name="Path 66564" d="M50.573,72.882a40.294,40.294,0,0,0,15.148-2.688,1.208,1.208,0,0,0,.82-1.443,1.183,1.183,0,0,0-1.444-.82,38.488,38.488,0,0,1-14.524,2.6,1.174,1.174,0,0,0,0,2.346" transform="translate(-10.778 -14.797)" fill="#c39a6b"/>
      <path id="Path_66565" data-name="Path 66565" d="M65.1,77.636a46.388,46.388,0,0,0,8.866-1.658l9.231-2.242c1.466-.357.845-2.62-.623-2.262l-8.89,2.159A45.053,45.053,0,0,1,65.1,75.29c-1.5.066-1.512,2.412,0,2.346" transform="translate(-13.945 -15.573)" fill="#c39a6b"/>
      <path id="Path_66566" data-name="Path 66566" d="M76.943,84.854q10.869-3.02,21.659-6.315c1.44-.439.826-2.7-.624-2.262q-10.789,3.295-21.659,6.315a1.174,1.174,0,0,0,.624,2.262" transform="translate(-16.457 -16.616)" fill="#c39a6b"/>
      <path id="Path_66567" data-name="Path 66567" d="M90.77,88.437c5.828.8,11.2-1.759,16.872-2.525a1.181,1.181,0,0,0,.82-1.443,1.205,1.205,0,0,0-1.444-.82c-5.175.7-10.32,3.249-15.624,2.525a1.217,1.217,0,0,0-1.444.82,1.18,1.18,0,0,0,.82,1.443" transform="translate(-19.601 -18.232)" fill="#c39a6b"/>
      <path id="Path_66568" data-name="Path 66568" d="M97.512,95.408a93.614,93.614,0,0,0,19.468-6.243c1.377-.612.185-2.635-1.184-2.026a90.938,90.938,0,0,1-18.908,6.007c-1.478.3-.852,2.561.624,2.262" transform="translate(-20.938 -18.972)" fill="#c39a6b"/>
      <path id="Path_66569" data-name="Path 66569" d="M38.039,23.263q9.746-1.16,19.352-3.219c1.476-.317.852-2.58-.623-2.262q-9.287,2-18.729,3.135c-1.481.176-1.5,2.524,0,2.346" transform="translate(-8.049 -3.87)" fill="#c39a6b"/>
      <path id="Path_66570" data-name="Path 66570" d="M51.351,27.473a177.829,177.829,0,0,0,19.535-2.506c1.483-.274.855-2.535-.623-2.262a172.044,172.044,0,0,1-18.912,2.422c-1.5.108-1.509,2.455,0,2.346" transform="translate(-10.949 -4.945)" fill="#c39a6b"/>
      <path id="Path_66571" data-name="Path 66571" d="M64.65,31.726c6.535-1.558,11.972-6.079,18.64-7.193,1.486-.248.856-2.509-.623-2.262-6.677,1.115-12.107,5.635-18.641,7.193-1.468.35-.846,2.613.624,2.262" transform="translate(-13.775 -4.851)" fill="#c39a6b"/>
      <path id="Path_66572" data-name="Path 66572" d="M78.086,34.489c6.914-.3,13.155-3.684,19.979-4.435,1.485-.163,1.5-2.511,0-2.346-6.817.75-13.1,4.137-19.979,4.435-1.5.065-1.512,2.412,0,2.346" transform="translate(-16.776 -6.039)" fill="#c39a6b"/>
      <path id="Path_66573" data-name="Path 66573" d="M88.393,40.656q9.174-2.985,18.487-5.509a1.174,1.174,0,0,0-.624-2.262q-9.311,2.523-18.487,5.508c-1.429.465-.817,2.732.624,2.262" transform="translate(-18.957 -7.159)" fill="#c39a6b"/>
      <path id="Path_66574" data-name="Path 66574" d="M100.533,45.542a24.219,24.219,0,0,0,8.389-1.287l8.484-2.349a1.174,1.174,0,0,0-.624-2.262l-8.169,2.262c-2.649.733-5.3,1.518-8.08,1.29-1.5-.124-1.5,2.223,0,2.346" transform="translate(-21.671 -8.632)" fill="#c39a6b"/>
      <path id="Path_66575" data-name="Path 66575" d="M113.093,52.089c3.521.142,6.743-1.472,9.9-2.813L133.059,45a1.182,1.182,0,0,0,.421-1.605,1.2,1.2,0,0,0-1.6-.421l-9.37,3.979c-2.98,1.265-6.089,2.921-9.412,2.787-1.51-.061-1.507,2.285,0,2.346" transform="translate(-24.408 -9.339)" fill="#c39a6b"/>
      <path id="Path_66576" data-name="Path 66576" d="M123.181,57.164c6.949.478,12.9-3.489,19.194-5.734,1.412-.5.8-2.771-.623-2.262-6.063,2.162-11.885,6.109-18.571,5.65-1.507-.1-1.5,2.243,0,2.346" transform="translate(-26.608 -10.703)" fill="#c39a6b"/>
    </g>
  </g>
</svg>
