<svg xmlns="http://www.w3.org/2000/svg" xmlns:xlink="http://www.w3.org/1999/xlink" width="117.517" height="131.512" viewBox="0 0 117.517 131.512">
  <defs>
    <clipPath id="clip-path">
      <rect id="Rectangle_10137" data-name="Rectangle 10137" width="102.023" height="118.466" fill="#0095da" stroke="#0095da" stroke-width="0.5"/>
    </clipPath>
  </defs>
  <g id="Group_158368" data-name="Group 158368" transform="translate(16.487) rotate(8)">
    <g id="Group_158367" data-name="Group 158367" clip-path="url(#clip-path)">
      <path id="Path_64400" data-name="Path 64400" d="M6.787,6.918a10.24,10.24,0,0,0,1.226.041c.384-.016.764-.047,1.144-.1q.607-.085,1.206-.215.346-.075.689-.163a1.588,1.588,0,0,1,.269-.071c-.059,0,.009.007.015.007a.551.551,0,0,0,.072-.006l.146-.013c1.488-.133,2.977-.256,4.471-.3.742-.021,1.484,0,2.226-.015A20.528,20.528,0,0,0,20.565,5.9c.757-.1,1.511-.218,2.268-.316q.55-.071,1.1-.134l.123-.014c-.143.019-.009,0,.024,0l.285-.026q.262-.023.525-.041c.719-.051,1.439-.085,2.158-.145s1.458-.179,2.189-.265c1.523-.178,3.055-.263,4.582-.4.769-.068,1.537-.149,2.3-.26.376-.055.757-.078,1.135-.109s.757-.06,1.135-.089q2.27-.171,4.543-.3,2.291-.134,4.584-.244t4.564-.217q2.272-.107,4.543-.222l1.154-.062c.372-.02.747-.029,1.116-.078.764-.1,1.533-.164,2.3-.2,1.534-.077,3.071-.064,4.606-.108.756-.022,1.51-.072,2.265-.109s1.493-.073,2.241-.109c1.5-.07,3.009-.134,4.514-.184s3.008-.086,4.514-.1c1.525-.012,3.05-.013,4.576-.06s3.041-.12,4.56-.209,3.032-.194,4.548-.3,3.058-.225,4.588-.333q1.117-.078,2.234-.151a.561.561,0,0,0,.522-.583A.563.563,0,0,0,99.782,0c-1.53.1-3.06.21-4.589.322S92.159.547,90.642.65,87.6.845,86.075.916s-3.051.119-4.577.136c-1.5.016-3,.013-4.5.047s-3.011.087-4.516.15S69.5,1.382,68,1.457c-.762.038-1.522.088-2.284.11s-1.535.029-2.3.041a39.012,39.012,0,0,0-4.585.272c-.375.051-.757.058-1.134.078l-1.115.06q-1.138.06-2.276.115-2.277.111-4.554.217t-4.565.227q-2.288.122-4.574.271-1.129.075-2.257.16-.567.043-1.134.089c-.379.031-.759.054-1.135.109-1.518.222-3.051.322-4.58.443-.768.061-1.535.127-2.3.217-.72.084-1.434.206-2.156.273s-1.419.107-2.129.165c-.749.061-1.495.153-2.239.254-1.491.2-2.976.5-4.481.574-.7.037-1.41.038-2.114.081-.8.049-1.6.114-2.392.185-.712.064-1.424.137-2.135.214a3.45,3.45,0,0,0-.6.1q-.27.078-.542.146-.594.15-1.2.252-.262.044-.525.08l-.132.017c-.027,0-.154.027-.1.017l-.026,0c-.21.033-.422.058-.633.08-.312.033-.68.084-1.022.115a.247.247,0,0,0,0,.495" transform="translate(-4.476 0)" fill="#0095da" stroke="#0095da" stroke-width="0.5"/>
      <path id="Path_64401" data-name="Path 64401" d="M4.038,20.125l-.171-.005a.645.645,0,0,0-.3.065,2.022,2.022,0,0,0-.5.339,2.472,2.472,0,0,0-.192.194q-.041.046-.08.093c-.029.035-.062.073-.087.11.065-.1-.042.054-.061.081-.057.078-.115.156-.169.237-.03.045-.059.091-.087.137l-.042.071c-.011.018-.068.128-.019.034A5.745,5.745,0,0,0,1.842,22.8a5.131,5.131,0,0,0-.1.545c-.026.193-.03.387-.049.58A29.938,29.938,0,0,0,1.6,27.613c.027,1.168.053,2.333.044,3.5-.017,2.41-.075,4.819-.09,7.228-.008,1.2,0,2.408.02,3.612q.019.9.054,1.806c.012.3.054.6.086.9s.059.621.078.933c.037.608.051,1.218.056,1.828,0,.579-.007,1.159.018,1.738.048,1.11.19,2.216.194,3.328s0,2.208,0,3.311c0,1.154.132,2.3.187,3.449.029.6.022,1.209.022,1.814s0,1.229,0,1.844-.012,1.228,0,1.841.088,1.211.144,1.815c.11,1.2.053,2.4.081,3.6.013.559.036,1.118.078,1.675s.112,1.109.191,1.662c.334,2.316.36,4.665.711,6.979.183,1.209.4,2.414.6,3.621a6.737,6.737,0,0,0,.37,1.535,3.075,3.075,0,0,0,.78,1.114,2.176,2.176,0,0,0,.538.356,3.148,3.148,0,0,0,.674.2.45.45,0,1,0,.2-.877,1,1,0,0,1-.182-.053c.1.042-.006,0-.031-.015l-.059-.026a2.828,2.828,0,0,1-.273-.142c-.033-.019-.087-.06.039.024l-.06-.038q-.059-.039-.116-.082a2.4,2.4,0,0,1-.214-.186c-.025-.024-.047-.065.037.039-.015-.019-.033-.035-.048-.053q-.048-.055-.093-.112a2.586,2.586,0,0,1-.168-.246c-.008-.014-.016-.03-.026-.044.081.117.029.052.011.018s-.047-.093-.069-.14q-.068-.147-.121-.3-.023-.066-.044-.133c-.009-.027-.016-.054-.024-.082s-.017-.123,0,.009c-.017-.117-.054-.234-.075-.351-.051-.294-.1-.588-.147-.882q-.149-.891-.3-1.781c-.1-.58-.2-1.158-.284-1.74-.08-.563-.142-1.129-.2-1.7-.11-1.157-.184-2.318-.3-3.475-.109-1.106-.307-2.2-.385-3.31s-.088-2.234-.09-3.352c0-.608-.009-1.21-.065-1.816-.055-.591-.128-1.18-.145-1.774s0-1.2,0-1.8V61.1c0-.593.008-1.187-.016-1.78-.024-.565-.072-1.129-.114-1.693S3,56.476,3,55.9c0-.539,0-1.079,0-1.619,0-1.076.015-2.149-.061-3.222-.039-.55-.088-1.1-.12-1.65s-.031-1.121-.034-1.682a27.515,27.515,0,0,0-.2-3.592c-.039-.288-.037-.583-.047-.873s-.02-.582-.027-.873q-.023-.879-.031-1.757c-.023-2.374.021-4.747.053-7.121.016-1.168.029-2.336.029-3.5,0-1.139-.074-2.274-.108-3.412-.018-.6-.024-1.193,0-1.788.01-.3.027-.6.052-.893.014-.171.012-.341.032-.512a4.9,4.9,0,0,1,.254-1.073c.068-.192.149-.38.231-.566a3.1,3.1,0,0,1,.261-.482c.026-.039.054-.077.083-.114,0,0,.046-.057.022-.028s.025-.029.023-.027a1.846,1.846,0,0,1,.352-.322c.059-.043-.065.038,0,0l.053-.031c.035-.02.072-.037.109-.054l-.155.026.284-.008a.3.3,0,0,0-.011-.6" transform="translate(-1.062 -13.753)" fill="#0095da" stroke="#0095da" stroke-width="0.5"/>
      <path id="Path_64402" data-name="Path 64402" d="M300.527,1.312a1.141,1.141,0,0,0,.266.3.846.846,0,0,0,.367.108L301,1.676a.82.82,0,0,0,.087.044l.029.013q-.075-.055.061.037a1.138,1.138,0,0,0,.2.056c.1.026.207.047.312.066l.125.024c.011,0,.092.024.021,0,.026.007.051.017.076.024a2.2,2.2,0,0,1,.284.092c-.012-.005-.058-.032,0,0l.074.043a1.638,1.638,0,0,1,.141.1c.021.016.084.052.005,0a.549.549,0,0,1,.081.075,1.8,1.8,0,0,0,.144.128c.068.053-.072-.065,0,0a2.55,2.55,0,0,1,.212.214l.053.063c.008.01.053.083.017.02s.008.013.015.022c.021.03.041.061.061.093a3.04,3.04,0,0,1,.15.27c.021.043.04.086.06.129.043.092-.036-.093,0,0,.012.031.025.063.037.094a5.892,5.892,0,0,1,.2.634q.04.159.075.32c.011.048.021.1.031.146l.018.088c.009.048.008.039-.006-.029.008.039.015.077.022.116.048.257.1.511.16.765a13.868,13.868,0,0,1,.293,3.491c0,.286,0,.568.019.853l.075.914q.073.888.147,1.776.162,1.934.338,3.867c0-.052,0-.1,0-.156-.01,1.076,0,2.152,0,3.228,0,.863.122,1.718.179,2.578.032.478.021.957.048,1.435s.085.978.131,1.466c.089.962.057,1.927.073,2.892a24.289,24.289,0,0,0,.171,2.683c.059.456.081.916.108,1.375s.05.942.071,1.413c.084,1.918.132,3.838.265,5.754.065.927.153,1.852.22,2.779.069.948.127,1.9.164,2.848.076,1.958.053,3.92.058,5.879s.021,3.9.013,5.849c-.007,1.877-.122,3.751-.175,5.627-.025.857-.018,1.713-.036,2.57-.007.315-.02.63-.043.944q-.009.12-.02.24a.6.6,0,0,1-.006.063s.016-.155.007-.07c-.005.046-.01.093-.015.139q-.027.24-.065.479a8.442,8.442,0,0,1-.2.941q-.065.23-.145.455c-.013.035-.027.071-.039.106.07-.195.015-.039,0,0q-.048.115-.1.229-.1.215-.218.419c-.038.065-.077.128-.117.191a1.027,1.027,0,0,1-.141.206s.09-.119.039-.053l-.03.04-.078.1c-.053.065-.109.128-.166.19a4.12,4.12,0,0,1-.352.338c-.016.013-.116.1-.057.048s-.01.007-.018.013l-.042.032c-.063.047-.127.094-.192.139a3.748,3.748,0,0,1-.44.266.533.533,0,0,0-.207.719.541.541,0,0,0,.719.207,4.871,4.871,0,0,0,1.221-.851,4.967,4.967,0,0,0,.834-1.087,7.185,7.185,0,0,0,.818-2.51,18.13,18.13,0,0,0,.162-2.656c0-1.278.052-2.556.1-3.833.051-1.227.1-2.455.11-3.683.007-1.3.006-2.6.009-3.9s.006-2.6.009-3.894.014-2.613-.034-3.919c-.046-1.245-.128-2.489-.225-3.731-.1-1.258-.2-2.514-.266-3.774s-.1-2.513-.153-3.769c-.026-.618-.055-1.237-.093-1.854-.019-.305-.036-.61-.062-.914s-.074-.586-.1-.879c-.113-1.21-.112-2.428-.112-3.642,0-.647-.061-1.288-.125-1.931-.032-.327-.062-.655-.077-.984s-.008-.636-.022-.954c-.026-.586-.092-1.169-.143-1.753s-.056-1.156-.056-1.738V16.6c0-.161,0-.322,0-.483s-.028-.3-.044-.446q-.049-.461-.1-.922-.2-1.9-.388-3.8-.049-.485-.1-.969-.024-.243-.049-.486c-.015-.156-.01-.314-.011-.471-.008-.683-.03-1.367-.093-2.048a11.368,11.368,0,0,0-.36-1.993,1.051,1.051,0,0,0-.031-.111c-.022-.053,0,.033,0,.035a.2.2,0,0,1-.009-.041q-.04-.188-.08-.377c-.024-.116-.049-.232-.076-.348-.053-.234-.113-.468-.185-.7a3.9,3.9,0,0,0-.75-1.425,2.348,2.348,0,0,0-.274-.258l-.1-.078.028.022c-.005,0-.036-.033-.041-.038-.075-.067-.153-.133-.233-.193a1.792,1.792,0,0,0-.679-.312,5.665,5.665,0,0,0-.63-.065,2,2,0,0,0-.52-.027.237.237,0,0,0-.026,0s.033,0,.016,0,.045.026.012,0-.125-.086-.173-.12c-.209-.148-.481.165-.339.363" transform="translate(-205.409 -0.622)" fill="#0095da" stroke="#0095da" stroke-width="0.5"/>
      <path id="Path_64403" data-name="Path 64403" d="M7.6,326.336a2.291,2.291,0,0,1,.155-.2q.076-.106.15-.214c.093-.136.188-.273.272-.415.165-.277.318-.56.47-.844.3-.559.589-1.123.9-1.675.037-.066.075-.132.114-.2l.013-.022.013-.021.07-.115q.129-.208.265-.411a2.453,2.453,0,0,0,.208-.487c.054-.139.112-.276.172-.413.249-.567.537-1.115.816-1.668.154-.305.306-.612.446-.924.07-.158.138-.316.2-.477a1.775,1.775,0,0,0,.172-.54l-.335.365a.991.991,0,0,1,.131-.041c-.164.019-.013.013.024.009a.66.66,0,0,0,.449-.19.287.287,0,0,0-.038-.392.639.639,0,0,0-.228-.124l-.045-.011c-.035-.007-.071-.01-.107-.014a.465.465,0,0,1-.118-.019.413.413,0,0,0-.469.148,2.415,2.415,0,0,0-.205.5c-.056.144-.115.286-.177.427-.125.287-.259.57-.4.851-.274.565-.561,1.124-.812,1.7q-.092.211-.176.425a2.455,2.455,0,0,0-.153.425s.035-.057.009-.009c-.012.023-.028.044-.042.066l-.062.1q-.066.106-.13.213c-.1.17-.2.341-.3.515-.3.551-.562,1.125-.833,1.692-.173.363-.356.72-.536,1.078-.1.2-.2.391-.313.582a.324.324,0,0,0-.04.362.27.27,0,0,0,.462-.028" transform="translate(-4.85 -216.881)" fill="#0095da" stroke="#0095da" stroke-width="0.5"/>
      <path id="Path_64404" data-name="Path 64404" d="M7.071,318.033c-.368.85-.8,1.669-1.232,2.485s-.9,1.62-1.381,2.415q-.364.606-.736,1.208c-.252.409-.514.811-.731,1.24-.421.832-.839,1.667-1.218,2.519a16.724,16.724,0,0,0-1.049,2.962.383.383,0,0,0,.318.434.392.392,0,0,0,.434-.318l.024-.09.012-.042.017-.06.022-.071c.032-.107.065-.213.1-.32q.1-.319.2-.635c.148-.428.313-.851.488-1.269.36-.861.765-1.7,1.176-2.54.1-.2.191-.418.305-.614l.353-.607q.352-.606.7-1.215c.471-.83.931-1.668,1.364-2.518a26.038,26.038,0,0,0,1.232-2.819.213.213,0,0,0-.4-.146" transform="translate(-0.49 -217.313)" fill="#0095da" stroke="#0095da" stroke-width="0.5"/>
      <path id="Path_64405" data-name="Path 64405" d="M22.587,314.655a11.6,11.6,0,0,0,1.783-.06c.565-.053,1.123-.162,1.69-.2q.211-.015.422-.021a4.026,4.026,0,0,0,.424-.006c.28-.038.562-.068.842-.1.571-.071,1.144-.125,1.718-.167,1.135-.082,2.271-.095,3.409-.11.56-.008,1.12-.009,1.681-.009.279,0,.563.017.841,0,.061,0,.128-.017.19-.026.015,0,.083-.011.006,0l.194-.026.443-.056a56.406,56.406,0,0,1,6.36-.346c1.05-.007,2.1-.026,3.153.016q.361.015.721.038l.1.007h-.015l.193.014.405.031c.512.042,1.023.09,1.535.137,1.033.1,2.067.189,3.1.226,1.079.039,2.162.016,3.241.017l6.6.007,6.709.009,5.986.009,5.944.009q2.8,0,5.6.005h1.224a.509.509,0,1,0,.066-1.017q-2.71,0-5.42,0l-5.916.009-5.766.008-6.888.009-6.568.007-3.335,0c-.518,0-1.036.006-1.554-.012l-.169-.006-.1,0h-.015l-.4-.022q-.376-.022-.751-.052c-1.019-.078-2.036-.182-3.056-.259-.533-.041-1.068-.075-1.6-.094-.51-.018-1.021-.013-1.532-.012-2.119.006-4.239.03-6.351.217q-.808.071-1.614.173l-.384.051-.266.037c-.039.005-.078.013-.116.016-.118.012.073.005-.044,0-.134-.01-.274,0-.409,0l-.447,0c-1.111,0-2.221.022-3.331.082a33.336,33.336,0,0,0-3.5.328c-.126.02-.252.044-.377.066l-.292.054a1.411,1.411,0,0,1-.178.033c.028-.01.021-.012-.021-.006l-.055,0c-.3.014-.606.049-.907.092-.585.083-1.179.21-1.736.332a10.448,10.448,0,0,1-1.493.236.168.168,0,0,0,.016.336" transform="translate(-15.324 -213.694)" fill="#0095da" stroke="#0095da" stroke-width="0.5"/>
      <path id="Path_64406" data-name="Path 64406" d="M224.44,314.88a4.27,4.27,0,0,0,.179,1.619,8.428,8.428,0,0,0,.669,1.543,16.225,16.225,0,0,0,1.365,2.028c.441.581.891,1.154,1.329,1.737.524.7,1.061,1.383,1.619,2.053.628.754,1.27,1.5,1.886,2.261l-.1-.127q.314.393.618.793a5.356,5.356,0,0,0,.37.477c.108.113.215.225.319.342l-.111-.126a8.972,8.972,0,0,1,.87,1.173c.113.183.22.37.332.554.142.233.3.458.461.682a.542.542,0,0,0,.665.226.531.531,0,0,0,.315-.628c-.071-.213-.145-.425-.225-.634l.051.149a6.244,6.244,0,0,0-.769-1.467,8.244,8.244,0,0,0-1.036-1.243l.109.126c-1.281-1.672-2.744-3.189-4.048-4.841-.271-.343-.534-.689-.813-1.025s-.54-.639-.808-.961a20.56,20.56,0,0,1-1.771-2.373,6.625,6.625,0,0,1-.583-1.168,4.546,4.546,0,0,1-.293-1.183.3.3,0,0,0-.6.011" transform="translate(-153.414 -215.069)" fill="#0095da" stroke="#0095da" stroke-width="0.5"/>
      <path id="Path_64407" data-name="Path 64407" d="M1.2,355.591a2.291,2.291,0,0,0-.535.612l.091-.095c-.129.073-.183.252-.237.384a3.422,3.422,0,0,0-.143.418,2.223,2.223,0,0,0-.094.769.9.9,0,0,0,.355.733.845.845,0,0,0,.356.043c.79.021,1.58.047,2.369.069,1.325.037,2.651.035,3.976.052,1.447.018,2.895.021,4.342.023l4.5.005,4.5.005,4.5.005,4.5.005c1.5,0,2.991.015,4.486,0,1.425-.014,2.849-.079,4.272-.16,1.355-.077,2.708-.169,4.063-.233,1.371-.065,2.74-.077,4.112-.077H73.055c.261,0,.52,0,.78.02.11.009.219.022.328.036l.048.006c.057.007-.095-.011-.081-.011a.609.609,0,0,1,.086.012l.188.029c.516.082,1.028.186,1.543.276a11,11,0,0,0,3.588.175,4.921,4.921,0,0,0,.771-.182,4.818,4.818,0,0,0,.955-.508.468.468,0,0,0,.129-.645.476.476,0,0,0-.645-.129c-.015.009-.041.037,0,0s-.023.007-.039.014l-.106.045c-.076.031-.153.061-.231.09l-.047.016.046-.016a.554.554,0,0,0-.109.032c-.071.02-.142.04-.212.063a4.855,4.855,0,0,1-.784.186.544.544,0,0,1-.087.013c.005,0,.136-.017.049-.007l-.044.005q-.1.012-.206.02-.2.016-.4.02c-.275.006-.55,0-.824-.023q-.21-.015-.42-.038l-.194-.022-.09-.011c-.02,0-.04,0-.059-.008l.053.007c-.269-.038-.538-.081-.806-.128-.5-.087-.993-.187-1.491-.267a9,9,0,0,0-1.448-.139H45.612c-1.289,0-2.577.046-3.864.115-1.315.071-2.629.16-3.944.23-1.384.074-2.769.128-4.155.13q-2.162,0-4.325,0l-4.324,0-4.324.005-4.344,0-4.325.005c-1.413,0-2.827,0-4.24.019-1.239.016-2.478.026-3.718.037-.892.008-1.786.052-2.678.076l-.588.016.258.094c-.008-.008-.016-.016-.024-.025.057.066.022.029.013.012l-.019-.031c-.1-.146-.078-.054-.023-.034a.1.1,0,0,1-.016-.032c0,.019.006.016,0,0s-.017-.055-.023-.084a1.248,1.248,0,0,1-.021-.368,2.624,2.624,0,0,1,.064-.417q.024-.1.054-.2a1.4,1.4,0,0,1,.046-.133.4.4,0,0,0,.034-.255c0,.043,0,.086,0,.128a1.894,1.894,0,0,1,.273-.591c.087-.116-.087-.29-.2-.2" transform="translate(-0.187 -243.06)" fill="#0095da" stroke="#0095da" stroke-width="0.5"/>
      <path id="Path_64408" data-name="Path 64408" d="M18.893,324.185a1.236,1.236,0,0,1-.076.309,2.331,2.331,0,0,1-.168.351,8.506,8.506,0,0,1-.546.8A17.4,17.4,0,0,0,17,327.2c-.134.23-.212.488-.333.726q-.047.091-.1.181l-.051.092-.026.046a.192.192,0,0,1-.016.028q-.12.2-.246.4c-.352.555-.732,1.094-1.062,1.663a3.955,3.955,0,0,0-.671,1.869.306.306,0,0,0,.258.331.3.3,0,0,0,.331-.258,1.96,1.96,0,0,1,.037-.365c.006-.03.012-.059.019-.089,0,0,.019-.074.007-.03s0-.01.006-.02c.019-.065.039-.129.062-.193a5.421,5.421,0,0,1,.377-.813c.311-.563.684-1.092,1.03-1.634.182-.285.358-.573.517-.872.065-.124.128-.249.183-.378s.086-.241.146-.353l.042-.077.023-.039c-.03.053-.009.016,0,0,.038-.062.076-.123.116-.184.081-.124.166-.246.251-.366q.274-.386.538-.778a6.747,6.747,0,0,0,.6-1.045,2,2,0,0,0,.2-.884.176.176,0,0,0-.183-.162.177.177,0,0,0-.163.183" transform="translate(-9.912 -221.483)" fill="#0095da" stroke="#0095da" stroke-width="0.5"/>
      <path id="Path_64409" data-name="Path 64409" d="M28.742,324.883a2.951,2.951,0,0,1,.3-.222.828.828,0,0,1,.216-.1,1.658,1.658,0,0,1,.3-.023c.152-.005.3,0,.457,0l2.208.022,2.36.022c.432,0,.863.006,1.3.008.217,0,.43,0,.646-.019l.617-.048c1.66-.125,3.323-.2,4.986-.263,1.689-.059,3.37-.087,5.056-.1,1.756-.013,3.513-.011,5.269-.01l5.181,0,5.283,0,5.346,0,5.391,0,5.4,0h1.326a.326.326,0,0,0,.028-.652q-2.735,0-5.471,0l-5.431,0-5.41,0-5.331,0-5.25,0c-1.772,0-3.544,0-5.317.012-1.744.011-3.489.034-5.232.086-1.669.05-3.337.131-5,.26q-.62.048-1.239.1c-.214.02-.427.046-.641.047l-.651,0q-1.218.007-2.436.021l-2.229.022c-.358,0-.716,0-1.074.013a1.467,1.467,0,0,0-.633.122,1.028,1.028,0,0,0-.14.085.236.236,0,0,0-.053.045c-.007.008-.053.059-.013.02l-.04.041c-.089.1-.168.2-.249.305s.072.237.175.157" transform="translate(-19.511 -221.152)" fill="#0095da" stroke="#0095da" stroke-width="0.5"/>
      <path id="Path_64410" data-name="Path 64410" d="M14.943,346.447a1.3,1.3,0,0,1,.538.19,3.978,3.978,0,0,0,.565.267,2.3,2.3,0,0,0,.693.072c.225.006.41.013.626.015.914.008,1.829.022,2.743.024.981,0,1.962-.008,2.94-.077q.782-.055,1.559-.155.369-.048.737-.108c.235-.039.477-.1.689-.116a41.591,41.591,0,0,1,5.817-.029c1.87.091,3.742.226,5.616.2.452-.007.905-.024,1.357-.055s.924-.089,1.386-.149q1.4-.18,2.8-.269c1.86-.12,3.724-.128,5.587-.128l5.984,0,5.852,0H64.58c.487,0,.976.014,1.463,0,.953-.036,1.887-.254,2.83-.38.237-.031.474-.057.712-.072s.466-.007.7-.023a8.026,8.026,0,0,0,1.325-.254c.211-.051.422-.1.636-.138s.44-.115.666-.15a.308.308,0,0,0-.019-.608,2.531,2.531,0,0,0-.748-.016c-.224.041-.444.1-.664.151a6.463,6.463,0,0,1-1.5.265,20.486,20.486,0,0,0-2.809.347,10.026,10.026,0,0,1-1.423.129c-.488,0-.976,0-1.463,0H61.528l-5.745,0-5.969,0c-1.885,0-3.771-.01-5.655.07-.931.04-1.861.1-2.788.2s-1.845.244-2.774.3a49.583,49.583,0,0,1-5.525-.07c-1.921-.1-3.846-.192-5.769-.1q-.367.018-.733.044c-.259.019-.526.029-.782.072-.489.083-.974.177-1.467.24-.908.116-1.9.177-2.843.214-.971.038-1.943.046-2.915.056l-1.308.011c-.2,0-.4.01-.607.016a1.5,1.5,0,0,1-.567-.05,3.337,3.337,0,0,0-1.1-.371.224.224,0,0,0-.234.2.22.22,0,0,0,.2.234" transform="translate(-10.078 -235.47)" fill="#0095da" stroke="#0095da" stroke-width="0.5"/>
      <path id="Path_64411" data-name="Path 64411" d="M190.353,324.25a2.922,2.922,0,0,1,.2.244,2.177,2.177,0,0,1,.15.23c.046.081.089.164.128.248.02.042.039.085.057.128.009.021.018.043.027.064l.017.043c-.009-.024-.009-.022,0,.005a9.255,9.255,0,0,1,.3,1.077,7.373,7.373,0,0,0,.363,1.271c.043.1.09.2.138.306l.04.086c-.034-.075.009.02.013.029l.077.171c.1.234.2.471.293.712.049.132.094.265.136.4.031.1-.021-.082,0,.015l.03.114q.025.1.046.2c.027.127.054.254.073.381.009.062.014.125.023.187.012.084.047.169.067.253a.358.358,0,0,0,.354.253.367.367,0,0,0,.334-.278,2.1,2.1,0,0,0,.045-.215,1.18,1.18,0,0,0-.009-.263,2.611,2.611,0,0,0-.056-.377,5.58,5.58,0,0,0-.256-.783,16.005,16.005,0,0,0-.744-1.5,5.685,5.685,0,0,1-.368-.958,11.188,11.188,0,0,0-.411-1.141,3.474,3.474,0,0,0-.8-1.155c-.154-.143-.412.1-.268.259" transform="translate(-130.094 -221.446)" fill="#0095da" stroke="#0095da" stroke-width="0.5"/>
      <path id="Path_64412" data-name="Path 64412" d="M199.473,327.3a10.269,10.269,0,0,1,.5.966q.12.263.229.53l.027.066a.17.17,0,0,1,.011.028l.067.178c.036.1.072.2.106.295.068.194.13.389.191.584.012.039.025.078.037.117.007.023.014.047.022.071-.024-.073,0,.005,0,.017q.051.176.1.353.077.3.141.595c.02.1.039.191.057.286,0,.005.014.084.005.028,0,.023.008.047.011.071.01.063.019.126.028.189.03.216.053.434.068.653,0,.053.007.107.009.16,0,.023,0,.046,0,.068-.007-.128,0-.017,0,.01a1.645,1.645,0,0,0,.021.37.4.4,0,0,0,.785-.013,2.111,2.111,0,0,0-.028-.63c-.023-.183-.054-.364-.09-.544a10.714,10.714,0,0,0-.328-1.246,12.323,12.323,0,0,0-1.045-2.32,10.844,10.844,0,0,0-.672-1.031.153.153,0,0,0-.2-.053.151.151,0,0,0-.053.2" transform="translate(-136.344 -223.588)" fill="#0095da" stroke="#0095da" stroke-width="0.5"/>
      <path id="Path_64413" data-name="Path 64413" d="M199.744,325.507c.007-.011.034-.048.026-.039s.028-.029.039-.039.06-.048.03-.026c.021-.015.042-.029.064-.042s.048-.028.072-.04l.034-.017c-.034.016,0,0,.019-.007.058-.024.116-.045.176-.064l.094-.028.069-.018c.017,0,.057-.016.017-.005q.108-.028.218-.051c.165-.034.333-.059.5-.079l.059-.007.049-.005.039,0,.08-.006.276-.02c.192-.014.385-.022.578-.025s.386,0,.579.007c.1,0,.192.009.288.015l.026,0,.084.007.155.014a6.734,6.734,0,0,1,1.019.174c.009,0,.078.022.03.008l.029.009.108.034c.065.022.129.045.192.071s.113.051.169.078-.071-.042-.018-.01l.032.019c.023.015.047.03.069.046s.038.03.057.044,0-.005,0,0,.018.019.026.029a.373.373,0,0,0,.037.049c-.007-.005-.047-.082-.025-.039a.625.625,0,0,0,.056.094c.086.113.191.213.279.326q.065.082.126.167l.029.04c.032.045-.026-.038,0,.008l.063.095a17.179,17.179,0,0,1,.938,1.73c.156.312.316.622.488.927q.132.235.273.464a1.709,1.709,0,0,0,.168.221l.053.063.035.044c.037.046-.007,0-.016-.021a1.542,1.542,0,0,0,.113.161c.042.062.082.125.122.188.083.131.16.264.236.4.084.151.165.3.245.458l.053.1c0,.007.029.065.008.016s.01.021.016.034l.121.247.112.233c.017.036.034.072.052.108a.611.611,0,0,0,.36.31.4.4,0,0,0,.517-.239,2.624,2.624,0,0,0-.011-.469c-.01-.023-.024-.046-.036-.068l-.053-.1-.215-.41c-.081-.152-.163-.3-.247-.452a7.353,7.353,0,0,0-.477-.762,4.463,4.463,0,0,0-.352-.432.3.3,0,0,0-.053-.053c-.03-.016.018.022.017.034a.349.349,0,0,0-.044-.062q-.075-.109-.149-.219c-.242-.365-.465-.742-.682-1.123a17.534,17.534,0,0,0-.932-1.536,5.761,5.761,0,0,0-.6-.732.4.4,0,0,0-.043-.043c-.039-.028,0-.013-.013,0s.021.028,0,.014a.427.427,0,0,1-.048-.077.567.567,0,0,0-.036-.051,1.01,1.01,0,0,0-.153-.148,2.117,2.117,0,0,0-.807-.351,5.873,5.873,0,0,0-.984-.162,9.345,9.345,0,0,0-2.368.059,4.579,4.579,0,0,0-1,.26,1.434,1.434,0,0,0-.626.446.629.629,0,0,0-.067.125c-.056.136.153.233.23.111" transform="translate(-136.379 -221.796)" fill="#0095da" stroke="#0095da" stroke-width="0.5"/>
      <path id="Path_64414" data-name="Path 64414" d="M206.849,345.443a25.1,25.1,0,0,0,2.922-.075c.893-.07,1.786-.138,2.677-.217.188-.017.377-.031.565-.042.08,0,.158-.019.236-.031a1.229,1.229,0,0,0,.4-.081.351.351,0,0,0,.16-.39.359.359,0,0,0-.337-.255c-.085-.012-.195-.026-.29-.036a4.7,4.7,0,0,0-.685,0c-.847.035-1.69.168-2.531.274-1.047.132-2.1.265-3.154.31a.275.275,0,0,0-.253.289.28.28,0,0,0,.29.254" transform="translate(-141.2 -235.36)" fill="#0095da" stroke="#0095da" stroke-width="0.5"/>
      <path id="Path_64415" data-name="Path 64415" d="M204.075,331.737a1.954,1.954,0,0,0,1.547.516,12.838,12.838,0,0,0,1.85-.279c.165-.032.332-.06.5-.082s.316-.049.476-.06a.176.176,0,0,0,.163-.183.179.179,0,0,0-.183-.163,4.338,4.338,0,0,0-.436,0,3.988,3.988,0,0,0-.441.055c-.3.047-.6.112-.905.178s-.579.123-.873.159a3.214,3.214,0,0,1-.782.021,1.331,1.331,0,0,1-.733-.315.123.123,0,0,0-.167-.013.12.12,0,0,0-.013.167" transform="translate(-139.483 -226.595)" fill="#0095da" stroke="#0095da" stroke-width="0.5"/>
      <path id="Path_64416" data-name="Path 64416" d="M203.953,336.544a8.772,8.772,0,0,0,1.142.037c.363-.017.725-.045,1.087-.079s.744-.072,1.115-.123c.317-.043.634-.085.953-.117.162-.016.324-.039.486-.054s.316-.053.474-.079a.272.272,0,0,0,.25-.247.265.265,0,0,0-.21-.281,2.984,2.984,0,0,0-.548-.055c-.153,0-.307.01-.46.024-.313.029-.624.068-.936.107-.689.088-1.372.216-2.062.3-.433.053-.865.12-1.3.155a.208.208,0,0,0,.009.412" transform="translate(-139.294 -229.374)" fill="#0095da" stroke="#0095da" stroke-width="0.5"/>
      <path id="Path_64417" data-name="Path 64417" d="M204.044,325.844a22.28,22.28,0,0,1,.869,2.377,20.944,20.944,0,0,0,.96,2.52c.109.229.224.455.348.676q.1.17.2.336c.033.053.066.108.1.16a.788.788,0,0,0,.054.071c.03.036.059.077.093.11a.654.654,0,0,0,.222.129.29.29,0,0,0,.4-.294.723.723,0,0,0-.075-.286c-.014-.024-.029-.048-.044-.072-.032-.052-.069-.1-.1-.148q-.093-.128-.181-.258c-.122-.181-.237-.366-.347-.554-.215-.368-.407-.749-.588-1.135-.375-.8-.7-1.632-1.057-2.442-.2-.439-.4-.877-.626-1.3a.124.124,0,0,0-.221.11" transform="translate(-139.473 -222.622)" fill="#0095da" stroke="#0095da" stroke-width="0.5"/>
      <path id="Path_64418" data-name="Path 64418" d="M209.907,328.8c-.036-.02-.01-.005,0,0l.042.025.056.034c.041.026.082.053.122.081.074.051.144.107.215.163.025.02-.031-.027-.008-.006l.025.021.048.043q.051.047.1.095c.066.065.13.133.191.2.029.033.058.066.086.1.007.008.014.018.021.026s-.04-.05-.012-.015l.056.072q.083.11.16.224c.054.079.106.16.156.242l.07.118.034.06c0-.006-.025-.046-.005-.008l.02.038c.184.341.341.695.491,1.052l.054.128.013.032c-.027-.068-.014-.034-.008-.019s.022.053.032.08c.042.1.083.208.124.312l.206.528c.074.188.148.375.226.56a5.676,5.676,0,0,0,.294.6l-.05-.088c.057.1.112.2.172.3l.056.089c.009.015.018.029.028.043a.491.491,0,0,0,.26.172.327.327,0,0,0,.421-.291.516.516,0,0,0-.091-.358l-.034-.061-.014-.025c-.03-.054.047.089.02.037-.042-.083-.084-.165-.123-.25-.08-.171-.167-.339-.248-.51-.2-.412-.381-.83-.571-1.245a7.712,7.712,0,0,0-1.44-2.243,3.727,3.727,0,0,0-.577-.478,3.486,3.486,0,0,0-.329-.191.628.628,0,0,0-.191-.081.206.206,0,0,0-.213.127.209.209,0,0,0,.114.263" transform="translate(-143.401 -224.495)" fill="#0095da" stroke="#0095da" stroke-width="0.5"/>
      <path id="Path_64419" data-name="Path 64419" d="M26.193,325.738a3.972,3.972,0,0,1-.47,1.561c-.253.52-.537,1.023-.835,1.518-.246.409-.5.835-.711,1.241-.3.56-.624,1.1-.926,1.657-.175.321-.342.647-.5.978-.076.161-.148.323-.216.487a1.523,1.523,0,0,0-.171.537.208.208,0,0,0,.226.221c.126-.016.168-.114.217-.223.072-.162.131-.329.2-.493.136-.325.289-.642.451-.955.3-.583.634-1.15.948-1.726q.105-.194.205-.391l.037-.074c.014-.028-.016.03,0,0l.013-.025q.037-.07.075-.139c.116-.211.241-.418.364-.626a8.278,8.278,0,0,0,1.369-3.169,2.778,2.778,0,0,0,.019-.377.148.148,0,0,0-.3,0" transform="translate(-15.289 -222.573)" fill="#0095da" stroke="#0095da" stroke-width="0.5"/>
      <path id="Path_64420" data-name="Path 64420" d="M36.668,328.817a5.68,5.68,0,0,1-.9,2.571,17.69,17.69,0,0,0-1.341,2.56,4.557,4.557,0,0,0-.213.724c-.025.124-.044.249-.057.375a2.139,2.139,0,0,0-.009.221.653.653,0,0,0,.071.274.19.19,0,0,0,.347.009.84.84,0,0,0,.081-.24c.008-.062.019-.123.026-.185q.018-.166.051-.329a5.4,5.4,0,0,1,.167-.641,8.758,8.758,0,0,1,.55-1.269,17.1,17.1,0,0,0,1.21-2.585,4.472,4.472,0,0,0,.219-1.486c0-.116-.2-.116-.206,0" transform="translate(-23.346 -224.714)" fill="#0095da" stroke="#0095da" stroke-width="0.5"/>
      <path id="Path_64421" data-name="Path 64421" d="M43.1,326.986a3.318,3.318,0,0,1,.06.692c0,.027,0,.055,0,.082,0,0,0,.043,0,.012s0,.016,0,.023c0,.059-.01.117-.017.175q-.021.176-.057.35a6.043,6.043,0,0,1-.456,1.321,22.7,22.7,0,0,1-1.512,2.551,9.973,9.973,0,0,0-.761,1.344.188.188,0,0,0,.344.152c.464-.818,1.051-1.616,1.578-2.417a8.693,8.693,0,0,0,1.323-2.725,3.927,3.927,0,0,0,.033-1.666.272.272,0,0,0-.529.105" transform="translate(-27.574 -223.326)" fill="#0095da" stroke="#0095da" stroke-width="0.5"/>
      <path id="Path_64422" data-name="Path 64422" d="M55.733,324.308a3.169,3.169,0,0,1-.394,1.231c-.224.45-.477.885-.728,1.32-.123.213-.247.425-.361.643a3.452,3.452,0,0,0-.156.4c-.047.124-.094.248-.143.371-.19.476-.413.938-.649,1.393-.3.571-.651,1.106-.956,1.67a.2.2,0,0,0,.095.254.208.208,0,0,0,.264-.059,10.669,10.669,0,0,0,.965-1.5,10.917,10.917,0,0,0,.67-1.49c.1-.259.184-.52.266-.783a2,2,0,0,1,.14-.3q.078-.153.159-.305c.235-.446.479-.889.674-1.355a3.667,3.667,0,0,0,.369-1.5c0-.122-.21-.117-.215,0" transform="translate(-35.772 -221.628)" fill="#0095da" stroke="#0095da" stroke-width="0.5"/>
      <path id="Path_64423" data-name="Path 64423" d="M68.529,325.738a3.743,3.743,0,0,1-.535,1.449c-.257.5-.55.973-.824,1.46a15.887,15.887,0,0,0-1.273,2.586,4.612,4.612,0,0,0-.319,2.069.256.256,0,0,0,.223.245.25.25,0,0,0,.273-.187c.05-.326.084-.655.14-.98.013-.076.027-.152.043-.228.006-.03.013-.06.02-.09l.013-.059.012-.051.005-.021c.005-.019.01-.039.015-.058s.018-.067.028-.1c.02-.071.041-.14.064-.21a9.662,9.662,0,0,1,.62-1.46c.2-.386.388-.775.583-1.162.25-.5.521-.98.755-1.484a6.155,6.155,0,0,0,.348-.939,2.5,2.5,0,0,0,.107-.778.149.149,0,0,0-.3,0" transform="translate(-44.811 -222.573)" fill="#0095da" stroke="#0095da" stroke-width="0.5"/>
      <path id="Path_64424" data-name="Path 64424" d="M82.255,322.73a2.758,2.758,0,0,1,.2,1.285,7.609,7.609,0,0,1-.265,1.557c-.143.558-.306,1.111-.482,1.659s-.382,1.1-.544,1.659c-.083.287-.163.574-.237.863-.044.173-.085.344-.115.52a2.691,2.691,0,0,0-.016.495c0,.209.306.216.379.051.028-.064.058-.128.089-.191.014-.028.029-.055.041-.084s.021-.06.031-.09c.016-.047,0,.011.006-.017.05-.142.095-.286.139-.43.081-.264.167-.526.256-.787.185-.547.352-1.1.519-1.655a11.719,11.719,0,0,0,.65-3.405,3.33,3.33,0,0,0-.345-1.582c-.091-.17-.387-.025-.307.153" transform="translate(-55.23 -220.457)" fill="#0095da" stroke="#0095da" stroke-width="0.5"/>
      <path id="Path_64425" data-name="Path 64425" d="M94.1,325.788a5.151,5.151,0,0,1-.262,1.282,13.842,13.842,0,0,1-.506,1.345c-.088.2-.193.388-.283.584a1.348,1.348,0,0,0-.046.452c-.009.136-.023.271-.04.406-.069.556-.18,1.105-.282,1.656-.056.3-.1.61-.133.916-.018.155-.032.311-.042.467a2.754,2.754,0,0,0,.05.56.249.249,0,0,0,.478,0c.034-.2.074-.4.09-.608.014-.18.034-.359.056-.538.045-.346.1-.69.152-1.035a13.317,13.317,0,0,0,.19-2.156l-.031.123a9.569,9.569,0,0,0,.643-1.787,5.922,5.922,0,0,0,.2-1.677c-.007-.134-.228-.121-.235.011" transform="translate(-63.234 -222.632)" fill="#0095da" stroke="#0095da" stroke-width="0.5"/>
      <path id="Path_64426" data-name="Path 64426" d="M106.191,325.773q-.05,1.413-.1,2.827c-.034.975-.031,1.954-.044,2.93,0,.29-.011.579-.011.869,0,.151,0,.3.007.453a3.986,3.986,0,0,0,.064.557.214.214,0,0,0,.421-.015,3.745,3.745,0,0,0,.061-.489q0-.205.006-.411c0-.262,0-.525-.007-.787q-.009-.738-.02-1.475-.02-1.46-.071-2.919-.025-.763-.053-1.525c-.006-.162-.251-.184-.257-.016" transform="translate(-72.487 -222.614)" fill="#0095da" stroke="#0095da" stroke-width="0.5"/>
      <path id="Path_64427" data-name="Path 64427" d="M115.356,325.731a8.6,8.6,0,0,1,.477,2.754c.021.923-.053,1.849-.109,2.77-.016.253-.034.505-.033.758,0,.117,0,.235,0,.352a1.6,1.6,0,0,0,.118.506.21.21,0,0,0,.383-.011,1.75,1.75,0,0,0,.122-.445c.01-.124.015-.248.023-.372.015-.22.02-.44.028-.66.016-.452.036-.9.047-1.355a12.751,12.751,0,0,0-.221-2.846,8.041,8.041,0,0,0-.495-1.579.183.183,0,0,0-.343.127" transform="translate(-78.847 -222.501)" fill="#0095da" stroke="#0095da" stroke-width="0.5"/>
      <path id="Path_64428" data-name="Path 64428" d="M127.233,325.678a33.448,33.448,0,0,0,.085,5.234c.031.243.076.485.12.726.023.124.043.249.072.372a2.7,2.7,0,0,0,.162.425.247.247,0,0,0,.277.115.253.253,0,0,0,.184-.239,2.922,2.922,0,0,0-.014-.441c-.018-.118-.038-.236-.055-.353q-.049-.329-.089-.66c-.05-.411-.106-.82-.153-1.231-.09-.8-.142-1.609-.178-2.415-.023-.519-.039-1.038-.056-1.557a.18.18,0,0,0-.19-.165.182.182,0,0,0-.165.191" transform="translate(-86.934 -222.498)" fill="#0095da" stroke="#0095da" stroke-width="0.5"/>
      <path id="Path_64429" data-name="Path 64429" d="M137.683,322.537a20.075,20.075,0,0,0,.269,3.138c.015.118.03.236.044.354.007.056.013.112.019.168s0-.048,0,.015c0,.036.007.072.009.109.008.1.014.194.018.291a1.29,1.29,0,0,0,.031.351c.176.557.369,1.108.559,1.66.086.249.17.5.234.755.029.116.057.234.078.352a1.148,1.148,0,0,0,.175.523.264.264,0,0,0,.191.118c.024,0,.238-.029.214-.078l.064-.113a.241.241,0,0,0,.07-.155c0-.024.006-.045.008-.069s0-.063,0-.094a1.307,1.307,0,0,0,0-.172,3.626,3.626,0,0,0-.063-.4,6.965,6.965,0,0,0-.185-.682c-.165-.516-.38-1.017-.569-1.524-.027-.073-.054-.146-.08-.219-.009-.023-.019-.088-.037-.1s0,.057,0,.025a.245.245,0,0,1,0-.037c0-.088-.01-.176-.019-.264-.025-.249-.059-.5-.1-.744-.078-.492-.178-.981-.264-1.472a12.422,12.422,0,0,1-.2-1.716.238.238,0,0,0-.223-.242.235.235,0,0,0-.242.223" transform="translate(-94.116 -220.329)" fill="#0095da" stroke="#0095da" stroke-width="0.5"/>
      <path id="Path_64430" data-name="Path 64430" d="M146.914,322.757c.423,1.414.409,2.915.835,4.329l-.017-.147a3.442,3.442,0,0,0,.464,1.576c.116.238.235.476.335.721a2.7,2.7,0,0,1,.223.63.219.219,0,0,0,.431-.021,1.9,1.9,0,0,0-.06-.8,4.154,4.154,0,0,0-.246-.583,8.179,8.179,0,0,1-.512-1.131c-.026-.079.013.06-.006-.021-.006-.024-.012-.048-.018-.073-.009-.04-.016-.081-.022-.122s-.009-.1-.014-.146a1.01,1.01,0,0,0-.065-.227c-.085-.247-.157-.5-.22-.75-.128-.509-.221-1.026-.325-1.541a12.375,12.375,0,0,0-.472-1.793.163.163,0,0,0-.312.1" transform="translate(-100.423 -220.491)" fill="#0095da" stroke="#0095da" stroke-width="0.5"/>
      <path id="Path_64431" data-name="Path 64431" d="M155.795,327.188c.291.963.574,1.929.866,2.892.08.264.158.529.237.793l.1.349.052.174c.026.088.012-.037.007.047,0,.032,0,.065,0,.1a6.666,6.666,0,0,0,.246,1.4c.026.106.051.213.076.32.012.053.024.107.035.16.022.1-.007-.043,0,.019s.022.116.034.172c.028.129.048.259.073.389a.665.665,0,0,0,.207.42c.247.18.443-.137.471-.348a1.643,1.643,0,0,0,0-.378,5.321,5.321,0,0,0-.147-.764,10.077,10.077,0,0,1-.276-1.257c-.012-.1-.017-.2-.026-.307a1.57,1.57,0,0,0-.126-.4c-.1-.269-.2-.538-.3-.807-.384-1.051-.773-2.1-1.158-3.149a.21.21,0,0,0-.275-.1.213.213,0,0,0-.1.274" transform="translate(-106.49 -223.462)" fill="#0095da" stroke="#0095da" stroke-width="0.5"/>
      <path id="Path_64432" data-name="Path 64432" d="M163.361,327.272c.055.025-.042-.022.011.005l.031.016.076.041c.053.03.106.062.157.1l.067.048c-.06-.044.014.012.026.022q.068.056.131.119a.734.734,0,0,1,.109.117s-.043-.053-.015-.017l.029.037.052.07q.044.062.084.126l.041.069c.009.016.053.105.027.047.047.106.1.209.139.317.02.053.039.106.057.16.009.027.018.054.027.081s.035.138.013.039c.056.243.119.482.16.729q.032.192.057.386.012.093.024.187c0,.031.008.063.011.094,0,.013,0,.049,0-.01,0,.022,0,.044.007.066.031.287.059.575.091.862a7.536,7.536,0,0,0,.3,1.561,3.7,3.7,0,0,0,.356.763,2.152,2.152,0,0,0,.3.374,1.369,1.369,0,0,0,.439.283c.245.109.525-.2.344-.421a1.781,1.781,0,0,1-.135-.184,1.077,1.077,0,0,0-.1-.131c-.036-.042.028.035.028.035a.286.286,0,0,0-.035-.046c-.067-.089-.13-.183-.189-.277-.027-.043-.053-.088-.077-.133l-.019-.036c-.027-.049.022.044.022.043-.011-.03-.029-.059-.043-.089-.047-.1-.088-.2-.125-.31a8.319,8.319,0,0,1-.339-1.429,8.95,8.95,0,0,0-.782-3.124,2.3,2.3,0,0,0-1.213-1.018.23.23,0,0,0-.286.147.233.233,0,0,0,.147.286" transform="translate(-111.563 -223.414)" fill="#0095da" stroke="#0095da" stroke-width="0.5"/>
      <path id="Path_64433" data-name="Path 64433" d="M172.508,325.852a2.682,2.682,0,0,1,.829.856,8.386,8.386,0,0,1,.793,1.519q.153.368.287.745l.034.094c0,.009.024.067.011.029l.02.057q.033.095.065.19a3.677,3.677,0,0,0,.143.4q.039.084.076.168c.012.027.024.053.035.08-.027-.064-.006-.014,0,0l.034.083q.078.2.148.394.148.42.259.851l.013.051c0,.006.018.075.009.037l0,.021c.009.04.018.08.027.12.019.087.036.174.053.261.031.166.067.331.1.5s.053.345.071.519a4.515,4.515,0,0,0,.1.531.3.3,0,0,0,.6-.011,2.663,2.663,0,0,0,.056-.334,2.306,2.306,0,0,0,0-.288q-.015-.246-.045-.491a6.9,6.9,0,0,0-.223-1.051,9.733,9.733,0,0,0-.656-1.678l-.036-.072c-.014-.026-.047-.088-.019-.025-.026-.057-.043-.118-.066-.176-.058-.153-.116-.306-.18-.456-.1-.238-.216-.471-.335-.7a10.167,10.167,0,0,0-.938-1.51,3.114,3.114,0,0,0-1.1-.983.158.158,0,0,0-.151.278" transform="translate(-117.868 -222.546)" fill="#0095da" stroke="#0095da" stroke-width="0.5"/>
      <path id="Path_64434" data-name="Path 64434" d="M183.861,325.444a4.293,4.293,0,0,0-.126,1.352,7.671,7.671,0,0,0,.208,1.439,13.4,13.4,0,0,0,.437,1.443c.084.234.176.464.278.692.112.25.222.506.354.746s.284.469.434.7c.107.163.219.323.338.477a.262.262,0,1,0,.441-.282,10.983,10.983,0,0,1-.536-1.1c-.006-.015-.041-.09-.018-.042s0,0,0-.01-.021-.049-.032-.074c-.029-.065-.059-.128-.09-.192l-.033-.071c0-.01-.021-.048,0,0l-.019-.041q-.037-.083-.074-.167c-.1-.221-.188-.445-.28-.668a11.508,11.508,0,0,1-.795-2.719,3.925,3.925,0,0,1,0-1.364.252.252,0,0,0-.49-.121" transform="translate(-125.594 -222.338)" fill="#0095da" stroke="#0095da" stroke-width="0.5"/>
      <path id="Path_64435" data-name="Path 64435" d="M22.728,331.949a5.777,5.777,0,0,0,2.278.521c.887.066,1.78.077,2.669.081l5.5.024q2.7.012,5.409.015l5.488,0,5.368,0h4.933c.9,0,1.805-.018,2.707,0a21.634,21.634,0,0,1,2.377.247,20.647,20.647,0,0,0,2.737.224c.9,0,1.8-.053,2.7-.125,1.767-.142,3.532-.357,5.307-.348q2.889.015,5.779.034c.452,0,.9-.042,1.354-.042.3,0,.318-.464.019-.464-.491,0-.982-.045-1.473-.042l-1.437.008-2.835.017c-.941.006-1.882,0-2.821.049-.871.043-1.74.121-2.608.2a29.46,29.46,0,0,1-5.406.162c-.867-.082-1.727-.221-2.593-.32-.373-.042-.749-.077-1.125-.084-.457-.008-.914,0-1.371,0H50.616l-5.2,0H39.933q-2.711,0-5.422.009l-5.526.025c-.863,0-1.726,0-2.589.025a14.563,14.563,0,0,1-2.563-.076,3.857,3.857,0,0,1-1.036-.291.079.079,0,0,0-.07.142" transform="translate(-15.507 -226.813)" fill="#0095da" stroke="#0095da" stroke-width="0.5"/>
      <path id="Path_64436" data-name="Path 64436" d="M25.477,338.358a2.588,2.588,0,0,0,1.758.695,20.086,20.086,0,0,0,2.088-.075c.39-.019.779-.01,1.169-.007.463,0,.926,0,1.388,0,.9,0,1.793-.01,2.689-.025,1.788-.031,3.575-.1,5.358-.237q.681-.053,1.361-.119.35-.034.7-.072a5.678,5.678,0,0,1,.7-.02c.929.016,1.857.071,2.785.12s1.856.089,2.785.073c.468-.008.936-.031,1.4-.075q.373-.035.744-.086c.235-.033.463-.081.694-.133a24.431,24.431,0,0,1,5.452-.405c1.794,0,3.588-.02,5.382-.055,1.828-.036,3.655-.086,5.483-.136s3.649-.1,5.474-.144,3.645-.03,5.468-.013c.211,0,.423,0,.634,0,.108,0,.215-.006.324-.013l.14-.01.07-.005c.027,0,.213-.01.141-.01a.316.316,0,1,0,.044-.631c-.233,0-.466-.034-.7-.035s-.447,0-.671,0q-.655.016-1.309.036-1.406.044-2.814.1c-1.805.07-3.612.109-5.417.169s-3.624.12-5.435.171c-1.792.05-3.583.091-5.375.109a53.8,53.8,0,0,0-5.469.157c-.463.052-.923.123-1.379.219-.232.048-.46.107-.694.141s-.44.059-.661.08a21.931,21.931,0,0,1-2.793.065c-.926-.029-1.85-.093-2.775-.142-.468-.025-.937-.046-1.406-.056a5.294,5.294,0,0,0-.683,0q-.351.038-.7.073c-1.786.177-3.579.279-5.372.332s-3.591.043-5.387.06c-.4,0-.8,0-1.194.02-.345.019-.689.053-1.034.081s-.686.05-1.03.046a4.413,4.413,0,0,1-.939-.09,1.714,1.714,0,0,1-.776-.392c-.157-.143-.363.089-.22.241" transform="translate(-17.383 -230.325)" fill="#0095da" stroke="#0095da" stroke-width="0.5"/>
      <path id="Path_64437" data-name="Path 64437" d="M258.091,319.852c.012.1,0,.2.019.3a2.864,2.864,0,0,0,.063.313,6.175,6.175,0,0,0,.312.876c.228.533.5,1.045.755,1.565.049.1.1.2.145.3a1.46,1.46,0,0,0,.268.336c.2.226.4.459.587.7.373.47.732.951,1.1,1.422.356.449.75.865,1.1,1.315s.72.884,1.106,1.3a13.189,13.189,0,0,0,2.5,2.187,8.094,8.094,0,0,0,1.489.775,5.983,5.983,0,0,0,.732.229q.227.056.457.1a1.946,1.946,0,0,0,.367.044c.167,0,.333-.01.5-.028a.364.364,0,0,0,.339-.333.357.357,0,0,0-.283-.381c-.165-.02-.33-.045-.494-.075-.132-.024-.267-.032-.4-.052q-.094-.014-.187-.032l-.086-.017-.02,0-.034-.008q-.192-.045-.381-.1a6.746,6.746,0,0,1-1.436-.646,12.212,12.212,0,0,1-2.559-2.132c-.395-.414-.773-.844-1.142-1.28-.089-.1-.172-.214-.27-.31s-.2-.2-.3-.3c-.2-.214-.395-.435-.585-.658-.413-.484-.813-.978-1.23-1.459-.188-.217-.38-.434-.584-.637-.047-.047-.1-.088-.144-.138.013.015-.016-.024-.021-.033l-.049-.087c-.057-.1-.116-.2-.176-.3-.288-.479-.584-.954-.839-1.452a3.748,3.748,0,0,1-.427-1.305c-.016-.144-.224-.138-.206.008" transform="translate(-176.426 -218.569)" fill="#0095da" stroke="#0095da" stroke-width="0.5"/>
      <path id="Path_64438" data-name="Path 64438" d="M259.657,312.606c.009.1-.011.071.006.02.005-.015.011-.03.016-.045s.021-.055.034-.081c-.028.058.056-.088.046-.068.054-.1.025-.062.012-.033l.022-.05a1.537,1.537,0,0,1,.074-.139l.025-.041c0,.007-.036.048-.006.011s.038-.053.058-.078q.052-.067.11-.13l.064-.067c.012-.013.042-.035-.011.011l.046-.043c.095-.086.2-.164.3-.244s.208-.159.317-.233l.048-.032.013-.009c-.045.03.02-.012.023-.015l.04-.025q.09-.056.182-.109c.247-.143.5-.274.758-.4.443-.213.9-.4,1.346-.6l.122-.056.059-.028.025-.012c.046-.023,0,.009-.012,0,.019.01.1-.021.125-.026l.125-.025c.1-.019.2-.036.3-.052q.28-.045.562-.074l.141-.014.072-.006c.093-.007.186-.012.28-.017a10.457,10.457,0,0,1,1.113.008q.276.017.552.048l.244.03.076.011h.006l.151.024a11.3,11.3,0,0,1,2.115.575c.189.072.243.093.446.181.17.074.338.152.5.233q.495.24.967.523t.924.608l.114.083c.019.014.108.081.052.038.079.06.158.121.236.182q.216.17.425.35.432.371.833.776c.255.257.482.54.737.8.355.355.709.711,1.055,1.075.384.4.76.819,1.116,1.248q.139.167.273.337l.126.161c.03.038-.041-.054-.012-.016l.036.048.065.086c.168.225.329.455.481.691s.289.469.416.713q.092.177.174.358c.024.053.047.106.069.159.039.092-.017-.047.011.027.013.033.026.066.038.1a4.577,4.577,0,0,1,.2.7c.012.059.022.117.031.176,0,.028.026.107,0,.011a.663.663,0,0,1,.01.1,3.008,3.008,0,0,1,.013.346c0,.051,0,.1-.007.152,0,.028,0,.057-.008.085,0,.01-.009.038-.005.047-.007-.015.012-.081,0-.021a2.78,2.78,0,0,1-.072.334q-.023.078-.05.155l-.027.072c-.024.064.028-.061.008-.019-.007.015-.013.03-.02.045a2.578,2.578,0,0,1-.168.316c-.031.05-.063.1-.1.146a.9.9,0,0,0-.056.076c0-.006.054-.068.016-.022l-.041.05a3.357,3.357,0,0,1-.278.295c-.1.1-.215.184-.325.275-.038.031.052-.036.011-.009l-.052.038-.087.06q-.1.069-.206.133c-.149.092-.3.176-.459.255l-.125.061-.057.027c-.027.013-.07.053-.005.007a.526.526,0,0,1-.137.043c-.215.065-.434.118-.653.166-.265.058-.532.106-.8.147-.149.023-.3.044-.448.063l-.219.026-.118.013h.006l-.079.008a13.449,13.449,0,0,1-1.952.057,7.732,7.732,0,0,1-1.8-.275,1.571,1.571,0,0,1-.206-.064s.087.031.023.008l-.044-.016c-.044-.016-.087-.033-.131-.048a1.613,1.613,0,0,0-.189-.043l-.072-.016-.044-.011-.009,0q-.134-.03-.035-.009a.3.3,0,0,0-.386.165.3.3,0,0,0,.166.385l.019.01-.124-.093a1.918,1.918,0,0,0,1.046.48,8.052,8.052,0,0,0,1.024.159,13.4,13.4,0,0,0,2,.029,16.979,16.979,0,0,0,1.952-.21c.265-.044.528-.1.789-.156a4.345,4.345,0,0,0,.687-.2,4.987,4.987,0,0,0,1.678-1.135,3.074,3.074,0,0,0,.783-1.426,4.479,4.479,0,0,0-.628-3.048,14.765,14.765,0,0,0-2.124-2.842c-.365-.4-.742-.79-1.124-1.175-.195-.2-.388-.391-.572-.6q-.38-.428-.794-.825a13.278,13.278,0,0,0-3.834-2.593,11.47,11.47,0,0,0-4.466-.99,10.651,10.651,0,0,0-2.328.233,3.477,3.477,0,0,0-.651.265c-.232.1-.465.2-.7.31a11.013,11.013,0,0,0-1.553.84,2.7,2.7,0,0,0-1.074,1.194.494.494,0,0,0-.057.308c-.023-.068-.01-.027-.01.009s0,.1.007.151a.3.3,0,0,0,.078.214.183.183,0,0,0,.3-.154" transform="translate(-177.234 -211.388)" fill="#0095da" stroke="#0095da" stroke-width="0.5"/>
      <path id="Path_64439" data-name="Path 64439" d="M270.317,312.924a3.43,3.43,0,0,1,.567-.2,1.434,1.434,0,0,1,.276-.058c.1-.005.194,0,.289,0a4.018,4.018,0,0,1,.6.051c.1.016.2.027.293.045l.134.028c-.052-.012.03.008.041.01l.077.021c.093.026.185.056.276.09.046.017.091.034.137.053l.06.025.037.016c.018.007-.042-.02.005,0a4.316,4.316,0,0,1,.527.3l.063.043c.012.008.024.016.035.024,0,0-.048-.035-.013-.009s.086.065.128.1q.125.1.242.208c.036.034.072.068.108.1l.056.056c.016.016.08.091.022.022.071.084.146.165.215.252a5.767,5.767,0,0,1,.43.614c.011.019.029.061-.007-.012.007.014.016.027.023.041l.05.091q.045.084.087.17a1.816,1.816,0,0,0,.206.4.277.277,0,0,0,.5-.18,1.173,1.173,0,0,0-.144-.414c-.052-.109-.109-.215-.169-.32a4.327,4.327,0,0,0-.414-.622,4.577,4.577,0,0,0-1.1-.957,3.462,3.462,0,0,0-2.438-.531,2.072,2.072,0,0,0-.318.083c-.1.038-.205.063-.309.095a3.565,3.565,0,0,0-.639.266c-.069.036-.006.133.062.1" transform="translate(-184.722 -213.503)" fill="#0095da" stroke="#0095da" stroke-width="0.5"/>
      <path id="Path_64440" data-name="Path 64440" d="M286.4,323.619a.7.7,0,0,1,.077.007l-.036-.006a.549.549,0,0,1,.126.036l-.034-.015a.555.555,0,0,1,.114.067l-.031-.023a1.878,1.878,0,0,1,.2.2.8.8,0,0,0,.265.193c.029.012.056.026.085.036a.9.9,0,0,0,.16.042.2.2,0,0,0,.151-.043.217.217,0,0,0,.074-.133,1.331,1.331,0,0,0,.012-.154c0-.057,0-.114,0-.171a2.618,2.618,0,0,0-.035-.445,1.385,1.385,0,0,0-.143-.422.89.89,0,0,0-.105-.154.872.872,0,0,0-.111-.118,1.09,1.09,0,0,0-.142-.093.713.713,0,0,0-.085-.04,1.266,1.266,0,0,0-.169-.056,1.4,1.4,0,0,0-.184-.028,1.071,1.071,0,0,0-.119-.006l-.064,0a.176.176,0,0,0-.091.018.18.18,0,0,0-.081.049.243.243,0,0,0-.072.164.239.239,0,0,0,.067.172.252.252,0,0,0,.164.072q.06,0,.12.011l-.062-.009a1.075,1.075,0,0,1,.222.057l-.061-.023a.872.872,0,0,1,.169.088l-.057-.038c.036.025.067.054.1.082a.838.838,0,0,1,.085.083l-.047-.054.056.064-.047-.054a.986.986,0,0,1,.148.24l-.027-.063.038.086-.027-.062a1.556,1.556,0,0,1,.1.332,2.942,2.942,0,0,1,.039.321c0,.052,0,.1.012.155l.173-.228a.532.532,0,0,1-.108.007l.047,0-.066,0,.047,0a.236.236,0,0,1-.059-.011l.042.014a.556.556,0,0,1-.13-.066l.035.024a2.364,2.364,0,0,1-.207-.178.813.813,0,0,0-.3-.177.689.689,0,0,0-.22-.027.147.147,0,0,0-.1.039.138.138,0,0,0,.091.238" transform="translate(-195.619 -220.314)" fill="#0095da" stroke="#0095da" stroke-width="0.5"/>
      <path id="Path_64441" data-name="Path 64441" d="M280.375,329.33a7.788,7.788,0,0,0,2.335-.431l.279-.084.116-.035.016,0,.093-.027c.185-.053.37-.1.556-.153a7.246,7.246,0,0,1,1.1-.218c.017,0,.095-.013.008,0,.03,0,.061,0,.091-.007.053,0,.106-.006.159-.007.1,0,.2,0,.3,0a4.478,4.478,0,0,1,.616.067.307.307,0,0,0,.136-.593,2.951,2.951,0,0,0-.753-.136,4.567,4.567,0,0,0-.592.023,6.271,6.271,0,0,0-1.072.206c-.746.2-1.461.507-2.207.707a5.007,5.007,0,0,1-1.181.185.252.252,0,0,0,.007.5" transform="translate(-191.485 -224.013)" fill="#0095da" stroke="#0095da" stroke-width="0.5"/>
      <path id="Path_64442" data-name="Path 64442" d="M6.24,179.672l-.216-.006q.019.272.038.545a21.515,21.515,0,0,0,2.2-.129c.4-.031.811-.053,1.217-.052s.838.025,1.256.047A11.489,11.489,0,0,0,13.346,180q1.245-.221,2.5-.355c1.647-.173,3.3-.254,4.955-.327.836-.037,1.672-.072,2.507-.116.851-.045,1.7-.04,2.556-.083,1.708-.085,3.411-.245,5.119-.318.835-.035,1.673-.013,2.507-.064.779-.047,1.573-.154,2.341-.173.73-.018,1.458,0,2.186-.069.392-.039.777-.125,1.168-.17a9.576,9.576,0,0,1,1.019-.062c.757-.012,1.514.027,2.27.059a12.574,12.574,0,0,0,2.247-.033c.329-.045.657-.108.988-.134-.056,0,.043,0,.063,0l.115,0h.316c.188,0,.376,0,.564-.011a5.309,5.309,0,0,0,1.053-.13c.073-.018.145-.038.216-.061a1.581,1.581,0,0,1,.278-.048c.195-.024.352-.037.524-.046.781-.04,1.563,0,2.343-.04.2-.011.4-.025.6-.048.09-.01.18-.03.27-.037-.033,0,.03,0,.029,0h.078l.194,0c.421-.009.843-.032,1.263-.06.848-.056,1.7-.131,2.545-.145.82-.013,1.634.109,2.453.09a4.666,4.666,0,0,0,.6-.048c.187-.028.37-.071.559-.094a9.856,9.856,0,0,1,1.139-.055c.362,0,.724,0,1.086-.015.39-.021.77-.09,1.156-.136a39.594,39.594,0,0,1,5.075-.214c1.709.015,3.418.062,5.127.044s3.442-.076,5.163-.125c.86-.025,1.721-.047,2.581-.062s1.716,0,2.572-.028c1.668-.052,3.334-.286,4.976-.377.814-.045,1.628-.03,2.442-.093.8-.062,1.532-.151,2.337-.151h2.539a10.164,10.164,0,0,0,1.186-.045c.365-.043.728-.106,1.094-.145l.064-.007.022,0,.037,0,.061,0c.09-.005.179-.006.269-.006.211,0,.422,0,.633,0a10.484,10.484,0,0,0,1.291-.094c.213-.031.42-.078.63-.122.087-.018.175-.031.263-.042l.134-.016.051-.005a.286.286,0,0,1,.052,0,9.681,9.681,0,0,1,1.113,0c.555.028,1.107.077,1.663.077a.326.326,0,0,0,.028-.652c-.579,0-1.153-.053-1.731-.08a8.9,8.9,0,0,0-1.155.011c-.4.034-.788.138-1.186.195a9.433,9.433,0,0,1-1.221.082c-.4.006-.792,0-1.188.041-.36.039-.718.1-1.078.143l-.129.014-.038,0-.021,0c-.09.006-.18.01-.27.011h-.625c-.857,0-1.714,0-2.571,0-.774,0-1.574.1-2.321.158-.818.061-1.637.044-2.456.093s-1.653.132-2.479.208-1.656.145-2.5.167-1.7.011-2.554.027c-1.721.031-3.441.092-5.162.137s-3.432.067-5.148.042-3.425-.071-5.137,0c-.882.034-1.764.1-2.641.206-.186.023-.371.059-.557.083q-.13.016-.259.026h-.015l-.065,0-.147.007c-.37.014-.74.007-1.11.01a10.148,10.148,0,0,0-1.224.076c-.19.025-.374.072-.564.1l-.132.014c-.055.005.037,0-.019,0l-.068,0c-.1,0-.2.007-.295.006-.4,0-.8-.036-1.2-.061-.424-.028-.847-.037-1.273-.026-.85.022-1.7.1-2.545.153-.421.026-.842.046-1.263.051-.213,0-.418.035-.629.057s-.325.028-.528.036c-.78.031-1.562-.009-2.342.042-.2.013-.4.03-.6.057-.171.023-.331.08-.5.118a4.194,4.194,0,0,1-.49.078l-.123.011c-.008,0-.06,0-.012,0l-.063,0c-.092.005-.184.009-.277.012-.377.01-.754-.006-1.13.028-.339.032-.673.1-1.009.142a6.934,6.934,0,0,1-1.074.047c-.359-.007-.719-.021-1.078-.036-.754-.031-1.509-.065-2.264-.043a11,11,0,0,0-1.118.08c-.387.051-.767.133-1.157.169-.182.017-.364.029-.546.038-.113.005-.3.01-.46.013-.387.006-.774,0-1.16.017-.788.032-1.569.137-2.356.182-.4.023-.8.019-1.2.026q-.663.012-1.325.043c-.852.04-1.7.1-2.553.163s-1.7.124-2.553.167-1.7.042-2.548.089c-1.656.09-3.314.146-4.969.255-1.675.11-3.339.292-5,.559a11.637,11.637,0,0,1-2.547.029,16.947,16.947,0,0,0-2.509.017c-.693.062-1.386.157-2.081.178a.273.273,0,0,0,.038.545l.206-.006a.267.267,0,1,0-.028-.533" transform="translate(-3.944 -119.689)" fill="#0095da" stroke="#0095da" stroke-width="0.5"/>
      <path id="Path_64443" data-name="Path 64443" d="M15.583,221.962a1.755,1.755,0,0,0,.4.415,1.808,1.808,0,0,0,.192.122c.062.034.128.063.191.1.094.049-.142-.061.024.015a1.022,1.022,0,0,0,.11.043,4.708,4.708,0,0,0,1.32.207c.2.008.4.015.6.012.028,0,.25,0,.072,0h.371c.464.005.929.02,1.393.03,1.9.04,3.8.049,5.7-.028,1.08-.044,2.16-.1,3.241-.116l-.158,0c2.341-.033,4.682-.065,7.023-.058s4.677.036,7.016.049,4.67.009,7-.049c1.16-.029,2.318-.087,3.477-.133.583-.023,1.172,0,1.755,0s1.157,0,1.735-.009c2.309-.023,4.619-.1,6.918-.319q.495-.047.988-.1l-.166.017,6.607-.408,3.292-.2c.532-.033,1.063-.093,1.594-.143l1.6-.148c2.135-.195,4.27-.377,6.408-.529q1.6-.113,3.2-.2l.773-.04c.262-.013.522-.051.783-.077.518-.052,1.037-.09,1.556-.124s1.028-.067,1.542-.11q.4-.033.792-.077c.127-.014.254-.037.381-.041s.242,0,.363,0H95.1c.512,0,1.026.013,1.538,0a3.4,3.4,0,0,0,.462-.072c.113-.019.227-.035.34-.05l-.168.022a18.12,18.12,0,0,1,2.212-.109c.409,0,.818,0,1.227-.018s.84-.056,1.259-.09.826-.068,1.24-.087.813-.014,1.219-.016c.8,0,1.593-.016,2.386-.093a10.513,10.513,0,0,0,2.668-.561.68.68,0,0,0,.378-.291.633.633,0,0,0-.714-.93,9.317,9.317,0,0,1-2.012.483l.168-.022a18.881,18.881,0,0,1-2.088.141c-.713.014-1.426-.007-2.138.031-.731.039-1.458.12-2.189.162-.712.041-1.424.02-2.137.037a13.243,13.243,0,0,0-2.258.223l.168-.022H93.393a3.6,3.6,0,0,0-.408.037q-.387.043-.775.076c-.508.044-1.016.076-1.524.11s-1.011.07-1.515.119c-.267.026-.535.071-.8.084l-.772.039q-1.57.084-3.139.2c-2.124.15-4.246.33-6.367.524-1.042.095-2.083.2-3.126.293-.543.046-1.089.069-1.634.1l-1.614.1-6.532.414c-.305.019-.608.05-.912.082l.166-.017-.205.022.166-.017c-2.207.229-4.424.325-6.642.36-1.1.018-2.209.021-3.313.023-.285,0-.573-.01-.858.005l-.807.041q-.828.039-1.657.066c-2.235.075-4.473.094-6.709.092s-4.461-.025-6.692-.036-4.464-.009-6.7.038c-.372.008-.744.021-1.116.032l.159,0c-2.067.014-4.127.193-6.193.236-.98.021-1.96,0-2.939.026-.921.019-1.843.032-2.763.083a5.417,5.417,0,0,1-1.152-.016,2.061,2.061,0,0,1-.262-.057c-.023-.007-.047-.017-.07-.023l-.109-.018c.076.016.092.017.047,0s-.077-.027-.115-.043a1.058,1.058,0,0,1-.383-.28.368.368,0,0,0-.548.48" transform="translate(-10.611 -148.833)" fill="#0095da" stroke="#0095da" stroke-width="0.5"/>
      <path id="Path_64444" data-name="Path 64444" d="M123.358,232.1a3.942,3.942,0,0,1,.576.414c-.036-.034,0,0,.008.009.025.027.051.053.076.08l.052.06c.009.011.035.054,0,0,.056.088.1.184.159.27a.942.942,0,0,0,.082.1c.047.052,0,0-.005-.007.031.039.061.078.09.118.056.078.1.159.153.24.031.052-.039-.082,0,.006.009.018.018.036.027.054.017.036.034.073.05.111.041.094.078.19.11.288.01.031.021.07.034.124s.023.091.033.136c.023.1.042.2.059.307.007.041.012.082.018.122l.011.074c.005.038.032.078,0-.007a1.055,1.055,0,0,1,.025.278c.024.377.008.757.018,1.134.011.427.031.854.042,1.281.006.215.01.43.011.646v.069c0,.111,0-.035,0,.03s0,.1,0,.153q0,.166-.009.333a5.888,5.888,0,0,1-.15,1.163c-.1.431-.2.863-.3,1.3q-.078.351-.159.7c-.027.114-.054.228-.082.342l-.016.063c-.031.126-.011-.008,0-.009a.685.685,0,0,0-.069.146c-.1.217-.182.44-.262.664q-.067.187-.131.374a1.624,1.624,0,0,0-.137.659.443.443,0,0,0,.267.4.429.429,0,0,0,.47-.084,1.2,1.2,0,0,0,.23-.354c.022-.055.039-.111.058-.167q.064-.189.129-.377c.073-.208.149-.415.234-.619.035-.084.072-.167.111-.249a2.1,2.1,0,0,0,.115-.414q.077-.324.149-.649c.1-.446.2-.892.3-1.338.046-.2.106-.4.136-.6s.048-.4.06-.606a22.949,22.949,0,0,0-.072-2.671c-.022-.389-.023-.78-.047-1.169a4.822,4.822,0,0,0-.271-1.339,3.635,3.635,0,0,0-.307-.636,2.36,2.36,0,0,0-.172-.251c-.055-.069-.114-.135-.173-.2-.007-.008-.1-.1-.1-.1s.041.06.012,0a.6.6,0,0,0-.057-.083,1.312,1.312,0,0,0-.141-.164,1.8,1.8,0,0,0-.325-.246,4.837,4.837,0,0,0-.739-.33c-.252-.1-.408.281-.19.42" transform="translate(-84.255 -158.362)" fill="#0095da" stroke="#0095da" stroke-width="0.5"/>
      <path id="Path_64445" data-name="Path 64445" d="M201.726,228.182a.568.568,0,0,0-.571-.064,1.156,1.156,0,0,0-.427.393,2.191,2.191,0,0,0-.4,1c0,.014,0,.028,0,.042,0,.07.009-.02.012-.017a1.069,1.069,0,0,1-.056.164q-.061.188-.111.379a8.783,8.783,0,0,0-.183.871,13.5,13.5,0,0,0-.142,1.552c-.023.558-.041,1.119-.03,1.678.012.588.062,1.174.131,1.757.035.294.074.588.116.881q.039.271.077.542c.006.04.011.08.017.12-.01-.07.052.342.014.081.007.049.016.1.024.148.058.358.111.716.181,1.071a7.571,7.571,0,0,0,.435,1.523,3.284,3.284,0,0,0,.3.56,2.347,2.347,0,0,0,.258.318c.03.031.062.061.095.09a1.017,1.017,0,0,0,.562.287.512.512,0,0,0,.352-.044.526.526,0,0,0,.255-.238.582.582,0,0,0-.114-.664c.076.084.007,0,0-.019-.031-.042-.063-.1-.1-.136s-.063-.06-.093-.091a2.279,2.279,0,0,1-.163-.191l.1.128q-.069-.094-.141-.184l.1.128-.112-.146.1.128-.125-.164.1.128a4.76,4.76,0,0,1-.719-1.811c-.193-.856-.354-1.721-.491-2.587-.077-.486-.141-.974-.179-1.464-.036-.471-.041-.944-.047-1.417a11.907,11.907,0,0,1,.182-2.574c.027-.128.057-.255.092-.38.015-.053.032-.107.047-.16l.027-.1c0-.108,0-.132,0-.072s0,0,0-.014a1.484,1.484,0,0,1,.03-.194,1.5,1.5,0,0,1,.057-.2,2.406,2.406,0,0,1,.186-.432.458.458,0,0,1,.109-.134l.024-.018c.032-.021-.028.008.008,0l-.026.008c.018,0,.016,0,0,0s-.023,0,0,0l.026.007a.274.274,0,0,0,.228-.474" transform="translate(-136.589 -155.904)" fill="#0095da" stroke="#0095da" stroke-width="0.5"/>
      <path id="Path_64446" data-name="Path 64446" d="M112.851,269.489a.617.617,0,0,1,.044.231.256.256,0,0,1-.063.13c-.028.038-.057.071-.083.11-.066.1.033-.044-.014.023l-.024.037c-.021.032-.044.062-.067.092s-.066.069,0,.006l-.049.051c-.055.055-.112.107-.171.158-.016.014-.032.028-.048.04.074-.054.023-.018,0-.005-.052.035-.1.074-.153.111-.128.095-.259.186-.389.278s-.234.162-.342.254c-.066.057-.137.108-.208.159-.054.039.087-.053,0,0-.036.022-.072.048-.108.071q-.082.053-.164.1c-.358.219-.717.431-1.085.633a8.213,8.213,0,0,0-2.036,1.4,3.564,3.564,0,0,0-.738,3.445,2.943,2.943,0,0,0,.3.643,3.244,3.244,0,0,0,.236.321,1.3,1.3,0,0,0,.473.344.483.483,0,0,0,.581-.72,4.031,4.031,0,0,0-.255-.325c-.023-.025-.046-.051-.067-.078a.34.34,0,0,0-.047-.06l.035.048-.029-.041a2.5,2.5,0,0,1-.226-.425c-.034-.081.022.074.007.018-.006-.021-.014-.04-.021-.06-.013-.04-.026-.082-.037-.123q-.034-.124-.056-.25c-.013-.077-.022-.153-.031-.23-.01-.1.006.11,0,.043,0-.022,0-.043,0-.065,0-.043,0-.087,0-.13a3.2,3.2,0,0,1,.04-.516c.006-.038.013-.076.02-.114s.033-.071,0,.019a.344.344,0,0,0,.012-.05c.02-.082.044-.164.07-.244s.053-.15.084-.223.087-.154.111-.232c0,.008-.055.087-.017.031l.039-.058c.024-.035.048-.069.073-.1.055-.074.114-.145.176-.214a2.842,2.842,0,0,1,.374-.348c.139-.113.284-.217.433-.316.315-.21.646-.4.975-.587a10.734,10.734,0,0,0,1-.61,6.061,6.061,0,0,0,.586-.47c.083-.078.161-.158.247-.232a5.034,5.034,0,0,0,.87-.87.935.935,0,0,0,.213-.615,1.723,1.723,0,0,0-.071-.326.923.923,0,0,0-.118-.259c-.083-.128-.319-.055-.264.106" transform="translate(-73.132 -184.102)" fill="#0095da" stroke="#0095da" stroke-width="0.5"/>
      <path id="Path_64447" data-name="Path 64447" d="M109.307,287.814c.265.176.489.412.755.588a1.234,1.234,0,0,0,.464.19.316.316,0,0,0,.084.011c0,.008-.067-.033-.034-.009a.233.233,0,0,0,.034.016c.05.024.1.045.154.065a4.685,4.685,0,0,0,1.556.236c.483.009.967-.012,1.449-.02.619-.009,1.239,0,1.858.005l3.963.013c1.377,0,2.755.024,4.132,0,1.3-.02,2.593-.095,3.887-.19q.961-.071,1.921-.156l.475-.042.109-.009c.093-.009-.078,0,.021,0s.183,0,.274,0c.326,0,.651-.013.976-.025,1.378-.054,2.753-.171,4.132-.171.7,0,1.393-.079,2.088-.145l.116-.011-.037,0a.447.447,0,0,1,.059-.005l.271-.02c.167-.011.335-.02.5-.024.322-.008.644-.006.966-.026.659-.041,1.314-.132,1.965-.239a10.165,10.165,0,0,0,1.633-.325,3.287,3.287,0,0,0,2.194-2.057,2.781,2.781,0,0,0,.1-.8.514.514,0,0,0-1.027-.053,1.733,1.733,0,0,1-.014.186.345.345,0,0,1-.011.091c.008-.018.027-.167,0-.022,0,.018-.006.036-.009.055a2.206,2.206,0,0,1-.084.327c-.017.05-.037.1-.057.148s.055-.116.025-.058l-.017.035c-.013.027-.027.054-.041.08a2.162,2.162,0,0,1-.173.271.312.312,0,0,1-.047.061s.093-.108.038-.047l-.025.029c-.036.041-.074.082-.113.122a2.735,2.735,0,0,1-.24.213.552.552,0,0,1-.072.055c-.009,0,.1-.072.057-.041l-.032.022c-.047.032-.094.063-.141.092a3.244,3.244,0,0,1-.3.162c-.047.023-.1.044-.144.065l-.072.03c-.051.022.072-.028.064-.024a.493.493,0,0,1-.049.018q-.16.058-.326.1c-.26.069-.528.106-.794.151-.609.1-1.218.21-1.832.277l-.107.011.045,0c-.018,0-.036,0-.054.005l-.254.021q-.231.016-.462.024c-.333.01-.665.008-1,.03-.372.025-.743.064-1.115.1-.16.016-.32.032-.48.047l-.115.01-.03,0-.029,0c-.09.007-.18.013-.269.017-.65.034-1.3.023-1.952.054-.7.034-1.4.082-2.1.121-.332.018-.664.034-1,.045-.355.012-.717-.006-1.07.027q-.935.087-1.871.166c-1.277.106-2.556.2-3.837.238-1.259.042-2.52.028-3.779.03q-1.946,0-3.891.012l-1.916.007c-.511,0-1.017,0-1.526.041a10.092,10.092,0,0,1-1.463.038c-.114-.008-.228-.02-.34-.039-.052-.008-.1-.018-.155-.029-.018,0-.092-.023-.039-.008l-.084-.025c-.046-.015-.093-.031-.138-.05-.022-.009-.044-.02-.066-.029a.518.518,0,0,0-.106-.032l-.1,0h.044a.42.42,0,0,0-.081-.009l-.053-.011c-.009,0-.053-.017-.008,0s0,0-.007,0c-.025-.01-.047-.017-.074-.025s-.073-.023-.109-.037c-.109-.045-.215-.1-.32-.152a5.365,5.365,0,0,0-.555-.257.25.25,0,0,0-.294.154.256.256,0,0,0,.112.312" transform="translate(-74.632 -194.224)" fill="#0095da" stroke="#0095da" stroke-width="0.5"/>
      <path id="Path_64448" data-name="Path 64448" d="M205.543,266.168a1.774,1.774,0,0,1,.1.241c.013.044.016.091.026.136.019.082.039.164.059.246a4.273,4.273,0,0,0,.211.595,2.369,2.369,0,0,0,.253.466,3.24,3.24,0,0,0,.374.429,7.57,7.57,0,0,0,1.458,1,6.913,6.913,0,0,1,.826.562l-.106-.086a3.707,3.707,0,0,1,.527.533l-.087-.109a6.654,6.654,0,0,1,.624.978l-.067-.129a4.823,4.823,0,0,1,.356.875l-.041-.147c.021.075.041.149.063.225l-.041-.147c.017.061.034.122.052.183l-.042-.147c.01.036.019.072.027.109l.011.053a1.4,1.4,0,0,0,.136.36.53.53,0,0,0,.53.263.51.51,0,0,0,.249-.1.472.472,0,0,0,.2-.279c-.009.031-.019.061-.028.092l.014-.045.013-.046c.011-.04.021-.081.029-.122a.942.942,0,0,0,0-.375,3.062,3.062,0,0,0-.148-.506,5.733,5.733,0,0,0-.485-.944,6.967,6.967,0,0,0-.563-.772,3.93,3.93,0,0,0-.683-.629,7.81,7.81,0,0,0-1.069-.632l.12.063c-.187-.1-.374-.2-.558-.3l.115.065-.136-.077.115.065-.218-.124.114.065a3.62,3.62,0,0,1-1.059-.838c-.144-.184-.281-.373-.427-.555a3.546,3.546,0,0,0-.307-.336c-.044-.043-.092-.072-.126-.112-.059-.071-.12-.141-.182-.21-.114-.127-.293.031-.227.172" transform="translate(-140.496 -181.8)" fill="#0095da" stroke="#0095da" stroke-width="0.5"/>
      <path id="Path_64449" data-name="Path 64449" d="M110.14,285.627a1.319,1.319,0,0,1-.047.325.654.654,0,0,0-.09.361.907.907,0,0,0,.463.613,2.984,2.984,0,0,0,1.39.236,20.5,20.5,0,0,0,2.053-.1c.682-.06,1.362-.1,2.047-.106.384,0,.769-.01,1.153-.02l.574-.015a.942.942,0,0,0,.632-.136.144.144,0,0,0,0-.2.829.829,0,0,0-.563-.137l-.514-.013c-.349-.009-.7-.021-1.049-.022-.677,0-1.35.013-2.025.064s-1.351.118-2.029.142c-.246.009-.493.014-.739,0a2.06,2.06,0,0,1-.287-.025,2.135,2.135,0,0,1-.307-.071l-.013,0c.024.009-.019-.008-.023-.01-.028-.012-.055-.025-.082-.04s-.045-.027-.067-.04c0,0-.034-.022-.01-.006s-.047-.034-.053-.038a.561.561,0,0,1-.1-.089.454.454,0,0,1-.041-.053c-.019-.029-.018-.06-.019-.013,0-.02,0,.046,0,.037a.274.274,0,0,0-.016-.1c0-.013-.009-.026-.014-.04a.762.762,0,0,0-.049-.133,1,1,0,0,1-.063-.364.059.059,0,0,0-.119,0" transform="translate(-75.193 -195.211)" fill="#0095da" stroke="#0095da" stroke-width="0.5"/>
      <path id="Path_64450" data-name="Path 64450" d="M139.231,286.724l.029.035-.042-.053a.651.651,0,0,1,.079.127l-.029-.063a.437.437,0,0,1,.03.1l-.012-.068a.38.38,0,0,1,0,.083c0-.023,0-.047,0-.07a.359.359,0,0,1-.016.081l.021-.068a.445.445,0,0,1-.041.089l.038-.063-.016.025,0,.005,0,0-.038.064-.006.012a.43.43,0,0,1-.026.046l.038-.061-.059.091.039-.059-.015.021a.3.3,0,0,0-.066.19l.013.068a.2.2,0,0,0,.055.092.134.134,0,0,0,.052.046.2.2,0,0,0,.094.041l.068.005a.269.269,0,0,0,.133-.044l-.133.044a.269.269,0,0,0,.133-.044l.008-.006.013-.01c.029-.024.057-.049.084-.075s.033-.032.048-.049a.43.43,0,0,0,.068-.111.885.885,0,0,0,.04-.124.3.3,0,0,0,.01-.047.692.692,0,0,0,.006-.125.718.718,0,0,0-.021-.119.328.328,0,0,0-.014-.046.823.823,0,0,0-.06-.124,1.01,1.01,0,0,0-.081-.106l.043.053c-.027-.033-.053-.067-.084-.1-.013-.014-.027-.026-.041-.039a.183.183,0,0,0-.081-.05.188.188,0,0,0-.092-.02.182.182,0,0,0-.094.021.184.184,0,0,0-.083.053l-.039.051a.25.25,0,0,0-.032.121l.009.064a.246.246,0,0,0,.066.114" transform="translate(-95.116 -195.71)" fill="#0095da" stroke="#0095da" stroke-width="0.5"/>
      <path id="Path_64451" data-name="Path 64451" d="M145.292,286.561s0,.008,0,.012l.009-.062a.493.493,0,0,1-.027.1l.023-.061a2.446,2.446,0,0,1-.12.235c-.024.046-.048.093-.069.141-.012.026-.023.053-.033.08s-.01.027-.015.042l0,0c0,.016-.014.063-.017.079a.1.1,0,0,0,0,.01c0,.007,0,.014,0,.021,0,.032-.007.064-.008.1,0,.008,0,.016,0,.025v.018c0,.026,0,.052,0,.077a.086.086,0,0,0,.011.041.342.342,0,0,0,.016.051c.013.029.029.059.043.086a.272.272,0,0,0,.11.093.276.276,0,0,0,.366-.133l.024-.05.006-.012,0-.008.018-.075c0-.016,0-.033.007-.049s.01-.061.017-.091l-.017.077a1.5,1.5,0,0,0,.032-.154c0-.022.007-.045.011-.067.008-.042.019-.083.03-.125.02-.07.044-.139.058-.21,0-.009,0-.018,0-.028,0-.034.009-.068.011-.1a.322.322,0,0,0,0-.053.274.274,0,0,0-.071-.174.182.182,0,0,0-.078-.051.187.187,0,0,0-.09-.021l-.063.007a.242.242,0,0,0-.112.064l-.038.05a.241.241,0,0,0-.033.119" transform="translate(-99.138 -195.726)" fill="#0095da" stroke="#0095da" stroke-width="0.5"/>
      <path id="Path_64452" data-name="Path 64452" d="M154.955,284.181a2.649,2.649,0,0,0,.937.285,8.477,8.477,0,0,0,1.044.086q1.084.028,2.167.034l4.757.03c.764,0,1.531.037,2.292-.027.366-.031.732-.073,1.1-.105s.707-.029,1.061-.048.669-.1,1-.152a7.305,7.305,0,0,1,1.17-.032l.446,0a2.151,2.151,0,0,0,.524-.03c.35-.081.7-.156,1.051-.231s.73-.153,1.094-.236c.167-.038.338-.07.5-.117.118-.034.233-.1.348-.14.026-.01.073-.024-.045.017l.109-.04.082-.031c.084-.031.167-.062.25-.1a3.393,3.393,0,0,0,.323-.146,1.493,1.493,0,0,0,.619-.548.877.877,0,0,0,.115-.467.42.42,0,0,0-.84-.038c-.013.125.028-.093,0,.016-.006.02-.039.1-.005.023s0,0-.009.015-.033.047-.044.072.045-.055.043-.053-.016.02-.025.029-.036.038-.056.056-.036.031-.054.046c-.068.058.088-.059,0,0a3.027,3.027,0,0,1-.6.291c-.1.039-.2.076-.3.115-.042.016-.083.033-.124.052-.017.008-.035.015-.051.024-.037.02.1-.025.035-.016-.026,0-.053.013-.078.02-.336.084-.673.162-1.011.241s-.69.16-1.035.244l-.244.06a1.03,1.03,0,0,0-.252.064c-.038.023.021-.008.03.009a.5.5,0,0,0-.052,0h-.092l-.214,0c-.392,0-.785.005-1.177.011a5.5,5.5,0,0,0-1,.148,7.3,7.3,0,0,1-1,.091c-.344.021-.686.064-1.027.106s-.684.084-1.027.106c-.369.023-.739.015-1.108.018l-4.627.029c-.747,0-1.494,0-2.241.018-.355.009-.714,0-1.069.029a5.845,5.845,0,0,1-1.169.031,1.692,1.692,0,0,1-.413-.1.129.129,0,0,0-.111.23" transform="translate(-105.885 -192.604)" fill="#0095da" stroke="#0095da" stroke-width="0.5"/>
      <path id="Path_64453" data-name="Path 64453" d="M124.684,270.555a4.275,4.275,0,0,1,.659.17,2.955,2.955,0,0,0,.617.116c.4.02.793.018,1.189.026.354.008.708.014,1.063.014h.5c.211,0,.424-.026.634-.04,1.677-.109,3.356-.131,5.036-.165.837-.017,1.673-.01,2.505-.109.154-.018.321-.054.337-.242a.258.258,0,0,0-.079-.215.357.357,0,0,0-.22-.074c-.238-.029-.476-.06-.715-.071-.436-.021-.871-.023-1.308-.026-1.684-.013-3.368.023-5.05.122-.409.024-.823.078-1.233.078-.337,0-.675,0-1.012,0l-1.078.024c-.2,0-.392.017-.588.011a4.056,4.056,0,0,1-.587-.1,2.536,2.536,0,0,0-.63-.043.263.263,0,0,0-.248.239.259.259,0,0,0,.2.279" transform="translate(-85.093 -184.525)" fill="#0095da" stroke="#0095da" stroke-width="0.5"/>
      <path id="Path_64454" data-name="Path 64454" d="M173.169,270.562l2.076.113c.367.02.732.04,1.1.046l1.054.017c1.386.022,2.771.024,4.157.027l1.165,0a9.38,9.38,0,0,0,1.251-.047.226.226,0,0,0,.178-.24.231.231,0,0,0-.213-.21,8.05,8.05,0,0,0-1.074-.043l-1.042,0-2.1,0q-1.038,0-2.075.02c-.7.011-1.4.013-2.095.05-.794.042-1.588.087-2.382.13a.064.064,0,0,0,0,.128" transform="translate(-118.332 -184.723)" fill="#0095da" stroke="#0095da" stroke-width="0.5"/>
      <path id="Path_64455" data-name="Path 64455" d="M136.412,264.6c.546.029,1.093.065,1.639.081s1.112,0,1.666,0c1.078-.005,2.154-.027,3.232-.053,2.164-.052,4.329-.108,6.494-.095,1.086.007,2.172.039,3.258.022.173,0,.387.006.434-.208a.266.266,0,0,0-.136-.289.7.7,0,0,0-.245-.04c-.3-.028-.6-.048-.9-.059-.54-.019-1.079-.033-1.619-.032-2.179,0-4.358.073-6.536.154-1.056.039-2.113.076-3.169.123-1.091.048-2.182.075-3.272.151-.281.019-.561.034-.842.049a.1.1,0,0,0,0,.2" transform="translate(-93.193 -180.42)" fill="#0095da" stroke="#0095da" stroke-width="0.5"/>
      <path id="Path_64456" data-name="Path 64456" d="M166.221,258.884a3.367,3.367,0,0,0,1.332.322,6.929,6.929,0,0,0,.748.025c.233-.006.466-.016.7-.027s.436-.026.654-.032a.235.235,0,0,0,.16-.053.218.218,0,0,0-.126-.381c-.422-.01-.844.023-1.266.035a9.616,9.616,0,0,1-1.414-.013,2.941,2.941,0,0,1-.352-.061c-.052-.013-.1-.027-.155-.044l-.04-.014-.013,0c-.015,0,.022.009,0,0l-.076-.032a.158.158,0,0,0-.151.278" transform="translate(-113.57 -176.768)" fill="#0095da" stroke="#0095da" stroke-width="0.5"/>
      <path id="Path_64457" data-name="Path 64457" d="M.015,364.058c.011.03.021.059.03.09l-.017-.054a2.125,2.125,0,0,1,.066.314l-.009-.064a3.127,3.127,0,0,1,.016.381v-.075c-.006.152-.019.3-.033.456s-.033.274-.034.412a.49.49,0,0,0,.011.1,1.479,1.479,0,0,0,.054.2c.029.084.065.165.094.248l-.035-.1a.871.871,0,0,1,.037.16c0-.036-.009-.073-.013-.11,0,.007,0,.014,0,.021a.611.611,0,0,0,.016.12c0,.009.006.017.008.026l.038.1a.316.316,0,0,0,.107.127.214.214,0,0,0,.1.06.318.318,0,0,0,.161.041.51.51,0,0,0,.21-.048.316.316,0,0,0,.127-.107.319.319,0,0,0,.084-.147.566.566,0,0,0,.005-.3,1.217,1.217,0,0,0-.071-.183,2.249,2.249,0,0,0-.128-.21l.057.09L.8,365.456l.054.089-.068-.114.053.089a.554.554,0,0,1-.065-.148l.022.095a1.3,1.3,0,0,1-.019-.161c-.008-.079-.019-.158-.03-.237l.012.088a5.148,5.148,0,0,0-.083-.521c-.022-.093-.042-.187-.072-.278a2.435,2.435,0,0,0-.1-.246,1.9,1.9,0,0,0-.123-.221l.029.047-.055-.088a.2.2,0,0,0-.134-.074.207.207,0,0,0-.128.029.2.2,0,0,0-.082.253" transform="translate(0 -248.672)" fill="#0095da" stroke="#0095da" stroke-width="0.5"/>
      <path id="Path_64458" data-name="Path 64458" d="M253.47,361.111c.022.093.041.187.056.281,0-.03-.01-.06-.015-.09a3.959,3.959,0,0,1,.037.493c0-.034,0-.067,0-.1a3.9,3.9,0,0,1-.037.474c.005-.037.01-.074.016-.111a4.665,4.665,0,0,1-.158.688l.039-.119c-.008.023-.016.046-.025.069a.736.736,0,0,0-.053.168c0,.03-.005.06-.01.09a1.661,1.661,0,0,1-.043.187l.035-.124a5.8,5.8,0,0,0-.2.718.895.895,0,0,0,.166.684.6.6,0,0,0,.174.167.543.543,0,0,0,.387.081.508.508,0,0,0,.4-.6l-.041-.123a.509.509,0,0,0-.169-.2l-.027-.023.1.088a.32.32,0,0,1-.052-.061l.071.109a.336.336,0,0,1-.033-.071l.041.123a.463.463,0,0,1-.019-.1c0,.044.006.088.009.132a1.519,1.519,0,0,1,.064-.452,2.158,2.158,0,0,0,.083-.6l0,.122a2.813,2.813,0,0,0,.089-.421c.015-.116.03-.233.034-.35a2.584,2.584,0,0,0-.017-.309l.009.107c-.009-.107-.015-.213-.033-.319-.015-.091-.037-.179-.058-.269l.023.095c-.025-.105-.048-.21-.082-.313s-.064-.175-.1-.262l.033.082c-.023-.058-.046-.116-.07-.174a.332.332,0,0,0-.2-.163.344.344,0,0,0-.208.01.331.331,0,0,0-.208.382" transform="translate(-173.012 -246.574)" fill="#0095da" stroke="#0095da" stroke-width="0.5"/>
      <path id="Path_64459" data-name="Path 64459" d="M1.994,370.751c.359.04.718.083,1.079.1l1.02.042q1,.038,2.009.066,1.987.055,3.974.078,2.007.025,4.014.033l3.993.022c1.3.007,2.606.006,3.91.007l3.709,0c1.23,0,2.457.009,3.685-.056,1.257-.066,2.511-.148,3.77-.147l3.882,0,3.917,0c.652,0,1.3.007,1.954-.035.633-.041,1.264-.11,1.9-.148s1.27-.023,1.905-.022l2.021,0c1.3,0,2.593-.014,3.89-.067s2.609-.118,3.914-.112c.647,0,1.295.022,1.94.07l.224.018.056.005-.024,0,.149.014c.155.015.309.033.463.052.35.044.7.037,1.055.058.151.009.3.02.453.032l-.028,0,.072.006.107.01.232.021c.337.031.674.062,1.012.086a13.968,13.968,0,0,0,1.908.007c.617-.041,1.231-.112,1.848-.149.662-.04,1.326-.026,1.99-.025l4.061,0,2.03,0c.672,0,1.343.008,2.014-.036s1.318-.111,1.979-.147c.615-.033,1.231-.022,1.847-.022l1.907,0a.48.48,0,0,0,.317-.174.491.491,0,0,0,.1-.358.484.484,0,0,0-.174-.317.555.555,0,0,0-.358-.1l-1.954,0c-.615,0-1.231-.008-1.845.029-.658.039-1.314.109-1.973.152s-1.338.036-2.009.036l-4.048,0-2,0c-.66,0-1.321-.011-1.98.032-.615.04-1.227.113-1.842.153a13.882,13.882,0,0,1-1.92-.009l-.108-.008-.025,0-.232-.02-.462-.041c-.332-.029-.665-.058-1-.076q-.242-.013-.484-.018l-.115,0c-.034,0-.114-.005-.035.005l-.258-.032q-.53-.061-1.063-.1a36.992,36.992,0,0,0-3.889-.02c-1.287.047-2.572.122-3.859.146-1.33.024-2.661.009-3.99.01-.625,0-1.251-.012-1.874.029s-1.264.112-1.9.153c-.649.042-1.3.034-1.948.035l-1.944,0-3.905,0c-1.263,0-2.526-.014-3.788.05-1.245.064-2.489.167-3.737.169l-3.664,0-3.807,0q-1.933,0-3.865.016-2.085.011-4.171.016-1.977,0-3.955-.015t-3.95-.073l-.973-.03c-.379-.013-.756,0-1.135.006a.283.283,0,0,0-.02.559" transform="translate(-1.207 -252.636)" fill="#0095da" stroke="#0095da" stroke-width="0.5"/>
    </g>
  </g>
</svg>
