<svg id="Group_158514" data-name="Group 158514" xmlns="http://www.w3.org/2000/svg" xmlns:xlink="http://www.w3.org/1999/xlink" width="107.31" height="149.009" viewBox="0 0 107.31 149.009">
  <defs>
    <clipPath id="clip-path">
      <rect id="Rectangle_10205" data-name="Rectangle 10205" width="107.31" height="149.009" fill="#c39a6b"/>
    </clipPath>
  </defs>
  <g id="Group_158513" data-name="Group 158513" clip-path="url(#clip-path)">
    <path id="Path_66753" data-name="Path 66753" d="M99.483,38.833C95.07,32.5,87.942,27.108,81.819,22.537c-5.352-4-12.4-8.857-19.4-9.282a21.448,21.448,0,0,1,1.462-4.13,1.469,1.469,0,0,0,.055-.692c2.131-.855,3.969-3.041,3.712-5.348A3.357,3.357,0,0,0,64.174.077C61.718-.375,58.713,1.2,58.061,3.661A4.1,4.1,0,0,0,59.836,8.1c-.178,0-.364.169-.408.512-.148,1.152-.333,2.278-.578,3.4-.072.266-.139.534-.205.8h-.756c-.8,0-1.95-.235-2.6.372a3.353,3.353,0,0,0-.623,2.324,16.286,16.286,0,0,0,.066,2.881c-.192.679,0,1.56.623,1.548.68-.013,1.351,0,2.019.037-.018.084-.04.167-.055.252a2.867,2.867,0,0,0-.26,1.731A38.407,38.407,0,0,0,36.8,23.44a40.875,40.875,0,0,0-13.419,4.693c-8.838,5.074-16.227,15.534-20.1,24.808a37.337,37.337,0,0,0-2.71,11.9C-.827,72.547.461,80.884,3,88.168c2.488,7.14,6.718,15.5,12.981,20.243.452.92,1.655,1.456,2.635,2,1.54.863,3.092,1.693,4.6,2.615,1.259.77,2.415,1.776,3.875,2.068a.272.272,0,0,0,.125-.005,50.917,50.917,0,0,0,5.91,2.613,13.932,13.932,0,0,0-.531,1.793q-1.239-.482-2.467-1.027c-.011,0-.02,0-.03,0-.176-.159-.422-.168-.578.174-.417.911-.714,1.874-1.1,2.8a19.863,19.863,0,0,0-1.139,2.675c-.134.52.321,1.68.9,1.08.707.343,1.423.659,2.142.963a5.873,5.873,0,0,0-.685,2c-7.2-1.607-16.752,2.015-22.5,5.419a.514.514,0,0,0-.193.275.746.746,0,0,0-.309.617.782.782,0,0,0-.146.229,7.677,7.677,0,0,0-.547,3.563c-.066,0-.132-.012-.2-.015-.2-.009-.241.4-.074.472.115.049.234.088.35.136.006.03,0,.061.012.09a.35.35,0,0,0,.635.162c5.885,2.314,12.364,3.363,18.489,4.807,6.883,1.622,13.916,3.824,20.934,4.743.3.476.85.569,1.176-.381.38-1.108,1.59-3.607.816-4.979,0-.005,0-.013,0-.017-.327-3.477-3.457-6.32-6.02-8.394-2.687-2.175-5.84-4.891-9.157-6.281.03-.085.052-.173.089-.256.079-.179.162-.335.234-.494a.774.774,0,0,0,.257-.5c16.177,5.472,34.8,1.906,49.085-7.336,6.741-4.359,11.383-11.069,15.423-17.859,3.313-5.568,6.621-11.575,7.571-18.017a1.224,1.224,0,0,0,.173-.415c3.087-13.635,2.006-33.069-6.24-44.9M60.6,10.047a3.069,3.069,0,0,0,1.323.162,20.981,20.981,0,0,0-.777,2.624c-.483-.01-.965-.02-1.448-.02a27.861,27.861,0,0,1,.9-2.766m-.28-7.608a5.38,5.38,0,0,1,.547-.423c1.588.048,3.536-.728,4.87.437C68,4.433,64.078,6.9,62.38,7.017A3.108,3.108,0,0,1,60.072,6.3C58.7,5.125,59.1,3.529,60.321,2.44M33.49,119.449a2.926,2.926,0,0,0,.058.4l-.156-.056c.033-.114.065-.228.1-.343m2.646-.762a40.53,40.53,0,0,0,15.944,1.348,58.792,58.792,0,0,0,29.348-12.342,41.22,41.22,0,0,0,8.8-9.595.773.773,0,0,0,.381-.593c7.849-12.28,9.161-28.22,5.04-42.444C91.167,39.57,76.192,26.6,59.819,22.554l1.211-2.178c12.111,2.082,22.1,11.244,30.524,19.84,6.173,6.3,7.592,14.732,8.626,23.188A63.156,63.156,0,0,1,99.1,86.926c-3.816,14.709-14.424,23.786-27.406,30.663a45.672,45.672,0,0,1-36.12,2.966,4.453,4.453,0,0,0,.565-1.868M63.994,78.908a.27.27,0,0,0,.28.06,12.285,12.285,0,0,0,7.082-5.821c.194-.317.275-1.042-.227-1.129-1.585-.274-3.089,0-4.626-.185-3.661-.431-2.993-1.1-4.727-3.387-1.927-2.54-3.716-3.709-4.981-6.989-.687-1.781-2.47-10.621,1.2-6.193a.26.26,0,0,0,.361.024A21.507,21.507,0,0,0,60.2,53.6c.608-.048,1.116,5.289,1.3,6.217a19.517,19.517,0,0,0,1.671,4.166c.84,1.843,1.487,5.268,3.571,5.919.719.225,2.915-.583,3.952-.36,1.436.309,2.774,1.917,4.07,2.079.786.1,1.838-.888,2.4-1.228,2.37-1.444,4.719-2.985,6.977-4.6a.758.758,0,0,0,.2-.719c.148-.349.051-.914-.3-.958-.824-.1-.768-2.032-1.3-2.582s-1.047-.3-1.678-.526c-1.1-.394-.7-1.017-.86-1.965a1.568,1.568,0,0,0-.942-1.3.412.412,0,0,0-.511.167c-1.857,2.466-5-.957-4.895-3.078.078-1.624,1.193.4,1.634.745s.431.537.986.758c.009,0,.015,0,.023,0,.022.35.164.694.456.419,3.326-3.129,6.4,2.741,7.963,5.024A9.428,9.428,0,0,0,87.24,64.65a7.331,7.331,0,0,1-1.078.6,2.467,2.467,0,0,0-.954.817c-1.572,2.3.162,6.253,1.465,8.246a.456.456,0,0,0,.8.054l.012-.015c.005.005.008.014.014.018a.68.68,0,0,0-.173.3c-1.861,5.937-.945,11.5,1.634,17.134a.438.438,0,0,0,.665.177A6.425,6.425,0,0,0,91.945,89a22.291,22.291,0,0,1,2.838-4.236,43.173,43.173,0,0,1-5.042,11.37A126.256,126.256,0,0,0,63.734,79.066c.086-.048.174-.107.26-.157M50.51,23.689a3.233,3.233,0,0,1-.709,1.132c-.672.646-.92.335-1.631-.072a15.315,15.315,0,0,0-1.795-.88q2.068-.122,4.134-.179m-20.435,3.1c.345,1.9,1.918,2.738,3.809,2.4,1.418-.253,2.677-1.127,4.044-1.548a38.931,38.931,0,0,1,4.71-.868.428.428,0,0,0,.162.456l2.058.969a10.842,10.842,0,0,0-2.206,5.261c-.034.238.159.637.44.44.682-.478,1.363-.957,2.037-1.446a5.853,5.853,0,0,0,1.579,3.079c.193.2.418-.051.459-.244a10.291,10.291,0,0,1,.6-2.817q.01-.722.959-.555.933-.729,1.053.164a8.09,8.09,0,0,1,.485,1.337,2.022,2.022,0,0,0,.8.986,11.174,11.174,0,0,0-3.47,4.658c-.11.272-.031,1.075.436.771,1.53-.994,3.438-.375,5-1.312.977-.586,1.682-1.514,2.79-1.914A6.766,6.766,0,0,1,59,36.467a.617.617,0,0,0-.068.3c.04.893-2.722,1.637-3.348,2.1a3.42,3.42,0,0,0-1.328,1.784c-.477,1.682,1.082,2,1.853,3.364.44.777.533,1.849,1.124,2.535a5.354,5.354,0,0,0,2.047,1.161,11.381,11.381,0,0,0,1.5.511,10.734,10.734,0,0,1-7.316.011,21.808,21.808,0,0,1-3.81-1.59c-2.479-1.42-1.972-2.466-3.575-4.333-1.548-1.8-3.969-2.6-5.8-1.384a4.761,4.761,0,0,0-1.416-2.868,28.53,28.53,0,0,0-2.74-2.154,7.743,7.743,0,0,1-1.24-1.413c1.6-.287,2.657-2.1,3.541-3.505.121-.191.238-.958-.185-.921-3.675.324-6.565-.559-10.125-1.148a10.355,10.355,0,0,0-2.759-.121,36.559,36.559,0,0,1,4.713-2.024s0,.008,0,.012M22.4,30.548c2.485-1.2,4.819-.9,7.406-.237a24.329,24.329,0,0,0,7.561.872,4.636,4.636,0,0,1-3.209,2.463.074.074,0,0,0-.073.009,3.811,3.811,0,0,1-.4.048c-.281.007-.377.612-.109.7a3.072,3.072,0,0,0,.438.106,4.157,4.157,0,0,0,1.645,2.413c1.656,1.4,3.788,2.388,3.784,4.78-.077.092-.155.179-.227.282-.293.41.017,1.529.525.929,3.886-4.6,5.7,1.635,7.35,3.393a13.457,13.457,0,0,0,5.4,3.03c3.837,1.375,6.677,1.039,9.787-.928a3.006,3.006,0,0,0,1.955-.8c.127-.116.15-.5-.1-.469-.1.014-.21.023-.315.035-.007-.075-.04-.136-.11-.1-.122.055-.236.1-.357.154a7.122,7.122,0,0,1-4.96-1.143c-1.195-.924-1.466-2.851-2.472-3.993a4.97,4.97,0,0,0-.662-.664,1.864,1.864,0,0,1,1.413-1.977A18.668,18.668,0,0,0,58.7,38.411a1.816,1.816,0,0,0,.864-1.858c0-.007,0-.01,0-.016l.324.038c.193.021.192-.347.066-.423-1.958-1.18-4-.437-5.75.749a7.511,7.511,0,0,1-4.143,1.223,6.2,6.2,0,0,0-1.286.26,10.3,10.3,0,0,1,2.942-3.364.65.65,0,0,0,.167-.578c.014,0,.026,0,.04-.009a.3.3,0,0,0,.032-.486c-1.451-.754-1.149-2.268-2.115-3.321a1.335,1.335,0,0,0-1.392-.555c-1.3.375-1.547,2.831-1.739,4.274a4.875,4.875,0,0,1-1.089-2.617c-.024-.212-.19-.452-.419-.3-.587.39-1.163.8-1.74,1.2a9.936,9.936,0,0,1,2.175-4.29c.149-.175.169-.628-.078-.739l-2.225-1c.022-.069,0-.165-.061-.173a16.385,16.385,0,0,0-5.453.253c-1.666.354-6.366,2.969-6.951-.159,0-.006,0-.008,0-.014a57.481,57.481,0,0,1,13.285-2.482.526.526,0,0,0,.364.516,15.157,15.157,0,0,1,4.629,1.844.227.227,0,0,0,.239-.031,6.282,6.282,0,0,0,1.942-2.689q1.156-.029,2.307-.047a45.422,45.422,0,0,1,13.053,3.564c9.093,3.985,18.97,10.754,23.9,19.585a49.239,49.239,0,0,1,5.867,19.511c-2.2-.293-2.041-2.505-3.045-3.977-.363-.533-.9-.767-1.281-1.244-.544-.68-.525-1.625-.861-2.373-.889-1.979-4.229-2.971-4.3-5.192-.028-.839-.878-.4-.832.286a3.532,3.532,0,0,0,1.606,2.712c.634.5,1.351.907,1.936,1.473,1.022.988.838,2.289,1.557,3.4a7.933,7.933,0,0,0,.908.946A11.268,11.268,0,0,1,93.8,65.514c.558,1.2,1.4,2.119,2.738,1.9A51.5,51.5,0,0,1,95.32,82.687a.359.359,0,0,0-.156.089A20.141,20.141,0,0,0,91.8,86.234c-.646.969-1.359,4.035-2.178,3.712-1.067-.421-1.685-4.479-1.947-5.63a17.856,17.856,0,0,1,.439-9.253.681.681,0,0,0-.181-.7.869.869,0,0,0,.19-.818,6.66,6.66,0,0,0,.687-1.142c.081-.173.057-.822-.285-.673a4.289,4.289,0,0,0-1.286.907,10.485,10.485,0,0,1-1.169-2.687,2.679,2.679,0,0,1,.184-2.465c.6-1.073.4-.682,1.226-1.119a2.241,2.241,0,0,0,.863-.691,5.675,5.675,0,0,0,.276-.809,2.1,2.1,0,0,0,.339-.126c.263-.125.387-.863,0-.89a.253.253,0,0,0-.049-.088c-.357-.282-.56-.242-.762-.059-2.795-.916-4.57-6.488-6.814-8.237-1.382-1.078-3.261-1.34-4.446-.023a.447.447,0,0,0-.07-.124c-.78-.9-.942-2.934-2.317-3.282a1.514,1.514,0,0,0-1.777,1.2c-.7,2.184.974,5.924,3.072,6.794a3.292,3.292,0,0,0,1.549.251c.262-.024,1.542-.7,1.611-.673.262.09-.044,1.772.408,2.343a1.536,1.536,0,0,0,.861.524c1.253.4,1.554.138,2.112,1.494a2.75,2.75,0,0,0,.738,1.254,44.913,44.913,0,0,1-4.891,3.058,6.653,6.653,0,0,1-5.926.209,15.732,15.732,0,0,0-2.521-.96c.292.044-3.052.031-2.529.191-1.443-.442-1.614-1.5-2.408-3.216-.947-2.042-2.091-4.065-2.413-6.334s.271-4.124-1.511-5.791a.278.278,0,0,0-.429.055l-.353.448c-1.918,1.342-2.45.152-4.306-.652a.4.4,0,0,0-.51.271c-1.549,4.213.02,9.77,2.589,13.305,1.249,1.719,3,3.041,4.124,4.859.505.814.663,1.984,1.462,2.579,1.5,1.116,4.41.09,6.63.029a15.562,15.562,0,0,1-5.928,4.619.446.446,0,0,0-.176.193,11.647,11.647,0,0,0-1.888.166c-14.315-7-29.7-11.986-45.043-16.781a25.573,25.573,0,0,1-.153-8.047c1.44-2.668,2.54-5.014,5.31-6.783a.851.851,0,0,0-.024-1.279c-3.061-1.645-6.382,1.126-9.013,2.856q-.019-.23-.038-.461a.691.691,0,0,0-.5-.669l-1.177-.18c-.062-1.9.1-3.77.15-5.669a.847.847,0,0,0-.013-.136A45.251,45.251,0,0,1,22.4,30.548M35.245,93.2c-1.323-.091-1.81.527-3.232,1.375a17.181,17.181,0,0,1-6.325,2.537c-.99.162-2.133.12-3.131.358-2.565.61-3.214.872-5.676-.346-1.826-.9-2.584-1.3-3.386-3.287-.92-2.281-.4-5.076-.167-7.453.034-.346-.4-.759-.569-.281-.064.18-.115.36-.173.541a26.789,26.789,0,0,0-.2-5.334c-.542-3.87-3.785-14.479,4.161-10.9.317.143.582-.205.638-.482a22.72,22.72,0,0,0-.015-7.482c14.718,4.83,29.631,9.487,43.476,16.1-1.945.46-3.924,1.128-5.659,1.418-3.618.605-7.121,2.056-9.485,5.05-1.385,1.754-1.153,3.683-2.486,5.446-1.983,2.622-4.716,2.418-7.77,2.745M10.322,47.9a.7.7,0,0,0,.512.681l1.231.166q.04.426.081.852c.038.393.363.852.784.562,1.994-1.371,4.957-4,7.625-3.809-2.054,1.7-3.849,4.114-4.075,6.752-.96,2.716-.779,5.193-.395,8.063C11.8,59.828,7.529,58.5,3.283,57.151a51.459,51.459,0,0,1,7.134-14.429,22.4,22.4,0,0,0-.095,5.176m2.436,54.156A76.636,76.636,0,0,1,8.13,95.347a30.506,30.506,0,0,1-1.408-3.093C2.879,82.244.369,70.5,2.586,59.855c.15-.719.332-1.45.538-2.185,4.331,1.547,8.715,3.019,13.121,4.467a11.439,11.439,0,0,1,.35,3.134L15.534,68.36l-1.441-.415c-1.4.479-1.494-.522-2.936.591-1.5,1.159-1.534,3.568-1.44,5.236a29.163,29.163,0,0,0,.943,4.769,51.773,51.773,0,0,1,1.253,11.212c-.5,4.518,1.22,8.672,5.965,10.468,1.127.427.868.433,2,.168,2.252-.525,4.141-1.352,6.6-1.638,1.214-.141,3.226-.072,4.334-.741.4-.241.655-.756,1.023-1.045.938-.736,1.6-1.584,2.418-2.294a.369.369,0,0,0,.322.182c5.483-.224,7.854-.387,10.581-4.731.992-1.579,1.252-3.8,2.694-5.283,1.915-1.968,4.652-2.722,7.257-3.157a27.451,27.451,0,0,0,7.649-2.118A111.077,111.077,0,0,1,89.024,97.23a37.364,37.364,0,0,1-4.554,5.487C70.7,116.355,48.107,123,30.07,114.4c-6.447-3.076-12.643-7.056-17.312-12.343M32.187,126.9a5.825,5.825,0,0,0-.493,1.279c-.153-.048-.3-.113-.457-.154a.174.174,0,0,0-.111,0l-.322-.087a9.914,9.914,0,0,1,.3-1.374.5.5,0,0,0,.009-.076c.355.142.712.275,1.069.408M6.861,138.337a10.976,10.976,0,0,1,.686-2.543,1.647,1.647,0,0,0,.094-.319c6.434,1.537,13.02,2.5,19.477,3.963q4.746,1.079,9.458,2.3,3.213.834,6.4,1.745c2.678.763,4.253.121,3.129,3.378-6.106-1.986-12.637-3-18.893-4.4-6.637-1.487-13.537-3.621-20.357-4.118m37.406,1.21a16.372,16.372,0,0,1,1.6,2.327c-2.62-.941-6.7-1.466-8.215-1.857-9.13-2.36-18.6-4.876-28.031-5.951a83.287,83.287,0,0,1,8.957-3.137c4.729-1.227,8.627-.966,13.345-.516a4.591,4.591,0,0,0,1.951.858c2.257,1.755,4.78,3.264,6.952,5.043a28.441,28.441,0,0,1,3.442,3.233m49.7-33.491a41.3,41.3,0,0,1-17.364,15c-15.777,7.133-31.385,9.241-47.623,2.629.179-.487.325-.99.485-1.466.214-.637.413-1.277.575-1.927,27.079,14.011,64.239-5.1,70.859-34.237a68.52,68.52,0,0,0,.833-23.183c-.861-7.282-1.966-15.737-6.6-21.7C90.677,35.417,84.484,30.314,78.655,26c-6.758-5.007-14.3-8.451-22.817-8.371.017-.385.028-.77.056-1.154.026-.358-.054-.971.145-1.248.237-.33.082-.216.725-.209,1.628.019,3.259.083,4.887.054a.629.629,0,0,0,.359-.128c5.75,2.3,11.22,4,16.512,7.65A114.1,114.1,0,0,1,95.35,36.834c11.516,11.856,10.729,31.345,8.958,46.5a1.136,1.136,0,0,0,.1.62c-1.418,8.037-5.857,15.392-10.44,22.1" transform="translate(0 0)" fill="#c39a6b"/>
    <path id="Path_66754" data-name="Path 66754" d="M224.068,100.3l.187.119c.41.581.464-.894.077-.5l-.246.123c-.12.009-.13.232-.018.262" transform="translate(-145.616 -64.909)" fill="#c39a6b"/>
    <path id="Path_66755" data-name="Path 66755" d="M179.62,108.919a.272.272,0,0,0,.086.142c-.029.168.017.365.168.377a2.453,2.453,0,0,0,1.752-.519c.136.076.319.015.373-.22.262-1.159,5.521-5.5,2.265-6.841.355-1.909.344-4.282-1.008-5.723.147-.09.161-.452-.01-.527-1.1-.483-2.1.28-2.722,1.221-.47-1.784-1.457-3.6-3.628-2.941-.389.117-.388.727-.247,1.015,1.463,2.987-3.6,2.134-4.5,2.946a1.311,1.311,0,0,0-.288.357c-.043-.062-.119-.073-.139.029-.329,1.727,1.243,2.557,2.568,3.261,3.171,1.685,4.347,4.094,5.329,7.424m-7.454-9.906a.329.329,0,0,0,.028-.076c.061-.84,2.191-.526,2.72-.615a3.431,3.431,0,0,0,2-.966,2.624,2.624,0,0,0,.662-2.347c1.506-.019,2.194,1.849,2.426,3.133.065.36.5.675.68.183.393-1.076,1.232-1.453,2.1-1.924.663,1.956,1.318,3.531.559,5.721-.076.219-.026.707.239.8,1.782.626-1.484,3.4-1.815,4.029a2.448,2.448,0,0,0-.292.848c-.005.007-.011.007-.016.015a2.52,2.52,0,0,1-1.407.959h0a7.694,7.694,0,0,0-2.005-5.565,9.3,9.3,0,0,0-2.62-2.127c-1.039-.566-2.629-.969-3.265-2.068" transform="translate(-111.609 -60.947)" fill="#c39a6b"/>
    <path id="Path_66756" data-name="Path 66756" d="M126.879,265.435c.583-1.023.759-2.194,1.257-3.25a10.1,10.1,0,0,0,1.1-2.209c.338-1.67-1.731-4.264-2.611-2.314-2.054,2.025-4.235,3.9-6.375,5.834a7.152,7.152,0,0,0-1.276,1.37,12.99,12.99,0,0,0-1.686,3,2.438,2.438,0,0,0,.911,2.513c1.372,1.054,3,.253,4.241-.6a14.37,14.37,0,0,0,4.441-4.353m-7.8,3.2q-.954-.664-.294-1.132c-.031.2.591-.962.46-.745a11.969,11.969,0,0,1,2.04-2.811c1.934-1.825,3.854-3.659,5.893-5.367a1.706,1.706,0,0,1,.677.138c.622.414.067,1.608-.1,2.066-.288.792-.672,1.632-.99,2.425a9.566,9.566,0,0,1-2.9,3.944c-.866.744-2.487,2.34-3.626,2.247q-.989.525-1.161-.766" transform="translate(-76.2 -167.054)" fill="#c39a6b"/>
  </g>
</svg>
