<svg id="Group_158429" data-name="Group 158429" xmlns="http://www.w3.org/2000/svg" xmlns:xlink="http://www.w3.org/1999/xlink" width="68.103" height="68.028" viewBox="0 0 68.103 68.028">
  <defs>
    <clipPath id="clip-path">
      <rect id="Rectangle_14301" data-name="Rectangle 14301" width="68.103" height="68.028" fill="none"/>
    </clipPath>
  </defs>
  <g id="Group_158429-2" data-name="Group 158429" clip-path="url(#clip-path)">
    <path id="Path_63322" data-name="Path 63322" d="M114.888,238.161c.076-2.5-.236-4.993.331-7.441a13.734,13.734,0,0,1,12.423-10.363l-1.5-.427c-7.548-3.006-4.386-14.412,3.656-12.956,7.475,1.353,7.173,12.385-.3,13.317.124.191.272.172.463.2a13.468,13.468,0,0,1,9.478,5.4c2.744,3.724,2.838,7.789,2.68,12.267Z" transform="translate(-94.481 -170.132)" fill="#0aafe2"/>
    <path id="Path_63323" data-name="Path 63323" d="M271.253,238.223c.308-5.649-.383-11.242-4.236-15.612a12.984,12.984,0,0,1,6.361-2.193l-2.082-.639c-5.748-2.743-4.8-11.576,1.652-12.744a6.757,6.757,0,1,1,2.291,13.317c.124.191.272.172.463.2,5.773.872,9.86,4.187,11.561,9.829l.464,2.26v4.119a2.86,2.86,0,0,1-1.461,1.461Z" transform="translate(-219.624 -170.195)" fill="#0aafe2"/>
    <path id="Path_63324" data-name="Path 63324" d="M1.541,238.184C.887,237.8.277,237.448.11,236.627a19.633,19.633,0,0,1,.3-5.751,13.714,13.714,0,0,1,12.29-10.5l-1.5-.427c-5.185-1.764-5.849-9.407-1.149-12.116a6.8,6.8,0,0,1,9.959,7.966,6.637,6.637,0,0,1-5.452,4.447c.054.258.267.233.464.265a12.614,12.614,0,0,1,5.645,1.925,18.153,18.153,0,0,0-3.68,6.814c-.8,2.969-.54,5.887-.569,8.93Z" transform="translate(0 -170.156)" fill="#0aafe2"/>
    <path id="Path_63325" data-name="Path 63325" d="M87.483.037a2.848,2.848,0,0,1,1.565.232c6.688,1.965,13.424,5.29,20.124,7.378a2.011,2.011,0,0,1,.335,3.519L87.979,19.01,66.494,11.265a2.012,2.012,0,0,1,.076-3.577Z" transform="translate(-53.826 0)" fill="#fbab1e"/>
    <path id="Path_63326" data-name="Path 63326" d="M146.207,105.571v7.639c0,.359-.829,1.174-1.194,1.33L133.648,118.6l-11.489-4.058c-.366-.155-1.195-.971-1.195-1.33v-7.639c3.4,1.075,6.768,2.658,10.161,3.723a6.27,6.27,0,0,0,4.822.034c3.423-1.037,6.831-2.679,10.26-3.756" transform="translate(-99.494 -86.833)" fill="#fbab1e"/>
    <path id="Path_63327" data-name="Path 63327" d="M299.8,85.361v8.7c0,.466-.746,1.168-1.2,1.327-1.546.545-2.661-.441-2.794-1.986-.178-2.08.092-4.489.066-6.587Z" transform="translate(-243.257 -70.21)" fill="#fbab1e"/>
  </g>
</svg>
