<svg xmlns="http://www.w3.org/2000/svg" xmlns:xlink="http://www.w3.org/1999/xlink" width="320.453" height="23.999" viewBox="0 0 320.453 23.999">
  <defs>
    <clipPath id="clip-path">
      <rect id="Rectangle_10136" data-name="Rectangle 10136" width="320.453" height="23.999" fill="#ffce00"/>
    </clipPath>
  </defs>
  <g id="Group_158638" data-name="Group 158638" opacity="0.82">
    <g id="Group_158357" data-name="Group 158357" clip-path="url(#clip-path)">
      <path id="Path_64399" data-name="Path 64399" d="M320.449,9.923c.051,1.951-.463,3.116-1.3,3.81a3.857,3.857,0,0,1-1.47.725,6.766,6.766,0,0,1-.861.171c-.3.037-.6.057-.914.068-1.247.044-2.58-.071-3.789-.02-.3.013-.6.036-.88.074a5.957,5.957,0,0,0-.815.155,3.264,3.264,0,0,0-1.364.711,137,137,0,0,1-19.1,1.694c-6.391.166-12.759.061-19.03-.057l0-.035a.509.509,0,0,1-.881.023c-.526.865-1.584-.755-2.475-.087-.927-.9-2.238,1.1-3.424,0-8.41.781-17.223.4-25.719.682l.018.106c-2.129.213-4.407.429-6.759.612s-4.778.332-7.2.429a122.685,122.685,0,0,1-13.919-.118c-2.32-.134-4.729,1.136-6.97.325-.207.089-.528.312-.722.019-.626-.11-1.332.605-1.9.136a27.7,27.7,0,0,1-4.84,1.235,36.03,36.03,0,0,1-4.977.471c0-.035,0-.073,0-.107a58.5,58.5,0,0,0-5.964.562,52.874,52.874,0,0,1-5.912.517c-3.135.154-6.219.747-9.264.448,0,.079,0,.15,0,.227a30.953,30.953,0,0,0-4.149.308c-1.381.177-2.76.406-4.138.6a23.387,23.387,0,0,1-8.255.033c0,.038.005.073.008.111-7.4-.462-14.509.818-21.851-.2-3.952-1.671-7.965-1.357-11.955-1.826-.557-.691-4.448,0-5.144-.213,0,.038,0,.073.005.112-3.686.033-7.378-.253-11.074-.525,0-.077-.006-.154-.009-.232-2.46,0-4.925-.011-7.384,0s-4.912.036-7.351.083c-2.464-.039-4.851.216-7.23-.691-.51.176-1.121-.554-1.5.769-2.9,0-5.683.48-8.585.448l0-.1c-4.535-.173-9.117.125-13.689.338a80.866,80.866,0,0,1-13.6-.232c-5.384.724-10.768,1.918-16.085.589A107.316,107.316,0,0,0,16.951,21.1a6.449,6.449,0,0,0-4.237-.531c-.519.253-.957-.227-1.429-.389a6.857,6.857,0,0,1-3.312.276c-.929-.159-1.641-1.44-2.6-1.413-3.118-.5-4.4-3.879-5.325-9.4a2.745,2.745,0,0,1,.313-1.9,3.821,3.821,0,0,1,1.5-1.332,15.322,15.322,0,0,1,5.2-1.384c3.977-.491,8.349-.3,9.323-.465,3.489-.072,6.988.189,10.449.287,2.166-.285,4.487.27,6.72.121v0l1.964.057.015-.231C45.737,5.193,55.9,5.956,66.09,7.1a32.563,32.563,0,0,0,4.269-.282c2.449,0,4.874.871,7.366.763l-.015-.107a.751.751,0,0,1,1.1-.182c.676.448,1.468-.245,2.1.45a.315.315,0,0,1,.562.06c8-2.19,16.349.261,24.751-.172-.079.03-.149.09-.185.292l10.333-.054,0-.232a20.579,20.579,0,0,1-2.209-.04,42.525,42.525,0,0,1,6.093-.18,56.45,56.45,0,0,0,6.1-.087c0,.035,0,.073,0,.107q5.323-.066,10.643-.149l-.013.12c.286.283.563.416.807-.077a.193.193,0,0,0,.019.051l0,.013a.738.738,0,0,0,1.325-.111.994.994,0,0,0,1.785-.068c.949.013,1.876.075,2.806.006-.078.027-.146.106-.2.287l1.181-.006c-.078-.243-.184-.275-.292-.286a13.605,13.605,0,0,0,4.548.6l-.021-.077c6.047-.5,12.583-.619,18.784-.974,0,.034,0,.073,0,.107,9.192-.058,18.49-.732,27.76-1.282a259.791,259.791,0,0,1,27.691-.538c8.875.316,17.8.559,26.52-.61a51.958,51.958,0,0,1,6.327-.19,26.858,26.858,0,0,0,6.23-.555c1.6.533,3.154-.389,4.824.153.544.139.845-.854,1.39-.521a.7.7,0,0,1,1.163.173c5.907-.383,11.841-.854,17.76-1.413,2.964-.269,5.909-.595,8.856-.917l4.4-.53c1.464-.182,2.917-.39,4.374-.584,1.5-.337,2.851.812,4,1.974s2.062,2.313,2.63,1.938c.363-.154.724-.321,1.093-.463a5.341,5.341,0,0,1,1.134-.333,3.6,3.6,0,0,1,2.658.671c1.353,1.611,3.465,3.4,3.915,6.076" transform="translate(0 0)" fill="#ffce00"/>
    </g>
  </g>
</svg>
