<svg xmlns="http://www.w3.org/2000/svg" xmlns:xlink="http://www.w3.org/1999/xlink" width="483.717" height="54.5" viewBox="0 0 483.717 54.5">
  <defs>
    <clipPath id="clip-path">
      <rect id="Rectangle_10136" data-name="Rectangle 10136" width="300" height="23.999" fill="#ffce00"/>
    </clipPath>
    <clipPath id="clip-path-2">
      <rect id="Rectangle_10136-2" data-name="Rectangle 10136" width="244.863" height="23.999" fill="#ffce00"/>
    </clipPath>
    <clipPath id="clip-path-3">
      <rect id="Rectangle_10136-3" data-name="Rectangle 10136" width="143.58" height="23.999" fill="#ffce00"/>
    </clipPath>
  </defs>
  <g id="Group_158666" data-name="Group 158666" transform="translate(-10258.283 -115.756)">
    <g id="Group_158664" data-name="Group 158664" transform="translate(10442 115.756)" opacity="0.82">
      <g id="Group_158357" data-name="Group 158357" clip-path="url(#clip-path)">
        <path id="Path_64399" data-name="Path 64399" d="M300,9.923c.048,1.951-.434,3.116-1.218,3.81a3.525,3.525,0,0,1-1.376.725,5.98,5.98,0,0,1-.806.171c-.278.037-.564.057-.856.068-1.167.044-2.416-.071-3.547-.02-.283.013-.559.036-.824.074a5.259,5.259,0,0,0-.763.155,2.994,2.994,0,0,0-1.277.711,120.284,120.284,0,0,1-17.88,1.694c-5.983.166-11.945.061-17.816-.057l0-.035a.462.462,0,0,1-.825.023c-.493.865-1.483-.755-2.317-.087-.868-.9-2.1,1.1-3.205,0-7.873.781-16.124.4-24.077.682l.017.106c-1.994.213-4.126.429-6.328.612s-4.473.332-6.743.429a107.538,107.538,0,0,1-13.03-.118c-2.172-.134-4.427,1.136-6.525.325-.194.089-.494.312-.676.019-.586-.11-1.247.605-1.782.136a24.6,24.6,0,0,1-4.531,1.235,31.642,31.642,0,0,1-4.659.471c0-.035,0-.073,0-.107a51.369,51.369,0,0,0-5.583.562,46.42,46.42,0,0,1-5.535.517c-2.935.154-5.822.747-8.673.448,0,.079,0,.15,0,.227a27.164,27.164,0,0,0-3.884.308c-1.293.177-2.584.406-3.874.6a20.52,20.52,0,0,1-7.728.033c0,.038.005.073.008.111-6.931-.462-13.583.818-20.456-.2-3.7-1.671-7.457-1.357-11.192-1.826-.521-.691-4.164,0-4.816-.213,0,.038,0,.073,0,.112-3.45.033-6.907-.253-10.367-.525,0-.077-.005-.154-.008-.232-2.3,0-4.61-.011-6.912,0s-4.6.036-6.882.083c-2.307-.039-4.542.216-6.769-.691-.478.176-1.049-.554-1.407.769-2.715,0-5.321.48-8.037.448l0-.1c-4.245-.173-8.535.125-12.815.338A70.9,70.9,0,0,1,41.3,21.483c-5.041.724-10.081,1.918-15.059.589a94.213,94.213,0,0,0-10.37-.967,5.692,5.692,0,0,0-3.966-.531c-.486.253-.9-.227-1.337-.389a6.031,6.031,0,0,1-3.1.276c-.87-.159-1.536-1.44-2.438-1.413C2.108,18.548.9,15.168.042,9.643a2.906,2.906,0,0,1,.293-1.9,3.67,3.67,0,0,1,1.4-1.332A13.636,13.636,0,0,1,6.607,5.03c3.723-.491,7.816-.3,8.728-.465,3.267-.072,6.542.189,9.782.287,2.028-.285,4.2.27,6.292.121v0l1.838.057.014-.231c9.557.39,19.068,1.153,28.61,2.3a28.57,28.57,0,0,0,4-.282c2.292,0,4.563.871,6.9.763l-.014-.107a.676.676,0,0,1,1.033-.182c.633.448,1.374-.245,1.965.45a.287.287,0,0,1,.526.06c7.489-2.19,15.305.261,23.172-.172-.074.03-.14.09-.173.292l9.673-.054,0-.232a18.039,18.039,0,0,1-2.068-.04,37.284,37.284,0,0,1,5.7-.18,49.482,49.482,0,0,0,5.707-.087c0,.035,0,.073,0,.107q4.983-.066,9.964-.149l-.012.12c.268.283.527.416.755-.077a.2.2,0,0,0,.018.051l0,.013c.326.447.989.555,1.241-.111a.906.906,0,0,0,1.671-.068c.888.013,1.756.075,2.626.006-.073.027-.137.106-.189.287l1.105-.006c-.073-.243-.173-.275-.273-.286a11.979,11.979,0,0,0,4.258.6l-.02-.077c5.661-.5,11.78-.619,17.585-.974,0,.034,0,.073,0,.107,8.605-.058,17.31-.732,25.989-1.282a227.727,227.727,0,0,1,25.924-.538c8.309.316,16.667.559,24.828-.61a45.552,45.552,0,0,1,5.923-.19,23.59,23.59,0,0,0,5.833-.555c1.5.533,2.953-.389,4.516.153.509.139.791-.854,1.3-.521.248-.334.768-.362,1.089.173,5.53-.383,11.085-.854,16.626-1.413,2.774-.269,5.532-.595,8.291-.917l4.12-.53c1.371-.182,2.731-.39,4.095-.584,1.4-.337,2.669.812,3.741,1.974s1.93,2.313,2.462,1.938c.34-.154.678-.321,1.023-.463a4.761,4.761,0,0,1,1.062-.333,3.207,3.207,0,0,1,2.489.671c1.267,1.611,3.244,3.4,3.665,6.076" transform="translate(0 0)" fill="#ffce00"/>
      </g>
    </g>
    <g id="Group_158665" data-name="Group 158665" transform="translate(10442 143.257)" opacity="0.82">
      <g id="Group_158357-2" data-name="Group 158357" clip-path="url(#clip-path-2)">
        <path id="Path_64399-2" data-name="Path 64399" d="M244.86,9.923c.039,1.951-.354,3.116-.994,3.81a2.75,2.75,0,0,1-1.123.725,4.115,4.115,0,0,1-.658.171,6.144,6.144,0,0,1-.7.068c-.953.044-1.972-.071-2.895-.02a5.585,5.585,0,0,0-.673.074,3.611,3.611,0,0,0-.623.155,2.366,2.366,0,0,0-1.042.711,80.725,80.725,0,0,1-14.594,1.694c-4.883.166-9.75.061-14.541-.057l0-.035c-.17.3-.421.4-.673.023-.4.865-1.21-.755-1.891-.087-.709-.9-1.71,1.1-2.616,0-6.426.781-13.161.4-19.652.682l.014.106c-1.627.213-3.368.429-5.165.612s-3.651.332-5.5.429a71.68,71.68,0,0,1-10.635-.118c-1.773-.134-3.613,1.136-5.326.325-.158.089-.4.312-.552.019-.478-.11-1.018.605-1.455.136a17.262,17.262,0,0,1-3.7,1.235,21.255,21.255,0,0,1-3.8.471c0-.035,0-.073,0-.107a34.493,34.493,0,0,0-4.557.562,31.14,31.14,0,0,1-4.517.517c-2.4.154-4.752.747-7.079.448,0,.079,0,.15,0,.227a18.193,18.193,0,0,0-3.17.308c-1.055.177-2.109.406-3.162.6a13.732,13.732,0,0,1-6.308.033c0,.038,0,.073.006.111-5.658-.462-11.086.818-16.7-.2-3.019-1.671-6.087-1.357-9.135-1.826-.425-.691-3.4,0-3.931-.213,0,.038,0,.073,0,.112a78.94,78.94,0,0,1-8.462-.525c0-.077,0-.154-.007-.232-1.88,0-3.763-.011-5.642,0s-3.754.036-5.617.083c-1.883-.039-3.707.216-5.525-.691-.39.176-.857-.554-1.149.769-2.216,0-4.343.48-6.56.448l0-.1a94.788,94.788,0,0,0-10.46.338,47.29,47.29,0,0,1-10.394-.232c-4.114.724-8.228,1.918-12.291.589a63.2,63.2,0,0,0-8.464-.967,3.9,3.9,0,0,0-3.237-.531c-.4.253-.731-.227-1.092-.389a4.075,4.075,0,0,1-2.53.276c-.71-.159-1.254-1.44-1.99-1.413-2.382-.5-3.365-3.879-4.069-9.4a3.484,3.484,0,0,1,.239-1.9A3.37,3.37,0,0,1,1.418,6.415,9.647,9.647,0,0,1,5.392,5.03c3.039-.491,6.379-.3,7.124-.465,2.666-.072,5.34.189,7.984.287,1.655-.285,3.429.27,5.135.121v0l1.5.057.012-.231c7.8.39,15.563,1.153,23.352,2.3a19.116,19.116,0,0,0,3.262-.282c1.871,0,3.725.871,5.628.763l-.011-.107c.259-.47.564-.381.843-.182.517.448,1.121-.245,1.6.45.134-.193.312-.216.429.06,6.113-2.19,12.492.261,18.913-.172-.06.03-.114.09-.142.292l7.9-.054,0-.232a12.026,12.026,0,0,1-1.688-.04,24.875,24.875,0,0,1,4.656-.18,32.984,32.984,0,0,0,4.658-.087c0,.035,0,.073,0,.107,2.711-.044,5.423-.088,8.133-.149l-.01.12c.219.283.43.416.616-.077a.231.231,0,0,0,.015.051v.013c.266.447.807.555,1.013-.111.4.73,1.107.68,1.364-.068a18.7,18.7,0,0,0,2.144.006c-.06.027-.112.106-.154.287l.9-.006c-.06-.243-.141-.275-.223-.286a8.128,8.128,0,0,0,3.475.6l-.016-.077c4.62-.5,9.615-.619,14.353-.974,0,.034,0,.073,0,.107,7.024-.058,14.129-.732,21.212-1.282a151.823,151.823,0,0,1,21.159-.538c6.781.316,13.6.559,20.265-.61a30.386,30.386,0,0,1,4.834-.19,15.852,15.852,0,0,0,4.761-.555c1.225.533,2.41-.389,3.686.153.416.139.646-.854,1.062-.521.2-.334.627-.362.889.173,4.514-.383,9.048-.854,13.57-1.413,2.264-.269,4.515-.595,6.767-.917l3.362-.53c1.119-.182,2.229-.39,3.342-.584,1.147-.337,2.179.812,3.054,1.974s1.576,2.313,2.01,1.938c.277-.154.553-.321.835-.463a3.392,3.392,0,0,1,.867-.333,2.272,2.272,0,0,1,2.031.671c1.034,1.611,2.648,3.4,2.991,6.076" transform="translate(0 0)" fill="#ffce00"/>
      </g>
    </g>
    <g id="Group_158663" data-name="Group 158663" transform="translate(10258.283 146.257)" opacity="0.82">
      <g id="Group_158357-3" data-name="Group 158357" clip-path="url(#clip-path-3)">
        <path id="Path_64399-3" data-name="Path 64399" d="M143.578,9.923a8.15,8.15,0,0,1-.583,3.81,1.839,1.839,0,0,1-.659.725,1.682,1.682,0,0,1-.386.171,2.172,2.172,0,0,1-.41.068c-.559.044-1.156-.071-1.7-.02a1.99,1.99,0,0,0-.394.074,1.459,1.459,0,0,0-.365.155,1.647,1.647,0,0,0-.611.711,28.921,28.921,0,0,1-8.557,1.694,85.1,85.1,0,0,1-8.527-.057l0-.035c-.1.3-.247.4-.395.023-.236.865-.71-.755-1.109-.087-.416-.9-1,1.1-1.534,0-3.768.781-7.717.4-11.523.682l.008.106c-.954.213-1.975.429-3.029.612s-2.141.332-3.227.429a24.72,24.72,0,0,1-6.236-.118c-1.04-.134-2.119,1.136-3.123.325-.093.089-.237.312-.324.019-.28-.11-.6.605-.853.136a7.738,7.738,0,0,1-2.168,1.235,7.652,7.652,0,0,1-2.23.471c0-.035,0-.073,0-.107a12.4,12.4,0,0,0-2.672.562,11.131,11.131,0,0,1-2.649.517c-1.4.154-2.787.747-4.151.448,0,.079,0,.15,0,.227a6.444,6.444,0,0,0-1.859.308c-.619.177-1.237.406-1.854.6a4.842,4.842,0,0,1-3.7.033c0,.038,0,.073,0,.111-3.317-.462-6.5.818-9.79-.2-1.771-1.671-3.569-1.357-5.357-1.826-.249-.691-1.993,0-2.3-.213,0,.038,0,.073,0,.112a27.477,27.477,0,0,1-4.962-.525c0-.077,0-.154,0-.232-1.1,0-2.206-.011-3.308,0s-2.2.036-3.294.083c-1.1-.039-2.174.216-3.24-.691-.229.176-.5-.554-.674.769-1.3,0-2.546.48-3.846.448l0-.1a32.735,32.735,0,0,0-6.133.338,16.377,16.377,0,0,1-6.094-.232c-2.412.724-4.825,1.918-7.207.589A22.577,22.577,0,0,0,7.595,21.1c-.587-.528-1.295-.975-1.9-.531-.233.253-.429-.227-.64-.389a1.512,1.512,0,0,1-1.484.276c-.416-.159-.735-1.44-1.167-1.413-1.4-.5-1.973-3.879-2.386-9.4a5.768,5.768,0,0,1,.14-1.9A3.494,3.494,0,0,1,.831,6.415,4.462,4.462,0,0,1,3.162,5.03a31.175,31.175,0,0,1,4.177-.465,43.056,43.056,0,0,1,4.682.287c.97-.285,2.01.27,3.011.121v0l.88.057.007-.231A86.37,86.37,0,0,1,29.612,7.1a6.735,6.735,0,0,0,1.913-.282c1.1,0,2.184.871,3.3.763l-.007-.107c.152-.47.331-.381.495-.182.3.448.658-.245.941.45.079-.193.183-.216.252.06,3.584-2.19,7.325.261,11.09-.172-.035.03-.067.09-.083.292l4.63-.054,0-.232a4.152,4.152,0,0,1-.99-.04,8.625,8.625,0,0,1,2.73-.18,11.379,11.379,0,0,0,2.731-.087c0,.035,0,.073,0,.107,1.59-.044,3.18-.088,4.769-.149l-.006.12c.128.283.252.416.361-.077a.363.363,0,0,0,.009.051v.013c.156.447.473.555.594-.111.235.73.649.68.8-.068a6.438,6.438,0,0,0,1.257.006c-.035.027-.066.106-.09.287l.529-.006c-.035-.243-.083-.275-.131-.286a3.083,3.083,0,0,0,2.038.6l-.009-.077c2.709-.5,5.638-.619,8.416-.974,0,.034,0,.073,0,.107A107.462,107.462,0,0,0,87.588,5.592,52.418,52.418,0,0,1,100,5.054c3.976.316,7.977.559,11.883-.61a10.525,10.525,0,0,1,2.835-.19A5.718,5.718,0,0,0,117.5,3.7c.718.533,1.413-.389,2.161.153.244.139.379-.854.623-.521.119-.334.367-.362.521.173,2.647-.383,5.306-.854,7.957-1.413,1.328-.269,2.648-.595,3.968-.917l1.972-.53c.656-.182,1.307-.39,1.96-.584.672-.337,1.278.812,1.791,1.974s.924,2.313,1.178,1.938c.163-.154.324-.321.49-.463a1.625,1.625,0,0,1,.508-.333c.352-.124.735,0,1.191.671a19.376,19.376,0,0,1,1.754,6.076" transform="translate(0 0)" fill="#ffce00"/>
      </g>
    </g>
  </g>
</svg>
