<svg id="Group_156804" data-name="Group 156804" xmlns="http://www.w3.org/2000/svg" xmlns:xlink="http://www.w3.org/1999/xlink" width="63" height="42.57" viewBox="0 0 63 42.57">
  <defs>
    <clipPath id="clip-path">
      <rect id="Rectangle_8580" data-name="Rectangle 8580" width="63" height="42.569" fill="#fff"/>
    </clipPath>
  </defs>
  <g id="Group_155597" data-name="Group 155597" transform="translate(0 0)" clip-path="url(#clip-path)">
    <path id="Path_61420" data-name="Path 61420" d="M19.389,10.074a1.153,1.153,0,0,0,.193.016,1.048,1.048,0,0,0,.191-2.077L12.685,6.687l.251-.72a1.049,1.049,0,0,0-.584-1.312L1.47.081a1.047,1.047,0,1,0-.812,1.93l9.974,4.2L4.54,23.611,1.38,22.553a1.047,1.047,0,0,0-.665,1.985l4.139,1.385a1,1,0,0,0,.333.055,1.051,1.051,0,0,0,.99-.7L11.984,8.689Z" transform="translate(0 0)" fill="#fff"/>
    <path id="Path_61421" data-name="Path 61421" d="M66.349,22.851A1.049,1.049,0,0,0,65,22.24l-3.8,1.434L55.124,6.323,65.569,2.138A1.047,1.047,0,0,0,64.793.193L53.417,4.752a1.047,1.047,0,0,0-.6,1.316l.2.567-3.108.856q-.311-.286-.665-.556a1,1,0,0,0-.409-.188C43.22,5.521,36.248,4.174,34.928,4.72c-2.206.908-6.263,3.7-8.684,5.368l-1.072.734a1.041,1.041,0,0,0-.452.725A23.348,23.348,0,0,1,23.5,15.593c-.357.99-.742,2.061-1.1,3.207a1.047,1.047,0,0,0,.245,1.039A5.629,5.629,0,0,0,26.7,21.679a5.3,5.3,0,0,0,.619-.038,5.123,5.123,0,0,0,3.8-2.481A16.3,16.3,0,0,0,32.3,16.324c1.009-.188,2.656-.542,3.817-.812a.334.334,0,0,0,.033.024L48.91,23.377l6.863,3.755.008,0s.01.008.019.013a1.907,1.907,0,0,1,.774,2.544,1.81,1.81,0,0,1-2.476.794l-7.076-3.512a1.046,1.046,0,0,0-1.036,1.813l3.474,2.257a1.7,1.7,0,0,1,.627,2.4,1.965,1.965,0,0,1-1.15.949,1.651,1.651,0,0,1-1.282-.136l-5.442-2.975a1.047,1.047,0,0,0-1.1,1.778l2.86,1.988A2,2,0,0,1,44.092,37a1.918,1.918,0,0,1-2.6.654L38.4,36.037a1.118,1.118,0,0,0-1.284.248,1.052,1.052,0,0,0-.038,1.4,1.837,1.837,0,0,1,.11,1.968,1.624,1.624,0,0,1-1,.766,2.229,2.229,0,0,1-1.658-.177l-.619-.335a3.464,3.464,0,0,0-.147-4.7l-.678-.679a3.513,3.513,0,0,0-3.1-.932,3.451,3.451,0,0,0-.984-2.6l-.679-.684a3.514,3.514,0,0,0-3.1-.933c0-.052.016-.1.016-.153a3.434,3.434,0,0,0-1-2.449l-.682-.69a3.529,3.529,0,0,0-3.291-.881c0-.03.008-.06.008-.09a3.435,3.435,0,0,0-1-2.451l-.681-.688a3.557,3.557,0,0,0-4.892-.024l-1.38,1.358a3.47,3.47,0,0,0-.019,4.9l.681.684a3.413,3.413,0,0,0,2.192.993,3.464,3.464,0,0,0,.728,3.793l.679.684a3.465,3.465,0,0,0,3.792.755,3.4,3.4,0,0,0,.971,2.1l.679.685a3.46,3.46,0,0,0,3.792.758,3.424,3.424,0,0,0,.968,2.1l.681.687a3.466,3.466,0,0,0,4.889.022l.008-.008,1.153.625a4.291,4.291,0,0,0,3.251.349,3.714,3.714,0,0,0,2.246-1.772,3.983,3.983,0,0,0,.475-1.685l1,.526a4.036,4.036,0,0,0,5.426-1.5,3.844,3.844,0,0,0,.447-2.064l.272.147a3.748,3.748,0,0,0,2.876.308,4.068,4.068,0,0,0,2.4-1.954,3.993,3.993,0,0,0,.472-2.473l.736.365a3.87,3.87,0,0,0,5.279-1.647A4.037,4.037,0,0,0,56.8,25.3s-.008,0-.01-.006l-.014-.008-6.817-3.729L37.237,13.75a1.177,1.177,0,0,0-.218-.1,1.036,1.036,0,0,0-.976-.275c-1.508.357-4.058.9-4.7.981a1.043,1.043,0,0,0-.867.744,15.945,15.945,0,0,1-1.181,3,3.06,3.06,0,0,1-2.241,1.456,3.256,3.256,0,0,1-2.463-.769c.289-.88.586-1.712.867-2.492a29.132,29.132,0,0,0,1.244-4l.717-.491c2.2-1.513,6.3-4.335,8.229-5.137.973-.188,7.067.886,12.5,2.067a8.634,8.634,0,0,1,.714.654,1.047,1.047,0,0,0,1.023.276L53.7,8.615,59.57,25.378a1.047,1.047,0,0,0,.987.7.991.991,0,0,0,.368-.068L65.732,24.2a1.043,1.043,0,0,0,.616-1.346ZM13.8,26.744a1.368,1.368,0,0,1,.006-1.933l1.38-1.356a1.376,1.376,0,0,1,1.936.006l.682.687a1.367,1.367,0,0,1,.392.968,1.354,1.354,0,0,1-.4.96l-1.38,1.358a1.407,1.407,0,0,1-1.933-.008ZM18.081,32.9l-.684-.687a1.368,1.368,0,0,1,.01-1.93l2.74-2.719a1.38,1.38,0,0,1,1.936.008l.681.69a1.368,1.368,0,0,1-.011,1.931l-2.74,2.718A1.407,1.407,0,0,1,18.081,32.9Zm5.442,3.54-.681-.69a1.369,1.369,0,0,1,.008-1.928l2.061-2.037a1.36,1.36,0,0,1,.963-.393,1.342,1.342,0,0,1,.971.4l.679.685a1.374,1.374,0,0,1-.006,1.933l-2.061,2.037A1.408,1.408,0,0,1,23.523,36.438Zm5.442,3.542-.682-.687a1.377,1.377,0,0,1,0-1.933L29.666,36a1.379,1.379,0,0,1,1.938.01l.676.679a1.371,1.371,0,0,1,0,1.933L30.9,39.982A1.407,1.407,0,0,1,28.965,39.979Z" transform="translate(-3.416 -0.036)" fill="#fff"/>
  </g>
</svg>
