<svg xmlns="http://www.w3.org/2000/svg" xmlns:xlink="http://www.w3.org/1999/xlink" width="71.651" height="69.164" viewBox="0 0 71.651 69.164">
  <defs>
    <clipPath id="clip-path">
      <rect id="Rectangle_10077" data-name="Rectangle 10077" width="71.651" height="69.164" fill="none"/>
    </clipPath>
  </defs>
  <g id="icon3" clip-path="url(#clip-path)">
    <path id="Path_62241" data-name="Path 62241" d="M65.424,4.339A5.727,5.727,0,0,0,59.7,10.066c.112,2.392,2.891,6.69,4.907,9.537a1.026,1.026,0,0,0,1.679-.042c3.047-4.287,4.868-7.838,4.868-9.5A5.727,5.727,0,0,0,65.424,4.339Zm0,8.9a3.167,3.167,0,1,1,3.166-3.166A3.167,3.167,0,0,1,65.424,13.24Z" fill="none" stroke="#fdab1d" stroke-miterlimit="10" stroke-width="1"/>
    <path id="Path_62242" data-name="Path 62242" d="M66.632,21.4a34.756,34.756,0,0,1,.637,24.657l-1.258-.247c-.968-.306-2.832.834-3.717,1.151a.721.721,0,0,1-.957-.356.733.733,0,0,1-.062-.23,2.414,2.414,0,0,0-2.625-2.069l-4.023.413c-1.058.023-2.158,1.44-2.888,2.078a2.937,2.937,0,0,1-4.733-3.212l1.564-3.9a2.4,2.4,0,0,0,.081-1.473L47.16,32.358a1.139,1.139,0,0,1,.216-1.01l1.53-1.971a2.828,2.828,0,0,0,.463-2.617l-.778-2.409a1.174,1.174,0,0,1,.149-1.019,39.541,39.541,0,0,1,2.3-3.3c-.025-.262,4.764.354,5.025.331a2.418,2.418,0,0,0,2.443-1.483l1.1-2.714c.07-.216.32-.368.5-.5.66,1.168,1.39,2.3,2.137,3.437,1.019,1.659,2.221,3.267,4.388,2.3Z" fill="#06b0e3"/>
    <path id="Path_62243" data-name="Path 62243" d="M38.4,41.71a5.727,5.727,0,0,0-11.454,0c0,1.673,1.789,5.149,4.908,9.528.688.875,1.606.3,2.01-.531v0C35.935,47.883,38.6,43.057,38.4,41.71ZM32.67,44.882a3.17,3.17,0,1,1,3.113-3.113A3.17,3.17,0,0,1,32.67,44.882Z" fill="none" stroke="#fdab1d" stroke-miterlimit="10" stroke-width="1"/>
    <path id="Path_62244" data-name="Path 62244" d="M65.705,47.426c-.29-.138-2.448.965-2.748,1.058h0A2.411,2.411,0,0,1,59.795,47.2a2.435,2.435,0,0,1-.168-.616.733.733,0,0,0-.8-.637l-4.015.4c-.4-.014-1.634,1.412-1.929,1.631a4.577,4.577,0,0,1-7.408-5.016l1.547-3.891a.7.7,0,0,0,.025-.455L45.556,32.77c-.558-1.7,1.176-3.189,2.053-4.41a1.22,1.22,0,0,0,.19-1.092c-.4-1.432-1.513-3.442-.438-4.851l2.052-3.071a2.4,2.4,0,0,1,2.218-1.059l4.585.421a.734.734,0,0,0,.761-.455l1.1-2.706a2.958,2.958,0,0,1,1.241-1.35,8.867,8.867,0,0,1-1.225-5.051C46.465-1.974,27.112-3.108,14.262,6.592c-.134,2.7-1.738,5.07-3.062,7.35a1.319,1.319,0,0,0,.76.7L17.449,16.5a2.935,2.935,0,0,1,2,2.791v2.681a1.307,1.307,0,0,0,.663,1.126L23.527,25a2.929,2.929,0,0,1,1.516,2.566v1.788a2.956,2.956,0,0,1-1.381,2.49l-3.1,1.937a1.262,1.262,0,0,0-.6.96l-.446,4.728a1.391,1.391,0,0,0,1.267,1.5,1.309,1.309,0,0,0,.2,0c1-.04,1.078-1.176,1.721-1.713a4.5,4.5,0,0,1,3.552-1.2,7.4,7.4,0,0,1,13.8,3.65c-.275,3.181-2.291,5.979-3.939,8.633,0,.009-.009.009-.009.017h.752A2.94,2.94,0,0,1,39.8,53.3v2.443c.107.814-1.373,3.764-1.631,4.545A2.967,2.967,0,0,1,35.194,62.1a11.365,11.365,0,0,0-2.574-.059c-.224.48-.62,1.424-.943,2.2a1.33,1.33,0,0,0-.017.96c.1.317,1.46,3.68,1.457,3.925a34.8,34.8,0,0,0,33.557-21.5ZM38.911,15.555h0c-1.059.935-2.667,2-2.533,3.616l.1,5.5a1.321,1.321,0,0,1-2.583.382L32.8,21.1a2.952,2.952,0,0,0-.9-1.432L27.389,15.69a1.3,1.3,0,0,1-.413-1.266l.5-2.243c.241-.848-.259-2.224-.43-3.054-.3-1.075,1.067-1.783,1.673-2.434a1.325,1.325,0,0,1,1.373-.247c.657.287,1.757.52,1.9,1.365l.241,1.01A2.959,2.959,0,0,0,35.421,11.1l1.342-.14c2.314-.269,4.074,3,2.148,4.6" fill="#06b0e3"/>
    <path id="Path_62245" data-name="Path 62245" d="M12.592,6.234a5.727,5.727,0,0,0-11.434.43c0,1.521,1.53,4.626,4.2,8.5.215.361.481.7.718,1.036a1.035,1.035,0,0,0,1.454.17,1,1,0,0,0,.177-.179C9.944,13.035,12.907,8.341,12.592,6.234Zm-5.7,3.6a3.17,3.17,0,0,1,0-6.339,3.17,3.17,0,0,1,0,6.339Z" fill="none" stroke="#fdab1d" stroke-miterlimit="10" stroke-width="1"/>
    <path id="Path_62246" data-name="Path 62246" d="M30.138,63.612a2.916,2.916,0,0,0-.034,2.175L31.336,69C6.578,66.916-8.068,38.551,4.717,17.152A2.781,2.781,0,0,0,6.247,18.2c2.032.53,3.054-1.35,3.989-2.757a3.346,3.346,0,0,0,1.193.778l5.489,1.861a1.275,1.275,0,0,1,.87,1.215v2.681A2.923,2.923,0,0,0,19.3,24.541l3.42,1.9c.991.533.584,1.92.662,2.914a1.287,1.287,0,0,1-.6,1.083l-3.088,1.938a2.9,2.9,0,0,0-1.373,2.218l-.447,4.719a2.988,2.988,0,0,0,5.68,1.572,2.415,2.415,0,0,1,2.01-1.168C24.4,43.734,27.653,47.881,30.5,52.2a2.687,2.687,0,0,0,4.469-.183h1.887a1.282,1.282,0,0,1,1.284,1.28v0a19.384,19.384,0,0,1-.09,2.931L36.64,59.653a1.272,1.272,0,0,1-1.291.786c-3.046-.28-3.79.009-4.1.629-.272.542-1.025,2.339-1.106,2.543Z" fill="#06b0e3"/>
  </g>
</svg>
