<svg xmlns="http://www.w3.org/2000/svg" xmlns:xlink="http://www.w3.org/1999/xlink" width="80.296" height="69.164" viewBox="0 0 80.296 69.164">
  <defs>
    <clipPath id="clip-path">
      <rect id="Rectangle_10078" data-name="Rectangle 10078" width="80.296" height="69.164" fill="none"/>
    </clipPath>
  </defs>
  <g id="icon4" clip-path="url(#clip-path)">
    <path id="Path_62247" data-name="Path 62247" d="M73.861,44.129l-.555-.462a23.165,23.165,0,0,0-.057-6.814l.542-.471,3.14-2.73L73.679,25.99l-4.149.359-.716.063a23.128,23.128,0,0,0-4.857-4.77l.052-.72L64.3,16.77l-3.86-1.56-3.858-1.559L53.9,16.835l-.466.553v0a23.072,23.072,0,0,0-6.812.058l-.471-.543-2.732-3.142-7.667,3.256.363,4.147.064.715A23.073,23.073,0,0,0,31.4,26.745l-.717-.051-4.145-.29-1.559,3.859L23.422,34.12,26.611,36.8l.551.462a23.22,23.22,0,0,0,.064,6.811l-.542.471L23.545,47.27,26.8,54.934l4.144-.363.715-.063a23.2,23.2,0,0,0,4.863,4.775L36.47,60l-.293,4.15,3.86,1.559,3.855,1.559,2.674-3.189.462-.55a23.165,23.165,0,0,0,6.814-.061l.47.543,2.732,3.142L64.708,63.9l-.362-4.147-.063-.716a23.085,23.085,0,0,0,4.774-4.856l.721.048,4.151.292,1.559-3.857L77.045,46.8Zm-18.79,7.717a12.376,12.376,0,0,1-9.677-22.782h0l0,0a12.376,12.376,0,0,1,9.67,22.786" transform="translate(3.25 1.895)" fill="#06b0e3" fill-rule="evenodd"/>
    <path id="Path_62248" data-name="Path 62248" d="M33.217,20.308l-.356-.3a14.965,14.965,0,0,0-.035-4.407l.351-.305,2.032-1.766L33.1,8.574l-2.681.237-.463.04a14.922,14.922,0,0,0-3.146-3.087l.03-.47.189-2.68-2.5-1.007L22.037.6,20.312,2.66l-.3.355v0a15.05,15.05,0,0,0-4.408.038L15.3,2.7,13.534.67l-4.956,2.1.232,2.681.039.463A14.96,14.96,0,0,0,5.764,9.062L5.3,9.03,2.62,8.843l-1.011,2.5L.6,13.835l2.061,1.724.36.305a14.9,14.9,0,0,0,.038,4.409l-.353.305L.677,22.343,2.78,27.3l2.678-.233.463-.041a14.921,14.921,0,0,0,3.146,3.087l-.032.465L8.85,33.258l2.5,1.008,2.5,1.01,1.728-2.061.3-.355a15.011,15.011,0,0,0,4.4-.039l.306.351L22.347,35.2,27.306,33.1l-.235-2.681-.04-.462a15.037,15.037,0,0,0,3.087-3.148l.462.031,2.681.19,1.009-2.5,1.007-2.5ZM21.067,25.3a8,8,0,1,1-6.256-14.736l0,.006A8,8,0,1,1,21.067,25.3Z" transform="translate(0.083 0.084)" fill="none" stroke="#fdab1d" stroke-miterlimit="10" stroke-width="2"/>
  </g>
</svg>
