<svg xmlns="http://www.w3.org/2000/svg" width="56.819" height="66.393" viewBox="0 0 56.819 66.393">
  <g id="Group_157766" data-name="Group 157766" transform="translate(9513.513 -17728.977)">
    <path id="Path_61422" data-name="Path 61422" d="M30.5,30.309l-5.034-3.09-.914,1.1,3.771,4.357,3.218,3.733L39.4,22.86l-1.158-.871Z" transform="translate(-9518.601 17726.096)" fill="#fafffd"/>
    <path id="Path_61423" data-name="Path 61423" d="M39.765,46.7l1.587-4.892,5.112-.875-.2-5.134,4.5-2.557-1.959-4.757,3.347-3.925-3.484-3.808,1.79-4.822-4.588-2.4.016-5.136-5.14-.7L38.99,2.862,33.921,3.946,30.6,0,26.208,2.737,21.724.152l-3.18,4.061L13.438,3.3,11.851,8.2l-5.112.877.2,5.134-4.5,2.555L4.4,21.519,1.049,25.444l3.484,3.807L2.744,34.074l4.587,2.4L7.315,41.61l5.139.7,1.76,4.833,5.069-1.083L22.6,50l4.39-2.737,4.484,2.585,3.181-4.06ZM26.6,41.723A16.723,16.723,0,1,1,43.485,25,16.823,16.823,0,0,1,26.6,41.723" transform="translate(-9511.977 17730.283)" fill="none" stroke="#fff" stroke-width="2"/>
    <path id="Path_61424" data-name="Path 61424" d="M59.535,62.64l-3.027.523-1.145,3.564-.483,1.5-1.556-.279-3.684-.661-2.077,2.677,6.622,9.977,3.071-8.057,8.617.3Z" transform="translate(-9524.474 17713.25)" fill="none" stroke="#fff" stroke-width="2"/>
    <path id="Path_61425" data-name="Path 61425" d="M13.333,68.629l-1.544.334-.536-1.487-1.271-3.52-3.707-.508-.268-.037L0,72.459l8.617-.3,3.071,8.057,6.926-10.434L16.991,67.84Z" transform="translate(-9511.604 17712.729)" fill="none" stroke="#fff" stroke-width="2"/>
  </g>
</svg>
