<svg id="Group_156808" data-name="Group 156808" xmlns="http://www.w3.org/2000/svg" xmlns:xlink="http://www.w3.org/1999/xlink" width="79.882" height="71.008" viewBox="0 0 79.882 71.008">
  <defs>
    <clipPath id="clip-path">
      <rect id="Rectangle_8591" data-name="Rectangle 8591" width="79.882" height="71.008" fill="#fff"/>
    </clipPath>
  </defs>
  <g id="Group_155604" data-name="Group 155604" transform="translate(0 0)" clip-path="url(#clip-path)">
    <path id="Path_61426" data-name="Path 61426" d="M29.431,0c-.264,0-.408.006-.408.006h0a1.252,1.252,0,0,0-1.208,1.208s-.427,9.274,5.371,15.071c4.481,4.481,11.037,5.242,13.787,5.355v8.375a11.139,11.139,0,0,0-8.2,5.164,11.122,11.122,0,0,0-15,7.769l-5.093,0h-.015a1.233,1.233,0,0,0-.5.113.024.024,0,0,0-.016.006.631.631,0,0,0-.081.037l-3.85,2.141V43.206a1.247,1.247,0,0,0-1.251-1.242H1.249A1.246,1.246,0,0,0,0,43.206V69.761a1.248,1.248,0,0,0,1.249,1.248H12.972a1.248,1.248,0,0,0,1.251-1.248V67.717l3.85,2.144a.308.308,0,0,0,.06.028l.015.009a1.193,1.193,0,0,0,.54.119H47.746a1.233,1.233,0,0,0,.661-.19l28.528-15.97A5.7,5.7,0,0,0,79.1,45.989a5.862,5.862,0,0,0-3.569-2.668,6.055,6.055,0,0,0-2.8-.056,11.117,11.117,0,0,0-15.069-8.083,11.138,11.138,0,0,0-8.194-5.164V21.643c2.749-.115,9.3-.873,13.782-5.355,5.8-5.8,5.37-15.071,5.37-15.071v0a1.246,1.246,0,0,0-1.2-1.207S58.138-.423,52.34,5.375a17.525,17.525,0,0,0-4.123,6.93A17.532,17.532,0,0,0,44.1,5.375C39.022.3,31.286,0,29.433,0Zm1.027,2.647c1.834.053,7.763.383,11.873,4.49s4.44,10.044,4.489,11.876c-1.834-.053-7.763-.383-11.872-4.49s-4.44-10.044-4.49-11.876m35.52,0c-.054,1.835-.381,7.767-4.49,11.876s-10.038,4.441-11.873,4.49c.052-1.835.379-7.767,4.489-11.876S64.143,2.7,65.978,2.647M48.22,32.444A8.626,8.626,0,0,1,56,37.347h0a.093.093,0,0,1,.017.028.123.123,0,0,1,.012.028c.015.022.028.044.043.066s.038.059.06.09.046.057.071.085.048.05.073.074.056.05.084.072l.091.066c.031.019.059.034.09.05a.765.765,0,0,0,.1.053.674.674,0,0,0,.085.031c.043.013.085.028.128.038.026,0,.054.01.077.013a.92.92,0,0,0,.134.015h.085a1.183,1.183,0,0,0,.14-.009.54.54,0,0,0,.062-.013,1.272,1.272,0,0,0,.15-.034c.022-.01.044-.016.065-.025l.1-.038c.031-.016.062-.031.094-.05a8.625,8.625,0,0,1,12.609,6.4L51.33,54.949a5.834,5.834,0,0,0-3.695-4.734l-18.51-7.183,0,0c-.01,0-.018,0-.026-.006a1.17,1.17,0,0,0-.227-.059c-.013,0-.025,0-.038-.006a1.355,1.355,0,0,0-.161-.009H26.357a8.642,8.642,0,0,1,12.358-5.049.014.014,0,0,1,.01,0,.426.426,0,0,1,.037.025c.037.016.077.031.116.044l.05.019c.05.012.1.025.153.034.018,0,.04.01.062.013a1.243,1.243,0,0,0,.155.01h.058a1.532,1.532,0,0,0,.169-.019l.049-.009a1.471,1.471,0,0,0,.157-.047l.05-.018a1.577,1.577,0,0,0,.156-.078l.031-.018a1.054,1.054,0,0,0,.149-.109c.01-.006.016-.016.026-.022a1.429,1.429,0,0,0,.113-.118c.015-.015.027-.031.042-.05a1.338,1.338,0,0,0,.079-.119L40.4,37.4a.258.258,0,0,0,.016-.029.062.062,0,0,0,.013-.022,8.63,8.63,0,0,1,7.786-4.9ZM2.5,44.455h9.227V68.51H2.5Zm16.51,1h9.424l18.3,7.093a3.207,3.207,0,0,1,1.916,4.225,3.363,3.363,0,0,1-4.394,1.788l-18.51-7.177h0a1.247,1.247,0,0,0-1.594,1.666,1.262,1.262,0,0,0,.693.661l18.51,7.177a5.914,5.914,0,0,0,7.414-2.749L72.225,46.111h0c.044-.022.088-.047.132-.072a3.448,3.448,0,0,1,4.6,1.226,3.124,3.124,0,0,1-1.237,4.413l-28.3,15.842H19.01l-4.787-2.662V48.109Z" transform="translate(0 0)" fill="#fff"/>
  </g>
</svg>
