<svg id="Group_155595" data-name="Group 155595" xmlns="http://www.w3.org/2000/svg" xmlns:xlink="http://www.w3.org/1999/xlink" width="69.514" height="63.785" viewBox="0 0 69.514 63.785">
  <defs>
    <clipPath id="clip-path">
      <rect id="Rectangle_8578" data-name="Rectangle 8578" width="69.514" height="63.784" fill="none" stroke="#fff" stroke-width="1"/>
    </clipPath>
  </defs>
  <g id="Group_155594" data-name="Group 155594" clip-path="url(#clip-path)">
    <path id="Path_61416" data-name="Path 61416" d="M64.354,58.385a4.533,4.533,0,1,1,2.538,5.887l-.06-.024A4.533,4.533,0,0,1,64.354,58.385Z" transform="translate(-15.652 -13.573)" fill="none" stroke="#fff" stroke-miterlimit="10" stroke-width="2"/>
    <path id="Path_61417" data-name="Path 61417" d="M79.741,52.783a2.168,2.168,0,0,1,1.08,2L80.375,61.1a2.183,2.183,0,0,1-1.352,1.866l-4,1.632a1.345,1.345,0,0,0-.808.96l-.952,4.216a2.168,2.168,0,0,1-1.6,1.655l-6.15,1.511a2.468,2.468,0,0,1-.521.06,2.206,2.206,0,0,1-1.67-.756l-2.78-3.3a1.345,1.345,0,0,0-1.164-.468l-4.246.423a2.176,2.176,0,0,1-2.063-1.012l-3.385-5.38a2.169,2.169,0,0,1,0-2.267l2.267-3.672a1.345,1.345,0,0,0,.083-1.254L50.3,51.363a2.183,2.183,0,0,1,.332-2.267l4.072-4.843a2.19,2.19,0,0,1,2.191-.718l4.2.99a1.344,1.344,0,0,0,1.216-.3l3.226-2.871a2.183,2.183,0,0,1,2.267-.393l5.871,2.38A2.177,2.177,0,0,1,75.034,45.2l.317,4.307a1.344,1.344,0,0,0,.665,1.065Z" transform="translate(-12.067 -9.973)" fill="none" stroke="#fff" stroke-miterlimit="10" stroke-width="2"/>
    <path id="Path_61418" data-name="Path 61418" d="M18.638,26.791A8.613,8.613,0,1,1,27.259,35.4h-.038A8.621,8.621,0,0,1,18.638,26.791Z" transform="translate(-4.556 -4.441)" fill="none" stroke="#fff" stroke-miterlimit="10" stroke-width="2"/>
    <path id="Path_61419" data-name="Path 61419" d="M43.922,22.6a2.191,2.191,0,0,1,.892,2.267l-1.269,5.546a2.169,2.169,0,0,1-1.791,1.67l-3.181.491a3.121,3.121,0,0,0-2.629,3.287l.234,3.211a2.161,2.161,0,0,1-1.224,2.146l-5.13,2.471a2.079,2.079,0,0,1-.944.219,2.17,2.17,0,0,1-1.511-.582L25,41.15a3.1,3.1,0,0,0-4.2,0l-2.365,2.176a2.162,2.162,0,0,1-2.425.363l-5.1-2.471A2.167,2.167,0,0,1,9.687,39.1l.227-3.211A3.1,3.1,0,0,0,7.3,32.605l-3.181-.491a2.168,2.168,0,0,1-1.8-1.67L1.051,24.883a2.176,2.176,0,0,1,.9-2.267l2.652-1.8a3.121,3.121,0,0,0,.929-4.14L3.93,13.89a2.184,2.184,0,0,1,.189-2.448L7.67,7a2.169,2.169,0,0,1,2.342-.756l3.075.975A3.121,3.121,0,0,0,16.865,5.4l1.179-3.022A2.192,2.192,0,0,1,20.076,1h5.7a2.184,2.184,0,0,1,2.025,1.375L28.992,5.4A3.113,3.113,0,0,0,32.77,7.218l3.075-.937a2.169,2.169,0,0,1,2.342.756l3.551,4.443a2.184,2.184,0,0,1,.189,2.448l-1.6,2.788a3.016,3.016,0,0,0-.408,1.511,3.106,3.106,0,0,0,1.345,2.592Z" transform="translate(-0.244 -0.244)" fill="none" stroke="#fff" stroke-miterlimit="10" stroke-width="2"/>
  </g>
</svg>
