<svg id="Group_156802" data-name="Group 156802" xmlns="http://www.w3.org/2000/svg" xmlns:xlink="http://www.w3.org/1999/xlink" width="56.39" height="68.506" viewBox="0 0 56.39 68.506">
  <defs>
    <clipPath id="clip-path">
      <rect id="Rectangle_8576" data-name="Rectangle 8576" width="56.39" height="68.506" fill="#fff"/>
    </clipPath>
  </defs>
  <g id="Group_155591" data-name="Group 155591" transform="translate(0 0)" clip-path="url(#clip-path)">
    <path id="Path_61415" data-name="Path 61415" d="M26.221,18.788a.819.819,0,0,1,.819-.819H39.518a.819.819,0,1,1,0,1.638H27.04a.819.819,0,0,1-.819-.819m13.3,9.335H23.424a.819.819,0,1,0,0,1.638H39.517a.819.819,0,1,0,0-1.638M29.068,14.529H39.517a.819.819,0,1,0,0-1.638H29.068a.819.819,0,0,0,0,1.638m10.449,8.517H24.482a.819.819,0,0,0,0,1.638H39.517a.819.819,0,1,0,0-1.638M7.33,44.992H35.853a.819.819,0,1,0,0-1.638H7.33a.819.819,0,0,0,0,1.638m26.275,8.517H7.33a.819.819,0,1,0,0,1.638H33.605a.819.819,0,1,0,0-1.638M7.33,39.915H39.517a.819.819,0,1,0,0-1.638H7.33a.819.819,0,1,0,0,1.638m0,10.154H33.106a.819.819,0,1,0,0-1.638H7.33a.819.819,0,1,0,0,1.638m0-15.231H39.517a.819.819,0,1,0,0-1.638H7.33a.819.819,0,1,0,0,1.638m1.695-15.8A10.583,10.583,0,0,1,6.512,12.3,7.831,7.831,0,0,1,9.477,5.945a10.2,10.2,0,0,1,6.355-2.082,10.2,10.2,0,0,1,6.355,2.082A7.831,7.831,0,0,1,25.153,12.3a10.584,10.584,0,0,1-2.513,6.741c-.933,1.3-1.738,2.424-1.738,4.068v2.946a2.316,2.316,0,0,1-1.977,2.287v.783a1.966,1.966,0,0,1-1.964,1.964H14.7a1.966,1.966,0,0,1-1.964-1.964V28.34a2.316,2.316,0,0,1-1.977-2.287V23.107c0-1.644-.805-2.768-1.738-4.068m8.262,10.085v-.755h-2.91v.755a.331.331,0,0,0,.326.326h2.258a.331.331,0,0,0,.326-.326m1.977-3.07V25.6H12.4v.451a.678.678,0,0,0,.677.677h5.509a.678.678,0,0,0,.677-.677ZM16.4,23.965V17.732q-.281.026-.569.026t-.569-.026v6.233ZM8.149,12.3a9.086,9.086,0,0,0,2.207,5.787A8.242,8.242,0,0,1,12.4,23.108v.858h1.225V17.34a5.134,5.134,0,0,1-2.77-2.59c-.676-1.449-.664-2.753.031-3.49a1.623,1.623,0,0,1,1.819-.363c1.087.432,2.241,2.018,2.5,5.178a4.181,4.181,0,0,0,1.249,0c.262-3.159,1.416-4.746,2.5-5.178a1.624,1.624,0,0,1,1.819.363c.695.736.706,2.042.031,3.49a5.133,5.133,0,0,1-2.771,2.59v6.625h1.225v-.858a8.246,8.246,0,0,1,2.044-5.022A9.088,9.088,0,0,0,23.516,12.3c0-4.671-3.983-6.8-7.684-6.8S8.149,7.628,8.149,12.3m11.177,1.76c.443-.95.368-1.511.279-1.653a.787.787,0,0,0-.323.213,4.851,4.851,0,0,0-1.1,2.8,3.352,3.352,0,0,0,1.148-1.358Zm-6.943-1.44a.787.787,0,0,0-.322-.213c-.089.142-.164.7.279,1.653a3.358,3.358,0,0,0,1.148,1.358,4.843,4.843,0,0,0-1.1-2.8M54.243,56.4a3.194,3.194,0,0,1-.89,2.985,3.413,3.413,0,0,1-.656.517l2.565,5.416a.819.819,0,0,1-.983,1.132l-2.611-.813L50.4,68.058a.819.819,0,0,1-.725.439.494.494,0,0,1-.057,0,.82.82,0,0,1-.714-.541l-2.023-5.641a3.567,3.567,0,0,1-1.683.007l-2.015,5.643a.82.82,0,0,1-.714.541l-.058,0a.819.819,0,0,1-.725-.438l-1.271-2.42-2.609.815a.819.819,0,0,1-.985-1.131l1.6-3.384H.819A.819.819,0,0,1,0,61.129V.819A.819.819,0,0,1,.819,0H37.8a.821.821,0,0,1,.579.24l8.23,8.23a.82.82,0,0,1,.24.579V41.792a3.287,3.287,0,0,1,1.921,1.387,1.577,1.577,0,0,0,1.6.663,3.273,3.273,0,0,1,3.875,3.874,1.579,1.579,0,0,0,.663,1.6,3.273,3.273,0,0,1,0,5.479,1.577,1.577,0,0,0-.663,1.6ZM38.617,8.23h5.434L38.617,2.8Zm.574,52.081.188-.4a3.416,3.416,0,0,1-.677-.53,3.2,3.2,0,0,1-.89-2.985,1.579,1.579,0,0,0-.663-1.6,3.273,3.273,0,0,1,0-5.479,1.577,1.577,0,0,0,.663-1.6,3.273,3.273,0,0,1,3.874-3.875,1.576,1.576,0,0,0,1.6-.663,3.282,3.282,0,0,1,1.921-1.388V9.867H37.8a.819.819,0,0,1-.819-.819V1.638H1.638V60.311H39.192Zm4.564,1.179a4.294,4.294,0,0,1-.467-.555,1.576,1.576,0,0,0-1.6-.663,4.26,4.26,0,0,1-.7.062L39.1,64.343l1.48-.462a.819.819,0,0,1,.969.4l.721,1.372,1.487-4.164Zm7.335-1.156a4.274,4.274,0,0,1-.722-.062,1.577,1.577,0,0,0-1.6.663,4.367,4.367,0,0,1-.448.536l1.5,4.173.719-1.373a.818.818,0,0,1,.969-.4l1.481.461-1.893-4Zm3.659-8.276a1.582,1.582,0,0,0-.793-1.4,3.2,3.2,0,0,1-1.329-3.21,1.64,1.64,0,0,0-1.986-1.986,3.2,3.2,0,0,1-3.21-1.329,1.64,1.64,0,0,0-2.808,0,3.2,3.2,0,0,1-3.21,1.329,1.64,1.64,0,0,0-1.986,1.986,3.2,3.2,0,0,1-1.329,3.21,1.64,1.64,0,0,0,0,2.808,3.2,3.2,0,0,1,1.329,3.21,1.64,1.64,0,0,0,1.986,1.986,3.47,3.47,0,0,1,.577-.049,3.19,3.19,0,0,1,2.633,1.379,1.64,1.64,0,0,0,2.808,0,3.2,3.2,0,0,1,3.21-1.329,1.64,1.64,0,0,0,1.986-1.986,3.2,3.2,0,0,1,1.329-3.21,1.582,1.582,0,0,0,.793-1.4Zm-3.31,0a5.413,5.413,0,1,1-5.413-5.413,5.419,5.419,0,0,1,5.413,5.413m-1.638,0a3.775,3.775,0,1,0-3.775,3.775A3.779,3.779,0,0,0,49.8,52.057" transform="translate(0 0)" fill="#fff"/>
  </g>
</svg>
