<svg xmlns="http://www.w3.org/2000/svg" width="52.395" height="11.648" viewBox="0 0 52.395 11.648">
  <g id="pause-svg" transform="translate(21852.512 6440.594)">
    <path id="Path_62233" data-name="Path 62233" d="M.992,0h.832V-5.1H5.2c2.352,0,3.584-1.056,3.584-3.2a2.924,2.924,0,0,0-.816-2.224,3.5,3.5,0,0,0-2.656-.912H.992Zm.832-10.688H5.248c1.776,0,2.688.88,2.688,2.4S7.168-5.84,5.136-5.84H1.824ZM15.936.128A1.377,1.377,0,0,0,16.576,0V-.576h-.048a1.267,1.267,0,0,1-.384.08c-.288,0-.528-.128-.528-.576V-5.936c0-1.7-1.024-2.512-2.864-2.512-2.064,0-3.136.928-3.3,2.528h.8c.112-1.216.944-1.856,2.5-1.856,1.344,0,2.08.544,2.08,1.792V-5.7c0,.768-.448.864-2.4,1.056C10.7-4.464,9.168-4.064,9.168-2.1c0,1.52,1.12,2.3,2.64,2.3A3.4,3.4,0,0,0,14.8-1.28h.048v.288A1,1,0,0,0,15.936.128ZM11.888-.448c-1.056,0-1.92-.448-1.92-1.616,0-1.568,1.1-1.76,2.56-1.92a7.566,7.566,0,0,0,2.3-.5v1.536A2.678,2.678,0,0,1,11.888-.448ZM23.536,0V-8.272h-.784V-3.04A2.5,2.5,0,0,1,20.208-.48a1.786,1.786,0,0,1-2.016-1.968V-8.272h-.784v5.9A2.444,2.444,0,0,0,20.064.192,2.946,2.946,0,0,0,22.72-1.264h.032V0Zm4.336.208c1.936,0,3.008-1.088,3.008-2.432,0-1.568-1.088-2.016-2.752-2.4-1.7-.4-2.464-.672-2.464-1.632,0-.864.688-1.5,2.032-1.5A1.917,1.917,0,0,1,29.872-6.1h.768A2.616,2.616,0,0,0,27.7-8.448c-1.568,0-2.816.832-2.816,2.208,0,1.472,1.264,1.92,2.96,2.32,1.824.432,2.256.784,2.256,1.68,0,1.088-.832,1.776-2.224,1.776A2.181,2.181,0,0,1,25.408-2.5h-.8C24.688-1.072,25.712.208,27.872.208ZM38.72-4.048a4.516,4.516,0,0,0-1.2-3.6,3.082,3.082,0,0,0-2.176-.8c-2.256,0-3.68,1.776-3.68,4.32S32.976.208,35.408.208a3.169,3.169,0,0,0,3.264-2.672H37.92A2.439,2.439,0,0,1,35.408-.48c-2.032,0-2.928-1.584-2.944-3.568Zm-.8-.64H32.48c.16-1.744,1.072-3.088,2.864-3.088C37.168-7.776,37.872-6.32,37.92-4.688Z" transform="translate(-21853.504 -6429.154)" fill="#fff"/>
    <g id="Group_157767" data-name="Group 157767" transform="translate(-21814.947 -6446.271)">
      <g id="Group_157770" data-name="Group 157770">
        <rect id="Rectangle_9564" data-name="Rectangle 9564" width="2.408" height="10.311" transform="translate(8.165 6.346)" fill="#fff"/>
        <rect id="Rectangle_9565" data-name="Rectangle 9565" width="2.408" height="10.311" transform="translate(12.422 6.346)" fill="#fff"/>
      </g>
    </g>
  </g>
</svg>
