<svg xmlns="http://www.w3.org/2000/svg" width="43.043" height="14.176" viewBox="0 0 43.043 14.176">
  <g id="play-svg" transform="translate(21940.008 6440.594)">
    <path id="Path_62232" data-name="Path 62232" d="M.992,0h.832V-5.1H5.2c2.352,0,3.584-1.056,3.584-3.2a2.924,2.924,0,0,0-.816-2.224,3.5,3.5,0,0,0-2.656-.912H.992Zm.832-10.688H5.248c1.776,0,2.688.88,2.688,2.4S7.168-5.84,5.136-5.84H1.824ZM10.048,0h.784V-11.44h-.784Zm8.768.128A1.377,1.377,0,0,0,19.456,0V-.576h-.048a1.267,1.267,0,0,1-.384.08c-.288,0-.528-.128-.528-.576V-5.936c0-1.7-1.024-2.512-2.864-2.512-2.064,0-3.136.928-3.3,2.528h.8c.112-1.216.944-1.856,2.5-1.856,1.344,0,2.08.544,2.08,1.792V-5.7c0,.768-.448.864-2.4,1.056-1.728.176-3.264.576-3.264,2.544,0,1.52,1.12,2.3,2.64,2.3A3.4,3.4,0,0,0,17.68-1.28h.048v.288A1,1,0,0,0,18.816.128ZM14.768-.448c-1.056,0-1.92-.448-1.92-1.616,0-1.568,1.1-1.76,2.56-1.92a7.566,7.566,0,0,0,2.3-.5v1.536A2.678,2.678,0,0,1,14.768-.448Zm5.92,3.184A2.142,2.142,0,0,0,22.96.992l3.328-9.264h-.8L23.568-2.8C23.28-1.968,22.9-.736,22.9-.736h-.032s-.416-1.248-.72-2.064L20.128-8.272h-.816L22.48.128l-.24.688a1.479,1.479,0,0,1-1.488,1.2,2.333,2.333,0,0,1-.656-.08h-.032v.7A2.042,2.042,0,0,0,20.688,2.736Z" transform="translate(-21941 -6429.154)" fill="#fff"/>
    <path id="Path_62234" data-name="Path 62234" d="M310.579,233.283l-9.748-5.628V238.91Z" transform="translate(-22207.545 -6666.789)" fill="#fff"/>
  </g>
</svg>
