<svg xmlns="http://www.w3.org/2000/svg" width="35.771" height="30.183" viewBox="0 0 35.771 30.183">
  <g id="noun-sound-6886071" transform="translate(-2.754 -10.136)">
    <g id="Group_158032" data-name="Group 158032" transform="translate(2.754 10.136)">
      <path id="Path_62881" data-name="Path 62881" d="M2.754,17.292V33.163H9.262l11.111,7.156.01-30.183L9.253,17.292Z" transform="translate(-2.754 -10.136)" fill="#555"/>
      <path id="Path_62882" data-name="Path 62882" d="M59.326,33.805l-1.634,1.542a6.458,6.458,0,0,1-.262,9.132l1.542,1.634a8.708,8.708,0,0,0,.353-12.308Z" transform="translate(-36.731 -24.844)" fill="#06b0e3"/>
      <path id="Path_62883" data-name="Path 62883" d="M68.014,22.422,66.38,23.964a12.556,12.556,0,0,1-.506,17.75l1.542,1.634a14.8,14.8,0,0,0,.6-20.927Z" transform="translate(-41.978 -17.771)" fill="#06b0e3"/>
      <path id="Path_62884" data-name="Path 62884" d="M77.939,10.289,76.3,11.831a19.051,19.051,0,0,1-.769,26.935L77.078,40.4a21.3,21.3,0,0,0,.861-30.112Z" transform="translate(-47.982 -10.231)" fill="#06b0e3"/>
    </g>
  </g>
</svg>
