<svg xmlns="http://www.w3.org/2000/svg" xmlns:xlink="http://www.w3.org/1999/xlink" width="84.269" height="93" viewBox="0 0 84.269 93">
  <defs>
    <clipPath id="clip-path">
      <rect id="Rectangle_10208" data-name="Rectangle 10208" width="84.269" height="93" fill="#0aafe2"/>
    </clipPath>
  </defs>
  <g id="Group_158039" data-name="Group 158039" transform="translate(0 0)">
    <g id="Group_158038" data-name="Group 158038" transform="translate(0 0)" clip-path="url(#clip-path)">
      <path id="Path_62904" data-name="Path 62904" d="M59.656,35.032V7.051H73.983V21.283a8,8,0,0,0-11.557,7.211,7.915,7.915,0,0,0,.739,3.348A10.252,10.252,0,0,0,60.009,35.7c-.115-.222-.235-.461-.353-.674Z" transform="translate(3.092 0.365)" fill="#fbab1e" fill-rule="evenodd"/>
      <path id="Path_62905" data-name="Path 62905" d="M21.159,9.746,6.832,2.618V21.51a8,8,0,0,1,11.557,7.21,7.917,7.917,0,0,1-.739,3.349,10.252,10.252,0,0,1,3.155,3.862,7.384,7.384,0,0,1,.353-.678Z" transform="translate(0.354 0.135)" fill="#fbab1e" fill-rule="evenodd"/>
      <path id="Path_62906" data-name="Path 62906" d="M23.27,0V25.19A8.118,8.118,0,0,1,28.874,21l0-4.639h4.939V21.3H33.09a8.014,8.014,0,0,1,5.333,6.43h1.019v6.044a9.8,9.8,0,0,1,1.479,2.3,10.482,10.482,0,0,1,1.479-2.3V27.733h1.019a8.019,8.019,0,0,1,5.333-6.43h-.731V16.364h4.938v4.647A8.06,8.06,0,0,1,58.564,25.2L58.571,0Z" transform="translate(1.206 0)" fill="#fbab1e" fill-rule="evenodd"/>
      <rect id="Rectangle_10202" data-name="Rectangle 10202" width="4.938" height="4.938" transform="translate(11.886 13.501)" fill="#fff"/>
      <rect id="Rectangle_10203" data-name="Rectangle 10203" width="4.938" height="4.938" transform="translate(39.662 16.365)" fill="#fff"/>
      <rect id="Rectangle_10204" data-name="Rectangle 10204" width="4.938" height="4.938" transform="translate(49.235 6.418)" fill="#fff"/>
      <rect id="Rectangle_10205" data-name="Rectangle 10205" width="4.938" height="4.938" transform="translate(39.662 6.418)" fill="#fff"/>
      <rect id="Rectangle_10206" data-name="Rectangle 10206" width="4.938" height="4.938" transform="translate(30.076 6.418)" fill="#fff"/>
      <rect id="Rectangle_10207" data-name="Rectangle 10207" width="4.938" height="4.938" transform="translate(67.44 13.502)" fill="#fff"/>
      <path id="Path_62907" data-name="Path 62907" d="M39.1,80.944C28.252,73.6,22.2,77.5,21.953,86.688A42.216,42.216,0,0,0,52.661,90.5c-1.763-16.982-8.6-6.191-13.559-9.553ZM72.934,42.412h10.7a42.127,42.127,0,0,1-17.15,41.674c-.612-8.426.452-11.775-6.257-19.672C45.06,45.88,75.4,61.333,72.934,42.412Zm-41.687,5.58c-4.36-.312-3.722,7.117-8.061,6.7-4.047-.386-4.261-5.678-8.842-2.03-6.825,5.433,7.814,11.249-2.31,26.522A42.1,42.1,0,0,1,.636,42.412h39.67c1.566,6.751,4.474,12.256-.513,12.943C36.357,55.82,34.982,48.263,31.247,47.992ZM63.64,85.923a41.66,41.66,0,0,1-8.1,3.722c-.58-5.16-2.05-12.376-8.641-11.977a32.565,32.565,0,0,0-4.421.9,2.461,2.461,0,0,1-1.73-.075c-4.24-2.863-10.206-5.744-15.35-3.607-4.154,1.729-5.883,5.891-6.311,10.09a42.31,42.31,0,0,1-4.872-3.722l.291-.427c4.261-6.43,5.44-12.408,2.683-19.64a28.774,28.774,0,0,1-1.739-4.713c-.119-.739.153-1.018.74-1.491a5.432,5.432,0,0,1,.858-.579c.4.291,1.072.966,1.364,1.212a7.857,7.857,0,0,0,4.5,2.017c3.069.3,5.013-1.45,6.418-3.949.14-.246,1.405-2.8,1.7-2.748.6.205,2.017,2.457,2.371,2.983,1.59,2.382,3.6,4.8,6.8,4.359,4.166-.567,5.764-3.583,5.247-7.514A75.588,75.588,0,0,0,43.347,42.4h26.6c.3,2.284.452,4.906-1.73,6.352-4.067,2.7-12.428.837-14.747,5.805-1.811,3.895,2.116,8.908,4.466,11.73l.021.021c5.966,7.029,4.938,9.425,5.559,17.98Zm9.939-63.282a5.046,5.046,0,1,0,5.108,5.046,5.073,5.073,0,0,0-5.108-5.046m-62.9,0a5.046,5.046,0,1,1-5.107,5.046,5.073,5.073,0,0,1,5.107-5.046m20.963,0a5.046,5.046,0,1,1-5.107,5.046,5.073,5.073,0,0,1,5.107-5.046m20.971,0a5.046,5.046,0,1,1-5.107,5.046,5.073,5.073,0,0,1,5.107-5.046M82.059,39.45V39.2a7.2,7.2,0,0,0-2.876-5.752,8.108,8.108,0,0,1-11.2,0A7.232,7.232,0,0,0,65.1,39.2v.246Zm-41.933,0V39.2a7.2,7.2,0,0,0-2.876-5.752,8.108,8.108,0,0,1-11.2,0A7.232,7.232,0,0,0,23.17,39.2v.246Zm-20.963,0V39.2a7.2,7.2,0,0,0-2.876-5.752,8.108,8.108,0,0,1-11.2,0A7.232,7.232,0,0,0,2.207,39.2v.246Zm41.933,0V39.2a7.2,7.2,0,0,0-2.876-5.752,8.108,8.108,0,0,1-11.2,0A7.232,7.232,0,0,0,44.14,39.2v.246Z" transform="translate(0 1.173)" fill="#0aafe2" fill-rule="evenodd"/>
    </g>
  </g>
</svg>
