<svg xmlns="http://www.w3.org/2000/svg" width="93" height="93" viewBox="0 0 93 93">
  <g id="noun-award-4277488" transform="translate(0 -0.486)">
    <g id="Group_158037" data-name="Group 158037">
      <path id="Path_62895" data-name="Path 62895" d="M29.431,38.341,10,68.37v3.718h1.306L30.343,42.669Z" transform="translate(5.581 21.398)" fill="#0aafe2"/>
      <path id="Path_62896" data-name="Path 62896" d="M38.944,42.669,57.981,72.088h1.306V68.37L39.855,38.341Z" transform="translate(21.735 21.398)" fill="#0aafe2"/>
      <rect id="Rectangle_10182" data-name="Rectangle 10182" width="3" height="3" transform="translate(86 6.486)" fill="#0aafe2"/>
      <rect id="Rectangle_10183" data-name="Rectangle 10183" width="3" height="3" transform="translate(89 9.486)" fill="#0aafe2"/>
      <rect id="Rectangle_10184" data-name="Rectangle 10184" width="3" height="3" transform="translate(86 12.486)" fill="#0aafe2"/>
      <rect id="Rectangle_10185" data-name="Rectangle 10185" width="3" height="3" transform="translate(83 9.486)" fill="#0aafe2"/>
      <rect id="Rectangle_10186" data-name="Rectangle 10186" width="3" height="3" transform="translate(23 0.486)" fill="#0aafe2"/>
      <rect id="Rectangle_10187" data-name="Rectangle 10187" width="4" height="3" transform="translate(26 3.486)" fill="#0aafe2"/>
      <rect id="Rectangle_10188" data-name="Rectangle 10188" width="3" height="3" transform="translate(23 6.486)" fill="#0aafe2"/>
      <rect id="Rectangle_10189" data-name="Rectangle 10189" width="3" height="3" transform="translate(20 3.486)" fill="#0aafe2"/>
      <rect id="Rectangle_10190" data-name="Rectangle 10190" width="3" height="3" transform="translate(3 12.486)" fill="#0aafe2"/>
      <rect id="Rectangle_10191" data-name="Rectangle 10191" width="3" height="3" transform="translate(6 15.486)" fill="#0aafe2"/>
      <rect id="Rectangle_10192" data-name="Rectangle 10192" width="3" height="3" transform="translate(3 18.486)" fill="#0aafe2"/>
      <rect id="Rectangle_10193" data-name="Rectangle 10193" width="3" height="3" transform="translate(0 15.486)" fill="#0aafe2"/>
      <rect id="Rectangle_10194" data-name="Rectangle 10194" width="3" height="3" transform="translate(73 18.486)" fill="#0aafe2"/>
      <rect id="Rectangle_10195" data-name="Rectangle 10195" width="3" height="3" transform="translate(76 21.486)" fill="#0aafe2"/>
      <rect id="Rectangle_10196" data-name="Rectangle 10196" width="3" height="4" transform="translate(73 24.486)" fill="#0aafe2"/>
      <rect id="Rectangle_10197" data-name="Rectangle 10197" width="3" height="3" transform="translate(70 21.486)" fill="#0aafe2"/>
      <path id="Path_62897" data-name="Path 62897" d="M25.674,31.657H30.09L24.834,28.3a1.559,1.559,0,0,1,.84-2.872H32.41l2.724-6.81a1.559,1.559,0,0,1,2.895,0l2.724,6.81h6.736a1.559,1.559,0,0,1,.84,2.872l-5.255,3.361h4.416a4.68,4.68,0,0,0,4.674-4.674c0-7.61-5.6-11.737-10.612-13.909a9.269,9.269,0,0,1-9.938,0C26.6,15.245,21,19.372,21,26.982A4.68,4.68,0,0,0,25.674,31.657Z" transform="translate(11.72 7.296)" fill="#0aafe2"/>
      <path id="Path_62898" data-name="Path 62898" d="M33.232,17.581a6.239,6.239,0,0,0,6.232-6.232V8.232A6.232,6.232,0,0,0,27,8.232v3.116A6.239,6.239,0,0,0,33.232,17.581Z" transform="translate(15.069 1.116)" fill="#0aafe2"/>
      <path id="Path_62899" data-name="Path 62899" d="M36.465,43.424V68.512h3.411l5.659-26.877a13.046,13.046,0,0,0-3.007-11.349l.115.414a1.56,1.56,0,0,1-2.5,1.619L34.907,28l-5.24,4.322A1.559,1.559,0,0,1,27.172,30.7l.115-.414A13.046,13.046,0,0,0,24.28,41.635l5.657,26.877h3.411V43.424c-2.713-.508-4.674-2.3-4.674-4.515h3.116c0,.636,1.214,1.558,3.116,1.558s3.116-.922,3.116-1.558h3.116C41.139,41.122,39.178,42.916,36.465,43.424Z" transform="translate(13.395 15.625)" fill="#0aafe2"/>
      <circle id="Ellipse_145" data-name="Ellipse 145" cx="6" cy="6" r="6" transform="translate(81 42.486)" fill="#fbab1e"/>
      <path id="Path_62900" data-name="Path 62900" d="M54,36.65V73.032h6.232V36.65a9.176,9.176,0,0,1-6.232,0Z" transform="translate(30.138 20.455)" fill="#fbab1e"/>
      <path id="Path_62901" data-name="Path 62901" d="M4,36.65V73.032h6.232V36.65A9.176,9.176,0,0,1,4,36.65Z" transform="translate(2.232 20.455)" fill="#fbab1e"/>
      <ellipse id="Ellipse_146" data-name="Ellipse 146" cx="6.5" cy="6" rx="6.5" ry="6" transform="translate(3 42.486)" fill="#fbab1e"/>
      <path id="Path_62902" data-name="Path 62902" d="M22.466,56l-2.079,6.232H53.459L51.381,56Z" transform="translate(11.378 31.254)" fill="#fbab1e"/>
      <path id="Path_62903" data-name="Path 62903" d="M36.16,26.392l2.418-1.546H36.115a1.561,1.561,0,0,1-1.447-.98L33,19.692,31.33,23.866a1.561,1.561,0,0,1-1.447.98H27.419l2.418,1.546a1.562,1.562,0,0,1,.662,1.729L29.588,31.4l2.42-1.994a1.559,1.559,0,0,1,1.985,0l2.42,1.994L35.5,28.121A1.556,1.556,0,0,1,36.16,26.392Z" transform="translate(15.303 10.99)" fill="#fbab1e"/>
      <rect id="Rectangle_10198" data-name="Rectangle 10198" width="3.116" height="3.116" transform="translate(14.023 26.658)" fill="#0aafe2"/>
      <rect id="Rectangle_10199" data-name="Rectangle 10199" width="3.116" height="3.116" transform="translate(17.139 29.774)" fill="#0aafe2"/>
      <rect id="Rectangle_10200" data-name="Rectangle 10200" width="3.116" height="3.116" transform="translate(14.023 32.89)" fill="#0aafe2"/>
      <rect id="Rectangle_10201" data-name="Rectangle 10201" width="3.116" height="3.116" transform="translate(10.907 29.774)" fill="#0aafe2"/>
    </g>
  </g>
</svg>
