<svg xmlns="http://www.w3.org/2000/svg" width="35.772" height="41.495" viewBox="0 0 35.772 41.495">
  <g id="Group_158253" data-name="Group 158253" transform="translate(3392.271 -396.252)">
    <path id="Path_62877" data-name="Path 62877" d="M37.2,10.3,28.61,1.715a.673.673,0,0,0-.5-.215H7.262A2.776,2.776,0,0,0,4.5,4.262V17.955a.715.715,0,1,0,1.431,0V4.262A1.331,1.331,0,0,1,7.262,2.931H27.394V10.8a.715.715,0,0,0,.715.715h7.87V40.234a1.331,1.331,0,0,1-1.331,1.331H7.262a1.331,1.331,0,0,1-1.331-1.331V36.556a.715.715,0,0,0-1.431,0v3.677A2.776,2.776,0,0,0,7.262,43H34.648a2.776,2.776,0,0,0,2.762-2.762V10.8A.673.673,0,0,0,37.2,10.3ZM28.825,3.947l6.138,6.138H28.825Z" transform="translate(-3393.91 394.752)" fill="#555"/>
    <path id="Path_62878" data-name="Path 62878" d="M13.039,17.71H11.78v5.108h1.431a3.062,3.062,0,0,0,2.089-.644,2.461,2.461,0,0,0,.715-1.9C15.972,18.554,14.957,17.71,13.039,17.71Z" transform="translate(-3390.773 401.736)" fill="#06b0e3"/>
    <path id="Path_62879" data-name="Path 62879" d="M7.958,17.693H6.67v2.991H8.1a1.9,1.9,0,0,0,1.431-.4A1.631,1.631,0,0,0,10,19.109a1.245,1.245,0,0,0-.486-1.1,2.862,2.862,0,0,0-1.56-.315Z" transform="translate(-3392.975 401.725)" fill="#06b0e3"/>
    <path id="Path_62880" data-name="Path 62880" d="M32.548,26.491V16.818A2.3,2.3,0,0,0,30.23,14.5H4.818A2.3,2.3,0,0,0,2.5,16.818v9.673a2.3,2.3,0,0,0,2.318,2.318H30.23a2.3,2.3,0,0,0,2.318-2.318ZM12.23,22.57A3.892,3.892,0,0,1,9.8,23.2H8.467v2.189H7.208V17.92H9.769a3.735,3.735,0,0,1,2.475.658,2.432,2.432,0,0,1,.787,2,2.4,2.4,0,0,1-.8,1.989Zm7.97,1.8a4.493,4.493,0,0,1-3.205,1.016H14.519V17.92h2.561a4.393,4.393,0,0,1,3.076.987,3.463,3.463,0,0,1,1.087,2.7A3.706,3.706,0,0,1,20.2,24.373Zm7.627-5.28H24.12v2.06h3.305V22.37H24.12v3.076H22.861V17.92h4.979Z" transform="translate(-3394.771 400.353)" fill="#06b0e3"/>
  </g>
</svg>
