<svg xmlns="http://www.w3.org/2000/svg" xmlns:xlink="http://www.w3.org/1999/xlink" width="82.762" height="93.336" viewBox="0 0 82.762 93.336">
  <defs>
    <clipPath id="clip-path">
      <rect id="Rectangle_10181" data-name="Rectangle 10181" width="82.762" height="93.336" transform="translate(0 0)" fill="#0aafe2"/>
    </clipPath>
  </defs>
  <g id="Group_158036" data-name="Group 158036" transform="translate(0 0)">
    <g id="Group_158035" data-name="Group 158035" clip-path="url(#clip-path)">
      <path id="Path_62892" data-name="Path 62892" d="M41.379,27.239a8.614,8.614,0,1,0,6.1,2.523,8.607,8.607,0,0,0-6.1-2.523" fill="#0aafe2" fill-rule="evenodd"/>
      <path id="Path_62893" data-name="Path 62893" d="M25.125,66.1h4.82V59.235a1.5,1.5,0,0,1,3,0V66.1H49.812V59.235a1.5,1.5,0,0,1,3,0V66.1h4.821a.136.136,0,0,0,.093-.039.134.134,0,0,0,.039-.094V56.5A10.522,10.522,0,0,0,47.523,46.012a12.5,12.5,0,0,1-12.289,0A10.522,10.522,0,0,0,24.992,56.5v9.469a.138.138,0,0,0,.039.094A.147.147,0,0,0,25.125,66.1Z" fill="#0aafe2" fill-rule="evenodd"/>
      <path id="Path_62894" data-name="Path 62894" d="M48.168,9.563,59.145,15.9a.573.573,0,0,1,.07.043l10.906,6.3a7.191,7.191,0,1,1,6.793,11.754V59.345A7.19,7.19,0,1,1,70.121,71.1L59.144,77.434v0L48.167,83.774a7.191,7.191,0,1,1-13.98,2.371,7.127,7.127,0,0,1,.4-2.371l-2.429-1.4a.672.672,0,0,1-.071-.043L15.066,72.5v0l-2.429-1.4A7.19,7.19,0,1,1,5.848,59.345V33.993a7.19,7.19,0,1,1,6.789-11.754L34.586,9.563a7.189,7.189,0,1,1,13.582,0ZM8.531,33.993V59.345a7.192,7.192,0,0,1,5.848,7.062,7.108,7.108,0,0,1-.4,2.372l2.43,1.4v0l17.02,9.828.074.039,2.43,1.4a7.2,7.2,0,0,1,10.9,0l10.977-6.336v0l10.977-6.336a7.193,7.193,0,0,1,5.446-9.437V33.994a7.194,7.194,0,0,1-5.446-9.438l-10.9-6.293c-.023-.011-.05-.027-.074-.039L46.829,11.885a7.192,7.192,0,0,1-10.9,0L13.978,24.557a7.193,7.193,0,0,1-5.446,9.437Z" fill="#fbab1e" fill-rule="evenodd"/>
    </g>
  </g>
</svg>
