<svg xmlns="http://www.w3.org/2000/svg" xmlns:xlink="http://www.w3.org/1999/xlink" width="86.612" height="87.001" viewBox="0 0 86.612 87.001">
  <defs>
    <clipPath id="clip-path">
      <rect id="Rectangle_14387" data-name="Rectangle 14387" width="86.612" height="87.001" fill="#0aafe2"/>
    </clipPath>
  </defs>
  <g id="Group_158663" data-name="Group 158663" transform="translate(0 0)">
    <g id="Group_158662" data-name="Group 158662" transform="translate(0 0)" clip-path="url(#clip-path)">
      <path id="Path_74771" data-name="Path 74771" d="M35.946,48.778a2.507,2.507,0,1,0,3.545,3.545l5.774-5.774a8.395,8.395,0,1,1-4.2-2.886l-5.117,5.111Z" transform="translate(-3.616 -5.181)" fill="#fbab1e"/>
      <rect id="Rectangle_14386" data-name="Rectangle 14386" width="9.746" height="13.464" transform="translate(39.043 72.464)" fill="#fbab1e"/>
      <path id="Path_74772" data-name="Path 74772" d="M71.363,67.235V92.564h9.746V55.471H71.363Z" transform="translate(-8.536 -6.635)" fill="#fbab1e"/>
      <path id="Path_74773" data-name="Path 74773" d="M57.859,79.768v14.54H67.6V70.053H57.859Z" transform="translate(-6.921 -8.379)" fill="#fbab1e"/>
      <path id="Path_74774" data-name="Path 74774" d="M84.871,52.7V91.94h9.746V41.291H84.871V52.7Z" transform="translate(-10.152 -4.939)" fill="#fbab1e"/>
      <path id="Path_74775" data-name="Path 74775" d="M61.964,1.074V11.684H72.573Zm-46.409,58.5,3.827-3.828A18.149,18.149,0,0,1,44.724,31.2L55.117,20.81a2.512,2.512,0,0,1,3.545,0l8.56,8.56,6.421-6.421V13.835H60.888a1.072,1.072,0,0,1-1.073-1.073L59.818,0H11.507V60.629l.364-.357a3.324,3.324,0,0,1,3.683-.7Zm49.9-24.884-8.559-8.56L48.558,34.46A18.144,18.144,0,0,1,25.813,62.174L21.986,66a3.327,3.327,0,0,1-.7,3.683l-9.78,9.788v6.451H36.9V71.384a1.076,1.076,0,0,1,1.072-1.073H48.789V60.6a1.072,1.072,0,0,1,1.073-1.073H60.678V47.758a1.075,1.075,0,0,1,1.073-1.073H72.57V35.274A1.075,1.075,0,0,1,73.643,34.2V30.033l-4.649,4.649a2.506,2.506,0,0,1-3.546,0ZM19.774,66.5l-.66-.66,6.421-6.421a16,16,0,0,0,21.508-23.44l-3.859,3.859A10.546,10.546,0,1,1,39.122,36.8l4.044-4.044A16,16,0,0,0,22.144,56.016l-6.421,6.421-.66-.66a1.194,1.194,0,0,0-1.675,0L.348,74.82a1.181,1.181,0,0,0,0,1.674l4.708,4.7a1.181,1.181,0,0,0,1.674,0L19.774,68.162a1.194,1.194,0,0,0,0-1.675Zm66.7-52.421a.481.481,0,0,0-.041-.072c-.013-.02-.031-.041-.045-.062a1,1,0,0,0-.188-.2.536.536,0,0,1-.066-.045c-.027-.013-.044-.031-.065-.041h-.007a1.07,1.07,0,0,0-.519-.137H77.347a1.073,1.073,0,1,0,0,2.146h5.6L67.226,31.4l-9.571-9.571a1.068,1.068,0,0,0-1.52,0L33.345,44.609a1.08,1.08,0,0,0,0,1.52,1.068,1.068,0,0,0,1.52,0L56.895,24.1l9.571,9.571a1.069,1.069,0,0,0,1.52,0l16.48-16.48v6.1a1.073,1.073,0,1,0,2.145,0V14.593a1.061,1.061,0,0,0-.137-.519Z" transform="translate(0 0)" fill="#0aafe2"/>
    </g>
  </g>
</svg>
