<svg xmlns="http://www.w3.org/2000/svg" xmlns:xlink="http://www.w3.org/1999/xlink" width="82.951" height="87" viewBox="0 0 82.951 87">
  <defs>
    <clipPath id="clip-path">
      <rect id="Rectangle_14385" data-name="Rectangle 14385" width="82.951" height="87" fill="#0aafe2"/>
    </clipPath>
  </defs>
  <g id="Group_158661" data-name="Group 158661" transform="translate(0 0)">
    <g id="Group_158660" data-name="Group 158660" transform="translate(0 0)" clip-path="url(#clip-path)">
      <path id="Path_74757" data-name="Path 74757" d="M58.667,92.5V88.606A11.535,11.535,0,0,0,51,77.307a15.569,15.569,0,0,0-10.868,0,11.54,11.54,0,0,0-7.662,11.3V92.5Z" transform="translate(-2.338 -5.496)" fill="#fbab1e" fill-rule="evenodd"/>
      <path id="Path_74758" data-name="Path 74758" d="M43.887,43.968a1.062,1.062,0,1,1,0-2.124H77.563V2.12H36.895a1.06,1.06,0,1,1,0-2.12H78.622a1.062,1.062,0,0,1,1.063,1.062V42.909a1.062,1.062,0,0,1-1.063,1.063Z" transform="translate(-2.58 0)" fill="#fbab1e" fill-rule="evenodd"/>
      <path id="Path_74759" data-name="Path 74759" d="M46.082,74a6.5,6.5,0,1,0-4.593-1.9A6.473,6.473,0,0,0,46.082,74" transform="translate(-2.85 -4.393)" fill="#fbab1e" fill-rule="evenodd"/>
      <path id="Path_74760" data-name="Path 74760" d="M31.211,49.335a1.305,1.305,0,0,0,1.3-1.308l-.065-16.907c2.476.612,10.4-2.194,15.823-3.963,6.945-2.265,4.912-8.526-.849-6.709l-10.809,3.41c-3.269.65-3.52.08-7.808-2.094-5.713-2.067-11.273-.95-16.1,2.83C6.619,29.357,5.292,34.269,1.011,40.852c-3.334,5.478,2.422,8.823,5.123,4.412l6.713-10.98V47.595a1.738,1.738,0,0,0,1.736,1.736ZM22.225,19.584a7.062,7.062,0,1,1,7.061-7.062,7.061,7.061,0,0,1-7.061,7.062M16.609,66.1a6.5,6.5,0,1,0-4.593-1.9,6.473,6.473,0,0,0,4.593,1.9m53.244,0a6.5,6.5,0,1,0-4.593-1.9,6.473,6.473,0,0,0,4.593,1.9M27.3,83.5a15.186,15.186,0,0,1,1.907-7.631,11.563,11.563,0,0,0-7.874-7.812,15.545,15.545,0,0,0-6.409-.641,14.233,14.233,0,0,0-6,2A11.447,11.447,0,0,0,3.509,79.6v3.889H27.3Zm29.953-7.631a15.172,15.172,0,0,1,1.907,7.627H82.951V79.6a11.445,11.445,0,0,0-5.412-10.187,14.3,14.3,0,0,0-6-2,15.545,15.545,0,0,0-6.409.642A11.562,11.562,0,0,0,57.253,75.865Z" transform="translate(0 -0.393)" fill="#0aafe2" fill-rule="evenodd"/>
    </g>
  </g>
</svg>
