<svg xmlns="http://www.w3.org/2000/svg" width="95.427" height="87" viewBox="0 0 95.427 87">
  <g id="noun-village-7829326" transform="translate(-6.249 -10.114)">
    <path id="Path_74761" data-name="Path 74761" d="M13.053,50.1h2.829V42.212a8.214,8.214,0,0,0,6.629-10.365c-.072-.247-.158-.494-.247-.741L15.776,14.5a1.368,1.368,0,0,0-1.325-.9,1.4,1.4,0,0,0-1.308.92L6.8,31.161l0,0a8.2,8.2,0,0,0,6.262,11.017Z" transform="translate(0 0.316)" fill="#0aafe2"/>
    <path id="Path_74762" data-name="Path 74762" d="M81.508,54.814a5.983,5.983,0,0,0-4.209,5.7,5.909,5.909,0,0,0,.371,2.049,8.946,8.946,0,0,1,.533,3.008A8.692,8.692,0,0,1,73.2,73.5a16.442,16.442,0,0,0-7.958,8.312L60.625,92.567A45.359,45.359,0,0,0,96.75,50.144Z" transform="translate(4.926 3.626)" fill="#0aafe2"/>
    <path id="Path_74763" data-name="Path 74763" d="M78.446,49.361H93.263V21.738H78.429v6.544c0,.017.017.017.017.034Zm8.98-23.537h3.625v3.608H87.427Zm0,7.924h3.625v3.6H87.427Zm0,7.92h3.625v3.608H87.427ZM80.743,25.824h3.608v3.608H80.743Zm0,7.924h3.608v3.6H80.743Zm0,7.92h3.608v3.608H80.743Z" transform="translate(6.539 1.053)" fill="#fbab1e"/>
    <path id="Path_74764" data-name="Path 74764" d="M62.1,34v16.41H77.326V31.265c0-.017-.017-.017-.017-.034V18.374l-9.091-8.26-8.631,7.8V30.5l2.177,2.6a1.459,1.459,0,0,1,.337.9Zm8.929-10.928A1.175,1.175,0,0,1,72.2,21.91h1.133a1.156,1.156,0,0,1,1.146,1.167V46.985a1.13,1.13,0,0,1-.332.809,1.151,1.151,0,0,1-.814.337H72.2a1.162,1.162,0,0,1-1.167-1.146Z" transform="translate(4.832 0)" fill="#0aafe2"/>
    <path id="Path_74765" data-name="Path 74765" d="M43.051,49.294H60.769V33.4L51.661,22.468l-8.61,10.327ZM47.81,31.329h0a1.429,1.429,0,0,1,.413-1.005,1.4,1.4,0,0,1,1-.409H54.6a1.414,1.414,0,0,1,1.414,1.414v5.393A1.419,1.419,0,0,1,54.6,38.137H49.22a1.411,1.411,0,0,1-1.414-1.414Z" transform="translate(3.334 1.119)" fill="#fbab1e"/>
    <path id="Path_74766" data-name="Path 74766" d="M50,31.891h2.548v2.565H50Z" transform="translate(3.964 1.973)" fill="#0aafe2"/>
    <path id="Path_74767" data-name="Path 74767" d="M76.022,70.986a5.893,5.893,0,0,0,3.4-5.376,6.6,6.6,0,0,0-.354-2.053,8.139,8.139,0,0,1-.55-3,8.83,8.83,0,0,1,6.207-8.4l8.116-2.492H52.131l-7.9,5.8a1.968,1.968,0,0,0-.758,2.015,4.805,4.805,0,0,1-3.187,5.589L33.246,65.38A10.533,10.533,0,0,0,28.475,68.6a4.777,4.777,0,0,1-3.681,1.717H15.988A45.348,45.348,0,0,0,61.364,93.161L66.684,80.73a19.351,19.351,0,0,1,9.338-9.743Z" transform="translate(0.882 3.583)" fill="#0aafe2"/>
    <path id="Path_74768" data-name="Path 74768" d="M26.788,66.777a13.4,13.4,0,0,1,6.049-4.085l7.038-2.318a1.981,1.981,0,0,0,1.308-2.3,4.816,4.816,0,0,1,1.84-4.9l4.793-3.519H10.769a45.387,45.387,0,0,0,4.243,17.825H25.266a2.036,2.036,0,0,0,1.521-.707Z" transform="translate(0.41 3.583)" fill="#0aafe2"/>
    <path id="Path_74769" data-name="Path 74769" d="M42.022,32.766H23.187v15.6H42.022Zm-3.591,4.49a1.411,1.411,0,0,1-1.414,1.414H28.193a1.411,1.411,0,0,1-1.414-1.414v-2.4a1.414,1.414,0,0,1,1.414-1.414h8.823a1.414,1.414,0,0,1,1.414,1.414Z" transform="translate(1.534 2.052)" fill="#fbab1e"/>
    <path id="Path_74770" data-name="Path 74770" d="M50.3,21.738H32.32l-7.655,9.2H42.63Z" transform="translate(1.668 1.053)" fill="#fbab1e"/>
  </g>
</svg>
