<svg id="Group_158655" data-name="Group 158655" xmlns="http://www.w3.org/2000/svg" xmlns:xlink="http://www.w3.org/1999/xlink" width="94.019" height="87" viewBox="0 0 94.019 87">
  <defs>
    <clipPath id="clip-path">
      <rect id="Rectangle_14382" data-name="Rectangle 14382" width="94.019" height="87" fill="#0aafe2"/>
    </clipPath>
  </defs>
  <g id="Group_158654" data-name="Group 158654" clip-path="url(#clip-path)">
    <path id="Path_74743" data-name="Path 74743" d="M47.183,81.742A37.241,37.241,0,0,1,18.216,68H10.9a43.267,43.267,0,0,0,72.665,0H76.249A37.593,37.593,0,0,1,47.183,81.742" transform="translate(-0.124 -0.773)" fill="#fbab1e"/>
    <path id="Path_74744" data-name="Path 74744" d="M23.317,14.632a37.576,37.576,0,0,1,47.85,0,16.086,16.086,0,0,1,6.525-1.384h.692a43.34,43.34,0,0,0-62.284-.1h.692a15.8,15.8,0,0,1,6.525,1.483" transform="translate(-0.183)" fill="#fbab1e"/>
    <path id="Path_74745" data-name="Path 74745" d="M16.686,39.173A9.886,9.886,0,1,0,6.8,29.286a9.915,9.915,0,0,0,9.886,9.886" transform="translate(-0.077 -0.22)" fill="#0aafe2"/>
    <path id="Path_74746" data-name="Path 74746" d="M25.309,60.784A21.054,21.054,0,0,1,30.45,47.042,15.623,15.623,0,0,0,25.012,42a14.648,14.648,0,0,1-8.5,2.57A15.657,15.657,0,0,1,8.008,42,15.715,15.715,0,0,0,0,55.643v2.076a3.966,3.966,0,0,0,3.955,3.955H25.309Z" transform="translate(0 -0.477)" fill="#0aafe2"/>
    <path id="Path_74747" data-name="Path 74747" d="M68.4,29.286A9.886,9.886,0,1,0,78.286,19.4,9.915,9.915,0,0,0,68.4,29.286" transform="translate(-0.777 -0.22)" fill="#0aafe2"/>
    <path id="Path_74748" data-name="Path 74748" d="M86.742,42.1a14.874,14.874,0,0,1-8.5,2.57,15.657,15.657,0,0,1-8.5-2.57A15.623,15.623,0,0,0,64.3,47.142a20.192,20.192,0,0,1,5.24,13.643v.989H90.8a3.966,3.966,0,0,0,3.955-3.955V55.743A15.6,15.6,0,0,0,86.742,42.1" transform="translate(-0.731 -0.478)" fill="#0aafe2"/>
    <path id="Path_74749" data-name="Path 74749" d="M47.486,44.373A9.886,9.886,0,1,0,37.6,34.486a9.915,9.915,0,0,0,9.886,9.886" transform="translate(-0.427 -0.28)" fill="#0aafe2"/>
    <path id="Path_74750" data-name="Path 74750" d="M30.9,60.843v2.076a3.966,3.966,0,0,0,3.955,3.955H59.867a3.966,3.966,0,0,0,3.955-3.955V60.843A15.715,15.715,0,0,0,55.814,47.2a14.873,14.873,0,0,1-8.5,2.57,15.657,15.657,0,0,1-8.5-2.57A15.832,15.832,0,0,0,30.9,60.843" transform="translate(-0.351 -0.536)" fill="#0aafe2"/>
  </g>
</svg>
