<svg id="Group_158659" data-name="Group 158659" xmlns="http://www.w3.org/2000/svg" xmlns:xlink="http://www.w3.org/1999/xlink" width="62.238" height="87" viewBox="0 0 62.238 87">
  <defs>
    <clipPath id="clip-path">
      <rect id="Rectangle_14384" data-name="Rectangle 14384" width="62.238" height="87" fill="#0aafe2"/>
    </clipPath>
  </defs>
  <g id="Group_158658" data-name="Group 158658" transform="translate(0 0)" clip-path="url(#clip-path)">
    <path id="Path_74755" data-name="Path 74755" d="M20.988,46.4c5.764,3.263,15.336,4.024,21.209,0,12.508.326,19.36,20.665,19.795,36-21.209.653-39.59.761-61.886,0,.435-15.227,6.743-35.239,20.883-36" transform="translate(0.009 4.066)" fill="#0aafe2"/>
    <path id="Path_74756" data-name="Path 74756" d="M62.218,8.7C61.892,7.072,57,6.528,54.931,6.093,48.623,4.461,32.961-.107,30.568,0h-.326C25.13.872,10.229,5.332,7.075,6.2,5.009,6.745.114,7.507.005,8.921s1.305,1.631,2.937,2.067c3.915.979,7.5,2.067,11.311,2.937a3.011,3.011,0,0,0,.109.979,17.219,17.219,0,0,0-.979,3.372c-.326,1.958-.109,10.115,1.2,15.988.87,3.915,2.5,7.178,5.221,9.462a17.879,17.879,0,0,0,11.42,3.589c4.133,0,8.157-.87,11.42-3.589,2.61-2.284,4.242-5.438,5.221-9.462,1.305-5.873,1.523-14.139,1.2-15.988a17.219,17.219,0,0,0-.979-3.372,4.625,4.625,0,0,0,.218-1.2c1.74-.435,3.48-.979,5.329-1.414V20.45l-1.2,1.849v5.547a3.427,3.427,0,0,0,5.112,0V22.3L56.127,20.45V11.64c2.5-.435,6.417-1.088,6.091-2.937" transform="translate(0 0)" fill="#fbab1e"/>
  </g>
</svg>
