<svg xmlns="http://www.w3.org/2000/svg" xmlns:xlink="http://www.w3.org/1999/xlink" width="80.615" height="101.622" viewBox="0 0 80.615 101.622">
  <defs>
    <clipPath id="clip-path">
      <rect id="Rectangle_14354" data-name="Rectangle 14354" width="64.435" height="90.999" transform="translate(0 0)" fill="#06b0e3"/>
    </clipPath>
  </defs>
  <g id="Group_158560" data-name="Group 158560" transform="translate(0 12.296) rotate(-11)">
    <g id="Group_158559" data-name="Group 158559" transform="translate(0 -0.001)" clip-path="url(#clip-path)">
      <path id="Path_66931" data-name="Path 66931" d="M83.7,67.412c-.12.417-.24.789-.362,1.16A20.232,20.232,0,0,1,81.894,72c-.543.993-1.18,1.925-1.807,2.865-.387.579-.778,1.156-1.18,1.724a13.668,13.668,0,0,1-.836,1.1,19.3,19.3,0,0,1-1.343,1.43A23.064,23.064,0,0,1,74.4,81.106c-.415.3-.768.677-1.179.979-.665.488-1.35.949-2.036,1.408-.386.259-.795.484-1.184.739a22.85,22.85,0,0,1-2.833,1.561,37.681,37.681,0,0,1-4.044,1.691c-.742.248-1.48.505-2.236.707q-1.08.288-2.17.542c-.579.135-1.162.257-1.748.359-.329.058-.668.056-1,.1a25.982,25.982,0,0,1-3.306.084c-.59,0-1.182-.035-1.769-.091-.718-.068-1.433-.163-2.146-.269-.691-.1-1.383-.21-2.063-.364a23,23,0,0,1-3.218-.953,36.394,36.394,0,0,1-4.447-2.025c-.567-.311-1.116-.653-1.667-.992-.625-.385-1.249-.772-1.861-1.176-.429-.283-.839-.595-1.255-.9-.371-.27-.739-.543-1.107-.817a6.836,6.836,0,0,1-.651-.5c-.878-.834-1.755-1.67-2.615-2.523a22.5,22.5,0,0,1-2.212-2.649,25.232,25.232,0,0,1-1.955-3.032c-.463-.861-.931-1.721-1.352-2.6a40.045,40.045,0,0,1-1.625-4.3,18.607,18.607,0,0,1-.542-1.988c-.152-.681-.248-1.374-.368-2.062s-.256-1.374-.356-2.065c-.061-.42-.074-.847-.094-1.272-.036-.74,0-1.489-.107-2.219a14.2,14.2,0,0,1-.054-2.674c.03-.65.009-1.306.087-1.949.046-.382.01-.768.084-1.137.086-.427.019-.858.088-1.273.156-.931.23-1.871.419-2.8.248-1.218.609-2.4.919-3.6.188-.726.3-1.472.463-2.2.1-.437.228-.867.359-1.3.265-.868.525-1.739.816-2.6.236-.7.5-1.39.776-2.073.433-1.056.864-2.113,1.346-3.146.4-.847.864-1.661,1.3-2.488.307-.581.6-1.168.93-1.737s.67-1.11,1.02-1.656c.367-.573.741-1.142,1.129-1.7.433-.622.879-1.235,1.33-1.844.462-.624.926-1.247,1.407-1.856.335-.425.7-.826,1.051-1.237l1.6-1.868c.019-.023.043-.042.064-.064.788-.818,1.568-1.644,2.367-2.451.481-.486.989-.946,1.494-1.407.544-.5,1.085-1,1.652-1.467.882-.728,1.793-1.421,2.677-2.147.976-.8,2.025-1.5,3.046-2.241,1.069-.774,2.2-1.449,3.313-2.146.966-.6,1.952-1.168,2.95-1.714.74-.4,1.443-.877,2.172-1.3.689-.4,1.373-.823,2.089-1.175.773-.38,1.573-.71,2.377-1.022a4.772,4.772,0,0,1,1-.195,1.347,1.347,0,0,1,1.393,1A12.9,12.9,0,0,1,63.451,3c.1.525.116,1.065.192,1.595s.184,1.039.264,1.56c.033.213.032.425.078.643.11.522.1,1.068.207,1.591.1.5.167,1.016.238,1.519.088.625.243,1.226.386,1.834.113.479.254.952.355,1.433.083.392.132.792.184,1.189a15.607,15.607,0,0,0,.76,2.983c.286.845.56,1.695.873,2.53s.639,1.633.992,2.435c.832,1.888,1.776,3.723,2.685,5.575.374.761.733,1.533,1.109,2.295.648,1.313,1.3,2.625,1.979,3.924.564,1.082,1.152,2.151,1.805,3.185.395.625.7,1.306,1.069,1.95.452.792.905,1.586,1.352,2.38.618,1.1,1.362,2.123,1.883,3.283.663,1.474,1.433,2.9,2.112,4.366.537,1.161,1.048,2.333,1.48,3.544.317.89.55,1.793.781,2.7a3.566,3.566,0,0,1,.091.775,6.287,6.287,0,0,0,.176,1.147,5.4,5.4,0,0,1,.1,1.045c.013.828.015,1.657,0,2.485-.011.59-.036,1.182-.092,1.769q-.1,1.054-.271,2.1c-.076.473-.21.936-.311,1.405-.081.375-.151.751-.225,1.172M62.42,86.566c.214-.064.433-.116.642-.193a26.5,26.5,0,0,0,3.705-1.525c.826-.455,1.649-.908,2.43-1.44.56-.381,1.152-.714,1.714-1.092A21.136,21.136,0,0,0,73.4,80.471c.55-.5,1.161-.936,1.7-1.449.625-.6,1.2-1.243,1.794-1.873a6.334,6.334,0,0,0,.541-.634c.5-.695,1-1.387,1.467-2.1.43-.659.846-1.331,1.211-2.028.439-.838.853-1.694,1.21-2.569.274-.67.42-1.391.664-2.074a14.55,14.55,0,0,0,.541-2.171c.079-.41.134-.821.188-1.234a11.888,11.888,0,0,0,.166-1.553c0-1.448,0-2.9-.074-4.345-.036-.688-.131-1.366-.215-2.045a5.866,5.866,0,0,0-.078-.685c-.168-.681-.393-1.351-.526-2.038a22.579,22.579,0,0,0-1.106-3.383,16.641,16.641,0,0,0-.711-1.557c-.371-.765-.747-1.528-1.137-2.284-.237-.46-.5-.907-.76-1.357s-.528-.927-.8-1.383c-.51-.844-1.038-1.676-1.542-2.524-.466-.783-.877-1.6-1.371-2.366-.687-1.066-1.333-2.155-1.986-3.242-.628-1.046-1.09-2.173-1.672-3.24-.279-.511-.459-1.075-.714-1.6-.669-1.38-1.375-2.742-2.025-4.131-.536-1.146-1.023-2.316-1.513-3.483-.242-.577-.453-1.168-.66-1.759q-.5-1.421-.971-2.85c-.316-.954-.666-1.9-.916-2.871-.259-1-.559-2-.874-2.982-.251-.784-.538-1.558-.757-2.35A13.007,13.007,0,0,1,61.9,7.869,13.289,13.289,0,0,0,61.653,6.4c-.066-.335-.093-.681-.187-1.007a15.743,15.743,0,0,1-.531-2.443c-.027-.213-.151-.151-.246-.118-.607.206-1.226.387-1.811.644-.74.325-1.462.694-2.171,1.083-.751.411-1.478.868-2.216,1.3-.435.257-.884.494-1.306.771-.7.46-1.376.96-2.08,1.417-1.494.969-2.97,1.965-4.381,3.052-.733.565-1.5,1.1-2.168,1.733a43.6,43.6,0,0,0-3.339,3.486c-.719.847-1.509,1.634-2.259,2.456q-.653.716-1.277,1.458c-.551.656-1.082,1.33-1.633,1.987-.405.484-.839.944-1.241,1.43-.637.771-1.268,1.548-1.884,2.337-.422.541-.825,1.1-1.214,1.665-.409.594-.78,1.215-1.188,1.81a29.227,29.227,0,0,0-1.59,2.775c-.276.515-.519,1.049-.769,1.578-.345.73-.7,1.458-1.019,2.2-.29.662-.555,1.336-.818,2.01-.309.791-.594,1.591-.908,2.379-.4,1-.634,2.049-1.071,3.035a6.638,6.638,0,0,0-.282,1.148c-.083.348-.139.7-.192,1.053-.112.741-.307,1.47-.435,2.21a19.2,19.2,0,0,0-.266,2.01c-.042.641-.115,1.276-.183,1.913a15.741,15.741,0,0,0-.091,1.949c.021,1.147-.06,2.292.064,3.443.084.783.091,1.576.189,2.364.082.657.142,1.315.277,1.965.142.684.214,1.382.374,2.061a22.042,22.042,0,0,0,.71,2.55c.259.707.5,1.422.725,2.139a18.014,18.014,0,0,0,.975,2.351c.4.816.814,1.622,1.245,2.42.287.531.591,1.057.928,1.557.392.581.8,1.154,1.228,1.711a27.487,27.487,0,0,0,1.995,2.33A21.28,21.28,0,0,0,33.7,80.536a22.342,22.342,0,0,0,1.9,1.428c.788.495,1.6.959,2.368,1.476A20.8,20.8,0,0,0,41.3,85.3q1.361.586,2.71,1.2a12.659,12.659,0,0,0,2.478.774c.671.152,1.367.2,2.053.283.5.064,1.012.085,1.5.19a10.943,10.943,0,0,0,2.321.173c.979,0,1.957,0,2.936,0a.951.951,0,0,0,.27,0c.552-.171,1.133-.035,1.689-.172.236-.059.488-.052.729-.1q.624-.12,1.243-.27c.464-.112.925-.238,1.386-.36.57-.15,1.14-.3,1.8-.452" transform="translate(-20.173 0.001)" fill="#06b0e3"/>
      <path id="Path_66932" data-name="Path 66932" d="M108.228,1639.662c-.685.023-1.348.035-2.01.019a9.439,9.439,0,0,1-2.1-.261,5.212,5.212,0,0,0-.819-.1,10.4,10.4,0,0,1-2.528-.658,31.523,31.523,0,0,1-3.911-1.788,14.769,14.769,0,0,1-1.294-.8c-.547-.357-1.1-.711-1.624-1.094-.377-.272-.728-.581-1.079-.887-.555-.483-1.121-.957-1.646-1.472-.649-.637-1.285-1.291-1.884-1.975a25.691,25.691,0,0,1-2.527-3.242q-.481-.768-.924-1.56a5.7,5.7,0,0,1-.351-.8.957.957,0,0,1-.042-.386.291.291,0,0,1,.116-.212c.044-.024.159.031.209.083a2.983,2.983,0,0,1,.259.342c.5.692,1,1.379,1.56,2.021.525.6,1.005,1.238,1.508,1.857a3.036,3.036,0,0,0,.222.225q1.565,1.565,3.13,3.13c.444.444.964.794,1.444,1.192a28.8,28.8,0,0,0,2.524,1.772c.5.333,1.037.617,1.564.911.452.251.9.5,1.373.721.807.376,1.641.7,2.436,1.1a12.644,12.644,0,0,0,2.934.988c.452.1.9.235,1.348.343a6.016,6.016,0,0,0,.634.106c.5.064,1,.117,1.505.187a.961.961,0,0,1,.263.125,2.649,2.649,0,0,0-.288.119" transform="translate(-81.498 -1548.69)" fill="#06b0e3"/>
      <path id="Path_66933" data-name="Path 66933" d="M1046.533,312.275c.225.345.429.667.627.992a.667.667,0,0,1,.048.185c-.062-.018-.144-.018-.183-.058a21.906,21.906,0,0,1-1.836-1.988c-.517-.686-.957-1.423-1.482-2.1a19.289,19.289,0,0,1-1.714-2.859c-.359-.679-.744-1.347-1.063-2.044-.341-.745-.619-1.52-.925-2.281-.15-.374-.288-.754-.455-1.121a17.369,17.369,0,0,1-.724-2.14c-.244-.8-.534-1.587-.773-2.389-.161-.539-.272-1.093-.4-1.643-.215-.951-.427-1.9-.631-2.855a4.289,4.289,0,0,1-.086-.73c0-.086.079-.175.123-.262.073.039.183.06.212.12a9.906,9.906,0,0,1,.466,1.071c.345,1.017.647,2.05,1.005,3.062.279.786.622,1.549.928,2.325.445,1.126.876,2.257,1.326,3.381.351.878.706,1.755,1.087,2.621.292.663.634,1.3.939,1.96.5,1.085.987,2.181,1.5,3.262.192.4.448.778.672,1.168a1.57,1.57,0,0,1,.188.373,6.1,6.1,0,0,0,.712,1.332,5.614,5.614,0,0,0,.434.621" transform="translate(-988.586 -277.411)" fill="#06b0e3"/>
      <path id="Path_66934" data-name="Path 66934" d="M984.71,38.429c-.053-.206-.082-.389-.113-.572-.09-.534-.179-1.069-.271-1.6a20.362,20.362,0,0,1-.343-2.064,4.374,4.374,0,0,1,.061-1.59,9.759,9.759,0,0,0,.2-1.23c.009-.053.067-.1.1-.146.025.044.07.089.071.133a17.619,17.619,0,0,0,.538,3.208c.156.8.373,1.594.54,2.4.1.464.122.942.192,1.412.056.38.128.759.2,1.137.049.264.11.527.161.791.035.182.067.366.087.55,0,.041-.045.088-.07.132a.666.666,0,0,1-.105-.1,4.178,4.178,0,0,0-.4-.6,4.312,4.312,0,0,1-.847-1.851" transform="translate(-938.058 -29.767)" fill="#06b0e3"/>
      <path id="Path_66935" data-name="Path 66935" d="M2.876,1393.987a.189.189,0,0,1-.109.022,12.3,12.3,0,0,0-.923-1.922,24.155,24.155,0,0,1-1.363-3.634c-.1-.377-.1-.792-.2-1.184-.109-.455-.186-.918-.274-1.377a.382.382,0,0,1,0-.179c.013-.041.065-.07.1-.1.026.028.065.052.075.086a5.719,5.719,0,0,0,.338,1.127,10.42,10.42,0,0,1,.566,1.345c.427,1.118.9,2.224,1.242,3.368a10.786,10.786,0,0,1,.5,1.647,5.877,5.877,0,0,1,.044.809" transform="translate(0 -1320.995)" fill="#06b0e3"/>
      <path id="Path_66936" data-name="Path 66936" d="M285.909,877.826c.03.183.077.32.087.46a14.737,14.737,0,0,0,.1,1.541,22.658,22.658,0,0,1,.184,3.179,3.118,3.118,0,0,0,.163,1.1.675.675,0,0,1,0,.269c-.029.68-.026,1.364-.1,2.039a1.36,1.36,0,0,1-.507.9,3.964,3.964,0,0,1-2.1.721c-.611.081-1.22.179-1.83.268a.824.824,0,0,1-.09,0c-.846.03-1.7.019-2.536.1a13.444,13.444,0,0,1-1.906.07,15.972,15.972,0,0,1-2.226-.191,2.065,2.065,0,0,1-1.456-1.08,3.867,3.867,0,0,1-.336-1.081c-.082-.352-.044-.73-.108-1.088a9.767,9.767,0,0,0-.258-1.834.313.313,0,0,1-.007-.088c-.03-.454-.048-.91-.092-1.363-.164-1.672-.046-3.348-.1-5.022-.014-.488-.118-.974-.171-1.462a4.176,4.176,0,0,1,0-.451c0-.548-.084-.657-.607-.7-.574-.044-1.149-.073-1.724-.091q-1.743-.055-3.486-.091a7.391,7.391,0,0,0-1.921.266,4.056,4.056,0,0,1-.685.092c-.544.038-1.09.092-1.634.083a2.777,2.777,0,0,1-1.092-.188,1.64,1.64,0,0,1-.953-1.117,17.911,17.911,0,0,1-.3-2.052c-.09-.82.013-1.64-.089-2.447-.055-.434-.041-.864-.054-1.291a8.018,8.018,0,0,1,.162-1.868,1.566,1.566,0,0,0,0-.271,12.007,12.007,0,0,1,.366-2.6,1.311,1.311,0,0,1,.995-.884,5.7,5.7,0,0,1,1.647-.283c1.042-.018,2.089,0,3.123-.107.76-.08,1.513-.042,2.269-.068,1.132-.04,2.264-.061,3.4-.094a1.132,1.132,0,0,0,.805-.45.309.309,0,0,0,.049-.159,6.076,6.076,0,0,0,.087-.73c.011-.867.185-1.719.213-2.589.021-.648-.011-1.307.075-1.949.083-.625.109-1.257.246-1.88.118-.534.116-1.094.2-1.638a5.385,5.385,0,0,1,.535-2.217,1.492,1.492,0,0,1,1.26-.775c1.689-.109,3.38-.108,5.067-.061.815.022,1.637.01,2.445.094.5.052,1,.024,1.5.073.325.032.645.115.969.164.286.043.574.07.861.1a.816.816,0,0,1,.639.457,1.817,1.817,0,0,1,.276,1.017c-.021.33.005.663-.006.993a15.311,15.311,0,0,1-.107,1.9,12.179,12.179,0,0,0-.071,1.276c-.033.56-.031,1.123-.1,1.678-.078.637-.129,1.274-.185,1.913-.071.8-.173,1.6-.168,2.411,0,.414.142.522.534.651a9.5,9.5,0,0,0,1.733.19,7.356,7.356,0,0,1,1.331.152,5.887,5.887,0,0,0,.817.1c.446.078.887.189,1.334.265s.885.113,1.324.186a8.5,8.5,0,0,1,2.293.46c.7.33,1.389.718,1.573,1.579a4.8,4.8,0,0,1,.166.922c.018,1.43.008,2.861.008,4.291-.206.578.029,1.2-.177,1.779a.834.834,0,0,0,0,.27,7.034,7.034,0,0,1-.291,2.23,2.069,2.069,0,0,1-.948,1.4,1.1,1.1,0,0,1-.473.155,4.585,4.585,0,0,1-1.277-.067,4.236,4.236,0,0,0-1-.1c-.514-.035-1.033-.031-1.542-.1-.621-.084-1.252-.1-1.866-.19a27.5,27.5,0,0,0-3.948-.163c-.4,0-.41,0-.4.4.022.876.058,1.752.088,2.672m1.129-6.144c.39-.33.774-.669,1.173-.987.324-.259.67-.49,1-.738.369-.274.744-.541,1.1-.832.588-.48,1.159-.98,1.743-1.465q.72-.6,1.452-1.181c.213-.17.442-.319.653-.491.4-.321.79-.646,1.173-.981.215-.188.406-.4.609-.6.085-.084.176-.163.265-.244-.112-.082-.223-.167-.338-.245-.021-.014-.061,0-.089,0-.365-.1-.734-.187-1.093-.3a.859.859,0,0,0-.891.137,5.691,5.691,0,0,1-.789.6,18.665,18.665,0,0,0-2.959,2.439c-.8.712-1.556,1.483-2.331,2.228-.033.031-.062.066-.1.1L285.66,870.8c-.433.373-.853.76-1.3,1.114-.756.6-1.532,1.171-2.294,1.76-.458.354-.9.728-1.361,1.076-.663.5-1.347.972-2,1.48-.618.479-1.259.925-1.843,1.453s-1.266.991-1.828,1.573c-.182.188-.4.341-.6.514a1.025,1.025,0,0,0-.454.943c.082.65.126,1.3.188,1.956a.558.558,0,0,0,.039.119c.051-.018.117-.022.152-.057.374-.367.733-.75,1.117-1.107.583-.542,1.183-1.066,1.774-1.6.34-.307.676-.619,1.017-.925.207-.185.416-.369.633-.542.564-.451,1.139-.889,1.7-1.344.42-.341.822-.7,1.236-1.051.725-.609,1.462-1.2,2.178-1.824.471-.408.9-.86,1.373-1.271.525-.461,1.072-.9,1.654-1.389m-2.078-1.355c.339-.309.68-.615,1.016-.927.5-.466,1-.936,1.5-1.4.022-.021.041-.044.064-.063.516-.426,1.054-.828,1.542-1.284a21.182,21.182,0,0,1,1.685-1.5c.715-.538,1.41-1.1,2.116-1.656.077-.061.166-.107.249-.161l-.275-.055-.874-.18a7.961,7.961,0,0,0-.875-.171c-.178-.016-.37-.076-.55.08-.761.664-1.649,1.162-2.4,1.848-.6.548-1.257,1.028-1.887,1.54-.5.4-.988.811-1.485,1.212-.439.354-.889.7-1.322,1.056-.462.385-.9.8-1.366,1.176-.832.671-1.677,1.324-2.52,1.982-.374.292-.757.573-1.132.864-.434.337-.868.674-1.292,1.023s-.845.723-1.268,1.084c-.611.522-1.219,1.049-1.838,1.561a.675.675,0,0,0-.249.624c.042.74.064,1.48.1,2.22a.775.775,0,0,0,.043.162c.051-.021.117-.028.152-.064a22.562,22.562,0,0,1,2.125-1.85c.3-.247.61-.489.915-.735s.636-.505.946-.767c.448-.378.882-.773,1.333-1.146.625-.518,1.262-1.023,1.892-1.535.5-.4.968-.84,1.49-1.206a22.616,22.616,0,0,0,2.171-1.732M286,854.56q.045-.7.09-1.408a.189.189,0,0,1,.006-.043c.013-.043.028-.085.042-.128a.546.546,0,0,0-.153.061c-.214.177-.417.368-.636.54-.816.642-1.64,1.275-2.455,1.919-.253.2-.481.432-.732.635-.415.336-.855.643-1.255,1-.546.482-1.065,1-1.595,1.5-.044.041-.082.089-.128.127-.451.363-.911.716-1.354,1.088-.483.405-.945.837-1.43,1.241-.624.52-1.271,1.012-1.89,1.538-.75.637-1.481,1.3-2.221,1.944-.22.193-.44.387-.666.574-.5.417-1.014.826-1.514,1.248-.3.256-.591.534-.891.8-.674.588-1.351,1.171-2.026,1.757a6.289,6.289,0,0,1-.734.631,17.087,17.087,0,0,0-1.606,1.351c-.286.231-.551.488-.827.732-.507.448-1.016.893-1.519,1.344-.045.04-.054.121-.079.183a.57.57,0,0,0,.166.033,5.527,5.527,0,0,0,1.277-.075,5.926,5.926,0,0,1,.951-.109.931.931,0,0,0,.425-.166c.412-.327.806-.676,1.207-1.016.6-.511,1.214-1.009,1.8-1.536.816-.733,1.614-1.487,2.418-2.232.077-.072.145-.154.225-.222.653-.566,1.314-1.122,1.961-1.7.456-.4.891-.83,1.338-1.242.282-.26.567-.516.857-.766.609-.525,1.227-1.04,1.833-1.567.357-.31.691-.648,1.052-.954.688-.583,1.392-1.147,2.082-1.728.482-.406.946-.836,1.429-1.242.679-.571,1.371-1.126,2.051-1.7.449-.376.884-.77,1.333-1.146.254-.213.53-.4.784-.611a.912.912,0,0,0,.385-.652m-9.08,11.52a.872.872,0,0,0,.185-.1c.321-.284.629-.582.956-.859.7-.592,1.422-1.16,2.113-1.763.549-.479,1.062-1,1.6-1.5.237-.22.478-.436.729-.638.563-.453,1.139-.889,1.7-1.345.409-.333.8-.681,1.2-1.034a.5.5,0,0,0,.149-.287c.071-.591.125-1.184.187-1.776.01-.1.04-.195.054-.293a3.32,3.32,0,0,0,.031-.347c0-.014-.076-.051-.087-.042-.246.209-.492.419-.731.636-.416.38-.826.768-1.241,1.148-.272.249-.545.495-.825.734-.588.5-1.187.994-1.769,1.5-.424.371-.827.766-1.243,1.147-.261.238-.524.474-.793.7-.567.482-1.141.956-1.706,1.439-.3.259-.587.538-.891.8-.734.622-1.475,1.236-2.212,1.854-.213.179-.419.366-.634.542-.461.376-.93.74-1.387,1.12-.439.365-.86.752-1.3,1.114-.773.635-1.566,1.246-2.331,1.89-.6.5-1.166,1.041-1.749,1.56-.208.185-.422.362-.632.544-.055.048-.106.1-.159.152.082.017.182.073.243.045a2.461,2.461,0,0,1,1-.081,3.771,3.771,0,0,0,1.207-.034c.347-.141.587-.54.882-.817.126-.118.287-.2.405-.324a13.8,13.8,0,0,1,1.71-1.435c.758-.572,1.482-1.194,2.274-1.713a34.1,34.1,0,0,0,3.071-2.547m-2.078,8.674c.318-.287.627-.584.954-.86.477-.4.969-.787,1.449-1.185.249-.206.481-.431.731-.636.448-.367.909-.719,1.354-1.089s.864-.8,1.337-1.14c.857-.619,1.584-1.386,2.4-2.054.69-.568,1.341-1.183,2.033-1.748.816-.667,1.648-1.313,2.489-1.948.545-.411,1.119-.785,1.677-1.179.038-.027.054-.084.08-.127a.328.328,0,0,0-.11-.05,6.356,6.356,0,0,1-.761-.022,7.983,7.983,0,0,1-1.156-.258.876.876,0,0,0-1.007.256,17.335,17.335,0,0,1-1.494,1.166c-.524.416-1.032.851-1.55,1.274-.46.376-.927.744-1.387,1.119-.361.294-.709.6-1.078.888-.568.436-1.157.846-1.723,1.285-.63.489-1.226,1.022-1.869,1.491a18.324,18.324,0,0,0-1.762,1.41c-.247.231-.5.45-.76.671-.442.384-.885.769-1.331,1.148-.123.1-.124.2.006.282.179.117.161.291.177.471.048.548.115,1.094.179,1.641,0,.034.038.085.065.09a.15.15,0,0,0,.112-.044,9.531,9.531,0,0,1,.95-.854M278,858.4c.476-.415.949-.833,1.427-1.245.62-.535,1.246-1.064,1.867-1.6.256-.22.5-.459.763-.668.634-.5,1.28-.98,1.918-1.472.548-.423,1.089-.856,1.641-1.275s.56-.44.56-1.116a2.019,2.019,0,0,1,0-.226.829.829,0,0,0-.326-.726c-.1-.093-.154-.086-.255,0-.6.517-1.2,1.02-1.8,1.538-.357.31-.694.645-1.052.955-.574.5-1.2.944-1.731,1.479q-1.638,1.636-3.405,3.126c-.488.412-.943.862-1.4,1.307-.508.493-1,1-1.5,1.5a5.6,5.6,0,0,1-.468.493c-.227.179-.108.453-.225.658a.722.722,0,0,0-.033.257,1.553,1.553,0,0,1-.826,1.065.5.5,0,0,1-.515.041.643.643,0,0,0-.712.08c-.3.285-.6.567-.921.829s-.689.518-1.03.781c-.571.441-1.142.882-1.707,1.331-.365.29-.717.6-1.076.892-.5.416-1.013.828-1.516,1.247-.248.207-.477.437-.732.635a18.979,18.979,0,0,0-1.932,1.661c-.152.155-.343.271-.5.42q-.378.356-.733.736a.35.35,0,0,0-.082.233c.021.41.055.818.088,1.227a.364.364,0,0,0,.05.11.547.547,0,0,0,.127-.08c.057-.063.094-.146.155-.205q1.336-1.3,2.676-2.588c.022-.021.041-.045.064-.064.484-.394.973-.783,1.451-1.184.3-.256.588-.537.892-.8.533-.453,1.075-.894,1.61-1.344.247-.208.48-.433.731-.636.6-.484,1.206-.95,1.795-1.442.519-.433,1.018-.89,1.524-1.339q.827-.733,1.65-1.469c.539-.479,1.086-.95,1.616-1.439.6-.555,1.191-1.127,1.875-1.691m-.542,8.132c-.443.383-.88.774-1.331,1.147-.625.518-1.261,1.023-1.892,1.534l-2.4,1.947q-.254.206-.505.415-.806.67-1.611,1.342a.361.361,0,0,0-.059.095.84.84,0,0,0,.124.025c.574.031,1.149.056,1.723.094.184.012.366.076.55.081a.705.705,0,0,0,.413-.081c.271-.2.514-.438.766-.662.561-.5,1.113-1.009,1.683-1.5.719-.616,1.453-1.214,2.178-1.822.581-.487,1.151-.99,1.742-1.465.821-.66,1.672-1.282,2.482-1.955.658-.547,1.266-1.153,1.912-1.715.448-.389.925-.745,1.384-1.121.227-.185.44-.387.667-.572.175-.142.227-.286.08-.482s-.089-.454-.087-.684a4.065,4.065,0,0,1,.083-.414c.032-.273-.063-.559.088-.823.02-.035-.023-.106-.038-.16a.441.441,0,0,0-.152.06c-.238.23-.45.492-.708.7a27.569,27.569,0,0,0-2.12,1.855c-.5.486-1,.978-1.53,1.432-.514.44-1.072.827-1.6,1.252-.556.448-1.1.914-1.647,1.369-.041.034-.1.044-.2.111M279.4,886c.275-.245.555-.483.823-.735q.944-.888,1.877-1.786c.936-.9,1.866-1.809,2.8-2.708a.566.566,0,0,0,.191-.466,12.358,12.358,0,0,0-.09-1.9c-.022-.119-.061-.178-.16-.1q-.467.354-.915.732c-.292.247-.56.524-.86.761-.631.5-1.285.97-1.914,1.473-.58.464-1.146.947-1.707,1.434s-1.128.991-1.68,1.5c-.591.545-1.175,1.1-1.748,1.66-.315.31-.592.658-.9.978-.143.149-.018.247.068.276a6.629,6.629,0,0,0,.821.2,9.5,9.5,0,0,0,1.1.175,1.064,1.064,0,0,0,1.049-.311A13.406,13.406,0,0,1,279.4,886m3.479-7.183c.465-.4.935-.8,1.392-1.216a1.287,1.287,0,0,0,.577-1.127,3.124,3.124,0,0,1-.032-1.461c.028-.069-.019-.168-.031-.253a1.83,1.83,0,0,0-.248.145c-.093.075-.167.175-.258.252-.758.641-1.521,1.274-2.275,1.919-.525.449-1.028.925-1.557,1.369-.835.7-1.693,1.375-2.522,2.082-.64.546-1.248,1.129-1.878,1.687-.393.349-.8.684-1.2,1.023-.155.131-.314.257-.474.383-.087.068-.06.124-.044.231.088.6.133,1.213.2,1.82a1.1,1.1,0,0,0,.056.194.94.94,0,0,0,.181-.107c.554-.519,1.1-1.044,1.658-1.562.247-.231.5-.456.761-.67.425-.347.862-.681,1.291-1.024.363-.291.713-.6,1.081-.882.569-.437,1.169-.836,1.718-1.3s1.045-.972,1.61-1.507m10.436-8.719a21.432,21.432,0,0,0,2.4-2.039c.216-.19.447-.365.681-.533a.5.5,0,0,0,.264-.462c-.02-.571-.005-1.143-.008-1.714a1.975,1.975,0,0,0-.034-.256c-.083.047-.171.087-.249.142a2.19,2.19,0,0,0-.375.288,21.987,21.987,0,0,1-2.186,1.81c-.705.6-1.452,1.145-2.167,1.73-.476.389-.92.819-1.4,1.206-.672.544-1.36,1.068-2.044,1.6-.375.29-.759.568-1.13.863s-.718.593-1.075.892a.943.943,0,0,0-.087.1.5.5,0,0,0,.119.039c.469.032.937.064,1.406.09.15.008.3-.006.451,0a1.742,1.742,0,0,0,.532.043,1.971,1.971,0,0,0,.5-.316c.294-.2.6-.377.878-.6.456-.367.888-.763,1.333-1.143.276-.236.554-.471.84-.7.43-.337.867-.664,1.347-1.041m-14.05-17.935c-.413.383-.836.756-1.237,1.15q-1.283,1.263-2.546,2.547c-.321.326-.628.667-.922,1.018a.891.891,0,0,0-.211.449c-.052.542-.068,1.087-.1,1.631-.005.085-.033.168-.042.252a1.353,1.353,0,0,0,0,.181c.051-.023.116-.033.15-.071.134-.152.248-.322.387-.469.666-.7,1.316-1.424,2.015-2.094.589-.566,1.26-1.046,1.854-1.607,1.174-1.109,2.317-2.251,3.478-3.375.394-.381.793-.757,1.209-1.114.282-.242.6-.444.894-.669a.454.454,0,0,0,.082-.124.364.364,0,0,0-.108-.052c-.074-.008-.15,0-.225,0a6.539,6.539,0,0,1-1.364-.079.761.761,0,0,0-.821.29,1.8,1.8,0,0,1-.286.287c-.734.586-1.47,1.169-2.21,1.852m17.483,18.567c.03-.048.086-.1.086-.143.006-.6,0-1.2.007-1.8,0-.156-.182-.308-.007-.472.018-.017-.026-.1-.042-.156a.534.534,0,0,0-.152.067c-.658.593-1.309,1.194-1.97,1.783-.392.35-.792.692-1.2,1.02-.676.54-1.365,1.063-2.044,1.6-.512.4-1.016.816-1.524,1.224-.038.031-.072.066-.108.1.042.027.081.072.125.079a4.708,4.708,0,0,0,.729.088,6.212,6.212,0,0,1,1.732.18.315.315,0,0,0,.237-.068c.364-.291.716-.6,1.078-.888.246-.2.505-.38.753-.576q1.106-.874,2.2-1.757c.05-.04.066-.121.1-.273m-33.656-2.123c.211-.181.423-.36.633-.543.476-.414.946-.834,1.426-1.243.766-.653,1.532-1.306,2.309-1.945q.8-.659,1.638-1.276c.48-.355.98-.683,1.47-1.025a1.414,1.414,0,0,0,.159-.151.742.742,0,0,0-.2-.048c-.484.025-.968.06-1.452.086a1.036,1.036,0,0,0-.569.163,15.436,15.436,0,0,0-1.464,1.035c-.8.668-1.639,1.3-2.422,1.988-.76.671-1.472,1.4-2.2,2.1q-.387.373-.759.762a.455.455,0,0,0-.14.254c-.015.391-.008.782,0,1.173a.351.351,0,0,0,.046.114.492.492,0,0,0,.131-.076c.087-.1.154-.213.247-.3.366-.345.739-.683,1.155-1.068m19.335,15.631c-.328.3-.661.589-.982.894-.778.74-1.549,1.486-2.323,2.231a.711.711,0,0,0-.071.1.433.433,0,0,0,.122.031c.649-.028,1.3-.036,1.946-.1a1,1,0,0,0,.885-.562,2.775,2.775,0,0,1,.289-.375q1.394-1.361,2.8-2.711a.511.511,0,0,0,.187-.422c-.018-.526,0-1.052-.008-1.578a1.256,1.256,0,0,0-.036-.21.791.791,0,0,0-.215.115c-.409.429-.8.877-1.217,1.3s-.886.832-1.376,1.292m-7.183-31.849c-.12.146-.294.274-.349.441a2.249,2.249,0,0,0-.1.77,13.079,13.079,0,0,1-.189,1.5c-.013.163-.184.309-.049.487a3.558,3.558,0,0,1,.289-.366q1.747-1.711,3.5-3.415c.022-.021.041-.044.064-.063q.885-.75,1.771-1.5c.121-.1.252-.191.376-.289a1.113,1.113,0,0,0,.1-.1.413.413,0,0,0-.147-.048c-.3.024-.606.072-.91.084-.375.015-.752.017-1.127,0a.6.6,0,0,0-.506.207c-.235.241-.5.456-.756.674q-.8.675-1.611,1.34c-.1.081-.208.15-.358.269m-8.177,10.165a.56.56,0,0,0,.132-.076c.009-.009-.026-.1-.05-.1a.973.973,0,0,0-.225,0c-.635.029-1.27.057-1.9.093a.5.5,0,0,0-.276.091c-.462.381-.925.763-1.368,1.165-.2.185-.357.426-.549.627-.29.305-.6.589-.888.9a1.4,1.4,0,0,0-.412.591,13.138,13.138,0,0,0-.1,1.54c0,.047.039.1.061.143a.591.591,0,0,0,.147-.078c.31-.3.61-.618.923-.917.472-.452.946-.9,1.432-1.34.4-.362.82-.7,1.232-1.056.6-.511,1.2-1.022,1.849-1.578m27.919,10.661c-.43.34-.861.677-1.286,1.023a.187.187,0,0,0-.018.165.152.152,0,0,0,.125.073c.471-.056.939.087,1.413.009a1,1,0,0,0,.892-.618c.225-.628.426-1.265.633-1.9a.116.116,0,0,0-.051-.1.144.144,0,0,0-.116.033c-.156.135-.3.282-.461.412-.358.291-.723.574-1.13.9m-12.107,14,.459-.09c.321-.061.649-.1.961-.187.45-.132.844-.354.916-.885.057-.43.1-.861.144-1.292,0-.042-.058-.106-.1-.13-.024-.013-.09.031-.123.064-.608.6-1.22,1.2-1.815,1.821a2.311,2.311,0,0,0-.437.7m-7.228-35.779a13.725,13.725,0,0,1,1.762-1.4.407.407,0,0,0,.084-.094.426.426,0,0,0-.119-.037c-.5,0-.992,0-1.487,0-.42,0-.435,0-.551.434-.13.49-.228.988-.339,1.483a.114.114,0,0,0,.011.061c.041,0,.092.005.12-.016.161-.123.317-.253.52-.425m-12.107,11.294c.1-.131.056-.2-.1-.178a8.047,8.047,0,0,0-1.139.189c-.292.084-.649.151-.706.561-.059.426-.121.852-.178,1.278-.005.039.016.115.029.116a.208.208,0,0,0,.15-.031c.125-.14.225-.3.356-.436.494-.5,1-1,1.587-1.5" transform="translate(-247.953 -809.057)" fill="#06b0e3"/>
      <path id="Path_66937" data-name="Path 66937" d="M113.157,498.179c.06-.261.147-.473.176-.693a30.089,30.089,0,0,1,.759-3.616c.271-1.038.642-2.05.96-3.077.219-.708.4-1.429.641-2.128a25.419,25.419,0,0,1,1.027-2.6c.383-.8.688-1.641,1.048-2.455.264-.6.56-1.183.843-1.773.169-.352.334-.7.51-1.053a18.314,18.314,0,0,1,1.751-2.843c.525-.692,1-1.424,1.5-2.129.427-.594.858-1.186,1.315-1.757a23.058,23.058,0,0,1,1.941-2.224c.232-.224.427-.484.644-.724.023-.026.079-.022.12-.033a.41.41,0,0,1-.04.127c-.466.62-.939,1.235-1.4,1.858a24.353,24.353,0,0,0-1.5,2.177c-.733,1.249-1.516,2.469-2.227,3.73-.422.75-.746,1.556-1.112,2.337-.219.466-.442.93-.651,1.4-.451,1.017-.893,2.038-1.343,3.056-.152.344-.313.683-.478,1.021a19.443,19.443,0,0,0-.962,2.627q-.4,1.254-.813,2.507c-.278.848-.571,1.691-.836,2.543-.191.615-.345,1.242-.52,1.862-.122.431-.26.857-.375,1.289-.154.585-.287,1.175-.439,1.76q-.217.834-.458,1.661a3.3,3.3,0,0,0-.266,1.11c0,.031-.033.064-.051.1-.032-.032-.081-.059-.093-.1a1.473,1.473,0,0,1-.116-.49c.026-.356.1-.708.156-1.061.035-.226.077-.452.1-.679.037-.3.06-.607.092-.91.028-.259.06-.517.09-.821" transform="translate(-107.457 -449.107)" fill="#06b0e3"/>
      <path id="Path_66938" data-name="Path 66938" d="M1229.76,1283.728a4.618,4.618,0,0,1,.174.648,11.07,11.07,0,0,1,.076,1.946,16.219,16.219,0,0,1-.321,1.888,19.677,19.677,0,0,1-.654,2.486c-.163.443-.366.872-.537,1.312a5.61,5.61,0,0,1-.725,1.37,13.908,13.908,0,0,1-1.873,2.2.128.128,0,0,1-.122.012.129.129,0,0,1-.03-.121c.066-.139.145-.271.22-.406a12.723,12.723,0,0,0,1-2.477,8.186,8.186,0,0,1,.358-.889c.3-.675.625-1.337.894-2.022.193-.493.315-1.014.459-1.526.186-.661.392-1.318.536-1.989a10.312,10.312,0,0,0,.094-2.263c0-.259-.063-.516-.081-.776,0-.068.053-.14.081-.21.088.042.225.062.255.129a4.185,4.185,0,0,1,.2.684" transform="translate(-1168.583 -1223.091)" fill="#06b0e3"/>
      <path id="Path_66939" data-name="Path 66939" d="M512.305,1646.872a2.906,2.906,0,0,0,1.3,2.159,1.14,1.14,0,0,0,.6.193,14.207,14.207,0,0,1,1.809.1c.5.085,1.009,0,1.5.088s.945-.069,1.415-.011a1.15,1.15,0,0,1,.249.091,1.6,1.6,0,0,1-.211.085c-.49.123-.978.265-1.475.355a6.992,6.992,0,0,1-1.134.094c-.811.013-1.623.008-2.435,0a2.018,2.018,0,0,1-1.639-.713,3.233,3.233,0,0,1-.789-1.926c-.021-.544-.059-1.087-.088-1.631,0-.09-.035-.2.007-.265a1.449,1.449,0,0,1,.284-.251,1.151,1.151,0,0,1,.157.236c.158.446.3.9.455,1.39" transform="translate(-487.541 -1568.526)" fill="#06b0e3"/>
      <path id="Path_66940" data-name="Path 66940" d="M484.881,893.578c.12-.432.238-.819.363-1.2.064-.2.138-.394.214-.589.015-.038.061-.065.093-.1a.4.4,0,0,1,.05.142c-.025.409-.043.82-.092,1.226-.037.309-.137.61-.171.919-.05.452-.071.907-.094,1.361-.035.71-.057,1.42-.094,2.129a3.207,3.207,0,0,0-.073.817,11.18,11.18,0,0,1,.075,1.817.885.885,0,0,1,0,.225c-.009.043-.055.079-.085.119a.6.6,0,0,1-.09-.116,3.882,3.882,0,0,1-.352-.845,9.4,9.4,0,0,1-.369-2.647,8.864,8.864,0,0,1,.4-2.361,6.148,6.148,0,0,0,.228-.9" transform="translate(-461.653 -850.109)" fill="#06b0e3"/>
    </g>
  </g>
</svg>
