<svg id="Group_158506" data-name="Group 158506" xmlns="http://www.w3.org/2000/svg" xmlns:xlink="http://www.w3.org/1999/xlink" width="95.354" height="68.665" viewBox="0 0 95.354 68.665">
  <defs>
    <clipPath id="clip-path">
      <rect id="Rectangle_10199" data-name="Rectangle 10199" width="95.354" height="68.665" fill="#c39a6b"/>
    </clipPath>
  </defs>
  <g id="Group_158503" data-name="Group 158503" transform="translate(0 0)">
    <g id="Group_158502" data-name="Group 158502" clip-path="url(#clip-path)">
      <path id="Path_66558" data-name="Path 66558" d="M80.977,68a.814.814,0,0,0,.16-.663,7.361,7.361,0,0,0-4.015-4.112.74.74,0,0,0,.025-.276,10.012,10.012,0,0,1,.635-4.561,16.451,16.451,0,0,0,1.141-2.7c1.632.5,3.19.578,4.289-.472a1.05,1.05,0,0,0,.367-.911l-.116-.406a12.2,12.2,0,0,0,3.593-.443c.794-.224,1.11-1.688.513-1.833,0-.21-.072-.378-.291-.4a48.773,48.773,0,0,1-4.9-.758,1.736,1.736,0,0,0,.037-1.551,3.625,3.625,0,0,0-.786-1.018c-1.181-1.344-.191-2.915,1.7-3.322,1.3-.279,3.382-.279,3.777-1.813.87.273,1.738.553,2.61.815.647.194,1.136-.712,1.1-1.229-.071-1.127.045-.866-.623-1.681.323-.423.467-.989.087-1.182-.933-.472-1.883-.921-2.83-1.373-.22-1.649-.533-2.688.489-4.192a11.967,11.967,0,0,1,3.6-3c.855.183,1.7.379,2.559.546.991.192,1.842-1.8.709-1.8a.329.329,0,0,0-.1-.1,61.912,61.912,0,0,0-8.327-3.4,5.673,5.673,0,0,0,1.1-1.447c.129-.2.292-.623-.048-.727-.532-.164-1.058-.343-1.588-.51a.422.422,0,0,0,.013-.053,4.614,4.614,0,0,1,2.413-4.3.913.913,0,0,0,.332-.794,1.979,1.979,0,0,0,.377-.291l.018.008c.769.341,1.839-1.475.893-1.772C75.155,11.669,60.934,5.352,46.321.35c-1.7-1-4.063.329-5.231,1.618A6.592,6.592,0,0,0,39.572,7.9c-.583-.172-1.164-.343-1.739-.517-4.434-1.35-8.895-3.1-13.4-4.206a.223.223,0,0,0-.193-.223c-2.651-.6-6.812,1.928-8.151,4.16a6.687,6.687,0,0,0,.02,6.106c-2.749.667-5.445,3.04-7.148,5.047-2.183,2.575-2.016,4.868.213,7.31.014.015.033.014.048.027l-.05.007C5.811,24.169,1.711,27.736.553,30.681c-1.07,2.727-.768,7.972,2.525,8.826a.191.191,0,0,0,.075.068c5.541,2.8,11.763,4.259,17.585,6.407,6.633,2.444,13.185,5.113,19.733,7.773C53.394,59,66.285,64.365,79.664,68.331c.013.032.035.061.049.093.14.341.479.279.794.061A.916.916,0,0,0,80.976,68m-4.2-9.607a15.042,15.042,0,0,0-.865,4.291c-1.719-.69-3.589-1.185-5.244-1.8-7.718-2.863-15.633-5.022-23.337-7.952-12.876-4.9-25.761-13.2-39.512-15.26.157-.343.136-.721-.285-.721-.043,0-.093.011-.137.013-.646-1.081-1.5-1.937-1.756-3.254A5.127,5.127,0,0,1,7.23,29.17a7.183,7.183,0,0,0,2.226-.6c13.624,6.62,28.422,11.257,42.6,16.575C59,47.756,65.949,50.321,72.877,52.967c1.438.55,3.56,1.85,5.62,2.57a6.58,6.58,0,0,0-1.715,2.854m4.026-8.814c-6.065-2.338-12.377-4.072-18.593-6.038-3.636-1.557-7.209-3.143-10.68-4.547C39,33.924,26.6,28.294,13.841,23.805a.541.541,0,0,0-.172-.362A6.047,6.047,0,0,1,11.776,21.3a1.509,1.509,0,0,1,.28-1.438c11,5.388,22.636,9.708,33.91,14.5C57.048,39.067,68.336,43.9,80.36,45.5a3.658,3.658,0,0,0-.68,2.126A9.171,9.171,0,0,0,80.8,49.574M13.668,18.107a7.54,7.54,0,0,1,2.752-1.551.779.779,0,0,0,.354-.325c11.48,5.815,23.79,10.025,35.9,14.3,11.254,3.971,22.46,8.439,33.851,12.045-1.165.819-2.43.388-3.745.805a3.6,3.6,0,0,0-.451.2A375.627,375.627,0,0,1,36.588,27.637c-.01,0-.023.018-.012.023A342.553,342.553,0,0,0,81.846,43.85a4.774,4.774,0,0,0-1.3,1.355c-24.131-4.611-45.407-17.273-68.3-25.579.128-.155.267-.309.4-.47a9.744,9.744,0,0,1,.838-.894,186.46,186.46,0,0,0,18.733,6.982M19.953,14.051a1.092,1.092,0,0,0,.193-.611c-.005-.079,0-.148,0-.225,10.829,4.7,22.391,8.247,33.43,12.452Q62.171,28.94,70.728,32.3c5.065,1.983,10.592,3.768,15.307,6.628a1.829,1.829,0,0,0,.255.25C63.953,31.462,42.343,21.627,19.953,14.051M86.589,39.264c.024.016.05.029.075.045l-.119-.042.044,0M87.85,32.13C65.573,25.49,44.932,14.256,22.589,7.889c-.1-.03-.236.187-.115.228C44.38,15.613,65.337,25.769,87.5,32.481c-.142.154-.271.31-.4.467a.155.155,0,0,0-.119-.152c-3.518-.96-6.994-2.049-10.447-3.214,3.382,1.269,6.763,2.544,10.152,3.8.032.012.065-.012.1-.019-.1.137-.2.276-.288.41a7.1,7.1,0,0,0-.351.64c-4.2-1.389-8.384-2.853-12.555-4.359q6.186,2.426,12.244,5.074a6.2,6.2,0,0,0-.435,2.009c-9.38-4.3-19.328-7.774-28.878-11.52-11.845-4.643-24.107-9.879-36.386-13.22A9.491,9.491,0,0,1,23.4,5.625c21.619,8.563,43.749,19.741,66.583,24.946a8.678,8.678,0,0,0-2.131,1.558m-2.866-6.922c-.013,0-.025.013-.038.016C70.569,20.4,56.872,14.357,42.887,8.6a1.242,1.242,0,0,0,.037-.177c.037-.334.1-.666.17-1q10.634,4.948,21.547,9.192c3.513,1.361,7.063,2.619,10.591,3.94q2.347.879,4.688,1.767c-.367-.14,6.115,2.7,5.066,2.884m-.287-2.1C70.546,18.571,56.847,12.785,43.189,6.939a19.607,19.607,0,0,1,1.348-3.788c.081-.173.188-.357.3-.547,0,0,0,.008.007.01,13.875,5.8,28.629,9.843,42.241,16.233a5.976,5.976,0,0,0-2.387,4.26m2.544-5.625C72.91,13.372,59.217,6.891,45.049,2.242a3.551,3.551,0,0,0,.382-.889l.252-.066C59.44,6.951,73.732,11.449,87.38,17.354a.711.711,0,0,0-.138.126M42.4,2.731a4.441,4.441,0,0,1,1.456-.9c-.305.529-.55,1.109-.761,1.541A28.4,28.4,0,0,0,41.547,7.34a.654.654,0,0,0-.006-.085A4.139,4.139,0,0,1,42.4,2.73m5.8,10.08A294.254,294.254,0,0,0,82.9,26.046c.437.176.873.357,1.31.536a.267.267,0,0,0,.256.105q3.107,1.283,6.153,2.7c-10.9-1.284-22.4-7.118-32.243-11.043-11.441-4.56-22.738-9.457-34.48-13.2.287-.265.579-.53.888-.794,0,0,.007-.01.012-.014,3.164,1.95,6.952,2.971,10.449,4.1,4.3,1.386,8.579,3.187,12.938,4.383m-30.2-5.877c1.167-1.222,2.841-1.69,4.4-2.3-2.566,2.009-3.932,5.747-3.921,8.908-.11-.037-.219-.077-.329-.114-.126-2.313-2.316-4.223-.152-6.492M11.677,17.411A16.028,16.028,0,0,1,16.8,14.247a.375.375,0,0,0,.113.087c23.541,9.992,48.25,17.124,71.837,26.99a.652.652,0,0,0,.025.406c-5.267-.944-10.748-3.687-15.695-5.384q-9.33-3.2-18.64-6.462C41.792,25.455,29.42,20.559,17.059,15.4a.359.359,0,0,0-.37.144.4.4,0,0,0-.084-.018c-2.307-.027-4.123,2.083-5.445,3.733a3.465,3.465,0,0,0-1.065,2.274c.087,1.344,1.474,2.609,2.407,3.454a.561.561,0,0,0,.719-.034c12.367,5.523,25.27,9.962,37.877,14.906,3.4,1.332,6.765,2.688,10.132,4.025a116,116,0,0,0,17.378,6.43q1.195.392,2.4.768a.473.473,0,0,0,.624.239.439.439,0,0,0,.048-.024c1.12.344,2.252.664,3.384.982-5.89,1.031-12.838-3.108-18-5.153q-9.277-3.674-18.582-7.251C35.922,35.022,22.458,30.958,10.7,24.337a.7.7,0,0,0-.177-.531C8,21.225,9.378,19.516,11.68,17.41M1.81,31.5c.751-3.372,3.352-4.2,6.143-4.826.56.039,1.119.095,1.668.17.451.061.9.139,1.353.2a2.363,2.363,0,0,0,.869-.013c4.589,2.688,9.909,4.2,14.835,6.1q11.786,4.549,23.567,9.108c7.443,2.881,14.921,5.673,22.367,8.548,3.152,1.218,6.245,2.6,9.459,2.985a.655.655,0,0,0-.044.367c.424,1.772-8.322-1.654-8.817-1.841-3.085-1.161-6.191-2.267-9.268-3.446-5.793-2.219-11.551-4.53-17.346-6.746-12.218-4.671-24.419-10.04-37.012-13.6a11.46,11.46,0,0,0,2.2-1.325c.025-.02.034-.1-.015-.075a22.67,22.67,0,0,1-2.357,1.047c-.481.167-.972.3-1.463.437.039-.025.075-.058.115-.082.081-.048.132-.283-.013-.217a7.721,7.721,0,0,0-1.059.588c-.046.015-.094.026-.14.042a.239.239,0,0,0-.1.115,5.23,5.23,0,0,0-2.217,3.69A5.288,5.288,0,0,0,6.072,37.3a3.614,3.614,0,0,0-1.161.794c-.009-.005-.011-.014-.02-.019A5.616,5.616,0,0,1,1.81,31.5M42.364,52.768C30.676,48.014,17.854,41.28,5.26,39.155a3,3,0,0,1,.574-.579,2.247,2.247,0,0,1,1.337-.362c.01,0,.019-.006.029-.007,11.856,2.328,22.673,8.5,33.845,12.887,6.427,2.521,13.013,4.613,19.383,7.262,4.874,2.028,14.4,3.819,18.148,8.259-12.218-4.238-24.233-8.973-36.214-13.846" transform="translate(0 0)" fill="#c39a6b"/>
      <path id="Path_66559" data-name="Path 66559" d="M78.908,80.9A287.256,287.256,0,0,1,40.933,65.262c-.118-.061-.3.174-.183.24A151.055,151.055,0,0,0,78.828,81.058c.073.018.166-.131.081-.16" transform="translate(-15.841 -25.388)" fill="#c39a6b"/>
    </g>
  </g>
  <g id="Group_158505" data-name="Group 158505" transform="translate(0 0)">
    <g id="Group_158504" data-name="Group 158504" clip-path="url(#clip-path)">
      <path id="Path_66560" data-name="Path 66560" d="M9.8,54.413A56.47,56.47,0,0,0,18.913,53c1.147-.276.661-2.044-.487-1.767A53.377,53.377,0,0,1,9.8,52.58a.939.939,0,0,0-.916.916.924.924,0,0,0,.916.916" transform="translate(-3.455 -19.924)" fill="#c39a6b"/>
      <path id="Path_66561" data-name="Path 66561" d="M14.1,59.153c5.6-.393,10.738-2.837,16.219-3.837,1.158-.211.668-1.978-.488-1.767-5.309.969-10.31,3.391-15.731,3.771-1.17.082-1.179,1.916,0,1.833" transform="translate(-5.142 -20.828)" fill="#c39a6b"/>
      <path id="Path_66562" data-name="Path 66562" d="M25.345,64.614q7.114-1.411,14.087-3.422a.917.917,0,0,0-.488-1.767q-6.968,2.01-14.087,3.422c-1.156.229-.667,2,.488,1.767" transform="translate(-9.415 -23.106)" fill="#c39a6b"/>
      <path id="Path_66563" data-name="Path 66563" d="M38.711,66.279a26.713,26.713,0,0,0,7.183-1.731l3.557-1.168,1.916-.629.82-.27.547-.18q.381-.036,0-.163c.911.732,2.216-.557,1.3-1.3-1.048-.842-2.306-.137-3.424.23l-3.967,1.3c-2.563.842-5.2,1.96-7.927,2.07-1.175.048-1.182,1.881,0,1.833" transform="translate(-14.718 -23.518)" fill="#c39a6b"/>
      <path id="Path_66564" data-name="Path 66564" d="M50.325,71.786a31.478,31.478,0,0,0,11.834-2.1.943.943,0,0,0,.64-1.127.924.924,0,0,0-1.128-.64,30.068,30.068,0,0,1-11.347,2.034.917.917,0,0,0,0,1.833" transform="translate(-19.236 -26.408)" fill="#c39a6b"/>
      <path id="Path_66565" data-name="Path 66565" d="M64.849,76.279a36.239,36.239,0,0,0,6.927-1.3l7.212-1.752c1.145-.279.66-2.047-.487-1.767l-6.945,1.687a35.2,35.2,0,0,1-6.707,1.295c-1.175.051-1.182,1.885,0,1.833" transform="translate(-24.888 -27.794)" fill="#c39a6b"/>
      <path id="Path_66566" data-name="Path 66566" d="M76.626,82.965q8.491-2.36,16.921-4.934c1.125-.343.645-2.113-.488-1.767Q84.63,78.838,76.138,81.2a.917.917,0,0,0,.488,1.767" transform="translate(-29.372 -29.655)" fill="#c39a6b"/>
      <path id="Path_66567" data-name="Path 66567" d="M90.583,87.386c4.553.621,8.747-1.375,13.181-1.973a.923.923,0,0,0,.64-1.127.942.942,0,0,0-1.128-.64c-4.043.546-8.062,2.538-12.206,1.973a.951.951,0,0,0-1.128.64.922.922,0,0,0,.64,1.127" transform="translate(-34.984 -32.54)" fill="#c39a6b"/>
      <path id="Path_66568" data-name="Path 66568" d="M97.191,93.575A73.133,73.133,0,0,0,112.4,88.7c1.076-.478.145-2.058-.925-1.583A71.043,71.043,0,0,1,96.7,91.807c-1.155.234-.666,2,.488,1.767" transform="translate(-37.369 -33.86)" fill="#c39a6b"/>
      <path id="Path_66569" data-name="Path 66569" d="M37.794,22.057q7.614-.906,15.118-2.515c1.153-.248.665-2.015-.487-1.767q-7.255,1.562-14.632,2.449c-1.157.137-1.171,1.972,0,1.833" transform="translate(-14.365 -6.907)" fill="#c39a6b"/>
      <path id="Path_66570" data-name="Path 66570" d="M51.1,26.425a138.924,138.924,0,0,0,15.261-1.957c1.158-.214.668-1.981-.487-1.767A134.406,134.406,0,0,1,51.1,24.593c-1.169.084-1.179,1.918,0,1.833" transform="translate(-19.541 -8.825)" fill="#c39a6b"/>
      <path id="Path_66571" data-name="Path 66571" d="M64.331,29.653c5.105-1.217,9.353-4.749,14.562-5.619,1.161-.194.668-1.96-.487-1.767-5.217.871-9.458,4.4-14.562,5.619-1.147.274-.661,2.041.488,1.767" transform="translate(-24.585 -8.658)" fill="#c39a6b"/>
      <path id="Path_66572" data-name="Path 66572" d="M77.838,33c5.4-.234,10.277-2.878,15.608-3.465,1.16-.128,1.173-1.962,0-1.833-5.325.586-10.235,3.232-15.608,3.465-1.175.051-1.182,1.884,0,1.833" transform="translate(-29.942 -10.778)" fill="#c39a6b"/>
      <path id="Path_66573" data-name="Path 66573" d="M88.079,38.946q7.167-2.332,14.443-4.3a.917.917,0,0,0-.488-1.767q-7.274,1.971-14.443,4.3c-1.117.363-.638,2.134.488,1.767" transform="translate(-33.833 -12.777)" fill="#c39a6b"/>
      <path id="Path_66574" data-name="Path 66574" d="M100.287,44.241a18.92,18.92,0,0,0,6.553-1.006l6.628-1.835a.917.917,0,0,0-.488-1.767L106.6,41.4a18.14,18.14,0,0,1-6.312,1.008c-1.175-.1-1.169,1.737,0,1.833" transform="translate(-38.678 -15.406)" fill="#c39a6b"/>
      <path id="Path_66575" data-name="Path 66575" d="M112.845,50.066c2.751.111,5.268-1.15,7.736-2.2l7.862-3.338a.924.924,0,0,0,.329-1.254.94.94,0,0,0-1.254-.329l-7.32,3.108c-2.328.988-4.757,2.282-7.353,2.177-1.18-.048-1.177,1.785,0,1.833" transform="translate(-43.562 -16.669)" fill="#c39a6b"/>
      <path id="Path_66576" data-name="Path 66576" d="M122.934,55.4c5.429.373,10.079-2.726,15-4.479,1.1-.393.627-2.165-.487-1.767-4.736,1.689-9.285,4.773-14.508,4.414-1.177-.081-1.172,1.752,0,1.833" transform="translate(-47.488 -19.102)" fill="#c39a6b"/>
    </g>
  </g>
</svg>
