<svg xmlns="http://www.w3.org/2000/svg" xmlns:xlink="http://www.w3.org/1999/xlink" width="225.631" height="82.166" viewBox="0 0 225.631 82.166">
  <defs>
    <clipPath id="clip-path">
      <rect id="Rectangle_14369" data-name="Rectangle 14369" width="115.633" height="60.126" transform="translate(0 0)" fill="#0aafe2"/>
    </clipPath>
    <clipPath id="clip-path-2">
      <rect id="Rectangle_14369-2" data-name="Rectangle 14369" width="69.63" height="36.206" fill="#0aafe2"/>
    </clipPath>
  </defs>
  <g id="Group_158662" data-name="Group 158662" transform="translate(-128 -4661.96)">
    <g id="Group_158599" data-name="Group 158599" transform="translate(128 4684)">
      <g id="Group_158598" data-name="Group 158598" clip-path="url(#clip-path)">
        <path id="Path_74703" data-name="Path 74703" d="M113.262,29.237A9.146,9.146,0,0,1,115,33.108c4.229,16.147-13.5,28.945-27.46,19.088-10.84,10.725-27.736,10.291-38.988.4-2.287.79-3.95,2.581-6.367,3.6-5.732,2.417-11.324,1.927-16.808-.819-1.071-.535-2.338-2.038-3.3-2.137s-4.346,1.291-5.968,1.322c-19.478.364-23.252-31.432-.388-33.725.888-.089,1.776.7,2.682.233.493-.255,3.187-3.935,4.536-4.966A19.867,19.867,0,0,1,37.6,12.331c2.172.226,3.8,1.364,5.887,1.425,3.148-3.815,5.795-7.237,10.172-9.789C69.793-5.442,88.78,2.739,95.182,19.548c7.008.141,13.248,1.607,17.072,7.85.4.649.663,1.267,1.008,1.839M64.171,2.517c-9.1,1.159-14.828,7.506-20.189,14.219-1.179.294-2.929-1.307-4.137-1.67a17.744,17.744,0,0,0-16.7,3.727c-1.011.921-2.865,4.152-3.573,4.4-3.2,1.1-5.754-.81-10.483,1.977-12.755,7.517-6.689,28.6,8.517,26.9,1.52-.17,3.951-1.511,4.927-1.361,1.1.169,4.984,3.537,7.737,4.258,7.361,1.928,12.912-1.026,18.233-5.787a26.245,26.245,0,0,0,39.029.016c13.459,11.735,31.732-3.2,23.8-18.9-3.535-7-10.314-8.61-17.662-8.245C89.154,9.294,78.2.73,64.171,2.517" fill="#0aafe2"/>
      </g>
    </g>
    <g id="Group_158600" data-name="Group 158600" transform="translate(284.002 4661.96)">
      <g id="Group_158598-2" data-name="Group 158598" transform="translate(0 0)" clip-path="url(#clip-path-2)">
        <path id="Path_74703-2" data-name="Path 74703" d="M1.427,17.606A5.507,5.507,0,0,0,.383,19.937,10.657,10.657,0,0,0,16.918,31.431c6.527,6.458,16.7,6.2,23.477.238,1.377.476,2.379,1.554,3.834,2.168a11.58,11.58,0,0,0,10.121-.493c.645-.322,1.408-1.227,1.984-1.287s2.617.777,3.594.8c11.729.219,14-18.927.234-20.308-.535-.054-1.069.423-1.615.14-.3-.154-1.919-2.37-2.731-2.99a11.963,11.963,0,0,0-8.827-2.269c-1.308.136-2.285.821-3.545.858-1.9-2.3-3.49-4.358-6.125-5.895-9.716-5.666-21.149-.739-25,9.382-4.22.085-7.977.968-10.28,4.727-.239.391-.4.763-.607,1.107M30.988,1.516c5.481.7,8.929,4.52,12.157,8.562.71.177,1.764-.787,2.491-1.006a10.685,10.685,0,0,1,10.055,2.244c.609.555,1.725,2.5,2.152,2.647,1.925.659,3.465-.488,6.312,1.19,7.681,4.526,4.028,17.225-5.129,16.2-.915-.1-2.379-.91-2.967-.82-.664.1-3,2.13-4.659,2.564-4.433,1.161-7.775-.618-10.979-3.485a15.8,15.8,0,0,1-23.5.01c-8.1,7.066-19.108-1.929-14.334-11.38,2.129-4.215,6.211-5.185,10.635-4.965C15.944,5.6,22.539.44,30.988,1.516" transform="translate(0.001 0)" fill="#0aafe2"/>
      </g>
    </g>
  </g>
</svg>
