<svg id="Group_158600" data-name="Group 158600" xmlns="http://www.w3.org/2000/svg" xmlns:xlink="http://www.w3.org/1999/xlink" width="69.63" height="36.206" viewBox="0 0 69.63 36.206">
  <defs>
    <clipPath id="clip-path">
      <rect id="Rectangle_14369" data-name="Rectangle 14369" width="69.63" height="36.206" fill="#0aafe2"/>
    </clipPath>
  </defs>
  <g id="Group_158598" data-name="Group 158598" transform="translate(0 0)" clip-path="url(#clip-path)">
    <path id="Path_74703" data-name="Path 74703" d="M1.427,17.606A5.507,5.507,0,0,0,.383,19.937,10.657,10.657,0,0,0,16.918,31.431c6.527,6.458,16.7,6.2,23.477.238,1.377.476,2.379,1.554,3.834,2.168a11.58,11.58,0,0,0,10.121-.493c.645-.322,1.408-1.227,1.984-1.287s2.617.777,3.594.8c11.729.219,14-18.927.234-20.308-.535-.054-1.069.423-1.615.14-.3-.154-1.919-2.37-2.731-2.99a11.963,11.963,0,0,0-8.827-2.269c-1.308.136-2.285.821-3.545.858-1.9-2.3-3.49-4.358-6.125-5.895-9.716-5.666-21.149-.739-25,9.382-4.22.085-7.977.968-10.28,4.727-.239.391-.4.763-.607,1.107M30.988,1.516c5.481.7,8.929,4.52,12.157,8.562.71.177,1.764-.787,2.491-1.006a10.685,10.685,0,0,1,10.055,2.244c.609.555,1.725,2.5,2.152,2.647,1.925.659,3.465-.488,6.312,1.19,7.681,4.526,4.028,17.225-5.129,16.2-.915-.1-2.379-.91-2.967-.82-.664.1-3,2.13-4.659,2.564-4.433,1.161-7.775-.618-10.979-3.485a15.8,15.8,0,0,1-23.5.01c-8.1,7.066-19.108-1.929-14.334-11.38,2.129-4.215,6.211-5.185,10.635-4.965C15.944,5.6,22.539.44,30.988,1.516" transform="translate(0.001 0)" fill="#0aafe2"/>
  </g>
</svg>
