<svg xmlns="http://www.w3.org/2000/svg" xmlns:xlink="http://www.w3.org/1999/xlink" width="145.114" height="119.222" viewBox="0 0 145.114 119.222">
  <defs>
    <clipPath id="clip-path">
      <rect id="Rectangle_10164" data-name="Rectangle 10164" width="125.65" height="74.562" fill="#bbd56e" stroke="#fff" stroke-width="1"/>
    </clipPath>
  </defs>
  <g id="Group_158428" data-name="Group 158428" transform="matrix(0.914, -0.407, 0.407, 0.914, 0, 51.106)" opacity="0.91">
    <g id="Group_158427" data-name="Group 158427" transform="translate(0 0)" clip-path="url(#clip-path)">
      <path id="Path_65969" data-name="Path 65969" d="M71.679,57.1l1.164,0a6.717,6.717,0,0,1,2.891.231l7.6.116q1.157.154,2.318.3l1.164-.009c.39,0,.78,0,1.168,0,3-.3,5.942.461,8.931.362l1.943-.011c.506-.045,1.011-.088,1.519-.135.994-.341,2.254.326,3.1-.6.021-.06.041-.122.062-.186a1.815,1.815,0,0,0-.806-2.108l-.369-.137c-.347-.094-.793.133-1.05-.244-.255-.326-.129-.669-.062-1.014l.006-2.01c0-.789,0-1.579,0-2.368.024-.559.045-1.121.069-1.682q-.084-5.718-.167-11.44a6.087,6.087,0,0,1-.146-2.766,3.557,3.557,0,0,1,.154-.675.168.168,0,0,1,.03-.272q0-.675,0-1.348c-.246-.546-.679-1.082-.1-1.665-.2-.441-.634-.887.394-1.063a6.785,6.785,0,0,0,2.7-1.189c.876-.6,1.176-1.281.456-2.134a2.486,2.486,0,0,0-2.668.028c-.821.707-1.335.8-1.243-.444.066-.876.086-1.753.126-2.631.009-.225.015-.45.026-.677a3.186,3.186,0,0,1,.062-.829q.132-1.771.261-3.54a36.86,36.86,0,0,1,.435-9.437c.077-.887.156-1.778.234-2.668a2.746,2.746,0,0,1,.043-.476l-.071-.118.1-.1a11.072,11.072,0,0,0-.315-3.036c-.283-.321-.57-.641-.857-.96a4.749,4.749,0,0,0-3.1.206q-1.543.73-3.081,1.464a1.915,1.915,0,0,1-1.573.6q-1.961.861-3.926,1.729c-.414.879-1.639.806-2.263,1.442.555.615.178,1.166-.3,1.569-.6.5-.9-.354-1.421-.375-.328.039-.656.075-.984.111l0-.006q-1.97.948-3.934,1.892c-.24.144-.48.289-.72.435a2.382,2.382,0,0,1-1.6.632c-.259.111-.519.223-.776.336q-.945.582-1.888,1.168-1.813.942-3.628,1.883a3.177,3.177,0,0,1-1.86,1.014c-.654.118-.587.823-1.127,1.029a6.2,6.2,0,0,1-2.374,1.219c-.5.154-1,.313-1.5.467-.913,1.018-2.351,1.309-3.553,1.926l-1.491.431c-.109.606-.628.81-1.219.945a.467.467,0,0,1-.339.141q-3.3,1.877-6.6,3.75-1.568.787-3.135,1.573c-.422.876-1.62.771-2.28,1.352a4.237,4.237,0,0,1-1.633.945l-.767.388a8.8,8.8,0,0,1-2.672,1.476c-.821.2-1.279,1.1-2.312.894-.077.872-1.05.885-1.629,1.277a1.655,1.655,0,0,1-1.174-.019H34c-.626.03-1.251.056-1.877.084-.471.27-1.138.549-.793,1.121.519.864,1.6.4,2.533.613a3.169,3.169,0,0,1-1.811,1.209l-.765.4c-.364.756-1.239.93-1.954,1.279l-1.436.78a30.935,30.935,0,0,1-5.087,3.026c-.69.281-1.076,1.014-1.969,1-1.661.93-3.062,2.233-5.057,2.691q-1.752,1.205-3.5,2.413-1.527,1.025-3.051,2.059c-.285.189-.57.381-.853.572-.03.111-.058.223-.086.334.148.238.3.474.444.709l1.971.006a6.021,6.021,0,0,0,2.644-.951c7.71-4.646,15.775-8.839,23.3-13.716,1.881-1.215,3.233-.094,4.106.885,1.83,2.051,4.253,3.7,5.552,6.118,1.806,3.375,2.271,6.683-.092,10.037a2.142,2.142,0,0,1-2.4.915,137.525,137.525,0,0,0-18.768-1.716c-3.433-.118-6.848-.825-10.3-1.108-1.352-.111-2.7-.062-4.046-.212-.654.006-1.309.013-1.963.017l-1.125.386c-.452,1.007.585,1.206,1.2,1.637.238.049.476.1.711.144.39.092.778.178,1.168.268.707.407,1.721,0,2.325.673.782,0,1.56.006,2.342.011.581.069,1.161.131,1.742.2a2.47,2.47,0,0,1,.309.034,21.179,21.179,0,0,1,4.988.579c.626.064,1.251.124,1.879.191.242,0,.482,0,.724,0a.175.175,0,0,1,.058,0H27.4a53.773,53.773,0,0,1,8.687.9l.081,0a1.426,1.426,0,0,1,1.346-.009c.885-.339,1.5.416,2.3.422,1.545-.041,3.116-.171,4.348.9q.939.055,1.871.1a.888.888,0,0,1,.756-.362,3.51,3.51,0,0,1,2.443-.03c.358.019.716.039,1.071.06H53.8c3-.294,5.942.512,8.935.366l3.5,0,5.443-.006m26.4-7.922a36.509,36.509,0,0,0-.291,4c.06,1.352-.876,1.856-2.048,1.871-2.246.024-4.491-.214-6.741-.291-.733-.021-.529-.422-.641-.78-.628-2.025-.225-4.1-.435-6.141-.1-.917.409-.971,1.251-.936,1.348.06,2.7.019,4.058.019v-.006c.771,0,1.545.019,2.318-.006,2.681-.088,2.689-.092,2.528,2.271M78.827,12.655C85.4,9.9,91.332,6.133,98.028,3.579c.1-.039.244.021.478.047A54.529,54.529,0,0,1,98.131,9.6c-.786,5.057-.144,10.182-.733,15.263-.1.881-.206,1.2-1.354,1.247a35.976,35.976,0,0,1-10.986-1.5,8.161,8.161,0,0,1-4.721-3.765c-1.491-2.248-1.828-4.815-2.042-7.375a.76.76,0,0,1,.531-.81M45.173,36.481c-.291-.084-.611-.272-.536-.546a.616.616,0,0,1,.709-.431c.454.073.3.4.336.546-.049.362-.21.521-.51.431M60.93,54.049c-3.791-.118-7.577-.388-11.663-.306a10.7,10.7,0,0,0,1.046-9.726,15.766,15.766,0,0,0-2.413-4.17,1.438,1.438,0,0,1-.1-2.055,2.982,2.982,0,0,0-1.425-4.716,3,3,0,0,0-3.512.538c-.829.853-1.446.561-2.284-.03,11.41-6.52,23.095-12.533,34.8-18.706a14.3,14.3,0,0,0,3.448,8.944c2.5,3.231,6.486,3.8,10.35,4.581a25.677,25.677,0,0,0,7.493.409c1.022-.094,1.056.285,1.022.921-.221,4.322.39,8.625.418,12.94.009,1.033-.358,1.172-1.459,1.348-2.824.452-5.691-.069-8.487.465a.8.8,0,0,1-.994-.57,1.235,1.235,0,0,0-1.547-.692c-.812.2-.744.808-.744,1.38.006,2.97-.056,5.942.021,8.91.03,1.119-.311,1.386-1.524,1.011a7.069,7.069,0,0,0-1.918-.152c-6.846-.1-13.692-.116-20.534-.324" transform="translate(8.574 -0.001)" fill="#bbd56e" stroke="#fff" stroke-width="1"/>
      <path id="Path_65970" data-name="Path 65970" d="M28.239,35.315c.041-.559.079-1.121.12-1.678a1.36,1.36,0,0,1-.03-.332c.364-2.3.362-2.258,3.077-2.1a65.43,65.43,0,0,0,11.256-.534q1.36,0,2.721,0l2.3-.12c.3-.2.613-.392.917-.591.144-.287.225-.621.643-.733q-.212-.472-.422-.945-.36-.347-.72-.692l0,0a8.269,8.269,0,0,0-3.113-.056c-.255.006-.516.015-.774.024a16.168,16.168,0,0,1-3.791.409,3.615,3.615,0,0,1-2.033.244A60.176,60.176,0,0,1,31,28.233c-.519-.006-1.035-.019-1.551-.03-.846.251-1.524-.381-2.329-.341-.636.043-1.007.491-1.5.746-.058.221-.118.439-.176.656-.169.7.176,1.446-.214,2.136-.039.636-.075,1.275-.114,1.911.071,1.337-.349,2.235-2.2,1.843-.124.069-.244.137-.369.2-.294.707.27,1.32.306,1.991a1,1,0,0,1,.326,1.018c.1.778,1.011,1.421.506,2.3.836.3.844.789.4,1.371.469.084.3.435.379.681.5.135,1,.272,1.494.411.508-.159,1.014-.315,1.519-.476.694-1.275.281-2.648.491-3.966.006-.786.015-1.571.021-2.359.086-.341.167-.675.253-1.016" transform="translate(25.671 31.305)" fill="#bbd56e" stroke="#fff" stroke-width="1"/>
      <path id="Path_65971" data-name="Path 65971" d="M23.837,16.887c.373.133.748.27,1.121.4a7.089,7.089,0,0,0,4.624-1.121,2.508,2.508,0,0,1,2.586-.024,3.025,3.025,0,0,0,3.231.006c.1-.632.711-1.262.017-1.9l-.754-.5c-.259-.075-.519-.154-.778-.231-.131-.006-.259-.015-.39-.024-.641-.114-1.217-.231-.761-1.007a16.925,16.925,0,0,0,.771-1.648c0-.114.013-.227.019-.343-.009-.671-.015-1.344-.019-2.014q-.566-1.52-1.127-3.034c-.163-.219-.326-.437-.489-.654-.414-.441-.827-.881-1.239-1.322-1.314-.576-2.618-1.183-4.095-.362l-1.6,2.025c.253.544-.394,1.106.036,1.648.208.341.416.686.624,1.026a4.34,4.34,0,0,0,2.438,1.344c2.3-.411,2.3-.411,1.993,1.361-.021.109-.047.216-.069.326-.114,1.513-.866.853-1.571.349-.242-.045-.482-.084-.722-.126l-1.183-.244h-.39c-.767.1-1.6-.092-2.288.371q-.633,1.173-1.269,2.34c0,.231,0,.456,0,.684.167.649-.111,1.382.48,1.952q.4.357.8.72M28.164,5.52c.731.109.941.647,1.339,1.1-1.277.058-1.277.058-1.339-1.1m-2.314,8.316a1,1,0,0,1,1.429.21,1.227,1.227,0,0,1-1.4.482.39.39,0,0,1-.03-.692" transform="translate(25.776 3.1)" fill="#bbd56e" stroke="#fff" stroke-width="1"/>
      <path id="Path_65972" data-name="Path 65972" d="M12.24,31.061c-.261-.229-.525-.463-.786-.69l-.354-.334c-3.87-3.825-3.664-2.074-.319-5.946a5.3,5.3,0,0,1,.677-.557c.12-.126.242-.253.362-.377a2.622,2.622,0,0,1,1.168-1.245c.3-.553.591-1.106.887-1.658-.969-1.069-2.044-1.464-3.308-.349A4.551,4.551,0,0,0,9.086,21.6c-.9,1.234-1.8,2.471-2.771,3.806-.409-.439-.724-.774-1.035-1.11-.414-.026-.431-.291-.45-.559Q3.474,22.568,2.117,21.4c-.493-.135-.951-.429-1.511-.223-.221.42-1.035.731-.317,1.316,1.335,1.573,2.291,3.366,3.87,4.8.868.786.18,1.453-.431,2.07-.686.675-.216,1.661-.834,2.355-.287.887-.171,1.853-.7,2.693,0,.206,0,.414.009.621a1.719,1.719,0,0,0,1.515.366c.244-.364.489-.731.733-1.093.041-.191.079-.384.118-.574q.46-1.041.921-2.076A3.574,3.574,0,0,1,6.641,29.78c.465.519.924,1.026,1.378,1.534.662,1.2,2.344,1.7,2.811,3.041.321-.013.628,0,.669.369a2.037,2.037,0,0,0,3,.651c.465-1.14-.227-2.036-.831-2.951L12.24,31.061" transform="translate(0 21.982)" fill="#bbd56e" stroke="#fff" stroke-width="1"/>
      <path id="Path_65973" data-name="Path 65973" d="M36.918,29.473c-3.268-.816-8.132.72-8.987,3.443a.229.229,0,0,1,.092.264c.366.126.729.259,1.093.388a5.046,5.046,0,0,1,.66-.274c.334-.088.859-.343.979.019.152.461-.568.371-.851.587a1.608,1.608,0,0,0-.51,1.376c.309.356.366.876.928,1.065.645-.107,1.29-.219,1.935-.33l.606-.122c.1-.071.195-.2.291-.2,1.026.013,2.546-.589,2.861.551.272,1-1.119,1.436-2.207,1.678l-.7.084c-1.086.261-2.243.962-3.058-.381-.174-.122-.343-.242-.516-.362-1.933.242-2.177.621-1.991,3.071.257.7,1.044.594,1.626.8,1.02-.011,2.046-.024,3.073-.036,1.026-.174,2.053-.351,3.077-.525.159-.3.514-.225.789-.3.394-.214.791-.429,1.185-.639.264-.216.525-.431.791-.643.069-.356.375-.538.7-.707.2-.439.4-.879.594-1.316,0-.452-.006-.9-.013-1.35l-.051-.345c-.109-.223-.216-.444-.324-.669l-.572-.654c-.12-.094-.242-.195-.362-.289-2.168-.613-.174-1.159.036-1.733-.013-.546-.028-1.091-.039-1.639-.255-.229-.51-.463-.765-.692-.122-.041-.246-.081-.369-.118" transform="translate(31.419 33.43)" fill="#bbd56e" stroke="#fff" stroke-width="1"/>
      <path id="Path_65974" data-name="Path 65974" d="M58.262,14.176a24.062,24.062,0,0,1-.06,4.378c-.231,1.194-1.937,1.052-2.9,1.631a11.739,11.739,0,0,1-1.706.656c-.769.366-.094.741-.011,1.114.39.229.782.456,1.174.69.647.011,1.3.024,1.943.036l1.549,0q2.333,0,4.665-.006c.836.122,1.234-.506,1.824-.8.028-.512.054-1.022.079-1.534-.544-.244-1.149-.767-1.624-.692-2.121.341-1.868-.84-1.828-1.937.013-.386.041-.771.062-1.157.069-.737.135-1.481.2-2.22a4.092,4.092,0,0,1,.084-.913c.009-.741.017-1.485.028-2.226-.491-1.031-1.08-1.943-2.663-1.641l-1.224.842c-.339.27-.679.544-1.022.814a4.263,4.263,0,0,1-1.911,1.695c-.062.094-.131.191-.2.287-.011.336-.026.671-.041,1.009.032.109.062.221.09.332,1.174,1.112,2.273.523,3.488-.36" transform="translate(60.831 10.853)" fill="#bbd56e" stroke="#fff" stroke-width="1"/>
      <path id="Path_65975" data-name="Path 65975" d="M47.777,15.689c-1.641-1.14-3.675-.874-6.12.786-.366.249-.641.8-1.269.354-1.022-.737-2.158-.454-3.287-.2-.156-1.127-.3-2.175-.448-3.227-.066-.48.1-1.086-.673-1.243-.855-.171-1.142.42-1.346.936a11.769,11.769,0,0,0,.026,9.008A2.8,2.8,0,0,0,38.8,23.238c1.4-.8,2.171-.746,2.869.677s2.231,1.793,3.857,1.112a7.12,7.12,0,0,0,3.514-3.433,4.251,4.251,0,0,0-1.269-5.905m-1.247,3.683A4.073,4.073,0,0,1,45,21.927c-.872-.381-.731-1.772-2.158-1.416-.414.1-.364-.2-.354-.4.039-.726,1.976-2.372,2.816-2.329,1.144.06,1.243.87,1.221,1.588" transform="translate(38.57 13.861)" fill="#bbd56e" stroke="#fff" stroke-width="1"/>
      <path id="Path_65976" data-name="Path 65976" d="M39.864,15.617a2.906,2.906,0,0,0,3.075-2.644,2.529,2.529,0,0,0-2.691-2.693c-1.654-.019-3.666,1.659-3.713,3.09-.03.969,1.817,2.218,3.33,2.248" transform="translate(41.75 11.746)" fill="#bbd56e" stroke="#fff" stroke-width="1"/>
      <path id="Path_65977" data-name="Path 65977" d="M25.709,23.446c-1.116-.118-1.736-.349-1.53-1.626.234-1.47-1.1-2.254-2.777-1.847a8.865,8.865,0,0,0-4.3,2.389c-.437.437-.647.881-.186,1.331s.947.122,1.359-.146a10.93,10.93,0,0,1,3.683-1.783c-.242.514-.347.756-.467.99-.375.726-1.431,1.329-.812,2.246.664.986,1.665.461,2.58.253.694-.161.977.152.812.731a2.3,2.3,0,0,1-2.989,1.11,1.5,1.5,0,0,0-1.609.1c-.508.394-.467.8-.167,1.341a2.67,2.67,0,0,0,3.814,1.082c1.793-.866,3.341-1.982,3.57-4,2.531,1.594,3.366,1.671,5.059.551,2.194-1.455,2.773-3.283,1.761-5.466a3.591,3.591,0,0,0-3.533-2.4c-2.209.092-3.656,1.965-4.266,5.138m4.4-3c1.164-.062,1.374,1.125,1.391,2.008A1.738,1.738,0,0,1,29.92,24.47c-.324.045-1.851-.722-1.819-1.476.047-1.086.538-2.468,2.01-2.546" transform="translate(19.034 20.917)" fill="#bbd56e" stroke="#fff" stroke-width="1"/>
    </g>
  </g>
</svg>
