<svg id="Group_158475" data-name="Group 158475" xmlns="http://www.w3.org/2000/svg" xmlns:xlink="http://www.w3.org/1999/xlink" width="108.308" height="80.051" viewBox="0 0 108.308 80.051">
  <defs>
    <clipPath id="clip-path">
      <rect id="Rectangle_10185" data-name="Rectangle 10185" width="49.84" height="97.119" transform="translate(0 46.834) rotate(-70)" fill="none"/>
    </clipPath>
    <clipPath id="clip-path-2">
      <rect id="Rectangle_10186" data-name="Rectangle 10186" width="108.308" height="80.051" fill="none"/>
    </clipPath>
  </defs>
  <g id="Group_158472" data-name="Group 158472" transform="translate(0 0)">
    <g id="Group_158471" data-name="Group 158471" transform="translate(0 0)" clip-path="url(#clip-path)">
      <path id="Path_66432" data-name="Path 66432" d="M93.4,139.514c-.41-.175-.809-.366-1.23-.524-4.457-1.673-8.907-3.37-13.38-5-1.928-.7-3.934-1.181-5.86-1.889-2.032-.745-4-1.658-6.014-2.463-2.14-.856-4.28-1.712-6.447-2.493-2.676-.967-5.375-1.864-8.071-2.778-1.351-.458-2.7-.917-4.071-1.314a12.017,12.017,0,0,0-1.8-.242c.018-.656-.408-.672-.885-.817-1.379-.425-2.722-.976-4.075-1.488-.284-.1-.54-.279-.824-.377-1.846-.638-3.716-1.211-5.54-1.912-1.454-.555-2.847-1.275-4.281-1.887a15.067,15.067,0,0,0-3.249-1.241c-2.607-.442-4.859-1.787-7.3-2.635-2.689-.933-5.293-2.142-8.029-2.9-1.165-.319-2.218-.866-3.369-1.168-.829-.219-1.646-.483-2.459-.759-.989-.339-1.964-.715-2.853-1.039-.236-1.6.471-2.754,1.015-3.938a33.717,33.717,0,0,1,3.26-6.275A40.545,40.545,0,0,1,11.333,91.8c2.334-2.356,4.54-4.839,6.81-7.259a2.8,2.8,0,0,1,1.5-.92,3.079,3.079,0,0,0,1.471-1.165,5.975,5.975,0,0,1,2-1.377c2.025-1.148,4.124-2.163,6.182-3.247a1.654,1.654,0,0,0,.408-.491c.349,0,.776.136,1.067-.012a26.414,26.414,0,0,1,5.771-1.721c2.311-.579,4.6-1.234,6.919-1.8.551-.135,1.217.129,1.727-.066a10.758,10.758,0,0,1,4-.443,32.079,32.079,0,0,1,3.864.441c.9.113,1.808.211,2.7.354a24.046,24.046,0,0,1,2.388.465c2.11.555,4.228,1.094,6.308,1.749a29.58,29.58,0,0,1,3.776,1.539A52.521,52.521,0,0,1,74.192,80.9a66.4,66.4,0,0,1,5.649,4.388q1.946,1.575,3.8,3.262a15.978,15.978,0,0,1,1.37,1.584c1.241,1.459,2.541,2.871,3.693,4.4a16.685,16.685,0,0,1,1.326,2.632c1.239,2.475,2.507,4.937,3.716,7.425a15.93,15.93,0,0,1,.52,1.822c.656,1.924,1.353,3.835,1.994,5.765a7.927,7.927,0,0,1,.29,1.659c.219,2.13.416,4.263.629,6.393a4.29,4.29,0,0,0,.152.464,1.848,1.848,0,0,1,.1.627c-.156,1.095-.4,2.174-.487,3.265-.068.912.115,1.837.069,2.747-.048.937-.231,1.869-.369,2.8-.289,1.924-.5,3.867-.916,5.761a14.357,14.357,0,0,1-1.289,3.173c-.158.315-.645.466-.984.689-.017-.086-.033-.171-.051-.255M86.379,93.351a33.073,33.073,0,0,0-4.939-5.768c-.693.493-1.294.936-1.914,1.35-.1.068-.28,0-.424,0a1.712,1.712,0,0,1,.039-.453c.036-.1.164-.163.247-.249,1.056-1.129,1.045-1.482-.116-2.421-.267-.218-.583-.374-.871-.569a2.128,2.128,0,0,1-.353-.309,4.74,4.74,0,0,0-.773-.833c-1.056-.672-2.149-1.286-3.254-1.937-.144.176-.281.334-.408.5-.359.467-.364,1.383-1.428.832-.482-.248-.411-.359-.236-.667.286-.5.585-.991.964-1.625l-6.681-3.269c-.462.639-.83,1.182-1.237,1.69A1.015,1.015,0,0,1,64.4,80c-.108.01-.308-.3-.35-.5a2.364,2.364,0,0,1,0-.874,10.8,10.8,0,0,1,.27-1.053c-2.026-1.511-4.4-1.545-6.64-2.011a10.22,10.22,0,0,1-.49,1.288.674.674,0,0,1-.549.293c-.125-.017-.286-.327-.292-.513a6.448,6.448,0,0,1,.148-1.1,19.788,19.788,0,0,0-6.661-.685c.027.5.035.9.063,1.3.024.38.108.854-.393.889-.162.013-.426-.494-.517-.8-.169-.585-.245-1.2-.362-1.807-1.92.206-3.828.412-5.81.626.009.51.033,1.1.016,1.681a.6.6,0,0,1-.237.363.308.308,0,0,1-.277-.1c-.235-.5-.436-1.02-.68-1.6l-5.3,1.187a6.782,6.782,0,0,1,.21.991c.019.366.069.769-.516.816-.548.045-.692-.209-.7-.695a11.044,11.044,0,0,0-.137-1.1c-2.16.8-4.225,1.557-6.3,2.322.165.522.291.866.381,1.22a6.26,6.26,0,0,1,.1.73,2.536,2.536,0,0,1-.88-.32,3.827,3.827,0,0,1-.561-.97l-5.489,3.286c.108.168.231.361.356.553a2.329,2.329,0,0,1,.4.647,1.926,1.926,0,0,1-.117.7c-.223-.094-.52-.125-.652-.291-.748-.937-1.126-.933-2.028-.072-.8.768-1.642,1.5-2.488,2.2-.577.484-1.2.915-1.8,1.369,1.1,1.5,1.11,1.584.278,2.024l-.6-.953a31.241,31.241,0,0,0-2.417,2.087c-.985,1.034-1.861,2.176-2.79,3.269-.245.291-.182.5.126.683a7.046,7.046,0,0,1,.81.546,1.8,1.8,0,0,1,.3.422c-.13.068-.27.125-.395.2-.559.341-.941.094-1.284-.354a3.2,3.2,0,0,0-.43-.385,3.063,3.063,0,0,1-.392.867,10.534,10.534,0,0,0-1.953,3.833,5.454,5.454,0,0,1-.567,1.065c-.229.356-.505.681-.762,1.022.3.309.513.515.71.736.129.146.235.314.352.471a3.122,3.122,0,0,1-.744.169,3.162,3.162,0,0,1-.728-.175l-.948,2.6L8.237,107.4c.615.224,1.23.448,1.851.651,2.039.659,4.089,1.279,6.116,1.968,1.179.4,2.307.944,3.48,1.371a66.337,66.337,0,0,0,7.135,2.62,15.606,15.606,0,0,1,2.241.807c2.472,1.02,4.918,2.115,7.411,3.083,3.341,1.293,6.72,2.487,10.074,3.748a.774.774,0,0,0,.995-.236,11.724,11.724,0,0,0,1.017-1.679,16.407,16.407,0,0,0,.616-1.651c.823.366.977.937.427,1.74a2.591,2.591,0,0,0-.35,1.951c.035.269.062.537.085.742.69.251,1.343.5,2,.729q6.245,2.19,12.488,4.383c.66.232,1.32.473,1.96.754,1.655.724,3.267,1.551,4.954,2.188,2.068.781,4.194,1.422,6.294,2.1,1.306.422,2.647.754,3.934,1.232,1.728.637,3.4,1.42,5.129,2.06,2.38.881,4.785,1.7,7.19,2.5a.71.71,0,0,0,.645-.248c.29-.617.491-1.276.731-1.938-.517-.188-1.041-.409-.779-.985.112-.245.648-.3,1.036-.461.179-1.034.384-2.22.565-3.28-.38-.107-.322-1.591.2-1.681a1.689,1.689,0,0,0-.4-.244c-.453-.11-.992.007-1.255-.562a2.024,2.024,0,0,0-.417-.466c.225-.075.449-.151.677-.224.471-.143,1.184-.142,1.364-.453a4.539,4.539,0,0,0,.336-1.861,7.734,7.734,0,0,1,.08-2.056,4.151,4.151,0,0,0,.326-2.08,1.922,1.922,0,0,1-.579-.134,4.319,4.319,0,0,1-.585-.516,3.931,3.931,0,0,0,.5-.454,1.363,1.363,0,0,0,.367-.655,9.205,9.205,0,0,0-.155-1.114c-.086-1.2-.154-2.407-.227-3.611,0-.016.047-.043.045-.051a2.563,2.563,0,0,0-.414-.847,2.621,2.621,0,0,0-.878-.346v-.264c.3-.147.61-.292.9-.431-.336-1.18-.685-2.393-1.026-3.61-.336-1.2-.333-1.194-1.606-1.245a5.386,5.386,0,0,1-.569-.11c.37-.35.614-.579.858-.812s.665-.354.451-.864q-1-2.4-1.955-4.821c-.175-.444-.361-.707-.917-.58a7.625,7.625,0,0,1-1.528.112,1.488,1.488,0,0,1-.47-.146c.068-.166.089-.415.21-.486a13.729,13.729,0,0,1,1.319-.638c.153-.07.319-.107.664-.216-.2-.3-.338-.7-.479-.7-.732,0-.5-.622-.663-.974-.1-.212-.082-.489-.2-.688-.364-.628-.746-1.247-1.159-1.842-.381-.549-.813-1.063-1.224-1.6a13.783,13.783,0,0,1-1.221.688c-.275.121-.6.491-.889-.025s-.026-.791.373-1.025c.317-.187.644-.358,1.033-.574" transform="translate(-2.971 -60.125)" fill="#3f93d3"/>
      <path id="Path_66433" data-name="Path 66433" d="M138.79,184.687a5.593,5.593,0,0,1,.572-1.162c.586-.672,1.219-1.3,1.86-1.921,1.473-1.422,2.9-2.9,4.464-4.211.943-.79,2.156-1.237,3.165-1.956a24.859,24.859,0,0,1,6.776-2.978,24.363,24.363,0,0,1,3.5-.716,16.872,16.872,0,0,1,5.388,0c1.556.222,3.09.6,4.635.9.558.108,1.1.519,1.7.06.039-.03.3.244.463.378-.039.051-.081.1-.118.155a21.109,21.109,0,0,1,3.639,1.378,35.611,35.611,0,0,1,3.972,3.033c.518.42.933.968,1.433,1.415a17.387,17.387,0,0,1,3.78,4.9c.537,1.007.945,2.083,1.46,3.1.337.667.834,1.257,1.126,1.938a15.55,15.55,0,0,1,.89,2.732q.589,2.651,1.007,5.34a8.649,8.649,0,0,1-.1,1.9c-.085,1.173-.173,2.345-.263,3.554a14.227,14.227,0,0,1-2.193-.32c-.426-.129-.732-.62-1.154-.807-1.677-.743-3.364-1.471-5.082-2.114-.633-.238-1.4-.113-2.039-.337-1.466-.513-2.888-1.148-4.334-1.714-.513-.2-1.048-.336-1.573-.506-1.637-.527-3.291-1.008-4.906-1.6-1.416-.52-2.778-1.181-4.177-1.756-.517-.211-1.075-.319-1.588-.527-2.391-.962-4.767-1.967-7.167-2.906-.953-.372-1.958-.608-2.937-.915-.664-.21-1.318-.454-1.983-.662-.219-.067-.469-.038-.683-.114-.465-.162-.918-.354-1.362-.549a6.387,6.387,0,0,0-1.131-.53,14.883,14.883,0,0,1-4.154-1.368,13.27,13.27,0,0,0-1.922-.571,5.382,5.382,0,0,1-.967-.561m2.165-.771.092.2a12.554,12.554,0,0,1,1.982.594,27.14,27.14,0,0,0,5.361,2.1,5.36,5.36,0,0,1,1.042.333c.927.431,1.807.978,2.76,1.334,2.028.756,4.106,1.378,6.133,2.135,1.567.585,3.078,1.3,4.625,1.938.925.378,1.86.742,2.813,1.042,1.282.4,2.621.64,3.87,1.124,1.366.529,2.634,1.31,3.987,1.883a29.592,29.592,0,0,0,3.537,1.213c1.309.372,2.693.5,3.97.95,1.481.518,2.875,1.275,4.318,1.9.565.246,1.156.428,1.724.635.012-1.5.075-2.862.022-4.217s-.176-2.72-.353-4.068a20.941,20.941,0,0,0-1.574-4.362,19.1,19.1,0,0,0-3.085-6.018c-.844-1-1.571-2.1-2.462-3.053-.811-.861-1.851-1.5-2.654-2.364-1.975-2.133-4.635-2.845-7.238-3.682a18.79,18.79,0,0,0-2.911-.655c-1.12-.167-2.29-.086-3.382-.349-2.705-.648-5.271.057-7.822.792a22.487,22.487,0,0,0-2.836,1.4,63.324,63.324,0,0,0-6.86,4.176,3.24,3.24,0,0,0-.7.6c-1.065,1.2-2.117,2.415-3.177,3.619a1.738,1.738,0,0,1-.357.32c-.266.172-.546.325-.818.48" transform="translate(-113.878 -140.745)" fill="#3f93d3"/>
      <path id="Path_66434" data-name="Path 66434" d="M40.119,232.812a1.514,1.514,0,0,1,.136-1.877,1.6,1.6,0,0,1,2.065-.5.93.93,0,0,1,.23,1.6,13.534,13.534,0,0,1-1.147.8,5.219,5.219,0,0,1,.438,1.436c0,.251-.4.552-.666.764a1,1,0,0,1-1.414.057l-.04-.039c-.437-.442-.216-1.553.4-2.241m.76-.34c.48-.391.938-.761,1.387-1.142.018-.016-.025-.174-.062-.182-.326-.076-.7-.267-.973-.165-.366.141-.863.357-.744.944.029.145.179.261.388.544m-.7,2.176.225.187q.421-.428.846-.856c-.221-.213-.51-.648-.65-.6-.654.214-.485.78-.42,1.273" transform="translate(-32.403 -188.929)" fill="#3f93d3"/>
      <path id="Path_66435" data-name="Path 66435" d="M61.265,238.792a2.965,2.965,0,0,1-.458.872c-.353.329-.86.83-1.193.758a1.989,1.989,0,0,1-1.175-1.041,3.174,3.174,0,0,1,1.66-4.171l.024-.01c.542-.231.9.071,1.1.558a3.83,3.83,0,0,1,.037,3.036m-2.33.3c.514-.1.5-.1.466.463-.007.113.177.234.272.351a3.136,3.136,0,0,0,.787-4.129c-1.59,1.1-1.874,1.492-1.523,3.32" transform="translate(-47.738 -192.926)" fill="#3f93d3"/>
      <path id="Path_66436" data-name="Path 66436" d="M490.494,400.147a13.932,13.932,0,0,1-1.436,1.46c-.593.458-1.081.221-1.427-.432-.243-.461-.58-.9-.295-1.419a12,12,0,0,1,1.374-2.087,1.133,1.133,0,0,1,1.1-.2,2.872,2.872,0,0,1,.787,1.379c.092.341-.127.772-.208,1.163l.1.132m-2.633-.422.188.042c.039.2.077.411.117.617.054.266.11.528.168.794A2.377,2.377,0,0,0,490,398.691a1.019,1.019,0,0,0-.471-.645c-.142-.069-.5.1-.638.261-.377.443-.692.94-1.031,1.415" transform="translate(-399.788 -326.079)" fill="#3f93d3"/>
      <path id="Path_66437" data-name="Path 66437" d="M321.478,116.927c.309-.607.555-1.087.745-1.472a5.27,5.27,0,0,1-.675-1c-.421-1.165.37-1.56,1.277-1.629a.555.555,0,0,1,.6.752c-.422,1.4-.892,2.791-1.369,4.179-.044.122-.267.183-.4.272a1.687,1.687,0,0,1-.165-.41,6.577,6.577,0,0,1-.015-.7" transform="translate(-263.747 -92.577)" fill="#3f93d3"/>
      <path id="Path_66438" data-name="Path 66438" d="M330.186,121.206c.478-.65.848-1.222,1.285-1.731a.677.677,0,0,1,1.1.011,2.223,2.223,0,0,1,.331,2.254,2.343,2.343,0,0,1-1.936,1.319c-.2.018-.54-.315-.617-.553a6.386,6.386,0,0,1-.161-1.3M332,119.75c-.534.817-1.465,1.351-1.024,2.454.668.212,1.061-.185,1.348-.676.364-.62.069-1.161-.323-1.779" transform="translate(-270.93 -97.808)" fill="#3f93d3"/>
      <path id="Path_66439" data-name="Path 66439" d="M26.291,228.967c-.793-.066-.975-.312-.551-.768a12.51,12.51,0,0,1,1.227-1.133.507.507,0,0,1,.492-.031.55.55,0,0,1,.052.5c-.579,1.267-1.169,2.528-1.8,3.77-.09.177-.4.235-.609.348a2.446,2.446,0,0,1,.039-.97,17.386,17.386,0,0,1,1.148-1.716" transform="translate(-20.572 -186.251)" fill="#3f93d3"/>
      <path id="Path_66440" data-name="Path 66440" d="M82.258,235.75c.635.218,1.029.751.885,1.174-.137.4-1.254,1-1.6.8-.719-.408-.172-1.06-.167-1.576.006-.473.452-.6.879-.4" transform="translate(-66.605 -193.368)" fill="#3f93d3"/>
      <path id="Path_66441" data-name="Path 66441" d="M350.335,116.869c-.562.273-.964.633-1.22.545a1.125,1.125,0,0,1-.632-.9c.089-.507.641-.483,1.039-.334a3.745,3.745,0,0,1,.813.689" transform="translate(-285.944 -95.253)" fill="#3f93d3"/>
    </g>
  </g>
  <g id="Group_158474" data-name="Group 158474" transform="translate(0)">
    <g id="Group_158473" data-name="Group 158473" clip-path="url(#clip-path-2)">
      <path id="Path_66442" data-name="Path 66442" d="M143.96,247.57c-.623,3.785,1.462,7.212,1.385,10.956a.718.718,0,0,0,1.436,0c.074-3.581-2.026-7-1.437-10.574.149-.9-1.234-1.293-1.384-.382" transform="translate(-118.029 -202.714)" fill="#3f93d3"/>
      <path id="Path_66443" data-name="Path 66443" d="M159.808,248.3c-.715,4.31,1.571,8.033,2.888,11.974.291.872,1.678.5,1.384-.382-1.2-3.6-3.543-7.261-2.888-11.21.15-.9-1.233-1.292-1.384-.382" transform="translate(-131.018 -203.312)" fill="#3f93d3"/>
      <path id="Path_66444" data-name="Path 66444" d="M181.27,257.566c-.046,1.99.908,3.7,1.716,5.456a21.4,21.4,0,0,1,1.794,6.392c.082.679,1.16.688,1.077,0a22.74,22.74,0,0,0-1.5-5.921c-.788-1.927-2.06-3.772-2.01-5.927a.539.539,0,0,0-1.077,0" transform="translate(-148.737 -210.916)" fill="#3f93d3"/>
      <path id="Path_66445" data-name="Path 66445" d="M217.83,267.839c-.251,2.37.614,4.586,1.517,6.732.939,2.23,1.885,4.457,2.9,6.652l.737-.737-.332-.226c-.574-.391-1.113.541-.544.93l.332.226c.488.332.941-.3.737-.737-.95-2.051-1.836-4.129-2.715-6.211-.894-2.117-1.8-4.283-1.556-6.629.073-.688-1-.683-1.077,0" transform="translate(-178.702 -219.35)" fill="#3f93d3"/>
      <path id="Path_66446" data-name="Path 66446" d="M251.752,287.158a24.635,24.635,0,0,0,1.673,5.964l2.146,6.217.376-.662h.047c-.607-.336-1.15.594-.543.93a.919.919,0,0,0,.783.108.542.542,0,0,0,.376-.662l-2.033-5.89a25.21,25.21,0,0,1-1.748-6c-.055-.686-1.132-.692-1.077,0" transform="translate(-206.57 -235.2)" fill="#3f93d3"/>
      <path id="Path_66447" data-name="Path 66447" d="M271.608,298.366c1.179,4.211,3.665,7.9,4.874,12.1a.539.539,0,0,0,1.038-.286c-1.209-4.2-3.7-7.891-4.874-12.1a.539.539,0,0,0-1.038.286" transform="translate(-222.846 -244.274)" fill="#3f93d3"/>
      <path id="Path_66448" data-name="Path 66448" d="M300.291,303.693c-.216,2.016,1.088,4.134,1.969,5.869a50.53,50.53,0,0,0,3.369,5.662c.389.568,1.323.03.93-.543a50.732,50.732,0,0,1-3.074-5.09q-.672-1.282-1.269-2.6a6.363,6.363,0,0,1-.849-3.3c.074-.688-1-.683-1.077,0" transform="translate(-246.381 -248.77)" fill="#3f93d3"/>
      <path id="Path_66449" data-name="Path 66449" d="M330.59,317.742c1.311,1.833,1.716,4.044,2.486,6.119a24.813,24.813,0,0,0,1.486,3.121c.308.572.612,1.147.925,1.717.162.293.262.541.6.64a.543.543,0,0,0,.662-.376l.011-.052a.546.546,0,0,0-.376-.662l-.038-.007c-.677-.129-.967.909-.286,1.038l.038.007-.376-.662-.011.052.662-.376q.345.34.127.011l-.168-.312-.421-.78c-.278-.515-.559-1.028-.832-1.546a19.765,19.765,0,0,1-1.341-3.2,18.414,18.414,0,0,0-2.219-5.278c-.4-.559-1.334-.022-.93.543" transform="translate(-271.18 -260.08)" fill="#3f93d3"/>
      <path id="Path_66450" data-name="Path 66450" d="M356.974,328.048a38.486,38.486,0,0,0,2.495,6.8c1.119,2.064,2.729,3.85,3.447,6.12.208.658,1.248.377,1.038-.286-.687-2.173-2.114-3.921-3.259-5.856a33.516,33.516,0,0,1-2.683-7.065c-.209-.658-1.249-.377-1.038.286" transform="translate(-292.888 -268.634)" fill="#3f93d3"/>
      <path id="Path_66451" data-name="Path 66451" d="M386.127,332.552c.1,2.236,1.182,4.282,2.108,6.276q1.531,3.293,3.262,6.487c.329.61,1.259.067.93-.543q-1.562-2.891-2.969-5.86c-.94-1.991-2.15-4.115-2.255-6.358-.032-.69-1.109-.694-1.077,0" transform="translate(-316.831 -272.446)" fill="#3f93d3"/>
      <path id="Path_66452" data-name="Path 66452" d="M405.065,337.938a3.565,3.565,0,0,0,.836,2.486q.943,1.558,1.778,3.178a53.616,53.616,0,0,1,2.945,6.865c.228.65,1.268.37,1.038-.286a56.206,56.206,0,0,0-2.461-5.937q-.686-1.415-1.455-2.788-.4-.723-.831-1.432c-.286-.476-.906-1.209-.813-1.8.107-.678-.931-.97-1.038-.286" transform="translate(-332.347 -276.971)" fill="#3f93d3"/>
      <path id="Path_66453" data-name="Path 66453" d="M408.72,320.9c3.109,3.09,5.235,6.946,7.849,10.429a52.728,52.728,0,0,0,8.854,9.208c.527.43,1.283-.288.761-.761l-1.246-1.13c-.512-.465-1.276.295-.761.761l1.246,1.13.761-.761a51.77,51.77,0,0,1-9.063-9.5c-2.5-3.417-4.616-7.132-7.64-10.138a.539.539,0,0,0-.761.761" transform="translate(-335.239 -262.553)" fill="#3f93d3"/>
      <path id="Path_66454" data-name="Path 66454" d="M412.1,295.5a14.793,14.793,0,0,0,3.293,3.354c1.405,1.113,2.8,2.235,4.14,3.426a75.8,75.8,0,0,1,7.5,7.7c.448.529,1.207-.235.761-.761a75.815,75.815,0,0,0-7.261-7.483c-1.267-1.135-2.575-2.221-3.912-3.272a15.666,15.666,0,0,1-3.592-3.5c-.381-.576-1.313-.037-.93.543" transform="translate(-338.071 -241.817)" fill="#3f93d3"/>
      <path id="Path_66455" data-name="Path 66455" d="M409.895,279.634c5.951,3.524,11.7,7.474,18.694,8.5.678.1.971-.938.286-1.038a28.955,28.955,0,0,1-9.584-3.2c-3.008-1.618-5.914-3.442-8.853-5.182a.539.539,0,0,0-.543.93" transform="translate(-336.122 -228.623)" fill="#3f93d3"/>
      <path id="Path_66456" data-name="Path 66456" d="M66.495,147.687q5.293,13.42,11.122,26.62c.279.632,1.207.085.93-.544q-5.771-13.07-11.014-26.363c-.251-.637-1.293-.36-1.038.286" transform="translate(-54.529 -120.652)" fill="#3f93d3"/>
      <path id="Path_66457" data-name="Path 66457" d="M84.113,139.644a141.283,141.283,0,0,0,10.7,27c.32.615,1.25.071.93-.544a139.882,139.882,0,0,1-10.589-26.746.539.539,0,0,0-1.038.286" transform="translate(-68.999 -114.037)" fill="#3f93d3"/>
      <path id="Path_66458" data-name="Path 66458" d="M110.2,129.943a162.678,162.678,0,0,1,6.467,18.26.539.539,0,0,0,1.038-.286,164.893,164.893,0,0,0-6.575-18.517c-.269-.636-1.2-.088-.93.543" transform="translate(-90.387 -105.945)" fill="#3f93d3"/>
      <path id="Path_66459" data-name="Path 66459" d="M138.644,115.988q1.9,8.393,4.6,16.573c.216.655,1.256.375,1.038-.286q-2.7-8.172-4.6-16.573c-.153-.675-1.192-.39-1.038.286" transform="translate(-113.75 -94.621)" fill="#3f93d3"/>
      <path id="Path_66460" data-name="Path 66460" d="M156.945,95.225a48.5,48.5,0,0,0,3,16.655c.238.644,1.279.366,1.038-.286a47.61,47.61,0,0,1-2.961-16.369.539.539,0,0,0-1.077,0" transform="translate(-128.779 -77.709)" fill="#3f93d3"/>
      <path id="Path_66461" data-name="Path 66461" d="M181.346,84.918a30.836,30.836,0,0,0,3.725,16.089c.331.609,1.261.066.93-.544a29.747,29.747,0,0,1-3.578-15.545c.031-.693-1.046-.691-1.077,0" transform="translate(-148.777 -69.252)" fill="#3f93d3"/>
      <path id="Path_66462" data-name="Path 66462" d="M208.8,82.16c-.049,3.82-.1,7.645.13,11.461.106,1.779.274,3.553.523,5.317.074.523.018,1.539.528,1.869a.635.635,0,0,0,.912-.235.54.54,0,0,0,0-.543l-.032-.057c-.337-.606-1.267-.063-.93.543l.032.057v-.543l.2-.163.524.138a8.625,8.625,0,0,1-.312-2.24q-.127-1.032-.216-2.068c-.133-1.5-.214-3-.262-4.5-.1-3.011-.059-6.023-.02-9.035a.539.539,0,0,0-1.077,0" transform="translate(-171.292 -66.989)" fill="#3f93d3"/>
      <path id="Path_66463" data-name="Path 66463" d="M236.265,82.25a115.054,115.054,0,0,0-.528,16.537c.028.691,1.1.694,1.077,0a115.05,115.05,0,0,1,.528-16.537c.072-.688-1.006-.683-1.077,0" transform="translate(-193.356 -67.067)" fill="#3f93d3"/>
      <path id="Path_66464" data-name="Path 66464" d="M251.853,73.768a40.623,40.623,0,0,0-.7,17.451c.121.681,1.159.392,1.038-.286a39.336,39.336,0,0,1,.7-16.879.539.539,0,0,0-1.038-.286" transform="translate(-205.561 -60.216)" fill="#3f93d3"/>
      <path id="Path_66465" data-name="Path 66465" d="M274.6,81.494a54.074,54.074,0,0,0,1.5,16.7.539.539,0,0,0,1.038-.286,53.094,53.094,0,0,1-1.462-16.417c.046-.692-1.031-.689-1.077,0" transform="translate(-225.221 -66.444)" fill="#3f93d3"/>
      <path id="Path_66466" data-name="Path 66466" d="M295.3,89.64c-.132,5.034,1.173,9.916,2.5,14.727a.539.539,0,0,0,1.038-.286c-1.3-4.722-2.591-9.5-2.462-14.441a.539.539,0,0,0-1.077,0" transform="translate(-242.296 -73.127)" fill="#3f93d3"/>
      <path id="Path_66467" data-name="Path 66467" d="M352.207,100.317q1.973,12.357,4.123,24.685c.119.681,1.157.393,1.038-.286q-2.15-12.327-4.123-24.685c-.109-.682-1.147-.393-1.038.286" transform="translate(-288.993 -81.759)" fill="#3f93d3"/>
      <path id="Path_66468" data-name="Path 66468" d="M379.789,119.379l1.477,14.357c.473,4.6.773,9.275,2.016,13.746a.539.539,0,0,0,1.038-.286c-1.249-4.491-1.539-9.191-2.014-13.81l-1.441-14.007c-.07-.682-1.148-.69-1.077,0" transform="translate(-311.628 -97.533)" fill="#3f93d3"/>
      <path id="Path_66469" data-name="Path 66469" d="M405.682,153.032a169.14,169.14,0,0,0,2.828,25.427c.128.68,1.166.392,1.038-.286a167.187,167.187,0,0,1-2.79-25.14c-.024-.691-1.1-.694-1.077,0" transform="translate(-332.877 -125.143)" fill="#3f93d3"/>
      <path id="Path_66470" data-name="Path 66470" d="M424.791,178.74l4.884,22.152c.149.676,1.188.39,1.038-.286l-4.884-22.152c-.149-.676-1.187-.39-1.038.286" transform="translate(-348.545 -146.111)" fill="#3f93d3"/>
      <path id="Path_66471" data-name="Path 66471" d="M476.916,233.5a98.1,98.1,0,0,0,2.089,18.155c.143.678,1.181.391,1.038-.286a96.545,96.545,0,0,1-2.051-17.869.539.539,0,0,0-1.077,0" transform="translate(-391.328 -191.168)" fill="#3f93d3"/>
    </g>
  </g>
</svg>
