<svg xmlns="http://www.w3.org/2000/svg" xmlns:xlink="http://www.w3.org/1999/xlink" width="104.029" height="81.544" viewBox="0 0 104.029 81.544">
  <defs>
    <clipPath id="clip-path">
      <rect id="Rectangle_14341" data-name="Rectangle 14341" width="93.955" height="66.236" fill="#89c34b"/>
    </clipPath>
  </defs>
  <g id="Group_158549" data-name="Group 158549" transform="matrix(0.985, -0.174, 0.174, 0.985, 0, 16.315)">
    <g id="Group_158548" data-name="Group 158548" clip-path="url(#clip-path)">
      <path id="Path_66886" data-name="Path 66886" d="M92.733.019a2.659,2.659,0,0,0-.953.1c-2.06.413-4.1.934-6.11,1.533-1.548.444-3.089.916-4.662,1.265-2.573.61-5.2.988-7.783,1.536C70.112,5.1,66.953,5.469,63.8,5.913c-3.027.471-6.062.894-9.11,1.193-2.149.226-4.3.427-6.452.535a49.475,49.475,0,0,0-6.285.8,73.565,73.565,0,0,0-7.561,1.59,29.6,29.6,0,0,0-4.663,1.942A17.676,17.676,0,0,0,24.3,16.412c-2.081,2.333-3.964,4.835-6.1,7.115-1.12,1.194-2.465,2.133-3.634,3.269a10.594,10.594,0,0,0-1.8,2.716,36.579,36.579,0,0,0-1.941,5.34c-.7,2.293-1.611,4.512-2.316,6.8a38.549,38.549,0,0,0-.971,5.59c-.141.914-.364,1.872-.579,2.782-.017.067-.035.135-.051.2a18.123,18.123,0,0,1-1.392,2.4,27.014,27.014,0,0,0-2.451,5.663C2.441,59.671,1.359,60.567.744,62,.095,62.954-.5,65.536.65,66.236a1.394,1.394,0,0,0,.192-.02,1.012,1.012,0,0,0,.146-.034.592.592,0,0,0,.072-.024c1.7-.53,3.25-2.95,4.66-3.926a35.4,35.4,0,0,1,3.8-1.81c.975-.455,1.914-.972,2.878-1.447,1.4-.627,2.756-1.347,4.1-2.093a17.7,17.7,0,0,1,9.29-2.279,11.5,11.5,0,0,0,2.677-.373,18.176,18.176,0,0,0,2.9-.92,17.652,17.652,0,0,0,3.256-2.371,27.216,27.216,0,0,1,3.863-2.7,12.6,12.6,0,0,1,8.656-1.956,11.739,11.739,0,0,0,6.694-.742,37.536,37.536,0,0,0,8.8-5.789c1.62-1.324,3.2-2.7,4.7-4.152,2.3-2.249,4.372-4.727,6.578-7.072A61.5,61.5,0,0,0,77.977,23.9c.634-.9,1.249-1.81,1.855-2.73a91.872,91.872,0,0,1,5.435-7.428C86.6,12,88.051,10.353,89.528,8.728c.814-.9,1.647-1.781,2.433-2.7A7.076,7.076,0,0,0,93.94,2.5,2.3,2.3,0,0,0,92.733.019M85.916,9.14c-1.973,2.493-3.936,5-5.713,7.639-1.175,1.79-2.277,3.627-3.543,5.354a26.7,26.7,0,0,1-2.168,2.474c-1.6,1.714-3.09,3.29-4.725,5.016A69.694,69.694,0,0,1,57.335,40.128a16,16,0,0,1-8.194,2.963c-.845-.013-1.677-.161-2.513-.256a13.264,13.264,0,0,0-8.406,1.849A29.275,29.275,0,0,0,34.049,47.6c-.969.777-1.85,1.667-2.873,2.375a9.968,9.968,0,0,1-2.123.927,15.071,15.071,0,0,1-3.6.776c-.649.039-1.3.067-1.949.131a17.094,17.094,0,0,0-5.716,1.542c-1.4.645-2.711,1.443-4.06,2.174-1.434.71-2.882,1.394-4.312,2.113-1.528.747-4.8,3.852-6.211,4.988a37.4,37.4,0,0,0,1.651-3.839,19.121,19.121,0,0,1,1.712-2.7,29.589,29.589,0,0,0,1.7-4.6,46.389,46.389,0,0,0,1.451-6.97c.669-2.806,1.788-5.663,2.436-8.5.673-2.627,1.34-5.432,3.17-7.52,1.136-1.094,2.462-1.977,3.564-3.111,2.025-2.071,3.876-4.3,5.818-6.45A21.441,21.441,0,0,1,28.758,15.3a29.916,29.916,0,0,1,4.772-2.348,30.275,30.275,0,0,1,5.147-1.394c2.446-.45,4.88-.974,7.351-1.277,3.054-.315,6.128-.355,9.185-.654C60.5,9.18,65.756,8.5,71.018,7.867c3.348-.582,6.714-1.068,10.047-1.721,3.3-.708,6.5-1.814,9.782-2.624-1.614,1.9-3.356,3.684-4.931,5.618" transform="translate(0 -0.001)" fill="#89c34b"/>
      <path id="Path_66887" data-name="Path 66887" d="M55.492,72.2c-.6.265.226-.821.578-1.359,1.259-2.033,3.075-4.257,4.5-6.181a110.445,110.445,0,0,1,7.583-8.571c.991-1.017,1.826-2.022,2.836-2.969a31.221,31.221,0,0,1,5.1-3.195q2.494-1.329,5.1-2.428c1.083-.478,2.1-1.091,3.15-1.643,1.09-.6,2.26-1.025,3.4-1.522a23.7,23.7,0,0,1,3.746-1.315,18.53,18.53,0,0,0,7.951-5.206c2.286-2.44,4.484-5.1,7.465-6.72a29.515,29.515,0,0,1,3.869-1.482c.86-.295,1.719-.588,2.578-.887,1.729-.59,3.349-1.442,5.022-2.167,2.515-1.1,5.048-2.16,7.5-3.392,2-.932,3.992-1.878,6.063-2.637,2.178-.821,6.971-2.838,9.216-3.4-2.484,1.335-7.481,4.124-9.849,5.657-3.364,2.15-6.594,4.565-10.249,6.211-2.455,1.054-4.842,2.281-7.372,3.151-2.3.879-4.777,1.41-6.871,2.747-3.172,2.084-5.371,5.278-8.322,7.621a18.931,18.931,0,0,1-7.264,3.344A31.749,31.749,0,0,0,86.82,47.25a20.692,20.692,0,0,0-2.488,1,37.362,37.362,0,0,1-5.079,2,32.4,32.4,0,0,0-8.308,4.544A126.054,126.054,0,0,0,60.723,65.4c-.917,1.158-1.789,2.349-2.648,3.55-.776.957-2.768,3.432-2.583,3.246" transform="translate(-48.018 -14.878)" fill="#89c34b"/>
      <path id="Path_66888" data-name="Path 66888" d="M63.256,199.942c1.965-3.946,4.913-7.322,6.569-11.437.994-3.523,1.645-7.2,2.374-10.782a15.2,15.2,0,0,1,5.181-9.429,21.856,21.856,0,0,1,2.864-2.345,30.126,30.126,0,0,0-2.227,2.531c-1.565,2.083-3.251,4.17-4.05,6.68-.845,4.151-1.692,8.285-2.753,12.389a18.633,18.633,0,0,1-2.653,5.417,42.762,42.762,0,0,1-5.341,6.973s.046,0,.047,0,0,.011-.011,0" transform="translate(-54.917 -144.153)" fill="#89c34b"/>
      <path id="Path_66889" data-name="Path 66889" d="M205.013,124.131a1.259,1.259,0,0,0-.222.017l-.056.021c.109.041-.075.076-.062-.007.4-.912,1.61-1.314,2.434-1.811a15.2,15.2,0,0,0,4.083-3.038c3.87-4.556,2.871-12,8.369-15.575a24.776,24.776,0,0,1,5.245-2.65c-.654.555-1.319,1.123-1.954,1.707-4.8,3.779-6.036,8.374-7.828,13.879-1.213,3.767-5.951,7.763-10.008,7.455" transform="translate(-177.791 -87.812)" fill="#89c34b"/>
      <path id="Path_66890" data-name="Path 66890" d="M68.5,175.946c.264-1.847.658-3.671.893-5.522.164-1.211.574-2.378.677-3.6a24.533,24.533,0,0,1,.415-5.3,5.963,5.963,0,0,1,3.949-4.864c2.515-.851,3.015-.314,5.1-2.5,1.007-.987,1.432-2.65,2.871-3.11-1.165,1.594-1.894,3.489-3.317,4.891a5.992,5.992,0,0,1-1.368,1.2c-1.184.664-2.566.917-3.684,1.719-2.258,1.441-2.386,4.186-2.349,6.607a13.116,13.116,0,0,1-.28,4.214,21.415,21.415,0,0,1-1.722,4.212c-.4.678-.812,1.352-1.184,2.046,0,0,0,0,0,0" transform="translate(-59.505 -131.221)" fill="#89c34b"/>
      <path id="Path_66891" data-name="Path 66891" d="M129.955,348.319a6.942,6.942,0,0,1-2.947.37,7.841,7.841,0,0,1-1.9-.632,8.36,8.36,0,0,0-2.45-.935,12.086,12.086,0,0,0-4.8.234,18.3,18.3,0,0,0-5.729,2.253c2.809-1.333,7.445-1.827,10.194-.568A7.081,7.081,0,0,0,126.7,350.1a23.058,23.058,0,0,0,7.841-3.731,22.563,22.563,0,0,1-4.586,1.946" transform="translate(-97.397 -300.88)" fill="#89c34b"/>
      <path id="Path_66892" data-name="Path 66892" d="M368.876,151.726c-.545.4-1.094.8-1.658,1.168a41.762,41.762,0,0,1-4.6,2.329,15.17,15.17,0,0,1-2.885.874,7.958,7.958,0,0,1-1.86,0c-.6-.07-1.528-.321-2.393-.483a11.159,11.159,0,0,0-3.288-.35,23.245,23.245,0,0,0-4.189.356,30.278,30.278,0,0,0-4.019.924c-.863.3-1.7.662-2.545,1.011a9.363,9.363,0,0,0-1.542.746,14.92,14.92,0,0,1,2.281-.711,13.167,13.167,0,0,1,2.308-.453c1.23-.079,2.461-.184,3.694-.18,1.026.018,2.047.129,3.065.246a35.332,35.332,0,0,1,4.306,1.129,6.071,6.071,0,0,0,3.463-.24,23.445,23.445,0,0,0,3.248-1.437c1.414-.771,2.8-1.6,4.134-2.5.877-.639,2-1.576,2.367-1.867,1.649-1.319,3.33-2.6,4.978-3.92-1.62,1.12-3.264,2.207-4.862,3.359" transform="translate(-295.252 -128.881)" fill="#89c34b"/>
    </g>
  </g>
</svg>
