<svg xmlns="http://www.w3.org/2000/svg" xmlns:xlink="http://www.w3.org/1999/xlink" width="131.929" height="138.882" viewBox="0 0 131.929 138.882">
  <defs>
    <clipPath id="clip-path">
      <rect id="Rectangle_14337" data-name="Rectangle 14337" width="112.598" height="121.171" transform="translate(0 0)" fill="#89c34b"/>
    </clipPath>
  </defs>
  <g id="Group_158543" data-name="Group 158543" transform="matrix(0.985, 0.174, -0.174, 0.985, 21.042, -0.002)">
    <g id="Group_158542" data-name="Group 158542" transform="translate(0 0.002)" clip-path="url(#clip-path)">
      <path id="Path_66784" data-name="Path 66784" d="M641.384,16.191a73.327,73.327,0,0,1-.167-8.539c.115-2.373.313-1.982.862-4.292.105-1.058.673-3.589.062-3.341a42.079,42.079,0,0,0-1.774,6.035A38.122,38.122,0,0,0,639.727,16c.132,2.054.912,3.981,1.284,5.988a52.421,52.421,0,0,1-.263,8.25c-.488,6.885-1.664,7.244-4.731,12.887-1.25,2.541-2.052,5.276-3.076,7.912a10.063,10.063,0,0,1-2.471,4.39c-.473.46-.541,1.308-1.093,1.7-.344.245-.374.714-.564,1.02a11.641,11.641,0,0,1,2.889.38.534.534,0,0,1,.182.087,2.906,2.906,0,0,0,.246-.313,11.937,11.937,0,0,0,1.306-4.43c.155-1.031.771-1.957.929-2.986.047-.188.1-.375.153-.56.832-1.678,1.033-3.562,1.844-5.25,1.281-2.587,3.426-4.656,4.576-7.307,1.42-3.877,1.712-8.054,1.876-12.149a19.617,19.617,0,0,0-.4-5.284c-.34-1.382-.808-2.731-1.034-4.141" transform="translate(-585.096 -0.002)" fill="#89c34b"/>
      <path id="Path_66785" data-name="Path 66785" d="M219.147,135.912a.167.167,0,0,0-.008-.176c-.031-.044-.039-.047-.1-.054a3.216,3.216,0,0,0-.963.609c-.705.534-1.382,1.1-2.051,1.682A10.8,10.8,0,0,1,213,139.835c-1.01.382-2.058.666-3.1.955a23.977,23.977,0,0,1-2.86.683c-.934.155-1.865.325-2.8.462-.949.121-1.912.1-2.857.25a10,10,0,0,0-2.158.7,10.809,10.809,0,0,0-2.544,1.4,21.036,21.036,0,0,0-4.022,4.382c-.233.337-.478.665-.724.992l-.137.143c-.878.981-1.917,1.8-2.8,2.776A12.378,12.378,0,0,1,187.31,154c-1.485,1.157-1.186,1.78-1.469,3.41a3.667,3.667,0,0,1-1.214,1.934,10.958,10.958,0,0,0-1.689,1.131,7.685,7.685,0,0,0-2.256,3.474,9.7,9.7,0,0,1-.383,1.015v0q-.253.4-.49.817a22.51,22.51,0,0,1-1.925,3.279c-.229.288-.467.569-.717.838-.184.19-.371.378-.562.561a.75.75,0,0,0-.262.412c-.072.386.079,1.049.566,1.045a7.144,7.144,0,0,0,1.791-.461c.7-.248,1.4-.5,2.1-.762,1.62-.6,3.26-1.143,4.927-1.6a18.888,18.888,0,0,1,4.029-1.08,21.51,21.51,0,0,0,5.557-.756,17.9,17.9,0,0,1,2.38-.687,19.564,19.564,0,0,0,2.239-.789,15.573,15.573,0,0,0,2.53-1.248,17.666,17.666,0,0,0,2.943-2.13,17.921,17.921,0,0,0,2.305-2.781c1.07-1.376,2.406-2.515,3.516-3.854a11.2,11.2,0,0,0,2.3-4.166c.26-1.28.213-2.608.561-3.873a28.478,28.478,0,0,1,1.451-3.93c.218-.591.417-1.19.641-1.779a12.293,12.293,0,0,1,1.409-2.34c.254-.38.462-.789.705-1.176a8.39,8.39,0,0,0,1.081-1.954,6.532,6.532,0,0,0,.2-.725,2.215,2.215,0,0,0-.434.093m-3.833,5.486c-.315.9-.64,1.8-1.02,2.68a14.057,14.057,0,0,0-.92,2.592,14.915,14.915,0,0,0-.452,2.942,6.379,6.379,0,0,1-.48,2.265,14.226,14.226,0,0,1-1.789,2.8c-.665.8-1.429,1.506-2.135,2.267a18.888,18.888,0,0,0-1.64,1.976,13.166,13.166,0,0,1-1.924,2.449,15.414,15.414,0,0,1-5.012,3.156,24.04,24.04,0,0,1-2.684.758,24.213,24.213,0,0,0-2.882.728,45.852,45.852,0,0,1-5.429.659,22.185,22.185,0,0,0-3.195,1c-.731.235-1.468.451-2.2.687-1.883.615-3.71,1.393-5.584,2.034a13.225,13.225,0,0,0,1.176-1.892c.268-.53.495-1.081.737-1.623.319-.466.633-.915.77-1.177a13.9,13.9,0,0,1,1.2-2.069,10.282,10.282,0,0,1,1.566-2.06l.027-.018c.471-.317,1.009-.527,1.463-.867a11.513,11.513,0,0,0,1.793-2.077l.035-.063a4.6,4.6,0,0,0,.36-.793,6.569,6.569,0,0,1,.7-1.891c.846-1.233,1.873-2.334,2.725-3.564.537-.746,1.164-1.419,1.747-2.128.453-.561.913-1.118,1.4-1.65a15.144,15.144,0,0,1,3.149-2.83,11.88,11.88,0,0,1,2.7-1.212,12.164,12.164,0,0,1,2.046-.562c1.257-.16,2.539-.082,3.782-.362.911-.172,1.83-.311,2.73-.539.967-.237,1.9-.589,2.841-.915a13.446,13.446,0,0,0,3.877-2.068c.761-.617,1.85-1.414,2.242-1.789a17.343,17.343,0,0,0-1.722,3.159" transform="translate(-164.066 -126.249)" fill="#89c34b"/>
      <path id="Path_66786" data-name="Path 66786" d="M297.663,190.954c1.774-3.167,5.741-3.905,8.155-6.4a7.34,7.34,0,0,0,2.242-2.948c.472-.988,1.248-1.791,1.753-2.766a16.909,16.909,0,0,1,6.305-5.8c4.491-2.433,8.654-3.18,12.583-7.812,2.946-3.288,1.563-.948-1.1,2.54-6.1,5.783-7.373,4.252-12.122,7.386a11.5,11.5,0,0,0-5.569,5.667,26.732,26.732,0,0,1-2,3.175,21.316,21.316,0,0,1-3.731,2.822c-2.274,1.189-4.972,1.94-6.513,4.136,0,0,0,0,0,0" transform="translate(-276.968 -152.275)" fill="#89c34b"/>
      <path id="Path_66787" data-name="Path 66787" d="M610.786,274.561c2.777-3.025,3-3.752,2.495-7.927-.36-1.793-.811-3.773.319-5.4a13.581,13.581,0,0,1,1.76-2.152s-2.188,3.722-1.563,5.694a11.853,11.853,0,0,1,.315,6.413,5.942,5.942,0,0,1-3.326,3.376" transform="translate(-568.322 -241.067)" fill="#89c34b"/>
      <path id="Path_66788" data-name="Path 66788" d="M425.692,278.036a4.55,4.55,0,0,1,1.323-2.347,6.583,6.583,0,0,1,5.757-2.559,22.624,22.624,0,0,0,5.635-.117c1.1-.083,2.048-.691,3.121-.829-.79,2.206-8.091,1.878-10.279,1.982a8.567,8.567,0,0,0-5.556,3.872h0v0" transform="translate(-396.097 -253.261)" fill="#89c34b"/>
      <path id="Path_66789" data-name="Path 66789" d="M446.606,384.195a13.518,13.518,0,0,0,2.527-2.959c2.549-3.05.11-5.7,2.184-8.808.263-.355.769-.989,1.3-.787-.63.2-.808,1.009-1.137,1.488-1.256,2.274.336,4.733-.4,7.07a5.947,5.947,0,0,1-4.477,4" transform="translate(-415.557 -345.767)" fill="#89c34b"/>
      <path id="Path_66790" data-name="Path 66790" d="M331.337,413.583c-.1-1.9,1.659-3.469,3.274-4.167,1.608-.742,3.4-.033,5.045-.548a2.62,2.62,0,0,0,.964-.514,2.307,2.307,0,0,1-1.121,1.131c-1.326.536-2.814.374-4.162.843-1.513.554-3.611,1.556-4,3.256h0" transform="translate(-308.297 -379.964)" fill="#89c34b"/>
      <path id="Path_66791" data-name="Path 66791" d="M790.057,533.134c.028-.061.057-.122.083-.184a2.441,2.441,0,0,1,.159-.34c-.348-.3,1.536-.172,1.247-.535-.47-.945-2.9-.681-3.595-3.316a31.233,31.233,0,0,1-1.518-5.008c-.247-1.133-.165-4.565-.461-5.675-.293-.895-.72,1.544-.9,2.377-.192.791-.832.085-.713.877.112,2.682,1.947,6.815,3.069,9.212.55,1.328,1.237,2.658,2.4,3.144.028-.046.2-.508.227-.552" transform="translate(-729.816 -481.876)" fill="#89c34b"/>
      <path id="Path_66792" data-name="Path 66792" d="M855.879,713.186c-1.748-.553-3.122-2.1-5.038-2.068a68.706,68.706,0,0,0-7.239.15c-3.1.533-6.156,1.415-9.3,1.7a23.766,23.766,0,0,1-12.494-4.378,32.046,32.046,0,0,1-7.174-7.538,41.767,41.767,0,0,1-4.925-10.072,25.139,25.139,0,0,1-1.119-16.207c1.691-5.395,3.519-3.691,2.432-10.125a3.258,3.258,0,0,1,.61-2.557c.924-1.228,2.956-.72,4.31-1,2.522-.095,4.614-1.585,6.994-2.227,4.541-1.21,9.452-1.729,14.016-.343,3.27,1.455,6.725,2.7,9.51,5.016a57.008,57.008,0,0,1,8.629,8.307,38.982,38.982,0,0,1,5.208,8.841,59.108,59.108,0,0,1,3.709,9.934c.881,5.165-1.8,10.062-4.067,14.519-1.434,1.891-.975,2-.942,4.183-.022,1.649-1.111,4.327-3.121,3.863m.325-1.847c.946-.068,1.441-1.106,1.686-1.908.165-1.143-.213-2.307,0-3.45.189-1.044,1-1.81,1.477-2.724a59.317,59.317,0,0,0,3.16-7.2,10.062,10.062,0,0,0-.068-6.944,71.088,71.088,0,0,0-2.971-7.386,35.872,35.872,0,0,0-9.355-12.866A42.547,42.547,0,0,0,844.173,664a73.51,73.51,0,0,0-7.5-3.531,24,24,0,0,0-11.8.011c-2.285.309-4.275,1.536-6.413,2.288a23.41,23.41,0,0,1-4.457.623,4.64,4.64,0,0,1-1.115.016.978.978,0,0,0-1,1.062c.062.7.281,1.381.39,2.071.71,2.922-.6,4.863-1.968,7.272a19.274,19.274,0,0,0-1.2,11.732,46.943,46.943,0,0,0,4.514,11.564c4.326,7.578,10.8,12.929,19.654,13.976,3.378-.066,6.657-1.1,9.961-1.7a58.866,58.866,0,0,1,7.321-.2c2.165-.159,3.67,1.676,5.649,2.161" transform="translate(-751.582 -611.971)" fill="#89c34b"/>
      <path id="Path_66793" data-name="Path 66793" d="M891.935,843.364c-.879-.4-.062-2.358.8-2.134.134-.28.344.029.349.22a2.5,2.5,0,0,1-.365,1.446c-.231.171-.465.515-.785.468" transform="translate(-829.574 -782.641)" fill="#89c34b"/>
      <path id="Path_66794" data-name="Path 66794" d="M851.4,933.437c-.886-.422-.52-2.39-.193-3.115.476-1.064,1.321-.861,1.6.195.246.836.054,2.468-.911,2.762a.475.475,0,0,1-.492.158m.039-.976a.252.252,0,0,0,.088-.053,2.37,2.37,0,0,1,.24-1.531c.112-.255.3-.46.574-.26-.026-.032-.053-.062-.082-.091-.013-.01-.025-.02-.02-.02-.706-.293-.942,1.482-.849,1.932a.108.108,0,0,0,.048.024" transform="translate(-791.693 -864.988)" fill="#89c34b"/>
      <path id="Path_66795" data-name="Path 66795" d="M921.791,932.608c-.388-.269-.5-1.158-.05-1.4.892-.78,1,1.559.05,1.4" transform="translate(-857.388 -866.318)" fill="#89c34b"/>
      <path id="Path_66796" data-name="Path 66796" d="M873.4,1041.736a2.86,2.86,0,0,1-.687-2.867c.116-.5.681-1.007,1.133-.539.916.46.927,3.746-.446,3.406m.325-1.847q.016-.027.031-.056l.014-.031c-.01-.021-.019-.042-.028-.063,0,.023-.008.046-.011.069s0,.054-.007.081" transform="translate(-811.929 -965.97)" fill="#89c34b"/>
      <path id="Path_66797" data-name="Path 66797" d="M943.055,1020.2c-.3-.126-.531-.884-.306-1.133,0-.662.514-1.064.843-.3.157.386.116,1.651-.537,1.434m.126-.962a.259.259,0,0,0,.052-.177h0c-.066.028-.055.119-.051.177" transform="translate(-877.122 -947.552)" fill="#89c34b"/>
      <path id="Path_66798" data-name="Path 66798" d="M936.953,1108.6c-1.145-.521-1.816-3.641-.142-3.777,1.158.346,2.282,2.594,1.026,3.4a.725.725,0,0,1-.883.372m.029-1.021a3.063,3.063,0,0,1-.362-1.4c-.088.02-.176.039-.264.057a1.468,1.468,0,0,0,.626,1.342m-.362-1.488a1.989,1.989,0,0,1,.033-.337.438.438,0,0,0-.247.284q.107.024.214.053" transform="translate(-870.744 -1028.013)" fill="#89c34b"/>
      <path id="Path_66799" data-name="Path 66799" d="M1004.113,1087.2a.374.374,0,0,1-.183-.39c-.2-.347-.344-1.128.061-1.373.378-.13.475.52.533.774.037-.148.177-.359.075-.5-.019-.007-.047,0-.061,0a.18.18,0,0,1,.06-.042.064.064,0,0,1,.028.005c.226.149.111,1-.021,1.212a.926.926,0,0,1-.212.217.245.245,0,0,1-.279.1m.119-.748a1.5,1.5,0,0,0-.1-.328h0a.463.463,0,0,0,.1.328" transform="translate(-933.949 -1009.962)" fill="#89c34b"/>
      <path id="Path_66800" data-name="Path 66800" d="M920.884,1186.484a2.817,2.817,0,0,1-1.6-2.2c-.046-.334.138-.777.54-.612.394-1.95,1.842-.552,2.015.675.2.743,0,2.121-.952,2.134m.021-1.058c.026.008.069-.031.081-.032l.014-.02a.04.04,0,0,0,.014-.02l-.013.019-.02.02c.153-.214-.058-.523-.127-.745.067.214-.06.667-.339.441.091.147.2.329.389.338m-1-.266a3.309,3.309,0,0,1-.1-1.439c-.786.09-.181,1.086.1,1.439" transform="translate(-855.363 -1100.481)" fill="#89c34b"/>
      <path id="Path_66801" data-name="Path 66801" d="M1031.813,1180.5a.392.392,0,0,1-.288-.134l-.029-.01a.32.32,0,0,1-.054-.022c-.673.309-.918-1.339-.808-1.767.1-.856.7-1.359,1.2-.4a2.975,2.975,0,0,1,.221.694,2.45,2.45,0,0,1,.183.723c.034.3-.033.909-.419.915" transform="translate(-958.957 -1095.772)" fill="#89c34b"/>
      <path id="Path_66802" data-name="Path 66802" d="M1017.009,1276.037a2.128,2.128,0,0,1-.593-.214,1.917,1.917,0,0,1-.861-.578c-.194-.171-.871-.8-.744-1.052-.045.173.169.32.278.43a1.212,1.212,0,0,1-.051-1.329c.558-.559,2.2.505,2.6,1,.674.686.554,1.943-.624,1.743m.319-.441a.6.6,0,0,0,.393-.283l-.014.028c.2-.36-.661-.922-.932-1.081.018.063.034.128.046.193a1.335,1.335,0,0,1,.076,1.143,1.141,1.141,0,0,0,.43,0m-1.936-1.44a1.149,1.149,0,0,1,.017-.292.733.733,0,0,0-.09.034l-.024.017.01-.01a.379.379,0,0,0-.027.03.827.827,0,0,0,.115.221" transform="translate(-944.243 -1184.624)" fill="#89c34b"/>
      <path id="Path_66803" data-name="Path 66803" d="M1112.262,1269.674c-.812-.345-1.621-1.5-.929-2.3.119-.981,1.019-.5,1.4.031.79.143,1.5,1.341.553,1.768a.7.7,0,0,1-1.023.5" transform="translate(-1033.826 -1178.737)" fill="#89c34b"/>
      <path id="Path_66804" data-name="Path 66804" d="M1131.957,1343.246a2.778,2.778,0,0,1-.825-.209,1.572,1.572,0,0,1-1.6-.808.821.821,0,0,1,.111-.913c.388-.313,1.341-.092,1.8.017a2.393,2.393,0,0,1,1.208.652c.476.655.131,1.331-.7,1.261m.2-.584a1.155,1.155,0,0,0,.244-.1.466.466,0,0,0,.054-.041,2.082,2.082,0,0,0-.715-.365,1.088,1.088,0,0,1-.022.269.817.817,0,0,1-.1.261,1.438,1.438,0,0,0,.542-.02m-1.388-.5a.978.978,0,0,0,.522-.126q-.115-.023-.231-.041a.182.182,0,0,0-.006.04.144.144,0,0,1-.023-.044,3.368,3.368,0,0,0-.908-.029,1.466,1.466,0,0,0,.645.2" transform="translate(-1050.925 -1247.913)" fill="#89c34b"/>
      <path id="Path_66805" data-name="Path 66805" d="M1091.887,1128.581a3.154,3.154,0,0,1-.982-2.343c-.035-.529.268-1.428.917-.918.539.481,1.555,2.182.8,2.769-.08.381-.322.7-.738.492m.038-.985a1.646,1.646,0,0,1-.263-.482,3.717,3.717,0,0,1-.283-.777,1.894,1.894,0,0,0,.547,1.259m-.387-1.2a.782.782,0,0,1,.095-.395c-.067-.033-.148-.047-.189.03a2.118,2.118,0,0,0,.094.365" transform="translate(-1015.06 -1046.943)" fill="#89c34b"/>
      <path id="Path_66806" data-name="Path 66806" d="M1279.1,1267.4c-.751-.008-1.462-1.765-1.26-2.39.225-1.218,1.148-.839,1.73-.108.441.488.839,1.711.051,2.049-.088.214-.26.469-.521.448" transform="translate(-1188.966 -1176.327)" fill="#89c34b"/>
      <path id="Path_66807" data-name="Path 66807" d="M1196.377,1008.716c-.55-.22-1.871-1.19-1.252-1.8.231-1.2,1.575.433,1.874.864.309.509.079,1.327-.622.933" transform="translate(-1111.886 -936.512)" fill="#89c34b"/>
      <path id="Path_66808" data-name="Path 66808" d="M1455.679,1293.982a.437.437,0,0,1-.153-.053.35.35,0,0,1-.271-.128,1.066,1.066,0,0,1-.175-.531c.034-.49-.089-1.33.371-1.636a.251.251,0,0,1,.3.032c-.008-.726.431-1.031.579-.132.029.551.061,2.368-.654,2.449m-.084-1.033a1.03,1.03,0,0,0,.135-.4c-.015-.067-.015-.161-.078-.19-.142.137-.084.415-.057.594" transform="translate(-1353.919 -1201.227)" fill="#89c34b"/>
      <path id="Path_66809" data-name="Path 66809" d="M1187.068,734.142a2,2,0,0,1-.514-.535c-.071-.114-.089-.43.095-.437.089.036.17.094.257.136a.368.368,0,0,1,.264-.4c.233-.016.365.219.438.407.188.411.058,1.284-.541.827" transform="translate(-1104.015 -681.954)" fill="#89c34b"/>
      <path id="Path_66810" data-name="Path 66810" d="M1487.889,1050.857c-.208-.125-.8-1.4-.234-1.192.309.322.208,1.112.75.809-.009.25-.258.6-.517.383" transform="translate(-1384.006 -976.668)" fill="#89c34b"/>
      <path id="Path_66811" data-name="Path 66811" d="M1056.368,749.53c-.312-.17-.757-.462-.675-.87.043-.165.438-.048.185.053.438.19.972.535,1.436.232-.19-.309-.6-.392-.768-.7-.346.078-.7.171-1.035.261.271-.276,1.209-1.42,1.431-.64,1.315.586.968,2.479-.573,1.665" transform="translate(-982.128 -695.622)" fill="#89c34b"/>
      <path id="Path_66812" data-name="Path 66812" d="M1481.227,1077.048c-.049-.388.294-.422.323-.034.05.388-.294.422-.323.034" transform="translate(-1378.243 -1001.881)" fill="#89c34b"/>
      <path id="Path_66813" data-name="Path 66813" d="M1481.329,1039.01c-.629.12-2.235-3.963-1.339-3.57.562.716.4,2.218,1.436,2.484.038-.4.428-.986.744-.418s-.048,1.763-.842,1.5" transform="translate(-1376.85 -963.429)" fill="#89c34b"/>
      <path id="Path_66814" data-name="Path 66814" d="M259.426,948.728c-1.547-.613-.214-2.649.905-3,1.394-.584,1.841,1.365.707,1.981a1.811,1.811,0,0,1-1.612,1.022m.35-1.346a1.284,1.284,0,0,0,.6-.457,5.113,5.113,0,0,0-.6.457m1.166-.63.043-.049c-.03,0-.059,0-.088.006a.379.379,0,0,1,.046.043" transform="translate(-240.737 -879.875)" fill="#89c34b"/>
      <path id="Path_66815" data-name="Path 66815" d="M357.072,914.78a.47.47,0,0,1,.15-.84.742.742,0,0,1,.408-.677c.255-.125.61-.27.858-.06a.758.758,0,0,1-.052,1.1c-.312.226-.982.611-1.365.473" transform="translate(-332.055 -849.616)" fill="#89c34b"/>
      <path id="Path_66816" data-name="Path 66816" d="M327.486,983.876c-1.053-1.352,1.26-2.742,2.472-2.408,2.088,1.121-1.215,3.524-2.472,2.408m2.063-1.209a.817.817,0,0,1-.012.093,3.177,3.177,0,0,0,.266-.216H329.8a1.7,1.7,0,0,0-.245.017c0,.035,0,.07,0,.106" transform="translate(-304.469 -913.187)" fill="#89c34b"/>
      <path id="Path_66817" data-name="Path 66817" d="M460.018,928.827a.959.959,0,0,1-.429-1.511c.581-.565,2.378-.555,2.721.278.29.844-.455.948-1.1,1a2.033,2.033,0,0,1-1.2.23m.487-.93h.046l.01-.012-.056.013" transform="translate(-427.441 -862.482)" fill="#89c34b"/>
      <path id="Path_66818" data-name="Path 66818" d="M260.826,1062.819a.705.705,0,0,1-.276-.957,1.8,1.8,0,0,1,.409-.49,3.068,3.068,0,0,1,.189-.339c.3-.517,1.165-1.207,1.577-.436a1.494,1.494,0,0,1-.66,1.788,1.461,1.461,0,0,1-1.238.433m.092-.569.042,0a.5.5,0,0,1-.082-.2,1.133,1.133,0,0,0-.094.163.289.289,0,0,0,.16.037Zm1.016-.757c.009.006.022.011.02.024a.488.488,0,0,1-.068.211,3.519,3.519,0,0,0,.341-.4q.06-.09.112-.184c-.33.008-.559.3-.764.528a.873.873,0,0,0,.365-.159l-.006-.016s0,0,0,0h0" transform="translate(-242.362 -986.541)" fill="#89c34b"/>
      <path id="Path_66819" data-name="Path 66819" d="M204.6,1025.215c-.752-.646.145-1.915.806-2.288.505-.615,1.163-.684,1.337.215a1.871,1.871,0,0,1-1.03,1.835c-.318.2-.745.448-1.113.239m.151-.565a1.019,1.019,0,0,1-.027-.226,1.776,1.776,0,0,1,.014-.228,1.253,1.253,0,0,0-.123.4c.022.054.088.051.137.058" transform="translate(-190.11 -951.38)" fill="#89c34b"/>
      <path id="Path_66820" data-name="Path 66820" d="M193.981,1122.567c-.82-.125-.456-1.434-.265-1.953.084-.271.581-1.616.966-1.221.507-.4.874.131.878.629.057.788-.691,2.5-1.579,2.544m.09-1.016a3.415,3.415,0,0,0,.834-1.069l-.056.011a1.971,1.971,0,0,0-.37.158,3.9,3.9,0,0,0-.407.9m.408-1.981a1.531,1.531,0,0,1,.128-.119c-.017,0-.033.009-.048.018l.006-.006a.362.362,0,0,0-.059.065l-.026.041" transform="translate(-180.018 -1041.44)" fill="#89c34b"/>
      <path id="Path_66821" data-name="Path 66821" d="M145.656,1087.323c-.412-.658.1-1.785.614-2.27.135-.273.331-.672.684-.658a.589.589,0,0,1,.393.521c.036-.008.073.034.088.063.221.378-.105.781-.255,1.126-.179.481-.918,1.889-1.524,1.218m.316-.513a.346.346,0,0,0,.049-.019.9.9,0,0,1-.116-.386,1.569,1.569,0,0,0-.066.4.236.236,0,0,0,.133.007m.529-.72c.236-.147.275-.452.357-.7a2.5,2.5,0,0,0-.357.7" transform="translate(-135.39 -1009.004)" fill="#89c34b"/>
      <path id="Path_66822" data-name="Path 66822" d="M152,1191.623c-.465-.244-.442-.986-.421-1.441a1.419,1.419,0,0,1,.041-1.234,2.061,2.061,0,0,1,.37-.686c.3-.248.552.009.654.3.5-.233.652.533.65.888a2.733,2.733,0,0,1-.8,2.118.471.471,0,0,1-.493.052m.136-.58a.56.56,0,0,0,.263-.168l-.032.007c-.227.268-.461-.1-.517-.313.009.2.041.518.314.466l-.027.007" transform="translate(-140.928 -1105.558)" fill="#89c34b"/>
      <path id="Path_66823" data-name="Path 66823" d="M84.245,1179.506c-.526-.545-.1-3.216.892-2.8h0c.007.007-.006.026-.009.036.885.136.9,1.444.483,2.044-.312.387-.831,1.4-1.367.72" transform="translate(-78.178 -1094.857)" fill="#89c34b"/>
      <path id="Path_66824" data-name="Path 66824" d="M262.784,1192.235a1.128,1.128,0,0,1-.09-1.275c.3-.477,1.114-.882,1.543-.348a1.021,1.021,0,0,1,.169.782.805.805,0,0,1-.589.592c-.2.323-.731.589-1.032.248" transform="translate(-244.287 -1107.602)" fill="#89c34b"/>
      <path id="Path_66825" data-name="Path 66825" d="M82.57,1281.224c-.755-.1-.843-2.435-.022-2.347a.356.356,0,0,1,.514.04c.555.2.567,1.044.409,1.518-.126.381-.431.9-.9.789" transform="translate(-76.269 -1189.881)" fill="#89c34b"/>
      <path id="Path_66826" data-name="Path 66826" d="M181.689,1301.653a.422.422,0,0,1-.095-.581.137.137,0,0,1,.208.019.525.525,0,0,1,.3.054c-.005.188-.173.586-.414.508" transform="translate(-168.898 -1210.58)" fill="#89c34b"/>
      <path id="Path_66827" data-name="Path 66827" d="M58.3,1348.124c-.764-.38-.684-3.067.448-2.633.722.474.715,2.938-.448,2.633" transform="translate(-53.78 -1251.905)" fill="#89c34b"/>
      <path id="Path_66828" data-name="Path 66828" d="M150.859,1341.953a.41.41,0,0,1-.153-.066.883.883,0,0,1-.105-.1c-.006.037,0,.074-.008.109a2.071,2.071,0,0,1-.153-1.563c.133-.511.952-1.4,1.292-.58.236.757.1,2.107-.873,2.2" transform="translate(-139.889 -1246.3)" fill="#89c34b"/>
      <path id="Path_66829" data-name="Path 66829" d="M104.828,1413.226c-1.269-.319-1.521-4.034-.009-4,1.037.331,1.433,4.154.009,4" transform="translate(-96.563 -1311.252)" fill="#89c34b"/>
      <path id="Path_66830" data-name="Path 66830" d="M379.252,1066.333c-2.075-.335-.849-3.283,1.032-2.659,1.749.474.394,2.9-1.032,2.659" transform="translate(-351.879 -989.643)" fill="#89c34b"/>
      <path id="Path_66831" data-name="Path 66831" d="M262.014,1298.248c-.436-.1-.429-.737-.3-1.076.116-.382.627-1.267,1-.627.122.028.149.192.16.3a.906.906,0,0,1-.066.558c-.164.327-.384.811-.795.849" transform="translate(-243.446 -1206.195)" fill="#89c34b"/>
      <path id="Path_66832" data-name="Path 66832" d="M395.715,1609.819a.77.77,0,0,1-.367-.538.87.87,0,0,1,.38-.946,2.383,2.383,0,0,1,.986-.5c.662-.131.9.018.975.692a1.261,1.261,0,0,1-.636,1.068,1.307,1.307,0,0,1-1.339.227m.379-.8a1.308,1.308,0,0,0,.307-.152l-.02.012a4.3,4.3,0,0,0,.389-.276,2.2,2.2,0,0,0-.368.162,2.859,2.859,0,0,0-.341.252l.033,0" transform="translate(-367.839 -1496.01)" fill="#89c34b"/>
      <path id="Path_66833" data-name="Path 66833" d="M491.122,1403.44c-.049-.388.294-.422.323-.034.05.388-.294.422-.323.034" transform="translate(-456.973 -1305.582)" fill="#89c34b"/>
      <path id="Path_66834" data-name="Path 66834" d="M578.187,1259.777c-.179-.222-.022-.517.058-.748a2.833,2.833,0,0,1,.192-.448c.08-.121.063-.436.231-.455.441.117-.179,1.371-.317,1.634a.1.1,0,0,1-.165.017" transform="translate(-537.913 -1170.657)" fill="#89c34b"/>
      <path id="Path_66835" data-name="Path 66835" d="M253.428,1574.754c-.633-.22-.334-1.693.209-1.888.131-.057.276,0,.411-.028a.329.329,0,0,1-.071.082,1.425,1.425,0,0,0-.614.919c-.015.118-.066.264,0,.371.156.087.28-.031.388-.135a3.412,3.412,0,0,0,.64-1.083,2.533,2.533,0,0,0-.649.634,2.728,2.728,0,0,1,.386-.781.68.68,0,0,1,.284-.266c.1-.059.2.149.226.223.138.452-.623,2.168-1.211,1.951" transform="translate(-235.478 -1463.239)" fill="#89c34b"/>
      <path id="Path_66836" data-name="Path 66836" d="M568.371,1244.323c-.651-1.535,1.488-2.949.809-4.3h-.007l-.005,0c0,.007,0,.016,0,.021-.1-.149.12-.185.21-.109.869.748.227,2.034-.205,2.859.321-.13.559.179.622.462.373.843-.936,2.314-1.42,1.06" transform="translate(-528.74 -1153.702)" fill="#89c34b"/>
      <path id="Path_66837" data-name="Path 66837" d="M51.482,833.134a13.225,13.225,0,0,0-3.98-7.2c-.824-1.475.289-3,.24-4.508.3-2.059-1.713-3.432-3.6-3.312a5.577,5.577,0,0,0-3.358,1.678c-2.267,2.027-4.424,2.376-7.364,2.074-2.868-.192-5.774-.9-8.639-.237-3.466.48-6.206,2.766-8.873,4.856-3.861,3.4-7.756,6.955-10.325,11.477-3.4,5.979-6.009,13.026-5.523,20,.449,4.207,1.3,8.7,4.647,11.61a13.08,13.08,0,0,1,3.245,4.881,27.742,27.742,0,0,1,.482,2.866c.092,1.441.047,3.336,1.558,4.087,1.548.742,3-.566,4.454-.967,3.4-.927,6.028,1.837,9.239,1.959,3.433.14,8.633-3.994,11.289-6.155,5.6-4.454,7.221-7.139,10.248-13.495a51.291,51.291,0,0,0,3.217-8.561,88.454,88.454,0,0,0,2.351-9.572,34.473,34.473,0,0,0,.7-11.483M48.5,849.972c-.842,3-1.7,6-2.784,8.918a78.651,78.651,0,0,1-4.475,8.858c-2.289,3.944-12.619,12.36-17.054,12.916-1.764.168-3.35-.639-4.908-1.342-1.838-.678-3.952-1.182-5.82-.337-.731.336-1.85,1.257-2.688.957-.572-.2-.885-.576-.726-1.883.466-3.711-.616-5.022-2.77-7.3a12.059,12.059,0,0,0-.909-1.2l-.029-.034c-1.277-1.489-2.811-2.774-3.687-4.552a18.151,18.151,0,0,1-1.464-5.436,21.674,21.674,0,0,1,.6-9.4,37.968,37.968,0,0,1,10.72-18.786c2.806-2.872,7.191-6.945,11.053-8.054,3.828-1.247,8.8-.463,11.907.411a6.633,6.633,0,0,0,4.192-.55,12.215,12.215,0,0,0,2.1-1.434c1.121-.932,2.25-2.028,3.841-1.591a1.394,1.394,0,0,1,.854.8,2.457,2.457,0,0,1,.03.841c-.565,2.09-.721,4.425.73,6.161A9.726,9.726,0,0,1,50.641,835c.207,5.07-.936,10.081-2.137,14.975" transform="translate(0.001 -761.232)" fill="#89c34b"/>
      <path id="Path_66838" data-name="Path 66838" d="M836.805,208.042c-1.755-1.19-3.946-1.5-5.626-2.822a24.832,24.832,0,0,1-3.551-3.978,9.763,9.763,0,0,0-3.383-2.391,10.6,10.6,0,0,0-4.833-1.5,28.07,28.07,0,0,1-6.487-1.7c-4.418-1.805-10.249-8.188-11.834-12.673a5.011,5.011,0,0,1-.243-2.512c.268-.513.3.734.218.943-.056.512.269.561.423,1.046,1.434,3.674,7.577,9.954,11.229,11.515a35.912,35.912,0,0,0,6.317,2.1c1.156.227,2.326.415,3.463.727.9.351,1.715.9,2.608,1.272,2.719,1.2,3.384,3.34,5.383,5.255,1.72,2.064,4.537,2.716,6.316,4.711,0,0,0,0,0,0h0" transform="translate(-745.1 -167.811)" fill="#89c34b"/>
      <path id="Path_66839" data-name="Path 66839" d="M896.406,338.58c-3.511-1.165-7.718-2.536-6.726-6.674.276-1.849-1.406-3.237-2.541-4.588-.838-.945-1.827-1.792-2.649-2.737a7.653,7.653,0,0,1,2.058,1.428c7.389,6.2,1.3,6.767,5.517,9.372a23.114,23.114,0,0,1,4.341,3.2" transform="translate(-822.998 -302.015)" fill="#89c34b"/>
      <path id="Path_66840" data-name="Path 66840" d="M969.814,366.264c-.726-.2-1.44-.453-2.174-.621-.627-.127-1.255-.251-1.881-.382-.4-.09-.781-.248-1.178-.345-.43-.108-.864-.193-1.3-.26a7.76,7.76,0,0,0-.791-.093,6.218,6.218,0,0,0-1.863.3c-.616.184-1.171.545-1.783.744a5.8,5.8,0,0,1-3.187-.035,12.528,12.528,0,0,1-2.264-.92c-.649-.335-1.386.1-1.793-.565-.08-.129.87-.214,2.148.247a7.091,7.091,0,0,0,2.92.49,4.836,4.836,0,0,0,1.9-.4,9.544,9.544,0,0,0,1.259-.739,5.522,5.522,0,0,1,2.241-.748,10.32,10.32,0,0,1,2.883.393,12.386,12.386,0,0,1,2.333.872,9.852,9.852,0,0,1,2.534,2.069" transform="translate(-885.437 -337.696)" fill="#89c34b"/>
      <path id="Path_66841" data-name="Path 66841" d="M1131.882,437c-2.732-.876-6.839-2.271-6.125-5.89.378-1.943.6-2.33-.757-3.956-.168-.259-.724-.625-.354-.925.36,0,.591.449.839.673a3.872,3.872,0,0,1,1.124,3.967,2.1,2.1,0,0,0,1.031,2.592c.9.716,1.874,1.335,2.79,2.03a9.948,9.948,0,0,0,1.85,1.393c.481.1-.195.142-.4.115" transform="translate(-1046.341 -396.596)" fill="#89c34b"/>
      <path id="Path_66842" data-name="Path 66842" d="M1200.435,457.908c-1.738-1.189-3.51-3.384-5.846-2.77-.4.051-.829.51-1.185.148-.114-1,1.311-1.364,2.1-1.47,2.327.047,3.756,2.369,4.931,4.092h0" transform="translate(-1110.429 -422.266)" fill="#89c34b"/>
      <path id="Path_66843" data-name="Path 66843" d="M839.339,203.737a16.512,16.512,0,0,0-2.05-2.914,17.8,17.8,0,0,1-1.766-2.642,6.206,6.206,0,0,1-.6-3.08,9.712,9.712,0,0,0-.821-2.818c-1.959-4.429-5.987-9.248-10.44-11.286a25.642,25.642,0,0,0-7.458-1.67c-1.352-.062-2.706-.028-4.058-.039a16.691,16.691,0,0,1-3.556-.8,23.2,23.2,0,0,1-2.955-1.622c-.8-.387-1.684-.537-2.5-.891a16.033,16.033,0,0,1-3.1-1.537,7.225,7.225,0,0,1-1.553-3.068,4.559,4.559,0,0,1-.218-.9c-.023-.169-.04-.34-.056-.51-.005-.049-.032-.1-.085-.1-.1.053-.08.238-.081.341s.005.2.012.3c-.036-.109-.072-.219-.109-.328a19.253,19.253,0,0,0,.452,4.408,25.733,25.733,0,0,0,1.836,3.976c.359.732.649,1.5.962,2.248.348.7.806,1.33,1.141,2.034a10.67,10.67,0,0,1,.549,1.037c.213.6.44,1.2.7,1.788,2.19,5.209,5.759,10.686,11.582,12.086,2.7.5,5.5-.359,8.171.385a73.5,73.5,0,0,1,9.638,3.569c1.972.982,4.15,1.554,5.93,2.895.416.111.526-.558.434-.865m-12.249-6.18c-2-.8-4.023-1.8-6.23-1.717-2.685,0-5.568.928-8.044-.528-4.466-2.194-7.027-6.842-9.092-11.168a65.128,65.128,0,0,1-2.941-7.279,8.845,8.845,0,0,0,.824.456l.067.032c1.183.567,2.463.916,3.685,1.386a15.332,15.332,0,0,0,4.842,2.272c2.2.707,4.539.275,6.807.482,3.923.44,7.982,1.464,10.807,4.39a23.009,23.009,0,0,1,5.526,7.29s0,0,0,.006a3.616,3.616,0,0,1,.055,2.057c-.481,1.321,1.154,3.312,2.481,5.306.362.507.743,1,1.105,1.485-3.312-1.468-6.514-3.152-9.894-4.47" transform="translate(-742.458 -158.051)" fill="#89c34b"/>
    </g>
  </g>
</svg>
