<svg xmlns="http://www.w3.org/2000/svg" width="45.898" height="45.898" viewBox="0 0 45.898 45.898">
  <path id="accessibility-svgrepo-com" d="M24.949,47.9A22.949,22.949,0,1,0,2,24.949,22.949,22.949,0,0,0,24.949,47.9Zm0-29.834a4.59,4.59,0,1,0-4.59-4.59A4.59,4.59,0,0,0,24.95,18.064Zm-13.1.71a1.721,1.721,0,0,0-1.344,3.169h0l.006,0,.021.009.076.031.282.115c.243.1.593.237,1.03.4.873.332,2.1.774,3.5,1.216a39.424,39.424,0,0,0,7.8,1.716v2.844a5.161,5.161,0,0,1-.82,2.792l-5.791,9.009a1.721,1.721,0,0,0,2.9,1.862l5.437-8.457,5.437,8.457a1.721,1.721,0,0,0,2.9-1.862l-5.791-9.009a5.163,5.163,0,0,1-.82-2.792V25.438a39.425,39.425,0,0,0,7.8-1.716c1.407-.442,2.631-.884,3.5-1.216.437-.166.787-.3,1.03-.4l.282-.115.076-.031.021-.009.006,0h0a1.721,1.721,0,1,0-1.343-3.169l-.017.007-.062.026-.253.1c-.223.09-.551.22-.964.377-.826.314-1.985.732-3.314,1.15a31.044,31.044,0,0,1-8.488,1.642,31.042,31.042,0,0,1-8.488-1.642c-1.329-.418-2.488-.837-3.314-1.15-.412-.157-.74-.287-.964-.377l-.253-.1-.062-.026-.014-.006Z" transform="translate(-2 -2)" fill="#fff" fill-rule="evenodd"/>
</svg>
