<svg xmlns="http://www.w3.org/2000/svg" width="36.2" height="25.4" viewBox="0 0 36.2 25.4">
  <path id="Path_6924" data-name="Path 6924" d="M16.8-59.6a6.988,6.988,0,0,1,3.3,6.15,8.344,8.344,0,0,1-2.35,6.25,8.094,8.094,0,0,1-5.9,2.3,8.3,8.3,0,0,1-5.9-2.2A7.453,7.453,0,0,1,3.6-52.8a12.58,12.58,0,0,1,2.2-6.9l7.3-10.6h8.2Zm18.5,0a6.988,6.988,0,0,1,3.3,6.15,8.344,8.344,0,0,1-2.35,6.25,8.094,8.094,0,0,1-5.9,2.3,8.3,8.3,0,0,1-5.9-2.2,7.453,7.453,0,0,1-2.35-5.7,12.58,12.58,0,0,1,2.2-6.9l7.3-10.6h8.2Z" transform="translate(-3.6 70.3)" fill="#fff"/>
</svg>
