<svg xmlns="http://www.w3.org/2000/svg" width="14.891" height="14.891" viewBox="0 0 14.891 14.891">
  <g id="Icon_ionic-ios-arrow-dropdown" data-name="Icon ionic-ios-arrow-dropdown" transform="translate(-3.375 -3.375)">
    <path id="Path_928" data-name="Path 928" d="M10.184,14.618a.694.694,0,0,0,0,.977L13.61,19.01a.69.69,0,0,0,.952.021l3.375-3.365a.69.69,0,1,0-.974-.977l-2.9,2.856-2.9-2.932A.69.69,0,0,0,10.184,14.618Z" transform="translate(-3.244 -5.419)"/>
    <path id="Path_929" data-name="Path 929" d="M3.375,10.82A7.445,7.445,0,1,0,10.82,3.375,7.444,7.444,0,0,0,3.375,10.82Zm11.9-4.453a6.3,6.3,0,1,1-8.906,8.906,6.3,6.3,0,1,1,8.906-8.906Z"/>
  </g>
</svg>
