<svg xmlns="http://www.w3.org/2000/svg" xmlns:xlink="http://www.w3.org/1999/xlink" width="64" height="71" viewBox="0 0 64 71">
  <defs>
    <clipPath id="clip-path">
      <rect id="Rectangle_8186" data-name="Rectangle 8186" width="64" height="71" transform="translate(4595 228)" fill="#fff"/>
    </clipPath>
    <clipPath id="clip-path-2">
      <rect id="Rectangle_8184" data-name="Rectangle 8184" width="64" height="37.036" fill="none"/>
    </clipPath>
  </defs>
  <g id="Mask_Group_29" data-name="Mask Group 29" transform="translate(-4595 -228)" clip-path="url(#clip-path)">
    <g id="Group_19508" data-name="Group 19508" transform="translate(4595 262)">
      <g id="Group_19506" data-name="Group 19506" clip-path="url(#clip-path-2)">
        <path id="Path_7123" data-name="Path 7123" d="M54.622,24.04c-.509-2.026-.339-6.134-2.783-6.817-13-.34-26.064-.073-39.086-.135-3.235.393-2.565,4.628-3.492,6.89C5.791,24,.877,25.063.152,20.413.5,14.991-.317,8.979.146,3.627A4.069,4.069,0,0,1,3.493.005L60.387,0A4.085,4.085,0,0,1,63.85,3.364c-.28,5.455.426,11.371.022,16.772-.374,5-5.748,3.784-9.249,3.9M6.937,5.725C5.747,5.991,5.9,7.7,7.224,7.937a23.455,23.455,0,0,0,4.342,0,1.144,1.144,0,0,0,.287-2.211,33.18,33.18,0,0,0-4.917,0" transform="translate(0)" fill="#fff"/>
        <path id="Path_7124" data-name="Path 7124" d="M102.1,106.518H61.426l.99-4.628,38.478-.067c.319.012.306.238.4.456.482,1.151.5,2.992.81,4.239" transform="translate(-49.755 -82.477)" fill="#fff"/>
        <path id="Path_7125" data-name="Path 7125" d="M163.068,145.257c.874-.181,1.37.541,1.46,1.327a44.666,44.666,0,0,1-.012,6.814c-.234,1.737-2.213,1.655-2.409.016-.261-2.18.194-4.869.011-7.106a1.418,1.418,0,0,1,.95-1.05" transform="translate(-131.24 -117.636)" fill="#fff"/>
        <path id="Path_7126" data-name="Path 7126" d="M235.745,151.187c-1,.919-1.69.014-2.113-.855-.741-1.523-2.016-5.957-1.652-7.532.181-.784,1.375-.9,1.9-.392.359.35.653,3.2.846,3.989.169.693.415,1.386.638,2.064.272.827,1.185,1.993.384,2.725" transform="translate(-187.853 -115.103)" fill="#fff"/>
        <path id="Path_7127" data-name="Path 7127" d="M83.514,151.192c-.8-.8.09-1.842.379-2.72a28.3,28.3,0,0,0,1.266-5.7c.312-.862,1.9-.9,2.114.042.3,1.29-.587,4.67-1.042,6.008-.332.978-1.262,3.83-2.717,2.373" transform="translate(-67.384 -115.112)" fill="#fff"/>
        <path id="Path_7128" data-name="Path 7128" d="M196.327,145.281a1.227,1.227,0,0,1,1.407.966c.059.321-.1.536-.074.771a28.292,28.292,0,0,0,1.7,6.418,1.148,1.148,0,0,1-2.173.6c-.8-1.326-2.018-6.072-1.806-7.555a1.367,1.367,0,0,1,.944-1.2" transform="translate(-158.241 -117.66)" fill="#fff"/>
        <path id="Path_7129" data-name="Path 7129" d="M123.013,145.222c2.444-.5,1.082,4.418.787,5.488-.2.707-1.048,3.547-1.6,3.8a1.2,1.2,0,0,1-1.7-1.264,24.943,24.943,0,0,0,1.688-6.287c.026-.234-.132-.45-.074-.771a1.347,1.347,0,0,1,.9-.966" transform="translate(-97.584 -117.601)" fill="#fff"/>
      </g>
    </g>
  </g>
</svg>
