<svg xmlns="http://www.w3.org/2000/svg" width="15.5" height="15.5" viewBox="0 0 15.5 15.5">
  <g id="instagram-svgrepo-com" transform="translate(-4.75 -4.25)">
    <path id="Path_6857" data-name="Path 6857" d="M15.5,5h-6a4,4,0,0,0-4,4v6a4,4,0,0,0,4,4h6a4,4,0,0,0,4-4V9A4,4,0,0,0,15.5,5Z" fill="none" stroke="#fff" stroke-linecap="round" stroke-linejoin="round" stroke-width="1.5" fill-rule="evenodd"/>
    <path id="Path_6858" data-name="Path 6858" d="M12.5,15a3,3,0,1,1,2.121-.879A3,3,0,0,1,12.5,15Z" fill="none" stroke="#fff" stroke-linecap="round" stroke-linejoin="round" stroke-width="1.5" fill-rule="evenodd"/>
    <rect id="Rectangle_451" data-name="Rectangle 451" width="2" height="2" rx="1" transform="translate(15.5 9) rotate(-90)"/>
    <rect id="Rectangle_452" data-name="Rectangle 452" width="1" height="1" rx="0.5" transform="translate(16 8.5) rotate(-90)" fill="none" stroke="#fff" stroke-linecap="round" stroke-width="1"/>
  </g>
</svg>
