<svg id="Page-1" xmlns="http://www.w3.org/2000/svg" width="14" height="14" viewBox="0 0 14 14">
  <g id="Dribbble-Light-Preview">
    <g id="icons">
      <path id="linkedin-_161_" data-name="linkedin-[#161]" d="M138,7333h-2.8v-4.9c0-1.344-.593-2.094-1.656-2.094-1.157,0-1.844.781-1.844,2.094v4.9h-2.8v-9.1h2.8v1.023a3.375,3.375,0,0,1,2.858-1.542c1.98,0,3.442,1.208,3.442,3.709V7333Zm-12.291-10.556a1.722,1.722,0,1,1,1.709-1.722,1.716,1.716,0,0,1-1.709,1.722ZM124,7333h3.5v-9.1H124Z" transform="translate(-124 -7319)" fill-rule="evenodd" fill="#fff"/>
    </g>
  </g>
</svg>
