<svg xmlns="http://www.w3.org/2000/svg" width="34" height="19.833" viewBox="0 0 34 19.833">
  <g id="Icon_ionic-ios-menu" data-name="Icon ionic-ios-menu" transform="translate(-4.5 -10.125)">
    <path id="Path_923" data-name="Path 923" d="M37.083,12.94H5.917A1.416,1.416,0,0,1,4.5,11.532h0a1.416,1.416,0,0,1,1.417-1.407H37.083A1.416,1.416,0,0,1,38.5,11.532h0A1.416,1.416,0,0,1,37.083,12.94Z" transform="translate(0)"/>
    <path id="Path_924" data-name="Path 924" d="M37.083,19.69H5.917A1.416,1.416,0,0,1,4.5,18.282h0a1.416,1.416,0,0,1,1.417-1.407H37.083A1.416,1.416,0,0,1,38.5,18.282h0A1.416,1.416,0,0,1,37.083,19.69Z" transform="translate(0 1.759)"/>
    <path id="Path_925" data-name="Path 925" d="M37.083,26.44H5.917A1.416,1.416,0,0,1,4.5,25.032h0a1.416,1.416,0,0,1,1.417-1.407H37.083A1.416,1.416,0,0,1,38.5,25.032h0A1.416,1.416,0,0,1,37.083,26.44Z" transform="translate(0 3.518)"/>
  </g>
</svg>
