<svg xmlns="http://www.w3.org/2000/svg" xmlns:xlink="http://www.w3.org/1999/xlink" width="64" height="71" viewBox="0 0 64 71">
  <defs>
    <clipPath id="clip-path">
      <rect id="Rectangle_8186" data-name="Rectangle 8186" width="64" height="71" transform="translate(4498 237)" fill="#fff"/>
    </clipPath>
    <clipPath id="clip-path-2">
      <path id="Path_3074" data-name="Path 3074" d="M39.984-49.55v0a.8.8,0,0,1-1.117-.02h0l-1.534-1.576H33.822l-1.5,1.489-.037.035h0a.8.8,0,0,1-1.124-.038h0L29.786-51.14l-4.272.018-1.551,1.516h0a.792.792,0,0,1-1.107,0h0l-1.5-1.5H17.557L16.03-49.433l-.061.061a.8.8,0,0,1-1.12-.061h0l-1.534-1.684H9v5.82H45.094V-51.14H41.88ZM9.063-43.717c.527,6.615.7,12.9.638,18.889h0c-.045,5.854-.3,11.392-.638,16.67h28.99A18.194,18.194,0,0,1,36.729-15h0v-1.888a.792.792,0,0,1,.231-.559.792.792,0,0,1,.559-.233h4.335l-3.1-2.415a1.7,1.7,0,0,1-.638-1.57h0l.007-.035v0a1.642,1.642,0,0,1,.333-.777h0A1.676,1.676,0,0,1,39.157-23h0l5.31-2.172q.022-4.638.175-9.354h0q.145-4.574.4-9.192h0Zm16.464,7.751a1.8,1.8,0,0,1,.3-.844h0a1.755,1.755,0,0,1,.682-.575h0a1.72,1.72,0,0,1,.878-.168h0a1.718,1.718,0,0,1,.841.307h0l9.364,6.454a1.686,1.686,0,0,1,.586.677h0a1.781,1.781,0,0,1,.16.878h0a1.825,1.825,0,0,1-.3.844h0a1.76,1.76,0,0,1-.682.573h0l-5.642,2.693L30.5-16.332h0a1.676,1.676,0,0,1-1.046,1.343h0a1.663,1.663,0,0,1-.871.11h0a1.671,1.671,0,0,1-.809-.35h0L19.07-21.994a1.743,1.743,0,0,1-.534-.7h0a1.643,1.643,0,0,1-.1-.874h0a1.705,1.705,0,0,1,.334-.812h0a1.853,1.853,0,0,1,.334-.319h0l-3.181-6.457a1.63,1.63,0,0,1,.11-1.658h0a1.649,1.649,0,0,1,.638-.569h0a1.607,1.607,0,0,1,.838-.16h0l7.784.5Zm32.228-2.929.287.735.3.8,1.476-.572-.591-1.524Zm-6.024,2.129.785.045.852.045.087-1.579-1.639-.087Zm-24.538.819a.1.1,0,0,0-.06.045h0a.128.128,0,0,0-.022.068h0l-.645,8.089,3.227-1.314a1.656,1.656,0,0,1,.867-.11h0a1.708,1.708,0,0,1,1.347,1.037h0a1.676,1.676,0,0,1,.1.874h0l-.035.253,4.708-2.234a.126.126,0,0,0,.058-.049h0a.109.109,0,0,0,.016-.067h0a.125.125,0,0,0-.007-.075h0a.188.188,0,0,0-.052-.053h0l-9.364-6.456a.132.132,0,0,0-.068-.03h0a.141.141,0,0,0-.073.019m37.492,1.1.559.563.6.6L66.961-34.8,65.8-35.963Zm-15.2.071.8,1.363.682-.394.735-.431-.8-1.369Zm9.1.6.559.563.6.6,1.127-1.114-1.162-1.165ZM17.379-31.952c-.006.007-.022.013-.028.028h0a.042.042,0,0,0-.016.034h0a.214.214,0,0,0,.012.041h0l3.205,6.515,4.27-1.745.35-4.373-7.756-.505c-.016,0-.035,0-.039.007m31.041,1.6a.289.289,0,0,0-.088.087h0a.185.185,0,0,0-.038.117h0a.253.253,0,0,0,.022.128h0l1.369,2.762a1.563,1.563,0,0,1,.573-.018h0a1.7,1.7,0,0,1,1.124.658h0a1.676,1.676,0,0,1,.319,1.256h0l-.006.032-.141,1.016.553-.926h0a1.655,1.655,0,0,1,1.475-.822h0a1.676,1.676,0,0,1,.851.239h0a1.706,1.706,0,0,1,.613.631h0l.511.92.217-2.684a1.669,1.669,0,0,1,.3-.841h0a1.681,1.681,0,0,1,.681-.576h0a1.686,1.686,0,0,1,1.716.14h0l1.516,1.045,1.321-1.981a.239.239,0,0,0,.045-.117h0a.3.3,0,0,0-.03-.126h0a.212.212,0,0,0-.2-.132h0l-12.58-.822a.337.337,0,0,0-.126.023m18.93,2.132a.1.1,0,0,0-.045.057h0l-2.593,4.229,3.12,2.148a1.728,1.728,0,0,1,.58.677h0a1.735,1.735,0,0,1-.14,1.724h0a1.67,1.67,0,0,1-.682.573h0l-1.436.683,6.7.175h0a.124.124,0,0,0,.073-.016h0a.148.148,0,0,0,.053-.052h0A.153.153,0,0,0,73-18.089h0a.191.191,0,0,0-.016-.073h0l-5.439-10a.16.16,0,0,0-.045-.058h0a.188.188,0,0,0-.075-.016h0a.264.264,0,0,0-.075.013m-37.059.631L25.9-25.8l-.045.016L20.076-23.43a.087.087,0,0,0-.053.028h0a.1.1,0,0,0-.019.056h0a.068.068,0,0,0,.007.057h0a.1.1,0,0,0,.035.045h0l8.711,6.767a.093.093,0,0,0,.056.028h0a.115.115,0,0,0,.057-.013h0a.1.1,0,0,0,.045-.033h0a.08.08,0,0,0,.023-.052h0v0l1.268-9.2h0a.2.2,0,0,1,.006-.058h0l.231-1.676a.085.085,0,0,0-.006-.061h0a.185.185,0,0,0-.034-.049h0a.16.16,0,0,0-.057-.022h-.009a.115.115,0,0,0-.049.014m19.391.33h0m7.74.307a.167.167,0,0,0-.057.045h0a.221.221,0,0,0-.019.068h0l-.405,5.052,2.291,4.1h2.305l5.376-2.553h0a.16.16,0,0,0,.054-.045h0a.2.2,0,0,0,.02-.068h0a.212.212,0,0,0-.014-.08h0a.1.1,0,0,0-.045-.049h0l-3.71-2.564a.221.221,0,0,1-.053-.028h0l-5.6-3.862a.136.136,0,0,0-.065-.03h0a.215.215,0,0,0-.08.016M49.968-25.7,39.752-21.54a.08.08,0,0,0-.045.035h0a.048.048,0,0,0-.019.038h0l-.007.014h0a.176.176,0,0,0,0,.061h0a.08.08,0,0,0,.042.039h0l4.715,3.663,3.152,0,1.878-3.15.378-2.765h0a.116.116,0,0,0,.007-.049h0l.262-1.915.006-.023a.125.125,0,0,0-.006-.061h0a.074.074,0,0,0-.042-.041h0a.062.062,0,0,0-.048-.03h-.013a.085.085,0,0,0-.045.013m3.521,1.223a.116.116,0,0,0-.039.045h0L51.941-21.9l-.035.053-.987,1.657c-.007.013-.016.028-.023.042h0l-1.46,2.463h7.98l-1.952-3.5h0a.9.9,0,0,1-.052-.1h0l-1.764-3.15a.1.1,0,0,0-.039-.045h0a.16.16,0,0,0-.052-.013h0a.246.246,0,0,0-.065.013M38.314-16.1V-15q0,.611.038,1.207h0l33.754.016q.045-.6.045-1.22h0v-1.1Zm.231,3.892a16.886,16.886,0,0,0,1.416,4.457h0v0a.9.9,0,0,1,.038.1h0c.185.368.379.734.587,1.091h0A17.021,17.021,0,0,0,46.641-.449h17.2a17.061,17.061,0,0,0,6.048-6.116h0A16.713,16.713,0,0,0,71.922-12.2h0l-33.373-.013ZM9-6.571v5.3l3.968,0L14.893-2.95a.792.792,0,0,1,1.1.016h0l1.658,1.657h3.586L22.858-2.9a.772.772,0,0,1,.563-.223h0a.784.784,0,0,1,.559.239h0L25.549-1.27h4.129l1.44-1.569,0,0a.58.58,0,0,1,.141-.14h0a.8.8,0,0,1,.587-.16h0a.8.8,0,0,1,.525.306h0l1.191,1.563h4.054l1.166-1.676h0a.711.711,0,0,1,.172-.172h0a.8.8,0,0,1,.586-.16h0a.781.781,0,0,1,.525.307h0l1.308,1.7h1.488a18.716,18.716,0,0,1-3.654-4.5h0c-.15-.262-.3-.527-.436-.8h0v-.008Z" transform="translate(-9 51.142)" fill="#fff"/>
    </clipPath>
  </defs>
  <g id="Mask_Group_29" data-name="Mask Group 29" transform="translate(-4498 -237)" clip-path="url(#clip-path)">
    <g id="Group_2572" data-name="Group 2572" transform="translate(4489 308.449)">
      <g id="Group_2381" data-name="Group 2381" transform="translate(9 -51.142)" clip-path="url(#clip-path-2)">
        <g id="Group_2380" data-name="Group 2380" transform="translate(-9.099 51.707) rotate(-90)">
          <path id="Path_3073" data-name="Path 3073" d="M59.8,0V82.2H0V0Z" fill="#fff"/>
        </g>
      </g>
    </g>
  </g>
</svg>
