<svg xmlns="http://www.w3.org/2000/svg" xmlns:xlink="http://www.w3.org/1999/xlink" width="64" height="71" viewBox="0 0 64 71">
  <defs>
    <clipPath id="clip-path">
      <rect id="Rectangle_8186" data-name="Rectangle 8186" width="64" height="71" fill="#fff"/>
    </clipPath>
    <clipPath id="clip-path-2">
      <path id="Path_6861" data-name="Path 6861" d="M41.364,26.476a1.891,1.891,0,1,0-.207,3.777,9.984,9.984,0,0,0,1.783.034c.731-.048.992.195.983.93-.038,2.829-.017,5.658-.011,8.486a3.274,3.274,0,0,1-.2,1.128c-1.86,5.185-3.7,10.381-5.581,15.558a1.376,1.376,0,0,0,.519,1.829,8.887,8.887,0,0,0,11.768-.582c.218-.216.442-.427.658-.647A8.08,8.08,0,0,1,56.1,54.465c.7-.071.75-.319.548-.908-1.5-4.348-2.969-8.705-4.459-13.059a3.34,3.34,0,0,1-.227-1.116q.023-3.624.031-7.25c0-1.79,0-1.79,1.808-1.838,1.392-.033,2.276-.787,2.273-1.935,0-1.166-.856-1.886-2.28-1.891-2.014-.01-4.031,0-6.043,0h-3.71q-1.338,0-2.673.012" transform="translate(-37.968 -26.462)" fill="#fff"/>
    </clipPath>
    <clipPath id="clip-path-3">
      <path id="Path_6862" data-name="Path 6862" d="M51.745,65.707A2.667,2.667,0,0,1,54.5,63.064a2.711,2.711,0,0,1,2.776,2.729,2.771,2.771,0,0,1-5.528-.088M41.366,58.67a2.776,2.776,0,0,1,2.8-2.633,2.711,2.711,0,0,1,2.717,2.709,2.774,2.774,0,0,1-2.749,2.643h-.043a2.8,2.8,0,0,1-2.727-2.719m11.688-3.907a2.583,2.583,0,0,1,2.71-2.58,2.609,2.609,0,0,1,2.742,2.643,2.652,2.652,0,0,1-2.741,2.629h-.022a2.614,2.614,0,0,1-2.69-2.692m2.7-7.143c-.131.049-.259.112-.391.162a9.7,9.7,0,0,0-3.311,2.532,7.686,7.686,0,0,1-4.373,2.526,11.2,11.2,0,0,1-8.692-1.947c-.548-.406-.762-.353-.983.3-.719,2.108-1.465,4.217-2.279,6.292-.284.73-.1,1.078.558,1.435,3.337,1.817,6.649,3.679,9.981,5.505,3.214,1.764,3.945,5.1,1.731,7.979-.124.162-.409.306-.263.546.127.211.412.144.631.144,1.845.006,3.688,0,5.9,0,.64-.021,1.335-.006,2.062.01a28.992,28.992,0,0,0,3.78-.094,5.309,5.309,0,0,0,4.558-6.986q-2.9-8.476-5.783-16.965c-.453-1.334-.739-1.865-1.463-1.865a5.553,5.553,0,0,0-1.663.425" transform="translate(-35.596 -47.193)" fill="#fff"/>
    </clipPath>
    <clipPath id="clip-path-4">
      <path id="Path_6863" data-name="Path 6863" d="M33.368,34.67a5.664,5.664,0,1,0,0,11.322A5.663,5.663,0,1,0,33.41,34.67h-.042" transform="translate(-27.514 -34.668)" fill="#fff"/>
    </clipPath>
    <clipPath id="clip-path-5">
      <path id="Path_6864" data-name="Path 6864" d="M24.706,59.957a3.375,3.375,0,0,0-3.424,3.4c-.007.329,0,.658,0,.988a3.369,3.369,0,0,0,3.6,3.641c1.387.043,2.776.037,4.163.031.8,0,1.592-.009,2.388,0,.577,0,.813-.223.8-.787-.025-1.1-.007-2.2-.007-3.3,0-1.071-.014-2.142.007-3.213.012-.561-.218-.785-.806-.779-.9.007-1.795,0-2.689,0H27.262c-.853,0-1.707,0-2.559.022" transform="translate(-21.278 -59.938)" fill="#fff"/>
    </clipPath>
    <clipPath id="clip-path-6">
      <path id="Path_6865" data-name="Path 6865" d="M30.7,59.932c-.568,0-.794.214-.779.774.025,1.1.007,2.2.009,3.3s.014,2.2-.006,3.293c-.009.489.2.709.7.706.654,0,1.307,0,1.963,0,1.443.007,2.888.012,4.33-.058a3.287,3.287,0,0,0,3.212-3.07,8.862,8.862,0,0,0,.006-1.807,3.425,3.425,0,0,0-3.456-3.119c-1.111-.021-2.221-.017-3.331-.012-.875,0-1.75,0-2.622,0H30.7" transform="translate(-29.923 -59.93)" fill="#fff"/>
    </clipPath>
    <clipPath id="clip-path-7">
      <path id="Path_6866" data-name="Path 6866" d="M39.532,58.718c-.508.915-1.05,1.817-1.578,2.725a.819.819,0,0,0-.115.776,6.759,6.759,0,0,1,.361,2.675c-.028.354-.031.714-.092,1.062a.636.636,0,0,0,.38.744c.966.517,1.9,1.093,2.9,1.541a4.139,4.139,0,0,0,5.282-1.666,3.879,3.879,0,0,0-1.39-5.337c-1.588-.951-3.235-1.807-4.851-2.716a.94.94,0,0,0-.438-.148c-.174,0-.322.1-.459.346" transform="translate(-37.79 -58.375)" fill="#fff"/>
    </clipPath>
    <clipPath id="clip-path-8">
      <path id="Path_6867" data-name="Path 6867" d="M31.253,56.195A3.787,3.787,0,0,0,29.972,60a.793.793,0,0,0,.921.744c1.019-.025,2.04-.007,3.06-.007v.006c.907,0,1.814.007,2.72,0a5.63,5.63,0,0,1,2.131.5c.466.182.783.84,1.284.646.48-.186.6-.828.872-1.275,1-1.632,1.01-1.666-.693-2.591A44.649,44.649,0,0,0,35.355,55.4a3.855,3.855,0,0,0-1.422-.283,4.188,4.188,0,0,0-2.681,1.073" transform="translate(-29.869 -55.122)" fill="#fff"/>
    </clipPath>
    <clipPath id="clip-path-9">
      <path id="Path_6868" data-name="Path 6868" d="M18.719,47.472a3.7,3.7,0,0,0,7.406.029,3.7,3.7,0,0,0-3.7-3.564,3.649,3.649,0,0,0-3.71,3.535" transform="translate(-18.718 -43.937)" fill="#fff"/>
    </clipPath>
    <clipPath id="clip-path-10">
      <path id="Path_6869" data-name="Path 6869" d="M28.441,24.518a3.371,3.371,0,1,0,3.489,3.371,3.513,3.513,0,0,0-3.473-3.371h-.017" transform="translate(-24.961 -24.518)" fill="#fff"/>
    </clipPath>
    <clipPath id="clip-path-11">
      <path id="Path_6870" data-name="Path 6870" d="M33.928,15a2.994,2.994,0,0,0-3,2.956,2.954,2.954,0,0,0,3,2.862,2.924,2.924,0,0,0,2.994-2.941A2.962,2.962,0,0,0,33.936,15h-.009" transform="translate(-30.928 -15)" fill="#fff"/>
    </clipPath>
    <clipPath id="clip-path-12">
      <path id="Path_6871" data-name="Path 6871" d="M20.006,23.32A2.919,2.919,0,1,0,23,26.244a2.946,2.946,0,0,0-2.938-2.924h-.055" transform="translate(-17.076 -23.32)" fill="#fff"/>
    </clipPath>
    <clipPath id="clip-path-13">
      <path id="Path_6872" data-name="Path 6872" d="M26.138,51.9a2.948,2.948,0,0,0-3.008,2.853A3.021,3.021,0,0,0,26.242,57.7a2.977,2.977,0,0,0,2.9-2.967A2.889,2.889,0,0,0,26.154,51.9h-.016" transform="translate(-23.13 -51.897)" fill="#fff"/>
    </clipPath>
    <clipPath id="clip-path-14">
      <path id="Path_6873" data-name="Path 6873" d="M31.913,19.661c-1.078,1.674-2.17,3.344-3.233,5.031-.175.278-.629.646,0,.939.5.233.953.424,1.358-.242.992-1.633,2.046-3.225,3.078-4.833.1-.164.192-.335.285-.5-.07-.434-.462-.536-.762-.714a.518.518,0,0,0-.262-.086c-.213,0-.333.206-.461.406" transform="translate(-28.356 -19.255)" fill="#fff"/>
    </clipPath>
    <clipPath id="clip-path-15">
      <path id="Path_6874" data-name="Path 6874" d="M28.054,41.3c-1.3,1.064-2.569,2.156-3.876,3.209-.434.35-.434.615-.062,1.005.326.342.558.558,1.026.15,1.24-1.082,2.528-2.116,3.793-3.173.19-.158.409-.306.412-.608a1.658,1.658,0,0,0-.584-.868.361.361,0,0,0-.2-.069c-.207,0-.355.231-.508.357" transform="translate(-23.845 -40.944)" fill="#fff"/>
    </clipPath>
    <clipPath id="clip-path-16">
      <path id="Path_6875" data-name="Path 6875" d="M29.219,29.777c-.662-.014-1.1.4-.926.918.54,1.617,1.116,3.225,1.663,4.837.175.517.515.385.881.259s.734-.207.553-.722c-.572-1.637-1.135-3.277-1.7-4.912-.067-.2-.154-.386-.4-.386a.558.558,0,0,0-.067,0" transform="translate(-28.253 -29.771)" fill="#fff"/>
    </clipPath>
    <clipPath id="clip-path-17">
      <path id="Path_6876" data-name="Path 6876" d="M22.666,50.651c.248.424.5.85.763,1.268a.868.868,0,0,0,1.478.04c.231-.323-.016-.591-.186-.812-.446-.589-.595-1.4-1.209-1.758-.967.048-1.256.571-.848,1.261" transform="translate(-22.484 -49.39)" fill="#fff"/>
    </clipPath>
    <clipPath id="clip-path-18">
      <path id="Path_6877" data-name="Path 6877" d="M22.119,26.017c-.08.319-.207.669.287.793.711.176,1.426.344,2.133.515.429.04.574-.2.6-.542.027-.322.3-.744-.255-.886-.709-.179-1.426-.322-2.146-.47a.749.749,0,0,0-.151-.016c-.357,0-.4.323-.472.606" transform="translate(-22.043 -25.411)" fill="#fff"/>
    </clipPath>
    <clipPath id="clip-path-19">
      <path id="Path_6878" data-name="Path 6878" d="M37.259,65.635c-.15.2.049.31.227.31a3.783,3.783,0,0,0,1.8-.143,2.82,2.82,0,0,0-1.158-.74.6.6,0,0,0-.236-.052c-.342,0-.459.388-.637.624" transform="translate(-37.206 -65.011)" fill="#fff"/>
    </clipPath>
    <clipPath id="clip-path-20">
      <path id="Path_6879" data-name="Path 6879" d="M42.151,54.338a1.584,1.584,0,0,0-1.573,1.523,1.563,1.563,0,0,0,3.123.021,1.543,1.543,0,0,0-1.544-1.544h-.006" transform="translate(-40.578 -54.338)" fill="#fff"/>
    </clipPath>
    <clipPath id="clip-path-21">
      <path id="Path_6880" data-name="Path 6880" d="M47.975,60.838a1.589,1.589,0,0,0,1.566,1.52A1.521,1.521,0,0,0,51.1,60.853a1.5,1.5,0,0,0-1.544-1.512,1.563,1.563,0,0,0-1.579,1.5" transform="translate(-47.974 -59.34)" fill="#fff"/>
    </clipPath>
    <clipPath id="clip-path-22">
      <path id="Path_6881" data-name="Path 6881" d="M48.9,53.033a1.55,1.55,0,0,0,1.537,1.55,1.567,1.567,0,0,0,1.578-1.519A1.535,1.535,0,0,0,50.5,51.576h-.062a1.476,1.476,0,0,0-1.544,1.46" transform="translate(-48.897 -51.574)" fill="#fff"/>
    </clipPath>
  </defs>
  <g id="Mask_Group_29" data-name="Mask Group 29" clip-path="url(#clip-path)">
    <g id="Group_422" data-name="Group 422" transform="translate(-1054.45 -1084.563)">
      <g id="Group_381" data-name="Group 381" transform="translate(1083.764 1100.61)">
        <g id="Group_380" data-name="Group 380" transform="translate(0 0)" clip-path="url(#clip-path-2)">
          <rect id="Rectangle_556" data-name="Rectangle 556" width="39.157" height="35.605" transform="matrix(0.584, -0.812, 0.812, 0.584, -16.512, 22.786)" fill="#fff"/>
        </g>
      </g>
      <g id="Group_383" data-name="Group 383" transform="translate(1080.439 1129.629)">
        <g id="Group_382" data-name="Group 382" transform="translate(0 0)" clip-path="url(#clip-path-3)">
          <rect id="Rectangle_557" data-name="Rectangle 557" width="38.784" height="39.781" transform="translate(-12.457 17.126) rotate(-54.276)" fill="#fff"/>
        </g>
      </g>
      <g id="Group_385" data-name="Group 385" transform="translate(1069.12 1112.097)">
        <g id="Group_384" data-name="Group 384" transform="translate(0 0)" clip-path="url(#clip-path-4)">
          <rect id="Rectangle_558" data-name="Rectangle 558" width="16.03" height="16.115" transform="translate(-5.379 7.474) rotate(-54.276)" fill="#fff"/>
        </g>
      </g>
      <g id="Group_387" data-name="Group 387" transform="translate(1060.392 1147.463)">
        <g id="Group_386" data-name="Group 386" transform="translate(0 0)" clip-path="url(#clip-path-5)">
          <rect id="Rectangle_559" data-name="Rectangle 559" width="12.975" height="13.632" transform="translate(-3.839 5.331) rotate(-54.276)" fill="#fff"/>
        </g>
      </g>
      <g id="Group_389" data-name="Group 389" transform="translate(1072.492 1147.459)">
        <g id="Group_388" data-name="Group 388" transform="translate(0 0)" clip-path="url(#clip-path-6)">
          <rect id="Rectangle_560" data-name="Rectangle 560" width="12.566" height="13.068" transform="matrix(0.584, -0.812, 0.812, 0.584, -3.845, 5.33)" fill="#fff"/>
        </g>
      </g>
      <g id="Group_391" data-name="Group 391" transform="translate(1083.5 1145.276)">
        <g id="Group_390" data-name="Group 390" transform="translate(0 0)" clip-path="url(#clip-path-7)">
          <rect id="Rectangle_561" data-name="Rectangle 561" width="14.578" height="14.414" transform="matrix(0.584, -0.812, 0.812, 0.584, -5.161, 7.085)" fill="#fff"/>
        </g>
      </g>
      <g id="Group_393" data-name="Group 393" transform="translate(1072.451 1140.723)">
        <g id="Group_392" data-name="Group 392" transform="translate(0 0)" clip-path="url(#clip-path-8)">
          <rect id="Rectangle_562" data-name="Rectangle 562" width="12.789" height="13.997" transform="translate(-3.434 4.584) rotate(-54.276)" fill="#fff"/>
        </g>
      </g>
      <g id="Group_395" data-name="Group 395" transform="translate(1056.809 1125.071)">
        <g id="Group_394" data-name="Group 394" transform="translate(0 0)" clip-path="url(#clip-path-9)">
          <rect id="Rectangle_563" data-name="Rectangle 563" width="10.159" height="10.226" transform="matrix(0.584, -0.812, 0.812, 0.584, -3.416, 4.718)" fill="#fff"/>
        </g>
      </g>
      <g id="Group_397" data-name="Group 397" transform="translate(1065.547 1097.887)">
        <g id="Group_396" data-name="Group 396" transform="translate(0 0)" clip-path="url(#clip-path-10)">
          <rect id="Rectangle_564" data-name="Rectangle 564" width="9.596" height="9.643" transform="matrix(0.584, -0.812, 0.812, 0.584, -3.242, 4.477)" fill="#fff"/>
        </g>
      </g>
      <g id="Group_399" data-name="Group 399" transform="translate(1073.898 1084.563)">
        <g id="Group_398" data-name="Group 398" transform="translate(0 0)" clip-path="url(#clip-path-11)">
          <rect id="Rectangle_565" data-name="Rectangle 565" width="8.253" height="8.302" transform="matrix(0.584, -0.812, 0.812, 0.584, -2.78, 3.839)" fill="#fff"/>
        </g>
      </g>
      <g id="Group_401" data-name="Group 401" transform="translate(1054.45 1096.21)">
        <g id="Group_400" data-name="Group 400" transform="translate(0 0)" clip-path="url(#clip-path-12)">
          <rect id="Rectangle_566" data-name="Rectangle 566" width="8.238" height="8.268" transform="matrix(0.584, -0.812, 0.812, 0.584, -2.827, 3.857)" fill="#fff"/>
        </g>
      </g>
      <g id="Group_403" data-name="Group 403" transform="translate(1062.984 1136.214)">
        <g id="Group_402" data-name="Group 402" transform="translate(0 0)" clip-path="url(#clip-path-13)">
          <rect id="Rectangle_567" data-name="Rectangle 567" width="8.263" height="8.315" transform="translate(-2.779 3.843) rotate(-54.276)" fill="#fff"/>
        </g>
      </g>
      <g id="Group_405" data-name="Group 405" transform="translate(1070.299 1090.519)">
        <g id="Group_404" data-name="Group 404" transform="translate(0 0)" clip-path="url(#clip-path-14)">
          <rect id="Rectangle_568" data-name="Rectangle 568" width="8.642" height="8.31" transform="translate(-3.528 4.484) rotate(-54.276)" fill="#fff"/>
        </g>
      </g>
      <g id="Group_407" data-name="Group 407" transform="translate(1063.982 1120.876)">
        <g id="Group_406" data-name="Group 406" transform="translate(0 0)" clip-path="url(#clip-path-15)">
          <rect id="Rectangle_569" data-name="Rectangle 569" width="7.436" height="7.544" transform="translate(-2.535 3.38) rotate(-54.276)" fill="#fff"/>
        </g>
      </g>
      <g id="Group_409" data-name="Group 409" transform="translate(1070.156 1105.242)">
        <g id="Group_408" data-name="Group 408" transform="translate(0 0)" clip-path="url(#clip-path-16)">
          <rect id="Rectangle_570" data-name="Rectangle 570" width="7.121" height="6.472" transform="translate(-3.116 4.139) rotate(-54.276)" fill="#fff"/>
        </g>
      </g>
      <g id="Group_411" data-name="Group 411" transform="translate(1062.083 1132.703)">
        <g id="Group_410" data-name="Group 410" transform="translate(0)" clip-path="url(#clip-path-17)">
          <rect id="Rectangle_571" data-name="Rectangle 571" width="4.205" height="4.152" transform="matrix(0.584, -0.812, 0.812, 0.584, -1.699, 2.051)" fill="#fff"/>
        </g>
      </g>
      <g id="Group_413" data-name="Group 413" transform="translate(1061.463 1099.137)">
        <g id="Group_412" data-name="Group 412" transform="translate(0 0)" clip-path="url(#clip-path-18)">
          <rect id="Rectangle_572" data-name="Rectangle 572" width="3.649" height="4.01" transform="matrix(0.584, -0.812, 0.812, 0.584, -1.057, 1.289)" fill="#fff"/>
        </g>
      </g>
      <g id="Group_415" data-name="Group 415" transform="translate(1082.688 1154.569)">
        <g id="Group_414" data-name="Group 414" transform="translate(0)" clip-path="url(#clip-path-19)">
          <rect id="Rectangle_573" data-name="Rectangle 573" width="2.151" height="2.402" transform="translate(-0.609 0.714) rotate(-54.276)" fill="#fff"/>
        </g>
      </g>
      <g id="Group_417" data-name="Group 417" transform="translate(1087.408 1139.629)">
        <g id="Group_416" data-name="Group 416" transform="translate(0)" clip-path="url(#clip-path-20)">
          <rect id="Rectangle_574" data-name="Rectangle 574" width="4.315" height="4.338" transform="matrix(0.584, -0.812, 0.812, 0.584, -1.453, 2.011)" fill="#fff"/>
        </g>
      </g>
      <g id="Group_419" data-name="Group 419" transform="translate(1097.761 1146.632)">
        <g id="Group_418" data-name="Group 418" transform="translate(0 0)" clip-path="url(#clip-path-21)">
          <rect id="Rectangle_575" data-name="Rectangle 575" width="4.282" height="4.306" transform="translate(-1.434 1.994) rotate(-54.276)" fill="#fff"/>
        </g>
      </g>
      <g id="Group_421" data-name="Group 421" transform="translate(1099.058 1135.759)">
        <g id="Group_420" data-name="Group 420" transform="translate(0 0)" clip-path="url(#clip-path-22)">
          <rect id="Rectangle_576" data-name="Rectangle 576" width="4.284" height="4.312" transform="translate(-1.443 1.988) rotate(-54.276)" fill="#fff"/>
        </g>
      </g>
    </g>
  </g>
</svg>
