<svg xmlns="http://www.w3.org/2000/svg" width="21.5" height="15.501" viewBox="0 0 21.5 15.501">
  <g id="youtube-svgrepo-com" transform="translate(-1.75 -4.25)">
    <path id="Path_6859" data-name="Path 6859" d="M18.168,19A4.182,4.182,0,0,0,22.5,14.982V9.018A4.182,4.182,0,0,0,18.168,5H6.832A4.182,4.182,0,0,0,2.5,9.018v5.964A4.182,4.182,0,0,0,6.832,19Z" transform="translate(0 0)" fill="none" stroke="#fff" stroke-linecap="round" stroke-linejoin="round" stroke-width="1.5" fill-rule="evenodd"/>
    <path id="Path_6860" data-name="Path 6860" d="M12.008,9.178l3.161,2.148a.667.667,0,0,1,0,1.152l-3.161,2.35c-.6.407-1.508.06-1.508-.576v-4.5C10.5,9.119,11.409,8.771,12.008,9.178Z" transform="translate(0 -0.003)" fill="none" stroke="#fff" stroke-linecap="round" stroke-linejoin="round" stroke-width="1.5" fill-rule="evenodd"/>
  </g>
</svg>
