<svg xmlns="http://www.w3.org/2000/svg" width="28" height="28" viewBox="0 0 28 28">
  <g id="Group_158203" data-name="Group 158203" transform="translate(9240 -5430)">
    <g id="Path_62229" data-name="Path 62229" transform="translate(-9240 5430)" fill="#fff">
      <path d="M 14 27.5 C 10.39402008056641 27.5 7.003870010375977 26.09576034545898 4.454060077667236 23.54594039916992 C 1.904240012168884 20.99612998962402 0.5 17.60597991943359 0.5 14 C 0.5 10.39402008056641 1.904240012168884 7.003870010375977 4.454060077667236 4.454060077667236 C 7.003870010375977 1.904240012168884 10.39402008056641 0.5 14 0.5 C 17.60597991943359 0.5 20.99612998962402 1.904240012168884 23.54594039916992 4.454060077667236 C 26.09576034545898 7.003870010375977 27.5 10.39402008056641 27.5 14 C 27.5 17.60597991943359 26.09576034545898 20.99612998962402 23.54594039916992 23.54594039916992 C 20.99612998962402 26.09576034545898 17.60597991943359 27.5 14 27.5 Z" stroke="none"/>
      <path d="M 14 1 C 10.5275707244873 1 7.262990951538086 2.352239608764648 4.807609558105469 4.807609558105469 C 2.352239608764648 7.262990951538086 1 10.5275707244873 1 14 C 1 17.47241973876953 2.352239608764648 20.73701095581055 4.807609558105469 23.19239044189453 C 7.262990951538086 25.64776039123535 10.5275707244873 27 14 27 C 17.47241973876953 27 20.73701095581055 25.64776039123535 23.19239044189453 23.19239044189453 C 25.64776039123535 20.73701095581055 27 17.47241973876953 27 14 C 27 10.5275707244873 25.64776039123535 7.262990951538086 23.19239044189453 4.807609558105469 C 20.73701095581055 2.352239608764648 17.47241973876953 1 14 1 M 14 0 C 21.73197937011719 0 28 6.268009185791016 28 14 C 28 21.73197937011719 21.73197937011719 28 14 28 C 6.268009185791016 28 0 21.73197937011719 0 14 C 0 6.268009185791016 6.268009185791016 0 14 0 Z" stroke="none" fill="#707070"/>
    </g>
    <path id="Path_61370" data-name="Path 61370" d="M.192,0H1.669l4-5.056h.039L9.657,0h1.535l-4.7-5.824,4.489-5.616H9.54L5.789-6.608H5.75L1.961-11.44H.464l4.509,5.6Z" transform="translate(-9231.192 5449.44)" fill="#424242"/>
  </g>
</svg>
