<svg xmlns="http://www.w3.org/2000/svg" width="24.329" height="24.33" viewBox="0 0 24.329 24.33">
  <g id="Dribbble-Light-Preview" transform="translate(0.5 0.5)">
    <g id="icons">
      <path id="linkedin-_161_" data-name="linkedin-[#161]" d="M147.329,7342.331h-4.666v-8.165c0-2.239-.988-3.489-2.76-3.489-1.928,0-3.072,1.3-3.072,3.489v8.165h-4.666v-15.165h4.666v1.706a5.623,5.623,0,0,1,4.763-2.569c3.3,0,5.735,2.014,5.735,6.181v9.848Zm-20.48-17.59a2.87,2.87,0,1,1,2.847-2.87,2.859,2.859,0,0,1-2.847,2.87ZM124,7342.331h5.832v-15.165H124Z" transform="translate(-124 -7319)" fill="none" stroke="#555" stroke-width="1" fill-rule="evenodd"/>
    </g>
  </g>
</svg>
