<svg xmlns="http://www.w3.org/2000/svg" xmlns:xlink="http://www.w3.org/1999/xlink" width="22" height="23" viewBox="0 0 22 23">
  <defs>
    <clipPath id="clip-path">
      <rect id="Rectangle_8528" data-name="Rectangle 8528" width="22" height="23" transform="translate(0.292 0.03)" fill="#555"/>
    </clipPath>
  </defs>
  <g id="Group_155508" data-name="Group 155508" transform="translate(-0.292 -0.03)" clip-path="url(#clip-path)">
    <path id="Path_61384" data-name="Path 61384" d="M21.6.292A.16.16,0,0,0,21.58.254.451.451,0,0,0,21.5.127a.419.419,0,0,0-.13-.086.188.188,0,0,0-.035-.014A.483.483,0,0,0,21.207,0l-.024,0a.378.378,0,0,0-.132.022L.3,6.938a.435.435,0,0,0-.019.819l9.811,3.773,3.773,9.812a.436.436,0,0,0,.405.278h.011a.432.432,0,0,0,.4-.3L21.6.568a.543.543,0,0,0,.022-.13c0-.011,0-.019,0-.03A.47.47,0,0,0,21.6.292M1.722,7.382,19.58,1.43l-9.26,9.258ZM14.242,19.9l-3.306-8.6,9.26-9.26Z" transform="translate(0.515 0.515)" fill="#555"/>
  </g>
</svg>
