<svg id="Group_159726" data-name="Group 159726" xmlns="http://www.w3.org/2000/svg" xmlns:xlink="http://www.w3.org/1999/xlink" width="94.5" height="83.505" viewBox="0 0 94.5 83.505">
  <defs>
    <clipPath id="clip-path">
      <rect id="Rectangle_14130" data-name="Rectangle 14130" width="94.5" height="83.505" fill="none"/>
    </clipPath>
  </defs>
  <g id="Group_159725" data-name="Group 159725" clip-path="url(#clip-path)">
    <path id="Path_63347" data-name="Path 63347" d="M260.9,250.847c-.4,4.524.529,9.962,0,14.376a8.54,8.54,0,0,1-7.812,7.194c-7.875-.428-16.306.546-24.116,0-3.6-.252-7.995-3.384-7.995-7.288V250.847Z" transform="translate(-166.571 -189.084)" fill="#06b0e3"/>
    <path id="Path_63348" data-name="Path 63348" d="M260.9,163.2H220.982v-2.857a12.714,12.714,0,0,1,.952-2.917,8.8,8.8,0,0,1,8.8-4.362c-.233-4.135-.125-9.55,4.744-10.821,1.754-.458,9.351-.452,11.072.043,4.78,1.375,4.81,6.685,4.6,10.778a8.758,8.758,0,0,1,8.8,4.362l.952,2.825Zm-15.454-10.137V148a1.652,1.652,0,0,0-.371-.366,71.119,71.119,0,0,0-7.643-.106c-.273.027-1,.142-1,.472v5.068Z" transform="translate(-166.572 -106.971)" fill="#06b0e3"/>
    <path id="Path_63349" data-name="Path 63349" d="M88.277.077a18.5,18.5,0,0,1,18.1,26.8c-6.113,11.941-22.9,13.547-31.015,2.8C66.632,18.114,73.891,1.364,88.277.077" transform="translate(-53.958 0)" fill="#f8cd47"/>
    <path id="Path_63350" data-name="Path 63350" d="M34.54,212.812H2.252c-.607,0-1.94-1.318-2.029-2.022.145-5.96-.493-12.418-.085-18.342a22.358,22.358,0,0,1,20.87-20.56,40.716,40.716,0,0,1,5.9.008c.212.04.376.06.429.308l1.317,8.079c-.431,6.478-2.507,13.707-2.757,20.093a3.035,3.035,0,0,0,.659,2.284c1.813,2.82,4.916,6.033,7.06,8.778a4.383,4.383,0,0,1,.927,1.375" transform="translate(0 -129.485)" fill="#06b0e3"/>
    <path id="Path_63351" data-name="Path 63351" d="M152.192,213.087c-.143-.123.786-1.194.927-1.375,2.118-2.712,5.3-5.994,7.064-8.773a3.29,3.29,0,0,0,.654-2.288c-.3-6.432-2.29-13.582-2.757-20.092l1.458-8.307a38.143,38.143,0,0,1,9.947.475A14.705,14.705,0,0,0,163.6,183.14c-.558,7.3.41,15.288,0,22.665a14.906,14.906,0,0,0,2.757,7.282Z" transform="translate(-114.708 -129.76)" fill="#06b0e3"/>
    <path id="Path_63352" data-name="Path 63352" d="M134.934,217.169l2.21,17.039a59.251,59.251,0,0,1-3.951,5.08c-.145.142-.291.391-.531.35l-4.253-5.149-.1-.818,2.214-16.5Z" transform="translate(-96.716 -163.698)" fill="#f8cd47"/>
    <path id="Path_63353" data-name="Path 63353" d="M139.813,172.25l-.907,5.45c-.668.061-4.294.258-4.531-.094l-.817-5.356Z" transform="translate(-100.674 -129.839)" fill="#f8cd47"/>
  </g>
</svg>
