<svg id="Group_159728" data-name="Group 159728" xmlns="http://www.w3.org/2000/svg" xmlns:xlink="http://www.w3.org/1999/xlink" width="85.393" height="85.234" viewBox="0 0 85.393 85.234">
  <defs>
    <clipPath id="clip-path">
      <rect id="Rectangle_14131" data-name="Rectangle 14131" width="85.393" height="85.234" fill="none"/>
    </clipPath>
  </defs>
  <g id="Group_159727" data-name="Group 159727" clip-path="url(#clip-path)">
    <path id="Path_63354" data-name="Path 63354" d="M339.61,106.622c-.261,4.375.35,9.154,0,13.48a22.942,22.942,0,0,1-13.184,18.5,26.549,26.549,0,0,1-12.411,1.969,40.085,40.085,0,0,0-.24-6.167l13.372-13.553a2.49,2.49,0,0,0-3.48-3.485L312.1,128.922a24.148,24.148,0,0,0-6.867-8.757A22.534,22.534,0,0,1,324.9,104.793a94.827,94.827,0,0,1,12.305-.01,2.792,2.792,0,0,1,2.4,1.839" transform="translate(-254.329 -87.143)" fill="#f8cd47"/>
    <path id="Path_63355" data-name="Path 63355" d="M49.732,8.479a33.689,33.689,0,0,1,11.231,4.652c1.861-1,3.773-5.018,6.1-4.8,1.723.165,3.824,3.177,5.089,4.318a27.654,27.654,0,0,0-16.6,5.594,40.082,40.082,0,0,0-4.788,4.535,21.661,21.661,0,0,0-21.9,3.191,21.311,21.311,0,0,0,1.589,34.18A21.61,21.61,0,0,0,56.62,58.429c6.036.061,12.165.262,17.69-2.5l-2.64,5.541,4.209,4.456c1.334,1.892-.526,3.421-1.729,4.736-1.013,1.106-5.179,5.482-6.206,5.934-3.045,1.338-4.744-3.274-6.98-4.5a33.659,33.659,0,0,1-11.233,4.654c-.208.242.118,5.439-.027,6.38a2.48,2.48,0,0,1-2.392,1.931,70.176,70.176,0,0,1-10.3-.022c-3.433-.467-1.646-5.93-2.109-8.29a34.556,34.556,0,0,1-11.23-4.652c-2.349,1.429-4.349,6.621-7.7,4.058-2.515-1.922-4.8-5.29-7.215-7.421a2.373,2.373,0,0,1-.128-2.6l4.2-4.452c.36-.537-.472-1.36-.762-1.917a32.6,32.6,0,0,1-3.577-9.648c-.223-.216-5.29.126-6.214-.018A2.7,2.7,0,0,1,.184,47.858,74.134,74.134,0,0,1,.2,37.213c.521-3.334,5.975-1.706,8.292-2.1a34.028,34.028,0,0,1,4.5-11.228L8.759,19.3a2.468,2.468,0,0,1-.388-2.031c.131-.632,2.116-2.66,2.7-3.285,1.055-1.128,4.179-4.539,5.286-5.191,3.168-1.866,4.976,2.84,7.011,4.209.185.124.185.155.422.089.38-.107,1.928-1.2,2.51-1.5a34.073,34.073,0,0,1,8.606-3.115c.212-.247-.147-5.529.055-6.52A2.509,2.509,0,0,1,37.327.168a74.442,74.442,0,0,1,9.985,0c3.914.346,1.909,5.716,2.42,8.312" transform="translate(0)" fill="#06b0e3"/>
    <path id="Path_63356" data-name="Path 63356" d="M203.685,221.462l-.827-1.252c-3.371-2.7-6.62-7.506-9.971-9.986a2.474,2.474,0,0,0-3.811,2.984l9.466,9.826.158,1.591a17.755,17.755,0,0,1-19.786-16.385,44.609,44.609,0,0,1,.022-6.484,2.5,2.5,0,0,1,2.229-2.095c7.95-.906,15.875,1.35,20.1,8.5.911,1.543,2.423,5.329,2.423,7.059Z" transform="translate(-148.984 -166.203)" fill="#f8cd47"/>
  </g>
</svg>
