<svg xmlns="http://www.w3.org/2000/svg" width="84.132" height="73.07" viewBox="0 0 84.132 73.07">
  <g id="noun-compliance-7681917" transform="translate(-7.628 -13.199)">
    <path id="Path_63329" data-name="Path 63329" d="M70.58,77.856l20.841-.035a.162.162,0,0,0,.155-.1.172.172,0,0,0-.016-.182l-5.325-7.175a.18.18,0,0,1,0-.213l5.488-7.19a.179.179,0,0,0,.019-.186.172.172,0,0,0-.159-.1l-7.237.012a.174.174,0,0,0-.175.175v6.671a2.805,2.805,0,0,1-2.8,2.8H75a.178.178,0,0,0-.14.066,46.746,46.746,0,0,1-4.41,5.143.178.178,0,0,0-.039.194.171.171,0,0,0,.163.112ZM51.173,48.727a13.922,13.922,0,1,1-2.955,0,.176.176,0,0,0,.159-.175V28.265a.174.174,0,0,0-.175-.175H35.738a.164.164,0,0,0-.151.089.175.175,0,0,0,0,.175L42,39.415s0,.008.008.012a1.3,1.3,0,0,1,.225.737,9.087,9.087,0,1,1-18.173,0,1.3,1.3,0,0,1,.225-.737s0-.008.008-.012L32.011,26.11a1.312,1.312,0,0,1,1.14-.655v0h33.1v0a1.319,1.319,0,0,1,1.148.671l7.71,13.295s0,.008.008.012a1.3,1.3,0,0,1,.225.737,9.087,9.087,0,0,1-18.173,0,1.3,1.3,0,0,1,.225-.737s0-.008.008-.012L63.82,28.359a.176.176,0,0,0-.151-.264l-12.476,0a.174.174,0,0,0-.175.175V48.549a.174.174,0,0,0,.155.178ZM41.2,63.441l5.212,4.976a1.317,1.317,0,0,0,1.862-.047L57.029,59.2a1.317,1.317,0,0,0-1.908-1.815L47.4,65.473a.173.173,0,0,1-.248,0l-4.134-3.948A1.319,1.319,0,0,0,41.2,63.441Zm-23.176-8a.164.164,0,0,0-.163.163V69.537a.164.164,0,0,0,.163.163H34.465a.176.176,0,0,0,.159-.248,16.6,16.6,0,0,1,0-13.767.161.161,0,0,0-.012-.167.176.176,0,0,0-.147-.081Zm46.9,0H81.368a.164.164,0,0,1,.163.163V69.537a.164.164,0,0,1-.163.163l-16.443,0a.176.176,0,0,1-.159-.248,16.6,16.6,0,0,0,0-13.767.161.161,0,0,1,.012-.167.166.166,0,0,1,.147-.085Zm6.647-16.858L66.4,29.658a.176.176,0,0,0-.151-.089.164.164,0,0,0-.151.089l-5.173,8.92a.176.176,0,0,0,.151.264H71.421a.164.164,0,0,0,.151-.089.158.158,0,0,0,0-.175Zm-33.1,0-5.173-8.92a.176.176,0,0,0-.151-.089.164.164,0,0,0-.151.089l-5.173,8.92a.176.176,0,0,0,.151.264H38.316a.164.164,0,0,0,.151-.089.158.158,0,0,0,0-.175ZM80.876,23.391a.182.182,0,0,0-.151-.171,90.99,90.99,0,0,1-30.944-10,.168.168,0,0,0-.171,0,91.041,91.041,0,0,1-30.944,10,.175.175,0,0,0-.151.171c-.295,9.9-.512,20.007,1.129,29.261a.175.175,0,0,0,.175.143h2.327a.175.175,0,0,0,.175-.206c-1.52-8.284-1.485-17.476-1.229-26.918a.178.178,0,0,1,.147-.171,93.853,93.853,0,0,0,28.373-9.269.181.181,0,0,1,.167,0A93.852,93.852,0,0,0,78.149,25.5a.178.178,0,0,1,.147.171c.256,9.443.295,18.635-1.229,26.918a.16.16,0,0,0,.039.143.167.167,0,0,0,.136.062h2.327a.179.179,0,0,0,.175-.143c1.644-9.253,1.427-19.364,1.132-29.261ZM71.343,72.629C66.654,78.5,59.779,83.24,49.745,86.26a.15.15,0,0,1-.1,0c-10.032-3.021-16.9-7.76-21.6-13.631a.171.171,0,0,1-.019-.186.175.175,0,0,1,.159-.1H31.2a.174.174,0,0,1,.132.058c4.231,4.708,10.122,8.513,18.309,11.1a.161.161,0,0,0,.1,0c8.187-2.583,14.082-6.387,18.309-11.1a.168.168,0,0,1,.132-.058H71.2a.175.175,0,0,1,.159.1.164.164,0,0,1-.016.186ZM28.811,77.857a.173.173,0,0,0,.163-.109.181.181,0,0,0-.039-.194,47.474,47.474,0,0,1-4.41-5.143.173.173,0,0,0-.14-.066H18.021a2.805,2.805,0,0,1-2.8-2.8V62.871a.174.174,0,0,0-.175-.175l-7.237-.012a.175.175,0,0,0-.14.283l5.488,7.19a.175.175,0,0,1,0,.213L7.829,77.546a.173.173,0,0,0-.016.182.17.17,0,0,0,.155.1Z" fill="#fff" fill-rule="evenodd"/>
  </g>
</svg>
