<svg id="Group_159724" data-name="Group 159724" xmlns="http://www.w3.org/2000/svg" xmlns:xlink="http://www.w3.org/1999/xlink" width="61.572" height="82.138" viewBox="0 0 61.572 82.138">
  <defs>
    <clipPath id="clip-path">
      <rect id="Rectangle_14129" data-name="Rectangle 14129" width="61.572" height="82.137" fill="none"/>
    </clipPath>
  </defs>
  <g id="Group_159723" data-name="Group 159723" clip-path="url(#clip-path)">
    <path id="Path_63342" data-name="Path 63342" d="M57.876,44.631a23.91,23.91,0,0,0-2.317,2.238c-2.009,2.717-1.176,5.255-4.9,6.961-.91.417-1.943.6-2.856,1.1-2.491,1.366-3.587,4.406-6.628,4.713-1.361.138-2.912-.138-4.275.021-2.615.305-3.75,2.172-6.9,1.879-1.816-.169-3.338-1.6-5.193-1.853-2.117-.287-4.068.4-6.12-.581-1.73-.824-2.543-2.484-4-3.558-1.923-1.414-4.238-1.34-5.9-3.2-1.251-1.4-1.3-3-2.158-4.543-1.472-2.657-4.371-3.38-4.71-6.8-.151-1.52.266-2.8-.046-4.422C1.529,34.784.245,33.395.046,31.7-.3,28.756,1.4,27.555,1.874,24.971c.4-2.183-.387-3.832.529-6,.9-2.127,2.779-2.786,3.952-4.639C7.41,12.665,7.514,10.577,8.9,9.139c1.522-1.585,3.671-1.638,5.448-2.8C16.235,5.1,17,3.069,19.226,2.286c2.024-.714,3.78,0,5.925-.433C27.236,1.43,28.615-.027,30.875,0c2.295.028,4.019,1.764,6.4,2.028,2.019.223,3.2-.478,5.309.361,2.031.809,2.777,2.7,4.539,3.881,1.787,1.2,4.006,1.261,5.551,2.869,1.382,1.438,1.485,3.526,2.54,5.192,1.216,1.921,3.235,2.6,4.055,4.881.737,2.054.039,3.69.43,5.757.466,2.465,2.107,3.826,1.841,6.575-.168,1.736-1.5,3.229-1.843,5.03-.626,3.25.958,5.07-1.823,8.057M29.377,5.907c-20.206,1.212-30.652,24.686-18,40.584,10.728,13.483,32,11.891,40.793-2.844,10.219-17.119-2.918-38.933-22.79-37.74" transform="translate(0 0)" fill="#06b0e3"/>
    <path id="Path_63343" data-name="Path 63343" d="M160.352,250.071l7.479,17.353a1.739,1.739,0,0,1-.538,2.044c-1.65.975-6.276-.092-8.319.445-1.825.48-4.332,4.654-5.8,4.869-.908.133-1.423-.432-1.854-1.16l-7.46-16.58,4.074-1.774c2.534-.119,4.711.338,7.087-.817,2.308-1.122,3.2-3.175,5.328-4.379" transform="translate(-110.837 -192.664)" fill="#06b0e3"/>
    <path id="Path_63344" data-name="Path 63344" d="M26.855,250.07c1.919.965,2.689,2.785,4.585,3.918,2.673,1.6,4.833,1.2,7.829,1.278l4.075,1.774-7.521,16.692c-1.855,3.153-4.828-1.989-6.479-3.213-2.194-1.627-6.338-.466-8.925-.87a1.473,1.473,0,0,1-1.187-1.233,3.5,3.5,0,0,1,.495-1.844c2.134-5.54,5.052-10.919,7.129-16.5" transform="translate(-14.796 -192.663)" fill="#06b0e3"/>
    <path id="Path_63345" data-name="Path 63345" d="M59.009,38.315C75.14,37.337,86.761,53.853,80.555,68.8c-6.68,16.085-28.889,18.27-38.562,3.788a22.052,22.052,0,0,1,17.015-34.27M48.581,67.63l.06-14.594c1.575-.2,1.743-2.648.346-2.91a23.145,23.145,0,0,0-3.911.033,1.452,1.452,0,0,0-.644,2.289c.376.455,1.113.269,1.211.851l.009,14.246c-1.254.289-2.2,1.553-1.049,2.6.645.588,3.443.565,4.308.341a1.457,1.457,0,0,0-.329-2.858m8.871-17.468c-5.523.932-6.26,9.6-.436,11.352,1.549.466,3.12-.059,4.164,1.507a2.94,2.94,0,0,1-4.712,3.51c-.785-1.01-.393-3.373-2.153-3.331-2.531.06-1.038,4.015-.078,5.218,5.395,6.76,15.163-3.262,7.957-8.472-1.808-1.307-2.887-.69-4.522-1.321-3.913-1.509-.829-7.527,2.735-5.141,1.772,1.186.784,3.954,2.844,3.866,2.307-.1,1.22-3.378.466-4.6a6.036,6.036,0,0,0-6.264-2.589m13.4,0a4.62,4.62,0,0,0-3.179,3.351c-.624,3.955.381,9.263-.042,13.362a4.415,4.415,0,0,0,8.77-.682A89.294,89.294,0,0,0,76.4,54.161c-.289-2.923-2.706-4.481-5.542-4" transform="translate(-29.461 -29.487)" fill="#f8cd47"/>
    <path id="Path_63346" data-name="Path 63346" d="M179.533,102.561a1.454,1.454,0,0,1,1.943,1.42c.434,3.635-.324,8.123-.014,11.851a1.47,1.47,0,0,1-2.915.013c.331-3.8-.432-8.321,0-12.036a1.32,1.32,0,0,1,.986-1.249" transform="translate(-137.455 -78.97)" fill="#f8cd47"/>
  </g>
</svg>
