<svg xmlns="http://www.w3.org/2000/svg" width="57.516" height="73.069" viewBox="0 0 57.516 73.069">
  <g id="noun-law-book-3967474" transform="translate(-12.6 -2.5)">
    <path id="Path_63330" data-name="Path 63330" d="M68.884,62.326c.077-.077.154-.077.231-.154a2.075,2.075,0,0,0,.539-.616,2.846,2.846,0,0,0,.462-1.617V7.736A5.241,5.241,0,0,0,64.88,2.5H17.836A5.192,5.192,0,0,0,12.6,7.736V66.329h0a9.217,9.217,0,0,0,9.239,9.239h45.2a2.986,2.986,0,0,0,2.772-1.694,2.864,2.864,0,0,0-.924-3.465,4.792,4.792,0,0,1,0-8.085ZM44.707,14.28l.616-.616a1.813,1.813,0,0,1,2.541,0L55.41,21.21a1.813,1.813,0,0,1,0,2.541l-.616.616a1.813,1.813,0,0,1-2.541,0l-7.546-7.546A1.686,1.686,0,0,1,44.707,14.28Zm-1.463,4.466,7.084,7.084L47.71,28.448l9.7,8.624a3.119,3.119,0,0,1,1.078,2.31,3.443,3.443,0,0,1-.924,2.387,3.26,3.26,0,0,1-2.31.924h-.077a3.119,3.119,0,0,1-2.31-1.078l-8.7-9.7L41.55,34.53l-7.084-7.007ZM29.385,29.525,30,28.91a1.813,1.813,0,0,1,2.541,0l7.546,7.546a1.813,1.813,0,0,1,0,2.541l-.616.616a1.813,1.813,0,0,1-2.541,0l-7.546-7.469A1.908,1.908,0,0,1,29.385,29.525Zm-5,18.325a1.019,1.019,0,0,1,1-1h2.541v-1a1.709,1.709,0,0,1,1.694-1.694H44.707A1.709,1.709,0,0,1,46.4,45.849v1h2.541a1.019,1.019,0,0,1,1,1v2a1.019,1.019,0,0,1-1,1H25.381a1.019,1.019,0,0,1-1-1v-2ZM61.646,69.871H21.916a3.542,3.542,0,1,1,0-7.084h39.73a11.05,11.05,0,0,0-.616,3.542A10.692,10.692,0,0,0,61.646,69.871Z" fill="#fff"/>
  </g>
</svg>
