<svg id="Group_159684" data-name="Group 159684" xmlns="http://www.w3.org/2000/svg" xmlns:xlink="http://www.w3.org/1999/xlink" width="73.259" height="66.511" viewBox="0 0 73.259 66.511">
  <defs>
    <clipPath id="clip-path">
      <rect id="Rectangle_14081" data-name="Rectangle 14081" width="73.259" height="66.511" fill="none"/>
    </clipPath>
  </defs>
  <g id="Group_159685" data-name="Group 159685" clip-path="url(#clip-path)">
    <path id="Path_63258" data-name="Path 63258" d="M111.892,77.9a16.421,16.421,0,0,1,3.735.077c.783.334.89,2.688,1.538,3.334.853.373,1.747.629,2.613.973a16.349,16.349,0,0,0,1.731.854c1.255.249,2.454-1.454,3.52-1.235a12.879,12.879,0,0,1,2.951,2.945c.2.988-1.323,2.209-1.278,3.258a22.992,22.992,0,0,0,1.266,2.9,15.132,15.132,0,0,0,.484,1.522c.587,1,3.34.68,3.562,2.031a14.132,14.132,0,0,1-.151,3.7c-.393.682-2.656.812-3.29,1.443-.374.851-.63,1.743-.974,2.608a16.229,16.229,0,0,0-.856,1.728c-.248,1.247,1.446,2.45,1.263,3.539a14.621,14.621,0,0,1-2.977,2.919c-.991.2-2.214-1.32-3.264-1.275a23.052,23.052,0,0,0-2.91,1.263,15.133,15.133,0,0,0-1.525.483c-1,.586-.682,3.333-2.035,3.555a14.212,14.212,0,0,1-3.707-.15c-.683-.392-.813-2.651-1.446-3.283-.853-.373-1.747-.629-2.613-.973a16.351,16.351,0,0,0-1.731-.855c-1.208-.239-2.459,1.453-3.52,1.235a12.879,12.879,0,0,1-2.951-2.945c-.2-.988,1.323-2.209,1.277-3.258a22.95,22.95,0,0,0-1.265-2.9,15.129,15.129,0,0,0-.484-1.522c-.587-1-3.34-.68-3.562-2.031a14.131,14.131,0,0,1,.151-3.7c.393-.682,2.656-.812,3.29-1.443.374-.851.63-1.743.975-2.608a16.247,16.247,0,0,0,.856-1.728c.25-1.252-1.456-2.45-1.237-3.513a12.88,12.88,0,0,1,2.951-2.945c.985-.2,2.27,1.318,3.264,1.275a23.067,23.067,0,0,0,2.91-1.263,15.2,15.2,0,0,0,1.525-.483c.946-.555.761-3.278,1.914-3.533m1.16,8.32a10.007,10.007,0,1,0,9.329,14.9,10.024,10.024,0,0,0-9.329-14.9" transform="translate(-77.019 -62.941)" fill="#f8cd47"/>
    <path id="Path_63259" data-name="Path 63259" d="M19.916,185.367a30.913,30.913,0,0,0,22.355,27.316,31.375,31.375,0,0,0,24.792-3.39c1.789-.081,2.061,1.442.539,2.4-6.633,4.177-15.991,5.377-23.607,3.853a33.456,33.456,0,0,1-26.517-30.464Z" transform="translate(-14.133 -149.669)" fill="#06b0e3"/>
    <path id="Path_63260" data-name="Path 63260" d="M149.511,31.115l-2.439-.285A30.9,30.9,0,0,0,124.717,3.514,31.37,31.37,0,0,0,99.925,6.9a1.182,1.182,0,0,1-1.392-1.676,10.5,10.5,0,0,1,2.615-1.686,33.929,33.929,0,0,1,25.685-1.854,33.463,33.463,0,0,1,22.678,29.427" transform="translate(-79.583 0)" fill="#06b0e3"/>
    <path id="Path_63261" data-name="Path 63261" d="M5.64,89.713A33.465,33.465,0,0,1,7.353,79.455a1.17,1.17,0,0,0-1.867-.994c-.6.442-1.169,2.98-1.355,3.8a28.632,28.632,0,0,0-.789,7.019A5.841,5.841,0,0,1,.471,85.776c-2.411-6.935,4.908-14.548,11.337-15.971a22.775,22.775,0,0,0-.268,6.785c.211,1.908.852,3.633.7,5.6-.271,3.455-3.01,7.162-6.6,7.522" transform="translate(-0.001 -56.449)" fill="#06b0e3"/>
    <path id="Path_63262" data-name="Path 63262" d="M325.482,173.848a32.267,32.267,0,0,1-.9,7.478,22.724,22.724,0,0,0-.811,2.78,1.173,1.173,0,0,0,1.867.994c.612-.449,1.323-3.5,1.5-4.372a29.3,29.3,0,0,0,.642-6.449,6.119,6.119,0,0,1,3.05,4.044c1.767,6.891-5.18,13.971-11.516,15.434a22.774,22.774,0,0,0,.268-6.785c-.211-1.908-.852-3.633-.7-5.6.269-3.434,3.02-7.176,6.6-7.522" transform="translate(-257.849 -140.584)" fill="#06b0e3"/>
    <path id="Path_63263" data-name="Path 63263" d="M79.043,72.5l-2.482,1.034L72.3,76.515a23.73,23.73,0,0,1,.289-7.444A8.9,8.9,0,0,1,79.043,72.5" transform="translate(-58.337 -55.855)" fill="#06b0e3"/>
    <path id="Path_63264" data-name="Path 63264" d="M281.468,239.726a23.737,23.737,0,0,1-.289,7.444,9.187,9.187,0,0,1-6.454-3.364l3.288-1.587Z" transform="translate(-222.16 -193.857)" fill="#06b0e3"/>
    <path id="Path_63265" data-name="Path 63265" d="M174.054,155.106c1.13-.26,1.759.641,1.4,1.686l-5.381,5.37a1.683,1.683,0,0,1-1.143,0,38.857,38.857,0,0,1-3.085-3.078,1.194,1.194,0,0,1,1.784-1.495c.384.242,1.637,1.823,1.924,1.773,1-.642,3.6-4.05,4.5-4.256" transform="translate(-134.016 -125.392)" fill="#06b0e3"/>
  </g>
</svg>
