<svg id="Group_159722" data-name="Group 159722" xmlns="http://www.w3.org/2000/svg" xmlns:xlink="http://www.w3.org/1999/xlink" width="91.789" height="88.232" viewBox="0 0 91.789 88.232">
  <defs>
    <clipPath id="clip-path">
      <rect id="Rectangle_14128" data-name="Rectangle 14128" width="91.789" height="88.232" fill="none"/>
    </clipPath>
  </defs>
  <g id="Group_159721" data-name="Group 159721" clip-path="url(#clip-path)">
    <path id="Path_63333" data-name="Path 63333" d="M91.789,140.788v15.748a3.859,3.859,0,0,1-2.968,2.668L66.2,159.22v-2.953a16.732,16.732,0,0,0-1.126-3.348c-2.009-4.125-6.345-6.1-10.688-6.692L45.9,149.734c-2.268-.846-4.477-2.1-6.73-2.945-1.461-.548-1.6-.711-3.176-.325-3.8.928-7.233,2.734-9.053,6.337a16.42,16.42,0,0,0-1.186,3.467v2.953l-22.287.007a3.534,3.534,0,0,1-3.3-3.139c-.518-4.607.389-10.146,0-14.854a3.56,3.56,0,0,1,2.675-3.052c11.176-.075,22.458-.247,33.576.087a11.377,11.377,0,0,0,18.326,1.172c.428-.485.592-1.345,1.337-1.347l32.578.008a3.8,3.8,0,0,1,3.131,2.685" transform="translate(0 -84.776)" fill="#06b0e3"/>
    <path id="Path_63334" data-name="Path 63334" d="M35.82,90.393H3.7c-.432,0-1.373.511-1.879.537V76.882c0-2.85,2.714-6.453,5.209-7.675a27.392,27.392,0,0,1,7.058-1.545c1.235-.034,1.24.613,1.645,1.571,2.282,5.4,3.855,11.361,6.094,16.812A1.213,1.213,0,0,0,24.1,86.1l6.7-18.175c.256-.317.616-.271.987-.261a40.609,40.609,0,0,1,5.825.988,9.9,9.9,0,0,1,6.424,7.713c.226,2.019.039,1.546-1.356,2.186-2.964,1.359-6.857,5.25-6.857,8.712Z" transform="translate(-1.117 -41.54)" fill="#06b0e3"/>
    <path id="Path_63335" data-name="Path 63335" d="M169.173,90.93l-2.409-.543-31.591.007V87.262c0-3.462-3.893-7.352-6.857-8.712-1.351-.62-1.527-.079-1.352-2a9.99,9.99,0,0,1,5.16-7.366,28.778,28.778,0,0,1,7.085-1.517c.371-.01.731-.056.987.261l6.7,18.175a1.213,1.213,0,0,0,2.274-.054c2.239-5.451,3.812-11.408,6.094-16.812.4-.958.41-1.6,1.645-1.571a28.211,28.211,0,0,1,6.936,1.488c2.588,1.2,5.331,4.823,5.331,7.733Z" transform="translate(-77.921 -41.54)" fill="#06b0e3"/>
    <path id="Path_63336" data-name="Path 63336" d="M85.083,172.082l8.727,3.552a2.963,2.963,0,0,0,1.388-.224c2.461-.748,5.107-2.49,7.6-3.326,4.11.682,6.524,2.77,6.845,7.037a89.416,89.416,0,0,1,0,11.448c-.15,1.819-.816,3.091-2.762,3.322H81.27c-2.047-.248-2.635-1.6-2.772-3.492a93.983,93.983,0,0,1,0-11.109c.294-4.3,2.482-6.318,6.585-7.208" transform="translate(-48.097 -105.659)" fill="#f8cd47"/>
    <path id="Path_63337" data-name="Path 63337" d="M31.487,3.283C41.679-6.818,56.943,8.7,46.82,18.706,36.639,28.769,21.4,13.28,31.487,3.283" transform="translate(-17.301 0)" fill="#f8cd47"/>
    <path id="Path_63338" data-name="Path 63338" d="M163.159.445C178.074-1.246,179.7,21,165.433,22.046c-14.079,1.031-15.775-20.07-2.274-21.6" transform="translate(-94.495 -0.217)" fill="#f8cd47"/>
    <path id="Path_63339" data-name="Path 63339" d="M107.587,106.139c9.86-1.363,10.276,12.861,1.355,12.949-8.178.08-8.624-11.943-1.355-12.949" transform="translate(-62.906 -65.113)" fill="#f8cd47"/>
    <path id="Path_63340" data-name="Path 63340" d="M50.351,65.292c.8-.183,3.813-.192,4.349.4,1.16,1.291-1.146,2.71-1.338,3.83-.251,1.47.793,4.355.626,6.02-.053.527-1.333,3.938-1.712,4.021-.32.07-.491-.437-.6-.647-.516-1.012-.774-2.346-1.274-3.394l.714-5.873c-.4-.983-2.973-3.856-.767-4.361" transform="translate(-30.374 -40.022)" fill="#f8cd47"/>
    <path id="Path_63341" data-name="Path 63341" d="M175.37,65.311c.7-.157,3.82-.177,4.251.326,1.064,1.241-.857,2.77-1.307,3.884-.14,1.724.862,4.447.684,6.024a21.04,21.04,0,0,1-1.7,4.044c-.333,0-.521-.34-.66-.59a26.619,26.619,0,0,1-1.205-3.268c-.244-1.625.628-4.364.686-6.084-.494-1.06-3.127-3.805-.748-4.336" transform="translate(-107.076 -40.041)" fill="#f8cd47"/>
  </g>
</svg>
