<svg xmlns="http://www.w3.org/2000/svg" width="73.07" height="73.07" viewBox="0 0 73.07 73.07">
  <g id="noun-disclosure-8010864" transform="translate(-3.684 -3.684)">
    <path id="Path_63331" data-name="Path 63331" d="M34.1,3.684H69.212a7.565,7.565,0,0,1,7.543,7.543V43.3a7.565,7.565,0,0,1-7.543,7.543H67.32l-6.39,7.6a1.264,1.264,0,0,1-2.231-.854l.2-6.745H55.6V49.458a6.936,6.936,0,0,0-6.92-6.92l-18.693,0v-8.72a12.578,12.578,0,0,0-3.426-8.63V11.223A7.566,7.566,0,0,1,34.1,3.684ZM20.443,44.494a4.979,4.979,0,0,0-4.964,4.964V71.79a4.979,4.979,0,0,0,4.964,4.964H48.679a4.979,4.979,0,0,0,4.964-4.964V49.458a4.979,4.979,0,0,0-4.964-4.964ZM14.363,23.135A10.712,10.712,0,0,0,3.684,33.814V42.09a2.406,2.406,0,0,0,2.4,2.4h.2a2.406,2.406,0,0,0,2.4-2.4l0-8.276a5.7,5.7,0,0,1,5.672-5.672h2.989a5.7,5.7,0,0,1,5.672,5.672v8.72h5.007l0-8.72A10.712,10.712,0,0,0,17.352,23.135ZM34.56,51.06a4.4,4.4,0,0,0-4.492,4.3,4.23,4.23,0,0,0,1.661,3.343l-3.072,8.3A2.391,2.391,0,0,0,31,70.182h7.124a2.393,2.393,0,0,0,2.342-3.177l-3.072-8.3a4.23,4.23,0,0,0,1.661-3.343,4.4,4.4,0,0,0-4.492-4.3ZM54.3,16.442l-.283-2.126a1.661,1.661,0,0,0-1.655-1.448H50.955A1.663,1.663,0,0,0,49.3,14.316l-.283,2.126a11.1,11.1,0,0,0-3.14,1.3l-1.707-1.3a1.661,1.661,0,0,0-2.194.145l-1,1a1.661,1.661,0,0,0-.145,2.194l1.3,1.707a10.975,10.975,0,0,0-1.3,3.14l-2.126.283a1.661,1.661,0,0,0-1.448,1.655v1.408a1.663,1.663,0,0,0,1.448,1.655l2.126.283a11.192,11.192,0,0,0,1.3,3.14l-1.3,1.7a1.661,1.661,0,0,0,.145,2.194l1,1a1.661,1.661,0,0,0,2.194.145l1.707-1.3a10.975,10.975,0,0,0,3.14,1.3L49.3,40.2a1.661,1.661,0,0,0,1.655,1.448h1.408A1.663,1.663,0,0,0,54.018,40.2l.283-2.126a11.192,11.192,0,0,0,3.14-1.3l1.707,1.3a1.661,1.661,0,0,0,2.194-.145l1-1a1.661,1.661,0,0,0,.145-2.194l-1.3-1.707a10.975,10.975,0,0,0,1.3-3.14l2.126-.283a1.661,1.661,0,0,0,1.448-1.655V26.555A1.663,1.663,0,0,0,64.6,24.9l-2.126-.283a11.192,11.192,0,0,0-1.3-3.14l1.3-1.7a1.661,1.661,0,0,0-.145-2.194l-1-1a1.661,1.661,0,0,0-2.194-.145l-1.707,1.3a11.048,11.048,0,0,0-3.14-1.3Zm-2.644,4.375a6.44,6.44,0,1,0,6.44,6.44,6.439,6.439,0,0,0-6.44-6.44Z" transform="translate(0)" fill="#fff" fill-rule="evenodd"/>
  </g>
</svg>
