<svg xmlns="http://www.w3.org/2000/svg" xmlns:xlink="http://www.w3.org/1999/xlink" width="97.5" height="97.5" viewBox="0 0 97.5 97.5">
  <defs>
    <clipPath id="clip-path">
      <rect id="Rectangle_10309" data-name="Rectangle 10309" width="97.5" height="97.5" fill="none"/>
    </clipPath>
  </defs>
  <g id="Group_159738" data-name="Group 159738" transform="translate(-3544.5 -12599.842)">
    <g id="Group_159661" data-name="Group 159661" transform="translate(3544.5 12599.842)">
      <rect id="Rectangle_10308" data-name="Rectangle 10308" width="97.5" height="97.5" fill="#004478"/>
      <g id="Group_158775" data-name="Group 158775">
        <g id="Group_158774" data-name="Group 158774" clip-path="url(#clip-path)">
          <path id="Path_62808" data-name="Path 62808" d="M229.58,73.226V66.2h1.791a2.294,2.294,0,0,1,1.781.538,2.4,2.4,0,0,1,.459,1.592q0,1.371-.619,1.772a2.63,2.63,0,0,1-1.462.4c-.038,0-.075,0-.113-.005s-.072-.005-.1-.005-.075,0-.113-.005-.075-.005-.113-.005v2.742Zm1.509-3.986q.694,0,.844-.279a1.857,1.857,0,0,0,.15-.849.6.6,0,0,0-.2-.517.876.876,0,0,0-.53-.148h-.263Zm2.789,3.986V66.2h3.478v1.318h-1.978v1.35h1.847v1.466h-1.847v1.5h1.978v1.392Zm3.473,0h1.5l.2-1.392h1.125l.2,1.392H241.9L240.5,66.2h-1.716Zm1.828-2.668.413-3.111.384,3.111Zm5.367-.148h1.528v1.128a1.571,1.571,0,0,1-.445,1.213,2.172,2.172,0,0,1-.98.538,2.02,2.02,0,0,1-.319.058c-.106.011-.206.016-.3.016a2.051,2.051,0,0,1-1.552-.527,2.478,2.478,0,0,1-.5-1.74V67.964a2.242,2.242,0,0,1,.455-1.419,1.911,1.911,0,0,1,1.6-.585,2.113,2.113,0,0,1,1.486.511,2.024,2.024,0,0,1,.558,1.566v.612h-1.594v-.907a.423.423,0,0,0-.136-.332.554.554,0,0,0-.3-.142h-.094a.554.554,0,0,0-.319.153.517.517,0,0,0-.141.4v3.723a.562.562,0,0,0,.141.4.51.51,0,0,0,.319.174h.084a.036.036,0,0,0,.028-.01.514.514,0,0,0,.338-.2.766.766,0,0,0,.15-.506Zm1.861,2.816V66.2h3.478v1.318h-1.978v1.35h1.847v1.466h-1.847v1.5h1.978v1.392Zm4.955,0h-.778V71.612h1.453v1.613a1.236,1.236,0,0,1-.408.933,1.462,1.462,0,0,1-1.045.385v-.506a.812.812,0,0,0,.558-.221.779.779,0,0,0,.22-.591" transform="translate(-198.461 -57.019)" fill="#fff" fill-rule="evenodd"/>
          <path id="Path_62809" data-name="Path 62809" d="M407.648,66.2h1.528V71.76a1.617,1.617,0,0,1-.422,1.155,1.532,1.532,0,0,1-1.172.448,1.78,1.78,0,0,1-1.247-.427,2.5,2.5,0,0,1-.469-1.808.452.452,0,0,1,0-.063.409.409,0,0,0,0-.063.125.125,0,0,1,0-.037.132.132,0,0,0,0-.037v-.074h1.238v.907a.29.29,0,0,0,.084.237.279.279,0,0,0,.178.068.287.287,0,0,0,.183-.063.205.205,0,0,0,.08-.169Zm1.9,0h1.509v5.336a.628.628,0,0,0,.141.432.45.45,0,0,0,.309.169h.066a.036.036,0,0,0,.028-.01.484.484,0,0,0,.309-.19.72.72,0,0,0,.141-.475V66.2h1.528v4.967a2.28,2.28,0,0,1-.516,1.729,2.01,2.01,0,0,1-1.4.464,2.356,2.356,0,0,1-1.584-.464,1.9,1.9,0,0,1-.534-1.508Zm4.1,4.577h1.369v.084a.115.115,0,0,0-.009.047v.047a.831.831,0,0,0-.014.085.709.709,0,0,0,0,.074,1.258,1.258,0,0,0,.169.717.5.5,0,0,0,.375.253h.07a.086.086,0,0,0,.042-.011.565.565,0,0,0,.3-.216.742.742,0,0,0,.136-.469.8.8,0,0,0-.183-.527,2.529,2.529,0,0,0-.455-.422q-.131-.106-.272-.2t-.281-.211a4.066,4.066,0,0,1-.825-.812,2.084,2.084,0,0,1-.375-1.308.051.051,0,0,1,0-.021.083.083,0,0,0,0-.032.05.05,0,0,1,0-.021.053.053,0,0,0,0-.021c0-.035,0-.07,0-.105s0-.07,0-.106a2.016,2.016,0,0,1,.572-1.134,1.646,1.646,0,0,1,1.247-.511,1.941,1.941,0,0,1,1.336.517,2.092,2.092,0,0,1,.576,1.635v.147h-1.369v-.2a1.036,1.036,0,0,0-.131-.569.581.581,0,0,0-.291-.253l-.065-.016a.3.3,0,0,0-.056-.005h-.028a.44.44,0,0,0-.3.158.524.524,0,0,0-.136.369.766.766,0,0,0,.2.543,2.663,2.663,0,0,0,.492.406q.113.084.239.163l.258.163a3.489,3.489,0,0,1,.792.733,2.1,2.1,0,0,1,.389,1.271V71.2a2.044,2.044,0,0,1-.6,1.7,2.2,2.2,0,0,1-1.383.459l-.2.01a1.6,1.6,0,0,1-1.223-.6,2.473,2.473,0,0,1-.427-1.55c0-.035,0-.07,0-.106s0-.07,0-.105v-.084a.26.26,0,0,0,.009-.074Zm5.02,2.447V67.594H417.5V66.2H421.3v1.392H420.2v5.631Zm2.9-7.023h1.509v7.023h-1.509ZM426,70.41h1.528v1.128a1.57,1.57,0,0,1-.445,1.213,2.172,2.172,0,0,1-.98.538,2.021,2.021,0,0,1-.319.058q-.16.016-.3.016a2.051,2.051,0,0,1-1.552-.527,2.478,2.478,0,0,1-.5-1.74V67.964a2.241,2.241,0,0,1,.455-1.419,1.912,1.912,0,0,1,1.6-.585,2.113,2.113,0,0,1,1.486.511,2.024,2.024,0,0,1,.558,1.566v.612h-1.594v-.907a.423.423,0,0,0-.136-.332.554.554,0,0,0-.3-.142H425.4a.553.553,0,0,0-.319.153.517.517,0,0,0-.141.4v3.723a.562.562,0,0,0,.141.4.509.509,0,0,0,.319.174h.084a.036.036,0,0,0,.028-.01.515.515,0,0,0,.337-.2.768.768,0,0,0,.15-.506Zm1.861,2.816V66.2h3.478v1.318h-1.978v1.35h1.847v1.466h-1.847v1.5h1.978v1.392Z" transform="translate(-350.853 -57.019)" fill="#fff" fill-rule="evenodd"/>
          <path id="Path_62810" data-name="Path 62810" d="M231.032,238.886h1.549v7.023h-1.549Zm1.977,7.024v-7.024h1.549l1.222,4.06-.2-4.06h1.5v7.024H235.51L234.288,242l.2,3.912Zm4.209-2.447h1.4v.084a.112.112,0,0,0-.01.048v.047a.766.766,0,0,0-.015.084.687.687,0,0,0,0,.074,1.232,1.232,0,0,0,.173.717.516.516,0,0,0,.385.253h.072a.089.089,0,0,0,.043-.011.581.581,0,0,0,.313-.216.73.73,0,0,0,.139-.469.79.79,0,0,0-.188-.527,2.576,2.576,0,0,0-.467-.422q-.135-.106-.279-.2t-.289-.211a4.13,4.13,0,0,1-.847-.812,2.046,2.046,0,0,1-.385-1.308.051.051,0,0,1,0-.021.079.079,0,0,0,0-.032.049.049,0,0,1,0-.021.051.051,0,0,0,0-.021q0-.053,0-.106c0-.035,0-.07,0-.105a2,2,0,0,1,.587-1.134,1.713,1.713,0,0,1,1.28-.511,2.022,2.022,0,0,1,1.371.517,2.061,2.061,0,0,1,.592,1.635v.148h-1.4v-.2a1.017,1.017,0,0,0-.135-.569.6.6,0,0,0-.3-.253l-.067-.016a.32.32,0,0,0-.058-.005h-.029a.456.456,0,0,0-.3.158.517.517,0,0,0-.139.369.755.755,0,0,0,.207.543,2.714,2.714,0,0,0,.505.406q.115.084.245.163l.265.163a3.545,3.545,0,0,1,.813.733,2.062,2.062,0,0,1,.4,1.271v.179a2.015,2.015,0,0,1-.611,1.7,2.3,2.3,0,0,1-1.419.459l-.2.011a1.658,1.658,0,0,1-1.255-.6,2.428,2.428,0,0,1-.438-1.55q0-.053,0-.106c0-.035,0-.07,0-.105v-.084a.251.251,0,0,0,.01-.074Zm5.152,2.447v-5.631h-1.2v-1.392h3.906v1.392h-1.135v5.631Zm2.977-7.024H246.9v7.023h-1.549Zm2.968,7.024v-5.631h-1.2v-1.392h3.906v1.392h-1.135v5.631Zm2.891-7.024h1.549v5.336a.618.618,0,0,0,.144.432.466.466,0,0,0,.318.169h.067a.037.037,0,0,0,.029-.011.5.5,0,0,0,.317-.19.709.709,0,0,0,.144-.475v-5.262h1.568v4.967a2.243,2.243,0,0,1-.529,1.73,2.1,2.1,0,0,1-1.434.464,2.462,2.462,0,0,1-1.626-.464,1.874,1.874,0,0,1-.548-1.508Zm5.479,7.024v-5.631h-1.2v-1.392h3.906v1.392h-1.135v5.631Zm2.978-7.024h1.549v7.023h-1.549Zm1.977,4.893v-3.132a1.7,1.7,0,0,1,.616-1.492,2.507,2.507,0,0,1,1.491-.438c.077,0,.155,0,.236.011l.236.021a2.262,2.262,0,0,1,1.121.517,1.706,1.706,0,0,1,.505,1.382v3.132a2.523,2.523,0,0,1-.505,1.656,2.037,2.037,0,0,1-1.66.612,1.746,1.746,0,0,1-1.607-.691,2.906,2.906,0,0,1-.433-1.577m1.549-3.206v3.575a.575.575,0,0,0,.168.448.54.54,0,0,0,.37.153h.029a.555.555,0,0,0,.52-.6v-3.575a.555.555,0,0,0-.52-.6h-.029a.55.55,0,0,0-.37.148.573.573,0,0,0-.168.454m2.939,5.336v-7.024h1.549l1.222,4.06-.2-4.06h1.5v7.024h-1.568L267.406,242l.2,3.912Zm4.209-2.447h1.4v.084a.115.115,0,0,0-.01.048v.047a.788.788,0,0,0-.014.084.653.653,0,0,0,0,.074,1.231,1.231,0,0,0,.173.717.516.516,0,0,0,.385.253h.072a.088.088,0,0,0,.043-.011.582.582,0,0,0,.313-.216.73.73,0,0,0,.139-.469.79.79,0,0,0-.187-.527,2.576,2.576,0,0,0-.467-.422q-.135-.106-.279-.2t-.289-.211a4.13,4.13,0,0,1-.847-.812,2.046,2.046,0,0,1-.385-1.308.047.047,0,0,1,.005-.021.082.082,0,0,0,0-.032.05.05,0,0,1,0-.021.052.052,0,0,0,0-.021c0-.035,0-.07,0-.106s0-.07,0-.105a2,2,0,0,1,.587-1.134,1.712,1.712,0,0,1,1.28-.511,2.021,2.021,0,0,1,1.371.517,2.061,2.061,0,0,1,.592,1.635v.148h-1.4v-.2a1.017,1.017,0,0,0-.135-.569.6.6,0,0,0-.3-.253l-.067-.016a.32.32,0,0,0-.058-.005h-.029a.455.455,0,0,0-.3.158.516.516,0,0,0-.14.369.754.754,0,0,0,.207.543,2.7,2.7,0,0,0,.505.406q.116.084.245.163l.265.163a3.548,3.548,0,0,1,.813.733,2.063,2.063,0,0,1,.4,1.271v.179a2.016,2.016,0,0,1-.611,1.7,2.3,2.3,0,0,1-1.419.459l-.2.011a1.659,1.659,0,0,1-1.256-.6,2.43,2.43,0,0,1-.438-1.55q0-.053,0-.106t0-.105v-.084a.255.255,0,0,0,.01-.074Z" transform="translate(-199.716 -206.296)" fill="#fff" fill-rule="evenodd"/>
          <path id="Path_62811" data-name="Path 62811" d="M225.965,158.5l1.47-7.024h1.758l1.431,7.024h-1.566l-.2-1.392H227.7l-.2,1.392Zm1.873-2.668h.816l-.394-3.111Zm2.934,2.668v-7.024h1.546l1.22,4.06-.2-4.06h1.5V158.5H233.27l-1.22-3.913.2,3.913Zm4.548,0v-7.024h1.767a3.675,3.675,0,0,1,1.777.311,1.4,1.4,0,0,1,.519,1.3v3.723a1.675,1.675,0,0,1-.451,1.229,2.059,2.059,0,0,1-1.508.459Zm1.546-1.244a1.659,1.659,0,0,0,.687-.121q.264-.121.264-.617V153.31q0-.411-.23-.532a1.156,1.156,0,0,0-.5-.132h-.221Z" transform="translate(-195.336 -130.943)" fill="#fff" fill-rule="evenodd"/>
          <path id="Path_62812" data-name="Path 62812" d="M346.626,154.506h1.4v.084a.111.111,0,0,0-.01.047v.047a.8.8,0,0,0-.014.084.686.686,0,0,0,0,.074,1.234,1.234,0,0,0,.173.717.515.515,0,0,0,.384.253h.072a.088.088,0,0,0,.043-.011.58.58,0,0,0,.312-.216.731.731,0,0,0,.139-.469.79.79,0,0,0-.187-.527,2.579,2.579,0,0,0-.466-.422q-.134-.105-.279-.2t-.288-.211a4.121,4.121,0,0,1-.845-.812,2.049,2.049,0,0,1-.384-1.308.053.053,0,0,1,0-.021.08.08,0,0,0,0-.031.053.053,0,0,1,0-.021.049.049,0,0,0,0-.021c0-.035,0-.07,0-.105s0-.07,0-.105a2,2,0,0,1,.586-1.134,1.708,1.708,0,0,1,1.277-.511,2.015,2.015,0,0,1,1.369.517,2.063,2.063,0,0,1,.591,1.635v.148h-1.4v-.2a1.018,1.018,0,0,0-.134-.569.6.6,0,0,0-.3-.253l-.067-.016a.32.32,0,0,0-.058-.005h-.029a.454.454,0,0,0-.3.158.517.517,0,0,0-.139.369.755.755,0,0,0,.207.543,2.689,2.689,0,0,0,.5.406q.115.084.245.163l.264.163a3.548,3.548,0,0,1,.812.733,2.064,2.064,0,0,1,.4,1.271v.179a2.017,2.017,0,0,1-.61,1.7,2.293,2.293,0,0,1-1.417.459l-.2.011a1.655,1.655,0,0,1-1.254-.6,2.432,2.432,0,0,1-.437-1.55c0-.035,0-.07,0-.105s0-.07,0-.106v-.084a.254.254,0,0,0,.01-.074Zm5.143,2.446v-5.631h-1.2v-1.392h3.9v1.392h-1.133v5.631Zm2.886,0v-7.024h2.238a1.936,1.936,0,0,1,1.287.411,1.8,1.8,0,0,1,.538,1.35,2.886,2.886,0,0,1-.187,1.118,1.278,1.278,0,0,1-.639.664,1.191,1.191,0,0,1,.557.327.8.8,0,0,1,.2.559l.067,1.708a1.094,1.094,0,0,0,.086.527q.086.137.183.137v.221h-1.364a.519.519,0,0,1-.384-.1.868.868,0,0,1-.086-.49V154.9a.87.87,0,0,0-.125-.517.554.554,0,0,0-.471-.169H356.2v2.742Zm1.546-3.986h.355a.553.553,0,0,0,.408-.2.94.94,0,0,0,.187-.654v-.2q-.1-.612-.341-.712a1.618,1.618,0,0,0-.61-.1Zm2.934,1.856V151.69a1.706,1.706,0,0,1,.615-1.492,2.5,2.5,0,0,1,1.489-.438q.115,0,.235.011l.235.021a2.255,2.255,0,0,1,1.119.517,1.706,1.706,0,0,1,.5,1.381v3.132a2.523,2.523,0,0,1-.5,1.656,2.031,2.031,0,0,1-1.657.612,1.742,1.742,0,0,1-1.6-.691,2.909,2.909,0,0,1-.432-1.576m1.546-3.206v3.575a.575.575,0,0,0,.168.448.538.538,0,0,0,.37.153h.029a.554.554,0,0,0,.519-.6v-3.575a.554.554,0,0,0-.519-.6h-.029a.548.548,0,0,0-.37.148.572.572,0,0,0-.168.453m2.934,5.336v-7.024h1.546l1.22,4.06-.2-4.06h1.5v7.024h-1.566l-1.22-3.912.2,3.912Zm7.381-.591a.768.768,0,0,1-.461.538,1.9,1.9,0,0,1-.932.232H369.5a1.568,1.568,0,0,1-1.008-.475,2.087,2.087,0,0,1-.461-1.54V151.69a2.117,2.117,0,0,1,.48-1.471,2,2,0,0,1,1.556-.533,2.1,2.1,0,0,1,1.489.5,1.956,1.956,0,0,1,.538,1.5v.612h-1.566v-.907a.339.339,0,0,0-.144-.306.564.564,0,0,0-.317-.1h-.048a.693.693,0,0,0-.351.142.4.4,0,0,0-.158.332v3.8a.6.6,0,0,0,.158.443.58.58,0,0,0,.351.179h.115a.6.6,0,0,0,.317-.174.5.5,0,0,0,.144-.374v-.907h-.528v-1.255h2.027v3.775h-1.028Z" transform="translate(-299.625 -129.396)" fill="#fff" fill-rule="evenodd"/>
          <path id="Path_62813" data-name="Path 62813" d="M45.986,60.477V79.992H41.979V69.515a22.951,22.951,0,0,0-.088-2.73,1,1,0,0,0-.492-.695,4.257,4.257,0,0,0-1.79-.234h-.4V63.59a7.143,7.143,0,0,0,4.414-3.113Zm11.921,5.206H53.9c0-.913-.007-1.489-.024-1.723a.968.968,0,0,0-.244-.6.747.747,0,0,0-.586-.243.657.657,0,0,0-.512.23.992.992,0,0,0-.23.588q-.031.364-.03,1.456v3.1a2.41,2.41,0,0,1,.905-1.168,2.657,2.657,0,0,1,1.475-.386,2.916,2.916,0,0,1,1.949.724A3.137,3.137,0,0,1,57.677,69.4a12.93,12.93,0,0,1,.23,2.735v1.55a26.355,26.355,0,0,1-.129,3.047,4.291,4.291,0,0,1-.691,1.846,3.727,3.727,0,0,1-1.539,1.32,5.235,5.235,0,0,1-2.282.469,5.687,5.687,0,0,1-2.654-.543,3.817,3.817,0,0,1-1.6-1.558,5.288,5.288,0,0,1-.654-2.138c-.064-.744-.095-2.2-.095-4.346v-2.7c0-2.319.027-3.873.085-4.655a5.088,5.088,0,0,1,.692-2.22A3.9,3.9,0,0,1,50.7,60.629a5.34,5.34,0,0,1,2.42-.522,5.265,5.265,0,0,1,2.773.662A3.717,3.717,0,0,1,57.44,62.64a8.508,8.508,0,0,1,.468,3.043M53.9,71.752a3.6,3.6,0,0,0-.19-1.414.7.7,0,0,0-1.241-.021,3.456,3.456,0,0,0-.2,1.435v3.52a4.766,4.766,0,0,0,.186,1.686.633.633,0,0,0,.617.395.773.773,0,0,0,.542-.308,2.9,2.9,0,0,0,.281-1.649Z" transform="translate(-33.898 -51.96)" fill="#fff" fill-rule="evenodd"/>
          <path id="Path_62814" data-name="Path 62814" d="M225.423,325.145a2.61,2.61,0,1,1-2.2-.747,2.631,2.631,0,0,1,2.2.747m-12.094,22.724H221.9a1.186,1.186,0,0,1,0,2.372h-8.569a1.186,1.186,0,0,1,0-2.372m-33.969,5.623h.421a1.113,1.113,0,0,1,1.109,1.11V356.9a1.113,1.113,0,0,1-1.109,1.109h-.421a1.113,1.113,0,0,1-1.109-1.109V354.6a1.113,1.113,0,0,1,1.109-1.11m33.969,7.766H221.9a1.186,1.186,0,0,1,0,2.372h-8.569a1.186,1.186,0,0,1,0-2.372m.37-10.191a.767.767,0,0,0-.765.765V354.3l-4.9.5-7.855-.156V350q.3-.033.6-.072c6.855-1.336,11.166-4.419,11.16-11.184a11.852,11.852,0,0,1,.5-4.152c.649-1.709,1.978-2.749,4.321-3.1q0,.135,0,.273a11.8,11.8,0,0,0,.666,3.465l.474-.161a11.309,11.309,0,0,1-.64-3.318q0-.164,0-.322a14.912,14.912,0,0,1,1.7-.069,12.655,12.655,0,0,1-1.606-1.115,8.634,8.634,0,0,1,.21-1,4.651,4.651,0,0,1,.595-1.2,15.485,15.485,0,0,1,1.244-1.633c.359-.417.73-.788,1.087-1.146h0a10.656,10.656,0,0,0,1.56-1.809l-.423-.266a10.345,10.345,0,0,1-1.491,1.721h0c-.364.364-.742.742-1.113,1.173a15.981,15.981,0,0,0-1.285,1.688,5.126,5.126,0,0,0-.657,1.337c-.065.239-.123.489-.171.75a9.827,9.827,0,0,1-.844-.84c-1.048-1.193-1.839-1.773-3.566-1.092-1.855.732-3.306,2.5-4.884,3.7-4.265,3.251-7.778,1.609-11.156-1.747-3.942-3.916-8.271-5.412-13.037-4.878,2.066.581,2.964,3.349,3.4,5.248,1.2,5.284,1.795,10.156,8.693,11.22a6.827,6.827,0,0,0-3.489,1.485c-3.25,2.387-5.361,2.783-8.905,1.786a27.939,27.939,0,0,1,5.279,2.887,17.761,17.761,0,0,0,2.223,1.181,16.916,16.916,0,0,0,5.36,1.273v4.471l-14.332-.284v2.99l26.395-.523,4.9.5v2.468a.767.767,0,0,0,.765.765h7.8a.767.767,0,0,0,.765-.765v-7.88a.767.767,0,0,0-.765-.765Zm-16.507,3.518v-4.439q.875.014,1.76-.042v4.516Zm19.174-32.054a2.833,2.833,0,0,1,.887,4.424,2.833,2.833,0,0,1-.887-4.424m6.766,6.043a2.609,2.609,0,1,1-1.941-1.27,2.631,2.631,0,0,1,1.941,1.27m2.367-9.288a3.029,3.029,0,0,0-3.266,3.549,3.028,3.028,0,0,0,3.266-3.549m-6.579.474a2.833,2.833,0,0,1,.993,4.4,2.833,2.833,0,0,1-.993-4.4" transform="translate(-154.09 -275.998)" fill="#fff" fill-rule="evenodd"/>
        </g>
      </g>
    </g>
  </g>
</svg>
