<svg id="Group_159740" data-name="Group 159740" xmlns="http://www.w3.org/2000/svg" xmlns:xlink="http://www.w3.org/1999/xlink" width="69.049" height="69.065" viewBox="0 0 69.049 69.065">
  <defs>
    <clipPath id="clip-path">
      <rect id="Rectangle_14075" data-name="Rectangle 14075" width="69.049" height="69.066" fill="none"/>
    </clipPath>
  </defs>
  <path id="Path_63197" data-name="Path 63197" d="M91.214,180.768l-5.958,4.612-5.381,7.687,5.573,14.8-.769,1.153,5.573,5.765h17.488l9.993-14.605-.961-9.225-4.228-6.342-8.648-4.228Z" transform="translate(-64.525 -145.718)" fill="#f8cd47"/>
  <g id="Group_159666" data-name="Group 159666">
    <g id="Group_159665" data-name="Group 159665" clip-path="url(#clip-path)">
      <path id="Path_63198" data-name="Path 63198" d="M59.411,15.224H44.019l5.9,24.455,8.334-5.623-3.444-4.879H69.049L67.9,43.275l-4.609-3.386-.282-.007c-2.628,3.192-5.371,5.868-6.867,9.83-2.309,6.113-2.666,12.834-2.626,19.312H43.3l.28-.8L40.1,42.882a.5.5,0,0,1,.838-.19l6.912,8.192a2.678,2.678,0,0,0,4.381-.911c.42-1.345-.109-1.812-.815-2.8a80.934,80.934,0,0,0-6.891-8.645,11.153,11.153,0,0,0-6.61-2.885c-2.766-.18-7.393-.245-9.936.723C24.466,37.7,19.9,44.009,17.637,47.174c-.781,1.093-1.345,1.671-.687,3.1a2.7,2.7,0,0,0,4.253.608c2.31-2.393,4.369-6.492,6.7-8.693.272-.257.46-.507.872-.287l.179.259L25.47,68.227l.28.8H15.608c-.388-.359-.174-1-.217-1.509-.5-5.793-.586-11.723-1.9-17.373C11.619,46.2,9.314,42.451,7.121,38.674L2.3,45.576,0,28.027l16.543-1.006-4.6,6.832,9.491,2.374,3.6-21H9.638L34.573,0ZM33.774,22.457c-7.186.834-6.3,12.031,1.253,11.465,7.5-.562,6.631-12.38-1.253-11.465" transform="translate(0 0.001)" fill="#06b0e3"/>
      <path id="Path_63199" data-name="Path 63199" d="M165.825,301.227h-8.631a3.743,3.743,0,0,0,.417-1.093c.682-3.47.719-7.32,1.406-10.821a2.6,2.6,0,0,1,4.984,0c.688,3.5.724,7.351,1.406,10.821a3.742,3.742,0,0,0,.417,1.093" transform="translate(-126.985 -232.201)" fill="#06b0e3"/>
      <path id="Path_63200" data-name="Path 63200" d="M155.016,116.645c7.884-.915,8.752,10.9,1.253,11.465-7.555.566-8.439-10.631-1.253-11.465" transform="translate(-121.242 -94.188)" fill="#f8cd47"/>
    </g>
  </g>
</svg>
