<svg id="Group_159754" data-name="Group 159754" xmlns="http://www.w3.org/2000/svg" xmlns:xlink="http://www.w3.org/1999/xlink" width="72.867" height="69.835" viewBox="0 0 72.867 69.835">
  <defs>
    <clipPath id="clip-path">
      <rect id="Rectangle_14088" data-name="Rectangle 14088" width="72.867" height="69.835" fill="none"/>
    </clipPath>
  </defs>
  <g id="Group_159695" data-name="Group 159695" clip-path="url(#clip-path)">
    <path id="Path_63291" data-name="Path 63291" d="M224.6,131.015V167.63a1.009,1.009,0,0,1-.252.385l-33.676.147c-.68.071-.983-.52-.972-1.125V124.194a1.34,1.34,0,0,1,.831-1.266h25.908l.225.225v5.841c0,.567,1.559,2.022,2.172,2.022Zm-9.478-2.351a2.7,2.7,0,0,0-1.224-.351c-5.7-.479-12.06.372-17.827.007-1.525.053-2.041,1.957-.457,2.4H214.5a1.209,1.209,0,0,0,.623-2.06m-21.112,5.08a1.85,1.85,0,0,0,.412,3.631c2.751.054,2.3-4.18-.412-3.631m4.793.6a1.222,1.222,0,0,0-.407,2.282l21.794.086a1.214,1.214,0,0,0-.307-2.4Zm-4.793,4.79c-2.082.42-1.672,3.846.646,3.644,2.5-.219,1.975-4.172-.646-3.644m4.792.6a1.223,1.223,0,0,0-.406,2.283l21.794.086a1.213,1.213,0,0,0-.307-2.4Zm-4.639,4.791c-2.78.4-1.312,4.779,1.189,3.44a1.851,1.851,0,0,0-1.189-3.44m4.639.6a1.223,1.223,0,0,0-.406,2.284l21.789.081c1.56-.181,1.206-2.375-.3-2.4Zm-5.6,8a1.851,1.851,0,0,0,2.5-2.727c-1.811-1.71-4.192,1.093-2.5,2.727m5.751-2.609a1.211,1.211,0,0,0-.557,2.282l21.789.081c1.625-.189,1.167-2.5-.452-2.4ZM194.16,155.3c-2.792.413-1.271,5.043,1.283,3.391a1.858,1.858,0,0,0-1.283-3.391m3.973,2.772a2.7,2.7,0,0,0,1.224.351c6.51.548,13.783-.424,20.374-.006,2.03-.263,2.035-2.327-.152-2.545-6.32-.63-13.644.472-20.071-.007-1.194-.2-2.444,1.3-1.374,2.207m-3.822,2.618c-2.854.32-1.627,4.89,1.038,3.447a1.847,1.847,0,0,0-1.038-3.447m4.184.752c-1.316.8-.776,2.322.717,2.366l20.67,0c1.5-.021,1.865-2.221.3-2.4Z" transform="translate(-151.73 -98.334)" fill="#06b0e3"/>
    <path id="Path_63292" data-name="Path 63292" d="M116.742,78.3h-6.664a3.813,3.813,0,0,0-2.92,2.92V92.827H91.209c-.631,0-1.759-.844-1.726-1.569l.074-20a1.705,1.705,0,0,1,1.123-1.123l24.975.043a2.644,2.644,0,0,1,1.087,1.459Zm-15.457,2.727c.294.509-.193,4.818.1,5.964a1.84,1.84,0,0,0,2.334,1.126c2-.627.884-5.275,1.193-6.893.082-.429.7-.767.961-1.136a3.472,3.472,0,1,0-5.58.058,7.893,7.893,0,0,0,.99.881" transform="translate(-71.58 -56.103)" fill="#f8cd47"/>
    <path id="Path_63293" data-name="Path 63293" d="M128.284,11.565h-4.343V9.244c0-2.217-2.555-4.547-4.712-4.723-2.325-.19-5.771,1.739-5.771,4.273v2.77h-4.492V8.795c0-5.259,5.894-9.217,10.855-8.758,3.7.342,8.464,4.46,8.464,8.309Z" transform="translate(-87.166 0)" fill="#f8cd47"/>
    <path id="Path_63294" data-name="Path 63294" d="M237.714,55.289l2.182-.139,4.25-5.035,3.649-.1c.479-.355.707-.984,1.248-1.3a2.93,2.93,0,0,1,4.122,3.823,2.9,2.9,0,0,1-5.217-.107l-2.64.037c-.219.064-.525.463-.7.648-.738.778-3.274,4.563-4.123,4.563h-2.771Z" transform="translate(-190.156 -38.632)" fill="#f8cd47"/>
    <path id="Path_63295" data-name="Path 63295" d="M15.51,151.373v2.4l-2.032.139L9.82,158.487c-1.028,1.053-3.169.18-4.244.548-.16.055-.665.85-1.008,1.089-2.921,2.036-5.985-1.825-3.861-4.31,1.444-1.69,3.771-1.115,4.869.627l2.79.027c.536-.574,3.893-5.094,4.224-5.094Z" transform="translate(0 -121.089)" fill="#06b0e3"/>
    <path id="Path_63296" data-name="Path 63296" d="M15.76,57.515c-.128.417-2.845.3-3.292-.153l-4-4.833L5.833,52.5c-1.225,2.57-5.247,2.1-5.5-.813a2.884,2.884,0,0,1,5.5-1.578l3.785.075L13.88,55.2l1.88.142Z" transform="translate(-0.25 -38.687)" fill="#06b0e3"/>
    <path id="Path_63297" data-name="Path 63297" d="M5.728,109.127H15.762v2.4H5.728a8.927,8.927,0,0,1-.614.958A2.882,2.882,0,0,1,.33,110.708a2.828,2.828,0,0,1,5.4-1.581" transform="translate(-0.252 -85.882)" fill="#f8cd47"/>
    <path id="Path_63298" data-name="Path 63298" d="M342.061,129.218h-5.316l-.225-.225v-5.316Z" transform="translate(-269.195 -98.934)" fill="#06b0e3"/>
  </g>
</svg>
