<svg id="Group_159738" data-name="Group 159738" xmlns="http://www.w3.org/2000/svg" xmlns:xlink="http://www.w3.org/1999/xlink" width="69.561" height="70.199" viewBox="0 0 69.561 70.199">
  <defs>
    <clipPath id="clip-path">
      <rect id="Rectangle_14074" data-name="Rectangle 14074" width="69.561" height="70.199" fill="none"/>
    </clipPath>
  </defs>
  <g id="Group_159663" data-name="Group 159663" clip-path="url(#clip-path)">
    <path id="Path_63192" data-name="Path 63192" d="M109.373,9.664l1.593-1.75c.523-4.971,4.28-7.077,8.991-5.643,1.215.37,1.522.337,1.382,1.7-.424,4.132-5.14,6.727-9.006,5.926-.515.542-1.773,1.706-1.714,2.475.038.493.447,1.489.574,2.089.1.486.137,2.09.456,2.19.433.135,1.536.114,2.112.222a20.3,20.3,0,0,1,16.629,18.549c.107,1.76.246,2.971-1.015,4.291-1.321,1.383-3.355,1.9-4.893,3.045-3.894,2.888-4,7.272-4.826,11.674-5.668,3.046-13.317,3.21-18.818-.2l-.339-2.695,4.822,2.179c.142-.591.117-1.217.3-1.8.417-1.306,2.39-2.855,1.476-4.57-.766-1.437-2.753-.965-4.035-1.1-1.633-.173-2.06-1.965-4.21-2.03-.356-.011-.779.234-1.054.146-.116-.037-1.37-1.382-1.766-1.671-1.694-1.237-4.779-2.1-5.667-4.139-.447-1.026-.02-4.489.214-5.726A20.084,20.084,0,0,1,109.06,16.67c0-2.615-1.171-5.032-2.372-7.281-4.628-.281-8.475-4.315-7.206-9.067,4.035-1.1,8.119.62,8.624,5.082.072.636-.081,1.384.052,1.972.148.656,1.14,1.507,1.215,2.288m4.41,16.759c.952,1.01,3.05.463,4.277.782.847.22,1.106.9,1.789,1.324a4.452,4.452,0,0,0,5.532-1.065,17.337,17.337,0,0,0-10.02-7.834c-.269.662-.206,1.336-.466,2.017-.485,1.271-2.61,3.185-1.111,4.775M92.566,35.653a3.828,3.828,0,0,0,2.945-.235c.438-.286.832-.979,1.264-1.227,1.923-1.1,5.12.383,7.155-.316.79-.272.856-1.166.775-1.878-.229-2.024-3.234-2.861-3.425-4.055-.15-.938.658-1.384,1.062-2.037,1-1.615.451-3.235-.594-4.655-5.371,2.647-8.789,8.479-9.181,14.4m26.263-3.066c-1.311.188-2.372,1.368-3.846,1.6-1.564.247-3.235-.728-4.576.094-1.725,1.057.215,3.318.183,4.728-.013.558-.5,1.048-.586,1.561-.641,3.97,5.319,6.165,8.4,4.513,2.056-1.1.85-3.028,1.12-4.641.226-1.353,1.564-1.88,1.88-3.1a7.525,7.525,0,0,0-.229-3.917c-.546-.93-1.364-.98-2.349-.839" transform="translate(-75.524 0)" fill="#f8cd47"/>
    <path id="Path_63193" data-name="Path 63193" d="M24.041,145.622H12.133a40.388,40.388,0,0,0-6.769-7.863c-2.893-2.692-4.2-2.806-5.069-7.228C-.869,124.6,1.526,111.6,5.453,106.877c1.1-1.327,2.1-1.135,2.1.688,0,2.069-1.457,5.341-2.023,7.483-.5,1.881-.712,4.375-1.265,6.051-.321.973-.882,1.168-.755,2.479.172,1.782,2.663,4.045,3.754,5.588,1.115,1.576,1.814,3.234,2.791,4.837.656,1.077,1.873.667,1.411-.791-.9-2.854-3.95-5.954-5.7-8.306-1.832-2.461.067-3.443,2.442-2.6,3.586,1.276,4.327,5.531,6.88,7.752,1.328,1.156,3.126,1.655,4.491,2.669,4.012,2.98,3.763,8.4,4.463,12.893" transform="translate(0 -88.793)" fill="#06b0e3"/>
    <path id="Path_63194" data-name="Path 63194" d="M280.2,145.622c.588-3.609.516-8.539,2.954-11.444,1.783-2.125,4.08-2.447,6-4.117,2.553-2.221,3.294-6.476,6.88-7.752,2.375-.845,4.274.137,2.442,2.6-1.751,2.352-4.8,5.452-5.7,8.306-.462,1.458.755,1.867,1.411.791.976-1.6,1.679-3.259,2.791-4.837,1.086-1.541,3.583-3.824,3.754-5.588.127-1.311-.434-1.506-.755-2.479-.552-1.676-.767-4.17-1.265-6.051-.566-2.142-2.023-5.413-2.023-7.483,0-1.823,1-2.016,2.1-.688,3.919,4.711,6.32,17.733,5.158,23.654-.87,4.432-2.174,4.537-5.069,7.228a40.368,40.368,0,0,0-6.769,7.863Z" transform="translate(-234.683 -88.793)" fill="#06b0e3"/>
    <path id="Path_63195" data-name="Path 63195" d="M62.213,358.686c4.632.257,9.886-.468,14.445-.043.679.063,1.413.232,1.481,1.01-.228,3.064.276,6.492,0,9.51-.082.894-.281,1.086-1.167,1.167-4.646.426-9.931-.339-14.646,0a.993.993,0,0,1-1.163-1.016c-.352-2.977.275-6.611,0-9.661.013-.581.565-.865,1.056-.967m10.111,2.951a.765.765,0,0,0,.039,1.458c.536.176,3.211.228,3.409-.347.1-.39.066-.974-.4-1.11a17.52,17.52,0,0,0-3.052,0" transform="translate(-51.133 -300.265)" fill="#06b0e3"/>
    <path id="Path_63196" data-name="Path 63196" d="M262.462,358.686c4.632.257,9.886-.468,14.445-.043.679.063,1.413.232,1.481,1.01-.228,3.064.276,6.492,0,9.51-.082.894-.281,1.086-1.167,1.167-4.646.426-9.931-.339-14.646,0a.993.993,0,0,1-1.163-1.016c-.352-2.977.275-6.611,0-9.661.013-.581.565-.865,1.056-.967m1.707,2.952a.863.863,0,0,0-.268,1.3c.315.319,2.657.309,3.161.2a.771.771,0,0,0,.159-1.493,17.5,17.5,0,0,0-3.052,0" transform="translate(-218.85 -300.265)" fill="#06b0e3"/>
  </g>
</svg>
