<svg id="Group_159745" data-name="Group 159745" xmlns="http://www.w3.org/2000/svg" xmlns:xlink="http://www.w3.org/1999/xlink" width="59.976" height="66.705" viewBox="0 0 59.976 66.705">
  <defs>
    <clipPath id="clip-path">
      <rect id="Rectangle_14085" data-name="Rectangle 14085" width="59.976" height="66.705" fill="none"/>
    </clipPath>
  </defs>
  <g id="Group_159693" data-name="Group 159693" clip-path="url(#clip-path)">
    <path id="Path_63273" data-name="Path 63273" d="M74.814,116.03v5.4a.887.887,0,0,0,.533.533H85.47v41.024c0,.217-.725,1.176-1.058,1.226l-45.6.071c-.514.138-1.443-.974-1.443-1.3V121.967H47.49a.887.887,0,0,0,.533-.533v-5.4Zm-23.487,3.229c-.769.222-.748,1.474.111,1.5H71.4a.774.774,0,0,0-.153-1.539Zm-8.68,4.564c-1.066.74-.428,1.7.726,1.651H79.463c1.352.1,1.81-1.332.458-1.688Zm.155,4.57a.831.831,0,0,0-.657,1.037c.162.524.761.572,1.228.611H79.463c1.574.061,1.754-1.618.153-1.687Zm0,4.567c-1.173.412-.75,1.7.417,1.649h36.4c1.482,0,1.482-1.692,0-1.689Zm31.4,7.275c-3.738.324-6.943-2.191-10.574-2.442a12.253,12.253,0,0,0-8.189,2.326l-6.812.116c.049-.622.007-1.325-.717-1.491a29.571,29.571,0,0,0-4.693-.04c-.436.04-.8.061-1.022.5v15.3a.959.959,0,0,0,.874.5,32.913,32.913,0,0,0,4.87-.007c.725-.136.755-.907.688-1.519,1.053-.044,1.46-.125,2.285.532,2.369,1.886,4.618,4.435,7.014,6.229a2.988,2.988,0,0,0,4.005-.078,7.817,7.817,0,0,0,.731-1.478c.1-.072.735-.121,1.035-.258,1.43-.655,1.351-1.92,1.671-2.134.188-.126.69-.089,1-.217,1.435-.589,1.316-1.889,1.621-2.11.09-.065.74-.131,1.033-.26a2.266,2.266,0,0,0,1.523-2.51h3.655c.028.519-.152,1.4.312,1.743s4.16.309,4.945.242c.415-.035.975-.072,1.178-.5l-.005-13.931a.769.769,0,0,0-.573-.493,45.3,45.3,0,0,0-5.292.029c-.773.223-.548,1.335-.564,1.948" transform="translate(-31.43 -97.596)" fill="#06b0e3"/>
    <path id="Path_63274" data-name="Path 63274" d="M112.924,42.629H77.608V30.756h35.316Zm-26.29-7.961c-.272-.195-.734-1.44-1.042-1.773-1.251-1.353-1.9,1.417-2.4,1.774-.48.345-2.191.248-2.469.8-.548,1.1,1.085,1.757,1.263,2.546.2.876-.429,2.3.279,2.769.759.5,1.889-.652,2.6-.711.621-.052,1.86,1.14,2.6.769.889-.424.119-1.987.413-2.944.215-.7,2.381-1.9.89-2.7-.54-.288-1.764-.271-2.131-.534m10.351,0c-.272-.195-.734-1.44-1.042-1.773-1.251-1.353-1.9,1.417-2.4,1.774-.48.345-2.191.248-2.469.8-.548,1.1,1.085,1.757,1.263,2.546.2.876-.429,2.3.279,2.769.759.5,1.889-.652,2.6-.711.621-.052,1.86,1.14,2.6.769.864-.412.171-1.915.378-2.827.177-.785,1.518-1.22,1.34-2.307-.148-.9-2.027-.671-2.545-1.043m10.351,0c-.272-.195-.734-1.44-1.042-1.773-1.251-1.353-1.9,1.417-2.4,1.774a17.083,17.083,0,0,1-2.023.489c-1.734.721.644,2.093.817,2.86.2.876-.429,2.3.279,2.769.759.5,1.888-.652,2.6-.711.621-.052,1.86,1.14,2.6.769.864-.412.171-1.915.378-2.827.178-.785,1.518-1.22,1.34-2.307-.148-.9-2.027-.671-2.545-1.043" transform="translate(-65.278 -25.87)" fill="#06b0e3"/>
    <path id="Path_63275" data-name="Path 63275" d="M85.47,9.3H80.6V4.353c0-.041.122-.141.116-.28a.856.856,0,0,0-.944-.719l-37.228.084c-.533.353-.3.6-.3.914V9.3H37.367V1.309c0-.217.725-1.175,1.058-1.226l45.6-.072c.514-.138,1.443.974,1.443,1.3Z" transform="translate(-31.43 0)" fill="#06b0e3"/>
    <path id="Path_63276" data-name="Path 63276" d="M10.808,75.2c.03.178.361.533.533.533h3.73v4.186l-.228.228H0C.254,78.936,3.695,74.832,3.655,74,3.605,72.956.372,69.427,0,68.124H10.58l.228.228Z" transform="translate(0 -57.301)" fill="#f8cd47"/>
    <path id="Path_63277" data-name="Path 63277" d="M297.718,68.124l-3.668,5.861,3.668,6.165H282.876l-.228-.228V75.735h3.729a.887.887,0,0,0,.533-.533v-6.85l.228-.228Z" transform="translate(-237.742 -57.301)" fill="#f8cd47"/>
    <path id="Path_63278" data-name="Path 63278" d="M113.14,277.954c-.27.695-.879,1.239-1.2,1.922-.819,1.746-.816,4.391,1.726,4.324,2.222-.058,5.2-2.555,6.854-3.926l8.071,7.121c.246,1.03-.86,1.389-1.706.94-1.323-.7-2.821-2.745-4.158-3.6-1-.387-1.6.411-.984,1.288.643.746,3.95,3.074,4.156,3.765.262.879-.758,1.3-1.5,1.041l-4.352-3.719-.435-.16A.818.818,0,0,0,119,288.3c.581.6,4.316,3.507,4.331,4.033-.14.875-.923.9-1.671.841.361,1.108-.922,1.083-1.046,1.237-.1.126.115.581-.238.9a1.411,1.411,0,0,1-1.835-.162l-7.916-7h-2.359v-10.2Z" transform="translate(-91.068 -233.794)" fill="#f8cd47"/>
    <path id="Path_63279" data-name="Path 63279" d="M158.95,265.478v7.611h-4.643l-8.252-7.277-.8.049c-1.2,1.1-5.3,4.547-6.907,4.009-.612-.546.166-2.012.538-2.615,2.009-3.263,6.578-4.765,10.233-4.2,2.2.341,4.285,1.6,6.479,2.045a24.154,24.154,0,0,0,3.354.375" transform="translate(-116.175 -221.165)" fill="#f8cd47"/>
    <rect id="Rectangle_14083" data-name="Rectangle 14083" width="3.197" height="12.939" transform="translate(12.33 42.79)" fill="#06b0e3"/>
    <rect id="Rectangle_14084" data-name="Rectangle 14084" width="3.197" height="11.721" transform="translate(44.449 42.181)" fill="#06b0e3"/>
    <path id="Path_63280" data-name="Path 63280" d="M113.275,57.591a1.86,1.86,0,0,0,1.829,1.37c-.008.467-.56.623-.693,1.056a5.539,5.539,0,0,0-.069,1.378,2.241,2.241,0,0,0-2.433,0,5.473,5.473,0,0,0-.069-1.377c-.133-.433-.685-.588-.693-1.056a1.9,1.9,0,0,0,1.813-1.276Z" transform="translate(-93.488 -48.441)" fill="#f8cd47"/>
    <path id="Path_63281" data-name="Path 63281" d="M243.58,57.591a1.86,1.86,0,0,0,1.829,1.37c-.008.467-.56.623-.693,1.056a5.539,5.539,0,0,0-.069,1.378,2.241,2.241,0,0,0-2.433,0,5.472,5.472,0,0,0-.069-1.377c-.133-.433-.685-.588-.693-1.056a1.9,1.9,0,0,0,1.813-1.276Z" transform="translate(-203.091 -48.441)" fill="#f8cd47"/>
    <path id="Path_63282" data-name="Path 63282" d="M178.427,57.591a1.86,1.86,0,0,0,1.829,1.37c-.008.467-.56.623-.693,1.056a5.538,5.538,0,0,0-.069,1.378,2.241,2.241,0,0,0-2.433,0,5.473,5.473,0,0,0-.069-1.377c-.133-.433-.685-.588-.693-1.056a1.9,1.9,0,0,0,1.813-1.276Z" transform="translate(-148.289 -48.441)" fill="#f8cd47"/>
  </g>
</svg>
