<svg id="Group_159744" data-name="Group 159744" xmlns="http://www.w3.org/2000/svg" xmlns:xlink="http://www.w3.org/1999/xlink" width="52.474" height="66.814" viewBox="0 0 52.474 66.814">
  <defs>
    <clipPath id="clip-path">
      <rect id="Rectangle_14082" data-name="Rectangle 14082" width="52.474" height="66.814" fill="none"/>
    </clipPath>
  </defs>
  <g id="Group_159691" data-name="Group 159691" clip-path="url(#clip-path)">
    <path id="Path_63266" data-name="Path 63266" d="M0,58.408V3.143A3.877,3.877,0,0,1,3.285,0L51.709.061l.738.8.027,55.455c-.2.685-.734.893-1.4.975L3,57.285a6.854,6.854,0,0,0-3,1.123m27.082-56A4.4,4.4,0,0,0,24.592,3.56c-3.436,2.849-6.506,6.957-9.923,9.92-3.071,3.09,1.206,8.34,4.9,6.705l1.812,1.822c-1.151,1.223-2.669,2.125-2.361,4.056L6.453,38.8a3.608,3.608,0,0,0,5.136,4.717c1.733-1.2,11.756-12.443,12.645-12.486.182-.009.38.139.669.1,1.538-.2,1.983-1.515,3.177-2.294l1.759,1.628c.132.3-.226,1.122-.226,1.6,0,3.037,4.215,5.932,6.793,3.567,3.039-3.579,7.512-6.82,10.41-10.411a3.511,3.511,0,0,0,.068-4.686c-1.251-1.58-2.978-2.691-5.038-1.821L31.507,8.518c-.072-.762.284-1.3.2-2.146-.191-1.868-2.7-4.1-4.622-3.966M15.191,46.56a1.2,1.2,0,0,0,.386,2.349H36.963a1.21,1.21,0,0,0,.59-2.274Zm3.633,4.751a1.194,1.194,0,0,0,.247,2.349l14.849-.109a1.186,1.186,0,0,0,0-2.163Z" transform="translate(0 0)" fill="#06b0e3"/>
    <path id="Path_63267" data-name="Path 63267" d="M51.4,319.619v6.358c0,.305-.952.89-1.32.776l-46.8-.023a3.581,3.581,0,0,1-1.53-6.529,5.922,5.922,0,0,1,1.235-.582Z" transform="translate(-0.114 -259.953)" fill="#f8cd47"/>
    <path id="Path_63268" data-name="Path 63268" d="M122.991,54.651,133.12,64.779,124.668,73.1l-10.128-10Z" transform="translate(-93.158 -44.449)" fill="#f8cd47"/>
    <path id="Path_63269" data-name="Path 63269" d="M96.917,25.514c.963-.2,3.072,1.91,1.914,2.9L88.779,38.484c-1.314,1.293-3.892-1.369-2.5-2.643,3.29-2.911,6.294-6.878,9.627-9.657a3.46,3.46,0,0,1,1.014-.671" transform="translate(-69.846 -20.74)" fill="#f8cd47"/>
    <path id="Path_63270" data-name="Path 63270" d="M182.526,111.578c1.1-.243,2.923,1.637,2.059,2.761L174.39,124.546c-1.182,1.052-3.522-1.134-2.649-2.369L182,111.9a1.144,1.144,0,0,1,.523-.319" transform="translate(-139.526 -90.731)" fill="#f8cd47"/>
    <path id="Path_63271" data-name="Path 63271" d="M57.065,149.755l1.725,1.6L46.921,163.235a1.193,1.193,0,0,1-1.684-1.683Z" transform="translate(-36.575 -121.799)" fill="#f8cd47"/>
    <path id="Path_63272" data-name="Path 63272" d="M116.164,127.3l3.4,3.274-1.624,1.6-3.4-3.274Z" transform="translate(-93.158 -103.535)" fill="#f8cd47"/>
  </g>
</svg>
