<svg id="Group_159752" data-name="Group 159752" xmlns="http://www.w3.org/2000/svg" xmlns:xlink="http://www.w3.org/1999/xlink" width="68.216" height="69.065" viewBox="0 0 68.216 69.065">
  <defs>
    <clipPath id="clip-path">
      <rect id="Rectangle_14077" data-name="Rectangle 14077" width="68.216" height="69.065" fill="none"/>
    </clipPath>
  </defs>
  <g id="Group_159670" data-name="Group 159670" clip-path="url(#clip-path)">
    <path id="Path_63210" data-name="Path 63210" d="M63.068,151.819l-.653,1.425,8.742,4.767c.473.547,1.328.951,1.693,1.575a2.323,2.323,0,0,1-2.576,3.428L59.231,157.22l-.562,1.408,8.556,4.556c.471.763,1.444,1.221,1.532,2.207a2.022,2.022,0,0,1-2.6,2.169c-3.269-1.089-6.628-3.452-9.808-4.544a.936.936,0,0,0-.654-.094l-.571,1.193,8.451,4.047a3.042,3.042,0,0,1-2.2,2.78c-1.174.245-3-.558-4.165-.967-1.647-.579-3.254-1.3-4.873-1.951A3.819,3.819,0,0,0,49,161.91a3.925,3.925,0,0,0-4.546-4.692c1.533-4.361-2.735-7.24-6.326-4.55-1.937-3.811-5.835-2.681-7.815.427a23.614,23.614,0,0,1-3.2-4.606l10.139-16.543,7.2,2.748c-1.1,1.984-2.438,3.907-3.433,5.945-.667,1.367-1.154,2.641-.18,4.066,1.637,2.392,5.68,1.659,7.579-.077.969-.885,2.615-3.3,3.515-3.875a26.961,26.961,0,0,1,3.838-1.144,4.877,4.877,0,0,1,1.472.2,103.579,103.579,0,0,1,19.619,14.2,2.368,2.368,0,0,1-2.175,4.021Z" transform="translate(-20.999 -102.221)" fill="#06b0e3"/>
    <path id="Path_63211" data-name="Path 63211" d="M124.677,131.426l8.913,14.992a26.214,26.214,0,0,1-4.875,4.892l-9.671-8.065c-3.1-1.359-8.29-6.149-11.407-6.642a14.873,14.873,0,0,0-5.6,1.234c-1.148.63-2.848,3.263-3.995,4.248-1.906,1.639-6.3,1.525-5.153-1.6l4.474-7.925a67.348,67.348,0,0,1,8.942-2.108,17.675,17.675,0,0,1,4.46-.386c3.24.454,6.872,2.08,10.16,2.645Z" transform="translate(-71.817 -100.727)" fill="#06b0e3"/>
    <path id="Path_63212" data-name="Path 63212" d="M.006,76.331l15.9,9.612L4.037,105.6.574,103.261l-.144-.282c-.269-3.4-.08-6.825-.135-10.24-.005-.336-.148-.647-.154-.983C.054,86.617.107,81.469.006,76.331" transform="translate(-0.005 -59.135)" fill="#06b0e3"/>
    <path id="Path_63213" data-name="Path 63213" d="M248.127,76.331c-.1,5.091-.05,10.191-.135,15.283-.052,3.121.029,6.4-.142,9.522a13.626,13.626,0,0,1-.291,2.125L244.1,105.6,232.23,85.943Z" transform="translate(-179.913 -59.135)" fill="#06b0e3"/>
    <path id="Path_63214" data-name="Path 63214" d="M78.562,39.133l30.81-.036c1.884.223,1.856,3.316-.146,3.414H78.955c-1.86-.01-2.064-3.042-.394-3.378" transform="translate(-59.983 -30.289)" fill="#f8cd47"/>
    <path id="Path_63215" data-name="Path 63215" d="M25.865,7.247H22.241a7.3,7.3,0,0,0-3.874-3.374A8.737,8.737,0,0,0,16.7,3.41H0V0H17.267c.156,0,1.338.312,1.6.387a10.437,10.437,0,0,1,7,6.861" transform="translate(0 0.001)" fill="#f8cd47"/>
    <path id="Path_63216" data-name="Path 63216" d="M213.853,0V3.411h-16.7a8.737,8.737,0,0,0-1.669.463,7.3,7.3,0,0,0-3.874,3.374h-3.624a10.391,10.391,0,0,1,6.568-6.72A18.535,18.535,0,0,1,196.586,0Z" transform="translate(-145.638)" fill="#f8cd47"/>
    <path id="Path_63217" data-name="Path 63217" d="M210.017,65.027l-5.646,3.378c-3.43-.109-7.167.55-10.411-.752a10.415,10.415,0,0,1-5.971-6.464h3.624a7.394,7.394,0,0,0,4.119,3.413,10.753,10.753,0,0,0,1.85.424Z" transform="translate(-145.638 -47.405)" fill="#f8cd47"/>
    <path id="Path_63218" data-name="Path 63218" d="M39.061,61.19a10.441,10.441,0,0,1-5.872,6.421c-3.274,1.357-7.038.687-10.51.795l-5.646-3.378H29.468a10.746,10.746,0,0,0,1.85-.424,7.254,7.254,0,0,0,4.119-3.413Z" transform="translate(-13.196 -47.405)" fill="#f8cd47"/>
    <path id="Path_63219" data-name="Path 63219" d="M62.635,226.412c2.519-.431,3.546,1.5,2.51,3.647a35.077,35.077,0,0,1-4.822,5.837c-1.913,1.508-4.8,1.4-4.322-1.622.143-.891,4.306-6,5.176-6.9a2.534,2.534,0,0,1,1.457-.959" transform="translate(-43.345 -175.358)" fill="#06b0e3"/>
    <path id="Path_63220" data-name="Path 63220" d="M83.8,251.048c2.542-.426,3.346,1.9,2.2,3.9-.7,1.224-3.957,5.15-5.183,5.618-1.818.694-3.6-.4-3.165-2.456.4-1.914,4.193-6.735,6.152-7.063" transform="translate(-60.107 -194.452)" fill="#06b0e3"/>
    <path id="Path_63221" data-name="Path 63221" d="M109.741,271.938a2.14,2.14,0,0,1,2.234,2.956,23.912,23.912,0,0,1-2.906,4.2c-1.4,1.282-3.784.509-3.692-1.407.064-1.322,1.963-3.974,2.9-4.925a2.875,2.875,0,0,1,1.462-.823" transform="translate(-81.635 -210.658)" fill="#06b0e3"/>
    <path id="Path_63222" data-name="Path 63222" d="M43.479,220.2a2.089,2.089,0,0,1,2.421,2.566L42.03,227.71a2.03,2.03,0,0,1-2.916-1.91c.109-1.517,2.826-5.353,4.365-5.6" transform="translate(-30.298 -170.571)" fill="#06b0e3"/>
  </g>
</svg>
