<svg id="Group_159742" data-name="Group 159742" xmlns="http://www.w3.org/2000/svg" xmlns:xlink="http://www.w3.org/1999/xlink" width="69.103" height="68.563" viewBox="0 0 69.103 68.563">
  <defs>
    <clipPath id="clip-path">
      <rect id="Rectangle_14079" data-name="Rectangle 14079" width="69.103" height="68.563" fill="none"/>
    </clipPath>
  </defs>
  <g id="Group_159680" data-name="Group 159680" clip-path="url(#clip-path)">
    <path id="Path_63232" data-name="Path 63232" d="M66.715,173.925c.184.237-3.805,3.484-4.048,4.406-.814,3.089,3.152,4.189,5.524,3.612,2.156-.525,3.233-2.213,4.8-3.577l2.734.147a22.413,22.413,0,0,0,4.027,3.031c1.479.778,3.1,1.049,4.557,1.767,3.542,1.744,6.967,4.317,10.539,6.078,2.378,1.743.558,5.192-2.355,3.972-2.317-.97-4.824-3.1-7.154-4.17-1.022-.47-1.7.339-1.059,1.061l5.894,3.517a2.278,2.278,0,0,1-2.032,3.943c-1.517-.282-4.411-2.788-6.029-3.383a.717.717,0,0,0-.926,1.076c.812.992,3.4,1.592,4.347,2.858a2.257,2.257,0,0,1-2.134,3.606,3,3,0,0,1-1.051-.421c-.824-.4-2.569-1.721-3.248-1.9-.533-.142-1.083,0-1.081.628,0,1.027,2.615,1.338,2.922,2.827a2.292,2.292,0,0,1-2.246,2.993c-1.413-.036-3.766-2.11-5.156-2.657-.139-.2-.022-.363.047-.548.5-1.338,1.893-2.805,2.394-4.227a3.741,3.741,0,0,0-3.976-5.08,3.849,3.849,0,0,0-4.273-4.933c-.6.1-1.011.488-1.6.512a3.706,3.706,0,0,0-5.745-1.9,3.706,3.706,0,0,0-5.148-2.425c-1.888.768-2.441,3.248-3.6,4.776A25.1,25.1,0,0,1,48.1,185.1l8.033-14.057c.228-.118,1.809.748,2.207.891a75.47,75.47,0,0,0,8.38,1.989" transform="translate(-38.646 -137.432)" fill="#06b0e3"/>
    <path id="Path_63233" data-name="Path 63233" d="M161.234,187.177l-8.966-5.219c.9-.123,4.273-.455,4.279-1.617.006-1.329-2.007-.222-2.715-.054-3.734.887-7.366-.391-10.31-2.671-.534-.414-1.656-1.7-2.2-1.768-1.058-.141-2.55-.044-3.654-.109-1.922,1.616-3.27,4.1-6.169,3.755-.9-.108-2.482-.8-2.141-1.916,1.7-1.552,3.353-3.759,5.116-5.18,1.387-1.117,5.941-2.244,7.819-2.622,3.112-.627,3.624.524,6.222,1.231s4.593-.016,6.9-1.16l8.164,13.91Z" transform="translate(-103.904 -136.276)" fill="#06b0e3"/>
    <path id="Path_63234" data-name="Path 63234" d="M129.873,61.413a11.147,11.147,0,0,1,11.574,7.021c1.194,3.094.941,4.515-2.074,6.009a19.247,19.247,0,0,1-16.48-.1c-3.016-1.557-3.027-3.1-1.79-6.109a11.337,11.337,0,0,1,8.77-6.818" transform="translate(-96.69 -49.293)" fill="#f8cd47"/>
    <path id="Path_63235" data-name="Path 63235" d="M11.421,133.462a2.7,2.7,0,0,1,1.308.234,33.22,33.22,0,0,1,3.794,2.235,2.632,2.632,0,0,1,.629,2.392l-9.9,17.156a2.244,2.244,0,0,1-2.6.556,31.975,31.975,0,0,1-3.924-2.253c-.986-.944-.845-1.984-.336-3.1,2.443-5.361,6.723-10.737,9.318-16.123a2.333,2.333,0,0,1,1.708-1.1" transform="translate(0 -107.233)" fill="#06b0e3"/>
    <path id="Path_63236" data-name="Path 63236" d="M280.606,153.707a29.753,29.753,0,0,1-4.034,2.363,2.27,2.27,0,0,1-2.531-.475l-9.889-17.023a2.576,2.576,0,0,1,.55-2.607,33.292,33.292,0,0,1,3.794-2.235,2.315,2.315,0,0,1,2.828.611l9.887,17.321a2.558,2.558,0,0,1-.606,2.045" transform="translate(-212.146 -107.267)" fill="#06b0e3"/>
    <path id="Path_63237" data-name="Path 63237" d="M227.667,74.215c.858-2.819-.666-5.936-2.327-8.162a8.538,8.538,0,0,1,14.173,1.833c1.8,3.657.577,4.915-2.906,6.078a14.954,14.954,0,0,1-8.94.251" transform="translate(-181.069 -50.667)" fill="#f8cd47"/>
    <path id="Path_63238" data-name="Path 63238" d="M62.616,74.215a15.021,15.021,0,0,1-8.94-.251c-3.483-1.164-4.7-2.421-2.906-6.078a8.538,8.538,0,0,1,14.173-1.833c-1.661,2.226-3.185,5.343-2.328,8.162" transform="translate(-40.135 -50.667)" fill="#f8cd47"/>
    <path id="Path_63239" data-name="Path 63239" d="M154.347.059c6.5-.881,8.146,8.489,2.1,10.042-7.032,1.807-9.012-9.106-2.1-10.042" transform="translate(-120.577 0)" fill="#f8cd47"/>
    <path id="Path_63240" data-name="Path 63240" d="M122.4,267.382a2.309,2.309,0,0,1,2.418,3.3l-5.1,8.728a2.317,2.317,0,0,1-3.833-2.363c1.774-2.5,3.178-6.477,5.04-8.783a2.644,2.644,0,0,1,1.47-.884" transform="translate(-93.042 -214.827)" fill="#06b0e3"/>
    <path id="Path_63241" data-name="Path 63241" d="M95.158,256.849a2.308,2.308,0,0,1,2.617,3.058L93.2,267.83a2.3,2.3,0,0,1-3.765-2.589,62.072,62.072,0,0,1,4.319-7.446,2.46,2.46,0,0,1,1.406-.947" transform="translate(-71.687 -206.353)" fill="#06b0e3"/>
    <path id="Path_63242" data-name="Path 63242" d="M241.741,15.983c5.132-.2,5.619,7.6.687,8.052-5.814.531-5.9-7.849-.687-8.052" transform="translate(-191.198 -12.84)" fill="#f8cd47"/>
    <path id="Path_63243" data-name="Path 63243" d="M77.1,15.984c5.142-.2,5.629,7.6.686,8.051-5.788.529-5.9-7.846-.686-8.051" transform="translate(-58.909 -12.841)" fill="#f8cd47"/>
    <path id="Path_63244" data-name="Path 63244" d="M70.437,246.4a2.335,2.335,0,0,1,2.616,2.913c-.448,1.716-2.789,4.412-3.526,6.179-1.939,1.659-4.5.2-3.836-2.365a51.636,51.636,0,0,1,3.25-5.721,2.846,2.846,0,0,1,1.5-1.006" transform="translate(-52.7 -197.967)" fill="#06b0e3"/>
    <path id="Path_63245" data-name="Path 63245" d="M150.033,292.773a2.292,2.292,0,0,1,2.642,3.082,49.4,49.4,0,0,1-3.406,5.858,2.281,2.281,0,0,1-3.948-2.037,45.741,45.741,0,0,1,3.451-6.107,2.278,2.278,0,0,1,1.261-.8" transform="translate(-116.71 -235.217)" fill="#06b0e3"/>
  </g>
</svg>
