<svg id="Group_159751" data-name="Group 159751" xmlns="http://www.w3.org/2000/svg" xmlns:xlink="http://www.w3.org/1999/xlink" width="64.158" height="68.94" viewBox="0 0 64.158 68.94">
  <defs>
    <clipPath id="clip-path">
      <rect id="Rectangle_14096" data-name="Rectangle 14096" width="64.158" height="68.941" fill="none"/>
    </clipPath>
  </defs>
  <g id="Group_159713" data-name="Group 159713" clip-path="url(#clip-path)">
    <path id="Path_63326" data-name="Path 63326" d="M87.159,8.366c.14,9.034.247,18.8-5.575,26.243C78.331,38.77,73.447,41.4,68.416,42.8c-5.558-1.637-10.619-4.566-13.931-9.408-4.96-7.252-4.771-16.568-4.7-25.022A33.236,33.236,0,0,0,68.412,0c5.369,4.416,11.711,7.741,18.748,8.366M72.5,18.194V11.83a1.534,1.534,0,0,0-1.366-1.373,35.414,35.414,0,0,0-5.472.013c-.361.056-1.057.54-1.057.876v6.605l-.242.242h-6.6c-.336,0-.82.7-.877,1.057a35.414,35.414,0,0,0-.013,5.472c.067.572.638,1.366,1.212,1.366H64.6v6.847c0,.193.783.673,1.056.716a35.528,35.528,0,0,0,5.472.013A1.534,1.534,0,0,0,72.5,32.29v-6.2h6.364c.573,0,1.145-.794,1.212-1.366a35.414,35.414,0,0,0-.013-5.472c-.056-.361-.54-1.057-.877-1.057Z" transform="translate(-38.828)" fill="#f8cd47"/>
    <path id="Path_63327" data-name="Path 63327" d="M47.662,198.234c3.427-1.628,7.121-2.774,10.673-4.148,2.42-.937,7.178-3.491,9.542-3.34,1.152.074,5.941,1.153,6.768,1.771a3.274,3.274,0,0,1,.635,4.5c-1.888,2.628-5.439.317-7.909.183-2-.108-5.06,1.973-7.029,2.558-.869,1.1-.217,2.2,1.218,1.906,1.461-.3,4.126-2.182,5.519-2.227,1.636-.053,4.073,1.231,5.932,1.12,2.871-.171,4.73-2.395,5.25-5.07a10.894,10.894,0,0,0,4.524-1.276c4.795-2.357,9.392-5.792,14.22-8.172a3.227,3.227,0,0,1,3.372,5.35c-6.643,4.7-12.829,10.47-19.478,15.113a22.433,22.433,0,0,1-14.79,4.378c-3.063-.195-6.1-1.127-9.178-1.294a41.844,41.844,0,0,0-8.869.495c-.135.019-.4-.166-.4-.247Z" transform="translate(-37.19 -145.001)" fill="#06b0e3"/>
    <path id="Path_63328" data-name="Path 63328" d="M8.216,232.4a5.132,5.132,0,0,1,.169.878c.4,5.129-.324,10.779,0,15.964l-.41,1.039H.242L0,250.037V232.4Z" transform="translate(0 -181.337)" fill="#06b0e3"/>
  </g>
</svg>
