<svg id="Group_159743" data-name="Group 159743" xmlns="http://www.w3.org/2000/svg" xmlns:xlink="http://www.w3.org/1999/xlink" width="62.121" height="62.661" viewBox="0 0 62.121 62.661">
  <defs>
    <clipPath id="clip-path">
      <rect id="Rectangle_14080" data-name="Rectangle 14080" width="62.121" height="62.662" fill="none"/>
    </clipPath>
  </defs>
  <g id="Group_159683" data-name="Group 159683" clip-path="url(#clip-path)">
    <path id="Path_63246" data-name="Path 63246" d="M115.529,261.329a13.981,13.981,0,0,1,14.78,16.033,3.735,3.735,0,0,1-3.286,2.853H106.09a3.724,3.724,0,0,1-3.305-2.96,13.975,13.975,0,0,1,12.744-15.927" transform="translate(-85.468 -217.554)" fill="#06b0e3"/>
    <path id="Path_63247" data-name="Path 63247" d="M150.306,169.888c9.581-1.088,10.689,13.218,1.592,14-9.293.8-10.411-13-1.592-14" transform="translate(-120.123 -141.401)" fill="#06b0e3"/>
    <path id="Path_63248" data-name="Path 63248" d="M267.724,282.114a15.34,15.34,0,0,0-2.478-6.954,10.384,10.384,0,0,1,16.361,1.152c1.328,2.012,2.513,4.917-.677,5.792Z" transform="translate(-220.847 -226.224)" fill="#06b0e3"/>
    <path id="Path_63249" data-name="Path 63249" d="M15.574,282.114,2.368,282.1c-3.189-.875-2-3.78-.677-5.792a10.384,10.384,0,0,1,16.361-1.152,15.22,15.22,0,0,0-2.478,6.954" transform="translate(-0.275 -226.224)" fill="#06b0e3"/>
    <path id="Path_63250" data-name="Path 63250" d="M17.642,56.991l-4.575,3.762,1.463,5.961c-.1.24-.337.435-.6.276l-5.072-3.2c-.8.243-4.826,3.319-5.256,3.241-.239-.044-.39-.421-.328-.654l1.483-5.626L.26,57.1c-.828-.88.525-.9,1.2-.944a40.843,40.843,0,0,0,4.864-.242l2.265-5.659a.435.435,0,0,1,.729.171l2.1,5.413,6.047.468a.392.392,0,0,1,.175.688" transform="translate(0 -41.733)" fill="#f8cd47"/>
    <path id="Path_63251" data-name="Path 63251" d="M268.277,66.9c-.294-.465,1.456-5.229,1.435-6.128l-4.53-3.743c-.2-.154-.284-.557-.06-.706l6.189-.421,2.263-5.66c.209-.172.566-.2.677.1l2.229,5.539,6.136.5a.491.491,0,0,1,.033.423c-.132.45-3.435,2.767-4.048,3.349-.37.351-.721.563-.539,1.155l1.443,5.19c-.027.405-.285.7-.683.446l-4.976-3.163-5,3.168a.6.6,0,0,1-.569-.05" transform="translate(-220.634 -41.728)" fill="#f8cd47"/>
    <path id="Path_63252" data-name="Path 63252" d="M141.448,50.156a.5.5,0,0,1,.423.045c.423.262,1.729,4.991,2.324,5.7.348.243,4.093.2,4.876.261.615.049,1.939.125,1.18.928l-4.48,3.672,1.481,5.753a.514.514,0,0,1-.334.534c-.473.117-4.518-3.195-5.246-3.244-.6-.041-4.248,2.807-5.073,3.2-.265.156-.5-.037-.6-.28l1.466-5.958c-.531-.851-4.522-3.359-4.7-3.971-.084-.3.123-.435.4-.5,1.758-.4,4.089.024,5.872-.393.529-.642,1.993-5.607,2.409-5.74" transform="translate(-110.529 -41.738)" fill="#f8cd47"/>
    <path id="Path_63253" data-name="Path 63253" d="M284.169,200.544a5.275,5.275,0,0,1,5.65,7.655c-2.66,5.132-10.773,2.7-9.824-3.434a5.413,5.413,0,0,1,4.174-4.221" transform="translate(-233.064 -166.923)" fill="#06b0e3"/>
    <path id="Path_63254" data-name="Path 63254" d="M33.362,200.514c7.874-1.068,8.107,10.621.865,10.483-6.48-.123-6.865-9.67-.865-10.483" transform="translate(-24.231 -166.893)" fill="#06b0e3"/>
    <path id="Path_63255" data-name="Path 63255" d="M222.084,31.463a1,1,0,0,1,1.1,1.6l-3.769,3.373a1.006,1.006,0,0,1-1.521-1.142c.176-.683,3.231-2.832,3.792-3.6a.928.928,0,0,1,.4-.224" transform="translate(-181.384 -26.164)" fill="#f8cd47"/>
    <path id="Path_63256" data-name="Path 63256" d="M121.132,31.416a1.23,1.23,0,0,1,1.033.168c.964,1.12,2.65,2.112,3.567,3.2a1.013,1.013,0,0,1-1.228,1.6l-3.655-3.236a1.073,1.073,0,0,1,.282-1.734" transform="translate(-100.355 -26.119)" fill="#f8cd47"/>
    <path id="Path_63257" data-name="Path 63257" d="M180.087.034a.99.99,0,0,1,1.29.912,25.305,25.305,0,0,1-.029,3.985,1.012,1.012,0,0,1-1.981-.221,24.778,24.778,0,0,1,.01-3.88.965.965,0,0,1,.71-.8" transform="translate(-149.284 0)" fill="#f8cd47"/>
  </g>
</svg>
