<svg id="Group_159747" data-name="Group 159747" xmlns="http://www.w3.org/2000/svg" xmlns:xlink="http://www.w3.org/1999/xlink" width="74.902" height="66.198" viewBox="0 0 74.902 66.198">
  <defs>
    <clipPath id="clip-path">
      <rect id="Rectangle_14089" data-name="Rectangle 14089" width="74.902" height="66.198" fill="none"/>
    </clipPath>
  </defs>
  <g id="Group_159703" data-name="Group 159703">
    <g id="Group_159702" data-name="Group 159702" clip-path="url(#clip-path)">
      <path id="Path_63299" data-name="Path 63299" d="M69.492,47.222a27.9,27.9,0,0,1-1.861-2.163,38.124,38.124,0,0,0,1.593-5.688A33.032,33.032,0,0,0,29.737.925a43.853,43.853,0,0,0-6.309,2.013C23.03,2.9,21.671,1.228,21.19.855c-1.709-1.322-3.04-1.023-4.608.29C11.231,5.625,6.445,11.954,1.128,16.6A3.239,3.239,0,0,0,.9,21.29L23.494,43.876l-8.675,8.539a29.717,29.717,0,0,1-7.3-20.649L4.251,28.5c-.223.143-.2.287-.228.512a33.094,33.094,0,0,0,38.1,36.765,36.164,36.164,0,0,0,11.541-4.14c.061-.225-.06-.246-.146-.372a21.127,21.127,0,0,0-2.6-2.447,29.4,29.4,0,0,1-33.366-3.644L58.793,13.933a29.41,29.41,0,0,1,5.869,28.234l-1.891-1.9L57.815,24.42l-3.451-1.1L41.482,36.445l3.5,2.154a6.768,6.768,0,0,0,1.4,6.173c.769.813,2.886,1.528,2.214,2.8-.94,1.779-3.673-.831-4.434-1.769-1.511-1.861-1.628-3.552-1.861-5.865L33.083,49.15l-2.1-2.067L28.858,49.1c1.752,2.127,3.663,4.383,6.45,2.13.8-.646,2.208-2.515,2.9-2.9a.341.341,0,0,1,.3-.07A3.809,3.809,0,0,0,39.618,49.6,18.936,18.936,0,0,0,44,52.353c1.844.491,4.335.263,6.245.74L61.539,64.538a3.5,3.5,0,0,0,4.533-.082c2.3-2.715,5.79-5.213,7.959-7.943,2.918-3.674-2.24-6.819-4.539-9.29M47.317,20l-.491-.04-9.957-3.427L26.324,5.979a24.3,24.3,0,0,1,8.14-1.963,29.423,29.423,0,0,1,20.459,6.2c.246.2,1.155.834,1.109,1.088Z" transform="translate(0 0)" fill="#06b0e3"/>
      <path id="Path_63300" data-name="Path 63300" d="M30.747,15.254,14.753,31.22,37.414,53.881l9.137-9.137c-1.62-1.213-4.328-1.992-4.587-4.326A3.444,3.444,0,0,1,45,36.5c2.215-.173,4.634,2.152,6.565,3.1L52.95,38.2l-4.163-5.057Z" transform="translate(-11.763 -12.162)" fill="#f8cd47"/>
    </g>
  </g>
  <text id="_" data-name="`" transform="matrix(0.698, 0.716, -0.716, 0.698, 17.49, 23.735)" fill="#06b0e3" font-size="16" font-family="Rupee"><tspan x="0" y="0">`</tspan></text>
</svg>
