<svg id="Group_159741" data-name="Group 159741" xmlns="http://www.w3.org/2000/svg" xmlns:xlink="http://www.w3.org/1999/xlink" width="61.965" height="69.064" viewBox="0 0 61.965 69.064">
  <defs>
    <clipPath id="clip-path">
      <rect id="Rectangle_14076" data-name="Rectangle 14076" width="61.965" height="69.065" fill="none"/>
    </clipPath>
  </defs>
  <g id="Group_159668" data-name="Group 159668" clip-path="url(#clip-path)">
    <path id="Path_63201" data-name="Path 63201" d="M14.57,201.637a16.409,16.409,0,1,0,32.818,0h14.57v4.244l-5.1,1.932a31.336,31.336,0,0,1-3.188,7.758l2.144,5.025-5.872,5.872-5-2.165a28.927,28.927,0,0,1-7.731,3.152l-2,5.143-8.484-.064-2.061-5.124a24.545,24.545,0,0,1-7.494-3.1l-4.992,2.17-6.023-5.881,2.144-5.025A30.777,30.777,0,0,1,5.1,207.813L0,205.881v-4.244Z" transform="translate(0 -163.532)" fill="#06b0e3"/>
    <path id="Path_63202" data-name="Path 63202" d="M117.348,201.637a14.146,14.146,0,1,1-28.291,0Z" transform="translate(-72.224 -163.532)" fill="#06b0e3"/>
    <path id="Path_63203" data-name="Path 63203" d="M11.161,130.807a10.309,10.309,0,0,1,9.5,6.262c.464,1.1,1.183,2.734-.609,2.886-5.7-.4-12.07.5-17.7,0-1.773-.159-.978-2-.513-3.072a10.36,10.36,0,0,1,9.314-6.076" transform="translate(-1.023 -106.088)" fill="#f8cd47"/>
    <path id="Path_63204" data-name="Path 63204" d="M300.815,44.256a25.555,25.555,0,0,1,3.781-.02.835.835,0,0,1,.778.778l.016,23.9a.819.819,0,0,1-.647.767,25.347,25.347,0,0,1-3.926-.027c-.484-.107-.583-.457-.654-.9l-.017-23.471a1.255,1.255,0,0,1,.669-1.028" transform="translate(-243.425 -35.827)" fill="#f8cd47"/>
    <path id="Path_63205" data-name="Path 63205" d="M164.6,4.438c-2.257,1.716-4.22,3.86-6.362,5.731-.678.592-1.441,1.5-2.409,1.131L145.452,6.866,134.5,15.02a1.14,1.14,0,0,1-.888-2.029l11.423-8.526.748.041,10.375,4.435,7.163-6.556c-.716-.17-1.469.145-1.982-.562A1.093,1.093,0,0,1,161.806.16,25.4,25.4,0,0,1,166.37.05c1.086.129,1.124.822,1.04,1.755a24.8,24.8,0,0,1-.906,4.043c-.848,1.294-2.656-.059-1.906-1.41" transform="translate(-108.016 0)" fill="#f8cd47"/>
    <path id="Path_63206" data-name="Path 63206" d="M184.043,80.186a25.58,25.58,0,0,1,3.781-.02.827.827,0,0,1,.757.658l.038,17.235a.819.819,0,0,1-.647.767,24.636,24.636,0,0,1-3.806-.006c-.509-.08-.664-.314-.753-.8l-.037-16.8a1.255,1.255,0,0,1,.669-1.028" transform="translate(-148.72 -64.968)" fill="#f8cd47"/>
    <path id="Path_63207" data-name="Path 63207" d="M31.177,68.329c7.031-.952,7.959,9.529,1.646,10.274-7.347.868-8.069-9.4-1.646-10.274" transform="translate(-21.733 -55.367)" fill="#f8cd47"/>
    <path id="Path_63208" data-name="Path 63208" d="M242.429,98.9a25.606,25.606,0,0,1,3.781-.02.826.826,0,0,1,.756.658l.038,13.7a.842.842,0,0,1-.532.74,26.492,26.492,0,0,1-3.921.021.75.75,0,0,1-.726-.689l-.064-13.38a1.256,1.256,0,0,1,.669-1.029" transform="translate(-196.073 -80.145)" fill="#f8cd47"/>
    <path id="Path_63209" data-name="Path 63209" d="M125.083,126.556a22.331,22.331,0,0,1,3.78-.022.828.828,0,0,1,.725.549l.07,8.574a.843.843,0,0,1-.532.741,31.3,31.3,0,0,1-4.069.027c-.54-.105-.6-.725-.645-1.194a54.167,54.167,0,0,1,.006-7.644c.05-.481.14-.914.667-1.031" transform="translate(-100.792 -102.566)" fill="#f8cd47"/>
  </g>
</svg>
