<svg id="Group_159749" data-name="Group 159749" xmlns="http://www.w3.org/2000/svg" xmlns:xlink="http://www.w3.org/1999/xlink" width="64.942" height="60.127" viewBox="0 0 64.942 60.127">
  <defs>
    <clipPath id="clip-path">
      <rect id="Rectangle_14091" data-name="Rectangle 14091" width="64.943" height="60.127" fill="none"/>
    </clipPath>
  </defs>
  <g id="Group_159705" data-name="Group 159705" clip-path="url(#clip-path)">
    <path id="Path_63304" data-name="Path 63304" d="M0,190.412c4.516-2.3,8.8-5.1,13.241-7.566,3.816-2.118,6.534-3.738,11.11-2.361,4.463,2.072,9.323,3.7,13.732,5.84a5.37,5.37,0,0,1,2.285,1.629,3.726,3.726,0,0,1-3.33,5.8l-10.281-1.014a1.254,1.254,0,0,0-.262,2.42c3.232.23,6.608.883,9.824,1.05,3.1.16,5.018-.725,6.621-3.379.216-.358.155-.908.7-1.044l17.924-5.273c3.5-.537,4.691,3.83,1.6,5.373-7.851,3.508-15.535,8.8-23.387,12.133a15.357,15.357,0,0,1-7.645,1.162l-25.9-3.969Z" transform="translate(0 -145.116)" fill="#06b0e3"/>
    <path id="Path_63305" data-name="Path 63305" d="M106.217,87.263A9.867,9.867,0,0,0,118.455,88.6c.626-.39,1.141-.92,1.758-1.309,4.621,2.595,9.22,10.122,2.03,12.781-5.333.1-11.3.579-16.613.217a5.426,5.426,0,0,1-4.123-1.822c-3.32-4.086,1.239-9.1,4.71-11.208" transform="translate(-80.917 -70.361)" fill="#f8cd47"/>
    <path id="Path_63306" data-name="Path 63306" d="M227.1.1c11.383-1.54,11.614,15.752.4,14.748C219.145,14.1,218.931,1.2,227.1.1" transform="translate(-178.277 0)" fill="#f8cd47"/>
    <path id="Path_63307" data-name="Path 63307" d="M134.395,12.929c7.672-.974,11.927,8.308,5.9,13.153a7.392,7.392,0,0,1-11.893-7.253,7.6,7.6,0,0,1,5.989-5.9" transform="translate(-103.404 -10.368)" fill="#f8cd47"/>
    <path id="Path_63308" data-name="Path 63308" d="M42.684.111c11.18-1.512,11.435,15.752.4,14.748-8.575-.78-8.531-13.649-.4-14.748" transform="translate(-29.526 -0.014)" fill="#f8cd47"/>
    <path id="Path_63309" data-name="Path 63309" d="M226.411,87.378c.991-3.529-.6-7.03-2.842-9.7-.707-.841-2.074-1.777-2.6-2.471-.151-.2-.267-.3-.209-.587.27-.259,1.551.871,1.9,1.074,4.039,2.375,9.038,2.263,12.4-1.2,3.422,1.93,7.852,6.9,4.956,10.906-.508.7-2.079,1.982-2.947,1.982Z" transform="translate(-177.988 -60.062)" fill="#f8cd47"/>
    <path id="Path_63310" data-name="Path 63310" d="M11.9,87.378A5.661,5.661,0,0,1,8.951,85.4c-2.9-4,1.534-8.978,4.956-10.906a12.567,12.567,0,0,0,1.583,1.323A10.329,10.329,0,0,0,25.7,76.1c.7-.364,1.3-1.026,1.852-1.338a.871.871,0,0,1,.658-.138c.058.286-.058.389-.209.587-.39.512-1.555,1.335-2.114,1.945-2.526,2.762-4.372,6.4-3.331,10.225Z" transform="translate(-6.461 -60.062)" fill="#f8cd47"/>
  </g>
</svg>
