<svg id="Group_159755" data-name="Group 159755" xmlns="http://www.w3.org/2000/svg" xmlns:xlink="http://www.w3.org/1999/xlink" width="56.563" height="55.666" viewBox="0 0 56.563 55.666">
  <defs>
    <clipPath id="clip-path">
      <rect id="Rectangle_14093" data-name="Rectangle 14093" width="56.563" height="55.666" fill="none"/>
    </clipPath>
  </defs>
  <g id="Group_159707" data-name="Group 159707" clip-path="url(#clip-path)">
    <path id="Path_63311" data-name="Path 63311" d="M327,68.86c-.506.705-1.4.766-1.765-.084l-.087-6.425a1.285,1.285,0,0,0-.336-.225h-1.852v5.387h-4.826V59.152a6.179,6.179,0,0,1,.235-.887,2.4,2.4,0,0,1,3.866-.745,3.539,3.539,0,0,1,.724,2.811c1.655-.065,3.388-.155,4.041,1.683Z" transform="translate(-270.432 -48.322)" fill="#f8cd47"/>
    <path id="Path_63312" data-name="Path 63312" d="M37.933,0V50.615H0V10.662H10.157a1.1,1.1,0,0,0,.5-.5V0ZM24.906,7.529a10.059,10.059,0,0,1-4.761-1.692,10.058,10.058,0,0,1-4.761,1.692c.389,2.044.116,4.987,1.453,6.665.554.7,2.387,2.246,3.245,2.361.772.1,2.873-1.739,3.372-2.361,1.351-1.686,1.083-4.605,1.453-6.665M9.734,22.809a.891.891,0,0,0-.028,1.771H30.585c1.256-.144.959-1.8-.227-1.8Zm-.61,6.563a1.105,1.105,0,0,0,.579.261c2.261.282,5.093-.225,7.417,0A.906.906,0,0,0,17,27.84c-2.237.172-4.875-.255-7.063-.007-.833.095-1.374.875-.808,1.539M20.06,27.86a.907.907,0,0,0-.137,1.766l10.661,0c1.1-.13,1.134-1.645-.227-1.8-3.183-.357-7.045.245-10.3.027M9.124,34.422a1.027,1.027,0,0,0,.689.264l20.662,0a.889.889,0,0,0,.358-1.716L9.817,32.881a.947.947,0,0,0-.693,1.542m.495,3.535A.932.932,0,0,0,9.43,39.67l14.758.061c1.175-.135,1.056-1.664-.112-1.8Zm21.545,1.512a.924.924,0,0,0-.588-1.529,21.892,21.892,0,0,0-3.466,0,.9.9,0,0,0,0,1.783,22.538,22.538,0,0,0,3.477.011,1.051,1.051,0,0,0,.577-.265M9.619,43.007a.9.9,0,0,0,.2,1.775H30.473c1.239-.213,1.238-1.589,0-1.8Z" fill="#06b0e3"/>
    <path id="Path_63313" data-name="Path 63313" d="M70.12,84.3H32.187V81.045h34.9V33.684h2.862l.168.168Z" transform="translate(-27.361 -28.634)" fill="#f8cd47"/>
    <rect id="Rectangle_14092" data-name="Rectangle 14092" width="4.826" height="17.171" transform="translate(47.697 20.987)" fill="#f8cd47"/>
    <path id="Path_63314" data-name="Path 63314" d="M14.593,14.593H6.736l7.856-7.856Z" transform="translate(-5.726 -5.727)" fill="#06b0e3"/>
    <path id="Path_63315" data-name="Path 63315" d="M324.527,266.48l-2.076,7.072-2.076-7.072Z" transform="translate(-272.34 -226.526)" fill="#f8cd47"/>
    <path id="Path_63316" data-name="Path 63316" d="M126.206,58.261a.9.9,0,0,1,1.09,1.314,28.1,28.1,0,0,1-2.184,2.193.783.783,0,0,1-.864.089,9.594,9.594,0,0,1-1.361-1.332c-.413-.794.244-1.668,1.079-1.3.258.113.429.545.736.465s1.15-1.317,1.5-1.424" transform="translate(-104.355 -49.484)" fill="#f8cd47"/>
  </g>
</svg>
