<svg id="Group_159746" data-name="Group 159746" xmlns="http://www.w3.org/2000/svg" xmlns:xlink="http://www.w3.org/1999/xlink" width="60.348" height="73.725" viewBox="0 0 60.348 73.725">
  <defs>
    <clipPath id="clip-path">
      <rect id="Rectangle_14087" data-name="Rectangle 14087" width="60.348" height="73.725" fill="none"/>
    </clipPath>
  </defs>
  <g id="Group_159694" data-name="Group 159694" clip-path="url(#clip-path)">
    <path id="Path_63283" data-name="Path 63283" d="M27.1,59.69c-.113,1.985.9,2.925,2.817,3.067,6.7.5,14.035-.37,20.8-.025A2.6,2.6,0,0,0,53.08,59.69h7.584V83.363c-1.5-.15-1.529,1.254-2.222,2.211a4.592,4.592,0,0,1-1.975,1.572c-.567.238-1.753.313-2.013.89a26.35,26.35,0,0,0-.252,2.648c-.337,7.163.359,13.334,6.461,17.883v7.972H19.517V59.69Zm-.91,6.821c-3.818,3.753,1.845,9.608,5.736,5.966,4.011-3.754-1.817-9.819-5.736-5.966m16.677,1.1c-1.174.263-1.22,1.751-.042,1.907l15.352-.154c.7-.839.22-1.67-.818-1.79Zm.166,5.8a1.169,1.169,0,0,0-1.076,1.008c.075.455.364.908.868.893l15.351-.153c.7-1,.14-1.661-.983-1.787-4.379-.489-9.686.334-14.161.038m-14.514.493a7.445,7.445,0,0,0-6.1,4.217c-.922,2-1.467,5.56,1.534,5.881a72.864,72.864,0,0,0,10.173.006c3.014-.265,2.636-3.542,1.765-5.64a7.512,7.512,0,0,0-7.373-4.464m14.023,5.459c-1.084.719-.556,1.767.611,1.9,4.454-.37,9.682.483,14.042,0,1.123-.125,1.687-.786.983-1.787ZM23.666,89.517a1.527,1.527,0,0,0-.76,1.335,47.893,47.893,0,0,0-.006,6.931c.1,1.034.3,1.434,1.37,1.531a53.321,53.321,0,0,0,7.114,0c.832-.069,1.263-.146,1.368-1.05a52.948,52.948,0,0,0,0-7.579c-.07-.779-.218-1.106-1.053-1.2-2.468-.286-5.507.191-8.037.037m13.716.967a1.236,1.236,0,0,0-.911,1.012l.381.737,15.026.157c1.242-.166,1.167-1.769-.327-1.944ZM49.326,96.61a2.381,2.381,0,0,0-1-.368,72.638,72.638,0,0,0-10.492,0c-.686.077-1.243.295-1.36,1.047.108.538.319.82.868.893,3.4.455,7.8-.363,11.311,0a.965.965,0,0,0,.675-1.578M23.5,103.042c-.483.144-.565,1.053-.6,1.493a49.857,49.857,0,0,0,0,6.614,2.761,2.761,0,0,0,.327,1.284,1.43,1.43,0,0,0,.881.248,54.323,54.323,0,0,0,7.761,0c.679-.088.83-.435.889-1.045a53.93,53.93,0,0,0,0-7.748.916.916,0,0,0-.887-.886Zm13.719.969a.964.964,0,0,0,.285,1.9c5.243-.455,11.5.6,16.626,0,1.424-.166,1.31-1.793.167-1.944Zm0,5.8a.964.964,0,0,0,.285,1.9c3.472-.3,7.586.39,10.979,0,1.492-.171,1.421-1.811,0-1.94Z" transform="translate(-15.318 -46.848)" fill="#06b0e3"/>
    <path id="Path_63284" data-name="Path 63284" d="M204.439,178.828a6.906,6.906,0,0,0,2.119,2.8c.774.593,1.7.736,2.4,1.31.188,4.04.6,8.411-1.127,12.19-1.614,3.523-5.248,6.313-8.581,8.124-3.32-2.124-6.946-4.624-8.529-8.394-1.556-3.707-1.129-8.157-.946-12.085a7.532,7.532,0,0,0,4.632-3.942Zm-12.68,10a1.033,1.033,0,0,0-.051,1.176l5.244,5.233.645.159,9.543-9.5a.96.96,0,0,0-1.262-1.1l-8.43,8.14L193,188.714c-.28-.353-.991-.146-1.239.114" transform="translate(-148.792 -140.354)" fill="#f8cd47"/>
    <path id="Path_63285" data-name="Path 63285" d="M11.783,40.228v2.255H3.15a3.016,3.016,0,0,0-.741.387L2.255,102c-.048,1.061.66,1.131,1.535,1.206h41.8a2.176,2.176,0,0,0,1.687-.571V94.822l2.1,1.206c.167.123.147.3.169.476a47.52,47.52,0,0,1-.046,7.058,2.632,2.632,0,0,1-1.694,1.691L2.174,105.3A2.42,2.42,0,0,1,.08,103.684L0,42.4a2.762,2.762,0,0,1,2.5-2.17Z" transform="translate(0 -31.573)" fill="#06b0e3"/>
    <path id="Path_63286" data-name="Path 63286" d="M75.235,0A4.926,4.926,0,0,1,80,3.376c.224.728.169,2.194.765,2.457.958.422,5.008-.311,5.5.31a.852.852,0,0,1,.153.491,44.592,44.592,0,0,1,0,6.458c-.025.272.013.535-.236.731l-21.734-.08v-7.6c.491-.621,4.54.112,5.5-.31.59-.26.568-2.018.892-2.813A5.028,5.028,0,0,1,75.235,0" transform="translate(-50.58 0)" fill="#f8cd47"/>
    <path id="Path_63287" data-name="Path 63287" d="M187.3,68.089h-2.259V43.046c0-.127-.758-.564-.887-.564h-8.633V40.228H184.8a5.35,5.35,0,0,1,1.365.409A4.313,4.313,0,0,1,187.3,42.08Z" transform="translate(-137.755 -31.573)" fill="#06b0e3"/>
    <path id="Path_63288" data-name="Path 63288" d="M43.618,134.71c3.326-.235,6.505,2.772,5.69,6.165-1.275-.014-10.179.312-10.582-.087-.338-.335-.114-1.478,0-1.944a5.525,5.525,0,0,1,4.9-4.134" transform="translate(-30.254 -105.718)" fill="#f8cd47"/>
    <path id="Path_63289" data-name="Path 63289" d="M50.237,207.152v5.959H44.509l-.242-.242v-5.475l.242-.242Z" transform="translate(-34.743 -162.584)" fill="#f8cd47"/>
    <rect id="Rectangle_14086" data-name="Rectangle 14086" width="5.97" height="5.798" transform="translate(9.524 58.096)" fill="#f8cd47"/>
    <path id="Path_63290" data-name="Path 63290" d="M57.469,98.605c-1.9,1.851-5.028-1.009-3.116-3.111,1.955-2.149,5.3.988,3.116,3.111" transform="translate(-42.19 -74.383)" fill="#f8cd47"/>
  </g>
</svg>
