<svg id="Group_159739" data-name="Group 159739" xmlns="http://www.w3.org/2000/svg" xmlns:xlink="http://www.w3.org/1999/xlink" width="93.986" height="59.141" viewBox="0 0 93.986 59.141">
  <defs>
    <clipPath id="clip-path">
      <rect id="Rectangle_14078" data-name="Rectangle 14078" width="93.986" height="59.141" fill="none"/>
    </clipPath>
  </defs>
  <g id="Group_159679" data-name="Group 159679" clip-path="url(#clip-path)">
    <path id="Path_63223" data-name="Path 63223" d="M132.232,98.757a7.034,7.034,0,0,1-.232-1.2c-.743-9.44,1.708-18.878-2.092-27.913-1.475-3.508-4.229-7.256-4.9-10.985a17.5,17.5,0,0,1-.28-2.577c.188-1.21,1.562-.5,2.514-.588.774-.069,2.262-.925,2.628-.831.343.088.689.725,1.052.95a6.392,6.392,0,0,0,5.036.81,5.538,5.538,0,0,0,3.561,4.713,30.744,30.744,0,0,0,8.034.325c1.679-.265,1.99-2.559.732-3.134-1.96-.9-8.665,1.247-8.991-2.061-.124-1.256.947-1.98,2.083-2.084,1.866-.171,8.135-.225,9.73.22a6.261,6.261,0,0,1,3.669,8.766c-.662,1.339-2.019,2.34-2.9,3.5a27.726,27.726,0,0,0-6.194,15.87c-.284,4.879.571,10.778.021,15.465-.038.321-.027.567-.342.761Z" transform="translate(-91.408 -39.616)" fill="#06b0e3"/>
    <path id="Path_63224" data-name="Path 63224" d="M254.321,25.382a1.36,1.36,0,0,0,.1.67c1.37,4.311,5.156,9.716,6.189,13.889a2.926,2.926,0,0,1,.108,1.105h-4.3l-5.844-12.134-5.408,12.134h-3.971c-.111,0-.363-.369-.343-.553l6.41-15.112H234.133l-.331-.331V20.418a3.689,3.689,0,0,1,.552-.552h24.49c2.055,0,3.259,2.791,2.063,4.489a3.9,3.9,0,0,1-1.4,1.027Z" transform="translate(-171.356 -14.56)" fill="#f8cd47"/>
    <path id="Path_63225" data-name="Path 63225" d="M42.217,20.087v4.964l-.331.331H31.075l-.236.45,6.527,14.675c.05.185-.244.54-.333.54H33.06L27.324,28.911,21.587,41.048H17.616c-.089,0-.383-.355-.333-.54L23.9,25.383H18.5a5.788,5.788,0,0,1-1.291-.938,2.87,2.87,0,0,1,2.173-4.577H41.665c.073,0,.335.292.552.22" transform="translate(-12.203 -14.561)" fill="#f8cd47"/>
    <path id="Path_63226" data-name="Path 63226" d="M.338,111.559H28.8c1.108,0-.656,3.894-.91,4.386-5.7,11.063-21.99,10.57-26.969-.777-.19-.432-1.536-3.609-.583-3.609" transform="translate(0 -81.763)" fill="#f8cd47"/>
    <path id="Path_63227" data-name="Path 63227" d="M242.887,111.559H271.68c.906,0-.384,3.159-.583,3.609a15.022,15.022,0,0,1-23.459,5.21c-2.377-2.034-4.8-5.637-4.75-8.819" transform="translate(-178.014 -81.763)" fill="#f8cd47"/>
    <path id="Path_63228" data-name="Path 63228" d="M153.017.054a2.029,2.029,0,0,1,2.493,1.828,68.122,68.122,0,0,1-.018,10.141,2,2,0,0,1-3.964-.423,63.464,63.464,0,0,1,.025-9.693A2.107,2.107,0,0,1,153.017.054" transform="translate(-110.93 0)" fill="#06b0e3"/>
    <path id="Path_63229" data-name="Path 63229" d="M183.253,11.384c-.691-.243-3.971.565-3.971-.331V2.007A2.137,2.137,0,0,1,182.094.3a6.174,6.174,0,0,1,1.159,1.046Z" transform="translate(-131.397 -0.12)" fill="#06b0e3"/>
    <path id="Path_63230" data-name="Path 63230" d="M206.389,11.524a7.028,7.028,0,0,1-.232-1.2,51.877,51.877,0,0,1,.036-7.707c.355-2.9,3.585-2.872,3.933-.675a59.087,59.087,0,0,1,.024,8.824c-.038.321-.027.567-.342.761Z" transform="translate(-151.003 -0.261)" fill="#06b0e3"/>
    <path id="Path_63231" data-name="Path 63231" d="M127.929,9.51a2.066,2.066,0,0,1,.52,1.134,44.333,44.333,0,0,1-.022,6.836,1.991,1.991,0,0,1-3.908-.038,37.643,37.643,0,0,1-.031-6.548,2.054,2.054,0,0,1,3.441-1.384" transform="translate(-91.145 -6.561)" fill="#06b0e3"/>
  </g>
</svg>
