<svg id="Group_159748" data-name="Group 159748" xmlns="http://www.w3.org/2000/svg" xmlns:xlink="http://www.w3.org/1999/xlink" width="64.642" height="64.896" viewBox="0 0 64.642 64.896">
  <defs>
    <clipPath id="clip-path">
      <rect id="Rectangle_14090" data-name="Rectangle 14090" width="64.642" height="64.896" fill="none"/>
    </clipPath>
  </defs>
  <g id="Group_159704" data-name="Group 159704" clip-path="url(#clip-path)">
    <path id="Path_63301" data-name="Path 63301" d="M327.658,276.21v12.358a8.208,8.208,0,0,1-.96,2.209,5.619,5.619,0,0,1-9.584-.792,12.383,12.383,0,0,1-.484-1.417V276.21Z" transform="translate(-263.016 -229.439)" fill="#f8cd47"/>
    <path id="Path_63302" data-name="Path 63302" d="M137.26,82.5h-1.775a7.316,7.316,0,0,1,1.013-2.408Z" transform="translate(-112.543 -66.532)" fill="#06b0e3"/>
    <path id="Path_63303" data-name="Path 63303" d="M49.808,59.133,49.812,0H0L0,57.352C.037,60.727,3.914,64.9,7.288,64.9H52.6a9.979,9.979,0,0,1-2.793-5.763M30.927,10.267h3.612l1.773,2.281,1.459-2.281H41.32L38.041,15l3.532,5.031H37.961l-1.774-2.533L34.6,20.026H30.8L34.23,15.14Zm-8.561-.009,3.175.134,4.118,9.635H26.427l-.683-1.7-3.606-.055-.908,1.754H18Zm-14.254.009h9V12.8H14.323v7.225h-3.3V12.8H8.112Zm-.127,15.59H41.637l.19.19v3.612H7.985Zm0,8.112H41.637l.19.19v3.612H7.985ZM26.871,54H7.985v-3.8H26.871Zm0-8.112H7.985v-3.8H26.871Zm15.014-4.35a14.6,14.6,0,0,1-.9,1.478H38.611a3.766,3.766,0,0,1,.668,1.587h2.54c.029.007.044.022.044.044q-.854,1.445-.876,1.456H39.345a4.748,4.748,0,0,1-.624,1.8,4.18,4.18,0,0,1-1.467,1.38,5.2,5.2,0,0,1-2.474.7V50a4.078,4.078,0,0,0,.58.865l4.4,6.033v.285a.039.039,0,0,1-.044.044H37.779q-5.234-6.908-5.233-6.941v-1.4l.022-.055a6.675,6.675,0,0,0,1.084.077q2.923,0,3.646-2.157a1.974,1.974,0,0,0,.11-.646h-5.3c-.029,0-.044-.018-.044-.055q.876-1.445.9-1.445h4.215v-.022a2.608,2.608,0,0,0-1.4-1.292,3.928,3.928,0,0,0-1.336-.274H32.086v-.055q.854-1.445.876-1.445h8.923Z" fill="#06b0e3"/>
  </g>
</svg>
