<svg id="Group_159750" data-name="Group 159750" xmlns="http://www.w3.org/2000/svg" xmlns:xlink="http://www.w3.org/1999/xlink" width="73.733" height="72.91" viewBox="0 0 73.733 72.91">
  <defs>
    <clipPath id="clip-path">
      <rect id="Rectangle_14095" data-name="Rectangle 14095" width="73.733" height="72.911" fill="none"/>
    </clipPath>
  </defs>
  <g id="Group_159712" data-name="Group 159712" clip-path="url(#clip-path)">
    <path id="Path_63317" data-name="Path 63317" d="M105.132,125.685H95.248L97.6,98.957c.2-.277,4.75-.587,5.094.369Z" transform="translate(-62.783 -65.045)" fill="#06b0e3"/>
    <path id="Path_63318" data-name="Path 63318" d="M168.625,112.912a4.447,4.447,0,0,1-4.243,5.13c-2.922.283-14.787.426-17.253-.164a4.353,4.353,0,0,1-3.044-4.966Z" transform="translate(-94.918 -74.427)" fill="#06b0e3"/>
    <path id="Path_63319" data-name="Path 63319" d="M24.625,113.278a4.447,4.447,0,0,1-4.244,5.13c-2.922.283-14.787.426-17.253-.164a4.353,4.353,0,0,1-3.044-4.966Z" transform="translate(0 -74.668)" fill="#06b0e3"/>
    <path id="Path_63320" data-name="Path 63320" d="M99.062,185.326H77.248l.166-2.39a2.254,2.254,0,0,1,1.39-.654c3.513-.538,14.677-.407,18.4-.043,2.194.215,1.9,1.088,1.855,3.087" transform="translate(-50.919 -119.914)" fill="#06b0e3"/>
    <path id="Path_63321" data-name="Path 63321" d="M62.248,198.646c.133-.554.785-.751,1.237-.978,3.492-1.757,12.415-1.125,16.644-1.083,4,.04,8.787-.544,12.449.874.55.213,1.789.664,2.051,1.188Z" transform="translate(-41.031 -129.485)" fill="#06b0e3"/>
    <rect id="Rectangle_14094" data-name="Rectangle 14094" width="34.084" height="1.704" transform="translate(20.194 71.206)" fill="#06b0e3"/>
    <path id="Path_63322" data-name="Path 63322" d="M166.317,7.641l-.032,9.637c2.343,1.119,4.859,2.638,5.712,5.267,2.544,7.839-7.319,14.043-12.689,7.235-3.829-4.854-1.026-10.485,4.277-12.5l.328-9.653c-1.422-.286-5.485.587-4.263-2.041.322-.693,4.92-4.5,5.633-4.31.556.149,5.062,4.223,5.123,4.83.219,2.215-2.753,1.061-4.088,1.536" transform="translate(-103.839 -0.836)" fill="#f8cd47"/>
    <path id="Path_63323" data-name="Path 63323" d="M26.02,20.423c5.495-.973,5.509,4.034,0,3.064-.377,1.663,1,8-1.21,8.2-2.989.263-1.523-6.419-1.854-8.2-1.561.071-3.2.3-3.761-1.532.557-1.833,2.2-1.6,3.761-1.532l.02-5.588c-5.049-1.4-7.666-7.156-4.451-11.625,5.726-7.961,17.518.444,12.423,8.333-1.156,1.79-3.137,2.609-4.881,3.641ZM23.89,3.118c-5.626.9-4.518,9.654,1.239,9.106,5.855-.558,5.2-10.134-1.239-9.106" transform="translate(-11.281 0)" fill="#f8cd47"/>
    <path id="Path_63324" data-name="Path 63324" d="M33.422,14.928A2.611,2.611,0,1,1,34.034,20c-2.913-.114-3.367-4.472-.612-5.067" transform="translate(-20.819 -9.778)" fill="#f8cd47"/>
    <path id="Path_63325" data-name="Path 63325" d="M82.56,133.844H29.048V124.3h4.09v5.453H78.47v-6.476h4.09Z" transform="translate(-19.147 -81.26)" fill="#06b0e3"/>
  </g>
</svg>
