<svg id="Group_159472" data-name="Group 159472" xmlns="http://www.w3.org/2000/svg" xmlns:xlink="http://www.w3.org/1999/xlink" width="66.6" height="73.693" viewBox="0 0 66.6 73.693">
  <defs>
    <clipPath id="clip-path">
      <rect id="Rectangle_10676" data-name="Rectangle 10676" width="66.597" height="73.693" fill="none"/>
    </clipPath>
    <clipPath id="clip-path-2">
      <path id="Path_63094" data-name="Path 63094" d="M24.836,63.78a6.848,6.848,0,0,0,12.951,0Z" transform="translate(-24.836 -63.78)" fill="none"/>
    </clipPath>
    <clipPath id="clip-path-4">
      <path id="Path_63096" data-name="Path 63096" d="M21.859,54.993a.817.817,0,0,0-.814.815v5.638a.818.818,0,0,0,.814.814h19.51a.818.818,0,0,0,.813-.814V55.805a.816.816,0,0,0-.813-.812Z" transform="translate(-21.045 -54.993)" fill="none"/>
    </clipPath>
    <clipPath id="clip-path-6">
      <path id="Path_63098" data-name="Path 63098" d="M25.2,39.022a9.772,9.772,0,1,1,6.912,2.863A9.771,9.771,0,0,1,25.2,39.022m6.664-24.166-2.294.031-.683,2.192-.261.845a14.381,14.381,0,0,0-4.445,1.917l-.8-.391-2.058-1.012-1.591,1.646-1.6,1.639,1.071,2.027.413.781a14.516,14.516,0,0,0-1.791,4.5l-.838.287-2.172.741.032,2.293.036,2.293,2.189.683.845.26a14.614,14.614,0,0,0,1.919,4.445l-.391.795L18.44,42.881l1.644,1.6,1.644,1.6,2.029-1.072.779-.414a14.569,14.569,0,0,0,4.5,1.794l.285.836.746,2.171,4.586-.065.683-2.191.261-.845a14.444,14.444,0,0,0,4.445-1.917l.794.391,2.062,1.011,1.593-1.644,1.6-1.644-1.071-2.027-.413-.778A14.565,14.565,0,0,0,46.4,35.193l.836-.285,2.172-.742-.031-2.291-.033-2.293-2.2-.687-.845-.261a14.571,14.571,0,0,0-1.917-4.445l.392-.794,1.007-2.06-1.644-1.6-1.644-1.6L40.467,19.21l-.78.413a14.489,14.489,0,0,0-4.5-1.795L34.9,16.99l-.742-2.16Z" transform="translate(-14.823 -14.83)" fill="none"/>
    </clipPath>
    <clipPath id="clip-path-8">
      <path id="Path_63100" data-name="Path 63100" d="M37.249,0,28.412.126l-1.3,4.222-.5,1.625a28.012,28.012,0,0,0-8.563,3.691l-1.531-.756L12.547,6.964,9.469,10.132,6.389,13.3l2.061,3.91.789,1.512a28.035,28.035,0,0,0-3.447,8.658l-1.612.549L0,29.352.059,33.77l.064,4.418,4.22,1.3L5.97,40a27.913,27.913,0,0,0,3.692,8.561l-.756,1.531L6.963,54.053l3.163,3.078,3.169,3.08L17.2,58.149l1.512-.795q1.1.669,2.259,1.236a3.034,3.034,0,0,1,2.567-1.421h.648v-2.1a23.328,23.328,0,1,1,18.222,0v2.1h.648a3.036,3.036,0,0,1,2.566,1.42,27.988,27.988,0,0,0,2.935-1.657l1.531.756,3.962,1.944L60.209,53.3,58.147,49.39l-.8-1.506A27.909,27.909,0,0,0,60.8,39.221l1.612-.549L66.6,37.248l-.072-4.416-.063-4.415-4.215-1.309-1.628-.5a27.936,27.936,0,0,0-3.691-8.561l.756-1.534,1.944-3.967L56.464,9.467,53.3,6.385,49.39,8.448l-1.512.794a27.942,27.942,0,0,0-8.662-3.447h.006l-.551-1.608Z" fill="none"/>
    </clipPath>
  </defs>
  <g id="Group_159473" data-name="Group 159473">
    <g id="Group_159472-2" data-name="Group 159472" clip-path="url(#clip-path)">
      <path id="Path_63093" data-name="Path 63093" d="M24.836,63.78a6.848,6.848,0,0,0,12.951,0Z" transform="translate(1.987 5.102)" fill="#fff"/>
    </g>
  </g>
  <g id="Group_159475" data-name="Group 159475" transform="translate(26.823 68.882)">
    <g id="Group_159474" data-name="Group 159474" clip-path="url(#clip-path-2)">
      <rect id="Rectangle_10677" data-name="Rectangle 10677" width="12.951" height="4.811" fill="#f8cd47"/>
    </g>
  </g>
  <g id="Group_159477" data-name="Group 159477">
    <g id="Group_159476" data-name="Group 159476" clip-path="url(#clip-path)">
      <path id="Path_63095" data-name="Path 63095" d="M21.045,55.8v5.641a.818.818,0,0,0,.814.814H41.37a.818.818,0,0,0,.812-.814V55.8a.817.817,0,0,0-.812-.812H21.859a.816.816,0,0,0-.814.814" transform="translate(1.683 4.399)" fill="#fff"/>
    </g>
  </g>
  <g id="Group_159479" data-name="Group 159479" transform="translate(22.728 59.392)">
    <g id="Group_159478" data-name="Group 159478" clip-path="url(#clip-path-4)">
      <rect id="Rectangle_10679" data-name="Rectangle 10679" width="21.138" height="7.269" transform="translate(0 -0.003)" fill="#f8cd47"/>
    </g>
  </g>
  <g id="Group_159481" data-name="Group 159481">
    <g id="Group_159480" data-name="Group 159480" clip-path="url(#clip-path)">
      <path id="Path_63097" data-name="Path 63097" d="M25.2,39.022a9.77,9.77,0,1,1,6.912,2.863A9.771,9.771,0,0,1,25.2,39.022m6.664-24.166-2.293.031L28.89,17.08l-.261.845a14.418,14.418,0,0,0-4.445,1.917l-.8-.391-2.058-1.013-1.591,1.647-1.6,1.639,1.071,2.027.413.781a14.532,14.532,0,0,0-1.791,4.5L17,29.319l-2.172.74.032,2.293.036,2.293,2.189.683.845.26a14.614,14.614,0,0,0,1.919,4.445l-.391.795-1.013,2.052,1.644,1.6,1.644,1.6,2.029-1.072.779-.413a14.556,14.556,0,0,0,4.5,1.793l.285.836.746,2.172,4.586-.066.683-2.19.261-.845A14.441,14.441,0,0,0,40.04,44.38l.794.391L42.9,45.78l1.593-1.644,1.6-1.644-1.071-2.027-.413-.779A14.567,14.567,0,0,0,46.4,35.193l.836-.285,2.172-.742-.032-2.291-.033-2.293L47.145,28.9l-.845-.262a14.58,14.58,0,0,0-1.916-4.445l.391-.794,1.007-2.058-1.644-1.6-1.644-1.6L40.467,19.21l-.781.413a14.478,14.478,0,0,0-4.5-1.795L34.9,16.99l-.742-2.16Z" transform="translate(1.186 1.186)" fill="#fff"/>
    </g>
  </g>
  <g id="Group_159483" data-name="Group 159483" transform="translate(16.009 16.016)">
    <g id="Group_159482" data-name="Group 159482" clip-path="url(#clip-path-6)">
      <rect id="Rectangle_10681" data-name="Rectangle 10681" width="34.576" height="34.576" transform="translate(0.001 -0.002)" fill="#f8cd47"/>
    </g>
  </g>
  <g id="Group_159485" data-name="Group 159485">
    <g id="Group_159484" data-name="Group 159484" clip-path="url(#clip-path)">
      <path id="Path_63099" data-name="Path 63099" d="M28.412.125l-1.3,4.223-.5,1.62A27.977,27.977,0,0,0,18.042,9.66L16.511,8.9,12.547,6.964,9.469,10.132,6.389,13.3l2.061,3.91.789,1.512a28.025,28.025,0,0,0-3.447,8.658l-1.612.549L0,29.352l.059,4.417.064,4.418,4.221,1.306L5.97,40a27.965,27.965,0,0,0,3.692,8.561L8.907,50.09,6.963,54.052l3.163,3.079,3.169,3.079L17.2,58.148l1.512-.8q1.1.671,2.259,1.237a3.034,3.034,0,0,1,2.567-1.421h.648v-2.1a23.328,23.328,0,1,1,18.222,0v2.1h.648a3.037,3.037,0,0,1,2.565,1.42,27.989,27.989,0,0,0,2.935-1.657l1.531.756,3.962,1.944,6.162-6.336L58.15,49.386l-.8-1.5A27.9,27.9,0,0,0,60.8,39.221l1.612-.549L66.6,37.248l-.072-4.416-.063-4.416-4.215-1.308-1.626-.5a27.965,27.965,0,0,0-3.692-8.561l.756-1.534,1.944-3.967L56.464,9.467,53.3,6.385,49.39,8.448l-1.512.794a27.949,27.949,0,0,0-8.66-3.448h.006l-.551-1.608L37.249,0Z" fill="#fff"/>
    </g>
  </g>
  <g id="Group_159487" data-name="Group 159487">
    <g id="Group_159486" data-name="Group 159486" clip-path="url(#clip-path-8)">
      <rect id="Rectangle_10683" data-name="Rectangle 10683" width="66.597" height="60.213" fill="#06b0e3"/>
    </g>
  </g>
</svg>
