<svg id="Group_159611" data-name="Group 159611" xmlns="http://www.w3.org/2000/svg" xmlns:xlink="http://www.w3.org/1999/xlink" width="59.41" height="63.107" viewBox="0 0 59.41 63.107">
  <defs>
    <clipPath id="clip-path">
      <rect id="Rectangle_10758" data-name="Rectangle 10758" width="59.409" height="63.108" fill="none"/>
    </clipPath>
    <clipPath id="clip-path-2">
      <path id="Path_63169" data-name="Path 63169" d="M31.887,52.737H51.619a.884.884,0,0,1,0,1.768H31.888a.882.882,0,0,1-.859-.86h0a.885.885,0,0,1,.859-.908m3.922-6.252H51.619a.885.885,0,0,1,0,1.77H35.809a.884.884,0,0,1-.859-.865v0a.882.882,0,0,1,.857-.906m1.322-5.369h0a.885.885,0,0,1,.886-.884h13.6a.885.885,0,0,1,0,1.77h-13.6a.886.886,0,0,1-.886-.886M24.865,18.37V12.535a.885.885,0,0,1,.886-.884H45.526a.885.885,0,0,1,.886.884V18.37a.883.883,0,0,1-.884.884H25.751a.885.885,0,0,1-.886-.884M22.573,6.183V12.7a.886.886,0,0,1-.886.881h-6.52v13.74a14.144,14.144,0,0,1,18.288,6.166l7.511-3.46,1.164-3.9a.883.883,0,0,1,.477-.549l8.553-3.935A.88.88,0,0,1,52.4,22.688l-1.059,3.535,3.369,1.493a.882.882,0,0,1,.016,1.611l-8.552,3.934a.88.88,0,0,1-.756.021L41.7,31.633,34.2,35.093A14.133,14.133,0,0,1,15.167,53.059v9.947h40.95V6.18Z" transform="translate(-15.167 -6.18)" fill="none"/>
    </clipPath>
    <clipPath id="clip-path-4">
      <path id="Path_63171" data-name="Path 63171" d="M19.726,43.307v0a2.542,2.542,0,1,0,4.333,1.6l-2.162,1a.883.883,0,0,1-.739-1.6l2.162-1a2.543,2.543,0,0,0-3.595,0" transform="translate(-18.982 -42.563)" fill="none"/>
    </clipPath>
    <clipPath id="clip-path-6">
      <path id="Path_63173" data-name="Path 63173" d="M16.527,37.314l-.012.007,0,0a8.066,8.066,0,1,0,11.806,4.37l-3.449,1.586a4.318,4.318,0,1,1-.74-1.6l3.454-1.589a8.055,8.055,0,0,0-11.055-2.775" transform="translate(-12.596 -36.168)" fill="none"/>
    </clipPath>
    <clipPath id="clip-path-8">
      <path id="Path_63175" data-name="Path 63175" d="M18.982,31.2h-.009a12.273,12.273,0,0,0-5.938,1.534h0a12.368,12.368,0,0,0-2.775,19.592l.553.549-4.9,6.33-.692-.54a.461.461,0,0,0-.65.036h0a.1.1,0,0,0-.017.021L.506,63.954a1.424,1.424,0,0,0,.252,1.989l1.161.906A1.427,1.427,0,0,0,3.908,66.6l4.044-5.231a.462.462,0,0,0-.086-.647L7.843,60.7l-.7-.54,4.9-6.33.712.419A12.368,12.368,0,0,0,30.569,39.212l-2.315,1.066a9.839,9.839,0,0,1-8.016,13.039C11.8,54.394,5.769,44.6,11.217,37.558a9.828,9.828,0,0,1,16.3,1.117l2.316-1.066A12.368,12.368,0,0,0,18.993,31.2h-.01" transform="translate(-0.211 -31.201)" fill="none"/>
    </clipPath>
    <clipPath id="clip-path-10">
      <path id="Path_63177" data-name="Path 63177" d="M48.021,29.817l-.951,3.154L50.081,34.3,56.52,31.34l-2.294-1.017a.88.88,0,0,1-.489-1.073l.718-2.395Z" transform="translate(-47.07 -26.855)" fill="none"/>
    </clipPath>
    <clipPath id="clip-path-12">
      <path id="Path_63179" data-name="Path 63179" d="M21.35,0V4.386l.545-.551a.879.879,0,0,1,.628-.259H57.838a.881.881,0,0,1,.878.881V56.83h3.578V0Z" transform="translate(-21.35)" fill="none"/>
    </clipPath>
  </defs>
  <g id="Group_159612" data-name="Group 159612">
    <g id="Group_159611-2" data-name="Group 159611" clip-path="url(#clip-path)">
      <path id="Path_63168" data-name="Path 63168" d="M31.028,53.645a.884.884,0,0,1,.859-.908H51.619a.884.884,0,0,1,0,1.767H31.888a.881.881,0,0,1-.86-.859m3.922-6.253a.882.882,0,0,1,.858-.906H51.619a.885.885,0,0,1,0,1.769H35.809a.885.885,0,0,1-.859-.865m2.181-6.274a.885.885,0,0,1,.886-.884h13.6a.885.885,0,0,1,0,1.769h-13.6a.885.885,0,0,1-.886-.886M24.865,18.367V12.534a.884.884,0,0,1,.884-.884H45.526a.884.884,0,0,1,.886.882V18.37a.884.884,0,0,1-.884.884H25.751a.885.885,0,0,1-.886-.884M22.573,6.183V12.7a.887.887,0,0,1-.886.882h-6.52V27.325a14.144,14.144,0,0,1,18.288,6.167l7.511-3.46,1.164-3.9a.888.888,0,0,1,.477-.549l8.552-3.935A.881.881,0,0,1,52.4,22.688l-1.059,3.535,3.369,1.493a.882.882,0,0,1,.016,1.611L46.179,33.26a.88.88,0,0,1-.756.021L41.7,31.631,34.2,35.091A14.133,14.133,0,0,1,15.168,53.057V63H56.117V6.178Z" transform="translate(-2.049 -0.834)" fill="#fff"/>
    </g>
  </g>
  <g id="Group_159614" data-name="Group 159614" transform="translate(13.118 5.345)">
    <g id="Group_159613" data-name="Group 159613" clip-path="url(#clip-path-2)">
      <rect id="Rectangle_10759" data-name="Rectangle 10759" width="40.946" height="56.828" transform="translate(0.001 0.003)" fill="#06b0e3"/>
    </g>
  </g>
  <g id="Group_159616" data-name="Group 159616">
    <g id="Group_159615" data-name="Group 159615" clip-path="url(#clip-path)">
      <path id="Path_63170" data-name="Path 63170" d="M19.727,43.309a2.542,2.542,0,1,0,4.333,1.6l-2.162,1a.883.883,0,0,1-.74-1.6l2.162-1a2.544,2.544,0,0,0-3.595,0" transform="translate(-2.564 -5.749)" fill="#fff"/>
    </g>
  </g>
  <g id="Group_159618" data-name="Group 159618" transform="translate(16.418 36.814)">
    <g id="Group_159617" data-name="Group 159617" clip-path="url(#clip-path-4)">
      <rect id="Rectangle_10761" data-name="Rectangle 10761" width="5.381" height="5.331" transform="translate(-0.246 0.001)" fill="#f8cd47"/>
    </g>
  </g>
  <g id="Group_159620" data-name="Group 159620">
    <g id="Group_159619" data-name="Group 159619" clip-path="url(#clip-path)">
      <path id="Path_63172" data-name="Path 63172" d="M16.51,37.324a8.066,8.066,0,1,0,11.806,4.369l-3.449,1.586a4.318,4.318,0,1,1-.74-1.6l3.454-1.588a8.058,8.058,0,0,0-11.053-2.776l-.014.008" transform="translate(-1.701 -4.885)" fill="#fff"/>
    </g>
  </g>
  <g id="Group_159622" data-name="Group 159622" transform="translate(10.894 31.283)">
    <g id="Group_159621" data-name="Group 159621" clip-path="url(#clip-path-6)">
      <rect id="Rectangle_10763" data-name="Rectangle 10763" width="18.057" height="17.278" transform="translate(-1.144 0.002)" fill="#f8cd47"/>
    </g>
  </g>
  <g id="Group_159624" data-name="Group 159624">
    <g id="Group_159623" data-name="Group 159623" clip-path="url(#clip-path)">
      <path id="Path_63174" data-name="Path 63174" d="M13.032,32.735a12.368,12.368,0,0,0-2.775,19.592l.553.549-4.9,6.33-.692-.54a.461.461,0,0,0-.65.038.138.138,0,0,0-.017.021L.506,63.954a1.425,1.425,0,0,0,.252,1.989l1.161.906A1.427,1.427,0,0,0,3.908,66.6l4.044-5.231a.46.46,0,0,0-.086-.646h0L7.843,60.7l-.7-.54,4.9-6.33.713.419A12.368,12.368,0,0,0,30.569,39.212l-2.315,1.066a9.839,9.839,0,0,1-8.017,13.039C11.8,54.394,5.769,44.6,11.217,37.558a9.827,9.827,0,0,1,16.3,1.117l2.316-1.066A12.361,12.361,0,0,0,13.042,32.73l-.01.005" transform="translate(-0.029 -4.214)" fill="#fff"/>
    </g>
  </g>
  <g id="Group_159626" data-name="Group 159626" transform="translate(0.183 26.987)">
    <g id="Group_159625" data-name="Group 159625" clip-path="url(#clip-path-8)">
      <rect id="Rectangle_10765" data-name="Rectangle 10765" width="31.851" height="36.123" transform="translate(-0.183 -0.002)" fill="#f8cd47"/>
    </g>
  </g>
  <g id="Group_159628" data-name="Group 159628">
    <g id="Group_159627" data-name="Group 159627" clip-path="url(#clip-path)">
      <path id="Path_63176" data-name="Path 63176" d="M48.021,29.817l-.951,3.154L50.08,34.3l6.439-2.965-2.294-1.017a.879.879,0,0,1-.489-1.072l.718-2.4Z" transform="translate(-6.358 -3.627)" fill="#fff"/>
    </g>
  </g>
  <g id="Group_159630" data-name="Group 159630" transform="translate(40.712 23.228)">
    <g id="Group_159629" data-name="Group 159629" clip-path="url(#clip-path-10)">
      <rect id="Rectangle_10767" data-name="Rectangle 10767" width="9.449" height="7.449" transform="translate(0.003 0.001)" fill="#f8cd47"/>
    </g>
  </g>
  <rect id="Rectangle_10768" data-name="Rectangle 10768" width="18.008" height="4.067" transform="translate(24.586 12.586)" fill="#fff"/>
  <rect id="Rectangle_10769" data-name="Rectangle 10769" width="18.007" height="4.067" transform="translate(24.587 12.586)" fill="#f8cd47"/>
  <g id="Group_159632" data-name="Group 159632">
    <g id="Group_159631" data-name="Group 159631" clip-path="url(#clip-path)">
      <path id="Path_63178" data-name="Path 63178" d="M21.35,0V4.386l.545-.551a.873.873,0,0,1,.628-.259H57.838a.879.879,0,0,1,.878.881V56.83h3.577V0Z" transform="translate(-2.884)" fill="#fff"/>
    </g>
  </g>
  <g id="Group_159634" data-name="Group 159634" transform="translate(18.466)">
    <g id="Group_159633" data-name="Group 159633" clip-path="url(#clip-path-12)">
      <rect id="Rectangle_10771" data-name="Rectangle 10771" width="40.943" height="56.83" fill="#06b0e3"/>
    </g>
  </g>
  <path id="Path_63180" data-name="Path 63180" d="M16.613,12.012H21V7.628Z" transform="translate(-2.244 -1.03)" fill="#fff"/>
  <path id="Path_63181" data-name="Path 63181" d="M16.614,12.013H21V7.628Z" transform="translate(-2.244 -1.03)" fill="#f8cd47"/>
</svg>
