<svg id="Group_159420" data-name="Group 159420" xmlns="http://www.w3.org/2000/svg" xmlns:xlink="http://www.w3.org/1999/xlink" width="70.477" height="73.752" viewBox="0 0 70.477 73.752">
  <defs>
    <clipPath id="clip-path">
      <rect id="Rectangle_10650" data-name="Rectangle 10650" width="70.477" height="73.752" transform="translate(0 0)" fill="none"/>
    </clipPath>
    <clipPath id="clip-path-2">
      <path id="Path_63068" data-name="Path 63068" d="M32.686,42.11a9.653,9.653,0,0,0-4.257,1.229h0c-3.486,1.753-5.952,4.565-8.859,5.51-3.083,1-5.549,3.678-8.014,5.97-.307.306-.654.593-1,.921q.027,8.089.1,16.218c5.838-.114,29.258-.23,30.684-.517,4.1-1.31,15.563-9.576,22.958-14.889,1.832-1.309,3.411-2.447,4.621-3.293.869-.6,1.563-1.328,1.2-1.792a1.907,1.907,0,0,0-.636-.444,5.9,5.9,0,0,0-4.662.464L50.271,58.67c-2.5,1.235-14.773.347-18.144.077-4.217-.326-15.737-.269-6.646-6.239,1.774-1.156,4.18-2.563,6.821-4.024a.27.27,0,0,1,.135-.059c2.059-1,3.081-2.466,3.176-3.757a2.106,2.106,0,0,0-1.041-2.1,3.639,3.639,0,0,0-1.771-.46l-.115,0" fill="none"/>
    </clipPath>
    <clipPath id="clip-path-4">
      <path id="Path_63070" data-name="Path 63070" d="M53.183,16.834a1.562,1.562,0,0,1-1.215.924l-3.737.559,2.64,2.6a1.531,1.531,0,0,1,.5,1.408l-.636,3.735,3.332-1.751a1.523,1.523,0,0,1,1.445,0l3.33,1.751-.634-3.735a1.586,1.586,0,0,1,.443-1.369l2.7-2.64-3.738-.559a1.566,1.566,0,0,1-1.117-.864l-1.676-3.37Z" fill="none"/>
    </clipPath>
    <clipPath id="clip-path-6">
      <path id="Path_63072" data-name="Path 63072" d="M33.727,3.989a1.892,1.892,0,0,1-1.463,1.117l-4.488.654,3.2,3.119a1.867,1.867,0,0,1,.6,1.715l-.751,4.491,4.007-2.1a1.881,1.881,0,0,1,1.753,0l4.027,2.1-.769-4.491a1.867,1.867,0,0,1,.538-1.656L43.636,5.76l-4.488-.654a1.933,1.933,0,0,1-1.407-1.041L35.711,0Z" fill="none"/>
    </clipPath>
    <clipPath id="clip-path-8">
      <path id="Path_63074" data-name="Path 63074" d="M59.987,48.322a6.544,6.544,0,0,0-3.514,1.158l0,0-10.749,7.01a14.577,14.577,0,0,0,3.293-.328L61.4,50.04c.1-.077.692-.867.308-1.213a1.842,1.842,0,0,0-.826-.4,3.926,3.926,0,0,0-.877-.1h-.023" fill="none"/>
    </clipPath>
    <clipPath id="clip-path-10">
      <path id="Path_63076" data-name="Path 63076" d="M15.736,15.428a1.778,1.778,0,0,1-1.387,1.061l-4.294.635L13.1,20.108a1.8,1.8,0,0,1,.576,1.618l-.732,4.3,3.834-2a1.743,1.743,0,0,1,1.656,0l3.852,2-.732-4.3a1.776,1.776,0,0,1,.52-1.579l3.1-3.043-4.3-.636a1.645,1.645,0,0,1-1.328-.943l-1.927-3.891Z" fill="none"/>
    </clipPath>
    <clipPath id="clip-path-12">
      <path id="Path_63078" data-name="Path 63078" d="M33.438,24.309a1.573,1.573,0,0,1-1.235.944l-5.18.771,3.68,3.619a1.67,1.67,0,0,1,.518,1.464l-.884,5.182,4.642-2.427a1.6,1.6,0,0,1,1.482,0l4.662,2.427-.866-5.182a1.615,1.615,0,0,1,.461-1.405l3.758-3.678-5.2-.771a1.5,1.5,0,0,1-1.213-.869l-2.33-4.7Z" fill="none"/>
    </clipPath>
    <clipPath id="clip-path-14">
      <path id="Path_63080" data-name="Path 63080" d="M7.454,53.045l-7.126.1a.244.244,0,0,0-.268.215v.016C.1,60.019,0,66.813.173,73.443a.318.318,0,0,0,.251.309l7.126-.1a.236.236,0,0,0,.271-.195.23.23,0,0,0,0-.074c-.038-6.665.057-13.367-.115-20.033a.281.281,0,0,0-.231-.308Z" fill="none"/>
    </clipPath>
  </defs>
  <g id="Group_159421" data-name="Group 159421">
    <g id="Group_159420-2" data-name="Group 159420" clip-path="url(#clip-path)">
      <path id="Path_63067" data-name="Path 63067" d="M28.428,43.34c-3.486,1.753-5.952,4.565-8.858,5.51-3.084,1-5.549,3.678-8.014,5.97-.308.306-.654.593-1,.921q.027,8.089.1,16.219c5.838-.115,29.258-.231,30.684-.518,4.1-1.31,15.563-9.576,22.958-14.889,1.832-1.31,3.411-2.447,4.621-3.293.869-.6,1.563-1.328,1.2-1.792a1.907,1.907,0,0,0-.636-.444,5.9,5.9,0,0,0-4.662.464L50.28,58.67c-2.5,1.235-14.774.348-18.144.077-4.217-.326-15.737-.269-6.646-6.239,1.773-1.156,4.18-2.563,6.82-4.024a.273.273,0,0,1,.136-.059c2.059-1,3.081-2.466,3.176-3.757a2.108,2.108,0,0,0-1.04-2.1,3.647,3.647,0,0,0-1.887-.458,9.657,9.657,0,0,0-4.257,1.229" fill="#fff"/>
    </g>
  </g>
  <g id="Group_159423" data-name="Group 159423">
    <g id="Group_159422" data-name="Group 159422" clip-path="url(#clip-path-2)">
      <rect id="Rectangle_10651" data-name="Rectangle 10651" width="59.923" height="29.85" transform="translate(10.553 42.111)" fill="#06b0e3"/>
    </g>
  </g>
  <g id="Group_159425" data-name="Group 159425">
    <g id="Group_159424" data-name="Group 159424" clip-path="url(#clip-path)">
      <path id="Path_63069" data-name="Path 63069" d="M53.183,16.835a1.567,1.567,0,0,1-1.215.923l-3.737.559,2.64,2.6a1.529,1.529,0,0,1,.5,1.407l-.636,3.735,3.332-1.751a1.525,1.525,0,0,1,1.446,0l3.33,1.751-.634-3.735a1.588,1.588,0,0,1,.443-1.369l2.7-2.64-3.737-.559a1.566,1.566,0,0,1-1.118-.864l-1.676-3.37Z" fill="#fff"/>
    </g>
  </g>
  <g id="Group_159427" data-name="Group 159427">
    <g id="Group_159426" data-name="Group 159426" clip-path="url(#clip-path-4)">
      <rect id="Rectangle_10653" data-name="Rectangle 10653" width="13.118" height="12.537" transform="translate(48.231 13.523)" fill="#f8cd47"/>
    </g>
  </g>
  <g id="Group_159429" data-name="Group 159429">
    <g id="Group_159428" data-name="Group 159428" clip-path="url(#clip-path)">
      <path id="Path_63071" data-name="Path 63071" d="M33.727,3.988A1.892,1.892,0,0,1,32.263,5.1l-4.488.654,3.2,3.12a1.869,1.869,0,0,1,.6,1.715l-.751,4.49,4.006-2.1a1.886,1.886,0,0,1,1.753,0l4.027,2.1-.769-4.49a1.865,1.865,0,0,1,.538-1.656l3.255-3.178L39.14,5.1a1.935,1.935,0,0,1-1.407-1.04L35.711,0Z" fill="#fff"/>
    </g>
  </g>
  <g id="Group_159431" data-name="Group 159431">
    <g id="Group_159430" data-name="Group 159430" clip-path="url(#clip-path-6)">
      <rect id="Rectangle_10655" data-name="Rectangle 10655" width="15.853" height="15.084" transform="translate(27.775 0)" fill="#f8cd47"/>
    </g>
  </g>
  <g id="Group_159433" data-name="Group 159433">
    <g id="Group_159432" data-name="Group 159432" clip-path="url(#clip-path)">
      <path id="Path_63073" data-name="Path 63073" d="M56.476,49.484l-10.75,7.01a14.585,14.585,0,0,0,3.294-.328L61.4,50.04c.1-.077.692-.867.307-1.213a1.833,1.833,0,0,0-.826-.4,3.893,3.893,0,0,0-.9-.1,6.544,6.544,0,0,0-3.514,1.158" fill="#fff"/>
    </g>
  </g>
  <g id="Group_159435" data-name="Group 159435">
    <g id="Group_159434" data-name="Group 159434" clip-path="url(#clip-path-8)">
      <rect id="Rectangle_10657" data-name="Rectangle 10657" width="16.371" height="8.168" transform="translate(45.727 48.326)" fill="#06b0e3"/>
    </g>
  </g>
  <g id="Group_159437" data-name="Group 159437">
    <g id="Group_159436" data-name="Group 159436" clip-path="url(#clip-path)">
      <path id="Path_63075" data-name="Path 63075" d="M15.736,15.428a1.772,1.772,0,0,1-1.387,1.061l-4.294.636L13.1,20.109a1.8,1.8,0,0,1,.576,1.618l-.733,4.3,3.834-2a1.732,1.732,0,0,1,1.656,0l3.853,2-.733-4.3a1.78,1.78,0,0,1,.521-1.579l3.1-3.043-4.3-.636a1.643,1.643,0,0,1-1.328-.943l-1.927-3.891Z" fill="#fff"/>
    </g>
  </g>
  <g id="Group_159439" data-name="Group 159439">
    <g id="Group_159438" data-name="Group 159438" clip-path="url(#clip-path-10)">
      <rect id="Rectangle_10659" data-name="Rectangle 10659" width="15.118" height="14.389" transform="translate(10.055 11.635)" fill="#f8cd47"/>
    </g>
  </g>
  <g id="Group_159441" data-name="Group 159441">
    <g id="Group_159440" data-name="Group 159440" clip-path="url(#clip-path)">
      <path id="Path_63077" data-name="Path 63077" d="M33.438,24.309a1.573,1.573,0,0,1-1.235.943l-5.181.771,3.68,3.62a1.671,1.671,0,0,1,.518,1.464l-.885,5.182,4.642-2.427a1.611,1.611,0,0,1,1.483,0l4.661,2.427-.866-5.182a1.615,1.615,0,0,1,.461-1.405l3.757-3.678-5.2-.771a1.5,1.5,0,0,1-1.213-.868l-2.33-4.7Z" fill="#fff"/>
    </g>
  </g>
  <g id="Group_159443" data-name="Group 159443">
    <g id="Group_159442" data-name="Group 159442" clip-path="url(#clip-path-12)">
      <rect id="Rectangle_10661" data-name="Rectangle 10661" width="17.452" height="16.604" transform="translate(27.023 19.685)" fill="#f8cd47"/>
    </g>
  </g>
  <g id="Group_159445" data-name="Group 159445">
    <g id="Group_159444" data-name="Group 159444" clip-path="url(#clip-path)">
      <path id="Path_63079" data-name="Path 63079" d="M7.454,53.045l-7.126.1a.244.244,0,0,0-.268.215v.016C.1,60.022,0,66.819.173,73.446a.317.317,0,0,0,.251.309l7.126-.1a.236.236,0,0,0,.271-.195.23.23,0,0,0,0-.074c-.039-6.664.056-13.367-.115-20.033a.281.281,0,0,0-.231-.307Z" fill="#fff"/>
    </g>
  </g>
  <g id="Group_159447" data-name="Group 159447">
    <g id="Group_159446" data-name="Group 159446" clip-path="url(#clip-path-14)">
      <rect id="Rectangle_10663" data-name="Rectangle 10663" width="7.877" height="20.707" transform="translate(0 53.045)" fill="#06b0e3"/>
    </g>
  </g>
</svg>
