<svg id="Group_159635" data-name="Group 159635" xmlns="http://www.w3.org/2000/svg" xmlns:xlink="http://www.w3.org/1999/xlink" width="40.94" height="70.501" viewBox="0 0 40.94 70.501">
  <defs>
    <clipPath id="clip-path">
      <rect id="Rectangle_10772" data-name="Rectangle 10772" width="40.94" height="70.501" fill="none"/>
    </clipPath>
    <clipPath id="clip-path-2">
      <path id="Path_63183" data-name="Path 63183" d="M0,28.575.018,36.4,4.432,34.12A1.025,1.025,0,0,1,5.442,35.9c-.023.012-.046.025-.071.036L.019,38.7V40.5l2.5-1.291a1.024,1.024,0,0,1,.939,1.82L.023,42.8l.009,4.857,2.481-1.282A1.023,1.023,0,0,1,3.45,48.2L.041,49.963l.011,4.253,4.38-2.263A1.024,1.024,0,0,1,5.9,53.147a.279.279,0,0,0-.01.029,1.009,1.009,0,0,1-.518.6L.053,56.518.083,70.09l10.429,3.141V25.283Z" transform="translate(0 -25.283)" fill="none"/>
    </clipPath>
    <clipPath id="clip-path-4">
      <path id="Path_63185" data-name="Path 63185" d="M8.728,6.541v14.4l3.585-1.12a2.088,2.088,0,0,1,.566-.06l5.425.6V.312Z" transform="translate(-8.728 -0.312)" fill="none"/>
    </clipPath>
    <clipPath id="clip-path-6">
      <path id="Path_63187" data-name="Path 63187" d="M22,0V20.539l4.658.515a1.025,1.025,0,0,1,.911,1.017v6.163h8.457V6.594Z" transform="translate(-21.996)" fill="none"/>
    </clipPath>
    <clipPath id="clip-path-8">
      <path id="Path_63189" data-name="Path 63189" d="M26.4,62.774c0-.021,0-.04,0-.06V58.622A1.022,1.022,0,0,1,27.423,57.6H30a1.025,1.025,0,0,1,0,2.05H28.448v3.066a1.023,1.023,0,0,1-.993,1.053h-.03a1.024,1.024,0,0,1-1.022-.993m8.661,0c0-.021,0-.04,0-.06V58.622A1.024,1.024,0,0,1,36.088,57.6h2.569a1.025,1.025,0,0,1,0,2.05H37.111v3.066a1.024,1.024,0,0,1-.993,1.054h-.031a1.024,1.024,0,0,1-1.023-.993M27.4,54.157a1.022,1.022,0,0,1-.993-.993V49.07a1.022,1.022,0,0,1,1.021-1.022H30a1.022,1.022,0,0,1,1.022,1.022v.005a1.01,1.01,0,0,1-.3.724,1.027,1.027,0,0,1-.724.3h-1.55v3.066a1.023,1.023,0,0,1-1.022.993H27.4m8.662,0a1.024,1.024,0,0,1-.993-.993h0V49.075a1.029,1.029,0,0,1,1.026-1.028h2.568a1.024,1.024,0,0,1,1.026,1.022v.005A1.024,1.024,0,0,1,38.661,50.1h-1.55v3.066a1.024,1.024,0,0,1-1.023.994h-.031M26.4,39.522A1.023,1.023,0,0,1,27.423,38.5H30a1.024,1.024,0,0,1,1.022,1.024v.007a1.006,1.006,0,0,1-.3.727,1.032,1.032,0,0,1-.725.3h-1.55v3.062a1.023,1.023,0,0,1-2.046.06c0-.019,0-.04,0-.06h0Zm8.661.005a1.009,1.009,0,0,1,.3-.73,1.033,1.033,0,0,1,.725-.3h2.568a1.026,1.026,0,0,1,1.026,1.026v.005a1.033,1.033,0,0,1-.3.727,1.008,1.008,0,0,1-.723.3H37.111v3.066a1.024,1.024,0,1,1-2.047.06c0-.021,0-.04,0-.06V39.527ZM22.372,74.786H43.714V34.565H22.372Z" transform="translate(-22.372 -34.565)" fill="none"/>
    </clipPath>
    <clipPath id="clip-path-10">
      <path id="Path_63191" data-name="Path 63191" d="M14.507,73.6h4.844V33.378A2.048,2.048,0,0,1,21.4,31.33h3.193V26.082L14.507,24.975Z" transform="translate(-14.507 -24.975)" fill="none"/>
    </clipPath>
  </defs>
  <g id="Group_159636" data-name="Group 159636">
    <g id="Group_159635-2" data-name="Group 159635" clip-path="url(#clip-path)">
      <path id="Path_63182" data-name="Path 63182" d="M0,28.576l.018,7.829,4.414-2.284a1.024,1.024,0,0,1,1.388.415l.009.017a1.016,1.016,0,0,1,.062.788,1.037,1.037,0,0,1-.519.6L.019,38.7V40.5l2.5-1.29a1.024,1.024,0,0,1,.939,1.82L.023,42.8l.009,4.857,2.481-1.283A1.023,1.023,0,0,1,3.45,48.2L.041,49.964l.011,4.253,4.38-2.263A1.023,1.023,0,0,1,5.9,53.147c0,.01-.005.019-.009.029a1.012,1.012,0,0,1-.518.6L.053,56.519l.03,13.572,10.429,3.141V25.284Z" transform="translate(0 -3.135)" fill="#fff"/>
    </g>
  </g>
  <g id="Group_159638" data-name="Group 159638" transform="translate(0 22.149)">
    <g id="Group_159637" data-name="Group 159637" clip-path="url(#clip-path-2)">
      <rect id="Rectangle_10773" data-name="Rectangle 10773" width="10.51" height="47.948" transform="translate(0 0)" fill="#06b0e3"/>
    </g>
  </g>
  <g id="Group_159640" data-name="Group 159640">
    <g id="Group_159639" data-name="Group 159639" clip-path="url(#clip-path)">
      <path id="Path_63184" data-name="Path 63184" d="M8.728,6.541v14.4l3.585-1.121a2.13,2.13,0,0,1,.567-.061l5.424.6V.312Z" transform="translate(-1.082 -0.039)" fill="#fff"/>
    </g>
  </g>
  <g id="Group_159642" data-name="Group 159642" transform="translate(7.646 0.273)">
    <g id="Group_159641" data-name="Group 159641" clip-path="url(#clip-path-4)">
      <rect id="Rectangle_10775" data-name="Rectangle 10775" width="9.576" height="20.63" transform="translate(0 0)" fill="#f8cd47"/>
    </g>
  </g>
  <g id="Group_159644" data-name="Group 159644">
    <g id="Group_159643" data-name="Group 159643" clip-path="url(#clip-path)">
      <path id="Path_63186" data-name="Path 63186" d="M22,20.539l4.657.514a1.026,1.026,0,0,1,.911,1.017v6.163h8.458V6.595L22,0Z" transform="translate(-2.727 0)" fill="#fff"/>
    </g>
  </g>
  <g id="Group_159646" data-name="Group 159646" transform="translate(19.269)">
    <g id="Group_159645" data-name="Group 159645" clip-path="url(#clip-path-6)">
      <rect id="Rectangle_10777" data-name="Rectangle 10777" width="14.024" height="28.233" fill="#f8cd47"/>
    </g>
  </g>
  <g id="Group_159648" data-name="Group 159648">
    <g id="Group_159647" data-name="Group 159647" clip-path="url(#clip-path)">
      <path id="Path_63188" data-name="Path 63188" d="M26.4,62.713V58.622A1.022,1.022,0,0,1,27.423,57.6H30a1.025,1.025,0,0,1,0,2.049h-1.55v3.066a1.023,1.023,0,0,1-2.046,0v0m8.661,0V58.621A1.023,1.023,0,0,1,36.085,57.6h2.571a1.025,1.025,0,0,1,0,2.049H37.111v3.066a1.024,1.024,0,1,1-2.047.06c0-.019,0-.039,0-.06M26.4,53.163V49.07a1.024,1.024,0,0,1,1.022-1.022H30a1.021,1.021,0,0,1,1.022,1.021v.007A1.02,1.02,0,0,1,30,50.1H28.448v3.066a1.023,1.023,0,0,1-2.046,0m8.661,0V49.075a1.029,1.029,0,0,1,1.026-1.028h2.568a1.025,1.025,0,0,1,1.026,1.022v.005A1.023,1.023,0,0,1,38.66,50.1H37.111v3.066a1.024,1.024,0,0,1-2.047,0M26.4,43.614V39.522A1.023,1.023,0,0,1,27.423,38.5H30a1.022,1.022,0,0,1,1.022,1.022v.009a1.012,1.012,0,0,1-.3.728,1.034,1.034,0,0,1-.726.3h-1.55v3.062a1.023,1.023,0,0,1-2.046,0v0m8.661.007V39.527a1.009,1.009,0,0,1,.3-.73,1.033,1.033,0,0,1,.725-.3h2.568a1.026,1.026,0,0,1,1.026,1.026v.005a1.035,1.035,0,0,1-.3.728,1.012,1.012,0,0,1-.723.3H37.111v3.066a1.024,1.024,0,1,1-2.047.06c0-.019,0-.039,0-.06M22.372,74.786H43.714V34.565H22.372Z" transform="translate(-2.774 -4.285)" fill="#fff"/>
    </g>
  </g>
  <g id="Group_159650" data-name="Group 159650" transform="translate(19.598 30.28)">
    <g id="Group_159649" data-name="Group 159649" clip-path="url(#clip-path-8)">
      <rect id="Rectangle_10779" data-name="Rectangle 10779" width="21.342" height="40.221" fill="#06b0e3"/>
    </g>
  </g>
  <g id="Group_159652" data-name="Group 159652">
    <g id="Group_159651" data-name="Group 159651" clip-path="url(#clip-path)">
      <path id="Path_63190" data-name="Path 63190" d="M14.507,73.6h4.844V33.378A2.048,2.048,0,0,1,21.4,31.331h3.192V26.082L14.507,24.975Z" transform="translate(-1.798 -3.096)" fill="#fff"/>
    </g>
  </g>
  <g id="Group_159654" data-name="Group 159654" transform="translate(12.709 21.879)">
    <g id="Group_159653" data-name="Group 159653" clip-path="url(#clip-path-10)">
      <rect id="Rectangle_10781" data-name="Rectangle 10781" width="10.082" height="48.622" transform="translate(0 0)" fill="#f8cd47"/>
    </g>
  </g>
</svg>
