<svg id="Group_159512" data-name="Group 159512" xmlns="http://www.w3.org/2000/svg" xmlns:xlink="http://www.w3.org/1999/xlink" width="69.971" height="69.97" viewBox="0 0 69.971 69.97">
  <defs>
    <clipPath id="clip-path">
      <rect id="Rectangle_10697" data-name="Rectangle 10697" width="69.97" height="69.97" fill="none"/>
    </clipPath>
    <clipPath id="clip-path-2">
      <path id="Path_63115" data-name="Path 63115" d="M1.539,0A1.551,1.551,0,0,0,0,1.54V50.307a1.553,1.553,0,0,0,1.539,1.539h4.69V44.5a.876.876,0,0,1-.07-.418V7.766A1.554,1.554,0,0,1,7.7,6.226H36.664a1.353,1.353,0,0,1,.56.07h7.137V1.54A1.552,1.552,0,0,0,42.821,0Z" fill="none"/>
    </clipPath>
    <clipPath id="clip-path-4">
      <path id="Path_63117" data-name="Path 63117" d="M37.025,52.1A15.255,15.255,0,1,1,52.281,67.5,15.255,15.255,0,0,1,37.025,52.1m6.647-18.4h0a20.131,20.131,0,0,0-11.407,16.3c-.069.7-.069,1.4-.069,2.1a20.083,20.083,0,0,0,40.164-.164v-.2c0-.064,0-.129,0-.193A20.049,20.049,0,0,0,43.672,33.7" transform="translate(-32.198 -31.744)" fill="none"/>
    </clipPath>
    <clipPath id="clip-path-6">
      <path id="Path_63119" data-name="Path 63119" d="M50.89,55.356a1.437,1.437,0,0,1-2.027-.07L44.8,50.669l-3.988,3.92,8.118,8.534a1.437,1.437,0,0,0,2.029,0L65.1,49.268l-4.059-3.917Z" transform="translate(-40.816 -45.351)" fill="none"/>
    </clipPath>
    <clipPath id="clip-path-8">
      <path id="Path_63121" data-name="Path 63121" d="M11.284,9.823a1.555,1.555,0,0,0-1.54,1.54V60.272a1.554,1.554,0,0,0,1.54,1.541H29.827a23.732,23.732,0,0,1-2.314-6.227H18.006a2.06,2.06,0,0,1-2.1-2.02V18.151a2.1,2.1,0,0,1,2.1-2.1H45.924a2.062,2.062,0,0,1,2.1,2.023c0,.026,0,.051,0,.077V26.62c.91-.07,1.749-.142,2.658-.142a28.176,28.176,0,0,1,3.5.278V11.363a1.552,1.552,0,0,0-1.537-1.54Z" transform="translate(-9.744 -9.823)" fill="none"/>
    </clipPath>
    <clipPath id="clip-path-10">
      <path id="Path_63123" data-name="Path 63123" d="M23.358,25.984v2.1a2.106,2.106,0,0,0,2.1,2.1h15.46c.21-.14.42-.208.63-.35a7.777,7.777,0,0,1,.77-.348,2.255,2.255,0,0,0,.49-1.4V26.059a2.1,2.1,0,0,0-2.1-2.1H25.418a2.06,2.06,0,0,0-2.06,2.024" transform="translate(-23.358 -23.96)" fill="none"/>
    </clipPath>
    <clipPath id="clip-path-12">
      <path id="Path_63125" data-name="Path 63125" d="M25.454,34.388a2.062,2.062,0,0,0-2.1,2.026v2.1a2.105,2.105,0,0,0,2.1,2.1h5.462a24.149,24.149,0,0,1,4.968-6.227Z" transform="translate(-23.358 -34.387)" fill="none"/>
    </clipPath>
    <clipPath id="clip-path-14">
      <path id="Path_63127" data-name="Path 63127" d="M25.455,45.2a2.107,2.107,0,0,0-2.1,2.1v2.029a2.063,2.063,0,0,0,2.026,2.1h2.591c0-.278.073-.492.073-.77a27.021,27.021,0,0,1,1.186-5.462Z" transform="translate(-23.358 -45.195)" fill="none"/>
    </clipPath>
  </defs>
  <g id="Group_159513" data-name="Group 159513" transform="translate(0 0)">
    <g id="Group_159512-2" data-name="Group 159512" clip-path="url(#clip-path)">
      <path id="Path_63114" data-name="Path 63114" d="M1.539,0A1.552,1.552,0,0,0,0,1.54V50.308a1.552,1.552,0,0,0,1.539,1.539h4.69V44.5a.876.876,0,0,1-.07-.418V7.766A1.555,1.555,0,0,1,7.7,6.226H36.664a1.338,1.338,0,0,1,.56.07h7.137V1.54A1.554,1.554,0,0,0,42.821,0Z" transform="translate(0 0)" fill="#fff"/>
    </g>
  </g>
  <g id="Group_159515" data-name="Group 159515">
    <g id="Group_159514" data-name="Group 159514" clip-path="url(#clip-path-2)">
      <rect id="Rectangle_10698" data-name="Rectangle 10698" width="44.361" height="51.847" transform="translate(0 0)" fill="#06b0e3"/>
    </g>
  </g>
  <g id="Group_159517" data-name="Group 159517" transform="translate(0 0)">
    <g id="Group_159516" data-name="Group 159516" clip-path="url(#clip-path)">
      <path id="Path_63116" data-name="Path 63116" d="M37.025,52.106A15.255,15.255,0,1,1,52.281,67.5,15.254,15.254,0,0,1,37.025,52.106m6.649-18.4a20.128,20.128,0,0,0-11.407,16.3c-.069.7-.069,1.4-.069,2.1A20.139,20.139,0,1,0,43.672,33.7" transform="translate(-2.391 -2.358)" fill="#fff"/>
    </g>
  </g>
  <g id="Group_159519" data-name="Group 159519" transform="translate(29.807 29.386)">
    <g id="Group_159518" data-name="Group 159518" clip-path="url(#clip-path-4)">
      <rect id="Rectangle_10700" data-name="Rectangle 10700" width="40.162" height="40.583" transform="translate(0.001 0)" fill="#f8cd47"/>
    </g>
  </g>
  <g id="Group_159521" data-name="Group 159521" transform="translate(0 0)">
    <g id="Group_159520" data-name="Group 159520" clip-path="url(#clip-path)">
      <path id="Path_63118" data-name="Path 63118" d="M50.89,55.356a1.436,1.436,0,0,1-2.027-.07L44.8,50.669l-3.988,3.92,8.118,8.534a1.435,1.435,0,0,0,2.029,0L65.1,49.268,61.038,45.35Z" transform="translate(-3.031 -3.368)" fill="#fff"/>
    </g>
  </g>
  <g id="Group_159523" data-name="Group 159523" transform="translate(37.785 41.983)">
    <g id="Group_159522" data-name="Group 159522" clip-path="url(#clip-path-6)">
      <rect id="Rectangle_10702" data-name="Rectangle 10702" width="24.281" height="18.332" transform="translate(-0.001 -0.001)" fill="#f8cd47"/>
    </g>
  </g>
  <g id="Group_159525" data-name="Group 159525" transform="translate(0 0)">
    <g id="Group_159524" data-name="Group 159524" clip-path="url(#clip-path)">
      <path id="Path_63120" data-name="Path 63120" d="M11.284,9.824a1.556,1.556,0,0,0-1.54,1.54V60.274a1.556,1.556,0,0,0,1.54,1.54H29.827a23.726,23.726,0,0,1-2.314-6.228H18.006a2.06,2.06,0,0,1-2.1-2.02q0-.039,0-.078V18.152a2.1,2.1,0,0,1,2.1-2.1H45.923a2.061,2.061,0,0,1,2.1,2.022c0,.026,0,.053,0,.079v8.468c.91-.07,1.749-.142,2.658-.142a28.355,28.355,0,0,1,3.5.278V11.364a1.552,1.552,0,0,0-1.537-1.54Z" transform="translate(-0.724 -0.73)" fill="#fff"/>
    </g>
  </g>
  <g id="Group_159527" data-name="Group 159527" transform="translate(9.02 9.093)">
    <g id="Group_159526" data-name="Group 159526" clip-path="url(#clip-path-8)">
      <rect id="Rectangle_10704" data-name="Rectangle 10704" width="44.43" height="51.99" transform="translate(0.005 0.001)" fill="#06b0e3"/>
    </g>
  </g>
  <g id="Group_159529" data-name="Group 159529" transform="translate(0 0)">
    <g id="Group_159528" data-name="Group 159528" clip-path="url(#clip-path)">
      <path id="Path_63122" data-name="Path 63122" d="M25.456,23.96a2.061,2.061,0,0,0-2.1,2.023c0,.025,0,.051,0,.076v2.027a2.105,2.105,0,0,0,2.1,2.1h15.46c.21-.14.42-.208.63-.35a7.776,7.776,0,0,1,.77-.348,2.257,2.257,0,0,0,.49-1.4V26.059a2.1,2.1,0,0,0-2.1-2.1Z" transform="translate(-1.735 -1.779)" fill="#fff"/>
    </g>
  </g>
  <g id="Group_159531" data-name="Group 159531" transform="translate(21.623 22.181)">
    <g id="Group_159530" data-name="Group 159530" clip-path="url(#clip-path-10)">
      <rect id="Rectangle_10706" data-name="Rectangle 10706" width="19.452" height="6.226" transform="translate(-0.003 0)" fill="#06b0e3"/>
    </g>
  </g>
  <g id="Group_159533" data-name="Group 159533" transform="translate(0 0)">
    <g id="Group_159532" data-name="Group 159532" clip-path="url(#clip-path)">
      <path id="Path_63124" data-name="Path 63124" d="M25.454,34.388a2.062,2.062,0,0,0-2.095,2.029c0,.024,0,.047,0,.071v2.028a2.106,2.106,0,0,0,2.1,2.1h5.462a24.154,24.154,0,0,1,4.968-6.228Z" transform="translate(-1.735 -2.554)" fill="#fff"/>
    </g>
  </g>
  <g id="Group_159535" data-name="Group 159535" transform="translate(21.623 31.833)">
    <g id="Group_159534" data-name="Group 159534" clip-path="url(#clip-path-12)">
      <rect id="Rectangle_10708" data-name="Rectangle 10708" width="12.524" height="6.228" transform="translate(-0.004 0.001)" fill="#06b0e3"/>
    </g>
  </g>
  <g id="Group_159537" data-name="Group 159537" transform="translate(0 0)">
    <g id="Group_159536" data-name="Group 159536" clip-path="url(#clip-path)">
      <path id="Path_63126" data-name="Path 63126" d="M25.456,45.2a2.108,2.108,0,0,0-2.1,2.1v2.029a2.063,2.063,0,0,0,2.026,2.1h2.591c0-.278.073-.492.073-.77a27.01,27.01,0,0,1,1.187-5.462Z" transform="translate(-1.735 -3.356)" fill="#fff"/>
    </g>
  </g>
  <g id="Group_159539" data-name="Group 159539" transform="translate(21.623 41.839)">
    <g id="Group_159538" data-name="Group 159538" clip-path="url(#clip-path-14)">
      <rect id="Rectangle_10710" data-name="Rectangle 10710" width="5.876" height="6.23" transform="translate(-0.002 0.002)" fill="#06b0e3"/>
    </g>
  </g>
</svg>
