<svg id="Group_159578" data-name="Group 159578" xmlns="http://www.w3.org/2000/svg" xmlns:xlink="http://www.w3.org/1999/xlink" width="69.079" height="72.449" viewBox="0 0 69.079 72.449">
  <defs>
    <clipPath id="clip-path">
      <rect id="Rectangle_10738" data-name="Rectangle 10738" width="69.079" height="72.449" fill="none"/>
    </clipPath>
    <clipPath id="clip-path-2">
      <path id="Path_63146" data-name="Path 63146" d="M44.788,42.386a35.863,35.863,0,0,0-5.933,1.022h0A131.636,131.636,0,0,1,23.609,45.7c-3.975.279-8.316.235-11.063,1.756-2.93,1.621-5,4.9-6.88,7.556C3.558,57.975,1.747,61.031,0,63.781v.271C4.269,68.593,8.385,73.3,12.682,77.813a37.687,37.687,0,0,1,4.991-4.991c1.788-1.5,3.886-3.4,6.344-3.779a15.748,15.748,0,0,1,2.882-.133l18.675-.844a33.666,33.666,0,0,0,6.368-2.935c6.757-3.57,17.134-14.393,17.134-14.843-2.85-6.015-10.065-.737-13.9,1.621-2.749,1.7-5.672,3.756-9.038,4.455-3.854.794-7.8.21-12.279-.676a41.531,41.531,0,0,1,5.032-1.833c7.882-1.444,8.638-6.4,8.638-6.4.487-1.723.3-4.018-.985-4.717a3.7,3.7,0,0,0-1.579-.354c-.059,0-.119,0-.177,0" transform="translate(0 -42.382)" fill="none"/>
    </clipPath>
    <clipPath id="clip-path-4">
      <path id="Path_63148" data-name="Path 63148" d="M20.272,5.958a3.008,3.008,0,1,1,3.009,3.008,3.008,3.008,0,0,1-3.009-3.008M23.281,0a5.958,5.958,0,1,0,5.957,5.959h0A5.956,5.956,0,0,0,23.283,0Z" transform="translate(-17.322 0)" fill="none"/>
    </clipPath>
    <clipPath id="clip-path-6">
      <path id="Path_63150" data-name="Path 63150" d="M38.085,31.7A3.01,3.01,0,1,1,41.1,34.711h0A3.01,3.01,0,0,1,38.085,31.7m-2.947,0a5.957,5.957,0,1,0,5.956-5.958A5.958,5.958,0,0,0,35.138,31.7" transform="translate(-35.138 -25.744)" fill="none"/>
    </clipPath>
  </defs>
  <rect id="Rectangle_10736" data-name="Rectangle 10736" width="33.305" height="3.887" transform="translate(17.928 31.292) rotate(-58.337)" fill="#fff"/>
  <rect id="Rectangle_10737" data-name="Rectangle 10737" width="33.303" height="3.886" transform="matrix(0.525, -0.851, 0.851, 0.525, 17.921, 31.287)" fill="#f8cd47"/>
  <g id="Group_159579" data-name="Group 159579" transform="translate(0 0)">
    <g id="Group_159578-2" data-name="Group 159578" clip-path="url(#clip-path)">
      <path id="Path_63145" data-name="Path 63145" d="M38.855,43.407A131.824,131.824,0,0,1,23.609,45.7c-3.976.279-8.316.235-11.063,1.756-2.93,1.621-5,4.9-6.88,7.556C3.558,57.974,1.747,61.031,0,63.781v.271C4.269,68.593,8.385,73.3,12.682,77.813a37.74,37.74,0,0,1,4.991-4.991c1.788-1.5,3.886-3.4,6.344-3.779A15.67,15.67,0,0,1,26.9,68.91l18.675-.845a33.641,33.641,0,0,0,6.368-2.935c6.757-3.57,17.134-14.394,17.134-14.843-2.85-6.015-10.065-.737-13.9,1.621-2.749,1.7-5.672,3.756-9.038,4.455-3.854.795-7.8.21-12.279-.675a41.482,41.482,0,0,1,5.032-1.834c7.882-1.443,8.638-6.4,8.638-6.4h0c.487-1.722.3-4.018-.985-4.717a3.7,3.7,0,0,0-1.757-.349,35.789,35.789,0,0,0-5.933,1.022" transform="translate(0 -5.364)" fill="#fff"/>
    </g>
  </g>
  <g id="Group_159581" data-name="Group 159581" transform="translate(0 37.018)">
    <g id="Group_159580" data-name="Group 159580" clip-path="url(#clip-path-2)">
      <rect id="Rectangle_10739" data-name="Rectangle 10739" width="69.078" height="35.427" transform="translate(0 0.003)" fill="#06b0e3"/>
    </g>
  </g>
  <g id="Group_159583" data-name="Group 159583" transform="translate(0 0)">
    <g id="Group_159582" data-name="Group 159582" clip-path="url(#clip-path)">
      <path id="Path_63147" data-name="Path 63147" d="M20.272,5.958a3.009,3.009,0,1,1,3.01,3.008h0a3.01,3.01,0,0,1-3.009-3.008m-2.949,0A5.958,5.958,0,1,0,23.281,0a5.958,5.958,0,0,0-5.958,5.958v0" transform="translate(-2.192 0)" fill="#fff"/>
    </g>
  </g>
  <g id="Group_159585" data-name="Group 159585" transform="translate(15.13 0)">
    <g id="Group_159584" data-name="Group 159584" clip-path="url(#clip-path-4)">
      <rect id="Rectangle_10741" data-name="Rectangle 10741" width="11.915" height="11.916" transform="translate(0.001 0)" fill="#f8cd47"/>
    </g>
  </g>
  <g id="Group_159587" data-name="Group 159587" transform="translate(0 0)">
    <g id="Group_159586" data-name="Group 159586" clip-path="url(#clip-path)">
      <path id="Path_63149" data-name="Path 63149" d="M38.085,31.7A3.01,3.01,0,1,1,41.1,34.71h0A3.011,3.011,0,0,1,38.085,31.7m-2.947,0a5.956,5.956,0,1,0,5.956-5.958A5.956,5.956,0,0,0,35.138,31.7" transform="translate(-4.447 -3.258)" fill="#fff"/>
    </g>
  </g>
  <g id="Group_159589" data-name="Group 159589" transform="translate(30.691 22.486)">
    <g id="Group_159588" data-name="Group 159588" clip-path="url(#clip-path-6)">
      <rect id="Rectangle_10743" data-name="Rectangle 10743" width="11.913" height="11.916" transform="translate(0.001 0.001)" fill="#f8cd47"/>
    </g>
  </g>
</svg>
