<svg id="Group_159591" data-name="Group 159591" xmlns="http://www.w3.org/2000/svg" xmlns:xlink="http://www.w3.org/1999/xlink" width="60.339" height="58.934" viewBox="0 0 60.339 58.934">
  <defs>
    <clipPath id="clip-path">
      <rect id="Rectangle_10745" data-name="Rectangle 10745" width="60.337" height="58.934" fill="none"/>
    </clipPath>
    <clipPath id="clip-path-2">
      <path id="Path_63158" data-name="Path 63158" d="M26.043,18.5H31.53V13a.975.975,0,0,1,.975-.972h4.282a.976.976,0,0,1,.98.972h0v5.5h5.484a.971.971,0,0,1,.973.969v4.288a.974.974,0,0,1-.973.972H37.762v5.493a.975.975,0,0,1-.972.976H32.5a.973.973,0,0,1-.976-.971v-5.5H26.043a.973.973,0,0,1-.688-.285h0a.975.975,0,0,1-.286-.69V19.468a.974.974,0,0,1,.976-.972Zm8.606-9.4a7.424,7.424,0,1,0,.018-.006Z" transform="translate(-22.141 -9.09)" fill="none"/>
    </clipPath>
    <clipPath id="clip-path-4">
      <path id="Path_63160" data-name="Path 63160" d="M1.572,27.5c-.035,0-.07.006-.1.006A1.581,1.581,0,0,0,0,29.083a.724.724,0,0,1,0,.1c.018.418.045,1.276.08,2.369C.215,35.59.452,42.974.767,45.208,1,46.832,5.675,51.528,7.645,53.5c.215.216.4.4.544.543a.969.969,0,0,1,.264.834c-.009.048-.045.291-.109.719l8.316,1.241c1.14-6.791-.782-8.554-4.673-12.121-1.276-1.17-2.749-2.524-4.4-4.278a1.806,1.806,0,0,0-2.5-.117c-.025.028-.051.05-.076.074A1.8,1.8,0,0,0,4.968,42.9l6.184,6.579a.971.971,0,0,1-1.414,1.331L3.555,44.233a3.75,3.75,0,0,1,.035-5.166L3.15,29A1.581,1.581,0,0,0,1.574,27.5Z" transform="translate(0 -27.498)" fill="none"/>
    </clipPath>
    <clipPath id="clip-path-6">
      <path id="Path_63162" data-name="Path 63162" d="M34.713,15.211v5.5a.97.97,0,0,1-.969.972h-5.5v2.34h5.5a.967.967,0,0,1,.972.963v5.5h2.338V24.989a.97.97,0,0,1,.97-.97h5.5V21.68h-5.5a.973.973,0,0,1-.973-.974v-5.5Z" transform="translate(-28.241 -15.211)" fill="none"/>
    </clipPath>
    <clipPath id="clip-path-8">
      <path id="Path_63165" data-name="Path 63165" d="M68.173,29l-.444,10.064a3.755,3.755,0,0,1,.041,5.166l-6.184,6.578a.97.97,0,1,1-1.415-1.327l6.183-6.578a1.8,1.8,0,0,0-.039-2.507.763.763,0,0,1-.076-.077,1.814,1.814,0,0,0-2.511.116c-1.653,1.755-3.124,3.111-4.4,4.278-3.891,3.568-5.809,5.331-4.67,12.126L62.976,55.6c-.069-.432-.1-.673-.109-.718a.966.966,0,0,1,.266-.831c.146-.149.329-.331.542-.543,1.973-1.977,6.649-6.669,6.878-8.3.315-2.234.553-9.618.683-13.655.035-1.094.064-1.947.08-2.366a.7.7,0,0,1,0-.1,1.577,1.577,0,0,0-1.464-1.582c-.034,0-.069,0-.1,0l-.006-.009A1.576,1.576,0,0,0,68.173,29" transform="translate(-54.332 -27.5)" fill="none"/>
    </clipPath>
    <clipPath id="clip-path-10">
      <path id="Path_63167" data-name="Path 63167" d="M25.871,32.3A14.457,14.457,0,1,1,33.1,34.233,14.458,14.458,0,0,1,25.871,32.3M33.1,0,14.5,5.6V23.671a1.946,1.946,0,0,0,.115.708,30.775,30.775,0,0,0,7.4,11.647A29.241,29.241,0,0,0,33.1,43.24a29.237,29.237,0,0,0,11.084-7.218,30.784,30.784,0,0,0,7.4-11.648,1.894,1.894,0,0,0,.115-.708V5.6Z" transform="translate(-14.499)" fill="none"/>
    </clipPath>
  </defs>
  <g id="Group_159592" data-name="Group 159592" transform="translate(0.002 0)">
    <g id="Group_159591-2" data-name="Group 159591" clip-path="url(#clip-path)">
      <path id="Path_63157" data-name="Path 63157" d="M25.351,24.44a.973.973,0,0,1-.286-.69V19.468a.974.974,0,0,1,.976-.972H31.53V13a.976.976,0,0,1,.975-.973h4.282a.976.976,0,0,1,.98.971v5.5h5.484a.97.97,0,0,1,.973.967v4.29a.973.973,0,0,1-.973.972h-5.49v5.493a.976.976,0,0,1-.972.976H32.5a.974.974,0,0,1-.976-.972v-5.5H26.043a.973.973,0,0,1-.688-.285M34.648,9.1a7.424,7.424,0,1,0,.018-.006h-.012" transform="translate(-4.479 -1.838)" fill="#fff"/>
    </g>
  </g>
  <g id="Group_159594" data-name="Group 159594" transform="translate(17.664 7.252)">
    <g id="Group_159593" data-name="Group 159593" clip-path="url(#clip-path-2)">
      <rect id="Rectangle_10746" data-name="Rectangle 10746" width="26.013" height="25.567" transform="translate(-0.59 0.006)" fill="#f8cd47"/>
    </g>
  </g>
  <g id="Group_159596" data-name="Group 159596" transform="translate(0.002 0)">
    <g id="Group_159595" data-name="Group 159595" clip-path="url(#clip-path)">
      <path id="Path_63159" data-name="Path 63159" d="M1.571,27.5c-.035,0-.07.006-.1.006A1.581,1.581,0,0,0,0,29.083a.724.724,0,0,1,0,.1c.018.419.046,1.276.08,2.369.13,4.035.368,11.419.683,13.653C1,46.832,5.674,51.528,7.645,53.5l.544.544a.967.967,0,0,1,.264.834c-.009.048-.045.29-.108.718L16.66,56.84c1.14-6.792-.782-8.555-4.673-12.122-1.276-1.17-2.749-2.524-4.4-4.278a1.807,1.807,0,0,0-2.5-.118c-.025.029-.051.051-.076.076a1.8,1.8,0,0,0-.04,2.507l6.184,6.578a.972.972,0,0,1-1.414,1.332L3.554,44.233a3.75,3.75,0,0,1,.036-5.166L3.15,29A1.581,1.581,0,0,0,1.573,27.5Z" transform="translate(-0.002 -5.561)" fill="#fff"/>
    </g>
  </g>
  <g id="Group_159598" data-name="Group 159598" transform="translate(0 21.937)">
    <g id="Group_159597" data-name="Group 159597" clip-path="url(#clip-path-4)">
      <rect id="Rectangle_10748" data-name="Rectangle 10748" width="17.802" height="29.341" transform="translate(0.002 0)" fill="#06b0e3"/>
    </g>
  </g>
  <rect id="Rectangle_10749" data-name="Rectangle 10749" width="5.423" height="13.024" transform="translate(5.138 57.004) rotate(-81.489)" fill="#fff"/>
  <rect id="Rectangle_10750" data-name="Rectangle 10750" width="5.422" height="13.024" transform="translate(5.138 57.004) rotate(-81.489)" fill="#06b0e3"/>
  <g id="Group_159600" data-name="Group 159600" transform="translate(0.002 0)">
    <g id="Group_159599" data-name="Group 159599" clip-path="url(#clip-path)">
      <path id="Path_63161" data-name="Path 63161" d="M34.713,15.211v5.5a.971.971,0,0,1-.969.973h-5.5v2.338h5.5a.969.969,0,0,1,.972.965v5.5h2.339v-5.5a.97.97,0,0,1,.97-.97h5.5V21.68h-5.5a.973.973,0,0,1-.973-.973v-5.5Z" transform="translate(-5.712 -3.076)" fill="#fff"/>
    </g>
  </g>
  <g id="Group_159602" data-name="Group 159602" transform="translate(22.53 12.135)">
    <g id="Group_159601" data-name="Group 159601" clip-path="url(#clip-path-6)">
      <rect id="Rectangle_10752" data-name="Rectangle 10752" width="15.272" height="15.274" transform="translate(0 0)" fill="#06b0e3"/>
    </g>
  </g>
  <rect id="Rectangle_10753" data-name="Rectangle 10753" width="13.024" height="5.424" transform="matrix(0.989, -0.148, 0.148, 0.989, 41.514, 53.569)" fill="#fff"/>
  <path id="Path_63163" data-name="Path 63163" d="M52.036,66.661l.8,5.363h0L65.72,70.1v-.006l-.8-5.358Z" transform="translate(-10.523 -13.09)" fill="#06b0e3"/>
  <g id="Group_159604" data-name="Group 159604" transform="translate(0.002 0)">
    <g id="Group_159603" data-name="Group 159603" clip-path="url(#clip-path)">
      <path id="Path_63164" data-name="Path 63164" d="M68.173,29.005,67.728,39.07a3.754,3.754,0,0,1,.041,5.165l-6.184,6.579a.97.97,0,1,1-1.415-1.328l6.183-6.578a1.8,1.8,0,0,0-.039-2.506.673.673,0,0,1-.075-.076,1.814,1.814,0,0,0-2.511.114c-1.652,1.755-3.124,3.111-4.4,4.278-3.891,3.569-5.809,5.331-4.671,12.126L62.976,55.6c-.069-.432-.1-.673-.109-.718a.966.966,0,0,1,.266-.83c.147-.15.329-.331.542-.544,1.973-1.976,6.649-6.669,6.878-8.3.315-2.234.553-9.618.683-13.653.035-1.095.063-1.948.08-2.367a.706.706,0,0,1,0-.1,1.578,1.578,0,0,0-1.464-1.582c-.034,0-.069,0-.1,0h-.009a1.576,1.576,0,0,0-1.573,1.5" transform="translate(-10.988 -5.563)" fill="#fff"/>
    </g>
  </g>
  <g id="Group_159606" data-name="Group 159606" transform="translate(43.345 21.939)">
    <g id="Group_159605" data-name="Group 159605" clip-path="url(#clip-path-8)">
      <rect id="Rectangle_10755" data-name="Rectangle 10755" width="17.807" height="29.339" transform="translate(-0.814 0)" fill="#06b0e3"/>
    </g>
  </g>
  <g id="Group_159608" data-name="Group 159608" transform="translate(0.002 0)">
    <g id="Group_159607" data-name="Group 159607" clip-path="url(#clip-path)">
      <path id="Path_63166" data-name="Path 63166" d="M25.87,32.3A14.459,14.459,0,1,1,33.1,34.233,14.459,14.459,0,0,1,25.87,32.3M14.5,5.6V23.671a1.943,1.943,0,0,0,.114.708,30.786,30.786,0,0,0,7.4,11.648A29.224,29.224,0,0,0,33.1,43.24a29.212,29.212,0,0,0,11.084-7.218,30.786,30.786,0,0,0,7.4-11.648,1.909,1.909,0,0,0,.114-.708V5.6L33.1,0Z" transform="translate(-2.933 0)" fill="#fff"/>
    </g>
  </g>
  <g id="Group_159610" data-name="Group 159610" transform="translate(11.567)">
    <g id="Group_159609" data-name="Group 159609" clip-path="url(#clip-path-10)">
      <rect id="Rectangle_10757" data-name="Rectangle 10757" width="37.214" height="43.242" transform="translate(-0.006 0)" fill="#06b0e3"/>
    </g>
  </g>
</svg>
