<svg id="Group_159448" data-name="Group 159448" xmlns="http://www.w3.org/2000/svg" xmlns:xlink="http://www.w3.org/1999/xlink" width="69.97" height="69.97" viewBox="0 0 69.97 69.97">
  <defs>
    <clipPath id="clip-path">
      <rect id="Rectangle_10664" data-name="Rectangle 10664" width="69.97" height="69.97" fill="none"/>
    </clipPath>
    <clipPath id="clip-path-2">
      <path id="Path_63082" data-name="Path 63082" d="M40.848,36.455a2.413,2.413,0,1,0,2.413-2.413,2.414,2.414,0,0,0-2.413,2.413" transform="translate(-40.848 -34.042)" fill="none"/>
    </clipPath>
    <clipPath id="clip-path-4">
      <path id="Path_63084" data-name="Path 63084" d="M42.485,32.229h0V29.643H44.9v2.586a4.65,4.65,0,0,1,1.228.515l1.831-1.832,1.7,1.7-1.821,1.836a4.745,4.745,0,0,1,.512,1.227h2.586v2.409H48.346a4.745,4.745,0,0,1-.512,1.23l1.828,1.829-1.7,1.7-1.83-1.83a4.85,4.85,0,0,1-1.228.515v2.584H42.485V41.53a4.818,4.818,0,0,1-1.229-.515l-1.827,1.83-1.707-1.7,1.829-1.829a4.816,4.816,0,0,1-.511-1.23H36.455V35.671h2.584a4.721,4.721,0,0,1,.511-1.227l-1.829-1.832,1.707-1.7,1.827,1.832a4.834,4.834,0,0,1,1.229-.515m-8.444,4.657a9.652,9.652,0,1,0,9.651-9.653,9.652,9.652,0,0,0-9.651,9.653" transform="translate(-34.041 -27.233)" fill="none"/>
    </clipPath>
    <clipPath id="clip-path-6">
      <path id="Path_63086" data-name="Path 63086" d="M32.49,14.823h0V29.3H30.073V17.235a1.206,1.206,0,1,0-2.411,0v16.6a3.135,3.135,0,0,0,1.746,2.825l-1.08,2.155a5.543,5.543,0,0,1-3.077-4.984V27.151a3.889,3.889,0,0,0-3.885-3.885.943.943,0,0,0-.942.941,1.111,1.111,0,0,0,.028.23A56.983,56.983,0,0,1,21.988,33.9l.617,8.023a8.448,8.448,0,0,0,1.824,4.629l1.382,1.726a8.462,8.462,0,0,1,1.85,5.272V61.2a27.693,27.693,0,0,0,14.476-.647v-8.15a8.287,8.287,0,0,1,.481-2.771A12.041,12.041,0,0,1,35.953,29.3H34.9V14.823a1.206,1.206,0,1,0-2.411,0" transform="translate(-20.424 -13.617)" fill="none"/>
    </clipPath>
    <clipPath id="clip-path-8">
      <path id="Path_63088" data-name="Path 63088" d="M19.4,25.884h0a3.448,3.448,0,0,1-.1-.814,3.344,3.344,0,0,1,1.323-2.651L11.3,16.267l.9-1.04A30.159,30.159,0,0,1,62.124,48.154l-.6,1.239L55.69,45.548a12.115,12.115,0,0,1-3.636,3.38l6.825,4.5L58,54.466A30.154,30.154,0,0,1,8.013,21.5L8.62,20.28,19.8,27.66c-.129-.593-.257-1.187-.4-1.776M34.985,0A34.985,34.985,0,1,0,69.97,34.986,34.985,34.985,0,0,0,34.985,0Z" fill="none"/>
    </clipPath>
    <clipPath id="clip-path-10">
      <path id="Path_63090" data-name="Path 63090" d="M42.053,20.425a1.207,1.207,0,0,0-1.2,1.2v3.865a12.03,12.03,0,0,1,2.413-.243V21.63a1.206,1.206,0,0,0-1.207-1.2h0" transform="translate(-40.848 -20.425)" fill="none"/>
    </clipPath>
    <clipPath id="clip-path-12">
      <path id="Path_63092" data-name="Path 63092" d="M36.312,17.086V27.971a11.874,11.874,0,0,1,2.411-1.42V17.089a1.206,1.206,0,0,0-2.411,0" transform="translate(-36.312 -15.882)" fill="none"/>
    </clipPath>
  </defs>
  <g id="Group_159449" data-name="Group 159449">
    <g id="Group_159448-2" data-name="Group 159448" clip-path="url(#clip-path)">
      <path id="Path_63081" data-name="Path 63081" d="M40.848,36.455a2.413,2.413,0,1,0,2.413-2.413,2.413,2.413,0,0,0-2.413,2.413" transform="translate(2.581 2.151)" fill="#fff"/>
    </g>
  </g>
  <g id="Group_159451" data-name="Group 159451" transform="translate(43.429 36.193)">
    <g id="Group_159450" data-name="Group 159450" clip-path="url(#clip-path-2)">
      <rect id="Rectangle_10665" data-name="Rectangle 10665" width="4.828" height="4.826" transform="translate(0 -0.001)" fill="#f8cd47"/>
    </g>
  </g>
  <g id="Group_159453" data-name="Group 159453">
    <g id="Group_159452" data-name="Group 159452" clip-path="url(#clip-path)">
      <path id="Path_63083" data-name="Path 63083" d="M42.485,32.229V29.643H44.9v2.586a4.628,4.628,0,0,1,1.227.515l1.832-1.832,1.7,1.7-1.83,1.831a4.768,4.768,0,0,1,.512,1.228h2.586v2.413H48.346a4.693,4.693,0,0,1-.512,1.23l1.827,1.83-1.7,1.7-1.83-1.829a4.859,4.859,0,0,1-1.227.515v2.584H42.485V41.532a4.818,4.818,0,0,1-1.229-.515l-1.828,1.829-1.707-1.7,1.83-1.83a4.782,4.782,0,0,1-.512-1.23H36.454V35.671h2.584a4.716,4.716,0,0,1,.512-1.228l-1.83-1.831,1.707-1.7,1.828,1.832a4.818,4.818,0,0,1,1.229-.515m-8.444,4.657a9.651,9.651,0,1,0,9.651-9.653,9.651,9.651,0,0,0-9.651,9.653" transform="translate(2.151 1.721)" fill="#fff"/>
    </g>
  </g>
  <g id="Group_159455" data-name="Group 159455" transform="translate(36.192 28.954)">
    <g id="Group_159454" data-name="Group 159454" clip-path="url(#clip-path-4)">
      <rect id="Rectangle_10667" data-name="Rectangle 10667" width="19.302" height="19.302" transform="translate(0 -0.001)" fill="#f8cd47"/>
    </g>
  </g>
  <g id="Group_159457" data-name="Group 159457">
    <g id="Group_159456" data-name="Group 159456" clip-path="url(#clip-path)">
      <path id="Path_63085" data-name="Path 63085" d="M32.49,14.823V29.3H30.073V17.235a1.206,1.206,0,1,0-2.411,0v16.6a3.137,3.137,0,0,0,1.746,2.825l-1.08,2.154a5.541,5.541,0,0,1-3.077-4.983V27.152a3.889,3.889,0,0,0-3.885-3.885.942.942,0,0,0-.941.941.982.982,0,0,0,.027.23A57.2,57.2,0,0,1,21.988,33.9l.616,8.022a8.449,8.449,0,0,0,1.825,4.629l1.382,1.726a8.47,8.47,0,0,1,1.85,5.272V61.2a27.682,27.682,0,0,0,14.476-.647V52.407a8.314,8.314,0,0,1,.481-2.771A12.04,12.04,0,0,1,35.952,29.3H34.9V14.823a1.206,1.206,0,1,0-2.411,0" transform="translate(1.291 0.86)" fill="#fff"/>
    </g>
  </g>
  <g id="Group_159459" data-name="Group 159459" transform="translate(21.714 14.477)">
    <g id="Group_159458" data-name="Group 159458" clip-path="url(#clip-path-6)">
      <rect id="Rectangle_10669" data-name="Rectangle 10669" width="22.194" height="48.255" transform="translate(0.002 -0.001)" fill="#06b0e3"/>
    </g>
  </g>
  <g id="Group_159461" data-name="Group 159461">
    <g id="Group_159460" data-name="Group 159460" clip-path="url(#clip-path)">
      <path id="Path_63087" data-name="Path 63087" d="M19.4,25.883a3.447,3.447,0,0,1-.1-.814,3.344,3.344,0,0,1,1.322-2.651L11.3,16.267l.9-1.04A30.159,30.159,0,0,1,62.124,48.154l-.6,1.239-5.83-3.844a12.124,12.124,0,0,1-3.636,3.379l6.825,4.5L58,54.465A30.154,30.154,0,0,1,8.013,21.5l.607-1.216L19.8,27.659c-.129-.593-.257-1.187-.4-1.776M0,34.986A34.985,34.985,0,1,0,34.985,0,34.986,34.986,0,0,0,0,34.986" fill="#fff"/>
    </g>
  </g>
  <g id="Group_159463" data-name="Group 159463">
    <g id="Group_159462" data-name="Group 159462" clip-path="url(#clip-path-8)">
      <rect id="Rectangle_10671" data-name="Rectangle 10671" width="69.97" height="69.969" transform="translate(0 0.001)" fill="#06b0e3"/>
    </g>
  </g>
  <g id="Group_159465" data-name="Group 159465">
    <g id="Group_159464" data-name="Group 159464" clip-path="url(#clip-path)">
      <path id="Path_63089" data-name="Path 63089" d="M40.848,21.63v3.865a12.03,12.03,0,0,1,2.413-.243V21.63a1.207,1.207,0,0,0-2.413,0" transform="translate(2.581 1.291)" fill="#fff"/>
    </g>
  </g>
  <g id="Group_159467" data-name="Group 159467" transform="translate(43.429 21.716)">
    <g id="Group_159466" data-name="Group 159466" clip-path="url(#clip-path-10)">
      <rect id="Rectangle_10673" data-name="Rectangle 10673" width="2.413" height="5.069" transform="translate(0 0)" fill="#06b0e3"/>
    </g>
  </g>
  <g id="Group_159469" data-name="Group 159469">
    <g id="Group_159468" data-name="Group 159468" clip-path="url(#clip-path)">
      <path id="Path_63091" data-name="Path 63091" d="M36.312,17.091V27.972a11.928,11.928,0,0,1,2.411-1.421V17.088a1.206,1.206,0,1,0-2.411,0v0" transform="translate(2.294 1.003)" fill="#fff"/>
    </g>
  </g>
  <g id="Group_159471" data-name="Group 159471" transform="translate(38.606 16.885)">
    <g id="Group_159470" data-name="Group 159470" clip-path="url(#clip-path-12)">
      <rect id="Rectangle_10675" data-name="Rectangle 10675" width="2.411" height="12.087" transform="translate(0 0.002)" fill="#06b0e3"/>
    </g>
  </g>
</svg>
