<svg id="Group_159590" data-name="Group 159590" xmlns="http://www.w3.org/2000/svg" xmlns:xlink="http://www.w3.org/1999/xlink" width="68.616" height="68.601" viewBox="0 0 68.616 68.601">
  <defs>
    <clipPath id="clip-path">
      <rect id="Rectangle_10744" data-name="Rectangle 10744" width="68.616" height="68.601" fill="none"/>
    </clipPath>
  </defs>
  <g id="Group_159590-2" data-name="Group 159590" transform="translate(0 0)" clip-path="url(#clip-path)">
    <path id="Path_63151" data-name="Path 63151" d="M27.063,39.949a19.18,19.18,0,0,1-9.689-2.609A27.078,27.078,0,0,0,0,62.615H33.052a19.724,19.724,0,0,1,5.929-24.3c-.724-.358-1.47-.682-2.23-.974a19.184,19.184,0,0,1-9.688,2.61" transform="translate(0 -3.278)" fill="#06b0e3"/>
    <path id="Path_63152" data-name="Path 63152" d="M10.587,17.406A17.406,17.406,0,1,0,27.993,0,17.406,17.406,0,0,0,10.587,17.406" transform="translate(-0.929 0)" fill="#06b0e3"/>
    <path id="Path_63153" data-name="Path 63153" d="M62.882,69.375a17.811,17.811,0,1,0-16.723.595,17.819,17.819,0,0,0,16.723-.595M47.99,43.618A11.95,11.95,0,0,0,42.436,57.1,11.95,11.95,0,0,1,47.99,43.619h0a11.95,11.95,0,0,1,14.454,1.928h0a11.95,11.95,0,0,0-14.455-1.929,11.95,11.95,0,0,1,14.455,1.929h0L42.436,57.1A11.95,11.95,0,0,1,47.99,43.618M45.481,62.38A11.953,11.953,0,0,0,65.907,54.4,11.953,11.953,0,0,1,45.482,62.38v-.005l7.605-4.389-7.606,4.389,7.606-4.389,12.406-7.159A11.95,11.95,0,0,1,45.481,62.38" transform="translate(-3.173 -3.172)" fill="#f8cd47"/>
    <path id="Path_63154" data-name="Path 63154" d="M70.359,45.032a17.82,17.82,0,0,0-15.447-8.9,17.82,17.82,0,1,1-7.788,33.84A17.821,17.821,0,0,0,70.359,45.032" transform="translate(-4.137 -3.172)" fill="#fff"/>
    <path id="Path_63155" data-name="Path 63155" d="M67.124,52.241,54.718,59.4l12.406-7.158a11.924,11.924,0,0,1,.413,3.569,11.93,11.93,0,0,0-.413-3.57" transform="translate(-4.804 -4.586)" fill="#fff"/>
    <path id="Path_63156" data-name="Path 63156" d="M63.049,46.454,43.042,58.008,63.05,46.455h0" transform="translate(-3.779 -4.078)" fill="#fff"/>
  </g>
</svg>
