<svg xmlns="http://www.w3.org/2000/svg" width="444.079" height="191.958" viewBox="0 0 444.079 191.958">
  <g id="Group_157807" data-name="Group 157807" transform="translate(4465.079 -369.042)">
    <path id="Path_13026" data-name="Path 13026" d="M-.079,65.925h12.09L14.8,57.163H31.777l2.853,8.762H47.263L29.739,17.36H17.377Zm17.66-17.388,3.736-11.751c.815-2.513,1.97-6.86,1.97-6.86h.136s1.087,4.347,1.9,6.86l3.668,11.751ZM69,67.079c11.207,0,19.9-5.638,19.9-15.826,0-10.392-8.151-13.177-17.184-15.283-7.268-1.63-11-2.445-11-5.841,0-2.717,2.785-4.551,7-4.551,4.483,0,7.336,2.106,7.811,5.841H87.27c-.475-10.188-8.626-14.943-19.154-14.943-10.868,0-19.29,4.551-19.29,14.943,0,10.188,8.9,12.769,17.32,14.739,6.656,1.63,10.6,2.445,10.6,6.317,0,3.668-3.872,5.094-7.811,5.094-5.773,0-8.966-2.038-9.509-6.928H47.331C47.6,61.374,56.093,67.079,69,67.079ZM93.79,65.925h12.226V49.691h11.343c9.985,0,16.437-6.589,16.437-15.894a15.95,15.95,0,0,0-4.89-11.954c-2.989-2.853-7.336-4.483-13.245-4.483H93.79Zm12.226-25.743V27.48h8.9c4.279,0,6.792,2.377,6.792,6.249s-2.445,6.453-6.792,6.453Zm32.127,25.743h12.022V17.36H138.144Zm18.679,0h12.022v-18.2h7.268c5.162,0,7.471,2.445,8.083,6.928.747,4.823.543,10.528,1.834,11.275h11.683v-.611c-1.7-.611-1.019-6.724-2.038-13.109-.679-4.823-2.853-7.472-7.064-8.9v-.2c5.638-1.97,8.422-6.113,8.422-11.751,0-9.034-7.336-13.992-16.981-13.992h-23.23Zm12.022-27.1V26.869h9.305c4.619,0,6.928,2.513,6.928,6.045,0,3.668-2.445,5.909-7.2,5.909Zm30.837,27.1h12.09l2.785-8.762h16.981l2.853,8.762h12.634L229.5,17.36H217.138Zm17.66-17.388,3.736-11.751c.815-2.513,1.97-6.86,1.97-6.86h.136s1.087,4.347,1.9,6.86l3.668,11.751Zm38.92,17.388h12.022V27.548h14.264V17.36H242.134V27.548h14.128Zm30.837,0h12.022V17.36H287.1ZM327.852,57.3c-7.811,0-11.819-6.724-11.819-15.554s4.007-15.622,11.819-15.622c7.879,0,11.751,6.792,11.751,15.622S335.731,57.3,327.852,57.3Zm-.068,9.781c14.739,0,24.045-10.8,24.045-25.335s-9.305-25.335-24.045-25.335c-14.671,0-23.977,10.8-23.977,25.335S313.113,67.079,327.784,67.079Zm28.731-1.155h11.751V43.306c0-1.7-.136-7.947-.136-7.947h.136s2.649,5.23,3.464,6.521l14.264,24.045h12.09V17.36H386.334V40.386c0,1.7.136,7.539.136,7.539h-.136s-2.581-4.823-3.328-6.181l-14.4-24.384h-12.09ZM424.1,67.079c11.207,0,19.9-5.638,19.9-15.826,0-10.392-8.151-13.177-17.185-15.283-7.268-1.63-11-2.445-11-5.841,0-2.717,2.785-4.551,7-4.551,4.483,0,7.336,2.106,7.811,5.841H442.37c-.475-10.188-8.626-14.943-19.154-14.943-10.868,0-19.29,4.551-19.29,14.943,0,10.188,8.9,12.769,17.32,14.739,6.656,1.63,10.6,2.445,10.6,6.317,0,3.668-3.872,5.094-7.811,5.094-5.773,0-8.966-2.038-9.509-6.928h-12.09C402.7,61.374,411.193,67.079,424.1,67.079ZM1.483,133.847H37.618v-9.441H17.377v-.068c3.26-3.464,8.287-6.317,12.43-9.713,4.143-3.192,7.743-6.928,7.743-13.381,0-8.219-6.045-14.875-17.252-14.875C13.03,86.369,8,88.951,5.355,92.754c-2.241,3.057-3.192,6.385-3.192,11.819H12.894c.068-3.192.747-5.3,2.106-6.86a6.1,6.1,0,0,1,5.026-2.106c3.94,0,6.045,2.445,6.045,6.045,0,2.309-1.155,4.075-3.057,5.773-3.668,3.26-9.1,6.656-13.313,10.256C5.083,121.553,1.619,126.036,1.483,133.847ZM62,125.968c-6.249,0-8.83-6.249-8.83-15.351S55.754,95.2,62,95.2s8.762,6.385,8.762,15.418C70.764,119.787,68.319,125.968,62,125.968Zm-.068,8.966c12.362,0,20.649-9.509,20.649-24.316S74.5,86.3,62,86.3c-12.226,0-20.581,9.509-20.581,24.316S49.844,134.934,61.934,134.934Zm43,0c9.781,0,18.407-4.619,18.407-14.6,0-6.249-3.328-9.849-8.422-11.411v-.136c4.143-1.63,7.064-4.551,7.064-9.305,0-8.219-7-13.109-17.252-13.109-11.547,0-18,6.453-18.2,15.69H97.186c.272-4.007,2.445-7.132,7.4-7.132,3.872,0,6.113,2.106,6.113,5.3,0,3.532-2.853,5.434-7.2,5.434H100.99v7.947h2.785c5.094,0,7.947,2.038,7.947,6.113,0,3.872-2.581,6.453-7.268,6.453-5.841,0-8.287-3.464-8.558-8.422H85.1c0,5.366,1.766,9.713,5.162,12.7C93.519,133.372,98.341,134.934,104.93,134.934Zm42.112-8.966c-6.249,0-8.83-6.249-8.83-15.351s2.581-15.418,8.83-15.418,8.762,6.385,8.762,15.418C155.8,119.787,153.359,125.968,147.042,125.968Zm-.068,8.966c12.362,0,20.649-9.509,20.649-24.316S159.54,86.3,147.042,86.3c-12.226,0-20.581,9.509-20.581,24.316S134.884,134.934,146.974,134.934Z" transform="translate(-4465 426.066)" fill="#fff"/>
    <path id="Subtraction_26" data-name="Subtraction 26" d="M342,175H179v-7.291H334.722V134.167H342V175h0Zm0-111.561h-7.278V7.291H7.276V63.438H0V0H342V63.438Z" transform="translate(-4465 369.042)" fill="#fff"/>
  </g>
</svg>
