<svg xmlns="http://www.w3.org/2000/svg" xmlns:xlink="http://www.w3.org/1999/xlink" width="54" height="60" viewBox="0 0 54 60">
  <defs>
    <clipPath id="clip-path">
      <rect id="Rectangle_9565" data-name="Rectangle 9565" width="54" height="60" transform="translate(-1383 1975)" fill="#fff"/>
    </clipPath>
    <clipPath id="clip-path-2">
      <rect id="Rectangle_698" data-name="Rectangle 698" width="53.5" height="58.167" fill="#555"/>
    </clipPath>
  </defs>
  <g id="Mask_Group_2" data-name="Mask Group 2" transform="translate(1383 -1975)" clip-path="url(#clip-path)">
    <g id="Group_157792" data-name="Group 157792" transform="translate(-1383 1976)">
      <g id="Group_451" data-name="Group 451" transform="translate(0 0)" clip-path="url(#clip-path-2)">
        <path id="Path_7072" data-name="Path 7072" d="M25.663,13.834l-.058-.475A16.265,16.265,0,0,0,11.366,29.507a16.47,16.47,0,0,0,.122,2,16.206,16.206,0,0,0,3.975,8.842l.357-.318-.475-.058-.79,6.553L20.5,43.99l-.188-.439-.222.424a16.093,16.093,0,0,0,7.479,1.849A16.236,16.236,0,0,0,43.794,29.558a16.513,16.513,0,0,0-.121-2.007A16.239,16.239,0,0,0,27.6,13.238a16.455,16.455,0,0,0-1.992.121l.117.95a15.484,15.484,0,0,1,1.875-.116A15.282,15.282,0,0,1,42.722,27.667a15.53,15.53,0,0,1,.116,1.891,15.308,15.308,0,0,1-13.4,15.194,15.63,15.63,0,0,1-1.873.115,15.114,15.114,0,0,1-7.035-1.74l-.2-.1L15.7,45l.618-5.12-.143-.162a15.234,15.234,0,0,1-3.74-8.32h0A15.32,15.32,0,0,1,25.722,14.309Z" transform="translate(-0.832 -0.969)" fill="#555"/>
        <path id="Path_7073" data-name="Path 7073" d="M32.765,30.676l-2.057-.756-.267.665.567.207L28.92,37.735l-.264-4.659h-.812l-.26,4.571L25.52,30.785l.548-.2-.272-.669-2.033.75-.025.011a6.056,6.056,0,0,0-3.179,5.8l0,.051.015.053c.022.049.437,1.14,2.472,1.14l.23-.008A7.78,7.78,0,0,0,28.2,39.042h.106c1.681-.011,3.817-.373,4.924-1.336l.228.008c2.026,0,2.447-1.091,2.464-1.14l.018-.053.006-.051a6.073,6.073,0,0,0-3.18-5.8m.1,5.522a6.1,6.1,0,0,1-2.223.4l-.368-.013v-.431a5.024,5.024,0,0,0,2.59-.406ZM27.67,31.55l-.243.642.392.559h.866l.39-.559-.243-.642Zm-2.229-3.73c.5,1.489,1.456,2.62,2.813,2.62,1.3,0,2.27-1.117,2.792-2.6,1.049-1.07.8-1.868.559-2.255a3.315,3.315,0,0,0-3.448-4.313c-4.086,0-3.371,4.5-3.371,4.5h.008c-.184.422-.236,1.135.647,2.045m3.888-3.6a2.99,2.99,0,0,0,1.44,1.129c-.056,2.134-1.007,4.368-2.515,4.368-1.409,0-2.332-1.938-2.493-3.931a5.455,5.455,0,0,0,3.568-1.566" transform="translate(-1.504 -1.557)" fill="#555"/>
        <path id="Path_7074" data-name="Path 7074" d="M31.694,9.263l0,.032-.008.032c-.012.032-.268.693-1.506.693l-.14,0a5.042,5.042,0,0,1-3.006.815h-.061a4.761,4.761,0,0,1-3-.815l-.139,0c-1.238,0-1.493-.662-1.505-.693L22.31,9.3V9.263a3.711,3.711,0,0,1,1.939-3.531l.021,0,1.231-.46.166.407-.333.124L26.6,9.984l.157-2.789h.5l.163,2.841L28.686,5.8l-.35-.127.168-.408,1.252.463a3.7,3.7,0,0,1,1.938,3.531m-1.879-.438a3.057,3.057,0,0,1-1.582.249v.264l.229.006A3.74,3.74,0,0,0,29.815,9.1Zm-2.461-2.56.148.388L27.263,7h-.527l-.24-.347.151-.388ZM24.9,2.742H24.89S24.458,0,26.94,0a2.018,2.018,0,0,1,2.1,2.627c.151.232.3.722-.338,1.374-.319.906-.907,1.586-1.7,1.586-.824,0-1.406-.691-1.715-1.6-.54-.554-.505-.987-.393-1.247m.587.009c.1,1.216.659,2.4,1.521,2.4.924,0,1.5-1.361,1.534-2.665a1.8,1.8,0,0,1-.874-.686,3.355,3.355,0,0,1-2.181.953" transform="translate(-1.632 0)" fill="#555"/>
        <path id="Path_7075" data-name="Path 7075" d="M51.959,14.932v.029l-.012.031c-.012.032-.267.7-1.5.7l-.135,0a5.1,5.1,0,0,1-3.01.815H47.24a4.761,4.761,0,0,1-3-.815l-.138,0c-1.238,0-1.5-.663-1.508-.7l-.007-.031-.007-.029A3.7,3.7,0,0,1,44.521,11.4l.015-.008,1.236-.456.166.405-.337.126,1.26,4.186.162-2.79h.5l.162,2.842,1.27-4.233-.348-.131.165-.405,1.252.464a3.7,3.7,0,0,1,1.938,3.535m-1.879-.443a3.065,3.065,0,0,1-1.578.251V15l.225.006a3.71,3.71,0,0,0,1.353-.246Zm-2.454-2.562.146.392-.236.343h-.529l-.237-.343.15-.392Zm-2.463-3.52-.007,0s-.434-2.742,2.051-2.742a2.017,2.017,0,0,1,2.1,2.629c.15.234.3.721-.338,1.374-.316.906-.9,1.586-1.7,1.586-.829,0-1.406-.69-1.713-1.6-.542-.554-.5-.989-.4-1.248m.588.009c.1,1.214.659,2.4,1.522,2.4.921,0,1.5-1.362,1.53-2.664a1.776,1.776,0,0,1-.872-.691,3.339,3.339,0,0,1-2.18.958" transform="translate(-3.115 -0.414)" fill="#555"/>
        <path id="Path_7076" data-name="Path 7076" d="M56.975,38.271V38.3l-.013.033c-.012.031-.266.694-1.508.694l-.129,0a5.1,5.1,0,0,1-3.012.815h-.058a4.747,4.747,0,0,1-3-.815l-.146,0c-1.235,0-1.493-.664-1.505-.694l-.012-.033v-.032a3.689,3.689,0,0,1,1.943-3.531l.016,0,1.233-.46.166.405-.329.123,1.254,4.189.162-2.793h.489l.166,2.841,1.274-4.229-.348-.131.166-.405,1.252.464a3.7,3.7,0,0,1,1.938,3.531M55.1,37.831a3.128,3.128,0,0,1-1.579.251v.26l.226.011a3.744,3.744,0,0,0,1.353-.247ZM52.641,35.27l.151.392L52.55,36h-.529l-.24-.338.149-.392ZM50.18,31.75h-.008s-.436-2.743,2.051-2.743a2.023,2.023,0,0,1,2.108,2.628c.148.234.3.719-.342,1.372-.324.909-.906,1.585-1.7,1.585-.824,0-1.408-.69-1.713-1.593-.539-.557-.505-.992-.392-1.248m.59.008c.095,1.217.654,2.4,1.514,2.4.916,0,1.5-1.366,1.531-2.665a1.806,1.806,0,0,1-.872-.688,3.365,3.365,0,0,1-2.173.955" transform="translate(-3.482 -2.123)" fill="#555"/>
        <path id="Path_7077" data-name="Path 7077" d="M46.628,56.1v.032l-.012.032c-.006.028-.264.691-1.5.691l-.135,0a5.128,5.128,0,0,1-3.008.815h-.066a4.769,4.769,0,0,1-3-.815l-.142,0c-1.236,0-1.492-.664-1.5-.691l-.013-.032,0-.032a3.693,3.693,0,0,1,1.942-3.535l.013-.006,1.237-.46.166.409-.332.125,1.259,4.181.159-2.785h.493l.166,2.84,1.275-4.232-.357-.128.171-.41,1.253.465A3.686,3.686,0,0,1,46.628,56.1m-1.874-.439a3.142,3.142,0,0,1-1.577.252v.26l.225.009a3.8,3.8,0,0,0,1.352-.248ZM42.294,53.1l.152.389-.242.345h-.527l-.242-.345.15-.389Zm-2.46-3.52-.009,0s-.435-2.741,2.056-2.741a2.023,2.023,0,0,1,2.109,2.628c.141.234.3.72-.348,1.372-.315.9-.906,1.585-1.7,1.585-.823,0-1.4-.689-1.712-1.6-.541-.551-.505-.986-.394-1.244m.587.008c.095,1.213.665,2.395,1.519,2.395.919,0,1.5-1.362,1.536-2.661a1.836,1.836,0,0,1-.88-.692,3.325,3.325,0,0,1-2.175.958" transform="translate(-2.725 -3.427)" fill="#555"/>
        <path id="Path_7078" data-name="Path 7078" d="M24.262,60.336l0,.035-.01.03c-.008.031-.271.692-1.5.692l-.135,0A5.092,5.092,0,0,1,19.6,61.9h-.06a4.762,4.762,0,0,1-3-.814l-.142,0c-1.235,0-1.489-.662-1.5-.692l-.017-.03v-.035A3.7,3.7,0,0,1,16.819,56.8l.014-.007,1.237-.456.166.405-.332.126,1.26,4.183.153-2.788h.5l.162,2.84,1.276-4.231-.348-.13.166-.405,1.249.463a3.7,3.7,0,0,1,1.943,3.532M22.379,59.9a3.141,3.141,0,0,1-1.577.25v.26l.223.011a3.814,3.814,0,0,0,1.354-.247Zm-2.457-2.564.154.39-.247.344h-.524l-.24-.344.151-.39Zm-2.454-3.521h-.015s-.432-2.742,2.058-2.742a2.019,2.019,0,0,1,2.1,2.63c.146.231.3.718-.339,1.369-.32.908-.911,1.59-1.7,1.59-.83,0-1.413-.694-1.72-1.6-.542-.552-.5-.988-.387-1.248m.583.009c.1,1.212.663,2.4,1.525,2.4.916,0,1.495-1.365,1.526-2.664a1.843,1.843,0,0,1-.876-.691,3.332,3.332,0,0,1-2.175.956" transform="translate(-1.088 -3.737)" fill="#555"/>
        <path id="Path_7079" data-name="Path 7079" d="M9.389,43.867V43.9l-.013.035c-.008.028-.264.693-1.5.693l-.134,0a5.086,5.086,0,0,1-3.012.812H4.667a4.757,4.757,0,0,1-3-.812l-.145,0c-1.235,0-1.493-.665-1.5-.693L.011,43.9l0-.029a3.707,3.707,0,0,1,1.943-3.535l.017,0L3.2,39.87l.171.406-.34.124,1.261,4.185.158-2.79h.5l.162,2.842L6.38,40.4l-.35-.127L6.2,39.87l1.252.462a3.707,3.707,0,0,1,1.938,3.535m-1.875-.443a3.122,3.122,0,0,1-1.583.254v.26l.226.006A3.7,3.7,0,0,0,7.514,43.7Zm-2.459-2.56.146.394-.237.339H4.436l-.241-.339.155-.394ZM2.594,37.346H2.586S2.15,34.6,4.638,34.6a2.023,2.023,0,0,1,2.11,2.63c.143.232.291.719-.346,1.371-.317.906-.9,1.586-1.7,1.586-.827,0-1.406-.688-1.715-1.6-.54-.552-.508-.986-.393-1.244m.587.008c.1,1.213.665,2.394,1.521,2.394.918,0,1.5-1.361,1.535-2.664a1.732,1.732,0,0,1-.879-.69,3.331,3.331,0,0,1-2.177.96" transform="translate(0 -2.532)" fill="#555"/>
        <path id="Path_7080" data-name="Path 7080" d="M11.04,19.589l-.006.032-.007.028c-.009.031-.267.694-1.5.694l-.142,0a5.091,5.091,0,0,1-3,.813H6.314a4.742,4.742,0,0,1-3-.813l-.148,0c-1.237,0-1.488-.664-1.5-.694l-.012-.028v-.032A3.7,3.7,0,0,1,3.6,16.052l.011-.006,1.239-.459.166.406-.332.126,1.257,4.186L6.1,17.517h.5l.16,2.841,1.276-4.234-.354-.131.171-.406,1.248.464a3.7,3.7,0,0,1,1.944,3.537m-1.88-.442a3.053,3.053,0,0,1-1.578.25v.262l.221,0a3.635,3.635,0,0,0,1.358-.242ZM6.7,16.584l.151.392-.24.344h-.53l-.238-.344.149-.392ZM4.245,13.066H4.23s-.43-2.749,2.052-2.749A2.03,2.03,0,0,1,8.4,12.953c.145.23.3.718-.349,1.371-.315.9-.9,1.583-1.7,1.583-.826,0-1.406-.687-1.716-1.6-.538-.551-.508-.986-.387-1.246m.586.009c.1,1.21.659,2.4,1.517,2.4.922,0,1.5-1.362,1.532-2.666A1.8,1.8,0,0,1,7,12.119a3.335,3.335,0,0,1-2.173.956" transform="translate(-0.121 -0.755)" fill="#555"/>
        <path id="Path_7081" data-name="Path 7081" d="M16.488,10.96l.676.344,1.072-2.148L16.61,7.436l-.551.523,1.007,1.067a8.039,8.039,0,0,0-5.953,3.531l.64.406A7.357,7.357,0,0,1,17.067,9.8Z" transform="translate(-0.813 -0.544)" fill="#555"/>
        <path id="Path_7082" data-name="Path 7082" d="M38.051,10.928l.155.745,2.335-.479.331-2.358-.748-.108-.2,1.461a8.028,8.028,0,0,0-6.445-2.52l.087.76a7.349,7.349,0,0,1,5.76,2.238Z" transform="translate(-2.449 -0.558)" fill="#555"/>
        <path id="Path_7083" data-name="Path 7083" d="M50.578,24.638l-.482.591,1.855,1.513,2.02-1.235-.395-.653-1.251.766a8.148,8.148,0,0,0-2.161-6.612l-.529.551a7.444,7.444,0,0,1,1.942,5.9Z" transform="translate(-3.632 -1.391)" fill="#555"/>
        <path id="Path_7084" data-name="Path 7084" d="M50.62,24.618l-.467.583,1.8,1.487,1.963-1.214-.384-.645-1.214.756a8.078,8.078,0,0,0-2.1-6.5l-.514.541a7.375,7.375,0,0,1,1.884,5.8Z" transform="translate(-3.637 -1.396)" fill="#555"/>
        <path id="Path_7085" data-name="Path 7085" d="M47.5,46.11l-.753.019.068,2.375,2.212.734.234-.72-1.373-.454a8,8,0,0,0,3.527-5.889l-.743-.045A7.365,7.365,0,0,1,47.532,47.4Z" transform="translate(-3.421 -3.083)" fill="#555"/>
        <path id="Path_7086" data-name="Path 7086" d="M29.211,56.659l-.484-.572-1.8,1.509.808,2.183.7-.26-.5-1.351a8,8,0,0,0,6.786-.842l-.434-.615a7.325,7.325,0,0,1-6.053.766Z" transform="translate(-1.97 -4.104)" fill="#555"/>
        <path id="Path_7087" data-name="Path 7087" d="M9.88,49.92l.108-.745-2.321-.357-1.1,2.065.653.361L7.9,49.961a7.985,7.985,0,0,0,5.113,4.553l.181-.733a7.3,7.3,0,0,1-4.577-4.057Z" transform="translate(-0.48 -3.572)" fill="#555"/>
        <path id="Path_7088" data-name="Path 7088" d="M4.833,27.07l.7-.286-.9-2.223-2.355.1.032.761,1.461-.061A8.177,8.177,0,0,0,2.49,32.2l.721-.223A7.469,7.469,0,0,1,4.35,25.866Z" transform="translate(-0.16 -1.797)" fill="#555"/>
      </g>
    </g>
  </g>
</svg>
