<svg xmlns="http://www.w3.org/2000/svg" xmlns:xlink="http://www.w3.org/1999/xlink" width="591.175" height="586.293" viewBox="0 0 591.175 586.293">
  <defs>
    <clipPath id="clip-path">
      <rect id="Rectangle_9566" data-name="Rectangle 9566" width="590.242" height="585.566" fill="none"/>
    </clipPath>
    <clipPath id="clip-path-3">
      <rect id="Rectangle_7564" data-name="Rectangle 7564" width="43.086" height="41.773" fill="#fff"/>
    </clipPath>
    <clipPath id="clip-path-4">
      <rect id="Rectangle_699" data-name="Rectangle 699" width="41.071" height="59" fill="#fff"/>
    </clipPath>
    <clipPath id="clip-path-5">
      <rect id="Rectangle_698" data-name="Rectangle 698" width="55.186" height="60" fill="#fff"/>
    </clipPath>
  </defs>
  <g id="Group_157799" data-name="Group 157799" transform="translate(4650.364 -798.328)">
    <path id="Path_62230" data-name="Path 62230" d="M51.225,117.941S148.35-38.5,360.2,9.735c0,0-88.651,9.777-110.162,112.118-9.537,32.737-19.787,60.739-19.787,60.739s-2.52,10.973-11.835,17.963c-6.065,4.552-15.547,6.463-27.791,7.08-12.573.635-26.623.863-39.836.423-30.845-1.028-57.167,3.17-58.5,40.253" transform="translate(-4634.73 798.845)" fill="none" stroke="#fff" stroke-miterlimit="10" stroke-width="2"/>
    <path id="Path_62232" data-name="Path 62232" d="M323.469,11.639S502.886,53.077,525.6,269.159c0,0-37.865-80.752-141.672-68.083-34.063,1.538-63.874.875-63.874.875s-11.2,1.157-20.821-5.4c-6.266-4.272-11.135-12.63-15.671-24.019-4.658-11.7-9.409-24.92-13.256-37.57-8.982-29.525-21.45-53.083-56.979-42.376" transform="translate(-4586.406 802.166)" fill="none" stroke="#fff" stroke-miterlimit="10" stroke-width="2"/>
    <path id="Path_62233" data-name="Path 62233" d="M496.262,247.815s12.3,183.73-187.946,268.051c0,0,66.325-59.629,24.137-155.319-11.338-32.158-19.335-60.883-19.335-60.883s-4.35-10.383-.858-21.5c2.274-7.233,8.863-14.314,18.451-21.953,9.847-7.846,21.127-16.222,32.12-23.568,25.659-17.148,44.6-35.9,24.06-66.81" transform="translate(-4558.092 848.132)" fill="none" stroke="#fff" stroke-miterlimit="10" stroke-width="2"/>
    <path id="Path_62231" data-name="Path 62231" d="M365.675,476.455S195.745,547.39,51.312,385.074c0,0,77.843,43.533,154.8-27.281,26.778-21.11,51.387-37.95,51.387-37.95s8.423-7.468,20.067-7.748c7.581-.183,16.409,3.77,26.734,10.378,10.6,6.788,22.173,14.761,32.673,22.795,24.511,18.752,48.376,30.623,71,1.21" transform="translate(-4634.703 891.729)" fill="none" stroke="#fff" stroke-miterlimit="10" stroke-width="2"/>
    <path id="Path_62229" data-name="Path 62229" d="M58.238,430.33S-62.768,291.531,45.576,103.2c0,0-16.7,87.612,74.808,138.24C148.875,260.171,172.63,278.2,172.63,278.2s9.749,5.632,13.694,16.59c2.569,7.134,1.61,16.76-1.4,28.644-3.088,12.206-7,25.7-11.3,38.2-10.045,29.182-13.765,55.575,21.29,67.744" transform="translate(-4649.852 829.46)" fill="none" stroke="#fff" stroke-miterlimit="10" stroke-width="2"/>
    <path id="Path_62234" data-name="Path 62234" d="M0,0H590.242V585.566H0Z" transform="translate(-4650 798.696)" fill="none"/>
    <path id="Path_62236" data-name="Path 62236" transform="translate(-4450.035 959.552)" fill="#0095da"/>
    <path id="Path_62235" data-name="Path 62235" d="M0,0H590.242V585.566H0Z" transform="translate(-4650 798.696)" fill="none"/>
    <g id="Group_157794" data-name="Group 157794" transform="translate(-4868 -776.195)">
      <path id="Path_13026" data-name="Path 13026" d="M-.079,38.043H5.2L6.42,34.215h7.419l1.246,3.828h5.52L12.949,16.824h-5.4Zm7.716-7.6,1.632-5.134c.356-1.1.861-3,.861-3h.059s.475,1.9.831,3l1.6,5.134Zm22.465,8.1c4.9,0,8.7-2.463,8.7-6.915,0-4.541-3.561-5.757-7.508-6.677-3.175-.712-4.808-1.068-4.808-2.552,0-1.187,1.217-1.988,3.057-1.988,1.959,0,3.205.92,3.413,2.552h5.134c-.208-4.452-3.769-6.529-8.369-6.529-4.748,0-8.428,1.988-8.428,6.529,0,4.452,3.888,5.579,7.568,6.44,2.908.712,4.63,1.068,4.63,2.76,0,1.6-1.692,2.226-3.413,2.226-2.523,0-3.917-.89-4.155-3.027H20.636C20.754,36.055,24.464,38.548,30.1,38.548Zm10.832-.5h5.342V30.951h4.956c4.363,0,7.182-2.879,7.182-6.944a6.969,6.969,0,0,0-2.137-5.223,8.053,8.053,0,0,0-5.787-1.959H40.935ZM46.276,26.8v-5.55h3.888c1.87,0,2.968,1.039,2.968,2.73A2.677,2.677,0,0,1,50.164,26.8ZM60.314,38.043h5.253V16.824H60.314Zm8.161,0h5.253V30.09H76.9c2.255,0,3.264,1.068,3.532,3.027.326,2.107.237,4.6.8,4.926h5.1v-.267c-.742-.267-.445-2.938-.89-5.728a4.25,4.25,0,0,0-3.086-3.888v-.089a5.08,5.08,0,0,0,3.68-5.134c0-3.947-3.205-6.113-7.419-6.113H68.475ZM73.728,26.2V20.979h4.066c2.018,0,3.027,1.1,3.027,2.641,0,1.6-1.068,2.582-3.146,2.582ZM87.2,38.043h5.282L93.7,34.215h7.419l1.246,3.828h5.52l-7.657-21.219h-5.4Zm7.716-7.6,1.632-5.134c.356-1.1.861-3,.861-3h.059s.475,1.9.831,3l1.6,5.134Zm17,7.6h5.253V21.276h6.232V16.824H105.749v4.452h6.173Zm13.473,0h5.253V16.824H125.4ZM143.2,34.275c-3.413,0-5.164-2.938-5.164-6.8s1.751-6.826,5.164-6.826c3.443,0,5.134,2.968,5.134,6.826S146.644,34.275,143.2,34.275Zm-.03,4.273c6.44,0,10.506-4.719,10.506-11.07s-4.066-11.069-10.506-11.069c-6.41,0-10.476,4.719-10.476,11.069S136.761,38.548,143.172,38.548Zm12.553-.5h5.134V28.161c0-.742-.059-3.472-.059-3.472h.059s1.157,2.285,1.514,2.849L168.6,38.043h5.282V16.824h-5.134v10.06c0,.742.059,3.294.059,3.294h-.059s-1.128-2.107-1.454-2.7l-6.292-10.654h-5.283Zm29.529.5c4.9,0,8.7-2.463,8.7-6.915,0-4.541-3.561-5.757-7.508-6.677-3.175-.712-4.808-1.068-4.808-2.552,0-1.187,1.217-1.988,3.057-1.988,1.959,0,3.205.92,3.413,2.552h5.134c-.208-4.452-3.769-6.529-8.369-6.529-4.748,0-8.428,1.988-8.428,6.529,0,4.452,3.888,5.579,7.568,6.44,2.908.712,4.63,1.068,4.63,2.76,0,1.6-1.692,2.226-3.413,2.226-2.523,0-3.917-.89-4.155-3.027h-5.282C175.905,36.055,179.615,38.548,185.254,38.548ZM.6,67.72H16.392V63.6H7.548v-.03c1.424-1.514,3.621-2.76,5.431-4.244,1.81-1.395,3.383-3.027,3.383-5.846,0-3.591-2.641-6.5-7.538-6.5-3.175,0-5.372,1.128-6.529,2.79A7.988,7.988,0,0,0,.9,54.93H5.589a4.459,4.459,0,0,1,.92-3,2.664,2.664,0,0,1,2.2-.92,2.433,2.433,0,0,1,2.641,2.641,3.317,3.317,0,0,1-1.335,2.523c-1.6,1.424-3.977,2.908-5.817,4.481A8.731,8.731,0,0,0,.6,67.72Zm26.442-3.443c-2.73,0-3.858-2.73-3.858-6.707s1.128-6.737,3.858-6.737,3.828,2.79,3.828,6.737C30.874,61.577,29.806,64.278,27.046,64.278Zm-.03,3.917c5.4,0,9.022-4.155,9.022-10.624s-3.532-10.624-8.992-10.624c-5.342,0-8.992,4.155-8.992,10.624S21.734,68.2,27.016,68.2Zm18.786,0c4.273,0,8.042-2.018,8.042-6.381a4.816,4.816,0,0,0-3.68-4.986V56.77A4.256,4.256,0,0,0,53.25,52.7c0-3.591-3.057-5.728-7.538-5.728-5.045,0-7.864,2.819-7.953,6.855h4.659a3.007,3.007,0,0,1,3.235-3.116c1.692,0,2.671.92,2.671,2.315,0,1.543-1.246,2.374-3.146,2.374h-1.1v3.472H45.3c2.226,0,3.472.89,3.472,2.671,0,1.692-1.128,2.819-3.175,2.819-2.552,0-3.621-1.514-3.739-3.68H37.136a7.09,7.09,0,0,0,2.255,5.55C40.816,67.513,42.923,68.2,45.8,68.2Zm18.4-3.917c-2.73,0-3.858-2.73-3.858-6.707s1.128-6.737,3.858-6.737,3.828,2.79,3.828,6.737C68.03,61.577,66.961,64.278,64.2,64.278Zm-.03,3.917c5.4,0,9.022-4.155,9.022-10.624S69.662,46.947,64.2,46.947c-5.342,0-8.992,4.155-8.992,10.624S58.889,68.2,64.172,68.2Z" transform="translate(421 1832.676)" fill="#fff"/>
      <path id="Subtraction_26" data-name="Subtraction 26" d="M149.427,76.461H78.211V73.275h68.037V58.621h3.18V76.461h0Zm0-48.744h-3.18V3.186H3.179V27.717H0V0H149.427V27.717Z" transform="translate(420.956 1817)" fill="#fff"/>
    </g>
    <path id="Path_62237" data-name="Path 62237" d="M.88,15H9.344V13.064H3.2V9.976H8.544v-1.9H3.2V5.512H9.3V3.56H.88ZM12.736,6.792H10.608V15h2.176V10.344a1.715,1.715,0,0,1,1.664-1.888,1.366,1.366,0,0,1,1.424,1.5V15h2.176V9.64a2.824,2.824,0,0,0-2.832-3.072,2.667,2.667,0,0,0-2.432,1.344h-.048ZM21.408,15h2.08l2.864-8.208H24.176l-1.344,4.256c-.24.784-.352,1.312-.352,1.312h-.032s-.128-.528-.368-1.312L20.768,6.792H18.56Zm5.68,0h2.176V6.792H27.088Zm0-9.488h2.176V3.56H27.088Zm5.68,1.28h-2.1V15h2.176V11A2.068,2.068,0,0,1,35.3,8.664h.048V6.76a1.421,1.421,0,0,0-.512-.064A2.153,2.153,0,0,0,32.816,8.1h-.048Zm7.168,8.448A4.173,4.173,0,0,0,44.224,10.9a4.288,4.288,0,1,0-8.576,0A4.173,4.173,0,0,0,39.936,15.24Zm0-1.664c-1.344,0-2.08-1.072-2.08-2.672s.736-2.688,2.08-2.688c1.328,0,2.08,1.088,2.08,2.688S41.264,13.576,39.936,13.576ZM47.36,6.792H45.232V15h2.176V10.344a1.715,1.715,0,0,1,1.664-1.888A1.366,1.366,0,0,1,50.5,9.96V15h2.176V9.64A2.824,2.824,0,0,0,49.84,6.568a2.667,2.667,0,0,0-2.432,1.344H47.36ZM54.016,15h2.176V10.232c0-1.088.592-1.792,1.472-1.792.8,0,1.264.48,1.264,1.408V15H61.1V10.232c0-1.088.56-1.792,1.472-1.792.8,0,1.264.48,1.264,1.408V15h2.176V9.48a2.583,2.583,0,0,0-2.7-2.912,2.863,2.863,0,0,0-2.464,1.44h-.032a2.449,2.449,0,0,0-2.272-1.44A2.68,2.68,0,0,0,56.16,7.9h-.048v-1.1h-2.1Zm17.2.24a3.522,3.522,0,0,0,3.712-2.688H72.784A1.532,1.532,0,0,1,71.2,13.56a2.04,2.04,0,0,1-2.1-2.048h5.952c0-2.928-1.408-4.944-4.048-4.944a4.061,4.061,0,0,0-4.048,4.32A4.063,4.063,0,0,0,71.216,15.24ZM71.04,8.248a1.731,1.731,0,0,1,1.744,1.76H69.136A1.827,1.827,0,0,1,71.04,8.248Zm7.152-1.456H76.064V15H78.24V10.344A1.715,1.715,0,0,1,79.9,8.456a1.366,1.366,0,0,1,1.424,1.5V15H83.5V9.64a2.824,2.824,0,0,0-2.832-3.072A2.667,2.667,0,0,0,78.24,7.912h-.048Zm6.016,1.44h1.136v4.816c0,1.552,1.168,1.968,2.224,1.968.864,0,1.36-.032,1.36-.032v-1.6s-.368.016-.64.016a.72.72,0,0,1-.816-.816V8.232H88.88V6.792H87.472V4.232H85.344v2.56H84.208ZM96.1,15.24a5.084,5.084,0,0,0,3.04-.992l.592.752h2.656l-1.808-2.336a7.973,7.973,0,0,0,1.088-3.536H99.728a7.316,7.316,0,0,1-.448,1.856L97.76,9.016c1.232-.64,2.048-1.344,2.048-2.752a3,3,0,0,0-5.952.016,3.436,3.436,0,0,0,.96,2.368c-1.488.752-2.528,1.776-2.528,3.408C92.288,13.848,93.584,15.24,96.1,15.24Zm.08-1.792a1.474,1.474,0,0,1-1.584-1.456A2.222,2.222,0,0,1,95.9,10.04L98,12.776A2.789,2.789,0,0,1,96.176,13.448Zm-.224-7.136A.9.9,0,1,1,97.744,6.3a1.632,1.632,0,0,1-.96,1.488A2.227,2.227,0,0,1,95.952,6.312ZM5.312,31.256c2.576,0,4.448-1.3,4.448-3.616,0-2.464-1.92-3.024-4.272-3.536-1.7-.368-2.5-.64-2.5-1.568,0-.816.816-1.344,2.064-1.344A1.973,1.973,0,0,1,7.264,22.92H9.488c-.176-2.3-1.84-3.568-4.416-3.568-2.544,0-4.384,1.168-4.384,3.424,0,2.384,1.872,2.928,3.92,3.392,1.744.4,2.832.624,2.832,1.744,0,1.056-1.04,1.472-2.224,1.472-1.632,0-2.416-.544-2.576-1.92H.368C.448,29.88,2.208,31.256,5.312,31.256Zm9.552-.016A4.173,4.173,0,0,0,19.152,26.9a4.173,4.173,0,0,0-4.288-4.336A4.173,4.173,0,0,0,10.576,26.9,4.173,4.173,0,0,0,14.864,31.24Zm0-1.664c-1.344,0-2.08-1.072-2.08-2.672s.736-2.688,2.08-2.688c1.328,0,2.08,1.088,2.08,2.688S16.192,29.576,14.864,29.576Zm9.1,1.664a3.438,3.438,0,0,0,3.7-3.136h-2.1A1.532,1.532,0,0,1,23.92,29.5c-1.328,0-1.952-1.04-1.952-2.592,0-1.584.672-2.592,1.984-2.592a1.5,1.5,0,0,1,1.5,1.264h2.128a3.485,3.485,0,0,0-3.728-3.008,4.048,4.048,0,0,0-4.1,4.336A4.082,4.082,0,0,0,23.968,31.24Zm4.64-.24h2.176V22.792H28.608Zm0-9.488h2.176V19.56H28.608ZM37.36,31h2.1v-.08c-.192-.144-.288-.512-.288-1.136V25.608c0-1.92-.992-3.024-3.456-3.024-2.4,0-3.472,1.264-3.536,2.7h1.936c.064-.784.56-1.152,1.584-1.152.912,0,1.376.384,1.376.976,0,.624-.624.736-1.984.928-1.824.256-3.3.832-3.3,2.64,0,1.632,1.184,2.512,2.864,2.512a2.517,2.517,0,0,0,2.416-1.1H37.1A2.226,2.226,0,0,0,37.36,31Zm-2.176-1.328c-.768,0-1.28-.272-1.28-1.04s.56-1.024,1.7-1.28a6.067,6.067,0,0,0,1.52-.48V28.1C37.12,28.9,36.432,29.672,35.184,29.672ZM40.576,31h2.176V19.56H40.576ZM.88,47H3.2V42.408H5.072a1.953,1.953,0,0,1,2.24,1.952c.1,1.232.128,2.512.416,2.64H9.952v-.112c-.4-.176-.336-1.408-.5-3.024a2.26,2.26,0,0,0-1.744-2.3v-.048a2.63,2.63,0,0,0,2.1-2.768c0-1.9-1.472-3.184-3.68-3.184H.88ZM3.2,37.432H5.728c1.232,0,1.824.688,1.824,1.616,0,.912-.624,1.568-1.888,1.568H3.2ZM14.9,47.24a3.522,3.522,0,0,0,3.712-2.688H16.464A1.532,1.532,0,0,1,14.88,45.56a2.04,2.04,0,0,1-2.1-2.048h5.952c0-2.928-1.408-4.944-4.048-4.944a4.061,4.061,0,0,0-4.048,4.32A4.063,4.063,0,0,0,14.9,47.24Zm-.176-6.992a1.731,1.731,0,0,1,1.744,1.76H12.816A1.827,1.827,0,0,1,14.72,40.248Zm8.352,6.992c2.048,0,3.456-.992,3.456-2.64,0-1.92-1.52-2.3-2.9-2.592-1.168-.24-2.256-.3-2.256-1.008,0-.592.56-.912,1.408-.912.928,0,1.488.32,1.584,1.2h1.968c-.16-1.648-1.36-2.72-3.52-2.72-1.872,0-3.344.848-3.344,2.624,0,1.792,1.44,2.192,2.912,2.48,1.12.224,2.16.3,2.16,1.088,0,.576-.544.944-1.5.944a1.579,1.579,0,0,1-1.792-1.36H19.232C19.36,46.088,20.688,47.24,23.072,47.24ZM27.5,49.688H29.68V46.072h.032A2.643,2.643,0,0,0,32.08,47.24c2.112,0,3.552-1.68,3.552-4.336,0-2.56-1.392-4.336-3.568-4.336a2.868,2.868,0,0,0-2.416,1.248H29.6V38.792H27.5Zm4.112-4.256c-1.3,0-1.984-.976-1.984-2.464,0-1.472.544-2.64,1.9-2.64,1.344,0,1.888,1.088,1.888,2.64S32.72,45.432,31.616,45.432Zm8.912,1.808A4.336,4.336,0,1,0,36.24,42.9,4.173,4.173,0,0,0,40.528,47.24Zm0-1.664c-1.344,0-2.08-1.072-2.08-2.672s.736-2.688,2.08-2.688c1.328,0,2.08,1.088,2.08,2.688S41.856,45.576,40.528,45.576Zm7.424-6.784H45.824V47H48V42.344a1.715,1.715,0,0,1,1.664-1.888,1.366,1.366,0,0,1,1.424,1.5V47h2.176V41.64a2.824,2.824,0,0,0-2.832-3.072A2.667,2.667,0,0,0,48,39.912h-.048Zm9.984,8.448c2.048,0,3.456-.992,3.456-2.64,0-1.92-1.52-2.3-2.9-2.592-1.168-.24-2.256-.3-2.256-1.008,0-.592.56-.912,1.408-.912.928,0,1.488.32,1.584,1.2H61.2c-.16-1.648-1.36-2.72-3.52-2.72-1.872,0-3.344.848-3.344,2.624,0,1.792,1.44,2.192,2.912,2.48,1.12.224,2.16.3,2.16,1.088,0,.576-.544.944-1.5.944a1.579,1.579,0,0,1-1.792-1.36H54.1C54.224,46.088,55.552,47.24,57.936,47.24ZM62.368,47h2.176V38.792H62.368Zm0-9.488h2.176V35.56H62.368Zm8.16,9.728C72.592,47.24,74,45.56,74,42.9c0-2.56-1.472-4.336-3.536-4.336a2.566,2.566,0,0,0-2.288,1.216h-.048V35.56H65.952V47h2.1V45.976h.032A2.73,2.73,0,0,0,70.528,47.24Zm-.48-1.824c-1.216,0-1.968-.96-1.968-2.464,0-1.52.512-2.624,1.888-2.624,1.216,0,1.824,1.056,1.824,2.576C71.792,44.488,71.168,45.416,70.048,45.416ZM75.008,47h2.176V38.792H75.008Zm0-9.488h2.176V35.56H75.008ZM78.624,47H80.8V35.56H78.624Zm3.616,0h2.176V38.792H82.24Zm0-9.488h2.176V35.56H82.24Zm3.1,2.72H86.48v4.816c0,1.552,1.168,1.968,2.224,1.968.864,0,1.36-.032,1.36-.032v-1.6s-.368.016-.64.016a.72.72,0,0,1-.816-.816V40.232h1.408v-1.44H88.608v-2.56H86.48v2.56H85.344Zm6.128,9.456h1.28c1.664,0,2.272-.656,2.9-2.48l2.864-8.416H96.32l-1.152,3.7c-.256.752-.48,1.792-.48,1.792h-.032s-.272-1.04-.528-1.792l-1.216-3.7H90.624l2.208,5.84a7.11,7.11,0,0,1,.624,2.224c0,.672-.352,1.12-1.216,1.12h-.768Z" transform="translate(-4535.143 933.618)" fill="#fff"/>
    <g id="Group_17791" data-name="Group 17791" transform="translate(-4535.143 877.883)">
      <path id="Path_7096" data-name="Path 7096" d="M22.438,8.827a1.462,1.462,0,0,0-1.113,1.393v1.238a3.447,3.447,0,0,1-3.8,3.313,3.748,3.748,0,0,1-1.885-.69l-.546-.386a2.512,2.512,0,0,0-1.855-.439,2.312,2.312,0,0,0-1.518.941l-2.182,3.09a.583.583,0,0,1-.192.171,13.643,13.643,0,0,0,1.31,3.278c.515-1.043,1.987-2.866,6.088-3.405,4.759-.626,5.339-2.32,5.344-2.337l0,.017a.8.8,0,0,1,.421,1.37c-.786.743-2.381,1.649-5.594,2.072-4.793.631-5.313,3.1-5.332,3.208a.544.544,0,0,1-.153.294,14.439,14.439,0,0,0,4,3.8l3.27-3.7a4.856,4.856,0,0,1,4.533-1.51l.485.092a2.477,2.477,0,0,1,1.117.5,2.149,2.149,0,0,1,.7,2.385,1.034,1.034,0,0,0,.261,1.107l2.946,2.781a14.819,14.819,0,0,0,6.048-3.761l-1.736-3.277a.962.962,0,0,0-.377-.384l-2.4-1.357a2.144,2.144,0,0,1-1.055-1.339,2.008,2.008,0,0,1,.823-2.115l.8-.565a.909.909,0,0,0,.223-1.279,1.959,1.959,0,0,1-.233-1.834,2.205,2.205,0,0,1,1.351-1.259L37.4,8.4a14.208,14.208,0,0,0-5.316-5.939A15.257,15.257,0,0,0,28.139.7V5.342a2.618,2.618,0,0,1-1.984,2.482Z" transform="translate(-1.326 -0.099)" fill="#fff"/>
      <path id="Path_7097" data-name="Path 7097" d="M4.1,9.276a2.3,2.3,0,1,0-2.3-2.3,2.3,2.3,0,0,0,2.3,2.3" transform="translate(-0.255 -0.663)" fill="#fff"/>
      <path id="Path_7098" data-name="Path 7098" d="M24.568,25.727a1.08,1.08,0,0,0-.731-.524l-.493-.1a3.3,3.3,0,0,0-3.186,1.125l-2.987,3.586a13.952,13.952,0,0,0,9.7,1.564q.335-.067.663-.149L25.2,28.9a2.213,2.213,0,0,1-.538-2.279,1.083,1.083,0,0,0-.092-.894" transform="translate(-1.719 -2.622)" fill="#fff"/>
      <path id="Path_7099" data-name="Path 7099" d="M36.624,14.532a.566.566,0,1,1,1.053.415,2.919,2.919,0,0,0-.058,2.231.566.566,0,0,1-.936.638c-.834-1.223-.141-3.077-.058-3.283m-2.66-1.176a.928.928,0,0,0,.112.806,2.07,2.07,0,0,1-.48,2.8l-.753.565a.935.935,0,0,0,.08,1.551l2.305,1.383a2.071,2.071,0,0,1,.786.849l1.418,2.837q.281-.368.542-.756a14.038,14.038,0,0,0,1.548-12.5l-5,1.873a.927.927,0,0,0-.563.589" transform="translate(-3.347 -1.055)" fill="#fff"/>
      <path id="Path_7100" data-name="Path 7100" d="M12.6,8.037c.032,0,3.292-.451,3.178-2.157a2.139,2.139,0,0,1,.647-1.811,3.657,3.657,0,0,1,2.763-.624.566.566,0,0,1-.175,1.118,2.575,2.575,0,0,0-1.825.343,1.048,1.048,0,0,0-.28.9c.187,2.8-3.995,3.336-4.173,3.357l-.069,0A.566.566,0,0,1,12.6,8.038Zm-2.02,5.431a3.323,3.323,0,0,1,4.759-.815l.609.457a2.19,2.19,0,0,0,3.5-1.752V10.119a2.591,2.591,0,0,1,1.873-2.481l3.51-1a1.454,1.454,0,0,0,1.05-1.393V.329l0-.019A14.051,14.051,0,0,0,9,15.836Z" transform="translate(-0.794)" fill="#fff"/>
      <path id="Path_7101" data-name="Path 7101" d="M44.362.87a2.891,2.891,0,1,0,2.891,2.891A2.894,2.894,0,0,0,44.362.87" transform="translate(-4.307 -0.123)" fill="#fff"/>
      <path id="Path_7102" data-name="Path 7102" d="M42.46,15.589a1.871,1.871,0,0,0-1.854,1.883v10.7a2.734,2.734,0,0,1-.679,2.979l-6.2,5.771a.493.493,0,0,1-.7-.031.512.512,0,0,1,.031-.715l6.2-5.771c1.554-1.446-.62-3.892-2.2-2.542l-11.233,9.6v8.956H19.987V37.468l-11.233-9.6a1.65,1.65,0,0,0-2.114-.027,1.749,1.749,0,0,0-.085,2.568l6.2,5.771a.512.512,0,0,1,.031.715.493.493,0,0,1-.7.031l-6.2-5.771a2.733,2.733,0,0,1-.68-2.979v-10.7a1.855,1.855,0,1,0-3.709,0V32.909l10.582,9.4a.51.51,0,0,1,.17.38v3.733H1a1.011,1.011,0,0,0,0,2.022H42.819a1.011,1.011,0,0,0,0-2.022H33.56V42.691a.513.513,0,0,1,.17-.381l10.582-9.4V17.472a1.871,1.871,0,0,0-1.854-1.883Z" transform="translate(0 -2.21)" fill="#fff"/>
    </g>
    <g id="Group_17789" data-name="Group 17789" transform="translate(-4289.12 865.147)">
      <path id="Path_7069" data-name="Path 7069" d="M44.187,23.987a2.986,2.986,0,0,0,1.481.41,3.714,3.714,0,0,0,3.4-3.969,3.717,3.717,0,0,0-3.4-3.979,3.6,3.6,0,0,0-3.338,3.311,6.089,6.089,0,0,1,1.857,4.227M8.061,24.4a2.973,2.973,0,0,0,1.4-.359L10.5,19.726a5.83,5.83,0,0,1,.477-1.3A3.344,3.344,0,0,0,8.061,16.45a3.721,3.721,0,0,0-3.4,3.979,3.717,3.717,0,0,0,3.4,3.969M53.621,34.943l-.066-.565-1.647-6.859a2.042,2.042,0,0,0-1.507-1.6l-2.358-.492-3.94,0a5.342,5.342,0,0,1-4.073,4.484V43.489a2.2,2.2,0,0,0,1.415-2.11l.083-6.068.548-2.277a3.816,3.816,0,0,1,.528,2.015L42.5,41.4A3.553,3.553,0,0,1,40.8,44.48V58.792a1.936,1.936,0,1,0,3.823,0l-.006-13.453a1.063,1.063,0,1,1,2.106-.013l-.007,13.466a1.937,1.937,0,1,0,3.827,0l.006-14.312A3.528,3.528,0,0,1,48.84,41.4l-.1-6.355a3.852,3.852,0,0,1,.521-2.015L49.8,35.31l.107,6.068a2.051,2.051,0,0,0,1.938,2.2A2.108,2.108,0,0,0,53.72,41.3ZM9.429,42.4A6.335,6.335,0,0,1,8.061,38.3l.125-8.247a7.536,7.536,0,0,1,.177-1.437l.774-3.192H5.687l-2.373.492a2.072,2.072,0,0,0-1.5,1.6L.173,34.378l-.066.565L0,41.3A2.117,2.117,0,0,0,1.874,43.58a2.045,2.045,0,0,0,1.945-2.2l.1-6.068.545-2.277a3.812,3.812,0,0,1,.519,2.015l-.1,6.355A3.541,3.541,0,0,1,3.182,44.48V58.792A2.094,2.094,0,0,0,5.1,61.03a2.1,2.1,0,0,0,1.915-2.239L7,45.326a1.157,1.157,0,0,1,1.059-1.2,1.158,1.158,0,0,1,1.051,1.216l0,13.453a2.093,2.093,0,0,0,1.907,2.239,1.713,1.713,0,0,0,1.168-.474l-.005-16.474A4.679,4.679,0,0,1,9.429,42.4" transform="translate(0 -3.948)" fill="#fff"/>
      <path id="Path_7070" data-name="Path 7070" d="M21.518,25.808,22.8,24l-.625-4.8.479-1.017-.378-.331-.781.067-.765-.067-.392.331.486,1.017L20.2,24Zm-.02-8.946a4.746,4.746,0,0,0,4.936-4.521A4.746,4.746,0,0,0,21.5,7.823a4.741,4.741,0,0,0-4.928,4.518A4.74,4.74,0,0,0,21.5,16.862m21.393,4.407v4.845a2.613,2.613,0,0,0,1.972-2.373,2.576,2.576,0,0,0-1.972-2.472M28.38,18.581l-3.424-.562L23.9,23.891l-2.4,3.137-2.4-3.137-1.043-5.87-3.43.561A2.69,2.69,0,0,0,12.441,20.4l-2.382,7.787-.109.639-.145,7.22a2.656,2.656,0,0,0,2.722,2.591h.053a2.685,2.685,0,0,0,2.786-2.495l.133-6.89.792-2.591a3.722,3.722,0,0,1,.754,2.29L16.9,36.169A3.923,3.923,0,0,1,14.42,39.66V55.917A2.671,2.671,0,0,0,17.2,58.463a2.67,2.67,0,0,0,2.778-2.546v-15.3A1.469,1.469,0,0,1,21.5,39.261a1.489,1.489,0,0,1,1.541,1.374l-.022,15.282a2.788,2.788,0,0,0,5.555,0v-23L29.3,24.4l3.829,1.5.512.146V20.567l-4.66-1.819Z" transform="translate(-1.08 1.537)" fill="#fff"/>
      <path id="Path_7071" data-name="Path 7071" d="M51.822,4.841,42.165.489a2.468,2.468,0,0,0-3.544,2.075v8.71a2.462,2.462,0,0,0,3.544,2.075L51.822,9a2.243,2.243,0,0,0,0-4.157M33.912,0a1.861,1.861,0,0,0-1.924,1.793V58.207a1.926,1.926,0,0,0,3.843,0V1.793A1.86,1.86,0,0,0,33.912,0" transform="translate(-0.145 0)" fill="#fff"/>
    </g>
    <path id="Path_62238" data-name="Path 62238" d="M.88,15h2.4V10.856H6.1A3.47,3.47,0,0,0,9.92,7.24,3.662,3.662,0,0,0,8.9,4.632,4.008,4.008,0,0,0,5.9,3.56H.88Zm2.4-9.424H5.712a1.6,1.6,0,0,1,1.824,1.68A1.633,1.633,0,0,1,5.68,8.968H3.28Zm9.712,1.216H10.9V15h2.176V11A2.068,2.068,0,0,1,15.52,8.664h.048V6.76a1.421,1.421,0,0,0-.512-.064A2.153,2.153,0,0,0,13.04,8.1h-.048ZM20.16,15.24A4.173,4.173,0,0,0,24.448,10.9,4.173,4.173,0,0,0,20.16,6.568,4.173,4.173,0,0,0,15.872,10.9,4.173,4.173,0,0,0,20.16,15.24Zm0-1.664c-1.344,0-2.08-1.072-2.08-2.672s.736-2.688,2.08-2.688c1.328,0,2.08,1.088,2.08,2.688S21.488,13.576,20.16,13.576ZM24.816,8.3h1.12V15h2.176V8.3h1.472v-1.5H28.112V6.184c0-.848.448-.976,1.472-.928V3.576c-2.1-.224-3.648.48-3.648,2.48v.736h-1.12Zm9.376,6.944A3.522,3.522,0,0,0,37.9,12.552H35.76a1.532,1.532,0,0,1-1.584,1.008,2.04,2.04,0,0,1-2.1-2.048h5.952c0-2.928-1.408-4.944-4.048-4.944a4.061,4.061,0,0,0-4.048,4.32A4.063,4.063,0,0,0,34.192,15.24Zm-.176-6.992a1.731,1.731,0,0,1,1.744,1.76H32.112A1.827,1.827,0,0,1,34.016,8.248Zm8.352,6.992c2.048,0,3.456-.992,3.456-2.64,0-1.92-1.52-2.3-2.9-2.592C41.76,9.768,40.672,9.7,40.672,9c0-.592.56-.912,1.408-.912.928,0,1.488.32,1.584,1.2h1.968c-.16-1.648-1.36-2.72-3.52-2.72-1.872,0-3.344.848-3.344,2.624,0,1.792,1.44,2.192,2.912,2.48,1.12.224,2.16.3,2.16,1.088,0,.576-.544.944-1.5.944a1.579,1.579,0,0,1-1.792-1.36H38.528C38.656,14.088,39.984,15.24,42.368,15.24Zm7.76,0c2.048,0,3.456-.992,3.456-2.64,0-1.92-1.52-2.3-2.9-2.592C49.52,9.768,48.432,9.7,48.432,9c0-.592.56-.912,1.408-.912.928,0,1.488.32,1.584,1.2h1.968c-.16-1.648-1.36-2.72-3.52-2.72-1.872,0-3.344.848-3.344,2.624,0,1.792,1.44,2.192,2.912,2.48,1.12.224,2.16.3,2.16,1.088,0,.576-.544.944-1.5.944a1.579,1.579,0,0,1-1.792-1.36H46.288C46.416,14.088,47.744,15.24,50.128,15.24ZM54.56,15h2.176V6.792H54.56Zm0-9.488h2.176V3.56H54.56Zm7.472,9.728A4.173,4.173,0,0,0,66.32,10.9a4.288,4.288,0,1,0-8.576,0A4.173,4.173,0,0,0,62.032,15.24Zm0-1.664c-1.344,0-2.08-1.072-2.08-2.672s.736-2.688,2.08-2.688c1.328,0,2.08,1.088,2.08,2.688S63.36,13.576,62.032,13.576Zm7.424-6.784H67.328V15H69.5V10.344a1.715,1.715,0,0,1,1.664-1.888,1.366,1.366,0,0,1,1.424,1.5V15h2.176V9.64a2.824,2.824,0,0,0-2.832-3.072A2.667,2.667,0,0,0,69.5,7.912h-.048ZM81.28,15h2.1v-.08c-.192-.144-.288-.512-.288-1.136V9.608c0-1.92-.992-3.024-3.456-3.024-2.4,0-3.472,1.264-3.536,2.7h1.936c.064-.784.56-1.152,1.584-1.152.912,0,1.376.384,1.376.976,0,.624-.624.736-1.984.928-1.824.256-3.3.832-3.3,2.64,0,1.632,1.184,2.512,2.864,2.512a2.517,2.517,0,0,0,2.416-1.1h.032A2.226,2.226,0,0,0,81.28,15ZM79.1,13.672c-.768,0-1.28-.272-1.28-1.04s.56-1.024,1.7-1.28a6.067,6.067,0,0,0,1.52-.48V12.1C81.04,12.9,80.352,13.672,79.1,13.672ZM84.5,15h2.176V3.56H84.5ZM.88,31H3.2V26.408H5.072a1.953,1.953,0,0,1,2.24,1.952c.1,1.232.128,2.512.416,2.64H9.952v-.112c-.4-.176-.336-1.408-.5-3.024a2.26,2.26,0,0,0-1.744-2.3v-.048a2.63,2.63,0,0,0,2.1-2.768c0-1.9-1.472-3.184-3.68-3.184H.88ZM3.2,21.432H5.728c1.232,0,1.824.688,1.824,1.616,0,.912-.624,1.568-1.888,1.568H3.2ZM14.9,31.24a3.522,3.522,0,0,0,3.712-2.688H16.464A1.532,1.532,0,0,1,14.88,29.56a2.04,2.04,0,0,1-2.1-2.048h5.952c0-2.928-1.408-4.944-4.048-4.944a4.061,4.061,0,0,0-4.048,4.32A4.063,4.063,0,0,0,14.9,31.24Zm-.176-6.992a1.731,1.731,0,0,1,1.744,1.76H12.816A1.827,1.827,0,0,1,14.72,24.248Zm5.024,9.44H21.92V30.072h.032A2.643,2.643,0,0,0,24.32,31.24c2.112,0,3.552-1.68,3.552-4.336,0-2.56-1.392-4.336-3.568-4.336a2.868,2.868,0,0,0-2.416,1.248H21.84V22.792h-2.1Zm4.112-4.256c-1.3,0-1.984-.976-1.984-2.464,0-1.472.544-2.64,1.9-2.64,1.344,0,1.888,1.088,1.888,2.64S24.96,29.432,23.856,29.432ZM36.16,31V22.792H33.984v4.736a1.658,1.658,0,0,1-1.648,1.856c-.928,0-1.36-.528-1.36-1.488v-5.1h-2.16v5.472a2.679,2.679,0,0,0,2.848,2.96,2.634,2.634,0,0,0,2.352-1.184h.048V31Zm.928-6.768h1.136v4.816c0,1.552,1.168,1.968,2.224,1.968.864,0,1.36-.032,1.36-.032v-1.6s-.368.016-.64.016a.72.72,0,0,1-.816-.816V24.232H41.76v-1.44H40.352v-2.56H38.224v2.56H37.088ZM48.128,31h2.1v-.08c-.192-.144-.288-.512-.288-1.136V25.608c0-1.92-.992-3.024-3.456-3.024-2.4,0-3.472,1.264-3.536,2.7H44.88c.064-.784.56-1.152,1.584-1.152.912,0,1.376.384,1.376.976,0,.624-.624.736-1.984.928-1.824.256-3.3.832-3.3,2.64,0,1.632,1.184,2.512,2.864,2.512a2.517,2.517,0,0,0,2.416-1.1h.032A2.226,2.226,0,0,0,48.128,31Zm-2.176-1.328c-.768,0-1.28-.272-1.28-1.04s.56-1.024,1.7-1.28a6.067,6.067,0,0,0,1.52-.48V28.1C47.888,28.9,47.2,29.672,45.952,29.672Zm4.72-5.44h1.136v4.816c0,1.552,1.168,1.968,2.224,1.968.864,0,1.36-.032,1.36-.032v-1.6s-.368.016-.64.016a.72.72,0,0,1-.816-.816V24.232h1.408v-1.44H53.936v-2.56H51.808v2.56H50.672ZM56.464,31H58.64V22.792H56.464Zm0-9.488H58.64V19.56H56.464Zm7.472,9.728A4.173,4.173,0,0,0,68.224,26.9a4.288,4.288,0,1,0-8.576,0A4.173,4.173,0,0,0,63.936,31.24Zm0-1.664c-1.344,0-2.08-1.072-2.08-2.672s.736-2.688,2.08-2.688c1.328,0,2.08,1.088,2.08,2.688S65.264,29.576,63.936,29.576Zm7.424-6.784H69.232V31h2.176V26.344a1.715,1.715,0,0,1,1.664-1.888,1.366,1.366,0,0,1,1.424,1.5V31h2.176V25.64a2.824,2.824,0,0,0-2.832-3.072,2.667,2.667,0,0,0-2.432,1.344H71.36ZM84.112,31.24a5.084,5.084,0,0,0,3.04-.992l.592.752H90.4l-1.808-2.336a7.973,7.973,0,0,0,1.088-3.536H87.744a7.316,7.316,0,0,1-.448,1.856l-1.52-1.968c1.232-.64,2.048-1.344,2.048-2.752a3,3,0,0,0-5.952.016,3.436,3.436,0,0,0,.96,2.368c-1.488.752-2.528,1.776-2.528,3.408C80.3,29.848,81.6,31.24,84.112,31.24Zm.08-1.792a1.474,1.474,0,0,1-1.584-1.456A2.222,2.222,0,0,1,83.92,26.04l2.1,2.736A2.789,2.789,0,0,1,84.192,29.448Zm-.224-7.136A.9.9,0,1,1,85.76,22.3a1.632,1.632,0,0,1-.96,1.488A2.227,2.227,0,0,1,83.968,22.312ZM97.072,31h2.112l3.856-11.44h-2.352l-2,6.624c-.224.736-.5,1.824-.5,1.824H98.16s-.272-1.072-.5-1.824L95.648,19.56H93.216Zm10.912,0h2.1v-.08c-.192-.144-.288-.512-.288-1.136V25.608c0-1.92-.992-3.024-3.456-3.024-2.4,0-3.472,1.264-3.536,2.7h1.936c.064-.784.56-1.152,1.584-1.152.912,0,1.376.384,1.376.976,0,.624-.624.736-1.984.928-1.824.256-3.3.832-3.3,2.64,0,1.632,1.184,2.512,2.864,2.512a2.517,2.517,0,0,0,2.416-1.1h.032A2.226,2.226,0,0,0,107.984,31Zm-2.176-1.328c-.768,0-1.28-.272-1.28-1.04s.56-1.024,1.7-1.28a6.067,6.067,0,0,0,1.52-.48V28.1C107.744,28.9,107.056,29.672,105.808,29.672ZM111.2,31h2.176V19.56H111.2Zm10.9,0V22.792H119.92v4.736a1.658,1.658,0,0,1-1.648,1.856c-.928,0-1.36-.528-1.36-1.488v-5.1h-2.16v5.472a2.679,2.679,0,0,0,2.848,2.96,2.634,2.634,0,0,0,2.352-1.184H120V31Zm5.264.24a3.522,3.522,0,0,0,3.712-2.688h-2.144a1.532,1.532,0,0,1-1.584,1.008,2.04,2.04,0,0,1-2.1-2.048H131.2c0-2.928-1.408-4.944-4.048-4.944a4.061,4.061,0,0,0-4.048,4.32A4.063,4.063,0,0,0,127.36,31.24Zm-.176-6.992a1.731,1.731,0,0,1,1.744,1.76H125.28A1.827,1.827,0,0,1,127.184,24.248ZM5.312,47.256c2.576,0,4.448-1.3,4.448-3.616,0-2.464-1.92-3.024-4.272-3.536-1.7-.368-2.5-.64-2.5-1.568,0-.816.816-1.344,2.064-1.344A1.973,1.973,0,0,1,7.264,38.92H9.488c-.176-2.3-1.84-3.568-4.416-3.568-2.544,0-4.384,1.168-4.384,3.424,0,2.384,1.872,2.928,3.92,3.392,1.744.4,2.832.624,2.832,1.744,0,1.056-1.04,1.472-2.224,1.472-1.632,0-2.416-.544-2.576-1.92H.368C.448,45.88,2.208,47.256,5.312,47.256Zm5.68,2.432h1.28c1.664,0,2.272-.656,2.9-2.48l2.864-8.416H15.84l-1.152,3.7c-.256.752-.48,1.792-.48,1.792h-.032s-.272-1.04-.528-1.792l-1.216-3.7H10.144l2.208,5.84a7.111,7.111,0,0,1,.624,2.224c0,.672-.352,1.12-1.216,1.12h-.768ZM22.016,47.24c2.048,0,3.456-.992,3.456-2.64,0-1.92-1.52-2.3-2.9-2.592-1.168-.24-2.256-.3-2.256-1.008,0-.592.56-.912,1.408-.912.928,0,1.488.32,1.584,1.2H25.28c-.16-1.648-1.36-2.72-3.52-2.72-1.872,0-3.344.848-3.344,2.624,0,1.792,1.44,2.192,2.912,2.48,1.12.224,2.16.3,2.16,1.088,0,.576-.544.944-1.5.944a1.579,1.579,0,0,1-1.792-1.36H18.176C18.3,46.088,19.632,47.24,22.016,47.24Zm3.792-7.008h1.136v4.816c0,1.552,1.168,1.968,2.224,1.968.864,0,1.36-.032,1.36-.032v-1.6s-.368.016-.64.016a.72.72,0,0,1-.816-.816V40.232H30.48v-1.44H29.072v-2.56H26.944v2.56H25.808Zm9.568,7.008a3.522,3.522,0,0,0,3.712-2.688H36.944A1.532,1.532,0,0,1,35.36,45.56a2.04,2.04,0,0,1-2.1-2.048h5.952c0-2.928-1.408-4.944-4.048-4.944a4.061,4.061,0,0,0-4.048,4.32A4.063,4.063,0,0,0,35.376,47.24ZM35.2,40.248a1.731,1.731,0,0,1,1.744,1.76H33.3A1.827,1.827,0,0,1,35.2,40.248ZM40.224,47H42.4V42.232c0-1.088.592-1.792,1.472-1.792.8,0,1.264.48,1.264,1.408V47h2.176V42.232c0-1.088.56-1.792,1.472-1.792.8,0,1.264.48,1.264,1.408V47h2.176V41.48a2.583,2.583,0,0,0-2.7-2.912,2.863,2.863,0,0,0-2.464,1.44h-.032a2.449,2.449,0,0,0-2.272-1.44A2.68,2.68,0,0,0,42.368,39.9H42.32v-1.1h-2.1Z" transform="translate(-4289.119 933.147)" fill="#fff"/>
    <path id="Path_62239" data-name="Path 62239" d="M5.9,15.256c3.376,0,5.5-2.528,5.5-5.952S9.28,3.336,5.9,3.336.384,5.88.384,9.3,2.528,15.256,5.9,15.256Zm.016-1.9c-2.1,0-3.168-1.776-3.168-4.048,0-2.288,1.072-4.064,3.168-4.064S9.04,7.016,9.04,9.3C9.04,11.576,8.016,13.352,5.92,13.352ZM12.5,17.688h2.176V14.072H14.7a2.643,2.643,0,0,0,2.368,1.168c2.112,0,3.552-1.68,3.552-4.336,0-2.56-1.392-4.336-3.568-4.336A2.868,2.868,0,0,0,14.64,7.816h-.048V6.792H12.5Zm4.112-4.256c-1.3,0-1.984-.976-1.984-2.464,0-1.472.544-2.64,1.9-2.64,1.344,0,1.888,1.088,1.888,2.64S17.712,13.432,16.608,13.432Zm8.88,1.808A3.522,3.522,0,0,0,29.2,12.552H27.056a1.532,1.532,0,0,1-1.584,1.008,2.04,2.04,0,0,1-2.1-2.048h5.952c0-2.928-1.408-4.944-4.048-4.944a4.061,4.061,0,0,0-4.048,4.32A4.063,4.063,0,0,0,25.488,15.24Zm-.176-6.992a1.731,1.731,0,0,1,1.744,1.76H23.408A1.827,1.827,0,0,1,25.312,8.248Zm7.12-1.456h-2.1V15h2.176V11A2.068,2.068,0,0,1,34.96,8.664h.048V6.76A1.421,1.421,0,0,0,34.5,6.7,2.153,2.153,0,0,0,32.48,8.1h-.048ZM40.88,15h2.1v-.08c-.192-.144-.288-.512-.288-1.136V9.608c0-1.92-.992-3.024-3.456-3.024-2.4,0-3.472,1.264-3.536,2.7h1.936c.064-.784.56-1.152,1.584-1.152.912,0,1.376.384,1.376.976,0,.624-.624.736-1.984.928-1.824.256-3.3.832-3.3,2.64,0,1.632,1.184,2.512,2.864,2.512a2.517,2.517,0,0,0,2.416-1.1h.032A2.226,2.226,0,0,0,40.88,15ZM38.7,13.672c-.768,0-1.28-.272-1.28-1.04s.56-1.024,1.7-1.28a6.067,6.067,0,0,0,1.52-.48V12.1C40.64,12.9,39.952,13.672,38.7,13.672Zm4.72-5.44H44.56v4.816c0,1.552,1.168,1.968,2.224,1.968.864,0,1.36-.032,1.36-.032v-1.6s-.368.016-.64.016a.72.72,0,0,1-.816-.816V8.232H48.1V6.792H46.688V4.232H44.56v2.56H43.424ZM49.216,15h2.176V6.792H49.216Zm0-9.488h2.176V3.56H49.216Zm7.472,9.728A4.173,4.173,0,0,0,60.976,10.9a4.288,4.288,0,1,0-8.576,0A4.173,4.173,0,0,0,56.688,15.24Zm0-1.664c-1.344,0-2.08-1.072-2.08-2.672s.736-2.688,2.08-2.688c1.328,0,2.08,1.088,2.08,2.688S58.016,13.576,56.688,13.576Zm7.424-6.784H61.984V15H64.16V10.344a1.715,1.715,0,0,1,1.664-1.888,1.366,1.366,0,0,1,1.424,1.5V15h2.176V9.64a2.824,2.824,0,0,0-2.832-3.072A2.667,2.667,0,0,0,64.16,7.912h-.048ZM75.936,15h2.1v-.08c-.192-.144-.288-.512-.288-1.136V9.608c0-1.92-.992-3.024-3.456-3.024-2.4,0-3.472,1.264-3.536,2.7h1.936c.064-.784.56-1.152,1.584-1.152.912,0,1.376.384,1.376.976,0,.624-.624.736-1.984.928-1.824.256-3.3.832-3.3,2.64,0,1.632,1.184,2.512,2.864,2.512a2.517,2.517,0,0,0,2.416-1.1h.032A2.226,2.226,0,0,0,75.936,15ZM73.76,13.672c-.768,0-1.28-.272-1.28-1.04s.56-1.024,1.7-1.28a6.067,6.067,0,0,0,1.52-.48V12.1C75.7,12.9,75.008,13.672,73.76,13.672ZM79.152,15h2.176V3.56H79.152ZM.88,31H9.344V29.064H3.2V25.976H8.544v-1.9H3.2v-2.56H9.3V19.56H.88Zm9.152,0h2.384l1.776-2.72h.032L15.744,31h2.592l-2.928-4.368,2.544-3.84H15.7L14.32,25.144h-.032l-1.456-2.352h-2.48l2.672,3.856Zm12.384.24a3.438,3.438,0,0,0,3.7-3.136h-2.1A1.532,1.532,0,0,1,22.368,29.5c-1.328,0-1.952-1.04-1.952-2.592,0-1.584.672-2.592,1.984-2.592a1.5,1.5,0,0,1,1.5,1.264h2.128A3.485,3.485,0,0,0,22.3,22.568a4.048,4.048,0,0,0-4.1,4.336A4.082,4.082,0,0,0,22.416,31.24Zm8.5,0a3.522,3.522,0,0,0,3.712-2.688H32.48A1.532,1.532,0,0,1,30.9,29.56a2.04,2.04,0,0,1-2.1-2.048h5.952c0-2.928-1.408-4.944-4.048-4.944a4.061,4.061,0,0,0-4.048,4.32A4.063,4.063,0,0,0,30.912,31.24Zm-.176-6.992a1.731,1.731,0,0,1,1.744,1.76H28.832A1.827,1.827,0,0,1,30.736,24.248ZM35.792,31h2.176V19.56H35.792Zm3.648,0h2.176V19.56H39.44Zm7.472.24a3.522,3.522,0,0,0,3.712-2.688H48.48A1.532,1.532,0,0,1,46.9,29.56a2.04,2.04,0,0,1-2.1-2.048h5.952c0-2.928-1.408-4.944-4.048-4.944a4.061,4.061,0,0,0-4.048,4.32A4.063,4.063,0,0,0,46.912,31.24Zm-.176-6.992a1.731,1.731,0,0,1,1.744,1.76H44.832A1.827,1.827,0,0,1,46.736,24.248Zm7.152-1.456H51.76V31h2.176V26.344A1.715,1.715,0,0,1,55.6,24.456a1.366,1.366,0,0,1,1.424,1.5V31H59.2V25.64a2.824,2.824,0,0,0-2.832-3.072,2.667,2.667,0,0,0-2.432,1.344h-.048ZM64.352,31.24a3.438,3.438,0,0,0,3.7-3.136h-2.1A1.532,1.532,0,0,1,64.3,29.5c-1.328,0-1.952-1.04-1.952-2.592,0-1.584.672-2.592,1.984-2.592a1.5,1.5,0,0,1,1.5,1.264h2.128a3.485,3.485,0,0,0-3.728-3.008,4.048,4.048,0,0,0-4.1,4.336A4.082,4.082,0,0,0,64.352,31.24Zm8.5,0a3.522,3.522,0,0,0,3.712-2.688H74.416a1.532,1.532,0,0,1-1.584,1.008,2.04,2.04,0,0,1-2.1-2.048h5.952c0-2.928-1.408-4.944-4.048-4.944a4.061,4.061,0,0,0-4.048,4.32A4.063,4.063,0,0,0,72.848,31.24Zm-.176-6.992a1.731,1.731,0,0,1,1.744,1.76H70.768A1.827,1.827,0,0,1,72.672,24.248Z" transform="translate(-4602.643 1161.545)" fill="#fff"/>
    <g id="Group_17792" data-name="Group 17792" transform="translate(-4602.643 1111.772)" clip-path="url(#clip-path-3)">
      <path id="Path_13033" data-name="Path 13033" d="M51.382,6.414l-.881.311A4.825,4.825,0,0,0,49.116,5.2c.238-.5.387-.8.393-.821l-.183-.264c-.022-.008-.222-.107-.553-.269s-.533-.27-.552-.276l-.314.012c-.012.018-.174.343-.428.871a4.726,4.726,0,0,0-1.816-.081c-.2-.562-.322-.911-.329-.928l-.316-.053c-.018.009-.231.084-.576.21s-.56.2-.581.205l-.212.236c.006.021.124.37.317.933a4.81,4.81,0,0,0-1.432,1.311c-.532-.252-.865-.408-.885-.415l-.253.192c-.008.02-.1.227-.26.565s-.25.543-.262.562l.016.318c.019.013.344.169.868.415A4.945,4.945,0,0,0,41.65,9.86c-.556.2-.9.324-.921.335l-.052.314c.009.018.084.235.207.586s.2.563.2.589l.234.211c.02,0,.368-.122.929-.32a4.687,4.687,0,0,0,1.133,1.333c-.2.418-.355.741-.447.924l.157.3.062.032c.43.212.769.384,1,.5l.062.028.326-.057c.087-.176.234-.479.424-.87a4.694,4.694,0,0,0,2.125.161c.136.4.245.709.308.89l.319.095.063-.021c.24-.084.6-.212,1.051-.375l.065-.023.185-.276c-.061-.18-.172-.489-.306-.894a4.707,4.707,0,0,0,1.486-1.376c.383.183.68.323.855.405l.29-.163.031-.061c.105-.23.268-.58.468-1.019l.032-.065-.065-.327L51,10.3a4.894,4.894,0,0,0,.09-1.866c.394-.143.7-.25.879-.314l.1-.321-.025-.065c-.081-.241-.209-.605-.367-1.062l-.025-.064ZM49.714,8.92v.015a3.4,3.4,0,0,1-1.244,2.851l-.007.005-.176.135a3.283,3.283,0,0,1-1.691.6l-.244.007h-.012a3.339,3.339,0,0,1-2.311-.967l-.011-.012-.194-.205-.028-.039-.164-.209-.009-.017h0a3.5,3.5,0,0,1-.418-.816,3.591,3.591,0,0,1-.18-.9V9.357A3.411,3.411,0,0,1,44.45,6.369v0a3.243,3.243,0,0,1,.807-.42,3.316,3.316,0,0,1,3.692,1.036L49,7.041l.111.145.018.024h0a3.488,3.488,0,0,1,.412.807,3.569,3.569,0,0,1,.18.9" transform="translate(-11.088 -0.923)" fill="#fff"/>
      <path id="Path_13034" data-name="Path 13034" d="M55.382,33.636c-.142.052-.375.138-.684.244a3.726,3.726,0,0,0-1.078-1.191c.185-.386.3-.625.306-.637l-.144-.2c-.015-.005-.173-.084-.428-.212s-.416-.2-.429-.212l-.247.009c-.008.015-.134.266-.332.679a3.641,3.641,0,0,0-1.413-.065c-.153-.439-.249-.709-.257-.725l-.241-.038c-.017.007-.18.068-.45.164s-.436.153-.452.157l-.164.185c0,.014.1.29.247.728A3.781,3.781,0,0,0,48.5,33.534c-.414-.2-.67-.316-.688-.321l-.195.147c-.008.017-.081.177-.2.44s-.195.425-.2.439l.013.244c.015.012.264.132.674.325a3.716,3.716,0,0,0-.083,1.506c-.435.157-.7.251-.716.259l-.039.245c.005.013.067.181.159.459s.152.436.159.456l.181.164c.015,0,.284-.093.719-.25a3.671,3.671,0,0,0,.882,1.038c-.156.324-.279.578-.347.719l.122.231.048.025c.334.166.6.3.776.386l.045.023.256-.049c.067-.132.182-.372.328-.675a3.622,3.622,0,0,0,1.653.127c.108.311.192.551.239.693l.25.075.049-.021c.186-.061.464-.163.817-.285l.049-.02.148-.214c-.052-.141-.133-.38-.239-.695a3.774,3.774,0,0,0,1.155-1.069c.3.14.529.248.667.312l.225-.129.023-.047c.08-.178.207-.45.367-.793l.022-.051-.049-.251c-.137-.066-.373-.176-.675-.322a3.746,3.746,0,0,0,.068-1.45c.307-.113.547-.2.684-.245l.075-.25-.017-.047c-.065-.193-.164-.472-.288-.829l-.015-.051Zm-1.3,1.95V35.6a2.648,2.648,0,0,1-.967,2.215l0,.005-.139.1a2.819,2.819,0,0,1-.623.327,2.668,2.668,0,0,1-.69.141l-.192.006h-.013a2.589,2.589,0,0,1-1.795-.754l-.007-.006-.151-.164-.023-.027-.126-.158-.007-.019h0a2.563,2.563,0,0,1-.324-.634,2.7,2.7,0,0,1-.141-.7v-.008a2.655,2.655,0,0,1,1.1-2.326,2.706,2.706,0,0,1,.629-.327,2.59,2.59,0,0,1,2.873.8l.036.047.084.114.013.016a2.71,2.71,0,0,1,.32.631,2.655,2.655,0,0,1,.14.7" transform="translate(-12.829 -8.528)" fill="#fff"/>
      <path id="Path_13035" data-name="Path 13035" d="M54.1,36.847a1.547,1.547,0,1,0-1.546,1.567A1.556,1.556,0,0,0,54.1,36.847" transform="translate(-13.906 -9.618)" fill="#fff"/>
      <path id="Path_13036" data-name="Path 13036" d="M54.085,36.859a1.515,1.515,0,1,0-1.514,1.534,1.524,1.524,0,0,0,1.514-1.534" transform="translate(-13.917 -9.63)" fill="#fff"/>
      <path id="Path_13037" data-name="Path 13037" d="M11.594,5c-.167.06-.445.154-.811.287A4.367,4.367,0,0,0,9.511,3.878c.22-.457.354-.739.36-.755L9.7,2.883c-.019-.006-.207-.1-.506-.249s-.492-.246-.511-.25L8.4,2.392c-.01.018-.159.318-.393.8a4.274,4.274,0,0,0-1.67-.073c-.18-.52-.3-.84-.3-.859l-.285-.045c-.02.007-.215.076-.532.193s-.516.18-.535.185l-.193.22c0,.019.113.34.291.859a4.365,4.365,0,0,0-1.317,1.2c-.49-.232-.8-.378-.811-.383l-.237.177c-.007.02-.094.208-.237.519s-.228.5-.241.519L1.953,6c.017.01.314.156.8.383a4.5,4.5,0,0,0-.1,1.78c-.511.187-.827.3-.846.309l-.044.289c.007.015.075.214.19.538s.175.522.181.54l.216.2c.02,0,.338-.116.851-.295a4.375,4.375,0,0,0,1.045,1.226c-.187.383-.332.679-.414.851l.143.27.06.029.917.458L5,12.6l.3-.055.388-.8a4.305,4.305,0,0,0,1.954.149c.127.367.226.652.284.815l.292.087.058-.019c.219-.079.551-.193.964-.342l.06-.023.174-.253c-.055-.166-.158-.45-.283-.817a4.415,4.415,0,0,0,1.365-1.269l.786.371.266-.145.027-.062c.1-.209.249-.532.434-.933l.028-.062-.06-.3-.8-.381a4.478,4.478,0,0,0,.081-1.714l.812-.287.087-.295-.02-.06c-.079-.221-.193-.556-.342-.977l-.018-.06Zm-1.53,2.3v.016A3.136,3.136,0,0,1,8.918,9.936l0,0-.162.124a3.045,3.045,0,0,1-1.555.554l-.229.007H6.959a3.071,3.071,0,0,1-2.124-.889h0l-.008-.011-.18-.191L4.623,9.5l-.149-.191-.01-.014a3.232,3.232,0,0,1-.383-.749,3.36,3.36,0,0,1-.166-.83V7.7A3.141,3.141,0,0,1,5.223,4.954a3.052,3.052,0,0,1,4.135.567l.044.053.1.135.016.021h0a3.1,3.1,0,0,1,.378.743,3.169,3.169,0,0,1,.164.829Z" transform="translate(-0.48 -0.604)" fill="#fff"/>
      <path id="Path_13038" data-name="Path 13038" d="M18.894,41.773h0a8.887,8.887,0,0,1-7.939-5.09L1.245,11.765C-.282,7.59-1.213,3.025,3.441.749A6.756,6.756,0,0,1,6.394,0c2.628,0,4.882,1.881,6.893,5.747L26.576,29.02a9.086,9.086,0,0,1,.439,6.83,8.612,8.612,0,0,1-4.4,5.058,8.369,8.369,0,0,1-3.72.866M6.394.738a6.028,6.028,0,0,0-2.638.677C.431,3.04-.1,5.963,1.926,11.5l9.7,24.892a8.147,8.147,0,0,0,7.273,4.647,7.673,7.673,0,0,0,3.4-.792,7.881,7.881,0,0,0,4.031-4.633,8.31,8.31,0,0,0-.395-6.25L12.648,6.1C10.77,2.486,8.723.738,6.394.738" transform="translate(0 0)" fill="#fff"/>
      <path id="Path_13039" data-name="Path 13039" d="M29.365,38.359c-.241.087-.644.228-1.163.409a6.263,6.263,0,0,0-1.827-2.013c.316-.651.511-1.061.519-1.083.046-.143-.036-.253-.242-.343l-.729-.359c-.436-.215-.7-.351-.724-.364-.2-.11-.333-.106-.42.02-.012.02-.225.452-.562,1.148a6.2,6.2,0,0,0-2.394-.108c-.258-.743-.422-1.2-.434-1.226-.069-.136-.205-.155-.412-.068-.026.009-.3.111-.763.273s-.737.26-.765.271c-.217.063-.308.164-.282.314.009.025.165.489.423,1.23A6.339,6.339,0,0,0,17.7,38.186c-.7-.33-1.139-.538-1.166-.544-.14-.045-.249.041-.335.249-.01.024-.132.3-.339.745s-.334.719-.346.741c-.1.2-.1.34.024.421.023.015.452.223,1.143.548a6.4,6.4,0,0,0-.144,2.552c-.73.264-1.187.428-1.21.439-.135.07-.15.208-.065.418.009.028.108.308.268.773s.258.743.266.776c.064.216.161.311.306.281.028,0,.485-.167,1.22-.423a6.244,6.244,0,0,0,1.5,1.755c-.265.553-.47.977-.589,1.219-.072.149,0,.292.205.391l.081.041c.565.277,1.017.5,1.314.655l.084.037c.2.1.356.077.428-.076.114-.231.307-.628.558-1.147a6.149,6.149,0,0,0,2.8.214c.184.526.325.933.41,1.173.054.158.205.2.418.127l.084-.028c.314-.111.788-.279,1.384-.493l.087-.03c.212-.083.3-.2.246-.364-.081-.244-.226-.647-.41-1.178a6.291,6.291,0,0,0,1.965-1.814c.507.239.9.422,1.127.535.152.071.287-.007.382-.215l.039-.084c.142-.3.354-.766.621-1.341l.039-.086c.1-.209.069-.359-.084-.434-.233-.108-.631-.3-1.143-.543a6.478,6.478,0,0,0,.119-2.459c.516-.186.921-.329,1.159-.414.157-.055.2-.207.123-.422l-.028-.087c-.11-.318-.275-.794-.484-1.4l-.032-.087c-.074-.213-.2-.3-.356-.249m-2.2,3.308v.017a4.515,4.515,0,0,1-1.64,3.761l-.009,0-.233.18a4.617,4.617,0,0,1-1.058.554,4.387,4.387,0,0,1-1.17.236l-.326.012h-.018a4.4,4.4,0,0,1-3.043-1.276h0l-.012-.014-.254-.273-.039-.049-.214-.277-.018-.021h0a4.768,4.768,0,0,1-.546-1.072,4.64,4.64,0,0,1-.238-1.194v-.013a4.471,4.471,0,0,1,2.939-4.5,4.383,4.383,0,0,1,4.866,1.368l.063.079.146.191.02.035h0a4.4,4.4,0,0,1,.543,1.063,4.519,4.519,0,0,1,.236,1.192Z" transform="translate(-4.145 -9.355)" fill="#fff"/>
      <path id="Path_13040" data-name="Path 13040" d="M29.349,38.386c-.24.087-.639.226-1.157.41a6.236,6.236,0,0,0-1.82-2.006c.314-.65.509-1.055.516-1.079.046-.142-.034-.252-.239-.343-.028-.011-.294-.144-.727-.358s-.7-.348-.722-.361c-.2-.112-.33-.106-.416.018-.014.02-.225.451-.561,1.144a6.168,6.168,0,0,0-2.384-.108c-.258-.738-.421-1.2-.431-1.22-.071-.134-.206-.153-.41-.067-.028.009-.307.111-.762.271s-.735.26-.762.271c-.216.062-.307.162-.28.311.007.026.166.487.42,1.226a6.288,6.288,0,0,0-1.883,1.717c-.7-.327-1.135-.535-1.162-.54-.141-.044-.249.041-.334.246-.01.025-.133.3-.337.743s-.333.716-.346.74c-.1.2-.1.335.023.418.023.016.45.22,1.138.548a6.327,6.327,0,0,0-.143,2.541c-.729.265-1.181.426-1.2.439-.134.069-.149.206-.065.417.007.026.108.306.266.769s.258.742.266.773c.065.214.161.309.306.281.026-.006.482-.169,1.215-.424a6.169,6.169,0,0,0,1.49,1.748c-.263.55-.468.976-.586,1.215-.071.15,0,.289.2.389l.081.041c.563.277,1.013.5,1.309.654l.082.036c.2.1.354.074.428-.076.113-.229.3-.628.554-1.143a6.1,6.1,0,0,0,2.789.213c.183.523.325.93.409,1.168.054.159.205.2.415.127l.085-.028c.313-.111.786-.279,1.378-.493l.085-.028c.214-.082.3-.2.246-.362-.081-.242-.225-.647-.406-1.172a6.276,6.276,0,0,0,1.954-1.808c.5.239.894.42,1.124.532.151.07.284-.007.38-.213l.037-.083c.142-.3.354-.764.618-1.337l.041-.085c.1-.211.066-.358-.086-.432-.231-.108-.626-.3-1.137-.542a6.5,6.5,0,0,0,.119-2.45l1.153-.409c.156-.056.2-.206.124-.42l-.028-.087c-.111-.316-.274-.791-.482-1.394l-.031-.087c-.075-.214-.2-.3-.356-.25M27.161,41.68V41.7a4.5,4.5,0,0,1-1.634,3.745l-.007,0-.236.177a4.539,4.539,0,0,1-1.055.551,4.319,4.319,0,0,1-1.162.236l-.325.012h-.018a4.393,4.393,0,0,1-3.031-1.269l-.012-.015-.255-.271-.038-.048-.214-.276-.015-.021h0a4.35,4.35,0,0,1-.783-2.256v-.016a4.474,4.474,0,0,1,1.867-3.926,4.556,4.556,0,0,1,1.061-.556,4.364,4.364,0,0,1,4.845,1.362l.063.078.146.192.019.032h0a4.357,4.357,0,0,1,.542,1.061,4.46,4.46,0,0,1,.236,1.185Z" transform="translate(-4.157 -9.367)" fill="#fff"/>
      <path id="Path_13041" data-name="Path 13041" d="M27.221,43.82A2.623,2.623,0,1,0,24.6,46.477a2.634,2.634,0,0,0,2.621-2.657" transform="translate(-5.991 -11.224)" fill="#fff"/>
      <path id="Path_13042" data-name="Path 13042" d="M27.2,43.831a2.591,2.591,0,1,0-2.59,2.625,2.6,2.6,0,0,0,2.59-2.625" transform="translate(-6.003 -11.235)" fill="#fff"/>
      <path id="Path_13043" data-name="Path 13043" d="M23.849,36.9h0a3.578,3.578,0,0,1-2.075-.712c-2.909-2.056-.379-6.116,1.654-9.376.3-.481.588-.948.86-1.4,2.085-3.5,11.147-21.34,11.239-21.517l.026-.043a5.5,5.5,0,0,1,4.641-2.275A8.059,8.059,0,0,1,47.725,7.31a5.507,5.507,0,0,1-.686,4.66L29.832,32.311c-.143.172-.29.348-.442.532C27.9,34.651,26.033,36.9,23.849,36.9M36.159,4.249c-.371.735-9.186,18.082-11.252,21.541-.273.458-.565.93-.867,1.41-1.963,3.151-4.191,6.729-1.851,8.382a2.837,2.837,0,0,0,1.658.578c1.845,0,3.588-2.1,4.987-3.791.152-.185.3-.363.447-.535L46.465,11.52a4.781,4.781,0,0,0,.558-4.015,7.345,7.345,0,0,0-6.833-5.2,4.8,4.8,0,0,0-4.032,1.939" transform="translate(-5.576 -0.429)" fill="#fff"/>
    </g>
    <path id="Path_62240" data-name="Path 62240" d="M.9,15h2.32V3.56H.9ZM6.944,6.792H4.816V15H6.992V10.344A1.715,1.715,0,0,1,8.656,8.456a1.366,1.366,0,0,1,1.424,1.5V15h2.176V9.64A2.824,2.824,0,0,0,9.424,6.568,2.667,2.667,0,0,0,6.992,7.912H6.944Zm8.784,0H13.6V15h2.176V10.344A1.715,1.715,0,0,1,17.44,8.456a1.366,1.366,0,0,1,1.424,1.5V15H21.04V9.64a2.824,2.824,0,0,0-2.832-3.072,2.667,2.667,0,0,0-2.432,1.344h-.048ZM26.272,15.24A4.173,4.173,0,0,0,30.56,10.9a4.288,4.288,0,1,0-8.576,0A4.173,4.173,0,0,0,26.272,15.24Zm0-1.664c-1.344,0-2.08-1.072-2.08-2.672s.736-2.688,2.08-2.688c1.328,0,2.08,1.088,2.08,2.688S27.6,13.576,26.272,13.576ZM33.5,15h2.08l2.864-8.208H36.272l-1.344,4.256c-.24.784-.352,1.312-.352,1.312h-.032s-.128-.528-.368-1.312L32.864,6.792H30.656Zm10.608,0h2.1v-.08c-.192-.144-.288-.512-.288-1.136V9.608c0-1.92-.992-3.024-3.456-3.024-2.4,0-3.472,1.264-3.536,2.7h1.936c.064-.784.56-1.152,1.584-1.152.912,0,1.376.384,1.376.976,0,.624-.624.736-1.984.928-1.824.256-3.3.832-3.3,2.64,0,1.632,1.184,2.512,2.864,2.512a2.517,2.517,0,0,0,2.416-1.1h.032A2.226,2.226,0,0,0,44.112,15Zm-2.176-1.328c-.768,0-1.28-.272-1.28-1.04s.56-1.024,1.7-1.28a6.067,6.067,0,0,0,1.52-.48V12.1C43.872,12.9,43.184,13.672,41.936,13.672Zm4.72-5.44h1.136v4.816c0,1.552,1.168,1.968,2.224,1.968.864,0,1.36-.032,1.36-.032v-1.6s-.368.016-.64.016a.72.72,0,0,1-.816-.816V8.232h1.408V6.792H49.92V4.232H47.792v2.56H46.656ZM52.448,15h2.176V6.792H52.448Zm0-9.488h2.176V3.56H52.448ZM59.92,15.24A4.173,4.173,0,0,0,64.208,10.9a4.288,4.288,0,1,0-8.576,0A4.173,4.173,0,0,0,59.92,15.24Zm0-1.664c-1.344,0-2.08-1.072-2.08-2.672s.736-2.688,2.08-2.688C61.248,8.216,62,9.3,62,10.9S61.248,13.576,59.92,13.576Zm7.424-6.784H65.216V15h2.176V10.344a1.715,1.715,0,0,1,1.664-1.888,1.366,1.366,0,0,1,1.424,1.5V15h2.176V9.64a2.824,2.824,0,0,0-2.832-3.072,2.667,2.667,0,0,0-2.432,1.344h-.048ZM80.1,15.24a5.084,5.084,0,0,0,3.04-.992l.592.752h2.656l-1.808-2.336a7.973,7.973,0,0,0,1.088-3.536H83.728a7.316,7.316,0,0,1-.448,1.856L81.76,9.016c1.232-.64,2.048-1.344,2.048-2.752a3,3,0,0,0-5.952.016,3.436,3.436,0,0,0,.96,2.368c-1.488.752-2.528,1.776-2.528,3.408C76.288,13.848,77.584,15.24,80.1,15.24Zm.08-1.792a1.474,1.474,0,0,1-1.584-1.456A2.222,2.222,0,0,1,79.9,10.04L82,12.776A2.789,2.789,0,0,1,80.176,13.448Zm-.224-7.136A.9.9,0,1,1,81.744,6.3a1.632,1.632,0,0,1-.96,1.488A2.227,2.227,0,0,1,79.952,6.312ZM.288,21.512h3.44V31h2.32V21.512h3.44V19.56H.288ZM12.5,31.24a3.522,3.522,0,0,0,3.712-2.688H14.064A1.532,1.532,0,0,1,12.48,29.56a2.04,2.04,0,0,1-2.1-2.048h5.952c0-2.928-1.408-4.944-4.048-4.944a4.061,4.061,0,0,0-4.048,4.32A4.063,4.063,0,0,0,12.5,31.24Zm-.176-6.992a1.731,1.731,0,0,1,1.744,1.76H10.416A1.827,1.827,0,0,1,12.32,24.248Zm8.832,6.992a3.438,3.438,0,0,0,3.7-3.136h-2.1A1.532,1.532,0,0,1,21.1,29.5c-1.328,0-1.952-1.04-1.952-2.592,0-1.584.672-2.592,1.984-2.592a1.5,1.5,0,0,1,1.5,1.264h2.128a3.485,3.485,0,0,0-3.728-3.008,4.048,4.048,0,0,0-4.1,4.336A4.082,4.082,0,0,0,21.152,31.24Zm6.816-11.68H25.792V31h2.176V26.344a1.715,1.715,0,0,1,1.664-1.888,1.366,1.366,0,0,1,1.424,1.5V31h2.176V25.64A2.824,2.824,0,0,0,30.4,22.568a2.616,2.616,0,0,0-2.384,1.3h-.048ZM36.7,22.792H34.576V31h2.176V26.344a1.715,1.715,0,0,1,1.664-1.888,1.366,1.366,0,0,1,1.424,1.5V31h2.176V25.64a2.824,2.824,0,0,0-2.832-3.072,2.667,2.667,0,0,0-2.432,1.344H36.7ZM47.248,31.24A4.173,4.173,0,0,0,51.536,26.9a4.288,4.288,0,1,0-8.576,0A4.173,4.173,0,0,0,47.248,31.24Zm0-1.664c-1.344,0-2.08-1.072-2.08-2.672s.736-2.688,2.08-2.688c1.328,0,2.08,1.088,2.08,2.688S48.576,29.576,47.248,29.576ZM52.576,31h2.176V19.56H52.576Zm7.5.24A4.173,4.173,0,0,0,64.368,26.9a4.288,4.288,0,1,0-8.576,0A4.173,4.173,0,0,0,60.08,31.24Zm0-1.664C58.736,29.576,58,28.5,58,26.9s.736-2.688,2.08-2.688c1.328,0,2.08,1.088,2.08,2.688S61.408,29.576,60.08,29.576ZM68.992,33.8a4.3,4.3,0,0,0,2.96-.928,3.185,3.185,0,0,0,.976-2.5V22.792h-2.1v.864H70.8a2.646,2.646,0,0,0-2.272-1.088c-2.08,0-3.552,1.568-3.552,4.016a3.689,3.689,0,0,0,3.616,3.92,2.653,2.653,0,0,0,2.144-.96h.048v.9c0,1.12-.592,1.712-1.824,1.712-1.008,0-1.472-.4-1.648-.912h-2.16C65.376,32.84,66.752,33.8,68.992,33.8Zm-.032-5.04c-1.12,0-1.856-.816-1.856-2.208,0-1.376.736-2.24,1.84-2.24A1.975,1.975,0,0,1,70.9,26.536C70.9,27.752,70.336,28.76,68.96,28.76Zm5.552,4.928h1.28c1.664,0,2.272-.656,2.9-2.48l2.864-8.416H79.36l-1.152,3.7c-.256.752-.48,1.792-.48,1.792H77.7s-.272-1.04-.528-1.792l-1.216-3.7H73.664l2.208,5.84a7.11,7.11,0,0,1,.624,2.224c0,.672-.352,1.12-1.216,1.12h-.768ZM.88,47h7.7V45.064H3.2v-9.5H.88Zm12.464.24a3.522,3.522,0,0,0,3.712-2.688H14.912a1.532,1.532,0,0,1-1.584,1.008,2.04,2.04,0,0,1-2.1-2.048h5.952c0-2.928-1.408-4.944-4.048-4.944a4.061,4.061,0,0,0-4.048,4.32A4.063,4.063,0,0,0,13.344,47.24Zm-.176-6.992a1.731,1.731,0,0,1,1.744,1.76H11.264A1.827,1.827,0,0,1,13.168,40.248ZM23.36,47h2.1v-.08c-.192-.144-.288-.512-.288-1.136V41.608c0-1.92-.992-3.024-3.456-3.024-2.4,0-3.472,1.264-3.536,2.7h1.936c.064-.784.56-1.152,1.584-1.152.912,0,1.376.384,1.376.976,0,.624-.624.736-1.984.928-1.824.256-3.3.832-3.3,2.64,0,1.632,1.184,2.512,2.864,2.512a2.517,2.517,0,0,0,2.416-1.1H23.1A2.226,2.226,0,0,0,23.36,47Zm-2.176-1.328c-.768,0-1.28-.272-1.28-1.04s.56-1.024,1.7-1.28a6.067,6.067,0,0,0,1.52-.48V44.1C23.12,44.9,22.432,45.672,21.184,45.672Zm8.432,1.568a2.731,2.731,0,0,0,2.448-1.312H32.1V47h2.1V35.56H32.016v4.224h-.048a2.6,2.6,0,0,0-2.32-1.216c-2.048,0-3.5,1.776-3.5,4.336C26.144,45.56,27.552,47.24,29.616,47.24Zm.48-1.824c-1.12,0-1.744-.928-1.744-2.512,0-1.52.608-2.576,1.808-2.576,1.392,0,1.9,1.056,1.9,2.624C32.064,44.456,31.392,45.416,30.1,45.416Zm9.36,1.824a3.522,3.522,0,0,0,3.712-2.688H41.024A1.532,1.532,0,0,1,39.44,45.56a2.04,2.04,0,0,1-2.1-2.048H43.3c0-2.928-1.408-4.944-4.048-4.944a4.061,4.061,0,0,0-4.048,4.32A4.063,4.063,0,0,0,39.456,47.24Zm-.176-6.992a1.731,1.731,0,0,1,1.744,1.76H37.376A1.827,1.827,0,0,1,39.28,40.248Zm7.12-1.456H44.3V47H46.48V43a2.068,2.068,0,0,1,2.448-2.336h.048v-1.9a1.421,1.421,0,0,0-.512-.064A2.153,2.153,0,0,0,46.448,40.1H46.4Zm6.848,8.448c2.048,0,3.456-.992,3.456-2.64,0-1.92-1.52-2.3-2.9-2.592-1.168-.24-2.256-.3-2.256-1.008,0-.592.56-.912,1.408-.912.928,0,1.488.32,1.584,1.2h1.968c-.16-1.648-1.36-2.72-3.52-2.72-1.872,0-3.344.848-3.344,2.624,0,1.792,1.44,2.192,2.912,2.48,1.12.224,2.16.3,2.16,1.088,0,.576-.544.944-1.5.944a1.579,1.579,0,0,1-1.792-1.36H49.408C49.536,46.088,50.864,47.24,53.248,47.24Zm6.608-11.68H57.68V47h2.176V42.344a1.715,1.715,0,0,1,1.664-1.888,1.366,1.366,0,0,1,1.424,1.5V47H65.12V41.64a2.824,2.824,0,0,0-2.832-3.072,2.616,2.616,0,0,0-2.384,1.3h-.048ZM66.464,47H68.64V38.792H66.464Zm0-9.488H68.64V35.56H66.464Zm3.584,12.176h2.176V46.072h.032a2.643,2.643,0,0,0,2.368,1.168c2.112,0,3.552-1.68,3.552-4.336,0-2.56-1.392-4.336-3.568-4.336a2.868,2.868,0,0,0-2.416,1.248h-.048V38.792h-2.1Zm4.112-4.256c-1.3,0-1.984-.976-1.984-2.464,0-1.472.544-2.64,1.9-2.64,1.344,0,1.888,1.088,1.888,2.64S75.264,45.432,74.16,45.432Z" transform="translate(-4410.143 1313.064)" fill="#fff"/>
    <g id="Group_463" data-name="Group 463" transform="translate(-4410.143 1246.064)">
      <g id="Group_463-2" data-name="Group 463" transform="translate(0 0)">
        <path id="Path_7089" data-name="Path 7089" d="M28.443,41.438,19.567,61.62,10.088,41.511V39.273L0,44.217V45.64l6.161,4.4-.068,2.372L16.657,65.14h5.587L32.437,52.412V49.7L38.4,45.84V44.554l-9.889-5.281Z" transform="translate(0 -6.14)" fill="#fff"/>
        <g id="Group_453" data-name="Group 453">
          <g id="Group_452" data-name="Group 452" clip-path="url(#clip-path-4)">
            <path id="Path_7090" data-name="Path 7090" d="M22.823,55.442l2.236-10.7-1.541-3.218s1.454-1.541-.27-2.266c-.577-.034-1.982-.506-2.186,1.013-.067.239-.169.715.609,1.424l-1.725,2.843,2.368,10.905Z" transform="translate(-3.119 -6.123)" fill="#fff"/>
            <path id="Path_7091" data-name="Path 7091" d="M28.434,26.84c.678-.3,1.591-.4,1.864-3.082.034-.271-.172-1.011-.933-.64.254-1.659,1.507-9.685-7.671-10.735-.2,0-9.683-.336-8.36,10.768-.509-.1-2,1.524,1.013,3.69.17.712,1.594,6.058,6.637,6.705.678.068,5.079.4,7.45-6.705" transform="translate(-1.957 -1.936)" fill="#fff"/>
            <path id="Path_7092" data-name="Path 7092" d="M37.607,2.82h.879V0h-.879Zm6.226-.793L42.095,3.875l.64.6L44.473,2.63Zm1.979,6.208L43.128,7.8l-.141.866,2.684.439ZM31.669,2.63l1.738,1.848.64-.6L32.31,2.027ZM30.47,9.1l2.68-.439L33.008,7.8l-2.679.438" transform="translate(-4.742 0)" fill="#fff"/>
            <path id="Path_7093" data-name="Path 7093" d="M39.324,10.922h-.6l-.46-3.716h1.5Zm-.218,1.484a.543.543,0,0,1,0-1.087.543.543,0,1,1,0,1.087M41.376,5.64A4.1,4.1,0,0,0,36.749,5.6a3.689,3.689,0,0,0-1.363,4.357c.541,1.7,1.13,3.386,1.7,5.109,1.112,0,3.45,0,3.716-.021.1-.221,1.361-3.526,1.852-5.037A3.671,3.671,0,0,0,41.376,5.64" transform="translate(-5.498 -0.767)" fill="#fff"/>
            <path id="Path_7094" data-name="Path 7094" d="M41.274,19.092c-1.294.081-2.33.151-3.607.234,1.568,1.379,2.29,1.327,3.607-.234" transform="translate(-5.889 -2.985)" fill="#fff"/>
            <path id="Path_7095" data-name="Path 7095" d="M37.315,17.827l0,.482h4.07l.041-.482Z" transform="translate(-5.834 -2.787)" fill="#fff"/>
          </g>
        </g>
      </g>
    </g>
    <path id="Path_62241" data-name="Path 62241" d="M5.888,15.24A4.836,4.836,0,0,0,9.36,14.024a4.051,4.051,0,0,0,1.264-2.7H8.352a2.3,2.3,0,0,1-2.464,2.016c-1.92,0-3.136-1.68-3.136-4.016,0-2.272,1.008-4.032,3.12-4.032a2.26,2.26,0,0,1,2.416,1.9h2.3c-.24-2.176-1.9-3.856-4.72-3.856C2.5,3.336.384,5.928.384,9.32.384,12.76,2.672,15.24,5.888,15.24ZM18.928,15V6.792H16.752v4.736A1.658,1.658,0,0,1,15.1,13.384c-.928,0-1.36-.528-1.36-1.488v-5.1h-2.16v5.472a2.679,2.679,0,0,0,2.848,2.96,2.634,2.634,0,0,0,2.352-1.184h.048V15Zm4.736.24c2.048,0,3.456-.992,3.456-2.64,0-1.92-1.52-2.3-2.9-2.592-1.168-.24-2.256-.3-2.256-1.008,0-.592.56-.912,1.408-.912.928,0,1.488.32,1.584,1.2h1.968c-.16-1.648-1.36-2.72-3.52-2.72-1.872,0-3.344.848-3.344,2.624,0,1.792,1.44,2.192,2.912,2.48,1.12.224,2.16.3,2.16,1.088,0,.576-.544.944-1.5.944a1.579,1.579,0,0,1-1.792-1.36H19.824C19.952,14.088,21.28,15.24,23.664,15.24Zm3.792-7.008h1.136v4.816c0,1.552,1.168,1.968,2.224,1.968.864,0,1.36-.032,1.36-.032v-1.6s-.368.016-.64.016a.72.72,0,0,1-.816-.816V8.232h1.408V6.792H30.72V4.232H28.592v2.56H27.456Zm9.6,7.008A4.173,4.173,0,0,0,41.344,10.9a4.288,4.288,0,1,0-8.576,0A4.173,4.173,0,0,0,37.056,15.24Zm0-1.664c-1.344,0-2.08-1.072-2.08-2.672s.736-2.688,2.08-2.688c1.328,0,2.08,1.088,2.08,2.688S38.384,13.576,37.056,13.576ZM42.352,15h2.176V10.232c0-1.088.592-1.792,1.472-1.792.8,0,1.264.48,1.264,1.408V15H49.44V10.232c0-1.088.56-1.792,1.472-1.792.8,0,1.264.48,1.264,1.408V15h2.176V9.48a2.583,2.583,0,0,0-2.7-2.912,2.863,2.863,0,0,0-2.464,1.44h-.032a2.449,2.449,0,0,0-2.272-1.44A2.68,2.68,0,0,0,44.5,7.9h-.048v-1.1h-2.1Zm17.2.24a3.522,3.522,0,0,0,3.712-2.688H61.12a1.532,1.532,0,0,1-1.584,1.008,2.04,2.04,0,0,1-2.1-2.048h5.952c0-2.928-1.408-4.944-4.048-4.944a4.061,4.061,0,0,0-4.048,4.32A4.063,4.063,0,0,0,59.552,15.24Zm-.176-6.992a1.731,1.731,0,0,1,1.744,1.76H57.472A1.827,1.827,0,0,1,59.376,8.248ZM66.5,6.792H64.4V15h2.176V11a2.068,2.068,0,0,1,2.448-2.336h.048V6.76A1.421,1.421,0,0,0,68.56,6.7,2.153,2.153,0,0,0,66.544,8.1H66.5ZM.048,31H2.4l.752-2.432H7.28L8.048,31h2.416L6.432,19.56h-2.4ZM4.72,23.5c.192-.608.48-1.76.48-1.76h.032S5.5,22.888,5.7,23.5l1.024,3.3H3.7ZM14,31.24a2.731,2.731,0,0,0,2.448-1.312h.032V31h2.1V19.56H16.4v4.224h-.048a2.6,2.6,0,0,0-2.32-1.216c-2.048,0-3.5,1.776-3.5,4.336C10.528,29.56,11.936,31.24,14,31.24Zm.48-1.824c-1.12,0-1.744-.928-1.744-2.512,0-1.52.608-2.576,1.808-2.576,1.392,0,1.9,1.056,1.9,2.624C16.448,28.456,15.776,29.416,14.48,29.416ZM22.16,31h2.08L27.1,22.792H24.928l-1.344,4.256c-.24.784-.352,1.312-.352,1.312H23.2s-.128-.528-.368-1.312L21.52,22.792H19.312Zm9.328.24A4.173,4.173,0,0,0,35.776,26.9a4.288,4.288,0,1,0-8.576,0A4.173,4.173,0,0,0,31.488,31.24Zm0-1.664c-1.344,0-2.08-1.072-2.08-2.672s.736-2.688,2.08-2.688c1.328,0,2.08,1.088,2.08,2.688S32.816,29.576,31.488,29.576Zm9.1,1.664a3.438,3.438,0,0,0,3.7-3.136h-2.1A1.532,1.532,0,0,1,40.544,29.5c-1.328,0-1.952-1.04-1.952-2.592,0-1.584.672-2.592,1.984-2.592a1.5,1.5,0,0,1,1.5,1.264h2.128a3.485,3.485,0,0,0-3.728-3.008,4.048,4.048,0,0,0-4.1,4.336A4.082,4.082,0,0,0,40.592,31.24ZM50.56,31h2.1v-.08c-.192-.144-.288-.512-.288-1.136V25.608c0-1.92-.992-3.024-3.456-3.024-2.4,0-3.472,1.264-3.536,2.7h1.936c.064-.784.56-1.152,1.584-1.152.912,0,1.376.384,1.376.976,0,.624-.624.736-1.984.928-1.824.256-3.3.832-3.3,2.64,0,1.632,1.184,2.512,2.864,2.512a2.517,2.517,0,0,0,2.416-1.1H50.3A2.226,2.226,0,0,0,50.56,31Zm-2.176-1.328c-.768,0-1.28-.272-1.28-1.04s.56-1.024,1.7-1.28a6.067,6.067,0,0,0,1.52-.48V28.1C50.32,28.9,49.632,29.672,48.384,29.672Zm9.168,1.568a3.438,3.438,0,0,0,3.7-3.136h-2.1A1.532,1.532,0,0,1,57.5,29.5c-1.328,0-1.952-1.04-1.952-2.592,0-1.584.672-2.592,1.984-2.592a1.5,1.5,0,0,1,1.5,1.264h2.128a3.485,3.485,0,0,0-3.728-3.008,4.048,4.048,0,0,0-4.1,4.336A4.082,4.082,0,0,0,57.552,31.24Zm4.736,2.448h1.28c1.664,0,2.272-.656,2.9-2.48l2.864-8.416H67.136l-1.152,3.7c-.256.752-.48,1.792-.48,1.792h-.032s-.272-1.04-.528-1.792l-1.216-3.7H61.44l2.208,5.84a7.11,7.11,0,0,1,.624,2.224c0,.672-.352,1.12-1.216,1.12h-.768Z" transform="translate(-4191 1175.064)" fill="#fff"/>
    <g id="Group_17790" data-name="Group 17790" transform="translate(-4191 1107.064)">
      <g id="Group_451" data-name="Group 451" transform="translate(0 0)" clip-path="url(#clip-path-5)">
        <path id="Path_7072" data-name="Path 7072" d="M26.114,13.853l-.06-.489A16.777,16.777,0,0,0,11.366,30.019a16.989,16.989,0,0,0,.126,2.068,16.717,16.717,0,0,0,4.1,9.121l.368-.328-.49-.06-.815,6.759,6.127-2.62-.194-.453-.228.437a16.6,16.6,0,0,0,7.715,1.907,16.747,16.747,0,0,0,16.74-16.778A17.034,17.034,0,0,0,44.691,28,16.751,16.751,0,0,0,28.108,13.238a16.973,16.973,0,0,0-2.055.125l.12.98a15.972,15.972,0,0,1,1.934-.12,15.764,15.764,0,0,1,15.6,13.9,16.02,16.02,0,0,1,.12,1.95A15.79,15.79,0,0,1,30.008,45.745a16.122,16.122,0,0,1-1.932.119,15.59,15.59,0,0,1-7.256-1.794l-.208-.108L15.839,46l.638-5.281-.147-.167a15.714,15.714,0,0,1-3.858-8.582h0a15.8,15.8,0,0,1,13.7-17.626Z" transform="translate(-0.5 -0.582)" fill="#fff"/>
        <path id="Path_7073" data-name="Path 7073" d="M33.151,30.972l-2.121-.78-.275.685.585.213-2.155,7.164-.272-4.806h-.837l-.268,4.715-2.129-7.079.565-.207-.28-.69-2.1.773-.026.011A6.246,6.246,0,0,0,20.56,36.95l0,.053.015.054c.023.051.45,1.176,2.55,1.176l.237-.009A8.025,8.025,0,0,0,28.442,39.6h.109c1.734-.011,3.937-.384,5.079-1.378l.235.009c2.09,0,2.524-1.125,2.541-1.176L36.425,37l.006-.053a6.265,6.265,0,0,0-3.28-5.978m.1,5.7a6.3,6.3,0,0,1-2.293.417l-.38-.013v-.445a5.183,5.183,0,0,0,2.672-.419Zm-5.357-4.794-.25.663.4.576h.893l.4-.576-.25-.663Zm-2.3-3.847c.515,1.536,1.5,2.7,2.9,2.7,1.345,0,2.341-1.152,2.88-2.683,1.082-1.1.83-1.926.576-2.326A3.419,3.419,0,0,0,28.4,21.272c-4.215,0-3.477,4.645-3.477,4.645h.009c-.19.435-.244,1.171.667,2.11m4.011-3.712a3.084,3.084,0,0,0,1.486,1.164c-.057,2.2-1.039,4.506-2.595,4.506-1.453,0-2.405-2-2.572-4.055a5.627,5.627,0,0,0,3.681-1.616" transform="translate(-0.903 -0.935)" fill="#fff"/>
        <path id="Path_7074" data-name="Path 7074" d="M31.99,9.555l0,.033-.009.033c-.012.033-.276.715-1.554.715l-.144,0a5.2,5.2,0,0,1-3.1.84h-.063a4.911,4.911,0,0,1-3.095-.84l-.143,0c-1.277,0-1.54-.683-1.553-.715l-.014-.033V9.555a3.828,3.828,0,0,1,2-3.643l.022,0,1.27-.474.171.42-.343.128,1.3,4.317.162-2.877h.513l.168,2.93,1.314-4.366-.361-.131.173-.421,1.292.478a3.818,3.818,0,0,1,2,3.643M30.052,9.1a3.154,3.154,0,0,1-1.632.257v.272l.236.006a3.858,3.858,0,0,0,1.4-.253ZM27.513,6.462l.153.4-.247.358h-.544l-.248-.358.156-.4ZM24.977,2.828h-.006S24.526,0,27.086,0a2.081,2.081,0,0,1,2.171,2.709c.156.239.311.745-.349,1.418-.329.935-.936,1.636-1.757,1.636-.85,0-1.45-.713-1.769-1.649-.557-.572-.521-1.018-.405-1.286m.605.01c.1,1.254.68,2.473,1.569,2.473.953,0,1.548-1.4,1.582-2.749a1.861,1.861,0,0,1-.9-.707,3.461,3.461,0,0,1-2.25.983" transform="translate(-0.981 0)" fill="#fff"/>
        <path id="Path_7075" data-name="Path 7075" d="M52.255,15.224v.03l-.012.032c-.012.033-.275.717-1.55.717l-.14,0a5.26,5.26,0,0,1-3.105.84h-.06a4.912,4.912,0,0,1-3.1-.84l-.142,0c-1.277,0-1.543-.684-1.555-.717l-.008-.032-.008-.03a3.819,3.819,0,0,1,2.007-3.646l.015-.009,1.275-.47.171.418-.348.13L47,15.964l.167-2.878h.512l.167,2.931,1.31-4.366-.359-.135.17-.418,1.292.479a3.82,3.82,0,0,1,2,3.646m-1.938-.457a3.161,3.161,0,0,1-1.628.259V15.3l.232.006a3.827,3.827,0,0,0,1.4-.253Zm-2.532-2.642.151.4-.244.354h-.546l-.245-.354.155-.4Zm-2.54-3.631-.008,0s-.447-2.828,2.116-2.828a2.08,2.08,0,0,1,2.17,2.712c.155.242.314.744-.349,1.417-.326.935-.932,1.636-1.753,1.636-.855,0-1.45-.711-1.767-1.646-.559-.572-.52-1.02-.409-1.288m.606.01c.1,1.252.68,2.472,1.57,2.472.95,0,1.548-1.4,1.578-2.748a1.832,1.832,0,0,1-.9-.713,3.444,3.444,0,0,1-2.249.989" transform="translate(-1.871 -0.249)" fill="#fff"/>
        <path id="Path_7076" data-name="Path 7076" d="M57.271,38.563V38.6l-.013.034c-.012.032-.274.716-1.555.716l-.133,0a5.26,5.26,0,0,1-3.107.84H52.4a4.9,4.9,0,0,1-3.094-.84l-.15,0c-1.274,0-1.54-.685-1.553-.716l-.012-.034v-.033a3.805,3.805,0,0,1,2-3.643l.016,0,1.272-.474.171.418-.339.127,1.294,4.321.167-2.882h.5l.171,2.93,1.315-4.362-.359-.135.171-.418,1.292.479a3.82,3.82,0,0,1,2,3.643m-1.938-.453a3.227,3.227,0,0,1-1.629.259v.269l.233.011a3.862,3.862,0,0,0,1.4-.255ZM52.8,35.468l.156.4-.25.349h-.546l-.248-.349.154-.4Zm-2.538-3.631h-.009s-.449-2.83,2.116-2.83a2.087,2.087,0,0,1,2.174,2.711c.153.242.308.742-.353,1.415-.335.938-.934,1.635-1.757,1.635-.85,0-1.452-.711-1.767-1.643-.556-.575-.521-1.023-.4-1.288m.609.009c.1,1.255.675,2.473,1.562,2.473.945,0,1.551-1.409,1.579-2.749a1.863,1.863,0,0,1-.9-.709,3.471,3.471,0,0,1-2.242.985" transform="translate(-2.092 -1.275)" fill="#fff"/>
        <path id="Path_7077" data-name="Path 7077" d="M46.924,56.39v.033l-.012.033c-.007.029-.272.713-1.549.713l-.14,0a5.29,5.29,0,0,1-3.1.84h-.068a4.92,4.92,0,0,1-3.094-.84l-.146,0c-1.275,0-1.539-.685-1.547-.713l-.013-.033,0-.033a3.809,3.809,0,0,1,2-3.646l.013-.006,1.276-.474.171.422-.342.129,1.3,4.313.164-2.873h.509l.171,2.929,1.316-4.365-.368-.132.176-.423,1.293.48a3.8,3.8,0,0,1,2,3.646m-1.933-.453a3.241,3.241,0,0,1-1.627.26v.268l.232.01a3.923,3.923,0,0,0,1.395-.256Zm-2.537-2.642.157.4-.25.356h-.544l-.25-.356.155-.4Zm-2.537-3.631-.01,0s-.448-2.827,2.12-2.827A2.087,2.087,0,0,1,44.2,49.544c.145.242.31.743-.359,1.415-.325.932-.935,1.635-1.755,1.635-.849,0-1.448-.71-1.766-1.648-.558-.569-.521-1.017-.406-1.283m.605.009c.1,1.251.685,2.47,1.567,2.47.948,0,1.55-1.4,1.584-2.745a1.893,1.893,0,0,1-.907-.714,3.43,3.43,0,0,1-2.244.989" transform="translate(-1.637 -2.059)" fill="#fff"/>
        <path id="Path_7078" data-name="Path 7078" d="M24.559,60.628l0,.036-.011.031c-.009.032-.279.714-1.551.714l-.14,0a5.252,5.252,0,0,1-3.1.838h-.062a4.912,4.912,0,0,1-3.1-.839l-.146,0c-1.273,0-1.536-.683-1.548-.714l-.017-.031v-.036a3.817,3.817,0,0,1,2-3.643l.014-.008,1.276-.47.171.418-.342.13,1.3,4.315.158-2.876h.513l.167,2.929,1.316-4.364-.359-.134.171-.418,1.289.478a3.815,3.815,0,0,1,2,3.643m-1.943-.45a3.24,3.24,0,0,1-1.627.258V60.7l.23.011a3.934,3.934,0,0,0,1.4-.255Zm-2.534-2.644.159.4-.254.355h-.54l-.248-.355.156-.4ZM17.55,53.9h-.015s-.446-2.828,2.122-2.828a2.082,2.082,0,0,1,2.17,2.713c.151.238.311.741-.35,1.412-.33.937-.94,1.64-1.753,1.64-.856,0-1.458-.716-1.774-1.65-.559-.57-.518-1.019-.4-1.287m.6.01c.1,1.251.684,2.474,1.573,2.474.945,0,1.542-1.408,1.575-2.748a1.9,1.9,0,0,1-.9-.713,3.437,3.437,0,0,1-2.244.987" transform="translate(-0.654 -2.245)" fill="#fff"/>
        <path id="Path_7079" data-name="Path 7079" d="M9.685,44.159v.03l-.013.036c-.009.029-.272.715-1.55.715l-.139,0a5.247,5.247,0,0,1-3.107.837H4.815a4.907,4.907,0,0,1-3.094-.837l-.149,0c-1.274,0-1.54-.686-1.549-.715l-.011-.036,0-.03a3.824,3.824,0,0,1,2-3.646l.017,0L3.3,40.036l.176.419-.351.128,1.3,4.317.163-2.878H5.1l.167,2.931,1.31-4.366-.361-.131.174-.42,1.292.477a3.824,3.824,0,0,1,2,3.646M7.751,43.7a3.22,3.22,0,0,1-1.633.262v.269l.233.007a3.814,3.814,0,0,0,1.4-.253ZM5.214,41.062l.151.406-.245.35H4.576l-.249-.35.16-.406ZM2.676,37.433H2.667S2.218,34.6,4.784,34.6a2.087,2.087,0,0,1,2.177,2.713c.147.239.3.742-.357,1.414-.327.934-.933,1.636-1.754,1.636-.853,0-1.45-.709-1.769-1.648-.557-.57-.524-1.017-.405-1.283m.605.009c.1,1.251.685,2.469,1.569,2.469.946,0,1.544-1.4,1.583-2.748a1.786,1.786,0,0,1-.906-.712,3.436,3.436,0,0,1-2.246.99" transform="translate(0 -1.521)" fill="#fff"/>
        <path id="Path_7080" data-name="Path 7080" d="M11.336,19.881l-.006.033-.008.029c-.01.032-.275.716-1.552.716l-.146,0a5.252,5.252,0,0,1-3.1.838H6.461a4.892,4.892,0,0,1-3.091-.838l-.153,0c-1.276,0-1.534-.685-1.547-.716l-.012-.029v-.033a3.822,3.822,0,0,1,2-3.648l.011-.006,1.278-.473.171.419-.342.13,1.3,4.318.161-2.877H6.75l.165,2.93,1.316-4.367-.365-.135.176-.419,1.288.479a3.82,3.82,0,0,1,2,3.648M9.4,19.425a3.149,3.149,0,0,1-1.628.258v.271l.228,0a3.749,3.749,0,0,0,1.4-.25ZM6.859,16.782l.156.4-.248.355H6.221l-.246-.355.154-.4ZM4.327,13.153H4.312s-.444-2.836,2.117-2.836a2.094,2.094,0,0,1,2.181,2.719c.149.237.307.741-.36,1.414-.325.933-.932,1.633-1.752,1.633-.852,0-1.45-.708-1.77-1.645-.555-.569-.524-1.017-.4-1.285m.6.01c.1,1.249.68,2.472,1.565,2.472.951,0,1.55-1.405,1.58-2.751a1.861,1.861,0,0,1-.9-.708,3.44,3.44,0,0,1-2.242.987" transform="translate(-0.073 -0.454)" fill="#fff"/>
        <path id="Path_7081" data-name="Path 7081" d="M16.657,11.071l.7.355L18.46,9.209,16.783,7.436l-.568.539,1.039,1.1a8.292,8.292,0,0,0-6.141,3.643l.66.419a7.589,7.589,0,0,1,5.481-3.265Z" transform="translate(-0.489 -0.327)" fill="#fff"/>
        <path id="Path_7082" data-name="Path 7082" d="M38.195,11.032l.16.769,2.408-.494L41.1,8.875l-.772-.111-.211,1.507a8.281,8.281,0,0,0-6.648-2.6l.09.784A7.581,7.581,0,0,1,39.5,10.764Z" transform="translate(-1.472 -0.335)" fill="#fff"/>
        <path id="Path_7083" data-name="Path 7083" d="M50.607,24.816l-.5.61,1.913,1.56,2.084-1.274-.407-.674-1.291.79a8.4,8.4,0,0,0-2.229-6.82l-.546.568a7.679,7.679,0,0,1,2,6.086Z" transform="translate(-2.182 -0.836)" fill="#fff"/>
        <path id="Path_7084" data-name="Path 7084" d="M50.649,24.792l-.482.6,1.856,1.533,2.025-1.252-.4-.665-1.252.78a8.332,8.332,0,0,0-2.164-6.707l-.531.558a7.607,7.607,0,0,1,1.944,5.983Z" transform="translate(-2.185 -0.839)" fill="#fff"/>
        <path id="Path_7085" data-name="Path 7085" d="M47.526,46.235l-.776.02.07,2.45,2.282.757.241-.743-1.416-.468a8.255,8.255,0,0,0,3.639-6.075L50.8,42.13a7.6,7.6,0,0,1-3.242,5.433Z" transform="translate(-2.055 -1.852)" fill="#fff"/>
        <path id="Path_7086" data-name="Path 7086" d="M29.284,56.677l-.5-.59-1.86,1.556.834,2.251.721-.269-.516-1.394a8.256,8.256,0,0,0,7-.868l-.447-.635a7.556,7.556,0,0,1-6.244.791Z" transform="translate(-1.184 -2.466)" fill="#fff"/>
        <path id="Path_7087" data-name="Path 7087" d="M9.985,49.955l.112-.769L7.7,48.818l-1.14,2.13.674.372L7.944,50a8.237,8.237,0,0,0,5.274,4.7l.186-.756a7.529,7.529,0,0,1-4.721-4.185Z" transform="translate(-0.289 -2.146)" fill="#fff"/>
        <path id="Path_7088" data-name="Path 7088" d="M4.917,27.149l.724-.3L4.708,24.56l-2.429.1.033.785,1.507-.063A8.435,8.435,0,0,0,2.5,32.441l.744-.23a7.7,7.7,0,0,1,1.174-6.3Z" transform="translate(-0.096 -1.08)" fill="#fff"/>
      </g>
    </g>
  </g>
</svg>
