<svg xmlns="http://www.w3.org/2000/svg" xmlns:xlink="http://www.w3.org/1999/xlink" width="54" height="60" viewBox="0 0 54 60">
  <defs>
    <clipPath id="clip-path">
      <rect id="Rectangle_9565" data-name="Rectangle 9565" width="54" height="60" transform="translate(1594 1952)" fill="#fff"/>
    </clipPath>
    <clipPath id="clip-path-2">
      <rect id="Rectangle_700" data-name="Rectangle 700" width="54" height="52.355" fill="#555"/>
    </clipPath>
  </defs>
  <g id="Mask_Group_2" data-name="Mask Group 2" transform="translate(-1594 -1952)" clip-path="url(#clip-path)">
    <g id="Group_157792" data-name="Group 157792" transform="translate(1594 1959)">
      <g id="Group_455" data-name="Group 455" transform="translate(0 0)" clip-path="url(#clip-path-2)">
        <path id="Path_7103" data-name="Path 7103" d="M54.094,7.18l-1.1.389a6.047,6.047,0,0,0-1.737-1.915c.3-.621.485-1.006.492-1.028l-.23-.331c-.027-.01-.278-.134-.693-.337s-.668-.338-.692-.346l-.394.015c-.015.023-.218.43-.537,1.091a5.923,5.923,0,0,0-2.276-.1c-.248-.7-.4-1.141-.412-1.163l-.4-.067c-.023.012-.289.106-.722.263s-.7.247-.728.257l-.266.3c.007.026.155.464.4,1.17A6.028,6.028,0,0,0,43,7.016C42.335,6.7,41.918,6.5,41.893,6.5l-.317.241c-.01.026-.129.284-.325.708s-.314.68-.328.7l.02.4c.024.016.431.212,1.088.52A6.2,6.2,0,0,0,41.9,11.5c-.7.247-1.131.406-1.154.419l-.066.393c.011.023.1.294.26.735s.246.706.251.738l.294.264c.026,0,.461-.153,1.164-.4a5.875,5.875,0,0,0,1.419,1.671c-.25.524-.445.929-.561,1.158l.2.372.077.04c.539.265.964.481,1.25.623l.077.036.408-.071c.109-.221.294-.6.532-1.09a5.883,5.883,0,0,0,2.664.2c.17.5.307.889.386,1.116l.4.119.078-.026c.3-.1.75-.265,1.317-.47l.082-.029.232-.346c-.077-.226-.215-.613-.383-1.12a5.9,5.9,0,0,0,1.863-1.725c.48.23.852.4,1.072.508l.364-.2.038-.077c.132-.288.336-.728.587-1.277l.04-.082-.081-.41-1.088-.515a6.134,6.134,0,0,0,.113-2.338c.493-.179.878-.313,1.1-.394l.122-.4-.032-.082c-.1-.3-.262-.759-.459-1.331l-.031-.08ZM52,10.322v.019a4.263,4.263,0,0,1-1.559,3.573l-.008.006-.221.17a4.115,4.115,0,0,1-2.12.755l-.305.009h-.015a4.185,4.185,0,0,1-2.9-1.213l-.014-.015-.243-.257-.036-.048-.206-.262-.012-.021h0a4.38,4.38,0,0,1-.523-1.023,4.5,4.5,0,0,1-.226-1.129v-.018a4.275,4.275,0,0,1,1.785-3.745v0A4.064,4.064,0,0,1,46.417,6.6a4.156,4.156,0,0,1,4.627,1.3l.062.074.139.182.023.03h0a4.372,4.372,0,0,1,.516,1.012A4.473,4.473,0,0,1,52,10.322" transform="translate(-3.593 -0.299)" fill="#555"/>
        <path id="Path_7104" data-name="Path 7104" d="M57.49,34.232c-.178.065-.47.173-.857.306a4.67,4.67,0,0,0-1.351-1.493c.232-.483.375-.783.383-.8l-.181-.256c-.018-.006-.217-.106-.536-.265s-.521-.254-.538-.266l-.309.012c-.01.019-.168.334-.416.851a4.563,4.563,0,0,0-1.77-.081c-.191-.551-.312-.889-.323-.909l-.3-.047c-.021.008-.226.085-.563.206s-.547.192-.566.2l-.206.232c0,.017.12.363.31.913a4.738,4.738,0,0,0-1.4,1.273c-.519-.246-.84-.4-.862-.4l-.244.184c-.01.021-.1.222-.255.552s-.244.532-.253.55l.016.306c.018.015.331.166.844.408a4.657,4.657,0,0,0-.1,1.888c-.545.2-.875.315-.9.325l-.048.307c.006.016.084.227.2.575s.191.547.2.572l.227.206c.019,0,.356-.117.9-.314a4.6,4.6,0,0,0,1.1,1.3c-.2.407-.35.724-.435.9l.153.29.06.031c.418.208.75.375.973.484l.057.029.321-.062c.084-.166.228-.466.411-.846a4.54,4.54,0,0,0,2.071.159c.136.39.241.69.3.869l.313.094.061-.026c.233-.077.582-.2,1.024-.357l.061-.025.186-.268c-.065-.177-.167-.477-.3-.871a4.73,4.73,0,0,0,1.448-1.339c.377.175.663.311.836.391l.282-.161.028-.059c.1-.223.26-.564.459-.994l.027-.064-.062-.315c-.171-.083-.468-.221-.846-.4a4.7,4.7,0,0,0,.086-1.818c.385-.141.686-.249.858-.307l.094-.314-.021-.059c-.082-.243-.206-.592-.361-1.038l-.019-.064Zm-1.625,2.444v.016a3.319,3.319,0,0,1-1.212,2.776l0,.006-.174.129a3.533,3.533,0,0,1-.78.41,3.344,3.344,0,0,1-.865.177l-.241.007h-.016a3.244,3.244,0,0,1-2.249-.945l-.008-.007-.19-.205-.029-.034-.158-.2-.009-.024h0a3.213,3.213,0,0,1-.407-.794,3.39,3.39,0,0,1-.177-.879V37.1a3.327,3.327,0,0,1,1.385-2.915,3.391,3.391,0,0,1,.789-.41,3.246,3.246,0,0,1,3.6,1.008l.045.058.1.143.016.02a3.4,3.4,0,0,1,.4.791,3.328,3.328,0,0,1,.175.878" transform="translate(-4.157 -2.763)" fill="#555"/>
        <path id="Path_7105" data-name="Path 7105" d="M54.888,37.243a1.938,1.938,0,1,0-1.937,1.964,1.95,1.95,0,0,0,1.937-1.964" transform="translate(-4.506 -3.116)" fill="#555"/>
        <path id="Path_7106" data-name="Path 7106" d="M54.853,37.247a1.9,1.9,0,1,0-1.9,1.923,1.91,1.91,0,0,0,1.9-1.923" transform="translate(-4.51 -3.12)" fill="#555"/>
        <path id="Path_7107" data-name="Path 7107" d="M14.085,5.7c-.21.076-.558.193-1.017.36A5.473,5.473,0,0,0,11.474,4.3c.275-.573.444-.926.451-.946l-.208-.3c-.024-.007-.259-.125-.635-.312s-.616-.308-.64-.314l-.362.009c-.013.023-.2.4-.492,1.006A5.356,5.356,0,0,0,7.5,3.35C7.27,2.7,7.125,2.3,7.115,2.274l-.357-.057c-.026.009-.27.1-.666.242s-.646.225-.67.232l-.243.275c0,.024.141.426.365,1.077A5.471,5.471,0,0,0,3.892,5.552c-.614-.291-1-.473-1.017-.48l-.3.222c-.008.025-.118.261-.3.65s-.285.624-.3.65L2,6.959c.022.013.393.2,1,.48a5.636,5.636,0,0,0-.124,2.231c-.641.234-1.037.372-1.06.387l-.056.362c.009.019.094.268.238.674s.219.655.227.677l.271.246c.025,0,.423-.145,1.067-.369a5.483,5.483,0,0,0,1.31,1.536c-.234.48-.417.851-.519,1.067l.179.338.075.036,1.149.573.068.031L6.2,15.16l.486-1a5.4,5.4,0,0,0,2.449.187c.159.459.284.817.356,1.022l.366.109.073-.024c.274-.1.691-.243,1.208-.428L11.216,15l.218-.317c-.069-.208-.2-.563-.355-1.024a5.533,5.533,0,0,0,1.711-1.591l.986.465.333-.181.034-.077c.123-.262.313-.666.543-1.17l.035-.077-.075-.376-1-.478a5.612,5.612,0,0,0,.1-2.148l1.017-.36.108-.369-.025-.076c-.1-.277-.242-.7-.428-1.224L14.4,5.921ZM12.167,8.59v.02a3.93,3.93,0,0,1-1.436,3.282l0,0-.2.156a3.816,3.816,0,0,1-1.949.694l-.287.008H8.277a3.849,3.849,0,0,1-2.662-1.114v0l-.01-.014-.225-.239-.031-.046L5.161,11.1l-.013-.017a4.05,4.05,0,0,1-.48-.939,4.212,4.212,0,0,1-.208-1.04V9.09A3.937,3.937,0,0,1,6.1,5.647a3.826,3.826,0,0,1,5.182.711l.055.067.128.17.02.026h0a3.888,3.888,0,0,1,.473.931,3.972,3.972,0,0,1,.205,1.038Z" transform="translate(-0.155 -0.196)" fill="#555"/>
        <path id="Path_7108" data-name="Path 7108" d="M23.68,52.355h0a11.138,11.138,0,0,1-9.95-6.38L1.561,14.745C-.354,9.513-1.52,3.791,4.312.939A8.467,8.467,0,0,1,8.014,0c3.294,0,6.118,2.358,8.639,7.2L33.308,36.371a11.388,11.388,0,0,1,.55,8.561,10.794,10.794,0,0,1-5.516,6.339,10.489,10.489,0,0,1-4.662,1.085M8.014.924a7.555,7.555,0,0,0-3.306.849C.54,3.81-.125,7.474,2.413,14.411l12.152,31.2a10.211,10.211,0,0,0,9.115,5.825,9.617,9.617,0,0,0,4.263-.993,9.878,9.878,0,0,0,5.052-5.806,10.415,10.415,0,0,0-.5-7.833L15.852,7.647C13.5,3.116,10.933.924,8.014.924" transform="translate(0 0)" fill="#555"/>
        <path id="Path_7109" data-name="Path 7109" d="M32.952,39.382c-.3.109-.807.285-1.458.512A7.85,7.85,0,0,0,29.2,37.372c.4-.816.64-1.329.65-1.357.057-.179-.045-.317-.3-.43-.032-.015-.369-.183-.913-.45s-.88-.44-.908-.457c-.249-.138-.418-.133-.526.026-.015.025-.282.567-.7,1.439a7.776,7.776,0,0,0-3-.135c-.324-.932-.529-1.505-.544-1.536-.087-.17-.257-.194-.516-.085-.033.012-.382.139-.956.342s-.924.325-.958.34c-.273.079-.386.205-.354.393.011.031.207.613.53,1.542a7.944,7.944,0,0,0-2.37,2.163c-.881-.414-1.428-.675-1.461-.682-.176-.057-.313.051-.42.312-.013.03-.166.377-.425.934s-.418.9-.434.929c-.131.253-.126.426.03.528.028.019.566.279,1.432.687a8.019,8.019,0,0,0-.181,3.2c-.915.331-1.488.537-1.516.551-.17.088-.188.261-.082.524.011.036.136.386.336.969s.324.932.334.973c.08.271.2.39.384.352.035-.005.608-.21,1.529-.531a7.826,7.826,0,0,0,1.877,2.2c-.332.693-.589,1.224-.738,1.528-.09.187,0,.366.257.49l.1.051c.708.347,1.275.632,1.646.821l.106.046c.253.129.446.1.537-.095.143-.289.385-.788.7-1.438a7.707,7.707,0,0,0,3.509.268c.231.659.408,1.17.514,1.471.067.2.257.254.523.16l.106-.036c.394-.139.987-.35,1.735-.618l.108-.037c.265-.1.379-.256.308-.456-.1-.305-.284-.811-.513-1.476a7.884,7.884,0,0,0,2.462-2.274c.635.3,1.125.529,1.413.67.191.088.359-.008.479-.269l.048-.106c.178-.376.443-.96.779-1.681l.049-.108c.122-.263.087-.449-.1-.543-.293-.136-.79-.377-1.433-.681a8.119,8.119,0,0,0,.149-3.081c.646-.233,1.154-.412,1.452-.519.2-.069.251-.259.154-.529l-.035-.109c-.138-.4-.345-1-.606-1.755L33.4,39.7c-.093-.267-.253-.379-.447-.313M30.2,43.528v.022a5.658,5.658,0,0,1-2.056,4.713l-.011,0-.293.225a5.787,5.787,0,0,1-1.326.695,5.5,5.5,0,0,1-1.466.3l-.408.016h-.023A5.517,5.517,0,0,1,20.8,47.9h0l-.015-.017-.318-.342-.048-.061-.268-.347-.023-.026h0a5.976,5.976,0,0,1-.685-1.344,5.815,5.815,0,0,1-.3-1.5v-.016a5.6,5.6,0,0,1,3.684-5.641,5.494,5.494,0,0,1,6.1,1.714l.078.1.183.239.026.044h0a5.508,5.508,0,0,1,.681,1.332,5.663,5.663,0,0,1,.3,1.494Z" transform="translate(-1.343 -3.031)" fill="#555"/>
        <path id="Path_7110" data-name="Path 7110" d="M32.92,39.4c-.3.109-.8.284-1.45.513A7.816,7.816,0,0,0,29.189,37.4c.394-.814.638-1.323.647-1.352.057-.178-.043-.315-.3-.429-.035-.014-.368-.181-.912-.449s-.877-.437-.905-.452c-.247-.14-.414-.133-.521.023-.017.026-.282.565-.7,1.434a7.73,7.73,0,0,0-2.988-.136c-.323-.925-.528-1.5-.541-1.529-.089-.168-.258-.192-.513-.084-.035.012-.385.139-.955.34s-.921.325-.955.34c-.271.077-.385.2-.351.39.009.033.208.61.527,1.536a7.881,7.881,0,0,0-2.359,2.152c-.878-.409-1.423-.67-1.456-.677-.177-.056-.313.051-.418.308-.013.032-.167.377-.422.931s-.418.9-.433.927c-.13.251-.127.42.029.523.029.02.563.276,1.427.686a7.93,7.93,0,0,0-.18,3.184c-.913.332-1.481.534-1.51.55-.168.087-.187.258-.082.522.009.033.135.383.334.964s.324.93.333.969c.082.268.2.387.384.352.033-.007.6-.212,1.522-.531a7.732,7.732,0,0,0,1.868,2.191c-.33.689-.587,1.223-.735,1.523-.088.188,0,.362.256.488l.1.051c.706.347,1.27.628,1.641.82l.1.046c.253.129.444.093.536-.1.141-.287.382-.787.695-1.433a7.638,7.638,0,0,0,3.5.267c.23.655.408,1.166.512,1.464.067.2.257.256.521.16l.107-.035c.392-.139.985-.35,1.728-.618l.107-.035c.268-.1.377-.255.308-.454-.1-.3-.282-.81-.509-1.469A7.865,7.865,0,0,0,31.07,48.5c.633.3,1.12.527,1.409.667.189.088.356-.008.477-.267L33,48.8c.178-.376.443-.958.775-1.676l.051-.107c.121-.264.083-.449-.108-.542-.289-.136-.785-.375-1.425-.679a8.149,8.149,0,0,0,.15-3.071l1.445-.512c.2-.07.249-.258.156-.527l-.036-.109c-.139-.4-.343-.991-.6-1.747l-.039-.109c-.094-.268-.253-.378-.447-.314m-2.741,4.128v.024a5.64,5.64,0,0,1-2.048,4.694l-.008,0-.3.222a5.689,5.689,0,0,1-1.322.691,5.413,5.413,0,0,1-1.456.3l-.408.015h-.023a5.506,5.506,0,0,1-3.8-1.591l-.015-.019-.319-.339-.047-.06-.268-.346-.018-.026h0a5.451,5.451,0,0,1-.982-2.828v-.02a5.607,5.607,0,0,1,2.339-4.92,5.711,5.711,0,0,1,1.33-.7,5.469,5.469,0,0,1,6.073,1.707l.079.1.183.241.024.04h0a5.461,5.461,0,0,1,.679,1.33,5.59,5.59,0,0,1,.3,1.485Z" transform="translate(-1.347 -3.035)" fill="#555"/>
        <path id="Path_7111" data-name="Path 7111" d="M28.55,44.491a3.287,3.287,0,1,0-3.285,3.33,3.3,3.3,0,0,0,3.285-3.33" transform="translate(-1.941 -3.637)" fill="#555"/>
        <path id="Path_7112" data-name="Path 7112" d="M28.515,44.494a3.248,3.248,0,1,0-3.246,3.29,3.264,3.264,0,0,0,3.246-3.29" transform="translate(-1.945 -3.641)" fill="#555"/>
        <path id="Path_7113" data-name="Path 7113" d="M24.709,45.845h0a4.485,4.485,0,0,1-2.6-.893c-3.646-2.577-.475-7.665,2.073-11.751.372-.6.737-1.188,1.078-1.755C27.868,27.066,39.225,4.7,39.341,4.479l.033-.054A6.89,6.89,0,0,1,45.19,1.574a10.1,10.1,0,0,1,9.443,7.189,6.9,6.9,0,0,1-.86,5.84L32.207,40.1c-.179.215-.363.436-.553.667-1.873,2.265-4.207,5.08-6.945,5.08M40.137,4.927c-.465.921-11.513,22.662-14.1,27-.342.573-.708,1.165-1.087,1.767-2.461,3.949-5.252,8.433-2.32,10.505a3.556,3.556,0,0,0,2.078.725c2.313,0,4.5-2.633,6.25-4.751.191-.232.377-.455.561-.67L53.054,14.039a5.992,5.992,0,0,0,.7-5.032A9.206,9.206,0,0,0,45.19,2.5a6.013,6.013,0,0,0-5.053,2.431" transform="translate(-1.807 -0.139)" fill="#555"/>
      </g>
    </g>
  </g>
</svg>
