<svg xmlns="http://www.w3.org/2000/svg" xmlns:xlink="http://www.w3.org/1999/xlink" width="54" height="60" viewBox="0 0 54 60">
  <defs>
    <clipPath id="clip-path">
      <rect id="Rectangle_9565" data-name="Rectangle 9565" width="54" height="60" transform="translate(-3091 1618)" fill="#fff" stroke="#707070" stroke-width="1"/>
    </clipPath>
  </defs>
  <g id="Mask_Group_2" data-name="Mask Group 2" transform="translate(3091 -1618)" clip-path="url(#clip-path)">
    <g id="Group_157791" data-name="Group 157791" transform="translate(-10884 -1635)">
      <path id="Path_7069" data-name="Path 7069" d="M44.187,23.987a2.986,2.986,0,0,0,1.481.41,3.714,3.714,0,0,0,3.4-3.969,3.717,3.717,0,0,0-3.4-3.979,3.6,3.6,0,0,0-3.338,3.311,6.089,6.089,0,0,1,1.857,4.227M8.061,24.4a2.973,2.973,0,0,0,1.4-.359L10.5,19.726a5.83,5.83,0,0,1,.477-1.3A3.344,3.344,0,0,0,8.061,16.45a3.721,3.721,0,0,0-3.4,3.979,3.717,3.717,0,0,0,3.4,3.969M53.621,34.943l-.066-.565-1.647-6.859a2.042,2.042,0,0,0-1.507-1.6l-2.358-.492-3.94,0a5.342,5.342,0,0,1-4.073,4.484V43.489a2.2,2.2,0,0,0,1.415-2.11l.083-6.068.548-2.277a3.816,3.816,0,0,1,.528,2.015L42.5,41.4A3.553,3.553,0,0,1,40.8,44.48V58.792a1.936,1.936,0,1,0,3.823,0l-.006-13.453a1.063,1.063,0,1,1,2.106-.013l-.007,13.466a1.937,1.937,0,1,0,3.827,0l.006-14.312A3.528,3.528,0,0,1,48.84,41.4l-.1-6.355a3.852,3.852,0,0,1,.521-2.015L49.8,35.31l.107,6.068a2.051,2.051,0,0,0,1.938,2.2A2.108,2.108,0,0,0,53.72,41.3ZM9.429,42.4A6.335,6.335,0,0,1,8.061,38.3l.125-8.247a7.536,7.536,0,0,1,.177-1.437l.774-3.192H5.687l-2.373.492a2.072,2.072,0,0,0-1.5,1.6L.173,34.378l-.066.565L0,41.3A2.117,2.117,0,0,0,1.874,43.58a2.045,2.045,0,0,0,1.945-2.2l.1-6.068.545-2.277a3.812,3.812,0,0,1,.519,2.015l-.1,6.355A3.541,3.541,0,0,1,3.182,44.48V58.792A2.094,2.094,0,0,0,5.1,61.03a2.1,2.1,0,0,0,1.915-2.239L7,45.326a1.157,1.157,0,0,1,1.059-1.2,1.158,1.158,0,0,1,1.051,1.216l0,13.453a2.093,2.093,0,0,0,1.907,2.239,1.713,1.713,0,0,0,1.168-.474l-.005-16.474A4.679,4.679,0,0,1,9.429,42.4" transform="translate(7792.726 3249.052)" fill="#555"/>
      <path id="Path_7070" data-name="Path 7070" d="M21.518,25.808,22.8,24l-.625-4.8.479-1.017-.378-.331-.781.067-.765-.067-.392.331.486,1.017L20.2,24Zm-.02-8.946a4.746,4.746,0,0,0,4.936-4.521A4.746,4.746,0,0,0,21.5,7.823a4.741,4.741,0,0,0-4.928,4.518A4.74,4.74,0,0,0,21.5,16.862m21.393,4.407v4.845a2.613,2.613,0,0,0,1.972-2.373,2.576,2.576,0,0,0-1.972-2.472M28.38,18.581l-3.424-.562L23.9,23.891l-2.4,3.137-2.4-3.137-1.043-5.87-3.43.561A2.69,2.69,0,0,0,12.441,20.4l-2.382,7.787-.109.639-.145,7.22a2.656,2.656,0,0,0,2.722,2.591h.053a2.685,2.685,0,0,0,2.786-2.495l.133-6.89.792-2.591a3.722,3.722,0,0,1,.754,2.29L16.9,36.169A3.923,3.923,0,0,1,14.42,39.66V55.917A2.671,2.671,0,0,0,17.2,58.463a2.67,2.67,0,0,0,2.778-2.546v-15.3A1.469,1.469,0,0,1,21.5,39.261a1.489,1.489,0,0,1,1.541,1.374l-.022,15.282a2.788,2.788,0,0,0,5.555,0v-23L29.3,24.4l3.829,1.5.512.146V20.567l-4.66-1.819Z" transform="translate(7791.646 3254.537)" fill="#555"/>
      <path id="Path_7071" data-name="Path 7071" d="M51.822,4.841,42.165.489a2.468,2.468,0,0,0-3.544,2.075v8.71a2.462,2.462,0,0,0,3.544,2.075L51.822,9a2.243,2.243,0,0,0,0-4.157M33.912,0a1.861,1.861,0,0,0-1.924,1.793V58.207a1.926,1.926,0,0,0,3.843,0V1.793A1.86,1.86,0,0,0,33.912,0" transform="translate(7792.581 3253)" fill="#555"/>
    </g>
  </g>
</svg>
