<svg xmlns="http://www.w3.org/2000/svg" xmlns:xlink="http://www.w3.org/1999/xlink" width="40" height="70" viewBox="0 0 40 70">
  <defs>
    <clipPath id="clip-path">
      <rect id="Rectangle_9563" data-name="Rectangle 9563" width="40" height="70" transform="translate(-3207 1493)" fill="#fff" opacity="0.11"/>
    </clipPath>
  </defs>
  <g id="Mask_Group_1" data-name="Mask Group 1" transform="translate(3207 -1493)" clip-path="url(#clip-path)">
    <rect id="Rectangle_7608" data-name="Rectangle 7608" width="273.2" height="70" transform="translate(-3475 1493)" fill="#ffd98c"/>
    <g id="gear-svgrepo-com" transform="translate(-3236.802 1493)">
      <path id="Path_13198" data-name="Path 13198" d="M67.812,40.193A2.373,2.373,0,0,0,70,37.828V32.171A2.375,2.375,0,0,0,67.812,29.8l-7.5-.585a1.26,1.26,0,0,1-1.07-.778l-2.465-5.949a1.254,1.254,0,0,1,.205-1.305l4.888-5.717a2.372,2.372,0,0,0-.126-3.219l-4-4a2.372,2.372,0,0,0-3.219-.126l-5.717,4.888a1.264,1.264,0,0,1-1.305.207l-5.951-2.467a1.272,1.272,0,0,1-.78-1.07l-.583-7.494A2.372,2.372,0,0,0,37.828,0H32.172a2.372,2.372,0,0,0-2.365,2.19l-.585,7.494a1.263,1.263,0,0,1-.778,1.07l-5.951,2.467a1.268,1.268,0,0,1-1.307-.207L15.47,8.126a2.372,2.372,0,0,0-3.219.126l-4,4a2.374,2.374,0,0,0-.126,3.219l4.888,5.717a1.263,1.263,0,0,1,.205,1.305l-2.465,5.949a1.257,1.257,0,0,1-1.068.778l-7.5.585A2.375,2.375,0,0,0,0,32.172v5.655a2.374,2.374,0,0,0,2.187,2.367l7.5.583a1.266,1.266,0,0,1,1.068.78l2.465,5.949a1.266,1.266,0,0,1-.205,1.307L8.126,54.529a2.374,2.374,0,0,0,.126,3.219l4,4a2.372,2.372,0,0,0,3.219.124l5.714-4.888a1.267,1.267,0,0,1,1.307-.205l5.951,2.465a1.266,1.266,0,0,1,.778,1.072l.585,7.494A2.373,2.373,0,0,0,32.172,70h5.657a2.373,2.373,0,0,0,2.365-2.19l.583-7.494a1.272,1.272,0,0,1,.78-1.072l5.951-2.465a1.263,1.263,0,0,1,1.305.205l5.717,4.888a2.372,2.372,0,0,0,3.219-.124l4-4a2.372,2.372,0,0,0,.126-3.219l-4.888-5.717a1.266,1.266,0,0,1-.205-1.307l2.465-5.949a1.269,1.269,0,0,1,1.07-.78ZM35,46.828a11.826,11.826,0,1,1,8.365-3.463A11.761,11.761,0,0,1,35,46.828Z" fill="#ffd98c"/>
    </g>
  </g>
</svg>
