<svg xmlns="http://www.w3.org/2000/svg" xmlns:xlink="http://www.w3.org/1999/xlink" width="45" height="56" viewBox="0 0 45 56">
  <defs>
    <clipPath id="clip-path">
      <rect id="Rectangle_14220" data-name="Rectangle 14220" width="45" height="56" transform="translate(0.001 0)" fill="#fff"/>
    </clipPath>
  </defs>
  <g id="Group_158327" data-name="Group 158327" transform="translate(0.198 -0.185)">
    <g id="Group_158326" data-name="Group 158326" transform="translate(-0.199 0.185)" clip-path="url(#clip-path)">
      <path id="Path_63096" data-name="Path 63096" d="M77.982,189.468h2.9v-.008a33.235,33.235,0,0,0-4.047-15.869,6.784,6.784,0,0,0-4.343-3.336l-.544-.132a10.274,10.274,0,0,1-3.852-.806,8.676,8.676,0,0,1-7.312,0,10.274,10.274,0,0,1-3.852.806l-.544.133a6.783,6.783,0,0,0-4.343,3.336A33.235,33.235,0,0,0,48,189.461v.007h2.9a2.887,2.887,0,0,1,.97.167,18.69,18.69,0,0,1,4.078-11.41l1.722-2.153V191.4h13.54v-6.37l-2.9,2.9-7.219-7.219a5.071,5.071,0,0,1,7.171-7.171l.048.049.048-.049a5.071,5.071,0,0,1,7.171,7.171l-.595.595a18.659,18.659,0,0,1,2.076,8.326,2.889,2.889,0,0,1,.971-.168" transform="translate(-42.094 -148.943)" fill="#fff"/>
      <path id="Path_63097" data-name="Path 63097" d="M234.363,68.836a8.684,8.684,0,0,1-2.976,6.545A8.251,8.251,0,0,0,240.8,70.8l2.838-6.148-1.112-.278a12.624,12.624,0,0,0-8.732.968,10.922,10.922,0,0,1,.573,3.491" transform="translate(-203.31 -56.358)" fill="#fff"/>
      <path id="Path_63098" data-name="Path 63098" d="M288.967,352a.967.967,0,0,0,0,1.934h3.869a.967.967,0,0,0,0-1.934Z" transform="translate(-253.079 -309.54)" fill="#fff"/>
      <path id="Path_63099" data-name="Path 63099" d="M182.119,248.224h-3.837l-1.4,2.8-2.9-3.869-.535,1.069h-2.131l5.4,5.4Z" transform="translate(-150.5 -217.371)" fill="#fff"/>
      <path id="Path_63100" data-name="Path 63100" d="M166.605,212.938l.535-1.069h6.315A3.138,3.138,0,0,0,170.4,208a3.115,3.115,0,0,0-2.218.919l-1.416,1.416-1.416-1.416A3.136,3.136,0,0,0,160,211.136a3.162,3.162,0,0,0,.086.733H162.3l1.4-2.8Z" transform="translate(-140.554 -182.949)" fill="#fff"/>
      <path id="Path_63101" data-name="Path 63101" d="M234.483,22.885a14.581,14.581,0,0,1,4.906-1.424,17.293,17.293,0,0,0-1.168-3.744,16.44,16.44,0,0,0-5.159,2.89l1.064,1.672c.126.2.245.4.357.606" transform="translate(-204.783 -15.671)" fill="#fff"/>
      <path id="Path_63102" data-name="Path 63102" d="M134.77,19.343a6.778,6.778,0,0,0,6.77-6.77,8.983,8.983,0,0,0-1.407-4.83L135.441.368a.795.795,0,0,0-1.341,0l-4.693,7.375A8.983,8.983,0,0,0,128,12.573a6.778,6.778,0,0,0,6.77,6.77" transform="translate(-112.422 -0.096)" fill="#fff"/>
      <rect id="Rectangle_14219" data-name="Rectangle 14219" width="3" height="6" transform="translate(20.001 50)" fill="#fff"/>
      <path id="Path_63103" data-name="Path 63103" d="M40.7,369.741h0a2.885,2.885,0,0,1-1.04.194H35.785A2.906,2.906,0,0,1,33.05,368H11.44A2.906,2.906,0,0,1,8.7,369.934H4.836a2.886,2.886,0,0,1-1.041-.194h0a5.007,5.007,0,0,0,1.214,9.865h12.4v-5.8H7.171a2.319,2.319,0,0,0-1.651.684l-1.368-1.368a4.241,4.241,0,0,1,3.019-1.251H37.319a4.241,4.241,0,0,1,3.019,1.25l-1.368,1.368a2.319,2.319,0,0,0-1.651-.684H28.495a3.844,3.844,0,0,1,.52,1.934v1.934a3.844,3.844,0,0,1-.52,1.934H39.483a5.007,5.007,0,0,0,1.214-9.865" transform="translate(0.103 -323.606)" fill="#fff"/>
      <path id="Path_63104" data-name="Path 63104" d="M208,416v5.8a1.937,1.937,0,0,0,1.934-1.934v-1.934A1.937,1.937,0,0,0,208,416" transform="translate(-182.751 -365.803)" fill="#fff"/>
      <path id="Path_63105" data-name="Path 63105" d="M32.967,353.934h3.869a.967.967,0,1,0,0-1.934H32.967a.967.967,0,1,0,0,1.934" transform="translate(-28.028 -309.54)" fill="#fff"/>
      <path id="Path_63106" data-name="Path 63106" d="M87.862,22.281l1.064-1.672a16.441,16.441,0,0,0-5.159-2.89A17.292,17.292,0,0,0,82.6,21.462a14.578,14.578,0,0,1,4.906,1.424c.113-.205.231-.407.357-.606" transform="translate(-72.51 -15.672)" fill="#fff"/>
      <path id="Path_63107" data-name="Path 63107" d="M45.656,75.606a8.283,8.283,0,0,0,1.9-.225,8.684,8.684,0,0,1-2.976-6.545,10.922,10.922,0,0,1,.573-3.491,12.624,12.624,0,0,0-8.732-.968l-1.112.278L38.15,70.8a8.292,8.292,0,0,0,7.506,4.8" transform="translate(-30.94 -56.358)" fill="#fff"/>
    </g>
  </g>
</svg>
