<svg xmlns="http://www.w3.org/2000/svg" width="68.626" height="77.946" viewBox="0 0 68.626 77.946">
  <g id="Group_158326" data-name="Group 158326" transform="translate(0 0)">
    <path id="Path_63096" data-name="Path 63096" d="M70.641,63.33c-.565,5.689,2.562,6.549,2.562,6.549-2.145,2.194-6.672,2.055-6.672,2.055v2.038a1.164,1.164,0,0,0,.524.974l.131.074A33.416,33.416,0,0,0,72.1,76.747a17.192,17.192,0,0,1,3.094,1.171,3.726,3.726,0,0,1,2.112,3v6.41H47.835v-6.41a3.726,3.726,0,0,1,2.112-3,17.193,17.193,0,0,1,3.094-1.171,33.417,33.417,0,0,0,4.912-1.727l.106-.057a1.164,1.164,0,0,0,.524-.974V72.007c-5.223.049-6.762-2.194-6.762-2.194s2.988-.049,2.8-7.924,3.446-9.185,4.805-9.7c3.946-1.5,5.927.884,5.927.884,4.592-.426,5.853,4.568,5.288,10.257" transform="translate(-8.678 -9.378)" fill="#0aafe2"/>
    <path id="Path_63097" data-name="Path 63097" d="M22.806,11.635c-.565,5.689,2.562,6.549,2.562,6.549-2.145,2.194-6.672,2.055-6.672,2.055v2.038a1.164,1.164,0,0,0,.524.974l.131.074a33.416,33.416,0,0,0,4.912,1.727,17.192,17.192,0,0,1,3.094,1.171,3.726,3.726,0,0,1,2.112,3v6.41H0v-6.41a3.726,3.726,0,0,1,2.112-3,17.192,17.192,0,0,1,3.094-1.171,33.416,33.416,0,0,0,4.912-1.727l.106-.057a1.164,1.164,0,0,0,.524-.974V20.312c-5.223.049-6.762-2.194-6.762-2.194s2.988-.049,2.8-7.924,3.446-9.185,4.805-9.7c3.946-1.5,5.927.884,5.927.884,4.592-.426,5.853,4.568,5.288,10.257" transform="translate(0 0)" fill="#0aafe2"/>
    <path id="Path_63098" data-name="Path 63098" d="M62.153,38.377v-6.27a13.826,13.826,0,0,0-13.81-13.777H41.606l3.176-3.176-2.914-2.914-5.239,5.239-2.914,2.914,2.914,2.914,5.239,5.239,2.914-2.914-3.176-3.184h6.745a9.7,9.7,0,0,1,9.684,9.659v6.238Z" transform="translate(-6.116 -2.22)" fill="#fbab1e"/>
    <path id="Path_63099" data-name="Path 63099" d="M41.016,66.164l-5.239-5.239-2.914,2.914,3.176,3.143H29.3a9.7,9.7,0,0,1-9.684-9.676V51.069H15.525v6.238A13.826,13.826,0,0,0,29.3,71.075h6.745l-3.176,3.176,2.914,2.914,5.239-5.239,2.914-2.914Z" transform="translate(-2.816 -9.264)" fill="#fbab1e"/>
  </g>
</svg>
