<svg xmlns="http://www.w3.org/2000/svg" width="133.506" height="77.946" viewBox="0 0 133.506 77.946">
  <g id="Group_158325" data-name="Group 158325" transform="translate(0)">
    <path id="Path_63095" data-name="Path 63095" d="M133.505,61.025A26.365,26.365,0,0,0,90.981,41.3a34.969,34.969,0,0,1,10.8,23.7,9.751,9.751,0,0,1-1.409,5.483,55.717,55.717,0,0,0,30.24-4.794,4.871,4.871,0,0,0,2.818-4.718ZM66.756,0A15.146,15.146,0,1,1,51.609,15.148,15.15,15.15,0,0,1,66.756,0ZM97.883,65.253a5.749,5.749,0,0,1-3.368,5.636,65.781,65.781,0,0,1-55.515,0,5.75,5.75,0,0,1-3.369-5.636,31.155,31.155,0,0,1,62.253,0Zm9.242-59.181A12.837,12.837,0,1,1,94.289,18.907,12.834,12.834,0,0,1,107.125,6.072m-80.741,0h.006A12.837,12.837,0,1,1,13.548,18.907,12.83,12.83,0,0,1,26.389,6.072Zm16.149,35.37A26.365,26.365,0,0,0,.009,61.027a4.881,4.881,0,0,0,2.818,4.722,55.714,55.714,0,0,0,30.24,4.789,9.742,9.742,0,0,1-1.409-5.483A34.945,34.945,0,0,1,42.534,41.37Z" transform="translate(0 0.914)" fill="#0aafe2" fill-rule="evenodd"/>
    <circle id="Ellipse_158" data-name="Ellipse 158" cx="13.399" cy="13.399" r="13.399" transform="translate(13.292 5.955)" fill="#fbab1e"/>
    <circle id="Ellipse_159" data-name="Ellipse 159" cx="13.399" cy="13.399" r="13.399" transform="translate(93.687 5.955)" fill="#fbab1e"/>
    <circle id="Ellipse_160" data-name="Ellipse 160" cx="15.881" cy="15.881" r="15.881" transform="translate(51.008)" fill="#fbab1e"/>
  </g>
</svg>
