<svg xmlns="http://www.w3.org/2000/svg" xmlns:xlink="http://www.w3.org/1999/xlink" width="95.655" height="78.527" viewBox="0 0 95.655 78.527">
  <defs>
    <clipPath id="clip-path">
      <rect id="Rectangle_14217" data-name="Rectangle 14217" width="95.655" height="78.527" transform="translate(0 0)" fill="none"/>
    </clipPath>
  </defs>
  <g id="Group_158329" data-name="Group 158329" transform="translate(0 0)">
    <g id="Group_158328" data-name="Group 158328" clip-path="url(#clip-path)">
      <path id="Path_63104" data-name="Path 63104" d="M42.981,1.454a4.964,4.964,0,1,0-3.515,8.478h.01a4.967,4.967,0,0,0,3.5-8.478" fill="#fbab1e" fill-rule="evenodd"/>
      <path id="Path_63105" data-name="Path 63105" d="M85.33,1.454a4.966,4.966,0,1,0-3.52,8.478h.014A4.967,4.967,0,0,0,85.33,1.454" fill="#fbab1e" fill-rule="evenodd"/>
      <path id="Path_63106" data-name="Path 63106" d="M60.63,13.437h.018a6.673,6.673,0,1,0-.018,0" fill="#fbab1e" fill-rule="evenodd"/>
      <path id="Path_63107" data-name="Path 63107" d="M75.311,19.514a20.77,20.77,0,0,1,5.511,9.836,28.358,28.358,0,0,0,14.8-3.567,13.84,13.84,0,0,0-13.8-13.031H81.81a13.791,13.791,0,0,0-9.8,4.078,20.446,20.446,0,0,1,3.305,2.685Z" fill="#fbab1e" fill-rule="evenodd"/>
      <path id="Path_63108" data-name="Path 63108" d="M78.548,33.39a36.437,36.437,0,0,1-35.812,0,17.922,17.922,0,0,1,17.9-17.132h.018a17.922,17.922,0,0,1,17.9,17.132Z" fill="#fbab1e" fill-rule="evenodd"/>
      <path id="Path_63109" data-name="Path 63109" d="M49.279,16.834a13.754,13.754,0,0,0-9.8-4.073h-.01A13.828,13.828,0,0,0,25.661,25.793a28.358,28.358,0,0,0,14.8,3.567,20.791,20.791,0,0,1,8.818-12.526" fill="#fbab1e" fill-rule="evenodd"/>
      <path id="Path_63110" data-name="Path 63110" d="M11.79,41.886,0,45.227,8.116,74.309l11.791-3.341L11.785,41.886ZM48.047,64.642l7.92,4.438.055.029a7.476,7.476,0,0,0,10.094-2.864c.018-.037.037-.071.056-.108a7.488,7.488,0,0,0,.885-4.076l21.819-8.436.239-.079a5.144,5.144,0,0,1,3.7.187A4.652,4.652,0,0,1,95.3,56.3c.01.024.032.1.076.216A5.274,5.274,0,0,1,95.2,60.35a5.65,5.65,0,0,1-2.83,2.788L60.1,78.025a4.98,4.98,0,0,1-4.228.061L30.292,67.149a7.781,7.781,0,0,0-5.318-.347l-3.06.861-6.561-23.5q9-4.695,15.915-3.978,7.094.73,12.17,7.272a8.037,8.037,0,0,0,1.111,1.177,8.156,8.156,0,0,0,1.33.919l15.984,8.885.071.042a4.607,4.607,0,0,1,2.161,2.8,1.277,1.277,0,0,1,.032.136.762.762,0,0,0,.024.094,4.772,4.772,0,0,1-.437,3.271.329.329,0,0,0-.037.066v.008A4.646,4.646,0,0,1,57.4,66.641c-2.6-1.533-5.323-2.986-7.962-4.466A1.41,1.41,0,0,0,48,64.6l.06.033ZM91.2,50.485a5.616,5.616,0,0,0,1.664-3.13,5.252,5.252,0,0,0-.821-3.749c-.056-.085-.1-.155-.136-.2a4.667,4.667,0,0,0-3.06-1.823,5.129,5.129,0,0,0-3.6.769c-.089.061-.164.113-.221.155l-20.1,14.768a7.489,7.489,0,0,1,1.416,2.038l21.51-8.318c.169-.065.29-.113.371-.136a7.87,7.87,0,0,1,2.966-.375Z" fill="#0aafe2" fill-rule="evenodd"/>
    </g>
  </g>
</svg>
