<svg xmlns="http://www.w3.org/2000/svg" xmlns:xlink="http://www.w3.org/1999/xlink" width="50.801" height="55.508" viewBox="0 0 50.801 55.508">
  <defs>
    <clipPath id="clip-path">
      <rect id="Rectangle_14218" data-name="Rectangle 14218" width="50.801" height="55.508" fill="#fff"/>
    </clipPath>
  </defs>
  <g id="Group_158325" data-name="Group 158325" transform="translate(0 0)">
    <g id="Group_158324" data-name="Group 158324" transform="translate(0 0)" clip-path="url(#clip-path)">
      <path id="Path_63095" data-name="Path 63095" d="M7.445,35.347c-3.384-6.957-4.533-15.18-4.151-24.17a.7.7,0,0,1,.477-.678L25.183,3.428a.681.681,0,0,1,.433,0L47.028,10.5a.686.686,0,0,1,.474.628c.388,9.005-.758,17.247-4.15,24.216-3.405,7-9.06,12.7-17.668,16.584a.692.692,0,0,1-.569,0c-8.61-3.879-14.261-9.58-17.67-16.581ZM13.952,26.6l6.717,8.266a2.839,2.839,0,0,0,3.977.411l0,0a2.8,2.8,0,0,0,.5-.48l4.98-6.128,1.737-2.138L36.846,20.4a2.828,2.828,0,1,0-4.392-3.565l-4.972,6.117-.008.011L25.738,25.1,22.88,28.622l-4.538-5.587a2.828,2.828,0,1,0-4.39,3.566ZM.2,8.787c-.81,11.875.916,21.634,5.053,29.352C9.434,45.954,16.112,51.7,25.153,55.458a.637.637,0,0,0,.246.051.657.657,0,0,0,.25-.051c9.041-3.758,15.717-9.5,19.905-17.318,4.137-7.719,5.863-17.478,5.053-29.352a.771.771,0,0,0-.155-.423.743.743,0,0,0-.371-.255L25.64.041A.789.789,0,0,0,25.4,0a.774.774,0,0,0-.241.04L.724,8.112a.782.782,0,0,0-.372.255A.754.754,0,0,0,.2,8.787Zm4.465,2.88c-.317,8.6.81,16.451,4.034,23.078S17.271,46.8,25.4,50.537c8.131-3.731,13.479-9.155,16.708-15.793s4.352-14.479,4.032-23.078L25.4,4.818Z" transform="translate(0 -0.001)" fill="#fff" fill-rule="evenodd"/>
    </g>
  </g>
</svg>
