<svg id="Group_158329" data-name="Group 158329" xmlns="http://www.w3.org/2000/svg" xmlns:xlink="http://www.w3.org/1999/xlink" width="54.598" height="55.508" viewBox="0 0 54.598 55.508">
  <defs>
    <clipPath id="clip-path">
      <rect id="Rectangle_14221" data-name="Rectangle 14221" width="54.598" height="55.508" fill="#fff"/>
    </clipPath>
  </defs>
  <g id="Group_158328" data-name="Group 158328" transform="translate(0 0)" clip-path="url(#clip-path)">
    <path id="Path_63108" data-name="Path 63108" d="M54.6,28.209V31.9l-4.524,1.741a23.3,23.3,0,0,1-2.828,6.822L49.215,44.9l-5.225,5.225-4.432-1.968a23.293,23.293,0,0,1-6.824,2.829l-1.741,4.523H23.6l-1.741-4.524a23.3,23.3,0,0,1-6.822-2.828l-4.433,1.969L5.383,44.9l1.968-4.432a23.293,23.293,0,0,1-2.829-6.824L0,31.9V28.209H14.413a12.886,12.886,0,0,0,25.773,0ZM28.209,7.86a7.073,7.073,0,0,1,6.137,6.988v9.6h1.289V26.39H18.962V24.452h1.289v-9.6A7.073,7.073,0,0,1,26.389,7.86V3.675H25.117a.91.91,0,0,1,0-1.82h1.272V.91a.91.91,0,1,1,1.82,0v.945h1.272a.91.91,0,0,1,0,1.82H28.209ZM31.173,14.1h-7.3a.91.91,0,0,0,0,1.82h7.3a.91.91,0,1,0,0-1.82m0,2.853h-7.3a.91.91,0,1,0,0,1.82h7.3a.91.91,0,1,0,0-1.82m0,2.853h-7.3a.91.91,0,1,0,0,1.82h7.3a.91.91,0,1,0,0-1.82m-12.21,8.406a8.337,8.337,0,1,0,16.673,0Z" transform="translate(0 0)" fill="#fff" fill-rule="evenodd"/>
  </g>
</svg>
