<svg xmlns="http://www.w3.org/2000/svg" width="62.574" height="78.886" viewBox="0 0 62.574 78.886">
  <g id="Group_158327" data-name="Group 158327" transform="translate(0 0)">
    <path id="Path_63100" data-name="Path 63100" d="M64.169,46.082a17.756,17.756,0,0,0-3.1-5.193H34.156a17.66,17.66,0,0,0-4.244,11.5,17.708,17.708,0,1,0,34.257-6.306m-8.91,3.161L46.288,57.7a1.5,1.5,0,0,1-2.122-.06l-4.244-4.485a1.5,1.5,0,1,1,2.167-2.077l3.236,3.4L53.2,47.06a1.5,1.5,0,0,1,2.062,2.182" transform="translate(-16.33 -3.034)" fill="#0aafe2" fill-rule="evenodd"/>
    <path id="Path_63101" data-name="Path 63101" d="M35.993,40.888a19.368,19.368,0,1,0,33.7,4.6,19.463,19.463,0,0,0-2.517-4.6h8.161a26.282,26.282,0,0,1,2.015,5.826l2.124.336a2.563,2.563,0,0,1,1.281.617,29.661,29.661,0,0,1,0,9.419,2.563,2.563,0,0,1-1.281.617l-2.124.336a26.247,26.247,0,0,1-3.539,8.548l1.264,1.74a2.582,2.582,0,0,1,.47,1.341,29.627,29.627,0,0,1-6.668,6.668,2.477,2.477,0,0,1-1.34-.471L65.8,74.6a26.189,26.189,0,0,1-8.549,3.54l-.336,2.122a2.562,2.562,0,0,1-.617,1.282,29.66,29.66,0,0,1-9.419,0,2.562,2.562,0,0,1-.617-1.282l-.336-2.122a26.25,26.25,0,0,1-8.548-3.54l-1.74,1.264a2.583,2.583,0,0,1-1.341.471,29.689,29.689,0,0,1-6.668-6.668,2.482,2.482,0,0,1,.471-1.341l1.264-1.74a26.2,26.2,0,0,1-3.54-8.548L23.706,57.7a2.562,2.562,0,0,1-1.282-.617,29.66,29.66,0,0,1,0-9.419,2.562,2.562,0,0,1,1.282-.617l2.122-.336a26.286,26.286,0,0,1,2.017-5.826Z" transform="translate(-20.302 -3.034)" fill="#0aafe2" fill-rule="evenodd"/>
    <path id="Path_63102" data-name="Path 63102" d="M81.186,36.761a2.289,2.289,0,0,1,2.276,2.276v2.27L20.888,41.3v-2.27a2.287,2.287,0,0,1,2.274-2.276Z" transform="translate(-20.888 -5.122)" fill="#fbab1e" fill-rule="evenodd"/>
    <path id="Path_63103" data-name="Path 63103" d="M45.086,18.944A28.253,28.253,0,0,0,22.914,45.7H79.38A28.257,28.257,0,0,0,57.2,18.942l-.853,10.3a.834.834,0,1,1-1.663-.135l.981-11.875a1.307,1.307,0,0,0-.065-.552,1.373,1.373,0,0,0-.306-.5,1.318,1.318,0,0,0-.464-.334,1.415,1.415,0,0,0-.558-.107H48.013a1.417,1.417,0,0,0-1.328.936,1.3,1.3,0,0,0-.065.552L47.6,29.1a.835.835,0,0,1-1.665.135Z" transform="translate(-19.864 -15.738)" fill="#fbab1e" fill-rule="evenodd"/>
  </g>
</svg>
