<svg xmlns="http://www.w3.org/2000/svg" width="151.83" height="99.44" viewBox="0 0 151.83 99.44">
  <g id="pdf-logo-golden" transform="translate(-1.03 -0.57)">
    <path id="Path_62248" data-name="Path 62248" d="M75.97,8.66a33.121,33.121,0,0,0-2.43,7.56l-2.1,10.1c-6.1-1.04-11.06-4.53-11.06-10.3,0-4.83,3.71-8.58,9.63-8.58a14.457,14.457,0,0,1,5.96,1.23h0ZM58.44,34.59A32.53,32.53,0,0,1,68.6,36.45a11.717,11.717,0,0,1-3.55,4.84,7.407,7.407,0,0,1-1.27.77q-1.62-.15-3.33-.15c-2.14,0-3.15.1-3.15.1h0l-1.52,4.24a27.009,27.009,0,0,1,10.21-2.21,34.161,34.161,0,0,1,10.93,2.02c-4.95,3.44-10.44,6.31-17.08,6.31-8.38,0-12.01-4.16-12.01-8.87a8.2,8.2,0,0,1,3.36-6.75,12.086,12.086,0,0,1,7.25-2.16h0ZM95.53,9.18c0,9.17-6.43,14.69-13.89,16.65a25.589,25.589,0,0,1-3.97.7V26.5l2.14-10.29c.31-1.5.64-2.84.97-4.05a14.3,14.3,0,0,1,2.14,3.16,14.511,14.511,0,0,1,.82,1.96h0l.12-.31.29-.81a14.924,14.924,0,0,0-2.67-4.42c-.14-.16-.29-.32-.44-.48,2.42-8.01,5.46-9.6,8.54-9.6a5.422,5.422,0,0,1,3.75,1.5,8.017,8.017,0,0,1,2.2,6.02Zm10.86,31.21c-1.11-3.2-4.2-5.73-9.08-5.73-4.48,0-8.64,2.65-13.01,5.91a87.455,87.455,0,0,1-11.93-3.65,17.774,17.774,0,0,0,1.49-1.69,20.4,20.4,0,0,0,3.62-7.86c8.51-.69,16.92-5.6,18.57-14.82a19,19,0,0,0,.3-3.36c0-.41-.03-.81-.06-1.2-.03-.37-.08-.72-.14-1.06a9.132,9.132,0,0,0-.26-1.09c-.02-.05-.03-.12-.05-.17-1-3.11-3.46-4.91-7.06-4.91-7.55,0-10.7,10.8-11.66,15.47L74.99,26.52c-.12.58-.24,1.13-.36,1.66-1.14,4.91-2.48,8.03-4.45,10.46-.1.11-.19.23-.29.35l.1.03c.58-.44,1.18-.94,1.77-1.48A103.5,103.5,0,0,0,83.5,41.19c-1.82,1.38-3.69,2.83-5.63,4.22A69.525,69.525,0,0,0,64.9,42.18a12.811,12.811,0,0,0,4.29-3.33c2.17-2.58,3.68-6.4,4.92-12.34l2.14-10.29C78.51,5.3,82.55,1.82,85.67.62h0L85.59.57c-3.48.69-6.77,2.71-9.22,7.34-.24-.11-.49-.21-.73-.3a.212.212,0,0,1-.07-.03l-.18-.06a15.858,15.858,0,0,0-5.36-.9,13.434,13.434,0,0,0-2.83.29,9.121,9.121,0,0,0-7.61,9.11c0,6.27,5.25,9.99,11.71,11.09a52.7,52.7,0,0,1-2.38,8.63,33.186,33.186,0,0,0-10.45-1.97,13.124,13.124,0,0,0-7.39,2.06,8.985,8.985,0,0,0-4.04,7.67c0,5.16,3.89,9.68,12.83,9.68,7.12,0,12.9-3.15,18.06-6.79,5.58,1.92,10.97,4.31,17.76,4.31,5.92,0,9.07-3.07,9.73-6.3h0l-.08-.02c-1.04,2.08-4.45,4.34-10.36,4.34s-11.15-1.44-16.11-3c1.98-1.44,3.87-2.93,5.7-4.31a50.858,50.858,0,0,0,8.73,1.03l.3-.79h0a50.546,50.546,0,0,1-8.19-.87c4.03-2.97,7.86-5.31,11.93-5.31,4.34,0,7.09,2.2,8.19,4.98a7.886,7.886,0,0,1,.55,2.92c0,5.05-4.19,8.17-10.29,8.17-7.22,0-12.24-2.61-15.67-3.63l-.02.08h0c4.22,1.91,10.67,5.46,16.71,5.46,6.65,0,10.08-4.39,10.08-10.26a8.631,8.631,0,0,0-.47-2.81h0Z" fill="#a9875c" fill-rule="evenodd"/>
    <path id="Path_62249" data-name="Path 62249" d="M16.82,70.42l-.73-3.73H1.77l-.74,3.73.23.11,1.25-1.59c.99-1.24,1.38-1.57,2.45-1.57H7.14V79.16l-2.2.38v.37h8.13v-.37l-2.2-.38V67.37H12.9c1.07,0,1.43.33,2.43,1.57l1.26,1.57.23-.09h0Zm16.09,2.27h-7.5V67.41l2.06-.36v-.37H19.64v.37l2.05.36V79.16l-2.05.38v.37h7.83v-.37l-2.06-.38V73.38h7.5v5.78l-2.05.38v.37h7.82v-.37l-2.05-.38V67.41l2.05-.36v-.37H30.86v.37l2.05.36v5.28Zm22.35-6.01H42.63v.37l2.05.36V79.16l-2.05.38v.37H56.16l.57-4.06-.21-.07L54.7,78.11a2.1,2.1,0,0,1-2.09,1.09H48.4V73.52h.56c2.28,0,3.25,2.64,3.25,2.64h.09s-.32-2.45-1.22-2.95c.88-.4,1.22-2.89,1.22-2.89h-.09s-1.03,2.62-3.25,2.62H48.4V67.37h3.14a2.615,2.615,0,0,1,2.43,1.23l1.6,1.78.17-.16-.5-3.54h0Zm27.98,9.17-.19-.07-1.8,2.33a2.1,2.1,0,0,1-2.09,1.09H75.22V67.41l2.05-.36v-.37H69.42v.37l2.07.36V79.16l-2.07.38v.37H82.7l.54-4.06Zm15.38-9.17H85.99v.37l2.05.36V79.16l-2.05.38v.37H99.52l.58-4.06-.21-.07-1.82,2.33a2.1,2.1,0,0,1-2.09,1.09H91.77V73.52h.56c2.28,0,3.25,2.64,3.25,2.64h.09s-.32-2.45-1.22-2.95c.88-.4,1.22-2.89,1.22-2.89h-.09s-1.03,2.62-3.25,2.62h-.56V67.37h3.14a2.615,2.615,0,0,1,2.43,1.23l1.6,1.78.17-.16-.5-3.54h0Zm18.01,0H104v.37l2.05.36V79.16l-2.05.38v.37h13.53l.58-4.06-.21-.07-1.82,2.33A2.091,2.091,0,0,1,114,79.2h-4.21V73.52h.56c2.28,0,3.25,2.64,3.25,2.64h.1s-.33-2.45-1.22-2.95c.88-.4,1.22-2.89,1.22-2.89h-.1s-1.03,2.62-3.25,2.62h-.56V67.37h3.14a2.625,2.625,0,0,1,2.43,1.23l1.61,1.78.17-.16-.49-3.54h0Zm19.17,9.17-.19-.07-1.8,2.33a2.1,2.1,0,0,1-2.09,1.09h-3.94V67.41l2.05-.36v-.37h-7.84v.37l2.06.36V79.16l-2.06.38v.37h13.28l.53-4.06Zm15.29,3.21-5.03-12.49h-2.75l-4.99,12.4-1.55.57v.37h3.94v-.37l-1.57-.49,1.57-4h4.76l1.59,4.12-2.12.38v.37h7.92v-.37l-1.76-.48h0Zm-5.91-4.71h-4.21l2.09-5.34h.04l2.09,5.34h0Z" fill="#a9875c" fill-rule="evenodd"/>
    <g id="Group_158205" data-name="Group 158205">
      <path id="Path_62250" data-name="Path 62250" d="M28.53,93.07h-.92V99.9h3.57v-.85H28.53Z" fill="#a9875c"/>
      <path id="Path_62251" data-name="Path 62251" d="M36.53,97.56c0,1.14-.52,1.58-1.38,1.58-.93,0-1.46-.55-1.46-1.69V93.08h-.92v4.54a2.115,2.115,0,0,0,2.26,2.39,2.23,2.23,0,0,0,2.43-2.56V93.09h-.93v4.49Z" fill="#a9875c"/>
      <path id="Path_62252" data-name="Path 62252" d="M44.4,93.07H43.34l-1.38,2.52h-.05l-1.4-2.52H39.38l1.99,3.34-2.1,3.49h1.06l1.51-2.69h.04l1.55,2.69h1.1l-2.1-3.51Z" fill="#a9875c"/>
      <path id="Path_62253" data-name="Path 62253" d="M50.11,97.56c0,1.14-.52,1.58-1.38,1.58-.93,0-1.46-.55-1.46-1.69V93.08h-.92v4.54a2.115,2.115,0,0,0,2.26,2.39,2.23,2.23,0,0,0,2.43-2.56V93.09h-.93v4.49Z" fill="#a9875c"/>
      <path id="Path_62254" data-name="Path 62254" d="M56.05,96.93v-.04a1.719,1.719,0,0,0,1.43-1.87c0-1.38-.81-1.95-2.17-1.95H53.55V99.9h.92V97.15h.38a.9.9,0,0,1,.88.56l1.14,2.19h1.11l-1.13-2.06a1.876,1.876,0,0,0-.8-.92Zm-.83-.59h-.75V93.92h.71c.87,0,1.35.33,1.35,1.19s-.47,1.23-1.32,1.23Z" fill="#a9875c"/>
      <path id="Path_62255" data-name="Path 62255" d="M61.44,96.51H61.4l-1.56-3.44H58.79l2.15,4.45V99.9h.92V97.52l2.16-4.45H63.01Z" fill="#a9875c"/>
      <path id="Path_62256" data-name="Path 62256" d="M71.72,96.93v-.04a1.719,1.719,0,0,0,1.43-1.87c0-1.38-.81-1.95-2.17-1.95H69.22V99.9h.92V97.15h.38a.9.9,0,0,1,.88.56l1.14,2.19h1.11l-1.13-2.06a1.876,1.876,0,0,0-.8-.92Zm-.84-.59h-.74V93.92h.71c.87,0,1.35.33,1.35,1.19s-.47,1.23-1.32,1.23Z" fill="#a9875c"/>
      <path id="Path_62257" data-name="Path 62257" d="M76.47,96.86h2.28v-.84H76.47v-2.1h2.61v-.85H75.55V99.9H79.2v-.85H76.47Z" fill="#a9875c"/>
      <path id="Path_62258" data-name="Path 62258" d="M82.08,94.8a.955.955,0,0,1,1.07-.95,1.727,1.727,0,0,1,1.24.52l.57-.75a2.5,2.5,0,0,0-1.75-.64,1.929,1.929,0,0,0-2.07,1.89c0,2.15,3.03,1.86,3.03,3.27,0,.56-.4.99-1.19.99a2.417,2.417,0,0,1-1.65-.69l-.54.81a3,3,0,0,0,2.09.75,1.988,1.988,0,0,0,2.23-1.92c0-2.13-3.04-1.85-3.04-3.28Z" fill="#a9875c"/>
      <rect id="Rectangle_9607" data-name="Rectangle 9607" width="0.93" height="6.83" transform="translate(87.33 93.07)" fill="#a9875c"/>
      <path id="Path_62259" data-name="Path 62259" d="M92.65,93.07H90.88V99.9h1.77c2.09,0,2.89-1.42,2.89-3.51C95.54,94.13,94.64,93.07,92.65,93.07Zm-.03,5.98H91.8V93.92h.78c1.27,0,2.01.65,2.01,2.58,0,1.76-.58,2.55-1.97,2.55Z" fill="#a9875c"/>
      <path id="Path_62260" data-name="Path 62260" d="M98.68,96.86h2.28v-.84H98.68v-2.1h2.62v-.85H97.76V99.9h3.66v-.85H98.68Z" fill="#a9875c"/>
      <path id="Path_62261" data-name="Path 62261" d="M107.55,96.56c0,.32,0,1.64.03,2.06h-.06c-.1-.29-.65-1.4-.79-1.69l-1.92-3.85h-1.22v6.83h.89V96.26c0-.52-.02-1.68-.05-1.98h.06c.12.33.63,1.41.77,1.7l1.97,3.93h1.2V93.08h-.87v3.49Z" fill="#a9875c"/>
      <path id="Path_62262" data-name="Path 62262" d="M113.28,93.84a1.631,1.631,0,0,1,1.28.51l.6-.74a2.448,2.448,0,0,0-1.8-.63c-1.77,0-2.69,1.35-2.69,3.57,0,2.08.76,3.46,2.59,3.46a2.46,2.46,0,0,0,1.85-.64l-.51-.69a1.6,1.6,0,0,1-1.22.46c-1.16,0-1.76-.94-1.76-2.65,0-1.81.62-2.63,1.67-2.63Z" fill="#a9875c"/>
      <path id="Path_62263" data-name="Path 62263" d="M118.05,96.86h2.28v-.84h-2.28v-2.1h2.61v-.85h-3.53V99.9h3.65v-.85h-2.73Z" fill="#a9875c"/>
      <path id="Path_62264" data-name="Path 62264" d="M123.65,94.8a.955.955,0,0,1,1.07-.95,1.727,1.727,0,0,1,1.24.52l.57-.75a2.5,2.5,0,0,0-1.75-.64,1.929,1.929,0,0,0-2.07,1.89c0,2.15,3.03,1.86,3.03,3.27,0,.56-.4.99-1.19.99a2.417,2.417,0,0,1-1.65-.69l-.54.81a3,3,0,0,0,2.09.75,1.988,1.988,0,0,0,2.23-1.92c0-2.13-3.04-1.85-3.04-3.28Z" fill="#a9875c"/>
    </g>
  </g>
</svg>
