<svg id="Group_159160" data-name="Group 159160" xmlns="http://www.w3.org/2000/svg" xmlns:xlink="http://www.w3.org/1999/xlink" width="91.71" height="92.603" viewBox="0 0 91.71 92.603">
  <defs>
    <clipPath id="clip-path">
      <rect id="Rectangle_14783" data-name="Rectangle 14783" width="91.71" height="92.603" fill="none"/>
    </clipPath>
  </defs>
  <g id="Group_159160-2" data-name="Group 159160" clip-path="url(#clip-path)">
    <path id="Path_79057" data-name="Path 79057" d="M92.864,93.919c22.789-2.006,36.671,23.807,22.432,41.55l-.076.484,4.358,4.379c.528.092,1.547-1.861,2.3-1.694l13.4,13.179.016.424-6.718,6.9-.516.116-13.287-13.292c-.14-.953,1.077-1.541,1.608-2.213l.014-.227a34.166,34.166,0,0,0-4.226-4.294c-.558-.239-2.086,1.246-2.714,1.633-20.078,12.377-44.57-5.244-38.771-27.944a25.8,25.8,0,0,1,22.188-19m15.754,43.456c10.176-7.192,12.152-21.692,4.54-31.61a22.4,22.4,0,0,0-31.273-4.143c-11.8,8.907-11.657,27.262.4,35.753.288-5.394-.955-11.632,1.877-16.488a12.657,12.657,0,0,1,10.651-6.227L91.4,133.026a1.142,1.142,0,0,0,.136.519c.108.266,3.342,4.3,3.593,4.473.184.126.293.361.543.107,1.161-1.82,3.02-3.317,3.834-5.314L96.091,114.66a11.8,11.8,0,0,1,7.2,2.464c3.677,2.685,5.07,6.347,5.328,10.806.18,3.093-.13,6.337,0,9.445" transform="translate(-49.599 -66.649)" fill="#fd9806"/>
    <path id="Path_79058" data-name="Path 79058" d="M199.821,78.753c-.377.083-.42-.11-.6-.351-.437-.58-.849-1.623-1.3-2.306a29.832,29.832,0,0,0-11.462-10.4l-6.8-2.55c3.474-10.627,18.281-11.612,22.895-1.235,1.466,3.3,1.067,6.425,1.094,9.949l-.109.316a8.551,8.551,0,0,0-3.715,6.581" transform="translate(-127.643 -38.811)" fill="#00a1dc"/>
    <path id="Path_79059" data-name="Path 79059" d="M58,78.76a8.625,8.625,0,0,0-1.917-4.983c-.425-.524-1.836-1.543-1.907-1.914.026-3.524-.373-6.651,1.094-9.949,4.615-10.382,19.419-9.38,22.895,1.235l-6.8,2.55A29.7,29.7,0,0,0,59.909,76.1c-.451.682-.868,1.728-1.3,2.306-.182.241-.225.434-.6.351" transform="translate(-38.472 -38.818)" fill="#00a1dc"/>
    <path id="Path_79060" data-name="Path 79060" d="M0,185.3v-6.475a19.471,19.471,0,0,1,.958-2.651,10.9,10.9,0,0,1,15.991-4.321,29.734,29.734,0,0,0,2.338,12.954L19,185.3Z" transform="translate(0 -120.731)" fill="#00a1dc"/>
    <path id="Path_79061" data-name="Path 79061" d="M269.437,185.307h-19l-.288-.492a29.945,29.945,0,0,0,2.338-12.954,10.908,10.908,0,0,1,15.991,4.321,14.309,14.309,0,0,1,.958,2.863Z" transform="translate(-177.726 -120.737)" fill="#00a1dc"/>
    <path id="Path_79062" data-name="Path 79062" d="M203.724.119c8.8-1.189,9.832,12.127,1.427,12.683-8.138.538-9.365-11.61-1.427-12.683" transform="translate(-140.937 -0.031)" fill="#00a1dc"/>
    <path id="Path_79063" data-name="Path 79063" d="M80.2.089c9-1.3,10.026,12.2,1.425,12.68C73.557,13.223,72.6,1.186,80.2.089" transform="translate(-53.287 0)" fill="#00a1dc"/>
    <path id="Path_79064" data-name="Path 79064" d="M23.034,120.336c7.57-1.182,9.08,10.243,1.843,11.181-7.6.986-8.752-10.1-1.843-11.181" transform="translate(-13.112 -85.435)" fill="#00a1dc"/>
    <path id="Path_79065" data-name="Path 79065" d="M264.636,120.41c7.578-.987,8.773,10.251,1.627,11.177-7.622.987-8.683-10.258-1.627-11.177" transform="translate(-184.654 -85.505)" fill="#00a1dc"/>
    <path id="Path_79066" data-name="Path 79066" d="M138.462,130.989c-6.245-6.1,4.039-15.472,9.478-8.1,4.354,5.9-4.021,13.424-9.478,8.1" transform="translate(-96.99 -85.388)" fill="#00a1dc"/>
  </g>
</svg>
