<svg id="Group_159159" data-name="Group 159159" xmlns="http://www.w3.org/2000/svg" xmlns:xlink="http://www.w3.org/1999/xlink" width="70.178" height="70.202" viewBox="0 0 70.178 70.202">
  <defs>
    <clipPath id="clip-path">
      <rect id="Rectangle_14782" data-name="Rectangle 14782" width="70.178" height="70.202" fill="none"/>
    </clipPath>
  </defs>
  <g id="Group_159158" data-name="Group 159158" clip-path="url(#clip-path)">
    <path id="Path_79052" data-name="Path 79052" d="M35.674,70.2c-.182-5.4.476-10.922-.585-16.239,16.215.019,25.034-19.451,13.975-31.605-9.814-10.785-27.591-6.691-32,7A8.308,8.308,0,0,0,10.681,42.6c.154.21,1.168,1.119,1,1.268l-2.761.422c-.362-.723-.308-1.819-.99-2.3L0,38.869l.066-7.6,7.573-2.929a1.341,1.341,0,0,0,.659-.511c.37-.628.771-2.422,1.116-3.273.5-1.225,1.183-2.354,1.66-3.586L7.607,12.944l5.248-5.3,7.566,3.266a1.107,1.107,0,0,0,.773.122c.555-.092,2.568-1.3,3.364-1.623A30.762,30.762,0,0,0,28.069,8.1L31.309,0l7.6.066,2.929,7.573.511.659a46.5,46.5,0,0,1,6.859,2.777l8.026-3.468,5.227,5.167.076.369L59.1,20.97c.443,1.245,1.165,2.363,1.66,3.587a30.8,30.8,0,0,0,1.315,3.513l8.033,3.2.066,7.6-8.1,3.239a30.9,30.9,0,0,0-1.315,3.513c-.319.787-1.529,2.8-1.623,3.364a1.108,1.108,0,0,0,.122.773l3.266,7.565-5.3,5.248L49.207,59.1c-1.231.47-2.368,1.16-3.587,1.661-.856.351-2.639.743-3.273,1.116a1.484,1.484,0,0,0-.556.761l-2.9,7.561Z" fill="#00a1dc"/>
    <path id="Path_79053" data-name="Path 79053" d="M38.2,258.486H5.862v-13.68c0-3.457,3.641-7.834,6.628-9.319,3.405-1.693,10.647-1.58,14.518-1.294,5.408.4,11.187,5.59,11.187,11.2Z" transform="translate(-4.716 -188.284)" fill="#fd9806"/>
    <path id="Path_79054" data-name="Path 79054" d="M113.465,127.415a14.069,14.069,0,0,0-11.289-7.878,8.368,8.368,0,0,0-3.515-14.268,16.781,16.781,0,0,1,28.383-5.551c9.8,11.191,1.094,28.656-13.579,27.7m3.8-19.6c-.247-.158-1.4-4.816-1.81-5.578a1.062,1.062,0,0,0-1.98,0c-.415.772-1.563,5.42-1.81,5.578-1.847.22-4.119-.222-5.912.013a1.046,1.046,0,0,0-.587,1.773l4.775,3.451c-.177,1.384-2.088,5.063-1.737,6.238a1.365,1.365,0,0,0,.932.688c1.921-.773,3.445-2.492,5.267-3.515l5.033,3.454c1,.153,1.439-.488,1.285-1.44-.163-1.011-1.81-4.932-1.731-5.426l4.7-3.38a1.067,1.067,0,0,0-.377-1.833Z" transform="translate(-79.377 -75.671)" fill="#00a1dc"/>
    <path id="Path_79055" data-name="Path 79055" d="M58.548,163.043c5.315-5.467,14.024,2.1,9.094,8.143-5.27,6.463-14.928-2.144-9.094-8.143" transform="translate(-45.646 -129.658)" fill="#fd9806"/>
    <path id="Path_79056" data-name="Path 79056" d="M156.908,160.493c.739-.206,1.25-3.446,1.465-3.512.3-.093.195.166.255.323.205.531.807,3.19,1.353,3.19h3.584c-.439.722-2.632,1.65-2.863,2.332-.283.838.992,3.441.813,3.667-.872-.341-2.114-1.872-3-1.913-.917-.042-2.254,1.55-3.142,1.913-.174-.219,1.105-2.8.813-3.667-.219-.648-2.4-1.634-2.863-2.332Z" transform="translate(-123.356 -126.282)" fill="#fd9806"/>
  </g>
</svg>
