<svg id="Group_159162" data-name="Group 159162" xmlns="http://www.w3.org/2000/svg" xmlns:xlink="http://www.w3.org/1999/xlink" width="64.179" height="64.177" viewBox="0 0 64.179 64.177">
  <defs>
    <clipPath id="clip-path">
      <rect id="Rectangle_14785" data-name="Rectangle 14785" width="64.179" height="64.177" fill="none"/>
    </clipPath>
  </defs>
  <g id="Group_159161" data-name="Group 159161" clip-path="url(#clip-path)">
    <path id="Path_79067" data-name="Path 79067" d="M51.52,64.2H48.889c-.871-.225-1.762-.314-2.63-.565a14.182,14.182,0,0,1-9.833-15.976L16.373,27.723A13.984,13.984,0,0,1,.587,17.947c-.248-.869-.341-1.76-.564-2.632.053-.856-.072-1.787,0-2.632C.13,11.434.959,8.044,1.966,7.294a1.782,1.782,0,0,1,2.254,0l6.892,6.891,3.067-3.069L7.35,4.288c-1.708-2.58,1.8-3.555,3.7-3.952A13.943,13.943,0,0,1,27.713,16.378L47.64,36.438A14.053,14.053,0,0,1,63.863,53.169c-.386,1.85-1.289,5.229-3.814,3.813l-6.962-6.946-3.067,3.068,6.829,6.828a1.779,1.779,0,0,1,.059,2.321c-.747,1.006-4.133,1.837-5.387,1.944" transform="translate(0 -0.022)" fill="#00a1dc"/>
    <path id="Path_79068" data-name="Path 79068" d="M.137,303.606,5.4,290.446l.251.06,10.021,10.216L2.518,305.988h-1a2.7,2.7,0,0,1-1.378-1.379Z" transform="translate(-0.114 -241.811)" fill="#fd9806"/>
    <path id="Path_79069" data-name="Path 79069" d="M278.419.03a2.294,2.294,0,0,1,1.914.66c2.824,2.244,5.394,5.84,8.207,8.21.763.962,1.02,1.883.125,2.885l-7.16,7.134-11.188-11.1.175-.3C272.867,5.5,275,2.559,277.384.625a2.345,2.345,0,0,1,1.035-.6" transform="translate(-225.053 0)" fill="#fd9806"/>
    <rect id="Rectangle_14784" data-name="Rectangle 14784" width="11.074" height="15.859" transform="translate(34.731 18.238) rotate(-44.99)" fill="#fd9806"/>
    <path id="Path_79070" data-name="Path 79070" d="M56.414,207.369l11.093,11.216L57.024,229.167l-11.188-11.1Z" transform="translate(-38.161 -172.646)" fill="#fd9806"/>
  </g>
</svg>
