<svg id="Group_159157" data-name="Group 159157" xmlns="http://www.w3.org/2000/svg" xmlns:xlink="http://www.w3.org/1999/xlink" width="79.952" height="70.202" viewBox="0 0 79.952 70.202">
  <defs>
    <clipPath id="clip-path">
      <rect id="Rectangle_14781" data-name="Rectangle 14781" width="79.952" height="70.202" fill="none"/>
    </clipPath>
  </defs>
  <g id="Group_159156" data-name="Group 159156" clip-path="url(#clip-path)">
    <path id="Path_79050" data-name="Path 79050" d="M.181,65.068A16.985,16.985,0,0,1,2.12,59.3a14.758,14.758,0,0,1,12.044-7.479l-2.087-.475c-12.223-3.869-7.644-22.3,5.046-19.711,9.7,1.982,10.8,15.491,1.856,19.329l-2.794.86H18.9a17.94,17.94,0,0,1,3.757,1.063l15.184,7.5c1.876-2.949,3.053-6.528,4.829-9.5.381-.636.792-1.353,1.592-1.52A2.34,2.34,0,0,1,47.139,52.4L41.27,64.13a6.471,6.471,0,0,1-1.861,6.545c-4.783,4.206-9.883-.98-14.523-2.645V94.135c0,.053-.228.85-.276.97a2.481,2.481,0,0,1-1.99,1.432c-4.817-.285-10.153.426-14.908.019a2.487,2.487,0,0,1-2.559-2.265L5.128,81.224c-.632-.561-1.451-.763-2.137-1.285a8.3,8.3,0,0,1-2.81-4.9,68.953,68.953,0,0,1,0-9.974" transform="translate(0 -26.483)" fill="#fd9806"/>
    <path id="Path_79051" data-name="Path 79051" d="M223.025,42.482l8.982,24.9a2.379,2.379,0,0,1-4.116,1.858l-9.932-26.768-1.384.007-.358.264-9.474,26.031a2.347,2.347,0,1,1-4.116-2.258l8.745-24.035h-3.418a14.525,14.525,0,0,0,.539-4.213c1.172-3.464,4.631-7.97,5.478-11.337a7.044,7.044,0,0,0-10.32-7.858c-2.849,1.644-4.013,5.835-5.488,8.6l-5.594-2.725-.162-.461c.353-5.674-.44-11.857,0-17.47A7.413,7.413,0,0,1,199.333.248c11.593.57,23.923-.766,35.431-.01a7.4,7.4,0,0,1,7.224,7.093c.676,9-.525,18.828,0,27.911.146,3.3-3.294,7.24-6.611,7.24ZM204.5,10.261a2.328,2.328,0,0,0-.041,4.635l26.111-.149a2.357,2.357,0,0,0-.942-4.525Zm13.976,8.875a2.351,2.351,0,0,0,.131,4.479l11.635,0a2.322,2.322,0,0,0,0-4.5Zm.158,8.731a2.353,2.353,0,0,0,.312,4.6,70.7,70.7,0,0,0,10.822.02,2.347,2.347,0,0,0,.447-4.622Z" transform="translate(-162.247 0)" fill="#00a1dc"/>
  </g>
</svg>
