<svg xmlns="http://www.w3.org/2000/svg" width="15.723" height="15.723" viewBox="0 0 15.723 15.723">
  <path id="Icon_ionic-ios-arrow-dropdown-circle" data-name="Icon ionic-ios-arrow-dropdown-circle" d="M3.375,11.236a7.861,7.861,0,1,0,7.861-7.861A7.86,7.86,0,0,0,3.375,11.236ZM14.3,9.6a.732.732,0,0,1,1.032,0,.721.721,0,0,1,.212.514.733.733,0,0,1-.215.518l-3.564,3.553a.729.729,0,0,1-1.005-.023L7.143,10.552A.73.73,0,0,1,8.175,9.52l3.065,3.1Z" transform="translate(-3.375 -3.375)" fill="#ff4b4b"/>
</svg>
