<svg xmlns="http://www.w3.org/2000/svg" xmlns:xlink="http://www.w3.org/1999/xlink" width="39.543" height="39.543" viewBox="0 0 39.543 39.543">
  <defs>
    <linearGradient id="linear-gradient" x1="0.086" y1="0.208" x2="1" y2="0.702" gradientUnits="objectBoundingBox">
      <stop offset="0" stop-color="#056380"/>
      <stop offset="0.498" stop-color="#06b0e3"/>
      <stop offset="1" stop-color="#40d4dc"/>
    </linearGradient>
  </defs>
  <path id="Icon_awesome-arrow-circle-right" data-name="Icon awesome-arrow-circle-right" d="M20.334.562A19.771,19.771,0,1,1,.562,20.334,19.768,19.768,0,0,1,20.334.562Zm-2.3,11.448,6.019,5.772H9.492A1.909,1.909,0,0,0,7.578,19.7v1.276a1.909,1.909,0,0,0,1.913,1.913H24.049L18.03,28.657A1.916,1.916,0,0,0,18,31.392l.877.869a1.905,1.905,0,0,0,2.7,0L32.157,21.689a1.905,1.905,0,0,0,0-2.7L21.578,8.4a1.905,1.905,0,0,0-2.7,0L18,9.268a1.925,1.925,0,0,0,.032,2.742Z" transform="translate(-0.563 -0.563)" fill="url(#linear-gradient)"/>
</svg>
