<svg id="Group_9" data-name="Group 9" xmlns="http://www.w3.org/2000/svg" xmlns:xlink="http://www.w3.org/1999/xlink" width="174.627" height="100.536" viewBox="0 0 174.627 100.536">
  <defs>
    <clipPath id="clip-path">
      <rect id="Rectangle_7501" data-name="Rectangle 7501" width="174.627" height="100.536" fill="none"/>
    </clipPath>
  </defs>
  <g id="Group_17644" data-name="Group 17644" clip-path="url(#clip-path)">
    <path id="Path_12968" data-name="Path 12968" d="M100.092,105.786a1.337,1.337,0,0,0-.847-1.133,3.978,3.978,0,0,0-1.955-.468H77.964v3.2H97.29a3.939,3.939,0,0,0,1.984-.467,1.336,1.336,0,0,0,.818-1.133m8.816,14.438h-8.466q0-.134.174-1.534a19.363,19.363,0,0,0,.176-2.367q0-4.1-2.744-4.1H77.964v8H69.557V99.383H97a15.9,15.9,0,0,1,7.911,1.885q3.357,1.884,3.357,4.518a5.147,5.147,0,0,1-2.1,3.9q2.743,1.766,2.744,4.135Z" transform="translate(-24.508 -35.016)" fill="#fff"/>
    <path id="Path_12969" data-name="Path 12969" d="M117.661,143.541h1.357l1.152,3.471,1.126-3.471h1.321l-1.7,4.705-.306.852a3.449,3.449,0,0,1-.319.653,1.421,1.421,0,0,1-.349.366,1.559,1.559,0,0,1-.485.219,2.505,2.505,0,0,1-.653.078,3.374,3.374,0,0,1-.722-.078l-.113-1.014a2.722,2.722,0,0,0,.541.06.8.8,0,0,0,.659-.264,1.85,1.85,0,0,0,.326-.674Zm-1.907,2.541a7.975,7.975,0,0,1-.777.2,2.4,2.4,0,0,0-.694.225.545.545,0,0,0-.249.455.64.64,0,0,0,.2.47.694.694,0,0,0,.508.2,1.1,1.1,0,0,0,.659-.23.8.8,0,0,0,.3-.429,2.533,2.533,0,0,0,.05-.63Zm-1.706-1.05-1.158-.212a1.828,1.828,0,0,1,.671-1.049,2.437,2.437,0,0,1,1.416-.341,3.016,3.016,0,0,1,1.273.206,1.27,1.27,0,0,1,.587.52,2.714,2.714,0,0,1,.17,1.158l-.014,1.511a5.18,5.18,0,0,0,.062.95,2.8,2.8,0,0,0,.23.655h-1.264c-.033-.086-.074-.214-.122-.381-.021-.077-.035-.128-.045-.153a2.309,2.309,0,0,1-.7.484,1.973,1.973,0,0,1-.794.161,1.635,1.635,0,0,1-1.174-.408,1.375,1.375,0,0,1-.429-1.038,1.412,1.412,0,0,1,.195-.739,1.278,1.278,0,0,1,.547-.5,4.25,4.25,0,0,1,1.015-.3,6.861,6.861,0,0,0,1.238-.317v-.129a.675.675,0,0,0-.182-.532,1.079,1.079,0,0,0-.685-.159.9.9,0,0,0-.532.137.94.94,0,0,0-.308.476m-7.286,3.4-1.527-4.889h1.24l.9,3.2.83-3.2h1.23l.8,3.2.922-3.2h1.256l-1.547,4.889h-1.226l-.83-3.144L108,148.431Zm-5.879,0H99.608v-4.889h1.183v.695a2.11,2.11,0,0,1,.547-.65,1.009,1.009,0,0,1,.551-.157,1.594,1.594,0,0,1,.841.245l-.4,1.127a1.108,1.108,0,0,0-.6-.211.692.692,0,0,0-.453.15,1.011,1.011,0,0,0-.293.54,7.784,7.784,0,0,0-.107,1.639Zm-3.528-2.863a1.261,1.261,0,0,0-.286-.855.909.909,0,0,0-1.352.018,1.2,1.2,0,0,0-.268.837Zm-.073,1.308,1.273.216a2.114,2.114,0,0,1-.775,1.079,2.241,2.241,0,0,1-1.323.371,2.141,2.141,0,0,1-1.861-.833,2.831,2.831,0,0,1-.477-1.685,2.724,2.724,0,0,1,.627-1.9,2.047,2.047,0,0,1,1.584-.688,2.127,2.127,0,0,1,1.7.721,3.235,3.235,0,0,1,.6,2.208h-3.2a1.312,1.312,0,0,0,.309.894.961.961,0,0,0,.735.321.778.778,0,0,0,.5-.165,1.025,1.025,0,0,0,.308-.534m-3.677-3.334v1.031h-.87v1.971a5.016,5.016,0,0,0,.024.7.291.291,0,0,0,.113.164.368.368,0,0,0,.216.065,1.657,1.657,0,0,0,.515-.125l.108,1a2.508,2.508,0,0,1-1.009.193,1.6,1.6,0,0,1-.621-.116.922.922,0,0,1-.406-.305,1.21,1.21,0,0,1-.179-.5,6.429,6.429,0,0,1-.041-.911v-2.131h-.585v-1.031h.585v-.973l1.281-.754v1.727Zm-3.1,0v1.031h-.872v1.971a4.651,4.651,0,0,0,.026.7.282.282,0,0,0,.113.164.362.362,0,0,0,.215.065,1.658,1.658,0,0,0,.514-.125l.109,1a2.512,2.512,0,0,1-1.008.193,1.594,1.594,0,0,1-.621-.116.911.911,0,0,1-.406-.305,1.2,1.2,0,0,1-.181-.5,6.639,6.639,0,0,1-.04-.911v-2.131h-.586v-1.031h.586v-.973l1.279-.754v1.727Zm-4.517,2.026a1.258,1.258,0,0,0-.285-.855.91.91,0,0,0-1.353.018,1.2,1.2,0,0,0-.267.837Zm-.073,1.308,1.272.216a2.113,2.113,0,0,1-.775,1.079,2.242,2.242,0,0,1-1.323.371,2.143,2.143,0,0,1-1.861-.833,2.831,2.831,0,0,1-.477-1.685,2.724,2.724,0,0,1,.628-1.9,2.047,2.047,0,0,1,1.584-.688,2.125,2.125,0,0,1,1.7.721,3.232,3.232,0,0,1,.6,2.208h-3.2a1.318,1.318,0,0,0,.309.894.962.962,0,0,0,.736.321.776.776,0,0,0,.5-.165,1.022,1.022,0,0,0,.308-.534m-7.258-.995A2.115,2.115,0,0,0,78.9,147a1.007,1.007,0,0,0,.881.516.9.9,0,0,0,.719-.366A1.822,1.822,0,0,0,80.8,146a1.932,1.932,0,0,0-.3-1.209.942.942,0,0,0-.767-.371.957.957,0,0,0-.762.362,1.679,1.679,0,0,0-.3,1.1m-1.266,2.55v-6.75h1.275v2.431a1.794,1.794,0,0,1,1.4-.682,1.875,1.875,0,0,1,1.459.647,2.705,2.705,0,0,1,.576,1.858,2.857,2.857,0,0,1-.589,1.93,1.824,1.824,0,0,1-1.427.676,1.748,1.748,0,0,1-.815-.209,1.957,1.957,0,0,1-.692-.62v.718Zm-5.041-2.348a7.875,7.875,0,0,1-.776.2,2.382,2.382,0,0,0-.694.225.544.544,0,0,0-.249.455.639.639,0,0,0,.2.47.694.694,0,0,0,.508.2A1.1,1.1,0,0,0,72,147.4a.8.8,0,0,0,.3-.429,2.575,2.575,0,0,0,.049-.63Zm-1.706-1.05-1.157-.212a1.831,1.831,0,0,1,.671-1.049,2.439,2.439,0,0,1,1.416-.341,3.014,3.014,0,0,1,1.272.206,1.277,1.277,0,0,1,.587.52,2.714,2.714,0,0,1,.17,1.158l-.014,1.511a5.18,5.18,0,0,0,.062.95,2.792,2.792,0,0,0,.229.655H72.623c-.032-.086-.074-.214-.122-.381-.02-.077-.036-.128-.045-.153a2.317,2.317,0,0,1-.7.484,1.971,1.971,0,0,1-.794.161,1.636,1.636,0,0,1-1.174-.408,1.375,1.375,0,0,1-.429-1.038,1.412,1.412,0,0,1,.195-.739,1.278,1.278,0,0,1,.547-.5,4.25,4.25,0,0,1,1.015-.3,6.82,6.82,0,0,0,1.238-.317v-.129a.679.679,0,0,0-.181-.532,1.081,1.081,0,0,0-.685-.159.9.9,0,0,0-.532.137.937.937,0,0,0-.308.476m-8.2.847a2.263,2.263,0,0,0,.214,1.133.961.961,0,0,0,.861.506.936.936,0,0,0,.751-.381A1.78,1.78,0,0,0,64.584,146a1.946,1.946,0,0,0-.3-1.213.975.975,0,0,0-1.527,0,1.667,1.667,0,0,0-.308,1.094m3.4,2.55H64.671v-.718a1.917,1.917,0,0,1-.7.624,1.761,1.761,0,0,1-.811.2,1.826,1.826,0,0,1-1.424-.679,2.794,2.794,0,0,1-.592-1.894,2.756,2.756,0,0,1,.576-1.891,1.872,1.872,0,0,1,1.458-.647,1.8,1.8,0,0,1,1.4.682v-2.431h1.275Zm-5.715,0H58.865v-2.5a3.939,3.939,0,0,0-.082-1.025.732.732,0,0,0-.267-.362.76.76,0,0,0-.441-.129,1.013,1.013,0,0,0-.6.185.929.929,0,0,0-.361.488,4.26,4.26,0,0,0-.1,1.124v2.214H55.746v-4.889h1.183v.718a1.96,1.96,0,0,1,2.361-.676,1.306,1.306,0,0,1,.528.4,1.439,1.439,0,0,1,.25.543,4.025,4.025,0,0,1,.071.869Zm-6.968-4.889h1.275v4.889H53.172Zm0-1.861h1.275v1.2H53.172Zm-3.655,1.861h.708v-.369a2.471,2.471,0,0,1,.13-.921,1.03,1.03,0,0,1,.476-.495,1.808,1.808,0,0,1,.878-.19,3.523,3.523,0,0,1,1.068.165l-.172.9a2.416,2.416,0,0,0-.585-.074.514.514,0,0,0-.4.131.769.769,0,0,0-.119.5v.346h.953v1.017H51.5v3.872H50.225v-3.872h-.708Zm-7.644,3.493,1.28-.2a.955.955,0,0,0,.332.574,1.106,1.106,0,0,0,.7.2,1.23,1.23,0,0,0,.744-.186.409.409,0,0,0,.17-.344.347.347,0,0,0-.092-.245,1.021,1.021,0,0,0-.426-.17,6.819,6.819,0,0,1-1.957-.63,1.267,1.267,0,0,1-.572-1.1,1.362,1.362,0,0,1,.494-1.067,2.285,2.285,0,0,1,1.534-.433,2.662,2.662,0,0,1,1.471.326,1.671,1.671,0,0,1,.662.969l-1.2.224a.744.744,0,0,0-.293-.437,1.051,1.051,0,0,0-.615-.152,1.361,1.361,0,0,0-.721.142.308.308,0,0,0-.144.262.286.286,0,0,0,.127.234,4.706,4.706,0,0,0,1.192.365,3.5,3.5,0,0,1,1.422.575,1.206,1.206,0,0,1,.4.962,1.483,1.483,0,0,1-.555,1.156,2.425,2.425,0,0,1-1.638.483,2.668,2.668,0,0,1-1.56-.405,1.86,1.86,0,0,1-.75-1.1m-5.326-3.493h1.357l1.153,3.471,1.126-3.471H41.5l-1.7,4.705-.305.852a3.572,3.572,0,0,1-.319.653,1.425,1.425,0,0,1-.35.366,1.545,1.545,0,0,1-.485.219,2.5,2.5,0,0,1-.652.078,3.369,3.369,0,0,1-.722-.078l-.113-1.014a2.716,2.716,0,0,0,.541.06.8.8,0,0,0,.658-.264,1.861,1.861,0,0,0,.327-.674Zm-1.907,2.541a7.85,7.85,0,0,1-.777.2,2.376,2.376,0,0,0-.694.225.544.544,0,0,0-.249.455.639.639,0,0,0,.2.47.694.694,0,0,0,.508.2,1.1,1.1,0,0,0,.658-.23.8.8,0,0,0,.3-.429,2.532,2.532,0,0,0,.05-.63Zm-1.706-1.05-1.157-.212a1.828,1.828,0,0,1,.671-1.049,2.438,2.438,0,0,1,1.416-.341,3.01,3.01,0,0,1,1.272.206,1.275,1.275,0,0,1,.588.52,2.714,2.714,0,0,1,.17,1.158l-.014,1.511a5.18,5.18,0,0,0,.062.95,2.792,2.792,0,0,0,.229.655H34.908c-.032-.086-.074-.214-.122-.381-.02-.077-.036-.128-.045-.153a2.317,2.317,0,0,1-.7.484,1.972,1.972,0,0,1-.795.161,1.635,1.635,0,0,1-1.173-.408,1.375,1.375,0,0,1-.429-1.038,1.412,1.412,0,0,1,.195-.739,1.28,1.28,0,0,1,.547-.5,4.269,4.269,0,0,1,1.015-.3,6.83,6.83,0,0,0,1.238-.317v-.129a.677.677,0,0,0-.181-.532,1.078,1.078,0,0,0-.685-.159.9.9,0,0,0-.532.137.937.937,0,0,0-.308.476m-7.286,3.4-1.527-4.889h1.24l.9,3.2.83-3.2h1.231l.8,3.2.922-3.2h1.256l-1.548,4.889H28.535l-.831-3.144-.816,3.144Zm-3.482-6.75h1.275v6.75H22.167Zm-2.512,4.4a7.95,7.95,0,0,1-.777.2,2.39,2.39,0,0,0-.694.225.544.544,0,0,0-.249.455.637.637,0,0,0,.2.47.693.693,0,0,0,.508.2,1.1,1.1,0,0,0,.659-.23.8.8,0,0,0,.3-.429,2.565,2.565,0,0,0,.05-.63Zm-1.706-1.05-1.158-.212a1.831,1.831,0,0,1,.671-1.049,2.439,2.439,0,0,1,1.416-.341,3.01,3.01,0,0,1,1.272.206,1.274,1.274,0,0,1,.587.52,2.7,2.7,0,0,1,.17,1.158l-.014,1.511a5.18,5.18,0,0,0,.062.95,2.788,2.788,0,0,0,.229.655H19.923c-.032-.086-.074-.214-.122-.381-.021-.077-.036-.128-.045-.153a2.315,2.315,0,0,1-.7.484,1.976,1.976,0,0,1-.795.161,1.633,1.633,0,0,1-1.173-.408,1.373,1.373,0,0,1-.429-1.038,1.407,1.407,0,0,1,.2-.739,1.273,1.273,0,0,1,.547-.5,4.25,4.25,0,0,1,1.015-.3,6.83,6.83,0,0,0,1.238-.317v-.129a.677.677,0,0,0-.181-.532,1.081,1.081,0,0,0-.685-.159.9.9,0,0,0-.531.137.933.933,0,0,0-.308.476m-5.843.534a1.261,1.261,0,0,0-.285-.855.91.91,0,0,0-1.353.018,1.2,1.2,0,0,0-.268.837Zm-.073,1.308,1.273.216a2.114,2.114,0,0,1-.775,1.079,2.241,2.241,0,0,1-1.323.371,2.142,2.142,0,0,1-1.861-.833,2.831,2.831,0,0,1-.477-1.685,2.721,2.721,0,0,1,.628-1.9,2.047,2.047,0,0,1,1.584-.688,2.125,2.125,0,0,1,1.7.721,3.232,3.232,0,0,1,.6,2.208h-3.2a1.318,1.318,0,0,0,.309.894.962.962,0,0,0,.736.321.774.774,0,0,0,.5-.165,1.017,1.017,0,0,0,.308-.534M1.588,148.431,0,141.681H1.374l1,4.637,1.216-4.637h1.6L6.359,146.4l1.021-4.715H8.733l-1.617,6.75H5.691l-1.325-5.047-1.321,5.047Z" transform="translate(0 -49.879)" fill="#fff"/>
    <path id="Path_12970" data-name="Path 12970" d="M171.467,104.185H149.339q-2.1,0-2.627,1.134a6.971,6.971,0,0,0-.176,2.067h23.879v4.835H146.536v8h-8.407V105.785q0-2.6,3.328-4.5a15.629,15.629,0,0,1,7.881-1.9h22.129Z" transform="translate(-48.668 -35.016)" fill="#fff"/>
    <path id="Path_12971" data-name="Path 12971" d="M121.237,29.665c8.556,5.75,9.291,18.106,17.226,25.121,10.492,9.278,20.584,11.192,33.89,10.758-28.61,7.556-41.422-5.688-48.707-23.84-3.991-7.194-2.834-14.966-11.554-12.043C104.954,32.055,99.613,37,94.982,41.252a30.114,30.114,0,0,1,4.6-5.284c7.429-6.108,13.407-8.744,16.98-8.539,2.038.1,3.112,1.184,4.679,2.236" transform="translate(-33.466 -9.66)" fill="#818386"/>
    <path id="Path_12972" data-name="Path 12972" d="M199.982,18.928c10.726,21.666-28.051,39.235-49.261,33.5-12.244-3.985-14.879-6.728-17.7-10.87,7.687,5.038,14.789,5.505,27.748,3.425C175.808,42.569,191.111,33,196.52,18.439c1.6-4.3-3.166-6.852-5.935-8.462C169.8-2.11,138.491,13.921,122.4,26.022a11.544,11.544,0,0,0-1.26-2.015c1.514-1.3,13.964-8.59,16.815-10.477C153.74,3.079,170.327-5.262,188.658,4.006c4.642,2.681,8.188,8.273,9.688,11.369.576,1.187,1.048,2.366,1.636,3.553m-85.314,9.825c-3.652,2.852-26.221,22.352-31.132,17.526-3.408-3.349,2.557-11.435,4.474-13.914a91.89,91.89,0,0,0-6.653,8.062c-17.778,29.494,26.544-1.438,33.586-9.008-.463-1.021-.231-1.429-.275-2.666" transform="translate(-27.194 0)" fill="#fff"/>
    <path id="Path_12973" data-name="Path 12973" d="M42.2,104.185H11.318a3.941,3.941,0,0,0-1.985.467,1.337,1.337,0,0,0-.817,1.133q0,1.7,6.715,1.7,1.458,0,5.079-.083t5.6-.084a41,41,0,0,1,11.151,1.134q4.963,1.566,4.962,5.4,0,2.6-3.357,4.5a15.8,15.8,0,0,1-7.911,1.9H.05v-4.835H30.76a4.117,4.117,0,0,0,2.015-.466,1.339,1.339,0,0,0,.846-1.134q0-1.7-6.714-1.7-1.46,0-5.109.084t-5.634.083a40.711,40.711,0,0,1-11.092-1.133Q.108,109.621.108,105.785q0-2.6,3.328-4.5a15.631,15.631,0,0,1,7.881-1.9H42.2Z" transform="translate(-0.018 -35.016)" fill="#fff"/>
  </g>
</svg>
