<svg xmlns="http://www.w3.org/2000/svg" width="57.647" height="80.759"><defs><clipPath id="a"><path fill="none" d="M0 0h29.018v13.515H0z" data-name="Rectangle 427"/></clipPath><clipPath id="b"><path fill="none" d="M0 0h31.38v14.615H0z" data-name="Rectangle 428"/></clipPath></defs><g data-name="Group 530"><path d="M28.823 48.032a19.206 19.206 0 1 1 19.206-19.2 19.207 19.207 0 0 1-19.206 19.2m0-48.032A28.827 28.827 0 0 0 0 28.829c0 20.7 28.823 51.93 28.823 51.93s28.823-33.654 28.823-51.93A28.827 28.827 0 0 0 28.823 0" data-name="Path 6850"/><g fill="#fff" data-name="Group 251" transform="translate(13.014 13.039)"><circle cx="20" cy="20" r="20" data-name="Ellipse 1" transform="translate(-5 -4.398)"/><g clip-path="url(#a)" data-name="Group 250" transform="translate(2 7)"><path d="M8.796 4.657c1.992 1.339 2.163 4.215 4.01 5.849 2.443 2.16 4.792 2.606 7.89 2.5-6.661 1.759-9.643-1.325-11.34-5.55-.929-1.675-.66-3.484-2.69-2.8a11.4 11.4 0 0 0-3.983 2.7 7 7 0 0 1 1.07-1.23c1.73-1.424 3.122-2.037 3.953-1.994a2 2 0 0 1 1.089.52" data-name="Path 6851"/><path d="M28.59 4.407c2.5 5.044-6.531 9.134-11.469 7.8-2.851-.929-3.464-1.567-4.121-2.532 1.79 1.173 3.443 1.282 6.46.8 3.5-.562 7.064-2.79 8.323-6.18.372-1-.737-1.6-1.382-1.97-4.84-2.814-12.128.918-15.876 3.735a2.7 2.7 0 0 0-.293-.469c.353-.3 3.251-2 3.915-2.439C17.824.717 21.686-1.225 25.953.933a6.6 6.6 0 0 1 2.256 2.647c.134.276.244.551.381.827M8.727 6.694c-.85.664-6.1 5.2-7.248 4.081-.793-.78.6-2.662 1.042-3.239A21 21 0 0 0 .972 9.412c-4.139 6.867 6.18-.335 7.819-2.1-.108-.238-.054-.333-.064-.621" data-name="Path 6852"/></g></g><g data-name="Group 253"><g clip-path="url(#b)" data-name="Group 252" transform="translate(12.133 21.333)"><path fill="rgba(0,0,0,0.5)" d="M9.513 5.037c2.154 1.448 2.339 4.559 4.337 6.325 2.642 2.336 5.183 2.818 8.532 2.709-7.2 1.9-10.428-1.432-12.263-6-1-1.811-.713-3.768-2.909-3.032a12.3 12.3 0 0 0-4.307 2.918A7.6 7.6 0 0 1 4.06 6.626c1.87-1.538 3.375-2.2 4.275-2.15a2.17 2.17 0 0 1 1.178.563" data-name="Path 6853"/><path d="M30.917 4.766c2.7 5.455-7.063 9.878-12.4 8.434-3.083-1-3.746-1.694-4.456-2.737 1.935 1.268 3.723 1.386 6.986.862 3.786-.607 7.639-3.017 9-6.683.4-1.082-.8-1.725-1.494-2.13-5.236-3.043-13.117.988-17.17 4.04a3 3 0 0 0-.317-.507c.381-.327 3.516-2.163 4.234-2.638 3.975-2.631 8.151-4.731 12.766-2.4A7.1 7.1 0 0 1 30.5 3.871c.145.3.264.6.412.895M9.437 7.239c-.919.718-6.6 5.628-7.838 4.413-.858-.843.644-2.879 1.126-3.5a23 23 0 0 0-1.675 2.03c-4.475 7.418 6.684-.366 8.457-2.271-.117-.257-.058-.36-.069-.671" data-name="Path 6854"/></g></g></g></svg>