<svg xmlns="http://www.w3.org/2000/svg" xmlns:xlink="http://www.w3.org/1999/xlink" width="51.101" height="51.104" viewBox="0 0 51.101 51.104">
  <defs>
    <clipPath id="clip-path">
      <rect id="Rectangle_7586" data-name="Rectangle 7586" width="51.101" height="51.104" fill="none"/>
    </clipPath>
  </defs>
  <g id="Group_7" data-name="Group 7" transform="translate(0 0)">
    <g id="Group_6" data-name="Group 6" transform="translate(0 0)" clip-path="url(#clip-path)">
      <path id="Path_21" data-name="Path 21" d="M29.464,28.461h.021c.87,0,1.684-.883,2.157-1.716.521-.916.848-2.141.207-2.834h0a.794.794,0,0,0-.8-.222,15.333,15.333,0,0,1-.485,1.522,2.99,2.99,0,0,1-.293.715,12.259,12.259,0,0,1-1.332,2.321.79.79,0,0,0,.526.214" transform="translate(7.623 6.232)" fill="#0095da"/>
      <path id="Path_22" data-name="Path 22" d="M13.426,9.194c.033.206.061.413.077.543.02.157.038.3.056.4h0a2.908,2.908,0,0,1,.01,1.363,1.98,1.98,0,0,1-1.185,1.075c-.121.058-.241.112-.361.168A6.288,6.288,0,0,0,9.61,14.378c-1.1,1.3-1.476,1.218-1.478,1.218h0a.366.366,0,0,1-.08-.08,17.291,17.291,0,0,1,5.375-6.322" transform="translate(2.121 2.422)" fill="#0095da"/>
      <path id="Path_23" data-name="Path 23" d="M21.136,34.04a17.149,17.149,0,0,1-4.38-.569,6.216,6.216,0,0,1,5.9.5c-.5.044-1.008.071-1.521.071" transform="translate(4.414 8.68)" fill="#0095da"/>
      <path id="Path_24" data-name="Path 24" d="M34.124,20.417a2.754,2.754,0,0,0,.293.691c.02.038.044.081.067.126l-.133-.01a2.178,2.178,0,0,1-.414-.117,2.385,2.385,0,0,0-1.387-.16,1.718,1.718,0,0,0-1.18.955,2.153,2.153,0,0,0-.1,1.431c.576-.114,1.119-.19,1.61-.239l-.011-.02a.646.646,0,0,1-.049-.5c.013-.027.025-.056.109-.076a1.36,1.36,0,0,1,.488.117,3.306,3.306,0,0,0,.786.2,1.841,1.841,0,0,0,1.631-.478,1.648,1.648,0,0,0-.01-1.987,2.171,2.171,0,0,1-.141-.288.348.348,0,0,1,.076-.307.354.354,0,0,1,.3-.129,1.721,1.721,0,0,1,.605.31,3.281,3.281,0,0,0,1.128.541,4.246,4.246,0,0,0,2.337-.236c.153-.048.294-.092.435-.13A17.156,17.156,0,0,1,27.423,40.585c-4.126-4.1-9.1-1.514-10.134-.9A17.213,17.213,0,0,1,12,36.254a1.871,1.871,0,0,0,.351-.288,3.11,3.11,0,0,0,.546-2.654,1.676,1.676,0,0,1-.008-.45,12.009,12.009,0,0,1-1.177-1.912,6.328,6.328,0,0,0-.256.845l-.015.072a4.358,4.358,0,0,0-.114,1.728,1.72,1.72,0,0,1-.134,1.272.549.549,0,0,1-.4.114,17.039,17.039,0,0,1-4.01-13.357c.614.049,2.027.246,2.092,1.027A13.456,13.456,0,0,0,8.905,25.2a4.079,4.079,0,0,0,1.688,2.611,13.656,13.656,0,0,1-.361-2.283,2.363,2.363,0,0,1,.212-1.1,12.183,12.183,0,0,1,.024-1.7c0-.029,0-.059,0-.088-.045-1.455-1.311-2.406-3.414-2.594h0a17.049,17.049,0,0,1,.711-2.358,1.638,1.638,0,0,0,.685.181h.063c1.045,0,1.984-.951,2.687-1.785a4.917,4.917,0,0,1,1.858-1.21c.125-.057.251-.115.376-.174A3.575,3.575,0,0,0,15.45,12.7a4.254,4.254,0,0,0,.056-2.155c-.015-.091-.029-.207-.045-.337a8,8,0,0,0-.235-1.266A17.042,17.042,0,0,1,21.5,6.8c.005.116.005.238,0,.3v.1c0,.494-.008.829-.188.978h0a2.579,2.579,0,0,1-.686.335c-.162.061-.322.123-.476.192h0a6.869,6.869,0,0,0-2.093,1.325,1.4,1.4,0,0,0-.44,1.627.8.8,0,0,0,1.519-.443c.016-.018.037-.04.063-.067a5.5,5.5,0,0,1,1.617-.991c.121-.056.249-.1.378-.153a3.81,3.81,0,0,0,1.135-.6A2.619,2.619,0,0,0,23.1,7.188V7.105c0-.128,0-.283-.008-.449.235-.01.47-.018.708-.018h0a17.192,17.192,0,0,1,4.522.609,4.391,4.391,0,0,0-.009,2.069l.023.138a2.535,2.535,0,0,1,.051,1.08h-.045c-.661-.051-3.318-.149-3.973,1.368a2.373,2.373,0,0,1,1.1.6c.029.029.148.145.327.336.009-.1.016-.184.02-.258.037-.279,1.222-.548,2.432-.451l.058,0c.053,0,.106,0,.155,0a1.543,1.543,0,0,0,1.16-.571,3.011,3.011,0,0,0,.291-2.366l-.024-.143a2.716,2.716,0,0,1-.04-1.309,17.246,17.246,0,0,1,10.3,10.827c-.176.048-.346.1-.5.149a2.783,2.783,0,0,1-1.52.2,2.068,2.068,0,0,1-.584-.313,2.824,2.824,0,0,0-1.4-.57,1.962,1.962,0,0,0-1.61.695,1.933,1.933,0,0,0-.411,1.692" transform="translate(1.748 1.749)" fill="#0095da"/>
      <path id="Path_25" data-name="Path 25" d="M39.084,14.289l-.016.009A22.3,22.3,0,0,1,41.7,22.325l0,.013c.044.349.077.7.1,1.049.006.086.013.171.018.256l-.078-.117a.8.8,0,1,0-1.328.886l1.6,2.4a.8.8,0,0,0,1.329,0l1.6-2.4a.8.8,0,1,0-1.329-.886l-.174.263c-.01-.177-.024-.354-.038-.531-.029-.376-.068-.75-.114-1.121v-.014A23.836,23.836,0,0,0,23.054,1.47a2.341,2.341,0,0,1-.182,1.588,22.238,22.238,0,0,1,16.212,11.23" transform="translate(6.025 0.388)" fill="#0095da"/>
      <path id="Path_26" data-name="Path 26" d="M1.473,22.024a2.334,2.334,0,0,1,1.586.184A22.342,22.342,0,0,1,23.637,3.255l-.116.077h0a.8.8,0,1,0,.886,1.328l2.4-1.6a.8.8,0,0,0,0-1.328l-2.4-1.6a.8.8,0,1,0-.886,1.328l.267.178A23.935,23.935,0,0,0,1.473,22.024" transform="translate(0.388 0)" fill="#0095da"/>
      <path id="Path_27" data-name="Path 27" d="M3.251,22.167l.077.115A.8.8,0,1,0,4.657,21.4L3.06,19a.8.8,0,0,0-1.329,0l-1.6,2.4a.8.8,0,0,0,1.329.886l.178-.267A23.926,23.926,0,0,0,22.02,44.331a2.339,2.339,0,0,1,.186-1.587A22.329,22.329,0,0,1,3.251,22.167" transform="translate(0 4.912)" fill="#0095da"/>
      <path id="Path_28" data-name="Path 28" d="M44.328,23.058a2.341,2.341,0,0,1-1.586-.184A22.412,22.412,0,0,1,22.165,41.826l.115-.076a.8.8,0,0,0-.886-1.329l-2.4,1.6a.8.8,0,0,0,0,1.329l2.4,1.6a.8.8,0,0,0,.886-1.329l-.267-.178A24.01,24.01,0,0,0,44.328,23.058" transform="translate(4.911 6.026)" fill="#0095da"/>
      <path id="Path_29" data-name="Path 29" d="M14.745,28.558a10.5,10.5,0,0,1-3.148-6.2.631.631,0,0,1,.647-.733,11.47,11.47,0,0,1,6.829,2.3,10.485,10.485,0,0,1,3.148,6.194.633.633,0,0,1-.647.734,11.47,11.47,0,0,1-6.829-2.3" transform="translate(3.053 5.698)" fill="#005594"/>
      <path id="Path_30" data-name="Path 30" d="M14.745,28.558a10.5,10.5,0,0,1-3.148-6.2.631.631,0,0,1,.647-.733,11.47,11.47,0,0,1,6.829,2.3,10.485,10.485,0,0,1,3.148,6.194.633.633,0,0,1-.647.734A11.47,11.47,0,0,1,14.745,28.558Z" transform="translate(3.053 5.698)" fill="none" stroke="#fff" stroke-linejoin="round" stroke-width="1"/>
      <path id="Path_31" data-name="Path 31" d="M20.591,29.842a9.426,9.426,0,0,0-2.622-3.92,8.1,8.1,0,0,0-.939-.686.63.63,0,0,1-.286-.421,10.69,10.69,0,0,1-.182-1.9c0-4.4,2.9-8.2,4.149-9.626a.632.632,0,0,1,.951,0c1.247,1.424,4.148,5.213,4.148,9.622a10.7,10.7,0,0,1-.182,1.908.633.633,0,0,1-.286.419,8.228,8.228,0,0,0-.949.695,9.423,9.423,0,0,0-2.611,3.912.632.632,0,0,1-1.193,0" transform="translate(4.363 3.443)" fill="#005594"/>
      <path id="Path_32" data-name="Path 32" d="M20.591,29.842a9.426,9.426,0,0,0-2.622-3.92,8.1,8.1,0,0,0-.939-.686.63.63,0,0,1-.286-.421,10.69,10.69,0,0,1-.182-1.9c0-4.4,2.9-8.2,4.149-9.626a.632.632,0,0,1,.951,0c1.247,1.424,4.148,5.213,4.148,9.622a10.7,10.7,0,0,1-.182,1.908.633.633,0,0,1-.286.419,8.228,8.228,0,0,0-.949.695,9.423,9.423,0,0,0-2.611,3.912.632.632,0,0,1-1.193,0Z" transform="translate(4.363 3.443)" fill="none" stroke="#fff" stroke-linejoin="round" stroke-width="1"/>
      <path id="Path_33" data-name="Path 33" d="M31.07,22.361a10.465,10.465,0,0,1-3.15,6.2,11.477,11.477,0,0,1-6.83,2.3.631.631,0,0,1-.647-.733,10.506,10.506,0,0,1,3.148-6.2,11.483,11.483,0,0,1,6.831-2.3.633.633,0,0,1,.647.733" transform="translate(5.383 5.697)" fill="#005594"/>
      <path id="Path_34" data-name="Path 34" d="M31.07,22.361a10.465,10.465,0,0,1-3.15,6.2,11.477,11.477,0,0,1-6.83,2.3.631.631,0,0,1-.647-.733,10.506,10.506,0,0,1,3.148-6.2,11.483,11.483,0,0,1,6.831-2.3.633.633,0,0,1,.647.733Z" transform="translate(5.383 5.697)" fill="none" stroke="#fff" stroke-linejoin="round" stroke-width="1"/>
    </g>
  </g>
</svg>
