<svg xmlns="http://www.w3.org/2000/svg" xmlns:xlink="http://www.w3.org/1999/xlink" width="93" height="82" viewBox="0 0 93 82">
  <defs>
    <clipPath id="clip-path">
      <rect id="Rectangle_14783" data-name="Rectangle 14783" width="93" height="82" transform="translate(14952 -2396)" fill="#fff" stroke="#707070" stroke-width="1"/>
    </clipPath>
    <clipPath id="clip-path-2">
      <rect id="Rectangle_14747" data-name="Rectangle 14747" width="92.236" height="81.558" fill="none"/>
    </clipPath>
  </defs>
  <g id="Mask_Group_359" data-name="Mask Group 359" transform="translate(-14952 2396)" clip-path="url(#clip-path)">
    <g id="Group_159099" data-name="Group 159099" transform="translate(14952.383 -2396)">
      <g id="Group_159098" data-name="Group 159098" clip-path="url(#clip-path-2)">
        <path id="Path_74703" data-name="Path 74703" d="M124.727,220.4a30.721,30.721,0,0,1-6.692,9.224c-3.249-.632-3.608-4.443-6.983-4.863-3.336-.415-4.845,1.024-6.579,3.6a5.635,5.635,0,0,0-8.95-2.346l-1.811,2.347a5.648,5.648,0,0,0-10.584,0c-1.678-2.551-3.166-3.921-6.425-3.624-2.551.232-2.981,1.91-4.417,3.36-.684.691-1.795,1.087-2.539,1.712a30.434,30.434,0,0,1-6.872-9.4c1.427-1.418,1.683-4.059,4.23-3.786,2.829.3,2.24,4.963,5.865,4.024,2.124-.551,1.856-4.049,4.644-4.049s2.436,3.732,4.928,4.131c3.128.5,2.853-3.389,5.143-3.993,3.3-.869,3.141,3.625,5.711,4,3.219.465,2.93-4.222,5.915-4.129,2.811.088,2.407,4.339,5.426,4.176,2.825-.153,2.378-4.182,5.251-4.182,3.04,0,2.4,4.186,5.425,4.188,2.821,0,2.476-3.883,5.084-4.162,2.548-.273,2.8,2.369,4.23,3.786" transform="translate(-47.683 -164.261)" fill="#00a1dc"/>
        <path id="Path_74704" data-name="Path 74704" d="M150.437,76.136l6.965-9.949,7.142,9.949c-.045.579,2.034,4.244,2.436,5.251,1.252,3.139,1.825,7.043-.085,10.122-.01.016-.26-.033-.363.128a10.533,10.533,0,0,1-18.083,0c-.1-.161-.353-.112-.363-.128-1.906-3.074-1.329-6.978-.085-10.122.4-1.014,2.481-4.666,2.436-5.251m.671,8.539c-1.791.41-.851,3.421-.312,4.575a7.817,7.817,0,0,0,4.3,3.837c1.255.412,3.94.918,3.851-1.123-.072-1.649-1.833-1.3-3-1.715a4.6,4.6,0,0,1-2.592-2.472c-.545-1.323-.1-3.594-2.246-3.1" transform="translate(-111.373 -50.195)" fill="#00a1dc"/>
        <path id="Path_74705" data-name="Path 74705" d="M230.42,92.429c.3-1.52,1.085-2.865,1.244-4.453C232.2,82.63,229.447,78,226.8,73.62c.125-.205.188-.627.4-.96a70.02,70.02,0,0,1,4.577-6.452,76.463,76.463,0,0,1,6.271,9.28c2.373,4.26,4.417,8.411,1.384,13.021a9.172,9.172,0,0,1-9.011,3.92" transform="translate(-172.005 -50.211)" fill="#00a1dc"/>
        <path id="Path_74706" data-name="Path 74706" d="M111.155,73.62a25.253,25.253,0,0,0-3.411,5.9,15.72,15.72,0,0,0-1.631,8.453c.159,1.588.947,2.933,1.244,4.453-7.515,1.089-12.276-5.869-9.673-12.838,1.745-4.671,5.43-9.348,8.317-13.383a69.671,69.671,0,0,1,5.154,7.412" transform="translate(-73.538 -50.211)" fill="#00a1dc"/>
        <path id="Path_74707" data-name="Path 74707" d="M141.071,99.416c.045.584-2.035,4.237-2.436,5.25-1.244,3.144-1.822,7.048.085,10.122a7.029,7.029,0,0,1-2.894.9c-.3-1.52-1.085-2.865-1.244-4.453a15.719,15.719,0,0,1,1.631-8.452,25.237,25.237,0,0,1,3.411-5.9,11.808,11.808,0,0,1,1.447,2.532" transform="translate(-102.007 -73.476)" fill="#00abe0"/>
        <path id="Path_74708" data-name="Path 74708" d="M225.309,115.694a7.019,7.019,0,0,1-2.894-.9c1.909-3.079,1.336-6.983.085-10.122-.4-1.007-2.481-4.672-2.436-5.25a7.793,7.793,0,0,1,.828-1.613,9.093,9.093,0,0,1,.8-.92c2.644,4.381,5.4,9.01,4.861,14.356-.159,1.588-.947,2.933-1.244,4.453" transform="translate(-166.893 -73.476)" fill="#00abe0"/>
        <path id="Path_74709" data-name="Path 74709" d="M239.453,45.463a14.387,14.387,0,0,1-1.353,1.45c-.177.123-.2.3-.461.094-.165-.129-1.515-3.2-1.839-3.768a35.159,35.159,0,0,0-25.464-17.308c.746-.393,1.918-.069,2.748.056A34.985,34.985,0,0,1,236.6,40.81c1.021,1.511,1.751,3.2,2.852,4.653" transform="translate(-159.516 -19.523)" fill="#fd9806"/>
        <path id="Path_74710" data-name="Path 74710" d="M121.842,142.074c-2.378-2.562-4.892-5-7.415-7.415-.178-.171-.848-1.082-.995-1.082l-8.409,8.407a13.186,13.186,0,0,0,2.531.09c.9.009,1.811-.01,2.713,0a31.1,31.1,0,0,1-3.617,15.373,30.724,30.724,0,0,1-6.692,9.224,30.918,30.918,0,0,1-2.351,2.17,34.968,34.968,0,0,1-18.447,7.777,34.077,34.077,0,0,1-25.32-7.777,29.4,29.4,0,0,1-2.17-1.989,30.434,30.434,0,0,1-6.872-9.4c-.047-.091-.449-.344-.543-.543-.129-.273-.274-1.747-.81-1.626a53.659,53.659,0,0,0-4.407,4.577,40.881,40.881,0,0,0,33.611,22.912,42.291,42.291,0,0,0,16.913-2.348c15.894-5.644,27.134-21.356,26.854-38.345Z" transform="translate(-29.606 -101.303)" fill="#fd9806"/>
        <path id="Path_74711" data-name="Path 74711" d="M57.369,1.577A42.016,42.016,0,0,0,43.4.079,40.906,40.906,0,0,0,6.025,33.142a72.47,72.47,0,0,0-.781,7.629c-.9.01-1.811-.009-2.713,0A13.206,13.206,0,0,0,0,40.861l8.409,8.407c.147,0,.816-.911.995-1.081,2.523-2.417,5.037-4.853,7.415-7.415H11.393a35.53,35.53,0,0,1,5.35-18.432A34.739,34.739,0,0,1,50.819,6.409c.746-.393,1.918-.07,2.748.056A34.987,34.987,0,0,1,77.085,21.288c1.02,1.511,1.751,3.2,2.852,4.653A36.679,36.679,0,0,0,82.8,23.112,40.618,40.618,0,0,0,57.369,1.577" transform="translate(0 -0.001)" fill="#fd9806"/>
        <path id="Path_74712" data-name="Path 74712" d="M144.068,266.313a34.965,34.965,0,0,1-18.447,7.777,34.076,34.076,0,0,1-25.32-7.777,9.412,9.412,0,0,0,2.355-1.533c1.164-1.108,1.36-2.651,3.342-2.642,3.259.015,2.275,4.87,6.292,3.956,2.024-.461,1.71-4.629,5.242-3.9,2.313.478,1.761,4.655,5.426,3.9,2.284-.474,1.762-4.527,5.277-3.927,2.319.4,1.784,4.109,4.9,3.978s2.175-4.452,5.765-3.971c1.442.194,1.793,1.563,2.632,2.431a9.816,9.816,0,0,0,2.539,1.711" transform="translate(-76.067 -198.776)" fill="#00a1dc"/>
        <path id="Path_74713" data-name="Path 74713" d="M91.318,255.2c.744-.625,1.855-1.021,2.538-1.712,1.436-1.45,1.866-3.127,4.417-3.36,3.26-.3,4.747,1.073,6.425,3.624a5.648,5.648,0,0,1,10.584,0l1.812-2.347a5.635,5.635,0,0,1,8.95,2.346c1.733-2.572,3.243-4.011,6.579-3.6,3.376.419,3.734,4.231,6.983,4.863a30.918,30.918,0,0,1-2.351,2.17,9.817,9.817,0,0,1-2.539-1.711c-.839-.869-1.19-2.238-2.632-2.431-3.59-.482-2.655,3.839-5.765,3.971s-2.579-3.581-4.9-3.978c-3.515-.6-2.993,3.453-5.277,3.927-3.665.76-3.112-3.417-5.426-3.9-3.532-.73-3.218,3.438-5.242,3.9-4.017.914-3.032-3.94-6.292-3.956-1.981-.009-2.178,1.533-3.342,2.642a9.412,9.412,0,0,1-2.355,1.533,29.335,29.335,0,0,1-2.17-1.989" transform="translate(-69.255 -189.65)" fill="#00a1dc"/>
        <path id="Path_74714" data-name="Path 74714" d="M161.181,142.491c2.151-.493,1.7,1.779,2.246,3.1a4.6,4.6,0,0,0,2.592,2.472c1.17.415,2.931.067,3,1.715.089,2.04-2.6,1.535-3.851,1.123a7.817,7.817,0,0,1-4.3-3.837c-.539-1.154-1.478-4.165.312-4.575" transform="translate(-121.445 -108.011)" fill="#fffffe"/>
      </g>
    </g>
  </g>
</svg>
