<svg xmlns="http://www.w3.org/2000/svg" xmlns:xlink="http://www.w3.org/1999/xlink" width="72.087" height="37.484" viewBox="0 0 72.087 37.484">
  <defs>
    <clipPath id="clip-path">
      <rect id="Rectangle_14369" data-name="Rectangle 14369" width="72.087" height="37.483" fill="#0aafe2"/>
    </clipPath>
  </defs>
  <g id="Group_158599" data-name="Group 158599" transform="translate(0 0)">
    <g id="Group_158598" data-name="Group 158598" transform="translate(0 0)" clip-path="url(#clip-path)">
      <path id="Path_74703" data-name="Path 74703" d="M70.609,18.227A5.7,5.7,0,0,1,71.69,20.64a11.033,11.033,0,0,1-17.119,11.9c-6.758,6.686-17.291,6.416-24.306.246C28.84,33.279,27.8,34.4,26.3,35.031a11.989,11.989,0,0,1-10.478-.511c-.668-.334-1.458-1.271-2.054-1.332s-2.709.8-3.721.824c-12.143.227-14.5-19.6-.242-21.025.554-.055,1.107.438,1.672.145.307-.159,1.987-2.453,2.828-3.1A12.385,12.385,0,0,1,23.44,7.688c1.354.141,2.366.85,3.67.888,1.963-2.378,3.613-4.512,6.341-6.1,10.059-5.866,21.9-.766,25.887,9.713,4.369.088,8.259,1,10.643,4.894.248.4.413.79.628,1.146M40.005,1.569c-5.674.723-9.244,4.679-12.586,8.864-.735.183-1.826-.815-2.579-1.041a11.062,11.062,0,0,0-10.41,2.323c-.63.574-1.786,2.588-2.227,2.74-1.992.683-3.587-.5-6.535,1.232-7.952,4.686-4.17,17.833,5.31,16.769.948-.106,2.463-.942,3.072-.848.687.105,3.107,2.205,4.823,2.655,4.589,1.2,8.05-.64,11.367-3.608a16.362,16.362,0,0,0,24.331.01c8.391,7.316,19.782-2,14.84-11.782-2.2-4.364-6.43-5.368-11.011-5.14C55.58,5.794,48.752.455,40.005,1.569" transform="translate(0 0)" fill="#0aafe2"/>
    </g>
  </g>
</svg>
