<svg xmlns="http://www.w3.org/2000/svg" xmlns:xlink="http://www.w3.org/1999/xlink" width="87.559" height="45.528" viewBox="0 0 87.559 45.528">
  <defs>
    <clipPath id="clip-path">
      <rect id="Rectangle_14369" data-name="Rectangle 14369" width="87.559" height="45.528" fill="#0aafe2"/>
    </clipPath>
  </defs>
  <g id="Group_158599" data-name="Group 158599" transform="translate(0 0)">
    <g id="Group_158598" data-name="Group 158598" transform="translate(0 0)" clip-path="url(#clip-path)">
      <path id="Path_74703" data-name="Path 74703" d="M85.763,22.139a6.925,6.925,0,0,1,1.313,2.931A13.4,13.4,0,0,1,66.283,39.524c-8.208,8.121-21,7.792-29.522.3-1.732.6-2.991,1.954-4.821,2.726a14.562,14.562,0,0,1-12.727-.62c-.811-.405-1.77-1.543-2.5-1.618s-3.291.978-4.519,1c-14.749.276-17.607-23.8-.294-25.537.672-.067,1.345.532,2.031.176.373-.193,2.413-2.98,3.435-3.76a15.043,15.043,0,0,1,11.1-2.853c1.645.171,2.874,1.033,4.458,1.079,2.384-2.889,4.388-5.48,7.7-7.412,12.218-7.125,26.595-.93,31.442,11.8C77.379,14.909,82.1,16.019,85,20.746c.3.491.5.959.763,1.393M48.591,1.906C41.7,2.784,37.363,7.59,33.3,12.673c-.893.223-2.218-.99-3.133-1.265A13.436,13.436,0,0,0,17.527,14.23c-.766.7-2.169,3.144-2.706,3.328-2.42.829-4.357-.613-7.938,1.5-9.658,5.692-5.065,21.66,6.449,20.368,1.151-.129,2.992-1.144,3.731-1.031.834.128,3.774,2.678,5.859,3.224,5.574,1.46,9.777-.777,13.806-4.382a19.873,19.873,0,0,0,29.553.012c10.191,8.886,24.028-2.426,18.025-14.311-2.677-5.3-7.81-6.52-13.374-6.243C67.508,7.038,59.215.553,48.591,1.906" transform="translate(0 0)" fill="#0aafe2"/>
    </g>
  </g>
</svg>
