<svg xmlns="http://www.w3.org/2000/svg" xmlns:xlink="http://www.w3.org/1999/xlink" width="93" height="82" viewBox="0 0 93 82">
  <defs>
    <clipPath id="clip-path">
      <rect id="Rectangle_14783" data-name="Rectangle 14783" width="93" height="82" transform="translate(14685 -1887)" fill="#fff" stroke="#707070" stroke-width="1"/>
    </clipPath>
    <clipPath id="clip-path-2">
      <rect id="Rectangle_14749" data-name="Rectangle 14749" width="79.218" height="79.145" fill="none"/>
    </clipPath>
  </defs>
  <g id="Mask_Group_359" data-name="Mask Group 359" transform="translate(-14685 1887)" clip-path="url(#clip-path)">
    <g id="Group_159105" data-name="Group 159105" transform="translate(14692 -1886)">
      <g id="Group_159104" data-name="Group 159104" clip-path="url(#clip-path-2)">
        <path id="Path_74729" data-name="Path 74729" d="M160.7,34.575c0,.029-.132.123-.143.246-.062.653.064,1.871-.477,2.305-.72.579-4.661,1.206-4.919,1.5a24.931,24.931,0,0,1-3.046,7.54c-.1.544,2.119,3.638,2.336,4.5a.672.672,0,0,1-.049.574,20.453,20.453,0,0,1-1.663,2.057,39.809,39.809,0,0,1-3.015,3.016c-.6.535-1.851,1.746-2.632,1.555l-4.794-2.68-3.962-8c0-.47,2.389-2.134,2.882-2.63a17.714,17.714,0,0,0-25.2-24.9c-.605.616-1.463,2.043-2,2.485-.168.139-.3.264-.539.223L105.511,18.4l-2.757-5.125c-.013-.667,4.024-4.74,4.757-5.388.66-.583,1.918-1.832,2.791-1.554l4.235,2.258a36.8,36.8,0,0,1,7.508-3.178c.465-.452.959-3.756,1.427-4.6.36-.653,1.635-.69,2.356-.737a50.332,50.332,0,0,1,5.425,0c.552.032,2.27.141,2.519.574l1.5,4.837a36.943,36.943,0,0,1,7.565,3.093c.6,0,3.267-1.939,4.105-2.222a1.188,1.188,0,0,1,.811-.057,29.974,29.974,0,0,1,6.734,6.888l-2.422,4.734a28.469,28.469,0,0,1,3.088,7.428L160.2,27.03l.5,2.594c-.087,1.617.118,3.348,0,4.95" transform="translate(-81.52 0.001)" fill="#00a1dc"/>
        <path id="Path_74730" data-name="Path 74730" d="M140.591,109.827l18.537.108.224.549v17.649l-.315.613-.771,0-4.409-4.4-15.592,15.279-8.613-8.389-.153-.619,15.146-15.344c.066-.371-3.762-3.676-4.232-4.4a.82.82,0,0,1-.221-.657Z" transform="translate(-102.738 -87.131)" fill="#fd9806"/>
        <path id="Path_74731" data-name="Path 74731" d="M173.165,236.921l13.5-.049.379.859c-.326,3.822.424,8.335,0,12.072-.3,2.624-3.319-1.78-4.1-2.243-1.391,1.112-10.36,10.85-11.136,10.822-.488-.017-5.386-5.441-6.266-6.1a.567.567,0,0,1-.155-.464c.073-.758,9.62-9.387,10.66-10.867.072-.192-.032-.3-.129-.44-.5-.745-2.6-2.244-2.875-2.86a.712.712,0,0,1,.122-.73" transform="translate(-131.207 -187.922)" fill="#fd9806"/>
        <path id="Path_74732" data-name="Path 74732" d="M50.668,113.284c1.539.114,12.946-.34,13.357.186.534.682-.118,11.608.14,13.318l-.253.37a.959.959,0,0,1-.672-.063c-.562-.259-2.741-3.075-3.151-3l-11,10.765-6.269-6.049a.672.672,0,0,1-.163-.473c0-.783,9.594-9.583,10.673-11,.072-.409-2.743-2.592-3-3.153a.606.606,0,0,1,.342-.894" transform="translate(-33.843 -89.815)" fill="#fd9806"/>
        <path id="Path_74733" data-name="Path 74733" d="M104.089,220.589l.749.12,8.356,8.511a.422.422,0,0,1,0,.318,37.921,37.921,0,0,1-3.915,3.995.746.746,0,0,1-.513-.042l-8.467-8.4a1.279,1.279,0,0,1-.032-.579c.1-.6,3.236-3.244,3.823-3.925" transform="translate(-79.531 -175.004)" fill="#fd9806"/>
        <path id="Path_74734" data-name="Path 74734" d="M73.741,250.5l8.827,8.6-.12.749c-.8.5-3.04,3.41-3.674,3.6a.772.772,0,0,1-.749-.12l-8.4-8.471c-.1-.249,0-.391.125-.594a46.949,46.949,0,0,1,3.406-3.4,1.571,1.571,0,0,1,.58-.365" transform="translate(-55.211 -198.73)" fill="#fd9806"/>
        <path id="Path_74735" data-name="Path 74735" d="M24.754,192.169l.675.352,5.85,5.914c.1.249,0,.391-.125.594a29.553,29.553,0,0,1-2.932,2.785c-.268.058-.454-.175-.636-.316l-5.845-5.914a.8.8,0,0,1,.12-.749,20.5,20.5,0,0,1,2.892-2.666" transform="translate(-17.213 -152.457)" fill="#fd9806"/>
        <path id="Path_74736" data-name="Path 74736" d="M3.069,213.816l.434.124,6.08,6.154c.1.249,0,.391-.125.594a32.158,32.158,0,0,1-2.747,2.672.772.772,0,0,1-.749-.12l-5.917-6a.8.8,0,0,1,.12-.749,20.768,20.768,0,0,1,2.9-2.679" transform="translate(0 -169.631)" fill="#fd9806"/>
        <path id="Path_74737" data-name="Path 74737" d="M147.32,315.482a.772.772,0,0,1,.749.12l5.917,6a.8.8,0,0,1-.12.749,27.889,27.889,0,0,1-2.786,2.637.459.459,0,0,1-.551-.083l-6.08-6.155c-.1-.249,0-.391.125-.593a32.183,32.183,0,0,1,2.747-2.672" transform="translate(-114.568 -250.252)" fill="#fd9806"/>
        <path id="Path_74738" data-name="Path 74738" d="M125.776,336.494a.417.417,0,0,1,.44.129l6.073,6.152a.8.8,0,0,1-.12.749,30.263,30.263,0,0,1-2.591,2.513,1.275,1.275,0,0,1-.579.032c-.719-.125-5.269-5.349-6.247-6.145-.1-.249,0-.391.125-.593a33.588,33.588,0,0,1,2.9-2.837" transform="translate(-97.355 -266.944)" fill="#fd9806"/>
      </g>
    </g>
  </g>
</svg>
