<svg xmlns="http://www.w3.org/2000/svg" xmlns:xlink="http://www.w3.org/1999/xlink" width="112.422" height="189.585" viewBox="0 0 112.422 189.585">
  <defs>
    <clipPath id="clip-path">
      <rect id="Rectangle_14341" data-name="Rectangle 14341" width="38.167" height="26.907" fill="#89c34b"/>
    </clipPath>
  </defs>
  <g id="Group_159165" data-name="Group 159165" transform="translate(-704.096 -2551.84)">
    <path id="Path_75503" data-name="Path 75503" d="M13835.9-582.941s20,136-109.4,172" transform="translate(-13022 3135)" fill="none" stroke="#40d4dc" stroke-width="3" stroke-dasharray="3"/>
    <g id="Group_159156" data-name="Group 159156" transform="translate(798.992 2655.375) rotate(-161)">
      <g id="Group_158548" data-name="Group 158548" clip-path="url(#clip-path)">
        <path id="Path_66886" data-name="Path 66886" d="M37.671.007a1.08,1.08,0,0,0-.387.039c-.837.168-1.664.38-2.482.623-.629.18-1.255.372-1.894.514-1.045.248-2.11.4-3.161.624-1.265.264-2.549.414-3.828.594-1.23.191-2.463.363-3.7.485-.873.092-1.745.174-2.621.217a20.1,20.1,0,0,0-2.553.325,29.884,29.884,0,0,0-3.072.646,12.026,12.026,0,0,0-1.894.789,7.181,7.181,0,0,0-2.207,1.8c-.845.948-1.61,1.964-2.479,2.89-.455.485-1,.866-1.476,1.328a4.3,4.3,0,0,0-.73,1.1A14.859,14.859,0,0,0,4.4,14.157c-.284.932-.654,1.833-.941,2.764a15.66,15.66,0,0,0-.394,2.271c-.057.371-.148.76-.235,1.13-.007.027-.014.055-.021.083a7.362,7.362,0,0,1-.566.974,10.974,10.974,0,0,0-1,2.3C.992,24.24.552,24.6.3,25.185c-.264.388-.5,1.437-.038,1.721A.566.566,0,0,0,.342,26.9.411.411,0,0,0,.4,26.885l.029-.01c.689-.215,1.32-1.2,1.893-1.595a14.378,14.378,0,0,1,1.545-.735c.4-.185.778-.4,1.169-.588.57-.255,1.12-.547,1.665-.85a7.188,7.188,0,0,1,3.774-.926,4.671,4.671,0,0,0,1.088-.152,7.384,7.384,0,0,0,1.179-.374,7.171,7.171,0,0,0,1.323-.963,11.056,11.056,0,0,1,1.569-1.1,5.118,5.118,0,0,1,3.516-.794,4.769,4.769,0,0,0,2.719-.3,15.248,15.248,0,0,0,3.575-2.351c.658-.538,1.3-1.1,1.91-1.687.936-.914,1.776-1.92,2.672-2.873a24.984,24.984,0,0,0,1.648-1.881c.258-.365.507-.735.753-1.109a37.321,37.321,0,0,1,2.208-3.017c.541-.71,1.131-1.378,1.731-2.038.331-.364.669-.723.989-1.1a2.875,2.875,0,0,0,.8-1.434.933.933,0,0,0-.49-1.006M34.9,3.713c-.8,1.013-1.6,2.033-2.321,3.1-.477.727-.925,1.473-1.439,2.175a10.845,10.845,0,0,1-.881,1c-.649.7-1.255,1.336-1.919,2.038a28.312,28.312,0,0,1-5.05,4.268,6.5,6.5,0,0,1-3.328,1.2c-.343-.005-.681-.065-1.021-.1a5.388,5.388,0,0,0-3.415.751,11.892,11.892,0,0,0-1.7,1.184c-.394.316-.751.677-1.167.965a4.049,4.049,0,0,1-.862.376,6.122,6.122,0,0,1-1.464.315c-.264.016-.529.027-.792.053a6.944,6.944,0,0,0-2.322.626c-.567.262-1.1.586-1.649.883-.582.289-1.171.566-1.752.858A22.726,22.726,0,0,0,1.3,25.439a15.191,15.191,0,0,0,.671-1.559,7.767,7.767,0,0,1,.7-1.1,12.02,12.02,0,0,0,.69-1.869,18.844,18.844,0,0,0,.589-2.831c.272-1.14.726-2.3.99-3.454a7.169,7.169,0,0,1,1.288-3.055c.462-.444,1-.8,1.448-1.264.823-.841,1.575-1.748,2.363-2.62a8.71,8.71,0,0,1,1.648-1.475,12.153,12.153,0,0,1,1.938-.954,12.3,12.3,0,0,1,2.091-.566c.994-.183,1.982-.4,2.986-.519,1.241-.128,2.49-.144,3.731-.266,2.146-.181,4.283-.457,6.421-.714,1.36-.236,2.728-.434,4.082-.7,1.342-.288,2.642-.737,3.974-1.066-.656.771-1.363,1.5-2,2.282" transform="translate(0 0)" fill="#89c34b"/>
        <path id="Path_66887" data-name="Path 66887" d="M.087,22.371c-.245.108.092-.334.235-.552.511-.826,1.249-1.729,1.826-2.511a44.867,44.867,0,0,1,3.08-3.482c.4-.413.742-.821,1.152-1.206a12.683,12.683,0,0,1,2.07-1.3q1.013-.54,2.07-.986c.44-.194.854-.443,1.28-.667.443-.242.918-.416,1.379-.618a9.627,9.627,0,0,1,1.522-.534A7.527,7.527,0,0,0,17.931,8.4a12.8,12.8,0,0,1,3.033-2.73,11.989,11.989,0,0,1,1.572-.6c.349-.12.7-.239,1.047-.36.7-.24,1.36-.586,2.04-.88,1.022-.448,2.051-.878,3.048-1.378.811-.379,1.622-.763,2.463-1.071C32.019,1.047,33.965.227,34.878,0c-1.009.542-3.039,1.675-4,2.3a33.44,33.44,0,0,1-4.164,2.523c-1,.428-1.967.927-2.995,1.28a14.818,14.818,0,0,0-2.791,1.116c-1.288.847-2.182,2.144-3.381,3.1A7.69,7.69,0,0,1,14.6,11.671a12.9,12.9,0,0,0-1.782.565,8.406,8.406,0,0,0-1.011.4,15.177,15.177,0,0,1-2.063.812A13.164,13.164,0,0,0,6.365,15.3a51.207,51.207,0,0,0-4.153,4.311c-.373.47-.727.954-1.076,1.442C.821,21.442.012,22.447.087,22.371" transform="translate(2.949 0.914)" fill="#89c34b"/>
        <path id="Path_66888" data-name="Path 66888" d="M.015,13.809c.8-1.6,2-2.974,2.668-4.646.4-1.431.668-2.924.964-4.38a6.175,6.175,0,0,1,2.1-3.83A8.88,8.88,0,0,1,6.916,0a12.242,12.242,0,0,0-.9,1.028A9.5,9.5,0,0,0,4.366,3.742c-.343,1.686-.687,3.366-1.118,5.033a7.569,7.569,0,0,1-1.078,2.2A17.37,17.37,0,0,1,0,13.807H.019s0,0,0,0" transform="translate(3.373 8.854)" fill="#89c34b"/>
        <path id="Path_66889" data-name="Path 66889" d="M.138,9.36a.512.512,0,0,0-.09.007l-.023.008c.044.017-.031.031-.025,0,.164-.37.654-.534.989-.735A6.173,6.173,0,0,0,2.648,7.4c1.572-1.851,1.166-4.875,3.4-6.327A10.064,10.064,0,0,1,8.178,0c-.266.225-.536.456-.794.694C5.432,2.228,4.932,4.1,4.2,6.332,3.711,7.862,1.786,9.485.138,9.36" transform="translate(10.92 5.393)" fill="#89c34b"/>
        <path id="Path_66890" data-name="Path 66890" d="M0,10.109c.107-.75.267-1.491.363-2.243C.43,7.374.6,6.9.638,6.405A9.965,9.965,0,0,1,.807,4.253a2.422,2.422,0,0,1,1.6-1.976c1.022-.346,1.225-.128,2.072-1.014C4.892.863,5.064.187,5.649,0A14.71,14.71,0,0,1,4.3,1.987a2.434,2.434,0,0,1-.556.487,14.657,14.657,0,0,0-1.5.7A2.862,2.862,0,0,0,1.3,5.856a5.328,5.328,0,0,1-.114,1.712,8.7,8.7,0,0,1-.7,1.711c-.163.275-.33.549-.481.831H0" transform="translate(3.655 8.06)" fill="#89c34b"/>
        <path id="Path_66891" data-name="Path 66891" d="M7.244.791a2.82,2.82,0,0,1-1.2.15A3.187,3.187,0,0,1,5.273.684a3.4,3.4,0,0,0-1-.38A4.91,4.91,0,0,0,2.327.4,7.436,7.436,0,0,0,0,1.315a5.658,5.658,0,0,1,4.141-.231,2.877,2.877,0,0,0,1.78.432A9.367,9.367,0,0,0,9.107,0,9.166,9.166,0,0,1,7.244.791" transform="translate(5.982 18.48)" fill="#89c34b"/>
        <path id="Path_66892" data-name="Path 66892" d="M11.774,1.364c-.221.163-.445.323-.674.475a16.966,16.966,0,0,1-1.87.946,6.162,6.162,0,0,1-1.172.355,3.233,3.233,0,0,1-.756,0c-.245-.029-.621-.13-.972-.2A4.533,4.533,0,0,0,4.995,2.8a9.443,9.443,0,0,0-1.7.145,12.3,12.3,0,0,0-1.633.376c-.351.121-.691.269-1.034.411a3.8,3.8,0,0,0-.627.3,6.059,6.059,0,0,1,.927-.289,5.348,5.348,0,0,1,.938-.184c.5-.032,1-.075,1.5-.073.417.007.831.053,1.245.1a14.356,14.356,0,0,1,1.749.459,2.466,2.466,0,0,0,1.407-.1,9.521,9.521,0,0,0,1.319-.584c.574-.313,1.137-.649,1.679-1.014.356-.26.812-.64.962-.758C12.4,1.057,13.079.536,13.749,0c-.658.455-1.326.9-1.975,1.364" transform="translate(18.135 7.916)" fill="#89c34b"/>
      </g>
    </g>
    <g id="Group_159161" data-name="Group 159161" transform="translate(758.989 2697.883) rotate(76)">
      <g id="Group_158548-2" data-name="Group 158548" transform="translate(0 0)" clip-path="url(#clip-path)">
        <path id="Path_66886-2" data-name="Path 66886" d="M37.671,26.9a1.08,1.08,0,0,1-.387-.039c-.837-.168-1.664-.38-2.482-.623-.629-.18-1.255-.372-1.894-.514-1.045-.248-2.11-.4-3.161-.624-1.265-.264-2.549-.414-3.828-.594-1.23-.191-2.463-.363-3.7-.485-.873-.092-1.745-.174-2.621-.217a20.1,20.1,0,0,1-2.553-.325,29.884,29.884,0,0,1-3.072-.646,12.025,12.025,0,0,1-1.894-.789,7.181,7.181,0,0,1-2.207-1.8c-.845-.948-1.61-1.964-2.479-2.89-.455-.485-1-.866-1.476-1.328a4.3,4.3,0,0,1-.73-1.1A14.859,14.859,0,0,1,4.4,12.749c-.284-.932-.654-1.833-.941-2.764a15.66,15.66,0,0,1-.394-2.271c-.057-.371-.148-.76-.235-1.13-.007-.027-.014-.055-.021-.083a7.362,7.362,0,0,0-.566-.974,10.974,10.974,0,0,1-1-2.3C.992,2.667.552,2.3.3,1.721.039,1.334-.2.284.264,0A.566.566,0,0,1,.342.008.411.411,0,0,1,.4.022l.029.01c.689.215,1.32,1.2,1.893,1.595a14.379,14.379,0,0,0,1.545.735c.4.185.778.4,1.169.588.57.255,1.12.547,1.665.85a7.188,7.188,0,0,0,3.774.926,4.671,4.671,0,0,1,1.088.152,7.383,7.383,0,0,1,1.179.374,7.171,7.171,0,0,1,1.323.963,11.056,11.056,0,0,0,1.569,1.1,5.118,5.118,0,0,0,3.516.794,4.769,4.769,0,0,1,2.719.3,15.248,15.248,0,0,1,3.575,2.351c.658.538,1.3,1.1,1.91,1.687.936.914,1.776,1.92,2.672,2.873A24.984,24.984,0,0,1,31.676,17.2c.258.365.507.735.753,1.109a37.32,37.32,0,0,0,2.208,3.017c.541.71,1.131,1.378,1.731,2.038.331.364.669.723.989,1.1a2.875,2.875,0,0,1,.8,1.434.933.933,0,0,1-.49,1.006M34.9,23.194c-.8-1.013-1.6-2.033-2.321-3.1-.477-.727-.925-1.473-1.439-2.175a10.845,10.845,0,0,0-.881-1c-.649-.7-1.255-1.336-1.919-2.038a28.311,28.311,0,0,0-5.05-4.267,6.5,6.5,0,0,0-3.328-1.2c-.343.005-.681.065-1.021.1a5.388,5.388,0,0,1-3.415-.751,11.892,11.892,0,0,1-1.7-1.184c-.394-.316-.751-.677-1.167-.965A4.049,4.049,0,0,0,11.8,6.23a6.122,6.122,0,0,0-1.464-.315c-.264-.016-.529-.027-.792-.053a6.944,6.944,0,0,1-2.322-.626c-.567-.262-1.1-.586-1.649-.883-.582-.289-1.171-.566-1.752-.858A22.726,22.726,0,0,1,1.3,1.468a15.191,15.191,0,0,1,.671,1.559,7.767,7.767,0,0,0,.7,1.1,12.02,12.02,0,0,1,.69,1.869,18.845,18.845,0,0,1,.589,2.831c.272,1.14.726,2.3.99,3.454a7.169,7.169,0,0,0,1.288,3.055c.462.444,1,.8,1.448,1.264.823.841,1.575,1.748,2.363,2.62a8.71,8.71,0,0,0,1.648,1.475,12.153,12.153,0,0,0,1.938.954,12.3,12.3,0,0,0,2.091.566c.994.183,1.982.4,2.986.519,1.241.128,2.49.144,3.731.266,2.146.181,4.283.457,6.421.714,1.36.236,2.727.434,4.082.7,1.342.288,2.642.737,3.974,1.066-.656-.771-1.363-1.5-2-2.282" transform="translate(0 0)" fill="#89c34b"/>
        <path id="Path_66887-2" data-name="Path 66887" d="M.087.017C-.158-.091.178.35.322.569.833,1.394,1.571,2.3,2.148,3.08a44.866,44.866,0,0,0,3.08,3.482c.4.413.742.821,1.152,1.206a12.683,12.683,0,0,0,2.07,1.3q1.013.54,2.07.986c.44.194.854.443,1.28.667.443.242.918.416,1.379.618a9.627,9.627,0,0,0,1.522.534,7.527,7.527,0,0,1,3.23,2.115,12.8,12.8,0,0,0,3.033,2.73,11.99,11.99,0,0,0,1.572.6c.349.12.7.239,1.047.36.7.24,1.36.586,2.04.88,1.022.448,2.051.878,3.048,1.378.811.379,1.622.763,2.463,1.071.885.333,2.832,1.153,3.744,1.38-1.009-.542-3.039-1.675-4-2.3a33.44,33.44,0,0,0-4.163-2.523c-1-.428-1.967-.927-2.995-1.28a14.818,14.818,0,0,1-2.791-1.116c-1.288-.847-2.182-2.144-3.381-3.1A7.69,7.69,0,0,0,14.6,10.717a12.9,12.9,0,0,1-1.782-.565,8.4,8.4,0,0,1-1.011-.4,15.178,15.178,0,0,0-2.063-.812A13.164,13.164,0,0,1,6.365,7.089,51.206,51.206,0,0,1,2.212,2.777c-.373-.47-.727-.954-1.076-1.442C.821.946.012-.059.087.017" transform="translate(2.949 3.605)" fill="#89c34b"/>
        <path id="Path_66888-2" data-name="Path 66888" d="M.015,0c.8,1.6,2,2.974,2.668,4.646.4,1.431.668,2.924.964,4.38a6.175,6.175,0,0,0,2.1,3.83,8.879,8.879,0,0,0,1.164.953,12.241,12.241,0,0,1-.9-1.028,9.5,9.5,0,0,1-1.645-2.714C4.022,8.382,3.678,6.7,3.247,5.036a7.569,7.569,0,0,0-1.078-2.2A17.371,17.371,0,0,0,0,0H.019s0,0,0,0" transform="translate(3.373 4.243)" fill="#89c34b"/>
        <path id="Path_66889-2" data-name="Path 66889" d="M.138.033A.512.512,0,0,1,.048.026L.025.018C.07,0-.005-.013,0,.021c.164.37.654.534.989.735A6.173,6.173,0,0,1,2.648,1.99c1.572,1.851,1.166,4.875,3.4,6.327A10.064,10.064,0,0,0,8.178,9.393c-.266-.225-.536-.456-.794-.694C5.432,7.165,4.932,5.3,4.2,3.062,3.711,1.532,1.786-.092.138.033" transform="translate(10.92 12.12)" fill="#89c34b"/>
        <path id="Path_66890-2" data-name="Path 66890" d="M0,0c.107.75.267,1.491.363,2.243.067.492.233.966.275,1.461A9.966,9.966,0,0,0,.807,5.857a2.422,2.422,0,0,0,1.6,1.976c1.022.346,1.225.128,2.072,1.014.409.4.582,1.077,1.166,1.263A14.711,14.711,0,0,0,4.3,8.124a2.434,2.434,0,0,0-.556-.487,14.658,14.658,0,0,1-1.5-.7A2.862,2.862,0,0,1,1.3,4.254a5.328,5.328,0,0,0-.114-1.712A8.7,8.7,0,0,0,.482.831C.319.556.152.282,0,0H0" transform="translate(3.655 8.737)" fill="#89c34b"/>
        <path id="Path_66891-2" data-name="Path 66891" d="M7.244.747A2.821,2.821,0,0,0,6.047.6a3.187,3.187,0,0,0-.773.257,3.4,3.4,0,0,1-1,.38,4.909,4.909,0,0,1-1.951-.1A7.435,7.435,0,0,1,0,.223,5.658,5.658,0,0,0,4.141.454,2.877,2.877,0,0,1,5.921.022,9.367,9.367,0,0,1,9.107,1.538,9.166,9.166,0,0,0,7.244.747" transform="translate(5.982 6.889)" fill="#89c34b"/>
        <path id="Path_66892-2" data-name="Path 66892" d="M11.774,2.743c-.221-.163-.445-.323-.674-.475a16.963,16.963,0,0,0-1.87-.946A6.161,6.161,0,0,0,8.058.967a3.232,3.232,0,0,0-.756,0c-.245.029-.621.13-.972.2a4.532,4.532,0,0,1-1.336.142,9.441,9.441,0,0,1-1.7-.145A12.3,12.3,0,0,1,1.66.786C1.31.666.969.517.627.376A3.8,3.8,0,0,1,0,.073,6.059,6.059,0,0,0,.927.362a5.349,5.349,0,0,0,.938.184c.5.032,1,.075,1.5.073C3.782.612,4.2.566,4.61.519A14.355,14.355,0,0,0,6.359.06a2.466,2.466,0,0,1,1.407.1A9.522,9.522,0,0,1,9.086.742c.574.313,1.137.649,1.679,1.014.356.26.812.64.962.758.67.536,1.353,1.056,2.022,1.593-.658-.455-1.326-.9-1.975-1.364" transform="translate(18.135 14.884)" fill="#89c34b"/>
      </g>
    </g>
  </g>
</svg>
