<svg xmlns="http://www.w3.org/2000/svg" xmlns:xlink="http://www.w3.org/1999/xlink" width="99.656" height="167.712" viewBox="0 0 99.656 167.712">
  <defs>
    <clipPath id="clip-path">
      <rect id="Rectangle_14341" data-name="Rectangle 14341" width="33.758" height="23.799" fill="#89c34b"/>
    </clipPath>
  </defs>
  <g id="Group_159166" data-name="Group 159166" transform="translate(1.504 0.219)">
    <path id="Path_75503" data-name="Path 75503" d="M13727.484-582.941s-17.69,120.292,96.764,152.134" transform="translate(-13726.498 582.941)" fill="none" stroke="#40d4dc" stroke-width="3" stroke-dasharray="3"/>
    <g id="Group_159156" data-name="Group 159156" transform="translate(6.423 68.88) rotate(-19)">
      <g id="Group_158548" data-name="Group 158548" transform="translate(0 0)" clip-path="url(#clip-path)">
        <path id="Path_66886" data-name="Path 66886" d="M33.32,23.792a.955.955,0,0,1-.342-.035c-.74-.148-1.472-.336-2.2-.551-.556-.159-1.11-.329-1.675-.455-.924-.219-1.867-.355-2.8-.552-1.119-.233-2.254-.366-3.386-.526-1.088-.169-2.178-.321-3.273-.429-.772-.081-1.544-.153-2.318-.192a17.777,17.777,0,0,1-2.258-.288,26.433,26.433,0,0,1-2.717-.571,10.637,10.637,0,0,1-1.675-.7A6.351,6.351,0,0,1,8.731,17.9c-.748-.838-1.424-1.737-2.193-2.556-.4-.429-.886-.766-1.306-1.175a3.807,3.807,0,0,1-.646-.976,13.143,13.143,0,0,1-.7-1.919c-.251-.824-.579-1.621-.832-2.445a13.851,13.851,0,0,1-.349-2.008c-.051-.328-.131-.673-.208-1-.006-.024-.013-.048-.018-.073a6.512,6.512,0,0,0-.5-.861A9.706,9.706,0,0,1,1.1,2.855c-.224-.5-.613-.818-.834-1.332C.034,1.179-.179.252.234,0A.5.5,0,0,1,.3.007.363.363,0,0,1,.355.019L.381.028c.609.191,1.168,1.06,1.674,1.411a12.717,12.717,0,0,0,1.367.65c.35.163.688.349,1.034.52.5.225.99.484,1.473.752a6.358,6.358,0,0,0,3.338.819,4.132,4.132,0,0,1,.962.134,6.531,6.531,0,0,1,1.043.331,6.342,6.342,0,0,1,1.17.852,9.779,9.779,0,0,0,1.388.969,4.527,4.527,0,0,0,3.11.7,4.218,4.218,0,0,1,2.405.267,13.487,13.487,0,0,1,3.162,2.08c.582.476,1.15.969,1.689,1.492.828.808,1.571,1.7,2.364,2.541a22.1,22.1,0,0,1,1.458,1.663c.228.323.449.65.666.981a33.011,33.011,0,0,0,1.953,2.669c.479.628,1,1.218,1.531,1.8.292.322.592.64.874.971a2.543,2.543,0,0,1,.711,1.268.825.825,0,0,1-.434.89M30.87,20.515c-.709-.9-1.414-1.8-2.053-2.745-.422-.643-.818-1.3-1.273-1.924a9.592,9.592,0,0,0-.779-.889c-.574-.616-1.11-1.182-1.7-1.8A25.041,25.041,0,0,0,20.6,9.381a5.748,5.748,0,0,0-2.944-1.064c-.3,0-.6.058-.9.092a4.766,4.766,0,0,1-3.02-.664,10.519,10.519,0,0,1-1.5-1.047c-.348-.279-.665-.6-1.032-.853a3.582,3.582,0,0,0-.763-.333,5.415,5.415,0,0,0-1.295-.279c-.233-.014-.467-.024-.7-.047A6.142,6.142,0,0,1,6.39,4.631c-.5-.232-.974-.518-1.459-.781-.515-.255-1.036-.5-1.549-.759A20.1,20.1,0,0,1,1.15,1.3a13.436,13.436,0,0,1,.593,1.379,6.87,6.87,0,0,0,.615.971A10.631,10.631,0,0,1,2.969,5.3a16.668,16.668,0,0,1,.521,2.5c.24,1.008.642,2.035.875,3.055a6.341,6.341,0,0,0,1.139,2.7c.408.393.885.71,1.281,1.118.728.744,1.393,1.546,2.09,2.317a7.7,7.7,0,0,0,1.457,1.3,10.749,10.749,0,0,0,1.715.844,10.878,10.878,0,0,0,1.849.5c.879.162,1.753.35,2.641.459,1.1.113,2.2.128,3.3.235,1.9.16,3.788.4,5.679.631,1.2.209,2.412.384,3.61.618,1.187.255,2.337.652,3.515.943-.58-.682-1.206-1.324-1.772-2.019" transform="translate(0 0)" fill="#89c34b"/>
        <path id="Path_66887" data-name="Path 66887" d="M.077.015C-.14-.081.158.31.285.5c.452.73,1.1,1.529,1.615,2.221A39.684,39.684,0,0,0,4.625,5.8c.356.365.656.726,1.019,1.067A11.218,11.218,0,0,0,7.475,8.018q.9.478,1.831.872c.389.172.756.392,1.132.59.392.214.812.368,1.22.547A8.515,8.515,0,0,0,13,10.5a6.658,6.658,0,0,1,2.857,1.871,11.319,11.319,0,0,0,2.682,2.415,10.6,10.6,0,0,0,1.39.533c.309.106.618.211.926.319.621.212,1.2.518,1.8.779.9.4,1.814.776,2.7,1.219.717.335,1.434.675,2.178.948.783.295,2.5,1.02,3.311,1.221-.892-.48-2.688-1.482-3.539-2.033a29.577,29.577,0,0,0-3.683-2.232c-.882-.379-1.74-.82-2.649-1.132a13.106,13.106,0,0,1-2.469-.987c-1.14-.749-1.93-1.9-2.99-2.738a6.8,6.8,0,0,0-2.61-1.2,11.408,11.408,0,0,1-1.576-.5,7.435,7.435,0,0,1-.894-.358A13.424,13.424,0,0,0,8.614,7.9,11.643,11.643,0,0,1,5.629,6.27,45.292,45.292,0,0,1,1.956,2.457C1.627,2.04,1.314,1.613,1,1.181.726.837.01-.052.077.015" transform="translate(2.609 3.188)" fill="#89c34b"/>
        <path id="Path_66888" data-name="Path 66888" d="M.013,0C.719,1.419,1.778,2.632,2.373,4.11c.357,1.266.591,2.586.853,3.874a5.462,5.462,0,0,0,1.861,3.388,7.854,7.854,0,0,0,1.029.843,10.828,10.828,0,0,1-.8-.91,8.406,8.406,0,0,1-1.455-2.4c-.3-1.492-.608-2.977-.989-4.451a6.7,6.7,0,0,0-.953-1.946A15.364,15.364,0,0,0,0,0H.017s0,0,0,0" transform="translate(2.983 3.753)" fill="#89c34b"/>
        <path id="Path_66889" data-name="Path 66889" d="M.122.029A.453.453,0,0,1,.043.023L.022.016C.062,0,0-.012,0,.018.145.346.579.49.875.669A5.46,5.46,0,0,1,2.342,1.76C3.732,3.4,3.373,6.072,5.349,7.356a8.9,8.9,0,0,0,1.885.952c-.235-.2-.474-.4-.7-.613C4.8,6.337,4.362,4.686,3.718,2.708A4.091,4.091,0,0,0,.122.029" transform="translate(9.659 10.72)" fill="#89c34b"/>
        <path id="Path_66890" data-name="Path 66890" d="M0,0C.1.665.236,1.32.321,1.985c.059.435.206.855.243,1.292a8.814,8.814,0,0,0,.149,1.9A2.142,2.142,0,0,0,2.132,6.928c.9.306,1.083.113,1.832.9.362.355.515.952,1.032,1.117A13.011,13.011,0,0,0,3.8,7.185a2.153,2.153,0,0,0-.491-.431,12.964,12.964,0,0,1-1.324-.618,2.531,2.531,0,0,1-.844-2.374,4.713,4.713,0,0,0-.1-1.514A7.7,7.7,0,0,0,.426.735C.282.492.134.25,0,0H0" transform="translate(3.233 7.727)" fill="#89c34b"/>
        <path id="Path_66891" data-name="Path 66891" d="M6.407.661A2.5,2.5,0,0,0,5.348.528a2.819,2.819,0,0,0-.684.227,3,3,0,0,1-.88.336,4.343,4.343,0,0,1-1.725-.084A6.577,6.577,0,0,1,0,.2,5,5,0,0,0,3.663.4,2.544,2.544,0,0,1,5.238.019,8.285,8.285,0,0,1,8.055,1.36a8.107,8.107,0,0,0-1.648-.7" transform="translate(5.291 6.093)" fill="#89c34b"/>
        <path id="Path_66892" data-name="Path 66892" d="M10.414,2.426c-.2-.144-.393-.286-.6-.42a15.006,15.006,0,0,0-1.654-.837A5.45,5.45,0,0,0,7.127.855a2.86,2.86,0,0,0-.668,0c-.217.025-.549.115-.86.174a4.009,4.009,0,0,1-1.181.126,8.352,8.352,0,0,1-1.5-.128A10.88,10.88,0,0,1,1.468.7C1.158.589.857.458.554.332A3.363,3.363,0,0,1,0,.064,5.359,5.359,0,0,0,.82.32a4.73,4.73,0,0,0,.829.163c.442.029.884.066,1.327.065C3.345.541,3.712.5,4.078.459A12.7,12.7,0,0,0,5.625.053,2.181,2.181,0,0,1,6.869.14,8.422,8.422,0,0,1,8.036.656c.508.277,1.005.574,1.485.9.315.23.718.566.851.671.593.474,1.2.934,1.789,1.409-.582-.4-1.173-.793-1.747-1.207" transform="translate(16.04 13.165)" fill="#89c34b"/>
      </g>
    </g>
    <g id="Group_159161" data-name="Group 159161" transform="translate(72.645 134.738) rotate(104)">
      <g id="Group_158548-2" data-name="Group 158548" transform="translate(0 0)" clip-path="url(#clip-path)">
        <path id="Path_66886-2" data-name="Path 66886" d="M33.32.006a.955.955,0,0,0-.342.035c-.74.148-1.472.336-2.2.551-.556.159-1.11.329-1.675.455-.924.219-1.867.355-2.8.552-1.119.233-2.254.366-3.386.526-1.088.169-2.178.321-3.273.429-.772.081-1.544.153-2.318.192a17.776,17.776,0,0,0-2.258.288,26.432,26.432,0,0,0-2.717.571,10.636,10.636,0,0,0-1.675.7A6.351,6.351,0,0,0,8.731,5.9c-.748.838-1.424,1.737-2.193,2.556-.4.429-.886.766-1.306,1.175a3.807,3.807,0,0,0-.646.976,13.143,13.143,0,0,0-.7,1.919c-.251.824-.579,1.621-.832,2.445a13.851,13.851,0,0,0-.349,2.008c-.051.328-.131.673-.208,1-.006.024-.013.048-.018.073a6.512,6.512,0,0,1-.5.861A9.706,9.706,0,0,0,1.1,20.944c-.224.5-.613.818-.834,1.332-.233.343-.446,1.271-.034,1.522A.5.5,0,0,0,.3,23.791a.363.363,0,0,0,.052-.012l.026-.009c.609-.191,1.168-1.06,1.674-1.411a12.718,12.718,0,0,1,1.367-.65c.35-.163.688-.349,1.034-.52.5-.225.99-.484,1.473-.752a6.358,6.358,0,0,1,3.338-.819,4.131,4.131,0,0,0,.962-.134,6.531,6.531,0,0,0,1.043-.331,6.342,6.342,0,0,0,1.17-.852,9.779,9.779,0,0,1,1.388-.969,4.527,4.527,0,0,1,3.11-.7,4.218,4.218,0,0,0,2.405-.267,13.487,13.487,0,0,0,3.162-2.08c.582-.476,1.15-.969,1.689-1.492.828-.808,1.571-1.7,2.364-2.541a22.1,22.1,0,0,0,1.458-1.663c.228-.323.449-.65.666-.981a33.009,33.009,0,0,1,1.953-2.669c.479-.628,1-1.218,1.531-1.8.292-.322.592-.64.874-.971A2.543,2.543,0,0,0,33.753.9a.825.825,0,0,0-.434-.89M30.87,3.284c-.709.9-1.414,1.8-2.053,2.745-.422.643-.818,1.3-1.273,1.924a9.593,9.593,0,0,1-.779.889c-.574.616-1.11,1.182-1.7,1.8A25.041,25.041,0,0,1,20.6,14.418a5.748,5.748,0,0,1-2.944,1.064c-.3,0-.6-.058-.9-.092a4.766,4.766,0,0,0-3.02.664,10.518,10.518,0,0,0-1.5,1.047c-.348.279-.665.6-1.032.853a3.582,3.582,0,0,1-.763.333,5.415,5.415,0,0,1-1.295.279c-.233.014-.467.024-.7.047a6.142,6.142,0,0,0-2.054.554c-.5.232-.974.518-1.459.781-.515.255-1.036.5-1.549.759A20.1,20.1,0,0,0,1.15,22.5a13.436,13.436,0,0,0,.593-1.379,6.87,6.87,0,0,1,.615-.971A10.631,10.631,0,0,0,2.969,18.5a16.668,16.668,0,0,0,.521-2.5c.24-1.008.642-2.035.875-3.055a6.341,6.341,0,0,1,1.139-2.7c.408-.393.884-.71,1.281-1.118.728-.744,1.393-1.546,2.09-2.317a7.7,7.7,0,0,1,1.457-1.3,10.749,10.749,0,0,1,1.714-.844,10.878,10.878,0,0,1,1.849-.5c.879-.162,1.753-.35,2.641-.459,1.1-.113,2.2-.128,3.3-.235,1.9-.16,3.788-.4,5.679-.631,1.2-.209,2.412-.384,3.61-.618,1.187-.254,2.337-.652,3.515-.943-.58.682-1.206,1.324-1.772,2.018" transform="translate(0 0)" fill="#89c34b"/>
        <path id="Path_66887-2" data-name="Path 66887" d="M.077,19.787c-.217.1.081-.3.208-.488.452-.73,1.1-1.529,1.615-2.221A39.684,39.684,0,0,1,4.625,14c.356-.365.656-.726,1.019-1.067a11.218,11.218,0,0,1,1.831-1.148q.9-.478,1.831-.872c.389-.172.756-.392,1.132-.59.392-.214.812-.368,1.22-.547A8.515,8.515,0,0,1,13,9.3,6.658,6.658,0,0,0,15.86,7.431a11.319,11.319,0,0,1,2.682-2.415,10.6,10.6,0,0,1,1.39-.533c.309-.106.618-.211.926-.319.621-.212,1.2-.518,1.8-.779.9-.4,1.814-.776,2.7-1.219.717-.335,1.434-.675,2.178-.947C28.32.926,30.042.2,30.849,0c-.892.48-2.688,1.482-3.539,2.033a29.577,29.577,0,0,1-3.683,2.232c-.882.379-1.74.82-2.649,1.132a13.106,13.106,0,0,0-2.469.987c-1.14.749-1.93,1.9-2.99,2.738a6.8,6.8,0,0,1-2.61,1.2,11.408,11.408,0,0,0-1.576.5,7.433,7.433,0,0,0-.894.358,13.424,13.424,0,0,1-1.825.719,11.643,11.643,0,0,0-2.985,1.633,45.292,45.292,0,0,0-3.673,3.813c-.33.416-.643.844-.951,1.275-.279.344-.995,1.233-.928,1.166" transform="translate(2.609 0.808)" fill="#89c34b"/>
        <path id="Path_66888-2" data-name="Path 66888" d="M.013,12.214C.719,10.8,1.778,9.583,2.373,8.1c.357-1.266.591-2.586.853-3.874A5.462,5.462,0,0,1,5.088.843,7.854,7.854,0,0,1,6.117,0a10.827,10.827,0,0,0-.8.91,8.406,8.406,0,0,0-1.455,2.4c-.3,1.492-.608,2.977-.989,4.451a6.7,6.7,0,0,1-.953,1.946A15.364,15.364,0,0,1,0,12.213H.017s0,0,0,0" transform="translate(2.983 7.831)" fill="#89c34b"/>
        <path id="Path_66889-2" data-name="Path 66889" d="M.122,8.279a.453.453,0,0,0-.08.006l-.02.007C.062,8.308,0,8.32,0,8.29c.145-.328.579-.472.875-.651A5.46,5.46,0,0,0,2.342,6.548C3.732,4.911,3.373,2.237,5.349.952A8.9,8.9,0,0,1,7.233,0c-.235.2-.474.4-.7.613C4.8,1.971,4.362,3.622,3.718,5.6a4.09,4.09,0,0,1-3.6,2.679" transform="translate(9.659 4.771)" fill="#89c34b"/>
        <path id="Path_66890-2" data-name="Path 66890" d="M0,8.941C.1,8.278.236,7.623.321,6.957.38,6.522.527,6.1.564,5.665a8.815,8.815,0,0,1,.149-1.9A2.142,2.142,0,0,1,2.132,2.014c.9-.306,1.083-.113,1.832-.9C4.327.763,4.479.165,5,0A13.011,13.011,0,0,1,3.8,1.757a2.153,2.153,0,0,1-.491.431,12.965,12.965,0,0,0-1.324.618A2.531,2.531,0,0,0,1.146,5.18a4.713,4.713,0,0,1-.1,1.514A7.7,7.7,0,0,1,.426,8.207c-.144.243-.292.486-.426.735H0" transform="translate(3.233 7.129)" fill="#89c34b"/>
        <path id="Path_66891-2" data-name="Path 66891" d="M6.407.7A2.5,2.5,0,0,1,5.348.832,2.819,2.819,0,0,1,4.664.6a3,3,0,0,0-.88-.336A4.342,4.342,0,0,0,2.059.353,6.576,6.576,0,0,0,0,1.163a5,5,0,0,1,3.663-.2,2.544,2.544,0,0,0,1.575.382A8.285,8.285,0,0,0,8.055,0,8.107,8.107,0,0,1,6.407.7" transform="translate(5.291 16.346)" fill="#89c34b"/>
        <path id="Path_66892-2" data-name="Path 66892" d="M10.414,1.207c-.2.144-.393.286-.6.42a15,15,0,0,1-1.654.837,5.449,5.449,0,0,1-1.037.314,2.859,2.859,0,0,1-.668,0c-.217-.025-.549-.115-.86-.174a4.009,4.009,0,0,0-1.181-.126,8.351,8.351,0,0,0-1.5.128,10.88,10.88,0,0,0-1.444.332c-.31.107-.611.238-.914.363A3.363,3.363,0,0,0,0,3.568a5.359,5.359,0,0,1,.82-.256,4.731,4.731,0,0,1,.829-.163c.442-.028.884-.066,1.327-.065.369.006.735.047,1.1.088a12.7,12.7,0,0,1,1.547.406,2.181,2.181,0,0,0,1.244-.086,8.422,8.422,0,0,0,1.167-.516c.508-.277,1.005-.574,1.485-.9.315-.23.718-.566.851-.671C10.965.934,11.568.475,12.161,0c-.582.4-1.173.793-1.747,1.207" transform="translate(16.04 7.002)" fill="#89c34b"/>
      </g>
    </g>
  </g>
</svg>
