<svg xmlns="http://www.w3.org/2000/svg" xmlns:xlink="http://www.w3.org/1999/xlink" width="93" height="82" viewBox="0 0 93 82">
  <defs>
    <clipPath id="clip-path">
      <rect id="Rectangle_14783" data-name="Rectangle 14783" width="93" height="82" transform="translate(15074 -1899)" fill="#fff" stroke="#707070" stroke-width="1"/>
    </clipPath>
    <clipPath id="clip-path-2">
      <rect id="Rectangle_14750" data-name="Rectangle 14750" width="82.285" height="81.963" fill="none"/>
    </clipPath>
  </defs>
  <g id="Mask_Group_359" data-name="Mask Group 359" transform="translate(-15074 1899)" clip-path="url(#clip-path)">
    <g id="Group_159108" data-name="Group 159108" transform="translate(15079 -1899)">
      <g id="Group_159107" data-name="Group 159107" clip-path="url(#clip-path-2)">
        <path id="Path_74739" data-name="Path 74739" d="M82.285,195.7a7.261,7.261,0,0,1-2.087,2.493c-6.288,5.9-13.47,12.331-20.09,17.84-2.664,2.217-4.83,3.551-8.433,3.781l-28.1.024L17.6,228.484,0,210.888l16.871-16.556A17.6,17.6,0,0,1,33.1,191.12c1.862.543,3.5,1.634,5.425,1.968,4.114.714,10.724-.746,14.189,1.079a5.532,5.532,0,0,1-.107,10.032,15.5,15.5,0,0,1-2.23.824H38.248l2.977,2.889,11.7-.03c7.218-4.951,13.972-10.624,21.38-15.264,2.6-1.159,6.569-1.062,7.984,1.8Z" transform="translate(0 -146.521)" fill="#fd9806"/>
        <path id="Path_74740" data-name="Path 74740" d="M191.98,0c.785,4.345,1.336,8.861.082,13.178-1.059,3.643-3.889,7.679-7.589,8.965-.533.185-2.056.346-2.215.678a95.862,95.862,0,0,0-1.041,12.7,18.2,18.2,0,0,1,12.855-6.269L192.7,28.93a30.136,30.136,0,0,0-4.939.2c-1.187.195-3.868,1.6-3.428-.691.386-2.01,3.162-4.246,5.077-4.732,5.754-1.462,8.582,2.962,13.01,5.391l-.017.368c-2.625,3.216-4.842,9.057-9.559,9.569a7.989,7.989,0,0,1-5.993-1.521c-.342-.244-.762-.964-1.187-.853a13.872,13.872,0,0,0-2.107,2.247c-1.374,1.9-1.866,5.076-4.926,4.414a3.181,3.181,0,0,1-2.241-2.739c.447-10.206.674-20.794,4.738-30.3L183.3,6.59a12.122,12.122,0,0,0-7.191,9.281c-.157.795.07,2.17-.6,2.776-1.761,1.594-3.153-2.183-3.5-3.418-1.97-7,2.73-11.791,9.2-13.222C184.794,1.214,188.691,1.6,191.98,0" transform="translate(-132.037)" fill="#00a1dc"/>
        <path id="Path_74741" data-name="Path 74741" d="M109.411,107.416l4.945,1.08c2.831,1.07,7.028,2.79,4.212,6.388-1.566,2-4.38,2.719-6.824,2.492-4.934-.457-7.115-6.458-9.884-9.721,4.191-2.626,7.5-6.926,13.048-5.658,2.228.51,4.922,2.782,5.367,5.09.46,2.387-2.718.764-3.76.535a22.356,22.356,0,0,0-7.1-.207" transform="translate(-78.394 -78.325)" fill="#00a1dc"/>
      </g>
    </g>
  </g>
</svg>
