<svg xmlns="http://www.w3.org/2000/svg" xmlns:xlink="http://www.w3.org/1999/xlink" width="90.889" height="152.689" viewBox="0 0 90.889 152.689">
  <defs>
    <clipPath id="clip-path">
      <rect id="Rectangle_14341" data-name="Rectangle 14341" width="30.731" height="21.664" fill="#89c34b"/>
    </clipPath>
    <clipPath id="clip-path-2">
      <rect id="Rectangle_14341-2" data-name="Rectangle 14341" width="30.73" height="21.664" fill="#89c34b"/>
    </clipPath>
  </defs>
  <g id="Group_159164" data-name="Group 159164" transform="translate(-704.096 -2551.84)">
    <path id="Path_75503" data-name="Path 75503" d="M13814.584-582.941s16.1,109.5-88.086,138.489" transform="translate(-13022 3135)" fill="none" stroke="#40d4dc" stroke-width="3" stroke-dasharray="3"/>
    <g id="Group_159156" data-name="Group 159156" transform="translate(780.581 2635.245) rotate(-161)">
      <g id="Group_158548" data-name="Group 158548" clip-path="url(#clip-path)">
        <path id="Path_66886" data-name="Path 66886" d="M30.331.007a.87.87,0,0,0-.312.031c-.674.135-1.34.306-2,.5-.506.145-1.01.3-1.525.414-.842.2-1.7.323-2.545.5-1.019.212-2.052.333-3.082.478-.99.154-1.983.292-2.98.39-.7.074-1.405.14-2.11.175a16.182,16.182,0,0,0-2.056.262,24.061,24.061,0,0,0-2.473.52,9.683,9.683,0,0,0-1.525.635A5.782,5.782,0,0,0,7.948,5.369c-.681.763-1.3,1.582-2,2.327-.366.391-.806.7-1.189,1.069a3.465,3.465,0,0,0-.588.888A11.964,11.964,0,0,0,3.54,11.4c-.229.75-.527,1.476-.757,2.225a12.609,12.609,0,0,0-.318,1.828c-.046.3-.119.612-.189.91-.006.022-.011.044-.017.067a5.928,5.928,0,0,1-.455.784A8.836,8.836,0,0,0,1,19.067c-.2.451-.558.744-.759,1.213-.212.312-.406,1.157-.031,1.386a.456.456,0,0,0,.063-.007.331.331,0,0,0,.048-.011l.024-.008c.555-.173,1.063-.965,1.524-1.284a11.577,11.577,0,0,1,1.244-.592c.319-.149.626-.318.941-.473.459-.205.9-.441,1.341-.685a5.788,5.788,0,0,1,3.039-.745,3.761,3.761,0,0,0,.876-.122,5.945,5.945,0,0,0,.949-.3,5.774,5.774,0,0,0,1.065-.775,8.9,8.9,0,0,1,1.263-.883,4.121,4.121,0,0,1,2.831-.64,3.84,3.84,0,0,0,2.19-.243A12.277,12.277,0,0,0,20.488,13c.53-.433,1.046-.882,1.538-1.358.754-.736,1.43-1.546,2.152-2.313A20.116,20.116,0,0,0,25.5,7.818c.207-.294.408-.592.607-.893A30.049,30.049,0,0,1,27.889,4.5c.436-.571.911-1.109,1.394-1.641.266-.293.539-.583.8-.884A2.314,2.314,0,0,0,30.726.817a.751.751,0,0,0-.395-.81M28.1,2.99c-.645.815-1.287,1.637-1.869,2.5-.384.585-.745,1.186-1.159,1.751a8.732,8.732,0,0,1-.709.809c-.523.561-1.011,1.076-1.545,1.641a22.8,22.8,0,0,1-4.066,3.436,5.233,5.233,0,0,1-2.68.969c-.276,0-.548-.053-.822-.084a4.338,4.338,0,0,0-2.75.6,9.575,9.575,0,0,0-1.365.953c-.317.254-.605.545-.94.777a3.26,3.26,0,0,1-.694.3,4.929,4.929,0,0,1-1.178.254c-.212.013-.426.022-.638.043a5.591,5.591,0,0,0-1.87.5c-.456.211-.887.472-1.328.711-.469.232-.943.456-1.41.691a18.3,18.3,0,0,0-2.032,1.632,12.231,12.231,0,0,0,.54-1.256,6.254,6.254,0,0,1,.56-.884,9.678,9.678,0,0,0,.556-1.5,15.173,15.173,0,0,0,.474-2.28c.219-.918.585-1.852.8-2.781a5.772,5.772,0,0,1,1.037-2.46c.372-.358.805-.647,1.166-1.017.662-.677,1.268-1.407,1.9-2.11A7.013,7.013,0,0,1,9.406,5a9.785,9.785,0,0,1,1.561-.768A9.9,9.9,0,0,1,12.65,3.78c.8-.147,1.6-.318,2.4-.418,1-.1,2-.116,3-.214,1.728-.145,3.449-.368,5.17-.575,1.1-.19,2.2-.349,3.286-.563,1.08-.232,2.127-.593,3.2-.858-.528.621-1.1,1.205-1.613,1.837" transform="translate(0 -0.001)" fill="#89c34b"/>
        <path id="Path_66887" data-name="Path 66887" d="M55.348,35.14c-.2.087.074-.269.189-.444.412-.665,1.006-1.392,1.471-2.022a36.125,36.125,0,0,1,2.48-2.8c.324-.333.6-.661.928-.971a10.212,10.212,0,0,1,1.667-1.045q.816-.435,1.666-.794c.354-.156.688-.357,1.03-.537s.739-.335,1.111-.5a7.751,7.751,0,0,1,1.225-.43,6.061,6.061,0,0,0,2.6-1.7,10.3,10.3,0,0,1,2.442-2.2,9.654,9.654,0,0,1,1.265-.485c.281-.1.562-.192.843-.29.565-.193,1.1-.472,1.643-.709.823-.361,1.651-.707,2.455-1.109.653-.3,1.306-.614,1.983-.863.712-.268,2.28-.928,3.014-1.111-.812.437-2.447,1.349-3.222,1.85a26.924,26.924,0,0,1-3.352,2.031c-.8.345-1.584.746-2.411,1.031a11.931,11.931,0,0,0-2.247.9c-1.037.682-1.757,1.726-2.722,2.493a6.192,6.192,0,0,1-2.376,1.094,10.384,10.384,0,0,0-1.435.455,6.767,6.767,0,0,0-.814.326,12.22,12.22,0,0,1-1.661.654A10.6,10.6,0,0,0,60.4,29.446a41.23,41.23,0,0,0-3.344,3.471c-.3.379-.585.768-.866,1.161-.254.313-.905,1.122-.845,1.062" transform="translate(-52.903 -16.391)" fill="#89c34b"/>
        <path id="Path_66888" data-name="Path 66888" d="M63.232,177.067c.643-1.291,1.607-2.395,2.148-3.741.325-1.152.538-2.354.776-3.527a4.972,4.972,0,0,1,1.695-3.084,7.149,7.149,0,0,1,.937-.767,9.856,9.856,0,0,0-.728.828,7.652,7.652,0,0,0-1.325,2.185c-.277,1.358-.554,2.71-.9,4.052a6.094,6.094,0,0,1-.868,1.772,13.986,13.986,0,0,1-1.747,2.281h.015s0,0,0,0" transform="translate(-60.504 -158.82)" fill="#89c34b"/>
        <path id="Path_66889" data-name="Path 66889" d="M204.784,108.626a.412.412,0,0,0-.073.006l-.018.007c.036.013-.025.025-.02,0,.132-.3.527-.43.8-.592a4.97,4.97,0,0,0,1.335-.994c1.266-1.49.939-3.925,2.737-5.094a8.1,8.1,0,0,1,1.715-.867c-.214.181-.431.367-.639.558-1.571,1.236-1.974,2.739-2.561,4.54a3.724,3.724,0,0,1-3.273,2.438" transform="translate(-195.88 -96.746)" fill="#89c34b"/>
        <path id="Path_66890" data-name="Path 66890" d="M68.5,159.2c.086-.6.215-1.2.292-1.806.054-.4.188-.778.221-1.176a8.024,8.024,0,0,1,.136-1.733,1.95,1.95,0,0,1,1.292-1.591c.823-.278.986-.1,1.668-.816.329-.323.468-.867.939-1.017a11.844,11.844,0,0,1-1.085,1.6,1.96,1.96,0,0,1-.447.392,11.8,11.8,0,0,0-1.2.562,2.3,2.3,0,0,0-.768,2.161,4.29,4.29,0,0,1-.092,1.378,7,7,0,0,1-.563,1.378c-.131.222-.266.442-.387.669h0" transform="translate(-65.559 -144.572)" fill="#89c34b"/>
        <path id="Path_66891" data-name="Path 66891" d="M117.955,347.01a2.271,2.271,0,0,1-.964.121,2.566,2.566,0,0,1-.623-.207,2.734,2.734,0,0,0-.8-.306,3.953,3.953,0,0,0-1.571.077,5.987,5.987,0,0,0-1.874.737,4.556,4.556,0,0,1,3.334-.186,2.316,2.316,0,0,0,1.433.348,7.542,7.542,0,0,0,2.565-1.22,7.38,7.38,0,0,1-1.5.637" transform="translate(-107.306 -331.493)" fill="#89c34b"/>
        <path id="Path_66892" data-name="Path 66892" d="M349.373,149.466c-.178.131-.358.26-.542.382a13.658,13.658,0,0,1-1.506.762,4.96,4.96,0,0,1-.944.286,2.6,2.6,0,0,1-.608,0c-.2-.023-.5-.105-.783-.158a3.649,3.649,0,0,0-1.075-.114,7.6,7.6,0,0,0-1.37.116,9.9,9.9,0,0,0-1.315.3c-.282.1-.556.217-.832.331a3.062,3.062,0,0,0-.5.244,4.878,4.878,0,0,1,.746-.233,4.307,4.307,0,0,1,.755-.148c.4-.026.8-.06,1.208-.059.335.006.669.042,1,.08a11.558,11.558,0,0,1,1.408.369,1.986,1.986,0,0,0,1.133-.079,7.667,7.667,0,0,0,1.062-.47c.462-.252.915-.523,1.352-.817.287-.209.654-.516.774-.611.539-.432,1.089-.85,1.628-1.282-.53.366-1.068.722-1.59,1.1" transform="translate(-325.292 -141.993)" fill="#89c34b"/>
      </g>
    </g>
    <g id="Group_159161" data-name="Group 159161" transform="translate(748.372 2669.471) rotate(76)">
      <g id="Group_158548-2" data-name="Group 158548" transform="translate(0 0)" clip-path="url(#clip-path-2)">
        <path id="Path_66886-2" data-name="Path 66886" d="M30.331,21.658a.87.87,0,0,1-.312-.031c-.674-.135-1.34-.306-2-.5-.506-.145-1.01-.3-1.525-.414-.842-.2-1.7-.323-2.545-.5-1.019-.212-2.052-.333-3.082-.478-.99-.154-1.983-.292-2.98-.39-.7-.074-1.405-.14-2.11-.175a16.182,16.182,0,0,1-2.056-.262,24.061,24.061,0,0,1-2.473-.52,9.683,9.683,0,0,1-1.525-.635A5.782,5.782,0,0,1,7.948,16.3c-.681-.763-1.3-1.582-2-2.327-.366-.391-.806-.7-1.189-1.069a3.465,3.465,0,0,1-.588-.888,11.964,11.964,0,0,1-.635-1.747c-.229-.75-.527-1.476-.757-2.225a12.609,12.609,0,0,1-.318-1.828c-.046-.3-.119-.612-.189-.91-.006-.022-.011-.044-.017-.067A5.928,5.928,0,0,0,1.8,4.451,8.836,8.836,0,0,1,1,2.6C.8,2.148.445,1.854.243,1.386.031,1.074-.163.229.213,0A.456.456,0,0,1,.276.007.331.331,0,0,1,.323.018L.347.025C.9.2,1.41.99,1.871,1.31A11.577,11.577,0,0,0,3.115,1.9c.319.149.626.318.941.473.459.205.9.441,1.341.685A5.788,5.788,0,0,0,8.436,3.8a3.761,3.761,0,0,1,.876.122,5.945,5.945,0,0,1,.949.3A5.774,5.774,0,0,1,11.326,5a8.9,8.9,0,0,0,1.263.883,4.121,4.121,0,0,0,2.831.64,3.84,3.84,0,0,1,2.19.243,12.277,12.277,0,0,1,2.878,1.893c.53.433,1.046.882,1.538,1.358.754.736,1.43,1.546,2.152,2.313A20.116,20.116,0,0,1,25.5,13.847c.207.294.408.592.607.893a30.049,30.049,0,0,0,1.778,2.429c.436.571.911,1.109,1.394,1.641.266.293.539.583.8.884a2.314,2.314,0,0,1,.647,1.155.751.751,0,0,1-.395.81M28.1,18.675c-.645-.815-1.287-1.637-1.869-2.5-.384-.585-.745-1.186-1.159-1.751a8.732,8.732,0,0,0-.709-.809c-.523-.561-1.011-1.076-1.545-1.641a22.8,22.8,0,0,0-4.066-3.436,5.233,5.233,0,0,0-2.68-.969c-.276,0-.548.053-.822.084a4.338,4.338,0,0,1-2.75-.6A9.575,9.575,0,0,1,11.137,6.1c-.317-.254-.605-.545-.94-.777a3.26,3.26,0,0,0-.694-.3,4.929,4.929,0,0,0-1.178-.254c-.212-.013-.426-.022-.638-.043a5.591,5.591,0,0,1-1.87-.5C5.36,4,4.93,3.743,4.489,3.5c-.469-.232-.943-.456-1.41-.691A18.3,18.3,0,0,1,1.047,1.182a12.231,12.231,0,0,1,.54,1.256,6.254,6.254,0,0,0,.56.884,9.678,9.678,0,0,1,.556,1.5,15.173,15.173,0,0,1,.474,2.28c.219.918.585,1.852.8,2.781a5.772,5.772,0,0,0,1.037,2.46c.372.358.805.647,1.166,1.017.662.677,1.268,1.407,1.9,2.11a7.013,7.013,0,0,0,1.327,1.188,9.785,9.785,0,0,0,1.561.768,9.9,9.9,0,0,0,1.683.456c.8.147,1.6.318,2.4.418,1,.1,2,.116,3,.214,1.728.145,3.449.368,5.17.575,1.1.19,2.2.349,3.286.563,1.08.232,2.127.593,3.2.858-.528-.621-1.1-1.205-1.613-1.837" transform="translate(0 0)" fill="#89c34b"/>
        <path id="Path_66887-2" data-name="Path 66887" d="M.07.013c-.2-.087.074.269.189.444C.671,1.123,1.265,1.85,1.73,2.48a36.124,36.124,0,0,0,2.48,2.8c.324.333.6.661.928.971A10.212,10.212,0,0,0,6.8,7.3q.816.435,1.666.794c.354.156.688.357,1.03.537s.739.335,1.111.5a7.751,7.751,0,0,0,1.225.43,6.061,6.061,0,0,1,2.6,1.7,10.3,10.3,0,0,0,2.442,2.2,9.654,9.654,0,0,0,1.265.485c.281.1.562.192.843.29.565.193,1.1.472,1.643.709.823.361,1.651.707,2.454,1.109.653.3,1.306.614,1.983.863.712.268,2.28.928,3.014,1.111-.812-.437-2.447-1.349-3.222-1.85a26.924,26.924,0,0,0-3.352-2.031c-.8-.345-1.584-.746-2.411-1.031a11.931,11.931,0,0,1-2.247-.9c-1.037-.682-1.757-1.726-2.722-2.493a6.192,6.192,0,0,0-2.376-1.094,10.384,10.384,0,0,1-1.435-.455A6.766,6.766,0,0,1,9.5,7.848a12.22,12.22,0,0,0-1.661-.654A10.6,10.6,0,0,1,5.124,5.707,41.229,41.229,0,0,1,1.781,2.236c-.3-.379-.585-.768-.866-1.161C.661.762.009-.047.07.013" transform="translate(2.375 2.902)" fill="#89c34b"/>
        <path id="Path_66888-2" data-name="Path 66888" d="M.012,0C.654,1.291,1.619,2.4,2.16,3.742c.325,1.152.538,2.354.776,3.527a4.972,4.972,0,0,0,1.695,3.084,7.149,7.149,0,0,0,.937.767,9.856,9.856,0,0,1-.728-.828A7.652,7.652,0,0,1,3.515,8.107c-.277-1.358-.554-2.71-.9-4.052a6.094,6.094,0,0,0-.868-1.772A13.986,13.986,0,0,0,0,0H.015s0,0,0,0" transform="translate(2.716 3.416)" fill="#89c34b"/>
        <path id="Path_66889-2" data-name="Path 66889" d="M.111.027A.412.412,0,0,1,.039.021L.02.014C.056,0,0-.011,0,.017c.132.3.527.43.8.592A4.97,4.97,0,0,1,2.132,1.6C3.4,3.092,3.071,5.527,4.869,6.7a8.1,8.1,0,0,0,1.715.867C6.371,7.382,6.153,7.2,5.945,7c-1.571-1.236-1.974-2.739-2.56-4.54A3.724,3.724,0,0,0,.111.027" transform="translate(8.792 9.758)" fill="#89c34b"/>
        <path id="Path_66890-2" data-name="Path 66890" d="M0,0c.086.6.215,1.2.292,1.806.054.4.188.778.221,1.176A8.024,8.024,0,0,0,.649,4.716,1.95,1.95,0,0,0,1.941,6.307c.823.278.986.1,1.668.816.329.323.468.867.939,1.017a11.844,11.844,0,0,0-1.085-1.6,1.96,1.96,0,0,0-.447-.392,11.8,11.8,0,0,1-1.2-.562,2.3,2.3,0,0,1-.768-2.161A4.29,4.29,0,0,0,.951,2.047,7,7,0,0,0,.388.669C.257.448.122.227,0,0H0" transform="translate(2.943 7.034)" fill="#89c34b"/>
        <path id="Path_66891-2" data-name="Path 66891" d="M5.832.6A2.271,2.271,0,0,0,4.869.48a2.566,2.566,0,0,0-.623.207,2.734,2.734,0,0,1-.8.306A3.953,3.953,0,0,1,1.874.917,5.987,5.987,0,0,1,0,.18,4.556,4.556,0,0,0,3.334.365,2.316,2.316,0,0,1,4.768.018a7.542,7.542,0,0,1,2.565,1.22A7.38,7.38,0,0,0,5.832.6" transform="translate(4.817 5.547)" fill="#89c34b"/>
        <path id="Path_66892-2" data-name="Path 66892" d="M9.48,2.208c-.178-.131-.358-.26-.542-.382a13.658,13.658,0,0,0-1.506-.762A4.96,4.96,0,0,0,6.488.779a2.6,2.6,0,0,0-.608,0c-.2.023-.5.105-.783.158a3.649,3.649,0,0,1-1.075.114A7.6,7.6,0,0,1,2.651.936a9.9,9.9,0,0,1-1.315-.3C1.054.536.78.417.5.3A3.062,3.062,0,0,1,0,.059,4.878,4.878,0,0,0,.746.291,4.307,4.307,0,0,0,1.5.439c.4.026.8.06,1.208.059.335-.006.669-.042,1-.08A11.558,11.558,0,0,0,5.12.049,1.986,1.986,0,0,1,6.253.127,7.667,7.667,0,0,1,7.315.6c.462.252.915.523,1.352.817.287.209.654.516.774.611.539.432,1.089.85,1.628,1.282-.53-.366-1.068-.722-1.59-1.1" transform="translate(14.601 11.984)" fill="#89c34b"/>
      </g>
    </g>
  </g>
</svg>
