<svg xmlns="http://www.w3.org/2000/svg" xmlns:xlink="http://www.w3.org/1999/xlink" width="93" height="82" viewBox="0 0 93 82">
  <defs>
    <clipPath id="clip-path">
      <rect id="Rectangle_14783" data-name="Rectangle 14783" width="93" height="82" transform="translate(15092 -2289)" fill="#fff" stroke="#707070" stroke-width="1"/>
    </clipPath>
    <clipPath id="clip-path-2">
      <rect id="Rectangle_14748" data-name="Rectangle 14748" width="59.735" height="79.979" fill="none"/>
    </clipPath>
  </defs>
  <g id="Mask_Group_359" data-name="Mask Group 359" transform="translate(-15092 2289)" clip-path="url(#clip-path)">
    <g id="Group_159102" data-name="Group 159102" transform="translate(15109 -2288)">
      <g id="Group_159101" data-name="Group 159101" clip-path="url(#clip-path-2)">
        <path id="Path_74715" data-name="Path 74715" d="M59.361.022a12.459,12.459,0,0,1,2.111.466,9.191,9.191,0,0,1,5.855,12.025A7.726,7.726,0,0,1,70.37,26.1a8.523,8.523,0,0,1-5.144,1.728c-10,.584-20.72-.316-30.765-.177a7.784,7.784,0,0,1-5.539-10.976,7.582,7.582,0,0,1,6.838-4.3c.28,1.153.633,4.1,2.127,4.208,2.57.183.572-3.066.431-4.346A7.047,7.047,0,0,1,49.752,5.959c.994.814,1.918,3.054,3.238,2.456,1.553-.7.331-2.308-.35-3.158-.327-.408-1.421-1.1-1.172-1.641a19.928,19.928,0,0,1,1.571-1.561A10.223,10.223,0,0,1,58.111.022a8.641,8.641,0,0,1,1.25,0" transform="translate(-22.286 0.001)" fill="#00a1dc"/>
        <path id="Path_74716" data-name="Path 74716" d="M189.311,192.7H175.488c-.57-.877-.1-2.235-.072-3.195.061-2.364-.2-4.629.382-6.957,1.4-5.589,8.638-9.472,12.342-13.583a3.333,3.333,0,0,1,4.3,5.082l-6.168,5.544c-.727,1.055.655,2.625,1.781,1.78,1.9-1.876,4.162-3.471,6.024-5.376,3.473-3.552,2.129-8.675-2.509-10.147-.317-.475.075-2.548.091-3.2.077-3.078-1.018-9,3.829-8.524,2.769.273,2.932,2.9,2.888,5.089-.09,4.509-.338,9.064-.481,13.572-.078,2.452.141,5.046-.169,7.482-.731,5.741-7.622,6.762-8.415,12.433" transform="translate(-138.647 -121.942)" fill="#fd9806"/>
        <path id="Path_74717" data-name="Path 74717" d="M9.116,192.605c-.376-3.547-3.467-5.242-5.705-7.491-4.922-4.948-2.08-13.415-3.2-19.751.347-2.647-.441-5.873-.132-8.421a3.356,3.356,0,0,1,5.986-1.647c1.119,1.562.657,5.282.706,7.258.015.621.449,2.911.009,3.275-.17.141-.837.242-1.155.407a6,6,0,0,0-3.226,5.686c.253,3.914,5.553,6.671,7.978,9.355,1.125.845,2.508-.725,1.781-1.781l-6.168-5.544a3.333,3.333,0,0,1,4.3-5.082c3.748,4.137,11.036,8.037,12.371,13.71.535,2.272.293,4.527.352,6.831.025.961.5,2.33-.072,3.195Z" transform="translate(0 -121.845)" fill="#fd9806"/>
        <path id="Path_74718" data-name="Path 74718" d="M27.446,351.218l19.93,0a.934.934,0,0,1,.588.818,36.548,36.548,0,0,1-.077,5.249c-.178.54-.764.58-1.253.621l-18.873-.039a1.169,1.169,0,0,1-.9-.974,31.875,31.875,0,0,1,.017-4.84,1.077,1.077,0,0,1,.568-.838" transform="translate(-21.19 -277.93)" fill="#fd9806"/>
        <path id="Path_74719" data-name="Path 74719" d="M158.439,351.222l19.93,0a1.078,1.078,0,0,1,.568.838,31.971,31.971,0,0,1-.024,4.954,1.2,1.2,0,0,1-1.135.9l-19.148-.071c-.683-.164-.72-.464-.778-1.1a32.484,32.484,0,0,1,.011-4.844.979.979,0,0,1,.576-.674" transform="translate(-124.845 -277.93)" fill="#fd9806"/>
        <path id="Path_74720" data-name="Path 74720" d="M117.881,187.938c1.685,2.146,4.874,6.237,5,8.972a4.862,4.862,0,0,1-8.6,3.289c-3.336-3.938,1.677-8.833,3.6-12.262" transform="translate(-89.55 -148.721)" fill="#00a1dc"/>
        <path id="Path_74721" data-name="Path 74721" d="M47.876,190.351a6.961,6.961,0,0,0-3.259-1.9l-.176-5.756a4.7,4.7,0,0,1,2.893,2.337,7.674,7.674,0,0,1,.541,1.645Z" transform="translate(-35.168 -144.576)" fill="#fd9806"/>
        <path id="Path_74722" data-name="Path 74722" d="M225.415,186.682a4.815,4.815,0,0,1,3.435-3.982l-.176,5.756a6.96,6.96,0,0,0-3.258,1.9c.1-1.166-.135-2.531,0-3.67" transform="translate(-178.344 -144.576)" fill="#fd9806"/>
        <path id="Path_74723" data-name="Path 74723" d="M154.313,145.667a1.461,1.461,0,0,1,.369.8,25.742,25.742,0,0,1-.04,4.189,1.328,1.328,0,0,1-2.585-.316c-.145-.8-.156-3.9.273-4.495a1.338,1.338,0,0,1,1.984-.181" transform="translate(-120.255 -114.989)" fill="#00a1dc"/>
        <path id="Path_74724" data-name="Path 74724" d="M175.475,187.983a1.4,1.4,0,0,1,1.485.794,19.712,19.712,0,0,1,.082,4.374,1.322,1.322,0,0,1-2.623-.273,22.911,22.911,0,0,1,.037-3.874,1.622,1.622,0,0,1,1.019-1.021" transform="translate(-137.973 -148.739)" fill="#00a1dc"/>
        <path id="Path_74725" data-name="Path 74725" d="M63.234,145.667a1.338,1.338,0,0,1,1.984.181c.429.6.417,3.691.273,4.495-.27,1.5-2.292,1.624-2.585.316a25.721,25.721,0,0,1-.04-4.189,1.462,1.462,0,0,1,.369-.8" transform="translate(-49.696 -114.989)" fill="#00a1dc"/>
        <path id="Path_74726" data-name="Path 74726" d="M197.931,145.328a1.4,1.4,0,0,1,1.485.794,20.3,20.3,0,0,1,.086,4.377,1.325,1.325,0,0,1-2.626-.276,22.914,22.914,0,0,1,.037-3.874,1.622,1.622,0,0,1,1.019-1.021" transform="translate(-155.743 -114.985)" fill="#00a1dc"/>
        <path id="Path_74727" data-name="Path 74727" d="M86.487,187.988c1.035-.17,1.5.714,1.6,1.612a13.933,13.933,0,0,1-.161,3.744,1.3,1.3,0,0,1-2.378.2,23.356,23.356,0,0,1-.084-4.69,1.343,1.343,0,0,1,1.022-.865" transform="translate(-67.569 -148.744)" fill="#00a1dc"/>
        <path id="Path_74728" data-name="Path 74728" d="M108.655,145.293a1.281,1.281,0,0,1,1.487.633,23.388,23.388,0,0,1,.084,4.69,1.261,1.261,0,0,1-2.469-.275,25.2,25.2,0,0,1,.013-4.054,1.2,1.2,0,0,1,.885-.993" transform="translate(-85.212 -114.946)" fill="#00a1dc"/>
      </g>
    </g>
  </g>
</svg>
