<svg xmlns="http://www.w3.org/2000/svg" width="89.488" height="122.098" viewBox="0 0 89.488 122.098">
  <g id="Group_17856" data-name="Group 17856" transform="translate(-1104.225 -3520.098)">
    <path id="Path_13014" data-name="Path 13014" d="M70.048,0A11.022,11.022,0,0,1,81.011,11.087a10.963,10.963,0,1,1-21.924,0A11.022,11.022,0,0,1,70.048,0M95.114,3.171a9.5,9.5,0,1,1-9.4,9.5,9.448,9.448,0,0,1,9.4-9.5m-50.131,0a9.5,9.5,0,1,1-9.4,9.5,9.448,9.448,0,0,1,9.4-9.5" transform="translate(1078.911 3520.093)" fill="#06b0e3"/>
    <path id="Path_13015" data-name="Path 13015" d="M221.848,228.576a5.511,5.511,0,0,1,5.481,5.541v21.369a17.23,17.23,0,1,1-34.459,0V234.117a5.511,5.511,0,0,1,5.481-5.541Z" transform="translate(938.869 3316.851)" fill="#06b0e3"/>
    <path id="Path_13016" data-name="Path 13016" d="M12.581,228.527l13.725-.006a8.718,8.718,0,0,0-1.947,4.851l-.027.7v21.369a20.668,20.668,0,0,0,2.505,9.9,13.934,13.934,0,0,1-5.639,1.185A14.176,14.176,0,0,1,7.1,252.27v-18.2a5.511,5.511,0,0,1,5.481-5.541" transform="translate(1104.274 3316.9)" fill="#06b0e3"/>
    <path id="Path_13017" data-name="Path 13017" d="M513.42,228.521l13.706.006a5.511,5.511,0,0,1,5.481,5.541v18.206a14.172,14.172,0,0,1-14.094,14.248,13.917,13.917,0,0,1-5.63-1.182l.175-.321a20.64,20.64,0,0,0,2.311-8.551l.025-1.032V234.068a8.729,8.729,0,0,0-1.974-5.547" transform="translate(653.936 3316.9)" fill="#06b0e3"/>
    <path id="table-svgrepo-com" d="M18.946,11,1.049,28.9H88.44L70.542,11ZM0,30.687V41.426H89.488V30.687ZM5.369,43.216V80.8H16.108V43.216Zm14.318,0V68.273H30.426V43.216Zm39.375,0V68.273H69.8V43.216Zm14.318,0V80.8H84.119V43.216Z" transform="translate(1104.225 3561.394)" fill="#f8cd47"/>
  </g>
</svg>
