<svg xmlns="http://www.w3.org/2000/svg" xmlns:xlink="http://www.w3.org/1999/xlink" width="389" height="403.736" viewBox="0 0 389 403.736">
  <defs>
    <linearGradient id="linear-gradient" x1="0.597" y1="1" x2="0.599" gradientUnits="objectBoundingBox">
      <stop offset="0" stop-color="#056380"/>
      <stop offset="0.416" stop-color="#06b0e3"/>
      <stop offset="1" stop-color="#40d4dc"/>
    </linearGradient>
  </defs>
  <g id="Group_157996" data-name="Group 157996" transform="translate(-16213.5 -2011.99)">
    <path id="Path_62303" data-name="Path 62303" d="M10,0H55A10,10,0,0,1,65,10V185H0V10A10,10,0,0,1,10,0Z" transform="translate(16213.5 2213)" fill="url(#linear-gradient)"/>
    <path id="Path_62304" data-name="Path 62304" d="M10,0H55A10,10,0,0,1,65,10V273H0V10A10,10,0,0,1,10,0Z" transform="translate(16294.5 2125)" fill="url(#linear-gradient)"/>
    <path id="Path_62305" data-name="Path 62305" d="M10,0H55A10,10,0,0,1,65,10V304H0V10A10,10,0,0,1,10,0Z" transform="translate(16375.5 2094)" fill="url(#linear-gradient)"/>
    <path id="Path_62306" data-name="Path 62306" d="M10,0H55A10,10,0,0,1,65,10V288H0V10A10,10,0,0,1,10,0Z" transform="translate(16456.5 2110)" fill="url(#linear-gradient)"/>
    <path id="Path_62315" data-name="Path 62315" d="M10,0H55A10,10,0,0,1,65,10V304H0V10A10,10,0,0,1,10,0Z" transform="translate(16537.5 2094)" fill="url(#linear-gradient)"/>
    <path id="Path_62307" data-name="Path 62307" d="M1.557,13H4.035V9.108H8.193v-2H4.035V5.076h4.97V2.99H1.557Zm11.284,0h2.478V9.3L18.707,2.99H16.089L14.815,5.58c-.336.686-.686,1.526-.686,1.526H14.1s-.322-.84-.658-1.526L12.155,2.99h-2.7L12.841,9.3Zm6.188,0h7.448V11.054H22.305V11.04a28.624,28.624,0,0,1,2.562-2,3.344,3.344,0,0,0,1.6-2.758c0-1.694-1.246-3.066-3.556-3.066a3.572,3.572,0,0,0-3.08,1.316,3.768,3.768,0,0,0-.658,2.436h2.212a2.1,2.1,0,0,1,.434-1.414,1.257,1.257,0,0,1,1.036-.434A1.148,1.148,0,0,1,24.1,6.364a1.565,1.565,0,0,1-.63,1.19c-.756.672-1.876,1.372-2.744,2.114A4.119,4.119,0,0,0,19.029,13ZM27.3,13h7.448V11.054H30.579V11.04a28.624,28.624,0,0,1,2.562-2,3.344,3.344,0,0,0,1.6-2.758c0-1.694-1.246-3.066-3.556-3.066A3.572,3.572,0,0,0,28.1,4.53a3.768,3.768,0,0,0-.658,2.436h2.212a2.1,2.1,0,0,1,.434-1.414,1.257,1.257,0,0,1,1.036-.434,1.148,1.148,0,0,1,1.246,1.246,1.565,1.565,0,0,1-.63,1.19c-.756.672-1.876,1.372-2.744,2.114A4.119,4.119,0,0,0,27.3,13Z" transform="translate(16309 2402.502)" fill="#555"/>
    <path id="Path_62308" data-name="Path 62308" d="M1.5,13H3.979V9.108H8.137v-2H3.979V5.076h4.97V2.99H1.5Zm11.284,0h2.478V9.3L18.651,2.99H16.033L14.759,5.58c-.336.686-.686,1.526-.686,1.526h-.028s-.322-.84-.658-1.526L12.1,2.99H9.4L12.785,9.3Zm6.188,0h7.448V11.054H22.249V11.04a28.624,28.624,0,0,1,2.562-2,3.344,3.344,0,0,0,1.6-2.758c0-1.694-1.246-3.066-3.556-3.066a3.572,3.572,0,0,0-3.08,1.316,3.768,3.768,0,0,0-.658,2.436h2.212a2.1,2.1,0,0,1,.434-1.414,1.257,1.257,0,0,1,1.036-.434,1.148,1.148,0,0,1,1.246,1.246,1.565,1.565,0,0,1-.63,1.19c-.756.672-1.876,1.372-2.744,2.114A4.119,4.119,0,0,0,18.973,13Zm12.11.224c2.016,0,3.794-.952,3.794-3.01a2.272,2.272,0,0,0-1.736-2.352V7.834A2.008,2.008,0,0,0,34.6,5.916c0-1.694-1.442-2.7-3.556-2.7-2.38,0-3.71,1.33-3.752,3.234h2.2a1.419,1.419,0,0,1,1.526-1.47c.8,0,1.26.434,1.26,1.092,0,.728-.588,1.12-1.484,1.12h-.518V8.828h.574c1.05,0,1.638.42,1.638,1.26,0,.8-.532,1.33-1.5,1.33a1.618,1.618,0,0,1-1.764-1.736H26.995A3.345,3.345,0,0,0,28.059,12.3,4.387,4.387,0,0,0,31.083,13.224Z" transform="translate(16390 2402.502)" fill="#555"/>
    <path id="Path_62309" data-name="Path 62309" d="M1.424,13H3.9V9.108H8.06v-2H3.9V5.076h4.97V2.99H1.424Zm11.284,0h2.478V9.3L18.574,2.99H15.956L14.682,5.58C14.346,6.266,14,7.106,14,7.106h-.028s-.322-.84-.658-1.526L12.022,2.99H9.32L12.708,9.3ZM18.9,13h7.448V11.054H22.172V11.04a28.624,28.624,0,0,1,2.562-2,3.344,3.344,0,0,0,1.6-2.758c0-1.694-1.246-3.066-3.556-3.066a3.572,3.572,0,0,0-3.08,1.316,3.768,3.768,0,0,0-.658,2.436h2.212a2.1,2.1,0,0,1,.434-1.414,1.257,1.257,0,0,1,1.036-.434,1.148,1.148,0,0,1,1.246,1.246,1.565,1.565,0,0,1-.63,1.19c-.756.672-1.876,1.372-2.744,2.114A4.119,4.119,0,0,0,18.9,13Zm12.446,0h2.3V10.872h1.386V9.08H33.638V3.312H31.314L26.876,8.7v2.17h4.466ZM28.654,9.08V9.052l2.66-3.262h.028V9.08Z" transform="translate(16471 2402.502)" fill="#555"/>
    <path id="Path_62317" data-name="Path 62317" d="M1.473,13H3.951V9.108H8.109v-2H3.951V5.076h4.97V2.99H1.473Zm11.284,0h2.478V9.3L18.623,2.99H16L14.731,5.58c-.336.686-.686,1.526-.686,1.526h-.028s-.322-.84-.658-1.526L12.071,2.99h-2.7L12.757,9.3Zm6.188,0h7.448V11.054H22.221V11.04a28.624,28.624,0,0,1,2.562-2,3.344,3.344,0,0,0,1.6-2.758c0-1.694-1.246-3.066-3.556-3.066a3.572,3.572,0,0,0-3.08,1.316,3.768,3.768,0,0,0-.658,2.436H21.3a2.1,2.1,0,0,1,.434-1.414,1.257,1.257,0,0,1,1.036-.434,1.148,1.148,0,0,1,1.246,1.246,1.565,1.565,0,0,1-.63,1.19c-.756.672-1.876,1.372-2.744,2.114A4.119,4.119,0,0,0,18.945,13Zm12.068.224c2.3,0,3.878-1.372,3.878-3.5a3.164,3.164,0,0,0-3.3-3.29,2.774,2.774,0,0,0-1.862.574H29.7L30.033,5.3h4.256V3.41h-5.95l-.98,5.306h2.212a1.756,1.756,0,0,1,1.372-.588A1.481,1.481,0,0,1,32.511,9.71a1.508,1.508,0,0,1-1.554,1.638,1.558,1.558,0,0,1-1.694-1.218h-2.31C27.177,12.174,28.815,13.224,31.013,13.224Z" transform="translate(16552 2402.502)" fill="#555"/>
    <path id="Path_62310" data-name="Path 62310" d="M2.782,13H5.26V9.108H9.418v-2H5.26V5.076h4.97V2.99H2.782Zm11.284,0h2.478V9.3L19.932,2.99H17.314L16.04,5.58c-.336.686-.686,1.526-.686,1.526h-.028S15,6.266,14.668,5.58L13.38,2.99h-2.7L14.066,9.3Zm6.188,0H27.7V11.054H23.53V11.04a28.624,28.624,0,0,1,2.562-2,3.344,3.344,0,0,0,1.6-2.758c0-1.694-1.246-3.066-3.556-3.066a3.572,3.572,0,0,0-3.08,1.316,3.768,3.768,0,0,0-.658,2.436h2.212a2.1,2.1,0,0,1,.434-1.414,1.257,1.257,0,0,1,1.036-.434,1.148,1.148,0,0,1,1.246,1.246,1.565,1.565,0,0,1-.63,1.19c-.756.672-1.876,1.372-2.744,2.114A4.119,4.119,0,0,0,20.254,13Zm10.388,0h2.366V3.326H31.132a2.407,2.407,0,0,1-2.548,1.946v1.6h2.058Z" transform="translate(16228 2402.502)" fill="#555"/>
    <path id="Path_62302" data-name="Path 62302" d="M17.464,13.224c2.366,0,3.99-1.148,3.99-3.024a2.466,2.466,0,0,0-1.666-2.394V7.764a2.147,2.147,0,0,0,1.26-1.918c0-1.624-1.372-2.632-3.6-2.632s-3.612,1.078-3.612,2.674A2.033,2.033,0,0,0,15.112,7.82v.042a2.556,2.556,0,0,0-1.666,2.394C13.446,12.076,15.084,13.224,17.464,13.224Zm-.014-1.75c-.994,0-1.666-.532-1.666-1.372a1.491,1.491,0,0,1,1.68-1.428A1.446,1.446,0,0,1,19.1,10.1C19.1,10.928,18.43,11.474,17.45,11.474Zm-.014-4.3c-.882,0-1.414-.49-1.414-1.176s.532-1.162,1.414-1.162S18.864,5.314,18.864,6,18.318,7.176,17.436,7.176Zm4.746,8.33a2.552,2.552,0,0,0,1.708-.77,2.624,2.624,0,0,0,.658-1.918v-2.17H22.154V13h1.12a1.481,1.481,0,0,1-1.092,1.54ZM29.616,13h2.3V10.872H33.3V9.08H31.912V3.312H29.588L25.15,8.7v2.17h4.466ZM26.928,9.08V9.052l2.66-3.262h.028V9.08Zm11.186,2.3c-1.288,0-1.82-1.288-1.82-3.164s.532-3.178,1.82-3.178S39.92,6.35,39.92,8.212C39.92,10.1,39.416,11.376,38.114,11.376ZM38.1,13.224c2.548,0,4.256-1.96,4.256-5.012S40.69,3.2,38.114,3.2c-2.52,0-4.242,1.96-4.242,5.012S35.608,13.224,38.1,13.224Zm9.156-1.848c-1.288,0-1.82-1.288-1.82-3.164s.532-3.178,1.82-3.178,1.806,1.316,1.806,3.178C49.062,10.1,48.558,11.376,47.256,11.376Zm-.014,1.848c2.548,0,4.256-1.96,4.256-5.012S49.832,3.2,47.256,3.2c-2.52,0-4.242,1.96-4.242,5.012S44.75,13.224,47.242,13.224Z" transform="translate(16213.5 2191)" fill="#555"/>
    <path id="Path_62311" data-name="Path 62311" d="M13.565,13h2.366V3.326H14.055a2.407,2.407,0,0,1-2.548,1.946v1.6h2.058Zm3.57,0h7.448V11.054H20.411V11.04a28.624,28.624,0,0,1,2.562-2,3.344,3.344,0,0,0,1.6-2.758c0-1.694-1.246-3.066-3.556-3.066a3.572,3.572,0,0,0-3.08,1.316,3.768,3.768,0,0,0-.658,2.436h2.212a2.1,2.1,0,0,1,.434-1.414,1.257,1.257,0,0,1,1.036-.434A1.148,1.148,0,0,1,22.2,6.364a1.565,1.565,0,0,1-.63,1.19c-.756.672-1.876,1.372-2.744,2.114A4.119,4.119,0,0,0,17.135,13Zm8.3,2.506a2.552,2.552,0,0,0,1.708-.77,2.624,2.624,0,0,0,.658-1.918v-2.17H25.409V13h1.12a1.481,1.481,0,0,1-1.092,1.54ZM32.871,13h2.3V10.872h1.386V9.08H35.167V3.312H32.843L28.405,8.7v2.17h4.466ZM30.183,9.08V9.052l2.66-3.262h.028V9.08Zm10.892,4.144c2.016,0,3.794-.952,3.794-3.01a2.272,2.272,0,0,0-1.736-2.352V7.834a2.008,2.008,0,0,0,1.456-1.918c0-1.694-1.442-2.7-3.556-2.7-2.38,0-3.71,1.33-3.752,3.234h2.2a1.419,1.419,0,0,1,1.526-1.47c.8,0,1.26.434,1.26,1.092,0,.728-.588,1.12-1.484,1.12h-.518V8.828h.574c1.05,0,1.638.42,1.638,1.26,0,.8-.532,1.33-1.5,1.33a1.618,1.618,0,0,1-1.764-1.736H36.987A3.345,3.345,0,0,0,38.051,12.3,4.387,4.387,0,0,0,41.075,13.224ZM49.937,13h2.3V10.872h1.386V9.08H52.233V3.312H49.909L45.471,8.7v2.17h4.466ZM47.249,9.08V9.052l2.66-3.262h.028V9.08Z" transform="translate(16294.5 2103)" fill="#555"/>
    <path id="Path_62312" data-name="Path 62312" d="M13.621,13h2.366V3.326H14.111a2.407,2.407,0,0,1-2.548,1.946v1.6h2.058Zm8.022,0h2.3V10.872h1.386V9.08H23.939V3.312H21.615L17.177,8.7v2.17h4.466ZM18.955,9.08V9.052l2.66-3.262h.028V9.08Zm7.084,6.426a2.552,2.552,0,0,0,1.708-.77,2.624,2.624,0,0,0,.658-1.918v-2.17H26.011V13h1.12a1.481,1.481,0,0,1-1.092,1.54Zm7.1-2.282c2.366,0,3.99-1.148,3.99-3.024a2.466,2.466,0,0,0-1.666-2.394V7.764a2.147,2.147,0,0,0,1.26-1.918c0-1.624-1.372-2.632-3.6-2.632s-3.612,1.078-3.612,2.674A2.033,2.033,0,0,0,30.785,7.82v.042a2.556,2.556,0,0,0-1.666,2.394C29.119,12.076,30.757,13.224,33.137,13.224Zm-.014-1.75c-.994,0-1.666-.532-1.666-1.372a1.491,1.491,0,0,1,1.68-1.428A1.446,1.446,0,0,1,34.775,10.1C34.775,10.928,34.1,11.474,33.123,11.474Zm-.014-4.3c-.882,0-1.414-.49-1.414-1.176s.532-1.162,1.414-1.162S34.537,5.314,34.537,6,33.991,7.176,33.109,7.176ZM38.877,13h2.464a11.752,11.752,0,0,1,3.3-7.77V3.41h-7.1v2h4.62V5.44A11.7,11.7,0,0,0,38.877,13Zm10.36-1.624c-1.288,0-1.82-1.288-1.82-3.164s.532-3.178,1.82-3.178,1.806,1.316,1.806,3.178C51.043,10.1,50.539,11.376,49.237,11.376Zm-.014,1.848c2.548,0,4.256-1.96,4.256-5.012S51.813,3.2,49.237,3.2c-2.52,0-4.242,1.96-4.242,5.012S46.731,13.224,49.223,13.224Z" transform="translate(16375.5 2072)" fill="#555"/>
    <path id="Path_62313" data-name="Path 62313" d="M15.483,13h2.366V3.326H15.973a2.407,2.407,0,0,1-2.548,1.946v1.6h2.058Zm7.546.224c2.016,0,3.794-.952,3.794-3.01a2.272,2.272,0,0,0-1.736-2.352V7.834a2.008,2.008,0,0,0,1.456-1.918c0-1.694-1.442-2.7-3.556-2.7-2.38,0-3.71,1.33-3.752,3.234h2.2a1.419,1.419,0,0,1,1.526-1.47c.8,0,1.26.434,1.26,1.092,0,.728-.588,1.12-1.484,1.12h-.518V8.828h.574c1.05,0,1.638.42,1.638,1.26,0,.8-.532,1.33-1.5,1.33a1.618,1.618,0,0,1-1.764-1.736H18.941A3.345,3.345,0,0,0,20,12.3,4.387,4.387,0,0,0,23.029,13.224Zm4.578,2.282a2.552,2.552,0,0,0,1.708-.77,2.624,2.624,0,0,0,.658-1.918v-2.17H27.579V13H28.7a1.481,1.481,0,0,1-1.092,1.54ZM31.653,13h2.366V3.326H32.143a2.407,2.407,0,0,1-2.548,1.946v1.6h2.058Zm7.546.224c2.016,0,3.794-.952,3.794-3.01a2.272,2.272,0,0,0-1.736-2.352V7.834a2.008,2.008,0,0,0,1.456-1.918c0-1.694-1.442-2.7-3.556-2.7-2.38,0-3.71,1.33-3.752,3.234h2.2a1.419,1.419,0,0,1,1.526-1.47c.8,0,1.26.434,1.26,1.092,0,.728-.588,1.12-1.484,1.12h-.518V8.828h.574c1.05,0,1.638.42,1.638,1.26,0,.8-.532,1.33-1.5,1.33a1.618,1.618,0,0,1-1.764-1.736H35.111A3.345,3.345,0,0,0,36.175,12.3,4.387,4.387,0,0,0,39.2,13.224Zm8.33,0a3.641,3.641,0,0,0,3.08-1.358A6.2,6.2,0,0,0,51.6,8.142a5.124,5.124,0,0,0-1.26-3.85,3.977,3.977,0,0,0-2.884-1.078c-2.24,0-3.864,1.372-3.864,3.416a3.331,3.331,0,0,0,3.5,3.388,2.758,2.758,0,0,0,2.142-.938h.028a3.145,3.145,0,0,1-.546,1.9,1.478,1.478,0,0,1-1.246.546,1.279,1.279,0,0,1-1.344-.91h-2.24C44.155,12.16,45.457,13.224,47.529,13.224Zm-.014-4.942a1.591,1.591,0,0,1-1.68-1.666,1.611,1.611,0,0,1,1.68-1.652A1.629,1.629,0,0,1,49.223,6.63,1.626,1.626,0,0,1,47.515,8.282Z" transform="translate(16456.5 2090)" fill="#555"/>
    <path id="Path_62316" data-name="Path 62316" d="M13.467,13h2.366V3.326H13.957a2.407,2.407,0,0,1-2.548,1.946v1.6h2.058Zm8.022,0h2.3V10.872h1.386V9.08H23.785V3.312H21.461L17.023,8.7v2.17h4.466ZM18.8,9.08V9.052l2.66-3.262h.028V9.08Zm7.084,6.426a2.552,2.552,0,0,0,1.708-.77,2.624,2.624,0,0,0,.658-1.918v-2.17H25.857V13h1.12a1.481,1.481,0,0,1-1.092,1.54Zm7.028-2.282c2.2,0,3.808-1.372,3.808-3.416a3.356,3.356,0,0,0-3.458-3.4,2.8,2.8,0,0,0-2.2.91h-.028c.07-1.54.714-2.422,1.89-2.422a1.169,1.169,0,0,1,1.26.882h2.254c-.294-1.554-1.554-2.562-3.542-2.562a3.8,3.8,0,0,0-3.038,1.232A5.59,5.59,0,0,0,28.7,8.282C28.713,11.138,30.1,13.224,32.913,13.224Zm-.084-1.764a1.588,1.588,0,0,1-1.666-1.638,1.591,1.591,0,0,1,1.666-1.68,1.619,1.619,0,0,1,1.652,1.68A1.592,1.592,0,0,1,32.829,11.46Zm8.33,1.764a3.641,3.641,0,0,0,3.08-1.358,6.2,6.2,0,0,0,.994-3.724,5.124,5.124,0,0,0-1.26-3.85,3.977,3.977,0,0,0-2.884-1.078c-2.24,0-3.864,1.372-3.864,3.416a3.331,3.331,0,0,0,3.5,3.388,2.758,2.758,0,0,0,2.142-.938H42.9a3.145,3.145,0,0,1-.546,1.9,1.478,1.478,0,0,1-1.246.546,1.279,1.279,0,0,1-1.344-.91h-2.24C37.785,12.16,39.087,13.224,41.159,13.224Zm-.014-4.942a1.591,1.591,0,0,1-1.68-1.666,1.611,1.611,0,0,1,1.68-1.652A1.629,1.629,0,0,1,42.853,6.63,1.626,1.626,0,0,1,41.145,8.282Zm8.708,4.942c2.016,0,3.794-.952,3.794-3.01a2.272,2.272,0,0,0-1.736-2.352V7.834a2.008,2.008,0,0,0,1.456-1.918c0-1.694-1.442-2.7-3.556-2.7-2.38,0-3.71,1.33-3.752,3.234h2.2a1.419,1.419,0,0,1,1.526-1.47c.8,0,1.26.434,1.26,1.092,0,.728-.588,1.12-1.484,1.12h-.518V8.828h.574c1.05,0,1.638.42,1.638,1.26,0,.8-.532,1.33-1.5,1.33a1.618,1.618,0,0,1-1.764-1.736H45.765A3.345,3.345,0,0,0,46.829,12.3,4.387,4.387,0,0,0,49.853,13.224Z" transform="translate(16534.5 2072)" fill="#555"/>
    <path id="Path_62314" data-name="Path 62314" d="M15.658,2.99V9.766c0,2.366,1.5,3.374,3.584,3.374,2.044,0,3.612-.98,3.612-3.374V2.99h-.448V9.738c0,2.184-1.358,3.01-3.15,3.01-1.862,0-3.15-.826-3.15-3.01V2.99Zm9.128,2.772h-.42V13h.42V8.142a2.378,2.378,0,0,1,2.562-2.114,1.687,1.687,0,0,1,1.9,1.834V13h.42V7.82a2.06,2.06,0,0,0-2.254-2.17,2.845,2.845,0,0,0-2.6,1.414h-.028Zm6.762,0h-.42V13h.42Zm0-2.7h-.42V4h.42Zm1.008,3.066h1.05V11.88c0,.812.406,1.19,1.232,1.19a2.456,2.456,0,0,0,.756-.112v-.364h-.028a1.965,1.965,0,0,1-.658.112c-.644,0-.882-.266-.882-.854V6.126h1.582V5.762H34.026V3.522h-.42v2.24h-1.05ZM37.19,7.61h-.518v.924h.518Zm0,4.466h-.518V13h.518Zm3.925-8.817h5.571v.014a9.087,9.087,0,0,1-.561.923H44.642a2.35,2.35,0,0,1,.417.991h1.586q.027.007.027.027-.533.9-.547.909H45.1a2.966,2.966,0,0,1-.39,1.121,2.61,2.61,0,0,1-.916.861,3.244,3.244,0,0,1-1.545.438v.014a2.549,2.549,0,0,0,.362.54l2.748,3.767v.178a.024.024,0,0,1-.027.027h-1.21q-3.268-4.313-3.268-4.334V7.859l.014-.034a4.172,4.172,0,0,0,.677.048,2.1,2.1,0,0,0,2.276-1.347,1.229,1.229,0,0,0,.068-.4H40.582q-.027,0-.027-.034.547-.9.561-.9h2.632V5.173a1.628,1.628,0,0,0-.875-.807,2.45,2.45,0,0,0-.834-.171h-1.47V4.161Q41.1,3.259,41.115,3.259Zm14.527,7.305a2.409,2.409,0,0,1-2.59,2.2c-1.708,0-2.828-1.386-2.828-3.388s1.12-3.36,2.828-3.36a2.338,2.338,0,0,1,2.52,1.89h.42a2.725,2.725,0,0,0-2.94-2.268c-2.072,0-3.248,1.652-3.248,3.738s1.176,3.766,3.248,3.766a2.779,2.779,0,0,0,3-2.576Zm4.55-4.816a2.219,2.219,0,0,0-.938.1A2.337,2.337,0,0,0,57.5,7.232h-.028V5.762h-.42V13h.42V8.464a2.352,2.352,0,0,1,1.918-2.282,2.547,2.547,0,0,1,.8-.028Zm3.472,7.392c2.072,0,3.29-1.68,3.29-3.766s-1.218-3.738-3.29-3.738-3.29,1.666-3.29,3.738S61.606,13.14,63.664,13.14Zm0-.364c-1.666,0-2.87-1.372-2.87-3.4S62,6,63.664,6,66.52,7.344,66.52,9.374,65.33,12.776,63.664,12.776ZM71.2,5.748a2.219,2.219,0,0,0-.938.1,2.337,2.337,0,0,0-1.75,1.386H68.48V5.762h-.42V13h.42V8.464A2.352,2.352,0,0,1,70.4,6.182a2.547,2.547,0,0,1,.8-.028ZM77.664,9.36a3.942,3.942,0,0,0-1.19-3.08,2.805,2.805,0,0,0-1.862-.644c-2.016,0-3.234,1.6-3.234,3.7,0,2.2,1.148,3.808,3.29,3.808a2.809,2.809,0,0,0,2.912-2.268h-.42a2.4,2.4,0,0,1-2.492,1.89c-1.876,0-2.856-1.442-2.87-3.4Zm-.434-.35H71.812a2.84,2.84,0,0,1,2.8-3C76.1,6.014,77.118,7.078,77.23,9.01Z" transform="translate(16524.5 2009)" fill="#555"/>
  </g>
</svg>
