<svg xmlns="http://www.w3.org/2000/svg" xmlns:xlink="http://www.w3.org/1999/xlink" width="312" height="326.206" viewBox="0 0 312 326.206">
  <defs>
    <linearGradient id="linear-gradient" x2="1" y2="0.5" gradientUnits="objectBoundingBox">
      <stop offset="0" stop-color="#056380"/>
      <stop offset="0.498" stop-color="#06b0e3"/>
      <stop offset="1" stop-color="#40d4dc"/>
    </linearGradient>
  </defs>
  <g id="Group_157995" data-name="Group 157995" transform="translate(-15741.65 -2079.794)">
    <g id="Group_157994" data-name="Group 157994">
      <path id="Path_62290" data-name="Path 62290" d="M3.419,0H4.1V-4.108L7.462-9.3H6.734L3.783-4.745H3.757L.806-9.3H.065L3.419-4.134Zm8.8-3.289a3.67,3.67,0,0,0-.975-2.925,2.5,2.5,0,0,0-1.768-.65c-1.833,0-2.99,1.443-2.99,3.51S7.553.169,9.529.169A2.575,2.575,0,0,0,12.181-2H11.57A1.982,1.982,0,0,1,9.529-.39c-1.651,0-2.379-1.287-2.392-2.9Zm-.65-.52H7.15c.13-1.417.871-2.509,2.327-2.509C10.959-6.318,11.531-5.135,11.57-3.809ZM18.343.1a1.119,1.119,0,0,0,.52-.1V-.468h-.039a1.03,1.03,0,0,1-.312.065c-.234,0-.429-.1-.429-.468V-4.823c0-1.378-.832-2.041-2.327-2.041-1.677,0-2.548.754-2.678,2.054h.65c.091-.988.767-1.508,2.028-1.508,1.092,0,1.69.442,1.69,1.456v.234c0,.624-.364.7-1.95.858-1.4.143-2.652.468-2.652,2.067,0,1.235.91,1.872,2.145,1.872A2.758,2.758,0,0,0,17.42-1.04h.039v.234A.815.815,0,0,0,18.343.1ZM15.054-.364c-.858,0-1.56-.364-1.56-1.313,0-1.274.9-1.43,2.08-1.56a6.148,6.148,0,0,0,1.872-.4v1.248A2.176,2.176,0,0,1,15.054-.364Zm5.174-6.357h-.637V0h.637V-3.887a2.238,2.238,0,0,1,1.261-2.08,2.143,2.143,0,0,1,.949-.156V-6.76a2.209,2.209,0,0,0-1.235.3A2.46,2.46,0,0,0,20.254-5.4h-.026Z" transform="translate(15789.65 2139)"/>
      <path id="Path_62291" data-name="Path 62291" d="M.806,0h.676V-4.3h2.99c1.43,0,1.989.455,2.054,2.223.065,1.612.13,1.963.338,2.08h.728V-.052c-.169-.117-.338-.494-.39-1.989S6.838-4.264,5.876-4.576v-.039A2.052,2.052,0,0,0,7.4-6.812,2.275,2.275,0,0,0,4.823-9.3H.806Zm.676-8.7H4.745c1.43,0,1.963.728,1.963,1.911C6.708-5.577,5.98-4.9,4.6-4.9H1.482ZM13.923-3.289a3.67,3.67,0,0,0-.975-2.925,2.5,2.5,0,0,0-1.768-.65c-1.833,0-2.99,1.443-2.99,3.51S9.256.169,11.232.169A2.575,2.575,0,0,0,13.884-2h-.611A1.982,1.982,0,0,1,11.232-.39c-1.651,0-2.379-1.287-2.392-2.9Zm-.65-.52H8.853c.13-1.417.871-2.509,2.327-2.509C12.662-6.318,13.234-5.135,13.273-3.809ZM16.562,0h.793l2.457-6.721h-.65L17.6-2.457c-.247.689-.637,1.885-.637,1.885h-.026s-.377-1.2-.611-1.885L14.846-6.721H14.17Zm9.23-3.289a3.67,3.67,0,0,0-.975-2.925,2.5,2.5,0,0,0-1.768-.65c-1.833,0-2.99,1.443-2.99,3.51S21.125.169,23.1.169A2.575,2.575,0,0,0,25.753-2h-.611A1.982,1.982,0,0,1,23.1-.39c-1.651,0-2.379-1.287-2.392-2.9Zm-.65-.52h-4.42c.13-1.417.871-2.509,2.327-2.509C24.531-6.318,25.1-5.135,25.142-3.809ZM27.4-6.721h-.637V0H27.4V-4.342a2.127,2.127,0,0,1,2.249-1.963,1.385,1.385,0,0,1,1.534,1.573V0h.637V-4.8A1.93,1.93,0,0,0,29.77-6.851,2.615,2.615,0,0,0,27.43-5.59H27.4ZM38,0V-6.721h-.637V-2.47A2.027,2.027,0,0,1,35.3-.39a1.451,1.451,0,0,1-1.638-1.6V-6.721H33.02v4.8A1.986,1.986,0,0,0,35.178.156a2.394,2.394,0,0,0,2.158-1.183h.026V0Zm6.708-3.289a3.67,3.67,0,0,0-.975-2.925,2.5,2.5,0,0,0-1.768-.65c-1.833,0-2.99,1.443-2.99,3.51S40.04.169,42.016.169A2.575,2.575,0,0,0,44.668-2h-.611A1.982,1.982,0,0,1,42.016-.39c-1.651,0-2.379-1.287-2.392-2.9Zm-.65-.52h-4.42c.13-1.417.871-2.509,2.327-2.509C43.446-6.318,44.018-5.135,44.057-3.809Z" transform="translate(15963.65 2139)"/>
      <path id="Path_62292" data-name="Path 62292" d="M.77,0H2.8V-4.144H7.154V-5.88H2.8V-8.288H7.938V-10.01H.77Zm11,0H13.8V-3.864l3.332-6.146H15.008L13.524-7.042c-.294.6-.672,1.428-.672,1.428h-.028s-.35-.826-.658-1.428L10.654-10.01H8.442l3.332,6.146Zm5.782,0h6.888V-1.568H20.02a5.835,5.835,0,0,1,1.932-1.708C23.128-4.06,24.36-4.914,24.36-6.72A3.024,3.024,0,0,0,21.1-9.786c-2.282,0-3.4,1.386-3.4,3.57h1.792c.028-1.246.6-1.946,1.568-1.946a1.315,1.315,0,0,1,1.33,1.5c0,1.232-1.316,1.9-2.52,2.856A5.032,5.032,0,0,0,17.556,0ZM28.9.21a3.459,3.459,0,0,0,3.71-3.4,3.22,3.22,0,0,0-3.248-3.346,3.031,3.031,0,0,0-1.988.6h-.028l.364-2.072h4.326V-9.59H26.376l-.924,5.236h1.834a2.091,2.091,0,0,1,1.568-.6,1.664,1.664,0,0,1,1.778,1.764,1.712,1.712,0,0,1-1.778,1.806,1.762,1.762,0,0,1-1.946-1.386H25.032C25.214-.91,26.768.21,28.9.21Z" transform="translate(15789.65 2379)"/>
      <path id="Path_62293" data-name="Path 62293" d="M2.548,0H4.466V-9.66H2.8C2.6-8.428,1.554-7.994.378-7.952v1.26h2.17Zm7.7,0H12.11V-2.086h1.456V-3.612H12.11V-9.7H10.178L5.824-4.144v2.058h4.424ZM7.364-3.654,10.22-7.336h.028v3.724H7.364Zm6.972,5.978a2.37,2.37,0,0,0,2.03-2.436V-2.03H14.322V0h1.022a1.73,1.73,0,0,1-1.008,1.638ZM20.93.21A3.378,3.378,0,0,0,24.5-3.15a3.327,3.327,0,0,0-3.332-3.43,2.7,2.7,0,0,0-2.254.994h-.028c0-1.694.672-2.744,2.072-2.744a1.287,1.287,0,0,1,1.4,1.022h1.834a3.032,3.032,0,0,0-3.3-2.478A3.4,3.4,0,0,0,18.13-8.68a5.829,5.829,0,0,0-1.176,4.032C16.982-2.044,18.186.21,20.93.21Zm-.07-1.5a1.779,1.779,0,0,1-1.848-1.848,1.767,1.767,0,0,1,1.862-1.9A1.821,1.821,0,0,1,22.68-3.122,1.794,1.794,0,0,1,20.86-1.288ZM28.868.21C31.682.21,32.7-1.862,32.7-4.928c0-3.248-1.428-4.858-3.976-4.858a3.382,3.382,0,0,0-3.612,3.36,3.263,3.263,0,0,0,3.43,3.374A2.771,2.771,0,0,0,30.772-4.1H30.8a3.768,3.768,0,0,1-.6,2.254,1.64,1.64,0,0,1-1.386.6A1.383,1.383,0,0,1,27.356-2.3H25.508C25.718-.854,26.866.21,28.868.21Zm-.056-4.8a1.753,1.753,0,0,1-1.876-1.862,1.811,1.811,0,0,1,1.89-1.834,1.832,1.832,0,0,1,1.918,1.862A1.813,1.813,0,0,1,28.812-4.592Zm8.3,4.8c1.974,0,3.612-.966,3.612-2.954A2.3,2.3,0,0,0,38.78-5.152V-5.18A2.066,2.066,0,0,0,40.418-7.2c0-1.6-1.288-2.59-3.29-2.59a3.123,3.123,0,0,0-3.486,3.164h1.82A1.584,1.584,0,0,1,37.128-8.33a1.226,1.226,0,0,1,1.358,1.26c0,.812-.644,1.274-1.554,1.274h-.546v1.442h.588c1.176,0,1.764.56,1.764,1.484a1.491,1.491,0,0,1-1.694,1.554c-1.316,0-1.82-.8-1.89-1.946h-1.82C33.362-1.162,34.636.21,37.114.21Z" transform="translate(15966.65 2379)"/>
      <path id="Path_62294" data-name="Path 62294" d="M.77,0H2.8V-4.144H7.154V-5.88H2.8V-8.288H7.938V-10.01H.77Zm11,0H13.8V-3.864l3.332-6.146H15.008L13.524-7.042c-.294.6-.672,1.428-.672,1.428h-.028s-.35-.826-.658-1.428L10.654-10.01H8.442l3.332,6.146Zm5.782,0h6.888V-1.568H20.02a5.835,5.835,0,0,1,1.932-1.708C23.128-4.06,24.36-4.914,24.36-6.72A3.024,3.024,0,0,0,21.1-9.786c-2.282,0-3.4,1.386-3.4,3.57h1.792c.028-1.246.6-1.946,1.568-1.946a1.315,1.315,0,0,1,1.33,1.5c0,1.232-1.316,1.9-2.52,2.856A5.032,5.032,0,0,0,17.556,0ZM29.4,0h1.862V-2.086h1.456V-3.612H31.262V-9.7H29.33L24.976-4.144v2.058H29.4ZM26.516-3.654l2.856-3.682H29.4v3.724H26.516Z" transform="translate(15789.65 2331)"/>
      <path id="Path_62295" data-name="Path 62295" d="M2.548,0H4.466V-9.66H2.8C2.6-8.428,1.554-7.994.378-7.952v1.26h2.17Zm6.93.21c1.974,0,3.612-.966,3.612-2.954a2.3,2.3,0,0,0-1.946-2.408V-5.18A2.066,2.066,0,0,0,12.782-7.2c0-1.6-1.288-2.59-3.29-2.59A3.123,3.123,0,0,0,6.006-6.622h1.82A1.584,1.584,0,0,1,9.492-8.33,1.226,1.226,0,0,1,10.85-7.07c0,.812-.644,1.274-1.554,1.274H8.75v1.442h.588c1.176,0,1.764.56,1.764,1.484A1.491,1.491,0,0,1,9.408-1.316c-1.316,0-1.82-.8-1.89-1.946H5.7C5.726-1.162,7,.21,9.478.21Zm4.466,2.114a2.37,2.37,0,0,0,2.03-2.436V-2.03H13.93V0h1.022a1.73,1.73,0,0,1-1.008,1.638ZM17.766,0h1.918V-9.66H18.018c-.2,1.232-1.246,1.666-2.422,1.708v1.26h2.17ZM24.7.21c1.974,0,3.612-.966,3.612-2.954a2.3,2.3,0,0,0-1.946-2.408V-5.18A2.066,2.066,0,0,0,28-7.2c0-1.6-1.288-2.59-3.29-2.59a3.123,3.123,0,0,0-3.486,3.164h1.82A1.584,1.584,0,0,1,24.71-8.33a1.226,1.226,0,0,1,1.358,1.26c0,.812-.644,1.274-1.554,1.274h-.546v1.442h.588c1.176,0,1.764.56,1.764,1.484a1.491,1.491,0,0,1-1.694,1.554c-1.316,0-1.82-.8-1.89-1.946h-1.82C20.944-1.162,22.218.21,24.7.21Zm8.05,0c2.814,0,3.836-2.072,3.836-5.138,0-3.248-1.428-4.858-3.976-4.858a3.382,3.382,0,0,0-3.612,3.36,3.263,3.263,0,0,0,3.43,3.374A2.771,2.771,0,0,0,34.65-4.1h.028a3.768,3.768,0,0,1-.6,2.254,1.64,1.64,0,0,1-1.386.6A1.383,1.383,0,0,1,31.234-2.3H29.386C29.6-.854,30.744.21,32.746.21Zm-.056-4.8a1.753,1.753,0,0,1-1.876-1.862A1.811,1.811,0,0,1,32.7-8.288a1.832,1.832,0,0,1,1.918,1.862A1.813,1.813,0,0,1,32.69-4.592Z" transform="translate(15966.65 2331)"/>
      <path id="Path_62296" data-name="Path 62296" d="M.77,0H2.8V-4.144H7.154V-5.88H2.8V-8.288H7.938V-10.01H.77Zm11,0H13.8V-3.864l3.332-6.146H15.008L13.524-7.042c-.294.6-.672,1.428-.672,1.428h-.028s-.35-.826-.658-1.428L10.654-10.01H8.442l3.332,6.146Zm5.782,0h6.888V-1.568H20.02a5.835,5.835,0,0,1,1.932-1.708C23.128-4.06,24.36-4.914,24.36-6.72A3.024,3.024,0,0,0,21.1-9.786c-2.282,0-3.4,1.386-3.4,3.57h1.792c.028-1.246.6-1.946,1.568-1.946a1.315,1.315,0,0,1,1.33,1.5c0,1.232-1.316,1.9-2.52,2.856A5.032,5.032,0,0,0,17.556,0ZM28.84.21c1.974,0,3.612-.966,3.612-2.954a2.3,2.3,0,0,0-1.946-2.408V-5.18A2.066,2.066,0,0,0,32.144-7.2c0-1.6-1.288-2.59-3.29-2.59a3.123,3.123,0,0,0-3.486,3.164h1.82A1.584,1.584,0,0,1,28.854-8.33a1.226,1.226,0,0,1,1.358,1.26c0,.812-.644,1.274-1.554,1.274h-.546v1.442H28.7c1.176,0,1.764.56,1.764,1.484A1.491,1.491,0,0,1,28.77-1.316c-1.316,0-1.82-.8-1.89-1.946H25.06C25.088-1.162,26.362.21,28.84.21Z" transform="translate(15789.65 2283)"/>
      <path id="Path_62297" data-name="Path 62297" d="M2.548,0H4.466V-9.66H2.8C2.6-8.428,1.554-7.994.378-7.952v1.26h2.17Zm7.7,0H12.11V-2.086h1.456V-3.612H12.11V-9.7H10.178L5.824-4.144v2.058h4.424ZM7.364-3.654,10.22-7.336h.028v3.724H7.364Zm6.972,5.978a2.37,2.37,0,0,0,2.03-2.436V-2.03H14.322V0h1.022a1.73,1.73,0,0,1-1.008,1.638ZM21.1.21c2.17,0,3.808-1.092,3.808-3.066a2.522,2.522,0,0,0-1.736-2.45v-.042A2.06,2.06,0,0,0,24.5-7.266c0-1.61-1.344-2.52-3.416-2.52S17.6-8.862,17.6-7.238a1.99,1.99,0,0,0,1.344,1.9v.042a2.641,2.641,0,0,0-1.75,2.52C17.192-.84,18.928.21,21.1.21Zm-.042-1.54c-1.162,0-1.89-.574-1.89-1.512,0-.98.742-1.624,1.918-1.624s1.862.644,1.862,1.624C22.946-1.932,22.176-1.33,21.056-1.33Zm0-4.466c-1.008,0-1.6-.532-1.6-1.288s.588-1.26,1.6-1.26,1.582.5,1.582,1.26S22.05-5.8,21.056-5.8Zm5.6,5.8h2.072a12.211,12.211,0,0,1,3.458-8.022V-9.59H25.354v1.638h4.76v.028A12.5,12.5,0,0,0,26.656,0ZM36.722.224c2.492,0,4-1.96,4-5.012,0-3.08-1.512-5.012-3.99-5.012-2.436,0-4.018,1.946-4.018,5.012S34.272.224,36.722.224ZM36.736-1.4c-1.428,0-2.03-1.358-2.03-3.388s.6-3.388,2.03-3.388,2,1.358,2,3.388C38.738-2.73,38.164-1.4,36.736-1.4Z" transform="translate(15966.65 2283)"/>
      <path id="Path_62298" data-name="Path 62298" d="M.77,0H2.8V-4.144H7.154V-5.88H2.8V-8.288H7.938V-10.01H.77Zm11,0H13.8V-3.864l3.332-6.146H15.008L13.524-7.042c-.294.6-.672,1.428-.672,1.428h-.028s-.35-.826-.658-1.428L10.654-10.01H8.442l3.332,6.146Zm5.782,0h6.888V-1.568H20.02a5.835,5.835,0,0,1,1.932-1.708C23.128-4.06,24.36-4.914,24.36-6.72A3.024,3.024,0,0,0,21.1-9.786c-2.282,0-3.4,1.386-3.4,3.57h1.792c.028-1.246.6-1.946,1.568-1.946a1.315,1.315,0,0,1,1.33,1.5c0,1.232-1.316,1.9-2.52,2.856A5.032,5.032,0,0,0,17.556,0Zm7.728,0h6.888V-1.568H27.748A5.835,5.835,0,0,1,29.68-3.276c1.176-.784,2.408-1.638,2.408-3.444a3.024,3.024,0,0,0-3.262-3.066c-2.282,0-3.4,1.386-3.4,3.57h1.792c.028-1.246.6-1.946,1.568-1.946a1.315,1.315,0,0,1,1.33,1.5c0,1.232-1.316,1.9-2.52,2.856A5.032,5.032,0,0,0,25.284,0Z" transform="translate(15789.65 2236)"/>
      <path id="Path_62299" data-name="Path 62299" d="M2.548,0H4.466V-9.66H2.8C2.6-8.428,1.554-7.994.378-7.952v1.26h2.17Zm3.3,0H12.74V-1.568H8.316a5.835,5.835,0,0,1,1.932-1.708c1.176-.784,2.408-1.638,2.408-3.444A3.024,3.024,0,0,0,9.394-9.786c-2.282,0-3.4,1.386-3.4,3.57H7.784c.028-1.246.6-1.946,1.568-1.946a1.315,1.315,0,0,1,1.33,1.5c0,1.232-1.316,1.9-2.52,2.856A5.032,5.032,0,0,0,5.852,0Zm7.812,2.324a2.37,2.37,0,0,0,2.03-2.436V-2.03H13.65V0h1.022a1.73,1.73,0,0,1-1.008,1.638ZM20.748,0H22.61V-2.086h1.456V-3.612H22.61V-9.7H20.678L16.324-4.144v2.058h4.424ZM17.864-3.654,20.72-7.336h.028v3.724H17.864ZM28.308.21c1.974,0,3.612-.966,3.612-2.954a2.3,2.3,0,0,0-1.946-2.408V-5.18A2.066,2.066,0,0,0,31.612-7.2c0-1.6-1.288-2.59-3.29-2.59a3.123,3.123,0,0,0-3.486,3.164h1.82A1.584,1.584,0,0,1,28.322-8.33,1.226,1.226,0,0,1,29.68-7.07c0,.812-.644,1.274-1.554,1.274H27.58v1.442h.588c1.176,0,1.764.56,1.764,1.484a1.491,1.491,0,0,1-1.694,1.554c-1.316,0-1.82-.8-1.89-1.946h-1.82C24.556-1.162,25.83.21,28.308.21ZM37.016,0h1.862V-2.086h1.456V-3.612H38.878V-9.7H36.946L32.592-4.144v2.058h4.424ZM34.132-3.654l2.856-3.682h.028v3.724H34.132Z" transform="translate(15966.65 2236)"/>
      <path id="Path_62300" data-name="Path 62300" d="M.77,0H2.8V-4.144H7.154V-5.88H2.8V-8.288H7.938V-10.01H.77Zm11,0H13.8V-3.864l3.332-6.146H15.008L13.524-7.042c-.294.6-.672,1.428-.672,1.428h-.028s-.35-.826-.658-1.428L10.654-10.01H8.442l3.332,6.146Zm5.782,0h6.888V-1.568H20.02a5.835,5.835,0,0,1,1.932-1.708C23.128-4.06,24.36-4.914,24.36-6.72A3.024,3.024,0,0,0,21.1-9.786c-2.282,0-3.4,1.386-3.4,3.57h1.792c.028-1.246.6-1.946,1.568-1.946a1.315,1.315,0,0,1,1.33,1.5c0,1.232-1.316,1.9-2.52,2.856A5.032,5.032,0,0,0,17.556,0Zm9.912,0h1.918V-9.66H27.72c-.2,1.232-1.246,1.666-2.422,1.708v1.26h2.17Z" transform="translate(15789.65 2188)"/>
      <path id="Path_62301" data-name="Path 62301" d="M4.228.21C6.4.21,8.036-.882,8.036-2.856A2.522,2.522,0,0,0,6.3-5.306v-.042A2.06,2.06,0,0,0,7.63-7.266c0-1.61-1.344-2.52-3.416-2.52S.728-8.862.728-7.238a1.99,1.99,0,0,0,1.344,1.9v.042a2.641,2.641,0,0,0-1.75,2.52C.322-.84,2.058.21,4.228.21ZM4.186-1.33C3.024-1.33,2.3-1.9,2.3-2.842c0-.98.742-1.624,1.918-1.624s1.862.644,1.862,1.624C6.076-1.932,5.306-1.33,4.186-1.33Zm0-4.466c-1.008,0-1.6-.532-1.6-1.288s.588-1.26,1.6-1.26,1.582.5,1.582,1.26S5.18-5.8,4.186-5.8Zm4.69,8.12a2.37,2.37,0,0,0,2.03-2.436V-2.03H8.862V0H9.884A1.73,1.73,0,0,1,8.876,1.638ZM15.96,0h1.862V-2.086h1.456V-3.612H17.822V-9.7H15.89L11.536-4.144v2.058H15.96ZM13.076-3.654l2.856-3.682h.028v3.724H13.076ZM23.954.224c2.492,0,4-1.96,4-5.012,0-3.08-1.512-5.012-3.99-5.012-2.436,0-4.018,1.946-4.018,5.012S21.5.224,23.954.224ZM23.968-1.4c-1.428,0-2.03-1.358-2.03-3.388s.6-3.388,2.03-3.388,2,1.358,2,3.388C25.97-2.73,25.4-1.4,23.968-1.4ZM32.8.224c2.492,0,4-1.96,4-5.012,0-3.08-1.512-5.012-3.99-5.012C30.38-9.8,28.8-7.854,28.8-4.788S30.352.224,32.8.224ZM32.816-1.4c-1.428,0-2.03-1.358-2.03-3.388s.6-3.388,2.03-3.388,2,1.358,2,3.388C34.818-2.73,34.244-1.4,32.816-1.4Z" transform="translate(15966.65 2188)"/>
      <path id="Path_62288" data-name="Path 62288" d="M12.582,2.99V9.766c0,2.366,1.5,3.374,3.584,3.374,2.044,0,3.612-.98,3.612-3.374V2.99H19.33V9.738c0,2.184-1.358,3.01-3.15,3.01-1.862,0-3.15-.826-3.15-3.01V2.99ZM21.71,5.762h-.42V13h.42V8.142a2.378,2.378,0,0,1,2.562-2.114,1.687,1.687,0,0,1,1.9,1.834V13h.42V7.82a2.06,2.06,0,0,0-2.254-2.17,2.845,2.845,0,0,0-2.6,1.414H21.71Zm6.762,0h-.42V13h.42Zm0-2.7h-.42V4h.42ZM29.48,6.126h1.05V11.88c0,.812.406,1.19,1.232,1.19a2.456,2.456,0,0,0,.756-.112v-.364H32.49a1.965,1.965,0,0,1-.658.112c-.644,0-.882-.266-.882-.854V6.126h1.582V5.762H30.95V3.522h-.42v2.24H29.48ZM34.114,7.61H33.6v.924h.518Zm0,4.466H33.6V13h.518Zm3.48-9.282H44.17v.014a10.2,10.2,0,0,1-.656.957H41.757A2.3,2.3,0,0,1,42.249,4.8h1.873q.034.007.034.027-.629.943-.643.943H42.3a2.791,2.791,0,0,1-.465,1.169,2.856,2.856,0,0,1-1.073.9,4.244,4.244,0,0,1-1.832.458V8.3q0,.068,3.958,4.7H41.142q-3.855-4.491-3.855-4.512V7.579l.014-.034a5.845,5.845,0,0,0,.8.048q2.16,0,2.687-1.4a1.131,1.131,0,0,0,.082-.424h-3.91a.024.024,0,0,1-.027-.027q.649-.943.663-.943h3.1V4.783a1.82,1.82,0,0,0-1.032-.841,3.222,3.222,0,0,0-.984-.178H36.945V3.73Q37.574,2.794,37.594,2.794Zm18.048,7.77a2.409,2.409,0,0,1-2.59,2.2c-1.708,0-2.828-1.386-2.828-3.388s1.12-3.36,2.828-3.36a2.338,2.338,0,0,1,2.52,1.89h.42a2.725,2.725,0,0,0-2.94-2.268c-2.072,0-3.248,1.652-3.248,3.738s1.176,3.766,3.248,3.766a2.779,2.779,0,0,0,3-2.576Zm4.55-4.816a2.219,2.219,0,0,0-.938.1A2.337,2.337,0,0,0,57.5,7.232h-.028V5.762h-.42V13h.42V8.464a2.352,2.352,0,0,1,1.918-2.282,2.547,2.547,0,0,1,.8-.028Zm3.472,7.392c2.072,0,3.29-1.68,3.29-3.766s-1.218-3.738-3.29-3.738-3.29,1.666-3.29,3.738S61.606,13.14,63.664,13.14Zm0-.364c-1.666,0-2.87-1.372-2.87-3.4S62,6,63.664,6,66.52,7.344,66.52,9.374,65.33,12.776,63.664,12.776ZM71.2,5.748a2.219,2.219,0,0,0-.938.1,2.337,2.337,0,0,0-1.75,1.386H68.48V5.762h-.42V13h.42V8.464A2.352,2.352,0,0,1,70.4,6.182a2.547,2.547,0,0,1,.8-.028ZM77.664,9.36a3.942,3.942,0,0,0-1.19-3.08,2.805,2.805,0,0,0-1.862-.644c-2.016,0-3.234,1.6-3.234,3.7,0,2.2,1.148,3.808,3.29,3.808a2.809,2.809,0,0,0,2.912-2.268h-.42a2.4,2.4,0,0,1-2.492,1.89c-1.876,0-2.856-1.442-2.87-3.4Zm-.434-.35H71.812a2.84,2.84,0,0,1,2.8-3C76.1,6.014,77.118,7.078,77.23,9.01Z" transform="translate(15956.65 2077)" fill="#555"/>
      <path id="Path_62282" data-name="Path 62282" d="M0,0H312V3H0Z" transform="translate(15741.65 2156)" fill="url(#linear-gradient)"/>
      <path id="Path_62284" data-name="Path 62284" d="M0,0H312V3H0Z" transform="translate(15741.65 2200)" fill="url(#linear-gradient)"/>
      <path id="Path_62285" data-name="Path 62285" d="M0,0H312V3H0Z" transform="translate(15741.65 2252)" fill="url(#linear-gradient)"/>
      <path id="Path_62286" data-name="Path 62286" d="M0,0H312V3H0Z" transform="translate(15741.65 2300)" fill="url(#linear-gradient)"/>
      <path id="Path_62287" data-name="Path 62287" d="M0,0H312V3H0Z" transform="translate(15741.65 2348)" fill="url(#linear-gradient)"/>
      <path id="Path_62289" data-name="Path 62289" d="M0,0H312V10H0Z" transform="translate(15741.65 2396)" fill="url(#linear-gradient)"/>
      <path id="Path_62283" data-name="Path 62283" d="M0,0H312V10H0Z" transform="translate(15741.65 2101)" fill="url(#linear-gradient)"/>
    </g>
  </g>
</svg>
