<svg xmlns="http://www.w3.org/2000/svg" width="17.74" height="17.735" viewBox="0 0 17.74 17.735">
  <path id="Icon_ionic-ios-globe" data-name="Icon ionic-ios-globe" d="M12.243,3.375h-.03a8.868,8.868,0,0,0,0,17.735h.03a8.868,8.868,0,1,0,0-17.735Zm7.682,8.271H16.617A16.789,16.789,0,0,0,16.2,8.4a12.987,12.987,0,0,0,2.119-.9A7.638,7.638,0,0,1,19.925,11.646Zm-8.279,0H9.011A15.154,15.154,0,0,1,9.386,8.7a12.971,12.971,0,0,0,2.26.3Zm0,1.194v2.639a13.026,13.026,0,0,0-2.26.3,15.152,15.152,0,0,1-.375-2.942Zm1.194,0h2.613a15.065,15.065,0,0,1-.375,2.937,12.726,12.726,0,0,0-2.238-.3Zm0-1.194V9a13.026,13.026,0,0,0,2.238-.3,15.109,15.109,0,0,1,.375,2.942ZM17.5,6.619a11.844,11.844,0,0,1-1.62.661,8.8,8.8,0,0,0-1.13-2.324A7.715,7.715,0,0,1,17.5,6.619Zm-2.746.968a12,12,0,0,1-1.918.256V4.714A5.166,5.166,0,0,1,14.758,7.587ZM11.646,4.7V7.839a11.791,11.791,0,0,1-1.94-.26A5.163,5.163,0,0,1,11.646,4.7ZM9.7,4.969A8.872,8.872,0,0,0,8.58,7.276a12.11,12.11,0,0,1-1.6-.657A7.6,7.6,0,0,1,9.7,4.969ZM6.167,7.506a12.73,12.73,0,0,0,2.1.887,16.113,16.113,0,0,0-.418,3.249H4.564A7.6,7.6,0,0,1,6.167,7.506ZM4.56,12.84H7.843a16.746,16.746,0,0,0,.418,3.249,13.507,13.507,0,0,0-2.1.887A7.639,7.639,0,0,1,4.56,12.84Zm2.417,5.026a11.932,11.932,0,0,1,1.6-.657A8.9,8.9,0,0,0,9.7,19.52,7.788,7.788,0,0,1,6.977,17.866ZM9.706,16.9a11.853,11.853,0,0,1,1.94-.26v3.146A5.155,5.155,0,0,1,9.706,16.9Zm3.134,2.869V16.638a12,12,0,0,1,1.918.256A5.163,5.163,0,0,1,12.84,19.772Zm1.918-.243a8.8,8.8,0,0,0,1.13-2.324,11.649,11.649,0,0,1,1.62.665A7.8,7.8,0,0,1,14.758,19.529Zm3.56-2.549a12.988,12.988,0,0,0-2.119-.9,16.7,16.7,0,0,0,.418-3.244h3.308A7.6,7.6,0,0,1,18.318,16.979Z" transform="translate(-3.375 -3.375)"/>
</svg>
