<svg xmlns="http://www.w3.org/2000/svg" xmlns:xlink="http://www.w3.org/1999/xlink" width="106.68" height="80.742" viewBox="0 0 106.68 80.742">
  <defs>
    <clipPath id="clip-path">
      <rect id="Rectangle_10014" data-name="Rectangle 10014" width="106.68" height="80.742" fill="none"/>
    </clipPath>
  </defs>
  <g id="icon5" clip-path="url(#clip-path)">
    <path id="Path_62299" data-name="Path 62299" d="M18.75,43.875h8.592C35.728,43.875,45,46.641,45,59.411c0,13.83-11.77,19.126-24.187,17.655a.736.736,0,0,0-.588,1.236L46.7,106.756" transform="translate(-14.336 -33.547)" fill="none" stroke="#fbab1e" stroke-linecap="round" stroke-miterlimit="50" stroke-width="6"/>
    <line id="Line_220" data-name="Line 220" x1="29.631" transform="translate(11.123 10.328)" fill="none" stroke="#fbab1e" stroke-linecap="round" stroke-miterlimit="50" stroke-width="6"/>
    <line id="Line_221" data-name="Line 221" x2="36.104" transform="translate(4.855 26.306)" fill="none" stroke="#fbab1e" stroke-linecap="round" stroke-miterlimit="50" stroke-width="6"/>
    <path id="Path_62300" data-name="Path 62300" d="M155.825,0h-3.511V38.615H190.93V35.1A35.1,35.1,0,0,0,155.825,0m3.51,31.594V7.238a28.1,28.1,0,0,1,24.356,24.356ZM117.209,45.636A28.089,28.089,0,0,1,141.783,17.77V49.147H173.16a28.086,28.086,0,0,1-55.951-3.51m28.084-35.1a35.105,35.105,0,1,0,35.1,35.1V42.126H148.8V10.531Z" transform="translate(-84.25 0)" fill="#0aafe2" fill-rule="evenodd"/>
  </g>
</svg>
