<svg xmlns="http://www.w3.org/2000/svg" xmlns:xlink="http://www.w3.org/1999/xlink" width="60.783" height="84.471" viewBox="0 0 60.783 84.471">
  <defs>
    <clipPath id="clip-path">
      <rect id="Rectangle_7583" data-name="Rectangle 7583" width="60.783" height="84.471" fill="none"/>
    </clipPath>
  </defs>
  <g id="Group_157991" data-name="Group 157991" transform="translate(-14939.752 -1675.526)">
    <g id="Group_17824" data-name="Group 17824" transform="translate(14939.752 1675.526)">
      <g id="Group_17823" data-name="Group 17823" transform="translate(0)" clip-path="url(#clip-path)">
        <path id="Path_12975" data-name="Path 12975" d="M11.921,268.11a.845.845,0,0,0,.845-.845V228.326a.846.846,0,0,0-.845-.845H5.16a.846.846,0,0,0-.845.845v38.938a.845.845,0,0,0,.845.845Zm0,3.381H5.16a4.226,4.226,0,0,1-4.226-4.226V228.326A4.226,4.226,0,0,1,5.16,224.1h6.761a4.226,4.226,0,0,1,4.226,4.226v38.938a4.226,4.226,0,0,1-4.226,4.226m22.735-3.381a.845.845,0,0,0,.845-.845V220.837a.845.845,0,0,0-.845-.845H27.9a.845.845,0,0,0-.845.845h0v46.428a.845.845,0,0,0,.845.845Zm0,3.381H27.9a4.226,4.226,0,0,1-4.226-4.226V220.837a4.226,4.226,0,0,1,4.226-4.226h6.761a4.226,4.226,0,0,1,4.226,4.226v46.428a4.226,4.226,0,0,1-4.226,4.226m22.735-3.3a.845.845,0,0,0,.845-.845V213.425a.846.846,0,0,0-.845-.845H50.631a.846.846,0,0,0-.845.845v53.918a.845.845,0,0,0,.845.845Zm0,3.381H50.631a4.226,4.226,0,0,1-4.226-4.226V213.425a4.226,4.226,0,0,1,4.226-4.226h6.761a4.226,4.226,0,0,1,4.226,4.226v53.918A4.226,4.226,0,0,1,57.392,271.568Z" transform="translate(-0.835 -187.098)" fill="#0aafe2"/>
        <path id="Path_12976" data-name="Path 12976" d="M496.215,1.8l-.025,8.4a1.69,1.69,0,1,0,3.381.01l.025-8.4a1.69,1.69,0,1,0-3.381-.01" transform="translate(-443.768 -0.106)" fill="#fbab1e"/>
        <path id="Path_12977" data-name="Path 12977" d="M1.69,30.161H14.416a4.227,4.227,0,0,0,2.989-1.238l8.5-8.5a.847.847,0,0,1,.6-.248H39.687a4.229,4.229,0,0,0,2.988-1.236L54.324,7.292a1.69,1.69,0,0,0-2.39-2.39L40.286,16.549a.847.847,0,0,1-.6.247H26.5a4.228,4.228,0,0,0-2.988,1.238l-8.5,8.5a.846.846,0,0,1-.6.248H1.69a1.69,1.69,0,1,0,0,3.381Z" transform="translate(0 -3.941)" fill="#fbab1e"/>
        <path id="Path_12978" data-name="Path 12978" d="M418.125,3.381l8.451.013a1.69,1.69,0,0,0,.005-3.381L418.13,0a1.69,1.69,0,1,0-.005,3.381Z" transform="translate(-372.441 0)" fill="#fbab1e"/>
      </g>
    </g>
  </g>
</svg>
