<svg xmlns="http://www.w3.org/2000/svg" xmlns:xlink="http://www.w3.org/1999/xlink" width="108.671" height="123.362" viewBox="0 0 108.671 123.362">
  <defs>
    <clipPath id="clip-path">
      <rect id="Rectangle_7623" data-name="Rectangle 7623" width="108.671" height="123.362" fill="none"/>
    </clipPath>
  </defs>
  <g id="Group_157994" data-name="Group 157994" transform="translate(-26.729 -45)">
    <g id="Group_17841" data-name="Group 17841" transform="translate(26.729 45)" clip-path="url(#clip-path)">
      <path id="Path_12990" data-name="Path 12990" d="M160.036,84.692H147.912a6.062,6.062,0,0,0-6.062,6.062V193.761H166.1V90.754a6.062,6.062,0,0,0-6.062-6.062m-36.372,36.373H111.54a6.062,6.062,0,0,0-6.062,6.062v66.634h24.248V127.127a6.062,6.062,0,0,0-6.062-6.062M87.291,157.437H75.167a6.062,6.062,0,0,0-6.062,6.062v30.262H93.353V163.5a6.062,6.062,0,0,0-6.062-6.062" transform="translate(-57.511 -70.483)" fill="#0aafe2"/>
      <path id="Path_12991" data-name="Path 12991" d="M160.036,84.692H147.912a6.062,6.062,0,0,0-6.062,6.062V193.761H166.1V90.754A6.062,6.062,0,0,0,160.036,84.692Zm-36.372,36.373H111.54a6.062,6.062,0,0,0-6.062,6.062v66.634h24.248V127.127A6.062,6.062,0,0,0,123.664,121.065ZM87.291,157.437H75.167a6.062,6.062,0,0,0-6.062,6.062v30.262H93.353V163.5A6.062,6.062,0,0,0,87.291,157.437Z" transform="translate(-57.511 -70.483)" fill="none" stroke="#0aafe2" stroke-miterlimit="10" stroke-width="1"/>
      <path id="Path_12992" data-name="Path 12992" d="M66.71,27.111a9.544,9.544,0,0,1,11.972,0l7.536,6.439a11.018,11.018,0,0,0,6.057,2.194h8.108a9.242,9.242,0,0,1,9.205,9.205v8.108a10.868,10.868,0,0,0,2.194,6.01l6.439,7.536a9.544,9.544,0,0,1,0,11.972l-6.439,7.536a10.868,10.868,0,0,0-2.194,6.01v8.108a9.242,9.242,0,0,1-9.205,9.205H92.276a10.868,10.868,0,0,0-6.01,2.194l-7.536,6.439a9.544,9.544,0,0,1-11.972,0l-7.536-6.439a11,11,0,0,0-6.01-2.194H44.866a9.242,9.242,0,0,1-9.205-9.205V92.073a10.669,10.669,0,0,0-2.146-5.962l-6.439-7.584a9.6,9.6,0,0,1,0-11.924l6.439-7.584a10.8,10.8,0,0,0,2.146-5.962V45a9.242,9.242,0,0,1,9.205-9.205h8.251a10.87,10.87,0,0,0,6.01-2.194Z" transform="translate(-20.806 -20.806)" fill="none" stroke="#fbab1e" stroke-linecap="round" stroke-linejoin="round" stroke-width="10"/>
      <line id="Line_107" data-name="Line 107" y2="23.037" transform="translate(51.867 33.397)" fill="none" stroke="#fbab1e" stroke-linecap="round" stroke-linejoin="round" stroke-width="10"/>
      <line id="Line_108" data-name="Line 108" x2="0.043" transform="translate(51.841 70.934)" fill="none" stroke="#f8cd47" stroke-linecap="round" stroke-linejoin="round" stroke-width="10"/>
    </g>
  </g>
</svg>
