<svg xmlns="http://www.w3.org/2000/svg" width="14.571" height="17" viewBox="0 0 14.571 17">
  <path id="Icon_metro-file-pdf" data-name="Icon metro-file-pdf" d="M16.5,5.808a2.207,2.207,0,0,1,.455.721,2.189,2.189,0,0,1,.19.835V18.293a.907.907,0,0,1-.911.911H3.481a.907.907,0,0,1-.911-.911V3.114A.907.907,0,0,1,3.481,2.2h8.5a2.19,2.19,0,0,1,.835.19,2.207,2.207,0,0,1,.721.455ZM12.285,3.494V7.061h3.567a1.036,1.036,0,0,0-.209-.389L12.674,3.7a1.036,1.036,0,0,0-.389-.209Zm3.643,14.5V8.275H11.981a.907.907,0,0,1-.911-.911V3.418H3.785V17.989H15.928Zm-4.876-5.626a7.218,7.218,0,0,0,.8.531,9.414,9.414,0,0,1,1.11-.066q1.395,0,1.679.465a.458.458,0,0,1,.019.493.027.027,0,0,1-.009.019l-.019.019v.009q-.057.36-.674.36A3.913,3.913,0,0,1,12.864,14a6.917,6.917,0,0,1-1.233-.5,17.082,17.082,0,0,0-3.719.787q-1.451,2.485-2.3,2.485a.552.552,0,0,1-.266-.066l-.228-.114q-.009-.009-.057-.047a.392.392,0,0,1-.057-.342,2.06,2.06,0,0,1,.531-.868,4.585,4.585,0,0,1,1.252-.915.138.138,0,0,1,.218.057.055.055,0,0,1,.019.038q.493-.806,1.015-1.869a14.479,14.479,0,0,0,.987-2.485A7.669,7.669,0,0,1,8.742,8.65,3.689,3.689,0,0,1,8.8,7.44q.1-.379.4-.379h.209a.4.4,0,0,1,.332.142.758.758,0,0,1,.085.645.206.206,0,0,1-.038.076A.247.247,0,0,1,9.8,8v.285a12.423,12.423,0,0,1-.133,1.821,4.8,4.8,0,0,0,1.385,2.258Zm-5.464,3.9a4.189,4.189,0,0,0,1.3-1.5,5.408,5.408,0,0,0-.83.8A3.153,3.153,0,0,0,5.587,16.263ZM9.363,7.535a2.821,2.821,0,0,0-.019,1.252q.009-.066.066-.417,0-.028.066-.408a.213.213,0,0,1,.038-.076.027.027,0,0,1-.009-.019.019.019,0,0,0,0-.014.019.019,0,0,1,0-.014A.546.546,0,0,0,9.373,7.5a.027.027,0,0,1-.009.019v.019ZM8.187,13.806a13.915,13.915,0,0,1,2.694-.768,1.431,1.431,0,0,1-.123-.09,1.7,1.7,0,0,1-.152-.128,5.025,5.025,0,0,1-1.2-1.67,12.677,12.677,0,0,1-.787,1.869q-.285.531-.427.787Zm6.128-.152a2.27,2.27,0,0,0-1.328-.228,3.588,3.588,0,0,0,1.176.266.92.92,0,0,0,.171-.009q0-.009-.019-.028Z" transform="translate(-2.571 -2.203)"/>
</svg>
