<svg xmlns="http://www.w3.org/2000/svg" width="109.67" height="125.354" viewBox="0 0 109.67 125.354">
  <g id="corporate-governance-icon" transform="translate(-16734.5 -3363.456)">
    <path id="Exclusion_4" data-name="Exclusion 4" d="M-12517.845-3401.042l28.332,20.237,28.331-20.237a62.1,62.1,0,0,0,26-50.531v-30.141l-54.335-23.287-54.336,23.287v30.141a62.1,62.1,0,0,0,26,50.531" transform="translate(29278.848 6869)" fill="#fbab1e" stroke="rgba(0,0,0,0)" stroke-miterlimit="10" stroke-width="1"/>
    <path id="Union_4" data-name="Union 4" d="M-12525.844-3458.817v-18.891a4.871,4.871,0,0,1,4.844-4.9h20.773a4.873,4.873,0,0,1,4.846,4.9v18.891a15.316,15.316,0,0,1-15.231,15.4A15.315,15.315,0,0,1-12525.844-3458.817Zm31.012,8.755.154-.284a18.234,18.234,0,0,0,2.043-7.557l.022-.914v-18.891a7.714,7.714,0,0,0-1.745-4.9l12.117.006a4.873,4.873,0,0,1,4.847,4.9v16.1a12.528,12.528,0,0,1-12.462,12.6A12.282,12.282,0,0,1-12494.832-3450.062Zm-49.018-11.555v-16.092a4.873,4.873,0,0,1,4.846-4.9l12.133-.006a7.709,7.709,0,0,0-1.719,4.289l-.025.614v18.891a18.283,18.283,0,0,0,2.215,8.753,12.31,12.31,0,0,1-4.984,1.047A12.532,12.532,0,0,1-12543.85-3461.617Zm47.08-32.186a8.353,8.353,0,0,1,8.308-8.4,8.351,8.351,0,0,1,8.307,8.4,8.352,8.352,0,0,1-8.307,8.4A8.354,8.354,0,0,1-12496.77-3493.8Zm-23.543-1.4a9.745,9.745,0,0,1,9.69-9.8,9.744,9.744,0,0,1,9.692,9.8,9.745,9.745,0,0,1-9.692,9.8A9.746,9.746,0,0,1-12520.312-3495.2Zm-20.776,1.4a8.353,8.353,0,0,1,8.308-8.4,8.352,8.352,0,0,1,8.307,8.4,8.353,8.353,0,0,1-8.307,8.4A8.354,8.354,0,0,1-12541.089-3493.8Z" transform="translate(29299.805 6900.307)" fill="#06b0e3"/>
  </g>
</svg>
