<svg xmlns="http://www.w3.org/2000/svg" xmlns:xlink="http://www.w3.org/1999/xlink" width="327.983" height="23.999" viewBox="0 0 327.983 23.999">
  <defs>
    <clipPath id="clip-path">
      <rect id="Rectangle_10136" data-name="Rectangle 10136" width="327.983" height="23.999" fill="#ffce00"/>
    </clipPath>
  </defs>
  <g id="Group_158633" data-name="Group 158633" opacity="0.82">
    <g id="Group_158357" data-name="Group 158357" clip-path="url(#clip-path)">
      <path id="Path_64399" data-name="Path 64399" d="M327.98,9.923c.052,1.951-.474,3.116-1.332,3.81a3.985,3.985,0,0,1-1.5.725,7.069,7.069,0,0,1-.881.171c-.3.037-.617.057-.936.068-1.276.044-2.641-.071-3.878-.02-.309.013-.611.036-.9.074a6.224,6.224,0,0,0-.834.155,3.368,3.368,0,0,0-1.4.711,143.426,143.426,0,0,1-19.548,1.694c-6.541.166-13.059.061-19.478-.057l0-.035a.527.527,0,0,1-.9.023c-.539.865-1.621-.755-2.533-.087-.949-.9-2.291,1.1-3.5,0-8.607.781-17.628.4-26.323.682l.019.106c-2.179.213-4.511.429-6.918.612s-4.891.332-7.372.429a128.513,128.513,0,0,1-14.246-.118c-2.375-.134-4.84,1.136-7.134.325-.212.089-.541.312-.739.019-.641-.11-1.363.605-1.948.136a28.893,28.893,0,0,1-4.954,1.235,37.719,37.719,0,0,1-5.094.471c0-.035,0-.073,0-.107a61.242,61.242,0,0,0-6.1.562,55.358,55.358,0,0,1-6.051.517c-3.209.154-6.365.747-9.482.448,0,.079,0,.15,0,.227a32.411,32.411,0,0,0-4.246.308c-1.413.177-2.825.406-4.236.6a24.491,24.491,0,0,1-8.449.033c0,.038.006.073.008.111-7.578-.462-14.849.818-22.364-.2-4.044-1.671-8.153-1.357-12.236-1.826-.57-.691-4.553,0-5.265-.213,0,.038,0,.073.005.112-3.772.033-7.551-.253-11.334-.525,0-.077-.006-.154-.009-.232-2.518,0-5.04-.011-7.557,0s-5.028.036-7.524.083c-2.522-.039-4.965.216-7.4-.691-.522.176-1.147-.554-1.539.769-2.968,0-5.817.48-8.786.448l0-.1c-4.641-.173-9.332.125-14.011.338a84.7,84.7,0,0,1-13.922-.232c-5.511.724-11.022,1.918-16.463.589A112.357,112.357,0,0,0,17.349,21.1a6.74,6.74,0,0,0-4.336-.531c-.531.253-.98-.227-1.462-.389a7.175,7.175,0,0,1-3.389.276C7.21,20.3,6.482,19.02,5.5,19.047c-3.191-.5-4.507-3.879-5.45-9.4a2.692,2.692,0,0,1,.32-1.9A3.881,3.881,0,0,1,1.9,6.415,15.972,15.972,0,0,1,7.223,5.03c4.07-.491,8.545-.3,9.542-.465,3.571-.072,7.153.189,10.695.287,2.217-.285,4.593.27,6.878.121v0l2.01.057.016-.231c10.448.39,20.846,1.153,31.279,2.3a34.1,34.1,0,0,0,4.369-.282c2.506,0,4.989.871,7.539.763l-.015-.107a.78.78,0,0,1,1.13-.182c.692.448,1.5-.245,2.149.45a.326.326,0,0,1,.575.06c8.188-2.19,16.733.261,25.333-.172-.081.03-.153.09-.19.292l10.576-.054,0-.232a21.557,21.557,0,0,1-2.261-.04,44.542,44.542,0,0,1,6.236-.18,59.132,59.132,0,0,0,6.24-.087c0,.035,0,.073,0,.107q5.448-.066,10.893-.149l-.013.12c.293.283.576.416.826-.077a.19.19,0,0,0,.02.051l0,.013a.763.763,0,0,0,1.356-.111,1.028,1.028,0,0,0,1.827-.068c.971.013,1.92.075,2.871.006-.08.027-.15.106-.206.287l1.208-.006c-.08-.243-.189-.275-.3-.286a14.231,14.231,0,0,0,4.655.6l-.021-.077c6.189-.5,12.879-.619,19.225-.974,0,.034,0,.073,0,.107,9.408-.058,18.925-.732,28.413-1.282a272.128,272.128,0,0,1,28.342-.538c9.084.316,18.221.559,27.144-.61a54.423,54.423,0,0,1,6.475-.19,28.116,28.116,0,0,0,6.377-.555c1.641.533,3.228-.389,4.937.153.557.139.865-.854,1.422-.521a.723.723,0,0,1,1.191.173c6.046-.383,12.119-.854,18.177-1.413,3.033-.269,6.048-.595,9.064-.917l4.5-.53c1.5-.182,2.985-.39,4.477-.584,1.536-.337,2.918.812,4.09,1.974s2.111,2.313,2.692,1.938c.371-.154.741-.321,1.119-.463a5.564,5.564,0,0,1,1.161-.333,3.753,3.753,0,0,1,2.721.671c1.385,1.611,3.547,3.4,4.007,6.076" transform="translate(0 0)" fill="#ffce00"/>
    </g>
  </g>
</svg>
