<svg xmlns="http://www.w3.org/2000/svg" xmlns:xlink="http://www.w3.org/1999/xlink" width="103.285" height="131.243" viewBox="0 0 103.285 131.243">
  <defs>
    <clipPath id="clip-path">
      <rect id="Rectangle_14373" data-name="Rectangle 14373" width="92.864" height="123.62" fill="#20a2a2"/>
    </clipPath>
  </defs>
  <g id="Group_158620" data-name="Group 158620" transform="matrix(0.996, 0.087, -0.087, 0.996, 10.774, 0)" clip-path="url(#clip-path)">
    <path id="Path_74730" data-name="Path 74730" d="M19.037,112.55v-6.2c.783.006.437,0,1,.247l2.008.8a87.56,87.56,0,0,0,9.537,2.608,8.2,8.2,0,0,1,.8.2,45.82,45.82,0,0,0,5.4.668,21.318,21.318,0,0,0,4.843.256l4.239.173c2.188-.054,8.137-.292,10.062-.609,5.6-.922,6.193-.886,11.81-2.676.666-.212,1.5-.627,2.187-.8l-.017,7.119c-.057,1.448-.981,1.489-3.932,2.506L60.352,118.8l-.137.028-1.554.327c-3.421.591-5.649,1.358-9.428,1.446-1.716.04-.032.353-3.892.36-6.753.011-12.855-.354-19.333-2.769l-7.543-3.468c.024-.049.06-.173.075-.143l.233-.339c.357-.542.264-.743.264-1.69M34.149,89.4c.025.035.061.046.071.106a2.346,2.346,0,0,0,1.591,1.59l2.009.513c.24.058.471.133.768.219,4.666,1.348,9.873,1.62,14.374-.525l.487-.3c1.672-.862.6-.523,1.558-1.114l3.065,1.326c1.915,1.15,3.453,1.725,5.189,3.455.483.479-.1-.072.238.242l2.6,2.7c.022.026.056.06.079.085s.054.063.077.091a20.956,20.956,0,0,1,2.718,4.2,6.5,6.5,0,0,1,1.088,2.628l-8.285,2.59-6.943,1.224c-.886.09-1.873.051-2.785.134a57.59,57.59,0,0,1-10.815.1,9.947,9.947,0,0,0-1.329-.085l-6.114-.7a32.848,32.848,0,0,1-4.223-.8l-.272-.073c-.046-.013-.092-.022-.136-.035a40.19,40.19,0,0,1-4.2-1.2c-.56-.219-1.33-.474-2.109-.715a12.676,12.676,0,0,1-2.839-1.167c-.33-.5.159-1.647.386-2.172l.412-.918a13.466,13.466,0,0,1,1.522-2.613L24.145,95.9a26.776,26.776,0,0,1,5.7-4.467l2.725-1.419c.045-.022.183-.086.227-.109a2.869,2.869,0,0,1,1.347-.509m11.7,1.01a15.887,15.887,0,0,1-4.976-.574c-1.323-.274-2.947-.256-3.8-.916l.047-4.619c.9-.11.71.065,1.435.287l1.7.394c.929.094.174.06.929.305a23.881,23.881,0,0,0,9.011.178l1.436-.161c.067,3.335.433,4.047-1.515,4.45a17.344,17.344,0,0,1-4.27.655M36.835,76.572c1.04.079,2.838.871,3.806,1l5.376.694a19.891,19.891,0,0,0,4.164-.309,10.4,10.4,0,0,1,1.8-.4L51.7,82.242c-3.429,2.156-10.647,1.245-14.562-.77Zm-.844-9.207c.913.483,3.361,2.6,4.418,3.186a3.176,3.176,0,0,1,.53.275,9.654,9.654,0,0,0,1.008.665l1.059.62a3.085,3.085,0,0,0,1.189.609,7.139,7.139,0,0,0,4.124-.844l1.595-1.107c.984-.752,2.7-2.453,3.262-2.762.045,1.2-.279,2.422-.374,3.758-.042.588-.179,1.005-.26,1.677-.108.907-.035,1.012-.784,1.356-2.665,1.225-6.773,1.314-9.911.5a27.373,27.373,0,0,1-3.058-.664c-.115-.045-.24-.113-.335-.157-2.839-1.343-1.854-1.5-2.156-4.285l-.044-.26c-.025-.141-.087-.4-.121-.566a7.978,7.978,0,0,1-.143-2M72.958,16.247c.968-.023,1.943-.026,2.9-.053.677-.019,1.64-.215,2.381-.283.927-.085,1.944.032,2.864-.032a5.05,5.05,0,0,0,.549-.072l1.969-.01c.354,3.253-.641,6.813-1.07,9.661-.1.664-.189.4-.35,1.033a40.338,40.338,0,0,1-2.345,6.876c-.209.554-.683,1.175-1.033,1.876L75.9,39.431c-.116.141-.3.379-.367.463a4.289,4.289,0,0,1-.355.429l-8.2,7.051a4.668,4.668,0,0,1-.615.114,1.659,1.659,0,0,1,.254-1.1l1.762-5.212c.39-1.688,1.745-6.065,1.888-7.586a3.516,3.516,0,0,1,.193-.978l.23-.893a30.222,30.222,0,0,1,.465-3.172c.592-1.7.79-6.4,1.244-8.153.436-1.685-.153-2.655.553-4.149m-64.28-.076,9.314-.045c.486,2.1.331,6.057.65,8.947.4,3.607.343,5.953,1.211,9.8.143.633.157,1.357.31,2.025.3,1.313.551,2.349.821,3.763.06.313.334,1.449.468,1.817.023.063.142.321.146.336a25.568,25.568,0,0,0,1.114,3.48l.36,1.456c-.51-.077-.695-.317-1.276-.594-.37-.177-.245-.07-.529-.288s-.094-.139-.344-.314c-.571-.4-.351.057-1.368-.953a18.24,18.24,0,0,1-3.874-4.74,26.841,26.841,0,0,1-2.49-4.913l-.794-2a12.429,12.429,0,0,1-.716-2.271c-.173-.491-.188-.022-.412-.994l-.334-.969c-.158-.752.1-.541-.246-1.238a7.675,7.675,0,0,1-.612-2.3c-.116-.687,0-.086-.16-.54a1.373,1.373,0,0,1-.143-.476L9.35,22.609c-.092-.615-.291-.664-.358-1.055a47.916,47.916,0,0,1-.313-5.383m65.49-2.236-1.229-.055-.015-2.333c1.166-.844,5.722-.47,7.348-.471,2.6,0,7.224-.254,9.827.151a33.554,33.554,0,0,1-.4,8.845,59.845,59.845,0,0,1-1.655,6.848l-2.032,4.987a39.049,39.049,0,0,1-4.6,7.6c-1.278,1.538-2.467,3.158-3.94,4.653l-2.216,2.083A38.657,38.657,0,0,1,71.752,49.2L67.3,52.206l-.312.2c-.9.572-2.525,1.571-3.523,1.583l.955-2.041c.022-.047.074-.181.1-.228.339-.749.57-.624,1.306-1.024a3.361,3.361,0,0,1,.748-.315c.034-.013.079-.027.112-.04l2.486-1.489c1.819-1.266,3.47-2.756,5.185-4.124l2.807-2.8.077-.094,2.319-2.811c.022-.03.05-.069.07-.1L82.29,34.38a17.2,17.2,0,0,0,1.077-2.774c.415-1.454,1.127-2.666,1.478-4.156a33.864,33.864,0,0,0,.877-5.049,14.37,14.37,0,0,1,.311-1.484c.076-.609.013-1.205.108-1.831.139-.913.675-4.257.041-5.09-.445-.581-.435-.08-.823-.675-2.357-.226-3.527.254-5.594.258-1.989,0-3.682.356-5.6.356M2.833,11.454c2.041-.128,13.785-.238,15.294.007.034.366.041.694.043,1.062,0,.72.065,1.04-.625,1.124-.154.019-.519.009-.69.008-1.513,0-9.11-.2-9.79.192a1.348,1.348,0,0,0-.758,1.118L6.3,18.513a10.384,10.384,0,0,0,.285,1.635c.07.549.02,1.216.059,1.793L7.6,26.706a9.6,9.6,0,0,1,.355,1.408l1.258,4.446c.687,2.105,1.929,6.129,3.2,8.037l.636,1.139c.291.491.476.851.734,1.254a21.425,21.425,0,0,0,5.078,5.383l5.543,3.1.627.855a15.086,15.086,0,0,1,.665,1.631,18.086,18.086,0,0,1-4.013-2.014c-.229-.153-.425-.3-.575-.388l-4.253-3.031c-3.141-3.031-4.385-4.222-6.608-7.982l-.192-.307a11.958,11.958,0,0,1-1.488-2.777L5.5,29.017,3.639,20.772c-.082-.677-.065-1.391-.194-1.957a6.964,6.964,0,0,1-.211-1.76c-.038-1.211-.749-3.654-.4-5.6M20.819,2.695a18.7,18.7,0,0,1,4.516-.041c.629.05.738.2,1.353.239,1.932.126,4.309.09,6.273.09l9.329.246c.863.093.1.163,1.175.172l27.024.175a65.346,65.346,0,0,1-.2,8.295l-.353,5.343c-.05.692-.085,2.1-.2,2.738l-.328,2.46a97.961,97.961,0,0,1-1.565,9.844l-1.509,6.262a42.274,42.274,0,0,0-1.574,5.16c-.462,1.437-1.065,2.854-1.581,4.166L58.97,56.627c-.049.084-.177.3-.241.4a33.331,33.331,0,0,1-3.34,4.747c-.222.247-.571.491-.76.707-.229.264-.348.64-.506.821-1.249,1.431-7.152,7.718-8.969,7.064a24.748,24.748,0,0,1-3.6-2.24L38.23,65.6a36.854,36.854,0,0,1-5.989-6.221l-6.723-13c-.21-.75-.487-1.558-.7-2.266-.012-.043-.018-.09-.032-.132s-.024-.089-.037-.132-.076-.19-.093-.238a2.621,2.621,0,0,1-.159-.448L22.13,32.58l-.853-7.921c-.085-.892-.265-1.659-.321-2.428-.067-.931,0-1.959-.035-2.913-.068-1.7.209-3.973-.247-5.431-.452-1.439.044-9.34.145-11.191m-2.588,6.3L7.526,8.9c-1.553.011-5.479,0-6.8.665-.969.49-.69,2.085-.687,3.113C.047,16.9,1.084,20.755,1.654,24.4A69.967,69.967,0,0,0,3.643,32.62c.185.535.3.464.509,1.075l3.413,7.64a30.888,30.888,0,0,0,4.812,6.418c.633.695,1.085,1.021,1.793,1.7l1.571,1.377A40.718,40.718,0,0,0,23.06,55.5l2.91,1.413c.121.053.222.078.358.125.224.077.35.131.616.221.6.2.685.11,1.057.642l.944,1.389.069.094,3.45,4.432c1.115,1.375,1.47,8.712,1.565,10.365.067,1.153.289,1.686.292,2.916,0,3.2.813,6.677.091,9.751-.991-.184-3.721,1.446-4.876,1.993-2.577,1.221-6.552,4.077-8.161,6.35-.663.936-1.422,1.737-2.019,2.742l-.874,1.42a35.071,35.071,0,0,0-1.8,5.265c-.049,1.632-.244,8.781-.015,9.268.32.291.567.519.865.762l-.807.811c-.151,1.592.793,1.761,1.962,2.335l1.429.754c1.823.75,3.43,1.565,5.29,2.2,1.571.534,3.179.793,4.68,1.362.315.119-.073.014.359.079l4.857.764c1.395.219,2.639.184,4.011.366a54.824,54.824,0,0,0,15.23-.6l4.662-.962c1.258-.344,2.354-.5,3.6-.95,1.555-.564,3.241-.867,4.768-1.439l4.551-1.652c.9-.347.693-.482,1.13-.8.221-2.841.1-5.731.1-8.578,0-.9.162-1.517.16-2.268l-.252-1.055c-.017-.027-.053-.059-.07-.085s-.053-.058-.07-.088c-.383-.679-.712-2.219-1.266-3.176l-4.642-6.727-7.066-5.408a14.448,14.448,0,0,0-5.675-2.053,67.571,67.571,0,0,1,.085-9.395l.247-1.476c.058-.731.292-.842.328-1.449A37.616,37.616,0,0,1,56.3,66.2,7.706,7.706,0,0,1,56.91,64a22.935,22.935,0,0,1,1.811-2.271c.022-.027.049-.066.071-.093l1.331-1.986a11.849,11.849,0,0,0,.754-1.049,6.215,6.215,0,0,1,.743-1.218,4.385,4.385,0,0,0,2.047-.337,48.287,48.287,0,0,0,4.6-2.383l1.5-.864c.033-.018.073-.044.1-.064l7.27-5.543,2.907-2.884c.2-.22.341-.384.544-.593.024-.025.06-.058.085-.083s.06-.059.085-.084l1.424-1.728c.145-.172.124-.125.233-.251.03-.036.119-.137.148-.175l1.7-2.249c.2-.307.264-.373.469-.682.225-.336-.19.285.189-.3l1.557-2.6A21.055,21.055,0,0,0,88.548,32.9a28.268,28.268,0,0,0,1.378-3.361c.427-1.327.863-2.212,1.158-3.477.165-.712.281-1.121.457-1.836l.389-2.095c.042-.159.287-.576.328-.768A35.235,35.235,0,0,0,92.624,10.8c-.14-.965-.129-1.868-1.327-2.01-2.224-.263-14.562-.012-17.983.044-.131-1.694.016-3.82.035-5.538.03-3.024-.849-2.26-3.25-2.259H56.193C48.561.952,40.935.683,33.3.68c-3.215,0-5.977-.341-9.327-.348A13.644,13.644,0,0,1,20.469.177C18.787-.372,18.517.4,18.491,1.841c-.021,1.16-.2,2.234-.224,3.556-.023,1.2,0,2.4-.035,3.6" transform="translate(0 0)" fill="#20a2a2" fill-rule="evenodd"/>
    <path id="Path_74731" data-name="Path 74731" d="M191.027,31.284c0,2.573-.269,4.77-.293,6.636l-.15,5.342c0,4.071-.169,11.77,0,15.869.056,1.408,1.253,2.09,2.3.906.288-.325.13-13.347.131-13.376.079-5.518.35-10.719.355-16.348,0-.935-.086-.881-.5-1.389-1.8-.144-1.837.769-1.84,2.36" transform="translate(-137.24 -21.193)" fill="#20a2a2" fill-rule="evenodd"/>
    <path id="Path_74732" data-name="Path 74732" d="M191.109,165.385l0,1.295c-.006,1.831-.518,3.349,1.858,3.026.77-.376.528-2.759.532-3.512,0-1.189.214-3-.7-3.348l-.847-.031c-1.05.892-.834.95-.838,2.569" transform="translate(-137.634 -119.361)" fill="#20a2a2" fill-rule="evenodd"/>
  </g>
</svg>
