<svg xmlns="http://www.w3.org/2000/svg" xmlns:xlink="http://www.w3.org/1999/xlink" width="159.45" height="156.017" viewBox="0 0 159.45 156.017">
  <defs>
    <clipPath id="clip-path">
      <rect id="Rectangle_14372" data-name="Rectangle 14372" width="133.81" height="129.228" fill="#e9bb2b"/>
    </clipPath>
  </defs>
  <g id="Group_158619" data-name="Group 158619" transform="translate(29.07) rotate(13)">
    <g id="Group_158618" data-name="Group 158618" clip-path="url(#clip-path)">
      <path id="Path_74720" data-name="Path 74720" d="M148.073,131.3c-.085-.514-.249-1.014-.37-1.52a39.452,39.452,0,0,0-2.062-5.88,10.632,10.632,0,0,0-.792-1.345,11.572,11.572,0,0,0-.9-1.275L142.94,120.1c-.17-.195-.336-.391-.494-.594l-.536-.555c-.366-.363-.7-.756-1.039-1.138s-.726-.723-1.085-1.092-.724-.734-1.109-1.075l-1.2-.97a27.411,27.411,0,0,0-5.36-3.008c-.906-.474-1.861-.846-2.788-1.295-.948-.393-1.942-.662-2.923-.962-1.012-.195-2.014-.463-3.039-.568-1.032-.045-2.054-.158-3.078-.175-2.038.1-4.119-.293-6.157.14-1.014.195-2.029.37-3.02.655a16.661,16.661,0,0,0-2.993.8c-.475.209-.962.388-1.422.622s-.9.518-1.341.788-.9.491-1.338.768-.873.543-1.314.809a19.323,19.323,0,0,0-2.577,1.714,6.653,6.653,0,0,0-1.133,1.059q-.536.563-1.049,1.142c-.378.352-.644.8-1,1.177l-1.034,1.156a20.175,20.175,0,0,0-1.772,2.559,21.078,21.078,0,0,0-2.322,5.8,15.048,15.048,0,0,0-.348,3.12,27.376,27.376,0,0,0,.035,3.131,16.732,16.732,0,0,0,.605,3.038c.3.983.47,1.984.717,2.975s.523,1.962.824,2.922a23.087,23.087,0,0,0,.991,2.84c.391.917.8,1.828,1.111,2.765s.529,1.9.744,2.852a32.3,32.3,0,0,1,.664,5.723,12.793,12.793,0,0,1-.225,2.849,30.778,30.778,0,0,0-.606,3.039,6.066,6.066,0,0,0-.072,1.6l.041.814c.033.273.105.55.159.824a5.8,5.8,0,0,0,1.6,3.021A10.969,10.969,0,0,0,103.88,172c1.008.176,2,.331,2.983.469a12.3,12.3,0,0,1,1.456.31c.482.117.956.249,1.427.388.952.249,1.863.616,2.83.825a17.338,17.338,0,0,1,2.88.8,19.927,19.927,0,0,0,2.9.979c-.2.035-.4.07-.6.107a4.223,4.223,0,0,1-.935.024,7.959,7.959,0,0,0-.935-.13c-.624-.048-1.267.2-1.9.2a10.7,10.7,0,0,1-1.878-.321c-.621-.137-1.282.09-1.909-.027a6.146,6.146,0,0,1-.927-.261,8.394,8.394,0,0,0-.936-.186,15.01,15.01,0,0,0-1.917-.052c-.647.022-1.21-.494-1.85-.523a3.815,3.815,0,0,1-.948-.113,4.464,4.464,0,0,0-.92-.285,7.189,7.189,0,0,1-1.926-.066,5.673,5.673,0,0,0-.921-.28,5.048,5.048,0,0,0-.97-.007c-.652.014-1.215-.44-1.854-.512a8.082,8.082,0,0,1-.972-.222L96,173.094l-.1-.016,0-.01a4.461,4.461,0,0,1,.871-1.692,6.721,6.721,0,0,0,.411-.845c.063-.143.1-.29.157-.433a1.706,1.706,0,0,0,.063-.21c.017-.067.045-.136-.01-.1a.885.885,0,0,0-1.429-1.046c-.136.175-.183.247-.237.323a2.4,2.4,0,0,0-.143.224c-.078.149-.169.292-.233.444a5.542,5.542,0,0,0-.335.922,5.385,5.385,0,0,1-.533,1.878,2.416,2.416,0,0,0-.393.889c-.02.128-.04.254-.066.379a2.69,2.69,0,0,0-.371.842c-.117.188-.232.375-.354.563a2.162,2.162,0,0,0-.444.883,9.823,9.823,0,0,1-.2,1.978c-.133.3-.533.537-.61.86-.138.309.151.715.163,1.052.053.344-.378.6-.344.949s.195.7.065,1.026a5,5,0,0,0-.218,1.027,3.737,3.737,0,0,0,.24,1.083c.139.359.126.767.335,1.239a1.2,1.2,0,0,0,.492.534,1.451,1.451,0,0,0,.571.289c.041.01.077.025.117.036a.88.88,0,0,0,.234.224l.113.072a3.634,3.634,0,0,0,.959.292c.136.082.271.166.408.252.072.037.148.063.222.094.332.236.631.523.946.732a3.07,3.07,0,0,0,.566.283c.111.06.107.013.2.124a1.227,1.227,0,0,1,.205.292c.114.211.155.479.275.688a6.474,6.474,0,0,0,.408.625,9.549,9.549,0,0,1,.875,1.282,2.965,2.965,0,0,0,.469.653,7.083,7.083,0,0,0,.65.516,3.046,3.046,0,0,1,.564.6,2.06,2.06,0,0,0,.6.6c.243.152.573.146.807.291s.452.332.685.5c.483.354,1.137.062,1.6.413a1.039,1.039,0,0,0,.375.227.814.814,0,0,0,.422-.074c.287-.148.532.1.781.3.507.519,1.08-.41,1.595-.2.267.053.538.12.815.191a1.476,1.476,0,0,0,.835.041c.54-.182,1.018-.559,1.512-.751.251-.09.538-.064.79-.136a2.6,2.6,0,0,0,.68-.367,2.979,2.979,0,0,1,1.4-.211,4.525,4.525,0,0,0,1.278-.229l.094-.033a.9.9,0,0,0,.554-.606l.167.015a10.187,10.187,0,0,1,1.833.711,1.648,1.648,0,0,0,.338.048,1.447,1.447,0,0,0,.568-.066,3.2,3.2,0,0,0,.437-.205c.1-.084.206-.15.3-.229a9.43,9.43,0,0,0,.917-.83c.522-.557.481-1.363.9-1.887a8.014,8.014,0,0,0,1.036-1.705,5.869,5.869,0,0,0,.308-.938c.071-.324.107-.658.208-.968a14.65,14.65,0,0,0,.794-1.792,16.736,16.736,0,0,1,.394-1.918,12.469,12.469,0,0,0,.765-1.829,6.83,6.83,0,0,0,.1-.987,6.571,6.571,0,0,1,.2-.974,5.34,5.34,0,0,0,.356-2.025,4.508,4.508,0,0,0-.117-1.137,2.169,2.169,0,0,0-.889-1.429.868.868,0,0,0-.338-.142c.118-.09.231-.184.358-.269a2.94,2.94,0,0,0,.631-.561,16.757,16.757,0,0,0,1.588-2.767c.248-.449.6-.86.886-1.3a7.977,7.977,0,0,0,.715-1.372,19.5,19.5,0,0,1,.961-2.661,22.425,22.425,0,0,1,3.976-4.242,25.862,25.862,0,0,0,2-2.2c.651-.758,1.311-1.515,1.987-2.258s1.442-1.4,2.169-2.1a18.859,18.859,0,0,0,2.031-2.257c.623-.8,1.283-1.572,1.964-2.336a26.624,26.624,0,0,0,1.886-2.443c.285-.432.59-.859.834-1.318s.434-.952.653-1.426a22.041,22.041,0,0,0,1.022-2.971c.242-1,.52-2,.728-3.017.124-1.029.332-2.056.364-3.1a13.675,13.675,0,0,0-.108-3.127Zm-5.963,17.352-2.066,1.193c.824-.541,2.229-1.452,2.239-1.458-.057.089-.115.177-.173.265m1.107-1.827c-.285.142-.6.3-.959.505.329-.2.674-.4,1.01-.6-.018.032-.034.064-.051.1m.67-1.249c-.752.408-1.973,1.107-4.006,2.317l4.717-3.749q-.338.722-.711,1.432m1.713-3.943c-.081.255-.18.5-.272.751a31.148,31.148,0,0,0-3.962,2.208l4.34-3.55c-.036.2-.073.393-.106.592m-5.38-22.392c.092.1.186.2.276.307-1.271.824-2.569,1.64-3.642,2.282Zm.819.929a8.316,8.316,0,0,1,.655.905c-1.452.769-3.221,1.73-4.576,2.554.478-.422,1-.868,1.453-1.26,1.294-1.111,2.036-1.768,2.468-2.2m1.418,2.129.043.081c-1.094.538-2.86,1.605-4.674,2.751,1.126-.935,2.72-2.155,4.318-3.322.1.166.2.332.312.491m.656,1.226c-.17.1-.363.222-.581.366l-.267.127c.316-.248.563-.455.77-.64l.078.147m.659,1.185c.023.039.043.079.065.117l.17.346c-.566.324-1.471.865-2.967,1.773,1.365-1.053,2.209-1.755,2.731-2.236m.56,1.125.119.243-2.35,1.357Zm.424.855.036.072.321.86-6.145,3.548c1.32-1.125,3.546-2.839,5.788-4.48m.777,2.1a5.99,5.99,0,0,1,.162.729,39.624,39.624,0,0,0-4.618,2.666l.535-.44c2-1.639,3.161-2.616,3.825-3.229.032.092.068.182.1.274m.586,3.662c.019.281.042.561.053.843a39.873,39.873,0,0,0-3.81,2.544c-.612.438-1.311.936-1.966,1.384l-1.97,1.208c-.047.021-.09.038-.13.052.611-.886,4.165-3.55,7.822-6.031m.134,3.456c.006.184,0,.367-.005.55l-7.553,4.361c1.126-1.041,3.461-2.744,5.016-3.878,1.124-.82,1.936-1.418,2.517-1.867.007.278.013.556.025.833m-.07,1.6-.022.261-1.624.938c.7-.493,1.232-.882,1.646-1.2m-.267,2.32-2.373,1.37c1.062-.757,1.857-1.357,2.451-1.843-.025.158-.05.316-.078.473m-6.832-21.681-3.627,2.094a29.526,29.526,0,0,0,2.841-2.764c.149.126.3.253.451.373.118.092.22.2.334.3m-16-7.6c-.147.095-.307.2-.482.315-.992.548-1.725.972-2.264,1.3l1.513-1.784c.411.059.826.1,1.234.169m2.619.565-2.982,1.721c.556-.607,1.225-1.331,1.819-1.973.388.084.777.156,1.163.251m1.456.405c-.952.66-1.917,1.293-2.712,1.774a28.629,28.629,0,0,0,2.437-1.854l.275.08m.994.29c.258.08.518.152.774.238-.19.123-.4.258-.642.423-.881.488-1.823,1.035-2.549,1.518.333-.3.694-.62,1-.884.667-.584,1.122-.991,1.422-1.295m2.271.779c.079.029.159.056.238.086-.233.126-.5.273-.831.468.253-.223.438-.4.593-.554m1.672.706c.366.194.729.4,1.083.609-.6.352-1.405.894-2.476,1.634-.336.232-.7.486-1.04.713Zm2.876,1.769c-1.6,1.054-2.692,1.789-3.432,2.308a7.368,7.368,0,0,1-1.3.649,26.567,26.567,0,0,1,3.826-3.569c.306.2.606.406.906.612m1.124.787.384.272c-1.376.972-2.8,1.912-3.818,2.487,1.83-1.446,2.862-2.268,3.434-2.759m1.048.736.317.222c-.385.216-.909.518-1.683.967.648-.528,1.07-.9,1.366-1.189M120.558,110.2c-.954.566-1.964,1.161-2.771,1.627.516-.536,1.117-1.156,1.647-1.7l.786.028c.114.011.225.034.338.047m-3.346.066c-.816.5-1.689,1.08-2.41,1.579.209-.38.472-.844.747-1.318.1-.013.208-.018.311-.034.451-.056.9-.142,1.351-.227m-4.741.752q.133-.027.268-.05l-.693.439c.162-.146.3-.272.425-.389m-15.765,64.1c.618.161,1.311-.056,1.916.189a4.955,4.955,0,0,0,.916.337,6.609,6.609,0,0,0,.967.058,7.1,7.1,0,0,1,1.853.585,4.306,4.306,0,0,0,.972.028,4.02,4.02,0,0,1,.945.19c.627.168,1.324-.156,1.942.051.315.067.622.192.934.279s.631.135.948.195a8.107,8.107,0,0,0,.967.055,7.233,7.233,0,0,1,.976-.036c.644.027,1.254.394,1.905.372a16.12,16.12,0,0,1,1.945-.006,14.537,14.537,0,0,0,1.928.406,6.449,6.449,0,0,0,.982-.081,6.02,6.02,0,0,1,.982.028,5.988,5.988,0,0,0,2,.064,6.938,6.938,0,0,0,2-.5.891.891,0,0,0-.267-1.717c.078-.023.158-.036.236-.062.271-.11.548-.211.808-.337l.095-.055a.874.874,0,0,0,.318,1c-.205-.14-.126.081-.14.287-.014.224-.012.5-.032.776a13.709,13.709,0,0,0-.03,1.789,3.349,3.349,0,0,1-.131.916c-.076.256-.185.5-.256.756a.866.866,0,0,0-.264,0l-.115.025a9.549,9.549,0,0,0-1.61.557,3.184,3.184,0,0,1-1.726.543,2.973,2.973,0,0,0-.922.047,1.94,1.94,0,0,1-.921.135,7.735,7.735,0,0,1-.939-.2,2.167,2.167,0,0,0-.93-.143,6.39,6.39,0,0,1-1.884.3c-.312-.068-.6-.419-.916-.435-.307-.077-.649.267-.97.316-.326.092-.6-.311-.926-.254a3.2,3.2,0,0,0-.49.129,1.057,1.057,0,0,1-.474-.033,7.872,7.872,0,0,0-.922-.276,6.851,6.851,0,0,0-.962.031,1.954,1.954,0,0,1-.922-.26,2.411,2.411,0,0,0-.945-.1,4.145,4.145,0,0,1-1.865-.378c-.6-.206-1.262-.153-1.877-.316a18.268,18.268,0,0,0-1.856-.428c-.316-.04-.654.018-.964-.05a3.639,3.639,0,0,1-.907-.31,5.4,5.4,0,0,0-1.863-.4,4.669,4.669,0,0,1-.938-.167,2.186,2.186,0,0,1-.776-.389l-.019-.011c-.012-.191-.014-.419-.006-.647.018-.133.033-.269.054-.4a6.1,6.1,0,0,0,.489-.81,2.15,2.15,0,0,0,.145-.943c0-.046.009-.091.012-.137a1.464,1.464,0,0,1,.134-.332c.117-.235.312-.287.289-.225,0,.023,0,0,.076-.021a.42.42,0,0,1,.122-.059c.01-.009.087-.026.013-.025a.246.246,0,0,1-.061-.016l.051,0a4.9,4.9,0,0,1,.916.116m-2.343,3.441,0,0c-.083-.049-.126-.078,0,0m.136.272c0,.039-.008.021-.013-.015,0-.009,0-.027,0-.037a.268.268,0,0,1,.016.052m17.039,13.739a3.135,3.135,0,0,0-.733.153,3.533,3.533,0,0,1-.641.331,4.9,4.9,0,0,1-1.426-.1,1.177,1.177,0,0,0-.662.208,7.244,7.244,0,0,1-.689.261c-.489.216-.92-.739-1.414-.3-.253.186-.5.34-.715.136a.564.564,0,0,0-.685-.1c-.524.165-.82-.448-1.27-.466a2.014,2.014,0,0,1-.671-.147c-.2-.1-.315-.348-.472-.5-.337-.263-.865-.351-1.116-.758-.372-.875-1.182-1.44-1.575-2.388a4.689,4.689,0,0,0-.364-.58,3.662,3.662,0,0,1,.7.108,4.032,4.032,0,0,1,.891.383,5.166,5.166,0,0,0,1.856.515,4.406,4.406,0,0,1,1.824.621,5.457,5.457,0,0,0,1.891.38,2.4,2.4,0,0,1,.924.266,2.75,2.75,0,0,0,.886.4,6.382,6.382,0,0,1,.922.273c.3.124.581.31.887.406a3,3,0,0,0,.955.153,7.143,7.143,0,0,1,.94.207,2.8,2.8,0,0,0,.691.107,2.966,2.966,0,0,1-.934.433m6.883-1.468c-.141.218-.286.45-.444.511a.8.8,0,0,1-.1.027.094.094,0,0,1-.018-.054c-.006,0,.052-.056.087-.043-.039-.01-.1-.028-.127-.032a7.04,7.04,0,0,1-1.9-.169,7.127,7.127,0,0,0-.9-.346,4.339,4.339,0,0,0-.965-.084c-.657-.011-1.188-.5-1.813-.63a6.517,6.517,0,0,1-.914-.286,3.2,3.2,0,0,0-.894-.357c-.31-.076-.644-.06-.961-.11s-.622-.143-.936-.207a2.721,2.721,0,0,0-.963-.105,2.469,2.469,0,0,1-.924-.251,9.45,9.45,0,0,0-1.321-.579.969.969,0,0,1,.106,0c.275.023.54.143.819.144a3.356,3.356,0,0,0,.848-.137,7.414,7.414,0,0,1,1.637.316,4.307,4.307,0,0,0,1.666-.012,2.147,2.147,0,0,1,.832.005,6.735,6.735,0,0,0,.823.2c.556.052,1.117-.154,1.67-.141.553-.036,1.111.285,1.674.3.563.034,1.111-.222,1.678-.155a5.8,5.8,0,0,0,2.822-.236c-.115.357-.222.718-.349,1.07-.182.6-.859.915-1.132,1.362m3.756-8.389a9.417,9.417,0,0,1-.689,1.762c-.274.569-.19,1.26-.446,1.838a3.431,3.431,0,0,1-.362.654.87.87,0,0,0-.444-.207l-.1-.013a6.7,6.7,0,0,0-1.594,0,6.8,6.8,0,0,0-1.573.3c-.525.17-1.074-.086-1.607-.032s-1.071.391-1.614.317c-.543-.014-1.076-.237-1.617-.216a5.45,5.45,0,0,0-.819.114,2.059,2.059,0,0,1-.811-.08,5.043,5.043,0,0,0-1.614-.254,5.149,5.149,0,0,1-1.638.02,3.278,3.278,0,0,0-.788-.3c-.267-.057-.548.014-.816-.034a5.679,5.679,0,0,1-.791-.25,2.285,2.285,0,0,0-.83.069,1.808,1.808,0,0,1-.824,0,7.6,7.6,0,0,0-.792-.233,2.722,2.722,0,0,0-.831.035,1.639,1.639,0,0,1-.8-.162c-.505-.294-1.071-.2-1.584-.44a1.85,1.85,0,0,0-.792-.213c-.276,0-.559.034-.831.011l-.809-.117a7.476,7.476,0,0,0-.841.049c-.537-.089-1.029-.431-1.547-.555a.863.863,0,0,0-.177-.014l-.071-.054a1.74,1.74,0,0,1-.235-.224c-.047-.06-.15-.066-.193-.119a.556.556,0,0,1-.314-.549c.007-.268.1-.545.1-.827s-.1-.583-.115-.887a.98.98,0,0,1,.074-.449,2.984,2.984,0,0,0,.244-.426c.137-.283-.179-.655.006-.937a.632.632,0,0,1,.061-.084c.037.009.071.016.1.027.406.108.759.076,1.06.156a6.365,6.365,0,0,1,.92.3,5.075,5.075,0,0,0,1.867.5,3.921,3.921,0,0,1,.963.113c.314.068.6.268.909.359a14.411,14.411,0,0,0,1.9.347c.639.085,1.243.36,1.89.4a4.379,4.379,0,0,1,1.916.268,2.279,2.279,0,0,0,.949.192,2.163,2.163,0,0,1,.975.018,6.669,6.669,0,0,0,.938.289,8.19,8.19,0,0,0,.982-.045,1.218,1.218,0,0,1,.479.072,3.267,3.267,0,0,0,.464.229c.313.128.672-.22.983-.074.315.1.61.507.941.467.327.023.671-.277,1-.316a2.2,2.2,0,0,1,.97.162,7.823,7.823,0,0,0,.979.254,2.122,2.122,0,0,0,.987-.159c.327-.087.653-.191.978-.269a3.018,3.018,0,0,1,.991,0,2.293,2.293,0,0,0,.982-.172,9.066,9.066,0,0,1,2.029-.218,3.987,3.987,0,0,0,1.278-.413c0,.009,0,.019,0,.027m5.3-17.908c-.3.433-.667.817-.971,1.276a10.642,10.642,0,0,0-.809,1.384c-.392.888-.458,1.914-.838,2.808a10.9,10.9,0,0,1-1.623,2.281,11.845,11.845,0,0,1-.821,1.025l-.511.38-.587.209a6.2,6.2,0,0,1-2.577-.133c-.911-.2-1.87-.365-2.834-.634a22.021,22.021,0,0,1-2.829-1.039,17.064,17.064,0,0,0-2.951-.767c-.994-.23-2.008-.311-2.98-.564-.977-.233-1.954-.447-2.9-.708-1.868-.5-3.84-.865-5.007-2.1-1.189-1.191-1.293-3.1-1.189-4.957a23.859,23.859,0,0,1,.3-2.884,14.005,14.005,0,0,1,.274-1.543c.1-.516.1-1.038.159-1.559a16.656,16.656,0,0,0-.774-6.143c-.274-.985-.6-1.952-.923-2.908-.3-.967-.556-1.941-.834-2.908-.137-.484-.309-.951-.461-1.427l-.545-1.389c-.371-.923-.694-1.852-1.028-2.782a12.992,12.992,0,0,1-.715-2.846c-.131-.972-.141-1.938-.285-2.89a15.771,15.771,0,0,1,.05-2.863,20.664,20.664,0,0,1,.583-2.8c.154-.942.525-1.824.729-2.761a5.755,5.755,0,0,1,.523-1.333l.618-1.3,1.444-2.5a15.443,15.443,0,0,1,1.858-2.224c.587-.451,1.123-.948,1.692-1.405,1.314-.635,3.313-1.888,5.275-3.071.233-.14.483-.279.776-.449a.289.289,0,0,0,.377.42l3.895-2.248c.051-.018.1-.039.152-.056-1.152,1.037-1.352,1.272-1.189,1.555a.305.305,0,0,0,.188.14c.178.046.206.051,2.223-1.234.519-.331,1.2-.761,1.809-1.136.067-.012.134-.021.2-.034l.4-.066c-1.131,1.96-1.087,2.088-1,2.233a.29.29,0,0,0,.418.092,51.4,51.4,0,0,1,4.363-2.826h.031c-2.664,2.738-2.659,2.76-2.538,2.966a.3.3,0,0,0,.18.137c.132.031.235.06,4.515-2.486l-2.092,2.468a.29.29,0,0,0-.03.331.4.4,0,0,0,.22.161.346.346,0,0,0,.106.008.282.282,0,0,0,.228-.027l.133-.077a9.66,9.66,0,0,0,1.18-.682l2.81-1.622c-1.352,1.458-1.943,2.109-2.182,2.434-.187.254-.157.309-.108.4a.29.29,0,0,0,.176.135.284.284,0,0,0,.22-.029l3.537-2.042c-.4.29-.792.569-1.1.788-1.643,1.165-1.778,1.259-1.605,1.558a.405.405,0,0,0,.272.191c.476.1,1.908-.724,3.324-1.644-1.529,1.355-1.888,1.785-1.676,2.153a.466.466,0,0,0,.239.173.4.4,0,0,0,.108.01.288.288,0,0,0,.368.066l3.9-2.249c-.843.7-1.918,1.549-2.951,2.336a2,2,0,0,1,.357.579.288.288,0,0,0,.4.082l1.671-1.1c1.2-.775,2.342-1.47,3.085-1.872l-3.085,3.748a.289.289,0,0,0-.027.328.367.367,0,0,0,.213.155c.268.058.629-.148,2.559-1.483.394-.272.884-.611,1.367-.933-3.138,2.686-2.864,3.16-2.765,3.332a.428.428,0,0,0,.291.2.508.508,0,0,0,.124.009.221.221,0,0,0,.043.184.449.449,0,0,0,.233.17c.28.069.864-.186,2.238-1.03-.547.435-1.082.859-1.546,1.225a.288.288,0,0,0-.071.372.424.424,0,0,0,.287.2,5.643,5.643,0,0,0,2.482-1.085c-.585.454-1.2.923-1.8,1.374a.289.289,0,0,0,.319.481c1.727-1.012,4.109-2.4,5.391-3.135-.849.926-2.526,2.409-3.367,3.153-1.357,1.2-1.357,1.2-1.219,1.438a.29.29,0,0,0,.4.105l2.177-1.257-1.969,1.454a.289.289,0,0,0-.079.377.458.458,0,0,0,.241.173c.391.079,1.12-.409,3.125-1.834.245-.175.525-.373.818-.579l-3.551,2.731a.288.288,0,0,0-.074.374.392.392,0,0,0,.216.159c.417.105,2.552-1.145,4.825-2.584-.331.289-.669.578-.975.842-3,2.574-3.381,2.982-3.165,3.357a.33.33,0,0,0,.046.06.309.309,0,0,0,.032.092.346.346,0,0,0,.2.149c.253.061.741-.193,3.029-1.634-2.905,2.318-2.71,2.655-2.6,2.843a.289.289,0,0,0,.182.137.294.294,0,0,0,.225-.038c2.486-1.61,5.258-3.315,6.579-4-.779.694-2.307,1.8-3.574,2.7-1.535.837-2.841,1.677-3,2.184l-.006.021a.191.191,0,0,0-.008.246.463.463,0,0,0,.048.119.309.309,0,0,0,.026.038.3.3,0,0,0,.039.165.352.352,0,0,0,.2.149c.311.076,1.177-.366,5.6-3.1-1.415,1.131-3.389,2.628-5.258,4a.289.289,0,0,0-.079.377.306.306,0,0,0,.184.14c.175.045.237.057,2.918-1.56l-2.8,2.007a.289.289,0,0,0,.313.485l3.87-2.234c-4.279,3.293-4.061,3.669-3.945,3.87a.29.29,0,0,0,.4.106l6.643-3.836c-.9.772-2.062,1.729-3.035,2.527-3.885,3.187-3.858,3.235-3.68,3.545a.29.29,0,0,0,.186.137.285.285,0,0,0,.227-.043,77.284,77.284,0,0,1,7.817-4.85c.005.027.009.054.014.08-.84.632-2.455,1.6-3.731,2.368-3.843,2.309-4.767,2.963-4.448,3.516a.272.272,0,0,0,.055.068.29.29,0,0,0-.067.248.44.44,0,0,0,.041.222.142.142,0,0,0,.014.022.289.289,0,0,0,.4.391l3.247-1.875c-2.688,2.02-3.907,3.276-3.633,3.752l.01.017a.289.289,0,0,0,.366.437l6.632-3.829c-.432.319-.887.651-1.325.97-4.8,3.5-6.228,4.693-5.845,5.354a.289.289,0,0,0,.395.106l5.568-3.215c-1.91,1.326-4.239,2.892-6.008,4.063a.289.289,0,0,0,.3.491l8.324-4.806c0,.014,0,.027,0,.041-1.74,1.513-5.738,4.194-7.283,5.229-.892.6-1.356.909-1.581,1.1l-.021.013c-.166.145-.185.222-.152.305a.289.289,0,0,0,.424.325l6.37-3.677-7.161,5.859a.289.289,0,0,0,.346.462c2.866-1.962,6-3.952,7.729-4.861l-8.726,6.935a.29.29,0,0,0-.057.392.287.287,0,0,0,.184.119c-.8.707-.683.907-.611,1.032a.289.289,0,0,0,.406.1c.332-.212.669-.426,1.007-.639-2.085,1.443-2,1.584-1.866,1.824a.288.288,0,0,0,.4.106l5.846-3.376c-.1.14-.2.278-.3.415-.156.113-.3.219-.465.338a43.9,43.9,0,0,0-6.105,3.9.289.289,0,0,0,.318.482c1.767-1.044,3.255-1.968,4.494-2.783-.21.212-.423.42-.626.638l-5.543,4.734a.289.289,0,0,0-.063.364.3.3,0,0,0,.132.1,19.168,19.168,0,0,0-2.056,1.884,55.748,55.748,0,0,0-3.662,4.978" transform="translate(-55.639 -66.088)" fill="#e9bb2b"/>
      <path id="Path_74721" data-name="Path 74721" d="M159.159,320.458l-.006,0c.031.008.048.013.006,0" transform="translate(-96.848 -195.005)" fill="#e9bb2b"/>
      <path id="Path_74722" data-name="Path 74722" d="M155.567,163.574a1.135,1.135,0,0,0-.6-.2,2.738,2.738,0,0,0-.761.1,4.028,4.028,0,0,0-1.125.386c-.345.218-.527.409-.758.571a1.147,1.147,0,0,1-.758.212,1.687,1.687,0,0,1-.664-.253,2.428,2.428,0,0,1-.57-.383.461.461,0,0,1-.114-.254c-.007-.042.013-.051.011-.069a1.933,1.933,0,0,0,.081-.387,2.011,2.011,0,0,0-.388-1.365,2.879,2.879,0,0,0-1.152-.855,2.043,2.043,0,0,0-1.446-.07,6.708,6.708,0,0,1-1.857.564,8.238,8.238,0,0,0-.943.173,2.091,2.091,0,0,1-.948-.067,14.071,14.071,0,0,1-1.6-.632c-.156-.07-.227-.078-.31-.5a1.765,1.765,0,0,0-.278-.688,2.069,2.069,0,0,0-.523-.507,2.7,2.7,0,0,0-1.207-.485,2.226,2.226,0,0,0-1.271.238c-.359.182-.659.381-.956.513a1.533,1.533,0,0,1-.766.125c-.215-.057-.176.02-.41-.208a6.163,6.163,0,0,1-.588-.7c-.385-.53-.638-1.16-1.028-1.732a5.356,5.356,0,0,0-.336-.433l-.112-.13-.1-.1-.093-.076a.587.587,0,0,0-.281-.1.6.6,0,0,0-.447.138.658.658,0,0,0-.188.393.377.377,0,0,0,0,.118,1.142,1.142,0,0,0,.02.131l.042.159a6.9,6.9,0,0,1,.252,1.042,3.44,3.44,0,0,0,.3.986,2.91,2.91,0,0,1,.37.916,8.92,8.92,0,0,0,.105,1c.07.323.2.639.294.963a2.306,2.306,0,0,1,0,1.016c-.021.338.287.643.225.99-.033.343-.271.7-.21,1.029.019.335.289.656.342.994a9.348,9.348,0,0,1-.215,2.037,18.844,18.844,0,0,0,.279,2.036,3.2,3.2,0,0,1-.064,1.02,3.894,3.894,0,0,0,.016,1.023,7.155,7.155,0,0,1-.221,2.042,7.72,7.72,0,0,0-.018,2.083.663.663,0,0,0,.05.165,6.338,6.338,0,0,0-.33.949,8.438,8.438,0,0,0-.263.927c-.075.54-.09,1.043-.16,1.595-.067.536-.29,1.059-.334,1.606a4.415,4.415,0,0,1-.325,1.624,2.187,2.187,0,0,0-.23.8,2.1,2.1,0,0,1-.114.829,5.392,5.392,0,0,0-.327.774c-.068.269-.053.56-.1.836,0,.287-.229.513-.36.765-.149.247.059.593-.108.835-.133.251-.478.442-.51.721-.077.266.083.6.043.879a8,8,0,0,1-.727,1.524,10.282,10.282,0,0,0-.209,1.678,2.184,2.184,0,0,1-.287.785,2.667,2.667,0,0,0-.2.811,4.8,4.8,0,0,1-.633,1.551,5.729,5.729,0,0,0-.459,1.6.683.683,0,0,0,.348.682.676.676,0,0,0,.915-.273,5.555,5.555,0,0,0,.554-1.584,5.017,5.017,0,0,1,.361-1.642,2.563,2.563,0,0,0,.289-.788,2.2,2.2,0,0,1,.2-.814,10.043,10.043,0,0,0,.75-1.525,8.241,8.241,0,0,1,.213-1.685c.115-.258.426-.459.5-.728.121-.257-.071-.6-.052-.887-.015-.294.339-.486.338-.777a1.852,1.852,0,0,1,.084-.847,7.806,7.806,0,0,0,.333-.78,5.41,5.41,0,0,0,.1-.842,2.266,2.266,0,0,1,.292-.793,2.374,2.374,0,0,0,.174-.824,4.366,4.366,0,0,1,.415-1.637c.151-.549.175-1.115.288-1.679a11.767,11.767,0,0,0,.242-1.723c.024-.227-.085-.5-.007-.72a2.192,2.192,0,0,1,.115-.323,1.5,1.5,0,0,1,.208-.245,3.449,3.449,0,0,1,.963-.712,1.875,1.875,0,0,1,1.436.007,13.367,13.367,0,0,0,1.55.227,1.743,1.743,0,0,1,.758.265,2.721,2.721,0,0,0,.705.4,5.259,5.259,0,0,1,.713.366,3.579,3.579,0,0,1,.525.444c.108.139.229.158.273.246.1.078.036.27.01.474a4.368,4.368,0,0,1-.469,1.472,3.632,3.632,0,0,0-.754,1.489,9.46,9.46,0,0,1-.9,1.446,5.074,5.074,0,0,0-.244.82,6.557,6.557,0,0,1-.36.768c-.258.508-.178,1.143-.443,1.645a11.7,11.7,0,0,0-.71,1.541c-.188.532-.227,1.111-.364,1.656s-.494,1.025-.6,1.583a12.715,12.715,0,0,1-.313,1.664,13.283,13.283,0,0,0-.605,1.6,9.424,9.424,0,0,1-.276,1.676,8.017,8.017,0,0,0-.414,3.4.669.669,0,0,0,1.317.11l.009-.039a13.211,13.211,0,0,0,.485-3.22,4.825,4.825,0,0,1,.135-.813,7.914,7.914,0,0,0,.247-.79c.139-.53.063-1.114.157-1.659a11.086,11.086,0,0,1,.54-1.569c.211-.512.152-1.1.343-1.625s.5-1,.666-1.525.263-1.076.4-1.612c.1-.554.606-.947.764-1.473a4.108,4.108,0,0,1,.288-.772,7,7,0,0,0,.426-.713,6.52,6.52,0,0,1,.514-1.584,3.752,3.752,0,0,0,.7-1.52c.137-.565.609-.971.77-1.629a2.956,2.956,0,0,0,.059-1.078c.6-1.048,1.277-2.041,1.833-3.169a7.326,7.326,0,0,1,.582-.815c.219-.253.484-.471.694-.73.418-.519.735-1.14,1.154-1.673a13.825,13.825,0,0,1,1.5-1.378c.519-.437.855-1.064,1.368-1.511s1.117-.791,1.616-1.25.949-.975,1.44-1.449a3.267,3.267,0,0,1,.831-.594,3.214,3.214,0,0,0,.46-.26l.121-.079a1.2,1.2,0,0,0,.211-.236,1.106,1.106,0,0,0,.2-.673,1,1,0,0,0-.422-.761m-.933.583-.046.049,0-.005c.012-.013.038-.05.043-.044m-20.454-7.316c0,.016,0,.007,0,.02l0-.023c0-.02,0,0,0,0m17.619,9.739c-.522.455-.941,1.021-1.422,1.516s-1.135.813-1.577,1.354c-.475.505-.84,1.115-1.352,1.582a16.7,16.7,0,0,0-1.54,1.428,20.946,20.946,0,0,1-1.244,1.7,8.447,8.447,0,0,0-1.672,2.62,5.361,5.361,0,0,0-.578-.245c-.276-.1-.533-.232-.8-.338a2.523,2.523,0,0,0-.849-.218,3.675,3.675,0,0,1-.824-.276,3.614,3.614,0,0,0-1.71-.493c-.619.035-1.223.079-1.883.147a2.093,2.093,0,0,0-.318.074,9.508,9.508,0,0,0,.009-1.088,7.606,7.606,0,0,1-.065-2.063,3.952,3.952,0,0,0,.074-1.03,3.4,3.4,0,0,1-.026-1.034,12.574,12.574,0,0,0,.283-2.072,14.991,14.991,0,0,1-.324-2.069c.018-.347.243-.708.222-1.057.03-.352-.29-.679-.377-1.018-.114-.336.121-.711.006-1.052a3.581,3.581,0,0,0-.192-.5,2.2,2.2,0,0,1-.094-.516,9.868,9.868,0,0,0-.063-1.059,3.2,3.2,0,0,0-.118-.37,1.9,1.9,0,0,0,.537.413,1.567,1.567,0,0,0,.8.146,3.14,3.14,0,0,0,1.187-.463,3.209,3.209,0,0,1,.914-.332,2.433,2.433,0,0,1,1.468.088c.24.114.309.152.362.4a4.047,4.047,0,0,0,.106.608,1.548,1.548,0,0,0,.433.691,2.3,2.3,0,0,0,1.14.55,6.153,6.153,0,0,0,1.112.128,8.488,8.488,0,0,1,1.1.09,2.963,2.963,0,0,0,1.1.041c.367-.031.721-.124,1.082-.166s.743-.091,1.062-.168a2.33,2.33,0,0,1,.581-.077.739.739,0,0,1,.5.312,1.814,1.814,0,0,1,.3.532.787.787,0,0,1,.024.122,1.378,1.378,0,0,0-.015.441,2.352,2.352,0,0,0,.206.713,2.076,2.076,0,0,0,.895,1.019,2.3,2.3,0,0,0,1.306.243,7.326,7.326,0,0,0,1.24-.193,4.109,4.109,0,0,0,.446-.136,15.721,15.721,0,0,0-1.443,1.076" transform="translate(-78.507 -95.081)" fill="#e9bb2b"/>
      <path id="Path_74723" data-name="Path 74723" d="M32.818,187.134a3.67,3.67,0,0,0-2.019.061,2.879,2.879,0,0,1-1.011-.007,5.971,5.971,0,0,0-1,.279,4.962,4.962,0,0,1-1.015-.069c-.339-.047-.664.2-1,.182a6.106,6.106,0,0,0-1.017-.11,4.743,4.743,0,0,0-1,.21c-.331.11-.684-.2-1.017-.128a1.842,1.842,0,0,1-.5.06,2.248,2.248,0,0,0-.51-.078c-.334.054-.658.331-1,.257a1.4,1.4,0,0,0-1.006.083c-.33.133-.68-.107-1.014-.062a2.4,2.4,0,0,1-.506-.005,1.15,1.15,0,0,0-.509-.058,5.682,5.682,0,0,1-1,.2,1.016,1.016,0,0,0-.5.143.939.939,0,0,1-.5.031,2.035,2.035,0,0,0-1.014-.06,1.642,1.642,0,0,1-1,.115,1.942,1.942,0,0,0-1.01.02,1.448,1.448,0,0,1-1.01.011,5.433,5.433,0,0,0-1.006.087,8.942,8.942,0,0,0-1.01.024,1.544,1.544,0,0,1-1.006.1.87.87,0,0,0-.506,0,.785.785,0,0,1-.5.117,2.476,2.476,0,0,0-.51-.092,3.163,3.163,0,0,0-.5.149c-.164.08-.34-.062-.512-.123s-.325.234-.5.151c-.171-.051-.354-.321-.519-.266-.168.008-.323.262-.489.309-.332.086-.684-.18-1.022-.215s-.66.263-.993.341a.9.9,0,0,1-.507-.026.936.936,0,0,0-.5.071,1.907,1.907,0,0,1-1.015-.09,2.082,2.082,0,0,0-1.006.1.7.7,0,0,0-.433.481.7.7,0,0,0,.5.845,2.082,2.082,0,0,0,1.011-.005,1.914,1.914,0,0,1,1-.2.935.935,0,0,0,.507.018.9.9,0,0,1,.5-.079c.339.043.69.3,1.023.235s.654-.372.994-.322c.17.03.351.266.519.256.17.037.324-.251.489-.319.163-.1.346.173.51.1s.325-.239.5-.176a3.227,3.227,0,0,0,.51.1,2.427,2.427,0,0,0,.5-.146.784.784,0,0,1,.509.065.874.874,0,0,0,.5-.057,1.546,1.546,0,0,1,1.01-.011,8.972,8.972,0,0,0,1.006-.082,5.373,5.373,0,0,0,1.01-.019,1.45,1.45,0,0,1,1.006-.1,1.936,1.936,0,0,0,1.006-.087,1.64,1.64,0,0,1,1.012.009,2.044,2.044,0,0,0,1-.167.927.927,0,0,1,.5-.02.984.984,0,0,0,.51.086,2.744,2.744,0,0,1,1.015.081,1.157,1.157,0,0,0,.5-.1,2.6,2.6,0,0,1,.5-.056c.337.009.66-.267,1-.169a1.4,1.4,0,0,0,1.01-.023c.329-.109.681.132,1.019.15a2.23,2.23,0,0,0,.5-.131,1.858,1.858,0,0,1,.506.007c.339.032.658-.308,1-.234a4.77,4.77,0,0,0,1.017.1,6.07,6.07,0,0,0,1-.216c.334-.053.682.158,1.015.076a4.923,4.923,0,0,1,1-.175,5.968,5.968,0,0,0,1.02.172,2.88,2.88,0,0,1,1.005-.112,3.669,3.669,0,0,0,2.014-.152.685.685,0,0,0-.07-1.326" transform="translate(-0.062 -113.807)" fill="#e9bb2b"/>
      <path id="Path_74724" data-name="Path 74724" d="M32.449,85.951a4.647,4.647,0,0,1-1.015-.8,10.564,10.564,0,0,0-1.181-.565,7.333,7.333,0,0,1-.978-.848c-.313-.3-.792-.37-1.124-.643a8.876,8.876,0,0,0-.955-.882,7.64,7.64,0,0,0-1.141-.621c-.4-.174-.565-.687-.944-.9a3,3,0,0,1-.545-.347c-.162-.142-.278-.35-.464-.459-.371-.22-.873-.259-1.168-.582a2.248,2.248,0,0,0-1.066-.725c-.417-.155-.617-.615-.983-.842a3.048,3.048,0,0,1-.5-.406,2.168,2.168,0,0,0-.48-.438,7.592,7.592,0,0,1-1.133-.631,1.657,1.657,0,0,0-.593-.279,1.536,1.536,0,0,1-.528-.37,3.283,3.283,0,0,0-.983-.841,2.641,2.641,0,0,1-1.086-.7,3.136,3.136,0,0,0-1.03-.776,2.335,2.335,0,0,1-1.025-.783,12.764,12.764,0,0,0-1.069-.721c-.366-.226-.648-.571-1.032-.772a2.487,2.487,0,0,1-1.074-.714,1.4,1.4,0,0,0-.507-.4,1.242,1.242,0,0,1-.577-.3,3.877,3.877,0,0,0-.456-.471,4.994,4.994,0,0,0-.6-.275c-.217-.066-.3-.314-.438-.5S7.3,68.3,7.18,68.1c-.141-.173-.153-.525-.355-.612-.174-.126-.492-.05-.689-.144-.391-.192-.572-.678-.893-.968s-.832-.313-1.217-.514a1.517,1.517,0,0,1-.494-.417,1.486,1.486,0,0,0-.55-.338c-.415-.157-.657-.556-.966-.865a3.192,3.192,0,0,0-1.078-.709.683.683,0,0,0-.771,1.081,3.2,3.2,0,0,0,1.022.788,3.218,3.218,0,0,1,1.133.631,1.43,1.43,0,0,0,.5.411,1.515,1.515,0,0,1,.556.332c.314.3.505.772.882.983s.9.222,1.206.529c.152.156.185.481.36.6.148.162.485.06.694.136.229.05.239.405.453.475s.478.069.611.253a5.1,5.1,0,0,0,.454.474,3.9,3.9,0,0,0,.594.277,1.243,1.243,0,0,1,.472.448,1.4,1.4,0,0,0,.542.35,2.488,2.488,0,0,1,1.025.783c.315.3.733.451,1.066.725a12.737,12.737,0,0,0,1.03.776,2.332,2.332,0,0,1,1.074.714,3.14,3.14,0,0,0,1.069.721,2.638,2.638,0,0,1,1.013.8,3.289,3.289,0,0,0,1.116.656,1.507,1.507,0,0,1,.521.379,1.469,1.469,0,0,0,.463.461c.169.133.354.242.512.391s.286.339.455.472a2.078,2.078,0,0,0,.565.319,3.306,3.306,0,0,1,.546.345c.335.271.834.31,1.117.654a2.249,2.249,0,0,0,1.032.773c.4.174.6.636.931.914a3.525,3.525,0,0,0,.586.289,3.027,3.027,0,0,1,.505.4c.321.29.858.277,1.154.6a7.624,7.624,0,0,0,.958.876,8.856,8.856,0,0,0,1.145.615c.367.225.587.656.974.853a7.314,7.314,0,0,1,1.12.649c.33.278.557.7.918.932a4.66,4.66,0,0,1,1.084.7,5.939,5.939,0,0,0,2.126,1.459.677.677,0,0,0,.771-1.081,5.945,5.945,0,0,0-2.072-1.534" transform="translate(0 -38.634)" fill="#e9bb2b"/>
      <path id="Path_74725" data-name="Path 74725" d="M161.183,36.558a.682.682,0,0,0,.847-.46,4.456,4.456,0,0,0,.18-2.219,3.48,3.48,0,0,1,.126-1.108,7.162,7.162,0,0,0-.158-1.124,5.958,5.958,0,0,1,.189-1.1c.087-.366-.114-.75-.062-1.119a6.671,6.671,0,0,0,.23-1.1,5.75,5.75,0,0,0-.09-1.12c-.07-.376.275-.727.248-1.1a2.253,2.253,0,0,1,0-.558,2.7,2.7,0,0,0,.138-.549c-.014-.373-.25-.761-.137-1.124a1.69,1.69,0,0,0,.038-1.113c-.093-.377.186-.732.182-1.1a2.943,2.943,0,0,1,.065-.554,1.379,1.379,0,0,0,.118-.55,6.9,6.9,0,0,1-.077-1.12,1.222,1.222,0,0,0-.083-.563,1.142,1.142,0,0,1,.028-.556,2.467,2.467,0,0,0,.18-1.1,1.985,1.985,0,0,1,0-1.115,2.346,2.346,0,0,0,.1-1.109,1.756,1.756,0,0,1,.109-1.109,6.52,6.52,0,0,0,.033-1.113,10.894,10.894,0,0,0,.1-1.109,1.87,1.87,0,0,1,.024-1.113,1.053,1.053,0,0,0,.064-.554.94.94,0,0,1-.058-.561,2.938,2.938,0,0,0,.152-.548,3.814,3.814,0,0,0-.088-.563c-.061-.19.1-.366.183-.547s-.193-.383-.09-.563c.07-.182.36-.35.325-.538.012-.185-.222-.385-.249-.573-.046-.374.26-.728.335-1.095s-.182-.754-.221-1.128a1.141,1.141,0,0,1,.086-.552,1.077,1.077,0,0,0-.011-.558,2.415,2.415,0,0,1,.21-1.1,2.4,2.4,0,0,0,.019-1.114.69.69,0,0,0-1.325-.079,2.393,2.393,0,0,0-.115,1.108,2.419,2.419,0,0,1,.076,1.12,1.077,1.077,0,0,0-.078.553,1.143,1.143,0,0,1,.019.559c-.083.367-.379.721-.355,1.094s.292.761.2,1.127c-.05.183-.306.353-.316.538-.057.182.211.384.258.573.081.191-.213.359-.157.548s.2.384.116.565a3.875,3.875,0,0,0-.155.548,2.971,2.971,0,0,0,.085.563.943.943,0,0,1-.124.55,1.048,1.048,0,0,0,0,.557,1.866,1.866,0,0,1-.109,1.109,11.086,11.086,0,0,0-.038,1.113,6.558,6.558,0,0,0-.1,1.109,1.754,1.754,0,0,1-.025,1.114,2.351,2.351,0,0,0-.033,1.113,1.982,1.982,0,0,1-.129,1.107,2.473,2.473,0,0,0,.047,1.118,1.13,1.13,0,0,1-.04.556,1.179,1.179,0,0,0-.146.548,3.326,3.326,0,0,1-.2,1.1,1.407,1.407,0,0,0,.041.56,3.194,3.194,0,0,1,0,.557c-.048.369.186.755.049,1.118a1.685,1.685,0,0,0-.1,1.109c.069.374-.213.731-.271,1.1a2.679,2.679,0,0,0,.071.562,2.249,2.249,0,0,1-.067.553c-.072.368.228.757.114,1.122a5.723,5.723,0,0,0-.223,1.1,7.368,7.368,0,0,0,.1,1.121c.014.372-.238.729-.2,1.1a5.457,5.457,0,0,1,.055,1.118,8.058,8.058,0,0,0-.292,1.1,3.491,3.491,0,0,1-.008,1.115,4.447,4.447,0,0,0-.088,2.225.682.682,0,0,0,.478.54" transform="translate(-97.732 0)" fill="#e9bb2b"/>
      <path id="Path_74726" data-name="Path 74726" d="M92.185,35.406a5.663,5.663,0,0,0,.253.685c.086.227.069.5.173.718a6.84,6.84,0,0,0,.392.626c.116.215.206.441.316.658.09.226.356.378.415.617a4.68,4.68,0,0,1,.17.719,2.175,2.175,0,0,0,.245.688,3.65,3.65,0,0,1,.4.622c.189.448.213.964.433,1.4.11.217.3.4.395.625a2.364,2.364,0,0,1,.179.716,11.556,11.556,0,0,0,.593,1.332,3.511,3.511,0,0,0,.612,1.325c.288.933.736,1.8,1.079,2.71a.806.806,0,0,1,.255.684.378.378,0,0,0,.113.348c.1.09.224.169.235.3.023.252-.19.606.023.781.191.184.507.315.535.567.117.478-.034,1.068.36,1.43a6.919,6.919,0,0,1,.487.587,1.756,1.756,0,0,1,.222.7,4.628,4.628,0,0,0,.366.638,2.44,2.44,0,0,1,.171.719,2.966,2.966,0,0,0,.554,1.349.682.682,0,0,0,1.225-.511,2.965,2.965,0,0,0-.57-1.342,2.431,2.431,0,0,1-.391-.627,4.7,4.7,0,0,0-.2-.708,1.76,1.76,0,0,1-.34-.648,7.028,7.028,0,0,1-.075-.759c.02-.535-.506-.842-.763-1.261-.159-.2-.031-.514-.027-.779.025-.274-.376-.372-.539-.565-.083-.1-.052-.242-.045-.376a.378.378,0,0,0-.168-.325.807.807,0,0,1-.307-.662c-.405-.884-.707-1.812-1.168-2.673a3.5,3.5,0,0,0-.511-1.367,11.572,11.572,0,0,0-.53-1.359,2.363,2.363,0,0,1-.382-.631c-.091-.225-.09-.49-.168-.72-.155-.463-.505-.842-.69-1.292a3.609,3.609,0,0,1-.159-.724,2.164,2.164,0,0,0-.317-.658,4.681,4.681,0,0,1-.392-.627c-.128-.21-.048-.507-.146-.729-.077-.231-.2-.44-.27-.677a6.494,6.494,0,0,0-.155-.725,6.849,6.849,0,0,0-.379-.632c-.067-.144-.127-.291-.194-.435a.747.747,0,0,0-1.3-.274.349.349,0,0,0-.072.333Z" transform="translate(-56.059 -21.032)" fill="#e9bb2b"/>
      <path id="Path_74727" data-name="Path 74727" d="M235.151,101.385a.868.868,0,0,1,.761-.433.659.659,0,0,0,.426-.155,1.365,1.365,0,0,0,.213-.448c.1-.35.577-.193.735-.47a.977.977,0,0,1,.665-.566,1.441,1.441,0,0,0,.691-.531,1.382,1.382,0,0,1,.743-.458,2.21,2.21,0,0,0,.651-.586c.411-.422,1.065-.509,1.462-.95l.143-.159a.476.476,0,0,0,.123-.319,2.482,2.482,0,0,0-.215-.57c-.2-.242-.811,0-.811,0-.543.241-.828.836-1.356,1.1a2.2,2.2,0,0,0-.758.438,1.386,1.386,0,0,1-.666.565,1.441,1.441,0,0,0-.718.492.975.975,0,0,1-.744.457c-.312.065-.308.563-.674.554a1.369,1.369,0,0,0-.492.063.657.657,0,0,0-.279.357.87.87,0,0,1-.648.59,4.59,4.59,0,0,0-.833.335c-.455.361-.691,1.025-1.245,1.25a1.7,1.7,0,0,0-.694.525,1.884,1.884,0,0,1-.74.463,3.6,3.6,0,0,0-1.435.988.679.679,0,0,0,.78,1.075,3.605,3.605,0,0,0,1.384-1.058,1.884,1.884,0,0,1,.669-.561,1.7,1.7,0,0,0,.715-.5c.385-.458,1.089-.476,1.573-.8a4.631,4.631,0,0,0,.576-.689" transform="translate(-139.522 -58.195)" fill="#e9bb2b"/>
      <path id="Path_74728" data-name="Path 74728" d="M284.481,104.791a2.9,2.9,0,0,0-1.123.5,2.929,2.929,0,0,1-1.039.669,1.3,1.3,0,0,0-.57.23,1.385,1.385,0,0,1-.528.317c-.394.126-.882.06-1.229.282s-.586.663-.983.782c-.2.055-.492-.075-.676.016-.2.049-.265.39-.422.533-.143.173-.452.009-.606.159s-.269.379-.485.4a4.7,4.7,0,0,0-.6.161,3.528,3.528,0,0,0-.5.377,1.133,1.133,0,0,1-.591.189,1.274,1.274,0,0,0-.538.3,2.262,2.262,0,0,1-1.12.5c-.394.127-.712.406-1.089.567a7.966,7.966,0,0,0-1.117.51,2.12,2.12,0,0,1-1.083.579,2.843,2.843,0,0,0-1.087.571,2.4,2.4,0,0,1-1.129.485,2.992,2.992,0,0,0-1.052.643,1.368,1.368,0,0,1-.554.265,1.412,1.412,0,0,0-.6.17,4.037,4.037,0,0,1-1.162.42,1.692,1.692,0,0,0-.518.337,3.894,3.894,0,0,1-.538.3c-.379.157-.633.568-1.051.645a2.042,2.042,0,0,0-1.115.514c-.325.262-.809.209-1.192.357a3.206,3.206,0,0,0-.5.364,2.738,2.738,0,0,1-.566.24c-.389.136-.614.606-1.022.7a6.925,6.925,0,0,0-1.171.4,7.99,7.99,0,0,0-1.03.687c-.354.207-.82.187-1.159.424a6.606,6.606,0,0,1-1.048.651,9.614,9.614,0,0,0-1.2.339,4.236,4.236,0,0,1-1.076.594,5.4,5.4,0,0,0-2.184,1.123.679.679,0,0,0,.585,1.192,5.392,5.392,0,0,0,2.224-1.04,4.234,4.234,0,0,1,1.128-.488,9.649,9.649,0,0,0,1-.743,6.614,6.614,0,0,1,1.156-.431c.4-.123.664-.5,1.045-.657a8.043,8.043,0,0,0,1.174-.394,6.913,6.913,0,0,0,1.033-.682c.327-.263.836-.153,1.182-.378a2.736,2.736,0,0,1,.536-.3,3.2,3.2,0,0,0,.6-.177c.352-.213.606-.627,1.012-.724a2.045,2.045,0,0,0,1.089-.568c.316-.283.8-.233,1.153-.437a3.586,3.586,0,0,1,.565-.242,1.723,1.723,0,0,0,.588-.194,6.937,6.937,0,0,1,1.039-.67,1.511,1.511,0,0,0,.5-.375,1.394,1.394,0,0,1,.549-.275,2.987,2.987,0,0,0,1.152-.438,2.4,2.4,0,0,1,1.074-.6,2.847,2.847,0,0,0,1.117-.51,2.12,2.12,0,0,1,1.12-.5,7.988,7.988,0,0,0,1.087-.571c.358-.2.774-.281,1.115-.515a2.267,2.267,0,0,1,1.083-.579,1.271,1.271,0,0,0,.565-.243,1.139,1.139,0,0,1,.511-.352,3.514,3.514,0,0,0,.6-.163,4.684,4.684,0,0,0,.5-.38c.152-.155.4-.109.617-.136s.272-.374.5-.382c.21-.037.516.124.68-.008.184-.089.26-.4.426-.525.337-.242.83-.167,1.221-.3s.634-.565.975-.8a1.382,1.382,0,0,1,.574-.223,1.3,1.3,0,0,0,.531-.31,2.934,2.934,0,0,1,1.165-.412,2.9,2.9,0,0,0,1.081-.584.685.685,0,0,0-.585-1.192" transform="translate(-151.496 -63.759)" fill="#e9bb2b"/>
      <path id="Path_74729" data-name="Path 74729" d="M264.085,221.94a1.72,1.72,0,0,1-.756-.328c-.253-.109-.583.011-.853-.043s-.485-.275-.737-.386c-.238-.15-.572-.021-.819-.144a4.1,4.1,0,0,0-.725-.421,3.179,3.179,0,0,0-.827-.117c-.291.007-.443-.4-.72-.438a1.228,1.228,0,0,1-.4-.1c-.123-.062-.219-.207-.355-.233-.271-.05-.614.1-.842-.072a.933.933,0,0,0-.786-.238c-.294.018-.476-.3-.74-.381a1.061,1.061,0,0,1-.38-.159.817.817,0,0,0-.362-.214,2.685,2.685,0,0,0-.423-.03,2.363,2.363,0,0,1-.4-.1.787.787,0,0,0-.426-.018c-.155.034-.265-.071-.39-.128a1.382,1.382,0,0,0-.742-.375,1.111,1.111,0,0,1-.8-.207,1.263,1.263,0,0,0-.767-.3.979.979,0,0,1-.764-.307,3.89,3.89,0,0,0-.789-.23c-.269-.059-.489-.27-.767-.3a1.038,1.038,0,0,1-.79-.226.571.571,0,0,0-.379-.162.537.537,0,0,1-.417-.044,1.625,1.625,0,0,0-.352-.249,2.026,2.026,0,0,0-.426-.014c-.15.021-.234-.166-.343-.278s-.324.117-.426-.014c-.112-.1-.157-.412-.3-.412-.13-.045-.333.147-.474.137-.28-.02-.455-.379-.7-.528a.6.6,0,0,0-.424-.02,3.721,3.721,0,0,1-.441.034.614.614,0,0,1-.373-.183.644.644,0,0,0-.4-.091c-.294.023-.5-.24-.735-.4a1.381,1.381,0,0,0-.792-.22.7.7,0,0,0-.421,1.244l.03.025a1.4,1.4,0,0,0,.762.312c.281.014.595-.072.818.129a.656.656,0,0,0,.375.175.6.6,0,0,1,.4.083,4.025,4.025,0,0,1,.336.3.625.625,0,0,0,.352.246c.278.028.622-.152.858,0,.119.079.173.359.3.4.115.088.329-.134.476-.146.157-.043.2.271.351.251s.325-.122.434-.013a2.078,2.078,0,0,0,.35.252,1.547,1.547,0,0,0,.425.017c.144,0,.251.114.36.222a.564.564,0,0,0,.4.1,1.041,1.041,0,0,1,.763.306c.239.15.537.116.786.234a3.906,3.906,0,0,0,.765.3.971.971,0,0,1,.789.225,1.255,1.255,0,0,0,.786.234,1.113,1.113,0,0,1,.757.325,1.36,1.36,0,0,0,.812.157c.133.032.283.014.386.139a.687.687,0,0,0,.354.24,1.853,1.853,0,0,1,.734.394.785.785,0,0,0,.411.062,1.372,1.372,0,0,1,.4.109c.254.1.591-.045.814.151a.934.934,0,0,0,.767.294c.286,0,.466.334.711.46.123.064.286.007.421.033a1.234,1.234,0,0,1,.377.165c.241.141.607-.09.833.094a3.231,3.231,0,0,0,.727.415,4.125,4.125,0,0,0,.828.111c.269.054.455.361.734.388.266.067.575.008.817.146s.435.42.7.489a1.707,1.707,0,0,1,.8.2,2.524,2.524,0,0,0,1.567.488.707.707,0,0,0,.581-.283.7.7,0,0,0-.148-.972,2.529,2.529,0,0,0-1.54-.576" transform="translate(-146.089 -130.222)" fill="#e9bb2b"/>
    </g>
  </g>
</svg>
