<svg xmlns="http://www.w3.org/2000/svg" xmlns:xlink="http://www.w3.org/1999/xlink" width="393.918" height="50.998" viewBox="0 0 393.918 50.998">
  <defs>
    <clipPath id="clip-path">
      <rect id="Rectangle_10136" data-name="Rectangle 10136" width="393.918" height="23.999" fill="#ffce00"/>
    </clipPath>
    <clipPath id="clip-path-2">
      <rect id="Rectangle_10136-2" data-name="Rectangle 10136" width="112.879" height="23.999" fill="#ffce00"/>
    </clipPath>
  </defs>
  <g id="Group_158668" data-name="Group 158668" transform="translate(-136.065 -5165.865)">
    <g id="Group_158636" data-name="Group 158636" transform="translate(136.065 5165.865)" opacity="0.82">
      <g id="Group_158357" data-name="Group 158357" clip-path="url(#clip-path)">
        <path id="Path_64399" data-name="Path 64399" d="M393.913,9.923c.063,1.951-.569,3.116-1.6,3.81a5.241,5.241,0,0,1-1.807.725,10.024,10.024,0,0,1-1.058.171c-.365.037-.741.057-1.124.068-1.533.044-3.172-.071-4.657-.02-.372.013-.733.036-1.082.074a8.837,8.837,0,0,0-1,.155,4.389,4.389,0,0,0-1.677.711,206.1,206.1,0,0,1-23.478,1.694c-7.856.166-15.684.061-23.393-.057l0-.035a.7.7,0,0,1-1.083.023c-.647.865-1.947-.755-3.042-.087-1.14-.9-2.751,1.1-4.209,0-10.337.781-21.172.4-31.615.682l.022.106c-2.618.213-5.418.429-8.309.612s-5.874.332-8.855.429c-5.961.2-11.913.2-17.109-.118-2.852-.134-5.813,1.136-8.568.325-.254.089-.649.312-.888.019-.769-.11-1.638.605-2.34.136a40.535,40.535,0,0,1-5.949,1.235,54.177,54.177,0,0,1-6.118.471c0-.035,0-.073,0-.107-2.458.046-4.9.312-7.331.562s-4.853.494-7.267.517c-3.854.154-7.645.747-11.388.448,0,.079,0,.15,0,.227a46.624,46.624,0,0,0-5.1.308c-1.7.177-3.393.406-5.087.6a35.246,35.246,0,0,1-10.148.033c0,.038.007.073.01.111-9.1-.462-17.835.818-26.86-.2-4.858-1.671-9.792-1.357-14.7-1.826-.684-.691-5.468,0-6.324-.213,0,.038,0,.073.006.112-4.53.033-9.069-.253-13.613-.525,0-.077-.007-.154-.01-.232-3.025,0-6.054-.011-9.076,0s-6.038.036-9.036.083c-3.029-.039-5.963.216-8.888-.691-.627.176-1.378-.554-1.848.769-3.565,0-6.986.48-10.553.448l0-.1c-5.574-.173-11.208.125-16.827.338a122.1,122.1,0,0,1-16.72-.232c-6.619.724-13.237,1.918-19.773.589-4.513-.666-9.115-.688-13.616-.967a9.579,9.579,0,0,0-5.208-.531c-.638.253-1.177-.227-1.756-.389A10.273,10.273,0,0,1,9.8,20.46C8.66,20.3,7.785,19.02,6.6,19.047c-3.833-.5-5.413-3.879-6.546-9.4a2.316,2.316,0,0,1,.384-1.9A4.508,4.508,0,0,1,2.282,6.415,22.3,22.3,0,0,1,8.675,5.03c4.889-.491,10.263-.3,11.461-.465,4.289-.072,8.59.189,12.845.287,2.662-.285,5.516.27,8.261.121v0l2.414.057.019-.231c12.549.39,25.037,1.153,37.567,2.3a49.078,49.078,0,0,0,5.248-.282c3.01,0,5.992.871,9.054.763l-.018-.107a1.06,1.06,0,0,1,1.357-.182c.831.448,1.8-.245,2.581.45a.429.429,0,0,1,.691.06c9.834-2.19,20.1.261,30.426-.172-.1.03-.184.09-.228.292l12.7-.054,0-.232c-.191,0-2.6.039-2.716-.04a64.2,64.2,0,0,1,7.49-.18c2.5.039,5,.094,7.494-.087,0,.035,0,.073,0,.107q6.543-.066,13.083-.149l-.016.12c.352.283.692.416.992-.077a.172.172,0,0,0,.024.051l0,.013a1,1,0,0,0,1.629-.111,1.358,1.358,0,0,0,2.194-.068c1.166.013,2.306.075,3.449.006-.1.027-.18.106-.248.287l1.451-.006a.373.373,0,0,0-.359-.286,20.332,20.332,0,0,0,5.59.6l-.026-.077c7.433-.5,15.468-.619,23.09-.974,0,.034,0,.073,0,.107,11.3-.058,22.729-.732,34.125-1.282s22.761-.975,34.04-.538c10.91.316,21.884.559,32.6-.61,2.548-.256,5.171-.19,7.777-.19a40.375,40.375,0,0,0,7.659-.555c1.971.533,3.877-.389,5.93.153.669.139,1.039-.854,1.708-.521a.967.967,0,0,1,1.43.173c7.261-.383,14.556-.854,21.831-1.413,3.643-.269,7.264-.595,10.887-.917l5.409-.53c1.8-.182,3.585-.39,5.377-.584,1.845-.337,3.5.812,4.913,1.974S382.4,4.347,383.1,3.972c.446-.154.89-.321,1.344-.463a7.74,7.74,0,0,1,1.395-.333,5.232,5.232,0,0,1,3.268.671c1.663,1.611,4.26,3.4,4.812,6.076" transform="translate(0 0)" fill="#ffce00"/>
      </g>
    </g>
    <g id="Group_158637" data-name="Group 158637" transform="translate(136.065 5192.864)" opacity="0.82">
      <g id="Group_158357-2" data-name="Group 158357" clip-path="url(#clip-path-2)">
        <path id="Path_64399-2" data-name="Path 64399" d="M112.877,9.923a10.143,10.143,0,0,1-.458,3.81,1.747,1.747,0,0,1-.518.725,1.2,1.2,0,0,1-.3.171,1.377,1.377,0,0,1-.322.068c-.439.044-.909-.071-1.334-.02a1.272,1.272,0,0,0-.31.074,1.034,1.034,0,0,0-.287.155,1.591,1.591,0,0,0-.48.711,18.557,18.557,0,0,1-6.728,1.694,52.619,52.619,0,0,1-6.7-.057V17.22c-.078.3-.194.4-.31.023-.185.865-.558-.755-.872-.087-.327-.9-.788,1.1-1.206,0-2.962.781-6.067.4-9.059.682l.006.106c-.75.213-1.552.429-2.381.612s-1.683.332-2.537.429a15.322,15.322,0,0,1-4.9-.118c-.817-.134-1.666,1.136-2.455.325-.073.089-.186.312-.254.019-.22-.11-.469.605-.671.136a5.909,5.909,0,0,1-1.7,1.235,4.931,4.931,0,0,1-1.753.471c0-.035,0-.073,0-.107a7.976,7.976,0,0,0-2.1.562,7.128,7.128,0,0,1-2.082.517c-1.1.154-2.191.747-3.263.448,0,.079,0,.15,0,.227a4.093,4.093,0,0,0-1.461.308c-.486.177-.972.406-1.458.6a3.063,3.063,0,0,1-2.908.033c0,.038,0,.073,0,.111-2.608-.462-5.111.818-7.7-.2-1.392-1.671-2.806-1.357-4.211-1.826-.2-.691-1.567,0-1.812-.213,0,.038,0,.073,0,.112a17.178,17.178,0,0,1-3.9-.525c0-.077,0-.154,0-.232-.867,0-1.735-.011-2.6,0s-1.73.036-2.589.083c-.868-.039-1.709.216-2.547-.691-.18.176-.395-.554-.53.769-1.022,0-2,.48-3.024.448v-.1a20.317,20.317,0,0,0-4.822.338,10.19,10.19,0,0,1-4.791-.232c-1.9.724-3.793,1.918-5.666.589a14.452,14.452,0,0,0-3.9-.967c-.461-.528-1.018-.975-1.492-.531-.183.253-.337-.227-.5-.389a1,1,0,0,1-1.167.276c-.327-.159-.578-1.44-.917-1.413-1.1-.5-1.551-3.879-1.876-9.4a7.293,7.293,0,0,1,.11-1.9A3.919,3.919,0,0,1,.654,6.415,3.464,3.464,0,0,1,2.486,5.03,19.48,19.48,0,0,1,5.77,4.565a26.716,26.716,0,0,1,3.681.287c.763-.285,1.581.27,2.367.121v0l.692.057.005-.231A54.789,54.789,0,0,1,23.28,7.1c.5.131,1.008-.226,1.5-.282.862,0,1.717.871,2.595.763l-.005-.107c.119-.47.26-.381.389-.182.238.448.517-.245.74.45.062-.193.144-.216.2.06,2.818-2.19,5.759.261,8.719-.172-.028.03-.053.09-.065.292l3.64-.054V7.636c-.055,0-.745.039-.778-.04a5.372,5.372,0,0,1,2.146-.18,7.055,7.055,0,0,0,2.147-.087c0,.035,0,.073,0,.107,1.25-.044,2.5-.088,3.749-.149l0,.12c.1.283.2.416.284-.077a.456.456,0,0,0,.007.051v.013c.123.447.372.555.467-.111.184.73.51.68.629-.068a3.985,3.985,0,0,0,.988.006c-.027.027-.052.106-.071.287l.416-.006c-.028-.243-.065-.275-.1-.286a2.072,2.072,0,0,0,1.6.6l-.007-.077c2.13-.5,4.432-.619,6.617-.974,0,.034,0,.073,0,.107a67.1,67.1,0,0,0,9.779-1.282,32.524,32.524,0,0,1,9.754-.538c3.126.316,6.271.559,9.342-.61a6.55,6.55,0,0,1,2.229-.19A3.688,3.688,0,0,0,92.378,3.7c.565.533,1.111-.389,1.7.153.192.139.3-.854.49-.521.093-.334.289-.362.41.173,2.081-.383,4.171-.854,6.256-1.413,1.044-.269,2.082-.595,3.12-.917l1.55-.53c.516-.182,1.027-.39,1.541-.584.529-.337,1,.812,1.408,1.974s.726,2.313.926,1.938c.128-.154.255-.321.385-.463a1.3,1.3,0,0,1,.4-.333c.277-.124.578,0,.936.671a23.468,23.468,0,0,1,1.379,6.076" transform="translate(0 0)" fill="#ffce00"/>
      </g>
    </g>
  </g>
</svg>
