<svg id="Group_158625" data-name="Group 158625" xmlns="http://www.w3.org/2000/svg" xmlns:xlink="http://www.w3.org/1999/xlink" width="107.146" height="103.396" viewBox="0 0 107.146 103.396">
  <defs>
    <clipPath id="clip-path">
      <rect id="Rectangle_14375" data-name="Rectangle 14375" width="107.146" height="103.397" fill="#7fbc3f"/>
    </clipPath>
  </defs>
  <g id="Group_158624" data-name="Group 158624" clip-path="url(#clip-path)">
    <path id="Path_74734" data-name="Path 74734" d="M49.028,61.526l1.166.979c.468.344.838.648,1.3.954a12.129,12.129,0,0,0,3.22,1.291c.009,1.225-1.215,4.173-1.735,5.36l-2,5.384c-1.238,3.219-2.891,7.167-4.425,10.229-2.821,5.626-4.323,8.9-8.6,13.272-.815.831-3.619,2.8-4.748,2.24-3.068-1.513-.937-9.036.009-11.5a85.1,85.1,0,0,1,4.5-10.2l3.866-7.081c.5-.912.987-1.475,1.459-2.277.81-1.375,4.894-8.326,5.995-8.653m6.484,1.254c-1.443.072-4.931-1.924-5.423-3.152a9.594,9.594,0,0,1,1-2.216c.2-.488.951-1.5,1.259-2.056l2.466-4.081A11.6,11.6,0,0,0,56.47,52.6c.13.075.357.174.461.239l1.439.908a7.126,7.126,0,0,1-.586,2.325,41.629,41.629,0,0,1-1.48,4.448c-.2.615-.525,1.64-.792,2.258M64.364,39.5c.737.507,1.482,2.818,1.759,3.826.651,2.384-1.937,5.976-3.951,7.311-.58.385-1.058.772-1.649,1.143-.958.6-1.723.011-2.929-.8l-.894-.619a3.058,3.058,0,0,1-.77-2.073C55.919,45.349,58.9,43.2,61.219,42a16.367,16.367,0,0,0,3.144-2.5M54.015,49.223c-2.014,1.965-3.3,5.47-4.931,7.793-.954,1.355-1.528,2.754-2.408,4.008a92.659,92.659,0,0,0-5.221,7.725C40.312,70.9,39.085,70.46,36.97,70.8c-3.557.577-8.192,1.357-11.755,1.058-7.129-.6-12.706-2.77-17.279-8.472C3.611,58,1.679,50.249,2.155,43.437,3.062,30.453,11.264,18.7,21.742,11.4a53.375,53.375,0,0,1,17.947-7.93A47.1,47.1,0,0,1,62.6,3.5a51.985,51.985,0,0,1,17.571,8.2c10.6,7.612,17.186,17.9,21.709,29.91,2.17,5.763,3.613,16.49,3.069,22.578-.675,7.563-1.912,13.238-6.03,19.718-3.4,5.349-9.477,9.684-15.982,9.639C71.046,93.459,68.3,81.48,63.575,74.085c-2.093-3.275-3.241-5.4-7.539-5.355-.151-.919.614-2.45.892-3.454.316-1.141.623-2.457,1.021-3.541.387-1.049.986-2.163,1.31-3.189.4-1.258.646-2.328.978-3.592.5-1.885,6.758-2.8,7.972-10.05.42-2.505-.977-4.672-2.1-6.748-.437-.811-1.189-2.516-2.379-1.824-.508.3-.614.916-.842,1.424-1.3,2.91-5.761,2.719-8.166,7.586-.9,1.821-.488,2.032-.713,3.88m-53.9-.267c.555,7.474,4.538,15.536,10.57,20.081,7.011,5.282,16.52,5.857,24.876,4.188,2.873-.574,3.974-.922,2.032,2.062A77.417,77.417,0,0,0,30.513,91.2c-3.871,14.616,4.814,15.113,11.288,6.709,4.356-5.656,7.933-13.478,10.545-20.125L54.5,72.169c1.073-2.083,3.613-1.267,5.019-.033,4.337,3.806,5.8,12.919,11.9,18.772,9.383,9,23.309,4.309,29.93-6.841,8.528-14.364,6.924-35.1-.129-49.774C94.833,21,84.247,9.325,70.331,3.793A49.84,49.84,0,0,0,43.817.6C35.694,1.947,28.35,4.334,21.479,9,8.146,18.041-1.125,32.352.111,48.956" transform="translate(0 0)" fill="#7fbc3f" fill-rule="evenodd"/>
    <path id="Path_74735" data-name="Path 74735" d="M131.2,73.9c6.613-1.347,9.5,7.389,4.7,12.067a7.29,7.29,0,0,1-5.074,2.142c-3.192-.013-7.84-3.1-7.043-7.209.676-3.482,3.944-6.293,7.414-7m.083-2.2a11.662,11.662,0,0,0-9.161,7.337c-.11.314-.205.556-.306.873-.15.466-.275.461-.388.773-.649,1.806,1.482,5.287,2.746,6.509,3.829,3.7,9.336,4.073,13.225.266,6.239-6.1,2.122-17.152-6.117-15.758" transform="translate(-94.617 -55.83)" fill="#7fbc3f" fill-rule="evenodd"/>
    <path id="Path_74736" data-name="Path 74736" d="M269.857,72.994c3.509-.905,7.865,1.319,8.346,5.108a7.52,7.52,0,0,1-5.4,8.239c-4.047,1.215-7.213-1.584-8.195-5.27a6.318,6.318,0,0,1,2.79-7.17,5.431,5.431,0,0,1,2.457-.907m-7.115,2.463c-.279,2.315-.729,5.678.52,7.772,1.47,2.466,1.333,2.975,4.264,4.675,1.986,1.151,5.343.889,7.352-.147,9.268-4.781,6.138-17.02-3.288-17.043a9.256,9.256,0,0,0-7.715,3.648,6.145,6.145,0,0,1-1.133,1.1" transform="translate(-204.683 -55.154)" fill="#7fbc3f" fill-rule="evenodd"/>
    <path id="Path_74737" data-name="Path 74737" d="M72.04,195.938c-.662-2.892,1.668-7.04,5.239-8.061,3.552-1.016,6.7,1.609,7.684,5.409a6.556,6.556,0,0,1-.837,5.269,5.3,5.3,0,0,1-3.938,2.71,7.348,7.348,0,0,1-5.456-1.188,8.274,8.274,0,0,1-2.691-4.139m5.99-10.3c-2.355.462-3.889.882-5.7,2.99-2.772,3.235-3,6.288-1.713,10.082.28.826.569.5,1.111,1.017.328.315.651.865,1.017,1.263,1.566,1.707,4.224,2.371,6.484,2.363,2.813-.011,4.17-.858,6.01-2.764,2.4-2.49,2.395-7.536,1.017-10.2-1.45-2.809-4.943-5.391-8.23-4.747" transform="translate(-54.494 -144.714)" fill="#7fbc3f" fill-rule="evenodd"/>
    <path id="Path_74738" data-name="Path 74738" d="M362.761,278.415c3.323-.741,6.627,2.077,6.627,6.218,0,5.764-7.093,9.168-11.215,5.617a7.255,7.255,0,0,1-1.313-1.869c-.5-.961-.03-1.787.064-2.809.381-4.1,2.033-6.309,5.837-7.157m8.678,7.288c.8-4.231-2.328-9.409-7.539-9.537a8.207,8.207,0,0,0-6.258,2.48c-2.137,2.145-1.76,3.258-2.945,5.6-.509,1.007-.177,2.954.069,4a7,7,0,0,0,1.5,2.874c1.752,1.707,3.241,2.657,5.9,2.63a10.808,10.808,0,0,0,6.349-2.379,9.584,9.584,0,0,0,2.928-5.672" transform="translate(-276.439 -215.395)" fill="#7fbc3f" fill-rule="evenodd"/>
    <path id="Path_74739" data-name="Path 74739" d="M357.25,165.135a6.766,6.766,0,0,1-2.322,4.125,7.209,7.209,0,0,1-4.662,1.761c-2.2,0-2.9-.713-4.294-2.1a4.364,4.364,0,0,1-1.129-4.808c1.026-3.5,2.759-6.17,6.76-6.109a5.876,5.876,0,0,1,5.647,7.128M349.693,156a7.607,7.607,0,0,0-5.083,3.477,18.737,18.737,0,0,0-2,4.455c-.078.737-.367.91-.35,1.742a12.674,12.674,0,0,0,1.179,3.1,9.384,9.384,0,0,0,1.9,2.386c3.21,3.054,9.189,2.263,12.12-1.487,5.388-6.894-.569-15.272-7.765-13.668" transform="translate(-266.944 -121.517)" fill="#7fbc3f" fill-rule="evenodd"/>
  </g>
</svg>
