<svg xmlns="http://www.w3.org/2000/svg" width="55.49" height="55.508" viewBox="0 0 55.49 55.508">
  <g id="noun-climate-action-7765006" transform="translate(-4.83 -4.813)">
    <path id="Path_63040" data-name="Path 63040" d="M42.416,21.5a.558.558,0,0,0,.062-.367l-.067-.4H45.96l.761,2.675H40.727V21.795h1.195a.563.563,0,0,0,.494-.293ZM50.4,41.339l.079-.175a19.406,19.406,0,0,0,1.672-7.045l.017-.355H46.054l-.1.18a6.684,6.684,0,0,1-.936,1.252,3.185,3.185,0,0,0-1.108,2.2,3.52,3.52,0,0,0,1.646,2.577A7.054,7.054,0,0,0,49.636,41.4a4.934,4.934,0,0,0,.571-.034l.192-.024ZM37.7,18.995l.122,1.667H40.9l-1.048-1.667ZM25.554,32.632h2.67v-7a.567.567,0,0,1,.566-.566h7.567a.567.567,0,0,1,.566.566v7h2.67V21.794H25.557V32.632Zm20.282-8.083H40.725v8.083h5.111ZM36.09,12.476H34.564l-.6,8.189h2.733l-.6-8.189ZM33.129,52.184l-.689.629.931-.038a19.529,19.529,0,0,0,16.15-9.748l.276-.477-.549-.034a8.425,8.425,0,0,1-4.369-1.634,4.54,4.54,0,0,1-2.1-3.481,4.274,4.274,0,0,1,1.392-2.954l.6-.684H20.47l.422.547c.307.4.54.569.775.569a.428.428,0,0,0,.156-.029,4.672,4.672,0,0,1,1.61-.242,13.462,13.462,0,0,1,4.549.96l.084.034.091-.012a21.655,21.655,0,0,1,3.054-.23c3.815,0,5.962,1.233,7.092,2.267a6.17,6.17,0,0,1,2.1,4.7c-.144,2.277-2.589,5.6-7.27,9.861ZM27.3,18.995h-2l-1.048,1.667h2.93l.122-1.667Zm1.617-6.519-.6,8.189h2.733l-.6-8.189H28.918ZM29.357,26.2v6.435h6.435V26.2Zm-6.619-5.458H19.189l-.761,2.675h5.993V21.793H23.227a.566.566,0,0,1-.557-.66l.067-.4Zm3.117,18.71.11-.336-2.81-.8-.065.007c-.2.022-.612.108-.912.173a9.167,9.167,0,0,1-1.689.264,1.341,1.341,0,0,1-.439-.062c-1.44-.511-2.716-2.6-3.8-4.516l-.233-.41H12.987L13,34.12A19.517,19.517,0,0,0,27.527,52.132l.322.086.094-.319c.475-1.629,1.133-4.559.2-5.878-.523-.741-.962-1.346-1.315-1.831-1.639-2.26-1.811-2.5-1.252-3.964.084-.218.178-.468.281-.777Zm13.417,2.8a5.067,5.067,0,0,0-1.732-3.789c-1.43-1.31-3.553-1.972-6.31-1.972a20.989,20.989,0,0,0-3.15.257.525.525,0,0,1-.086.007.551.551,0,0,1-.226-.048,11.982,11.982,0,0,0-4.345-.962,3.588,3.588,0,0,0-1.2.168,1.609,1.609,0,0,1-.566.108c-1.118,0-1.917-1.339-2.344-2.056l-.12-.2H17.313l.3.511c1.133,1.936,2.03,3.023,2.745,3.323l.06.026h.077a9.883,9.883,0,0,0,1.447-.24,7.079,7.079,0,0,1,1.238-.2.9.9,0,0,1,.293.043l.019.007,3.323.953a.571.571,0,0,1,.391.689,16.227,16.227,0,0,1-.576,1.764c-.214.561-.262.7-.185.929a11.107,11.107,0,0,0,1.293,1.965c.353.487.792,1.092,1.324,1.845.9,1.267.895,3.594,0,6.728l-.106.365.374.062c.451.074.907.137,1.353.178l.146.014.11-.1c5.238-4.556,8.2-8.237,8.333-10.367Zm-14.847-17.7H19.314v8.083h5.111ZM57.91,35.183a.678.678,0,0,0-.07,0,.567.567,0,0,0-.561.5,24.943,24.943,0,0,1-.6,3.172l-.01.036-.017.034a.575.575,0,0,0-.046.115,24.857,24.857,0,0,1-20.36,18.223l-.084.012c-.13.019-.262.036-.391.053l-.161.022c-.077.01-.154.019-.23.026l-1.212.137,1.214-.962a.565.565,0,0,0-.7-.885l-2.517,2a.564.564,0,0,0-.214.48.57.57,0,0,0,.274.449l2.754,1.656a.566.566,0,1,0,.583-.969l-1.092-.655,1-.113.286-.034.17-.022c.137-.017.271-.036.405-.055l.1-.014A26.108,26.108,0,0,0,58.4,35.814a.566.566,0,0,0-.492-.631Zm2.145-5.662a.562.562,0,0,0-.78.175l-.722,1.137-.1-.969a26.048,26.048,0,0,0-22.8-23.124.632.632,0,0,0-.067,0,.566.566,0,0,0-.444.917.553.553,0,0,0,.377.211A24.805,24.805,0,0,1,57.3,29.758l.142,1.236-.9-1.188a.566.566,0,0,0-.9.681l1.936,2.565a.567.567,0,0,0,.451.226h.024a.567.567,0,0,0,.456-.264L60.232,30.3a.567.567,0,0,0-.175-.782ZM7.269,29.2a.554.554,0,0,0,.089.007.571.571,0,0,0,.559-.477A24.916,24.916,0,0,1,29.667,7.848l1.252-.142-1.18.876a.567.567,0,0,0-.118.792.568.568,0,0,0,.792.118l2.579-1.917a.565.565,0,0,0-.031-.929L30.26,4.9a.553.553,0,0,0-.3-.091.564.564,0,0,0-.477.259A.558.558,0,0,0,29.4,5.5a.565.565,0,0,0,.247.357L30.8,6.6l-.96.1A26.058,26.058,0,0,0,6.795,28.556a.565.565,0,0,0,.473.645ZM29.012,57.287A24.911,24.911,0,0,1,7.766,35.327l-.13-1.168.972,1.221a.563.563,0,0,0,.444.214.572.572,0,0,0,.353-.122.568.568,0,0,0,.089-.8l-2-2.515a.558.558,0,0,0-.441-.214.206.206,0,0,0-.038,0,.57.57,0,0,0-.449.274L4.911,34.979a.566.566,0,1,0,.972.581l.648-1.082.11,1a26.056,26.056,0,0,0,22.21,22.93.466.466,0,0,0,.082,0,.566.566,0,0,0,.559-.487.56.56,0,0,0-.108-.42.568.568,0,0,0-.372-.221Z" transform="translate(0)" fill="#fff"/>
  </g>
</svg>
