<svg xmlns="http://www.w3.org/2000/svg" width="62.702" height="55.508" viewBox="0 0 62.702 55.508">
  <g id="noun-operations-7495090" transform="translate(-3.492 -8.851)">
    <path id="Path_63041" data-name="Path 63041" d="M58.587,17.388a7.605,7.605,0,1,0,7.607,7.6,7.606,7.606,0,0,0-7.607-7.6Zm4.262,6.285L57.57,28.1a1.19,1.19,0,0,1-.875.256,1.175,1.175,0,0,1-.793-.445l-2.089-2.771a1.159,1.159,0,0,1,1.846-1.349l1.349,1.773,4.343-3.635A1.161,1.161,0,0,1,62.844,23.7ZM59,36.758a27.748,27.748,0,1,1-9.9-21.409l-.411-3.163v0a.673.673,0,0,1,1.272-.169L50.6,16.9h0a.675.675,0,0,1-.553.722l-4.889.64a.672.672,0,0,1-.722-.545.627.627,0,0,1,.113-.477.634.634,0,0,1,.419-.25l3.5-.458v0a26.463,26.463,0,1,0,9.216,20.229.675.675,0,0,1,1.188-.6.673.673,0,0,1,.1.6Zm-11.55,4.383a1.132,1.132,0,0,1,.89-.827l2.434-.445a1.153,1.153,0,0,0,.951-1.141V34.467a1.153,1.153,0,0,0-.951-1.141l-2.434-.445a1.13,1.13,0,0,1-.9-.827,16.69,16.69,0,0,0-1.53-3.69,1.14,1.14,0,0,1,.066-1.206l1.409-2.023a1.152,1.152,0,0,0-.126-1.483L44.24,20.638v0a1.172,1.172,0,0,0-1.486-.134l-2.023,1.417a1.138,1.138,0,0,1-1.227.053A16.862,16.862,0,0,0,35.8,20.414a1.134,1.134,0,0,1-.822-.911l-.445-2.46a1.154,1.154,0,0,0-1.141-.951H29.128a1.154,1.154,0,0,0-1.141.951l-.445,2.434a1.135,1.135,0,0,1-.83.938,16.724,16.724,0,0,0-3.688,1.53,1.138,1.138,0,0,1-1.227-.053l-2.023-1.417a1.165,1.165,0,0,0-1.483.134L15.3,23.617a1.166,1.166,0,0,0-.134,1.483l1.417,2.023h0a1.133,1.133,0,0,1,.055,1.227,16.719,16.719,0,0,0-1.53,3.688,1.132,1.132,0,0,1-.911.83l-2.434.445a1.149,1.149,0,0,0-.951,1.141v4.262a1.144,1.144,0,0,0,.951,1.138l2.434.445a1.135,1.135,0,0,1,.911.83,16.744,16.744,0,0,0,1.53,3.69,1.138,1.138,0,0,1-.087,1.22l-1.417,2.023a1.165,1.165,0,0,0,.134,1.483l3.016,3.016a1.169,1.169,0,0,0,1.483.134l2.023-1.417a1.138,1.138,0,0,1,1.227-.053,16.855,16.855,0,0,0,3.7,1.557,1.132,1.132,0,0,1,.83.911l.445,2.46a1.154,1.154,0,0,0,1.141.951h4.259a1.154,1.154,0,0,0,1.141-.951l.445-2.434a1.13,1.13,0,0,1,.822-.938,16.783,16.783,0,0,0,3.7-1.53,1.138,1.138,0,0,1,1.227.053l2.023,1.417a1.165,1.165,0,0,0,1.483-.134L47.24,49.57a1.152,1.152,0,0,0,.126-1.483l-1.409-2.023a1.138,1.138,0,0,1-.053-1.227,16.72,16.72,0,0,0,1.544-3.7ZM31.265,47.21a10.607,10.607,0,1,0-.005,0Z" fill="#fff" fill-rule="evenodd"/>
  </g>
</svg>
