<svg xmlns="http://www.w3.org/2000/svg" xmlns:xlink="http://www.w3.org/1999/xlink" width="86.384" height="86.385" viewBox="0 0 86.384 86.385">
  <defs>
    <clipPath id="clip-path">
      <rect id="Rectangle_14127" data-name="Rectangle 14127" width="86.384" height="86.385" fill="#0aafe2"/>
    </clipPath>
  </defs>
  <g id="Group_158275" data-name="Group 158275" transform="translate(0 0)">
    <g id="Group_158274" data-name="Group 158274" transform="translate(0 0)" clip-path="url(#clip-path)">
      <path id="Path_63071" data-name="Path 63071" d="M45.293,27.559A13.031,13.031,0,1,0,58.326,40.59,13.032,13.032,0,0,0,45.293,27.559M53.379,36.5l-9.831,9.83a1.171,1.171,0,0,1-1.654,0l-4.683-4.685a1.171,1.171,0,0,1,1.657-1.655l3.856,3.856,9-9A1.17,1.17,0,0,1,53.379,36.5" transform="translate(-2.105 -1.798)" fill="#fbab1e" fill-rule="evenodd"/>
      <path id="Path_63072" data-name="Path 63072" d="M17.266,71.45H70.934a3.32,3.32,0,0,1,3.308,3.308v8.428a3.32,3.32,0,0,1-3.308,3.308H17.266a3.32,3.32,0,0,1-3.308-3.308V74.758a3.317,3.317,0,0,1,3.308-3.308" transform="translate(-0.911 -4.662)" fill="#fbab1e" fill-rule="evenodd"/>
      <path id="Path_63073" data-name="Path 63073" d="M80.277,75.958V83.48a5.66,5.66,0,0,1-5.649,5.649H70.575v1.238a.973.973,0,0,0,.971.971H90.015a.973.973,0,0,0,.584-1.749l-7.93-5.94,7.93-5.941a.972.972,0,0,0-.58-1.749Z" transform="translate(-4.605 -4.956)" fill="#0aafe2" fill-rule="evenodd"/>
      <path id="Path_63074" data-name="Path 63074" d="M10.707,75.958H.972a.971.971,0,0,0-.58,1.749l7.927,5.941L.392,89.588a.972.972,0,0,0,.58,1.749l18.465,0a.973.973,0,0,0,.971-.971V89.129H16.352A5.66,5.66,0,0,1,10.7,83.48Z" transform="translate(0 -4.956)" fill="#0aafe2" fill-rule="evenodd"/>
      <path id="Path_63075" data-name="Path 63075" d="M24.988,0H57.27v12.21a1.167,1.167,0,0,0,1.168,1.168H70.651V64.443l-52.564,0V6.9a6.924,6.924,0,0,1,6.9-6.9Zm.606,8.916H38.636a1.17,1.17,0,0,0,0-2.341H25.594a1.17,1.17,0,0,0,0,2.341m0,5.974H31.8a1.168,1.168,0,0,0,0-2.337h-6.21a1.168,1.168,0,1,0,0,2.337M59.61,1.172v9.873h9.873ZM39.385,20.2a5.427,5.427,0,0,0-8.628,4.984,5.428,5.428,0,0,0-4.985,8.629,5.43,5.43,0,0,0,0,9.968A5.427,5.427,0,0,0,30.757,52.4a5.427,5.427,0,0,0,8.628,4.984,5.43,5.43,0,0,0,9.968,0A5.428,5.428,0,0,0,57.982,52.4a5.427,5.427,0,0,0,4.984-8.628,5.43,5.43,0,0,0,0-9.968,5.428,5.428,0,0,0-4.984-8.629A5.428,5.428,0,0,0,49.353,20.2a5.43,5.43,0,0,0-9.968,0" transform="translate(-1.18 0)" fill="#0aafe2" fill-rule="evenodd"/>
    </g>
  </g>
</svg>
