<svg xmlns="http://www.w3.org/2000/svg" width="52.116" height="52.116" viewBox="0 0 52.116 52.116">
  <g id="noun-green-chemistry-4673436" transform="translate(-2 -2)">
    <g id="Group_158268" data-name="Group 158268" transform="translate(2 2)">
      <path id="Path_63045" data-name="Path 63045" d="M41.058,9H37.336a9.3,9.3,0,0,0-9.157,7.833c-5.585,1.521-10.7,5.376-12.982,9.948a1.861,1.861,0,0,0,3.33,1.665c1.934-3.867,6.685-7.249,11.59-8.278h3.5a9.317,9.317,0,0,0,9.306-9.306A1.86,1.86,0,0,0,41.058,9Z" transform="translate(9.196 4.029)" fill="#fff"/>
      <path id="Path_63046" data-name="Path 63046" d="M16.676,12.814c3.953.428,8.25,2.387,9.635,6.138A1.862,1.862,0,0,0,29.8,17.661C27.593,11.677,20.789,9,15.029,9H11.306A9.317,9.317,0,0,0,2,18.306a1.86,1.86,0,0,0,1.861,1.861H7.584A9.318,9.318,0,0,0,16.676,12.814Z" transform="translate(-2 4.029)" fill="#fff"/>
      <path id="Path_63047" data-name="Path 63047" d="M33.991,25.636a.927.927,0,0,1-.516-.156L28.408,22.1,23.34,25.48a.928.928,0,0,1-1.032,0L17.24,22.1,12.172,25.48a.928.928,0,0,1-1.032,0L8.008,23.392a14.889,14.889,0,0,0,29.63,0L34.508,25.48A.928.928,0,0,1,33.991,25.636Z" transform="translate(3.175 15.313)" fill="#fff"/>
      <path id="Path_63048" data-name="Path 63048" d="M13.889,10.376v4.146a14.837,14.837,0,0,1,9.076,8.523,3.68,3.68,0,0,1,.219,1.306c.607-.406,1.227-.8,1.873-1.152V10.376A4.684,4.684,0,0,0,22.205,2H16.621a4.659,4.659,0,0,0-4.653,4.653A4.729,4.729,0,0,0,13.889,10.376Z" transform="translate(6.585 -2)" fill="#fff"/>
      <path id="Path_63049" data-name="Path 63049" d="M26.22,25.619a3.723,3.723,0,0,1-6.66-3.33,17.935,17.935,0,0,1,2.8-4A3.706,3.706,0,0,1,19.4,15.941a6.093,6.093,0,0,0-2.092-2.693V15.74A15.033,15.033,0,0,0,8,28.77l3.663,2.442,5.068-3.378a.928.928,0,0,1,1.032,0l5.068,3.378L27.9,27.834a.928.928,0,0,1,1.032,0L34,31.212l3.663-2.442a15.054,15.054,0,0,0-4.055-9.5A14.736,14.736,0,0,0,26.22,25.619Z" transform="translate(3.168 7.687)" fill="#fff"/>
    </g>
  </g>
</svg>
