<svg xmlns="http://www.w3.org/2000/svg" width="86.378" height="86.385" viewBox="0 0 86.378 86.385">
  <g id="noun-water-recycling-8004951_1_" data-name="noun-water-recycling-8004951 (1)" transform="translate(-3.475 -3.473)">
    <path id="Path_63048" data-name="Path 63048" d="M78.1,20.175,64.344,19.156A1.126,1.126,0,0,1,63.5,17.4l2.266-3.329A37.777,37.777,0,0,0,14.878,67.074,1.009,1.009,0,0,1,14.6,68.43l-2.818,1.907a1.023,1.023,0,0,1-1.421-.276A43.189,43.189,0,0,1,68.815,9.6l2.459-3.6a1.129,1.129,0,0,1,1.951.149L79.2,18.562a1.126,1.126,0,0,1-1.1,1.614Z" transform="translate(0 0)" fill="#fbab1e"/>
    <path id="Path_63049" data-name="Path 63049" d="M78,78.7A43.141,43.141,0,0,1,25.36,85.249l-2.459,3.6a1.129,1.129,0,0,1-1.951-.149l-6-12.42a1.13,1.13,0,0,1,1.1-1.61L29.809,75.69a1.134,1.134,0,0,1,.87,1.759l-2.266,3.329A37.784,37.784,0,0,0,79.294,27.773a.965.965,0,0,1,.276-1.356l2.8-1.907a1,1,0,0,1,1.421.276A43.161,43.161,0,0,1,78,78.7Z" transform="translate(-0.815 -1.495)" fill="#fbab1e"/>
    <path id="Path_63050" data-name="Path 63050" d="M74.185,50.136c0-5.755-8.837-18.581-11.547-22.375a1.27,1.27,0,0,0-2.016,0c-1.548,2.172-4.471,6.415-6.97,10.773,3.586,6.121,6.665,12.569,6.665,16.677A17.532,17.532,0,0,1,58.8,62.338a12.24,12.24,0,0,0,2.832.359A12.569,12.569,0,0,0,74.185,50.136Z" transform="translate(-3.596 -1.705)" fill="#0aafe2"/>
    <path id="Path_63051" data-name="Path 63051" d="M56.848,55.052c0-7.539-11.716-24.463-15.306-29.471a1.232,1.232,0,0,0-2.009,0c-3.59,5.008-15.306,21.928-15.306,29.471a16.311,16.311,0,0,0,32.621,0Zm-16.311,11.3a11.317,11.317,0,0,1-11.3-11.3.682.682,0,0,1,1.363,0,9.953,9.953,0,0,0,9.94,9.94.682.682,0,0,1,0,1.363Z" transform="translate(-1.487 -1.547)" fill="#0aafe2"/>
  </g>
</svg>
