<svg xmlns="http://www.w3.org/2000/svg" xmlns:xlink="http://www.w3.org/1999/xlink" width="63.425" height="86.385" viewBox="0 0 63.425 86.385">
  <defs>
    <clipPath id="clip-path">
      <rect id="Rectangle_14126" data-name="Rectangle 14126" width="63.425" height="86.385" fill="#0aafe2"/>
    </clipPath>
  </defs>
  <g id="Group_158273" data-name="Group 158273" transform="translate(0 0)">
    <g id="Group_158272" data-name="Group 158272" transform="translate(0 0)" clip-path="url(#clip-path)">
      <path id="Path_63069" data-name="Path 63069" d="M35.961,21.956c1.042-3.768,2.685-8.016,2.415-11.6a.954.954,0,0,1,1.107-1.072c4.672.795,7.924,2.657,10.349,7.2C50.619,7.833,52.9,3.98,58.254.18a.961.961,0,0,1,1.52.833c-.6,9.15,1.863,14.149,3.206,18.7,2.183,7.4.146,13.393-3.691,16.877A34.4,34.4,0,0,0,38.935,22.531C37.959,22.3,36.967,22.106,35.961,21.956Z" transform="translate(-0.448 0)" fill="#fbab1e" fill-rule="evenodd"/>
      <path id="Path_63070" data-name="Path 63070" d="M12.132,31.905A30.339,30.339,0,0,1,30.47,25.764a31.385,31.385,0,0,1,3.317.178c-.5,2.862-.049,6.2-1.265,8.949a4.8,4.8,0,0,1-1.878,2.3c-1.69,1.03-3.741,1.636-5.273,2.658-2.619,1.743-4.451,4.17-3.758,8.841.812,5.47,6.161,9.07,11.106,10.169a23.5,23.5,0,0,0,6.184.263c1.809-.089,3.661-.421,5.181.6.937.629,1.061,1.663,1.371,2.6A16.751,16.751,0,0,0,47.4,66.662a22.459,22.459,0,0,0,8.332,6.619,30.549,30.549,0,0,1-7.075,7.4,65.341,65.341,0,0,0-4.922-8.264,16.546,16.546,0,0,0-5.983-5.08c-4.313-2.021-7.814-1.092-11.126.83-1.388.806-2.731,1.817-4.123,2.692-1.228.772-2.466,1.544-4.019,1.27-2.7-.475-4.883-2.169-7.221-3.221A13.472,13.472,0,0,0,3.5,67.627a3.822,3.822,0,0,0-1.133.358,29.708,29.708,0,0,1-1.146-3.24A31.241,31.241,0,0,0,11.712,63.3a12.181,12.181,0,0,0,6.8-5.308,9.256,9.256,0,0,0,.192-8.617c-.671-1.6-1.738-3.148-2.275-4.765C15.2,40.9,14.207,36.863,12.841,33.1a3.882,3.882,0,0,0-.7-1.2ZM.351,60.868A30.5,30.5,0,0,1,9.2,34.421c1.354,3.73,2.335,7.737,3.556,11.415,1.135,3.41,4.422,6.592,2.369,10.292C12.8,60.332,5.5,61.084.348,60.868ZM45.407,82.794A30.472,30.472,0,0,1,4.07,71.449c5.13-.783,8.7,3.6,13.737,4.486,7.141,1.261,10.974-8.533,18.3-5.1,4.505,2.113,7.009,7.831,9.3,11.958ZM37.589,26.605A30.484,30.484,0,0,1,57.682,69.957c-3.032-1.473-5.73-3.441-7.11-5.462-1.771-2.592-1.459-6.034-4.347-7.969-3.7-2.485-8.606-.521-12.676-1.428-3.515-.779-7.55-3.078-8.124-6.97-.791-5.324,3.931-5.636,7.222-7.639a8.523,8.523,0,0,0,3.4-4.035c1.338-3.032.976-6.693,1.536-9.844Z" transform="translate(0 -0.321)" fill="#0aafe2" fill-rule="evenodd"/>
    </g>
  </g>
</svg>
