<svg xmlns="http://www.w3.org/2000/svg" width="90.065" height="86.385" viewBox="0 0 90.065 86.385">
  <g id="noun-outfall-25100_1_" data-name="noun-outfall-25100 (1)" transform="translate(346.003 -259.083)">
    <g id="Group_158269" data-name="Group 158269" transform="translate(-345.847 310.487)">
      <path id="Path_63052" data-name="Path 63052" d="M-327.941,318.828a1.336,1.336,0,0,0,1.335-1.337,1.336,1.336,0,0,0-1.335-1.332,1.335,1.335,0,0,0-1.337,1.332,1.335,1.335,0,0,0,1.337,1.337" transform="translate(344.185 -316.159)" fill="#0aafe2"/>
      <path id="Path_63053" data-name="Path 63053" d="M-337.352,324.924a1.334,1.334,0,0,0,1.336-1.333,1.333,1.333,0,0,0-1.336-1.333,1.332,1.332,0,0,0-1.335,1.333,1.333,1.333,0,0,0,1.335,1.333" transform="translate(345.12 -316.765)" fill="#0aafe2"/>
      <path id="Path_63054" data-name="Path 63054" d="M-333,328.542a1.333,1.333,0,0,0,1.336-1.332A1.334,1.334,0,0,0-333,325.876a1.334,1.334,0,0,0-1.333,1.334A1.333,1.333,0,0,0-333,328.542" transform="translate(344.688 -317.125)" fill="#0aafe2"/>
      <path id="Path_63055" data-name="Path 63055" d="M-337.18,331.022a1.335,1.335,0,0,0,1.337-1.335,1.336,1.336,0,0,0-1.337-1.332,1.333,1.333,0,0,0-1.332,1.332,1.332,1.332,0,0,0,1.332,1.335" transform="translate(345.103 -317.371)" fill="#0aafe2"/>
      <path id="Path_63056" data-name="Path 63056" d="M-344.5,324.4a1.335,1.335,0,0,0,1.335-1.337,1.335,1.335,0,0,0-1.335-1.331,1.335,1.335,0,0,0-1.335,1.331A1.334,1.334,0,0,0-344.5,324.4" transform="translate(345.83 -316.713)" fill="#0aafe2"/>
      <path id="Path_63057" data-name="Path 63057" d="M-328.089,344.586a1.335,1.335,0,0,0,1.333-1.335,1.336,1.336,0,0,0-1.333-1.332,1.335,1.335,0,0,0-1.337,1.332,1.333,1.333,0,0,0,1.337,1.335" transform="translate(344.2 -318.719)" fill="#0aafe2"/>
      <path id="Path_63058" data-name="Path 63058" d="M-328.117,326.494a1.335,1.335,0,0,0,1.333-1.337,1.333,1.333,0,0,0-1.333-1.33,1.335,1.335,0,0,0-1.336,1.33,1.338,1.338,0,0,0,1.336,1.337" transform="translate(344.203 -316.921)" fill="#0aafe2"/>
      <path id="Path_63059" data-name="Path 63059" d="M-305.113,336.126a1.333,1.333,0,0,0,1.333-1.336,1.334,1.334,0,0,0-1.333-1.331,1.337,1.337,0,0,0-1.337,1.331,1.336,1.336,0,0,0,1.337,1.336" transform="translate(341.917 -317.878)" fill="#0aafe2"/>
      <path id="Path_63060" data-name="Path 63060" d="M-300.129,346.334A1.335,1.335,0,0,0-298.8,345a1.334,1.334,0,0,0-1.333-1.331A1.336,1.336,0,0,0-301.466,345a1.337,1.337,0,0,0,1.337,1.336" transform="translate(341.421 -318.893)" fill="#0aafe2"/>
      <path id="Path_63061" data-name="Path 63061" d="M-299.65,336.126a1.333,1.333,0,0,0,1.333-1.336,1.334,1.334,0,0,0-1.333-1.331,1.337,1.337,0,0,0-1.337,1.331,1.337,1.337,0,0,0,1.337,1.336" transform="translate(341.374 -317.878)" fill="#0aafe2"/>
      <path id="Path_63062" data-name="Path 63062" d="M-301.95,331.525a1.335,1.335,0,0,0,1.333-1.336,1.333,1.333,0,0,0-1.333-1.33,1.335,1.335,0,0,0-1.337,1.33,1.337,1.337,0,0,0,1.337,1.336" transform="translate(341.602 -317.421)" fill="#0aafe2"/>
      <path id="Path_63063" data-name="Path 63063" d="M-294.187,333.107a1.334,1.334,0,0,0,1.333-1.337,1.334,1.334,0,0,0-1.333-1.331,1.336,1.336,0,0,0-1.336,1.331,1.337,1.337,0,0,0,1.336,1.337" transform="translate(340.831 -317.578)" fill="#0aafe2"/>
      <path id="Path_63064" data-name="Path 63064" d="M-331.6,323.183a1.335,1.335,0,0,0,1.337-1.336,1.334,1.334,0,0,0-1.337-1.331,1.333,1.333,0,0,0-1.335,1.331,1.335,1.335,0,0,0,1.335,1.336" transform="translate(344.549 -316.592)" fill="#0aafe2"/>
      <path id="Path_63065" data-name="Path 63065" d="M-343.353,348.219a1.265,1.265,0,0,1-.419-.072,1.256,1.256,0,0,1-.766-1.6c.108-.306,1.119-3.015,3.332-4.019a5.608,5.608,0,0,1,4.6-.221,7.6,7.6,0,0,1,3.689,4.034,1.255,1.255,0,0,1-.735,1.616,1.254,1.254,0,0,1-1.617-.734,5.083,5.083,0,0,0-2.311-2.6,3.158,3.158,0,0,0-2.587.193,5,5,0,0,0-2,2.567,1.258,1.258,0,0,1-1.183.838Z" transform="translate(345.709 -318.718)" fill="#0aafe2"/>
    </g>
    <g id="Group_158271" data-name="Group 158271" transform="translate(-346.003 259.083)">
      <path id="Path_63066" data-name="Path 63066" d="M-269.3,345.679c-2.247,0-4.309-1.475-5.8-4.054-1.488,2.578-3.549,4.054-5.8,4.054s-4.31-1.475-5.8-4.054c-1.49,2.578-3.55,4.054-5.8,4.054a1.244,1.244,0,0,1-1.244-1.245,1.243,1.243,0,0,1,1.244-1.243c1.788,0,3.559-1.911,4.625-4.989a1.244,1.244,0,0,1,1.175-.838,1.246,1.246,0,0,1,1.175.838c1.065,3.077,2.835,4.989,4.625,4.989s3.559-1.911,4.624-4.989a1.245,1.245,0,0,1,1.175-.838,1.245,1.245,0,0,1,1.175.838c1.066,3.077,2.836,4.989,4.624,4.989s3.561-1.911,4.626-4.989a1.245,1.245,0,0,1,1.176-.838,1.242,1.242,0,0,1,1.174.838c1.005,2.9,2.679,4.81,4.371,4.975a1.242,1.242,0,0,1,1.115,1.359,1.245,1.245,0,0,1-1.359,1.115c-2.077-.2-3.93-1.633-5.3-4.023-1.492,2.578-3.554,4.05-5.8,4.05Z" transform="translate(340.809 -266.862)" fill="#0aafe2"/>
      <g id="Group_158270" data-name="Group 158270">
        <path id="Path_63067" data-name="Path 63067" d="M-296.1,275.185h-5.237v24.963a32.463,32.463,0,0,0-19.137,11.675c-3.391,4.142-5.417,10.519-6.281,13.741a6.217,6.217,0,0,0-3.242-.922,6.189,6.189,0,0,0-4.338,1.465,1.256,1.256,0,0,0,0,1.776,1.257,1.257,0,0,0,1.776,0,4.025,4.025,0,0,1,2.565-.732,4.064,4.064,0,0,1,2.984,1.429,1.256,1.256,0,0,0,1,.493,1.271,1.271,0,0,0,.277-.031,1.257,1.257,0,0,0,.952-.965c.02-.095,2.054-9.53,6.257-14.664a30.3,30.3,0,0,1,17.194-10.668v2.888c-3.585.8-8.745,3.076-13.8,9.3-4.573,5.631-6.8,14.034-7.82,19.481-1.182-2.254-3.121-4.373-6.225-4.373-.027,0-.056,0-.084,0a8.368,8.368,0,0,0-4.82,1.916c-1.078-1.9-3.135-3.886-6.3-3.381a6.437,6.437,0,0,0-5.584,4.759,1.256,1.256,0,0,0,.986,1.477,1.253,1.253,0,0,0,1.477-.985,3.961,3.961,0,0,1,3.517-2.77c3.069-.5,4.2,3.194,4.246,3.346a1.256,1.256,0,0,0,.927.875,1.25,1.25,0,0,0,1.215-.386c.021-.022,2.136-2.313,4.37-2.34h.047c4.325,0,5.449,7.426,5.46,7.5a1.254,1.254,0,0,0,1.242,1.074h.035a1.255,1.255,0,0,0,1.217-1.142c.014-.154,1.436-15.33,8.05-23.472a26.246,26.246,0,0,1,7.65-6.611,24.311,24.311,0,0,0-5.62,6.731c-5.261,9.238-4.441,23.8-4.4,24.413a1.187,1.187,0,0,0,1.005,1.1,1.1,1.1,0,0,0,.18.014,1.186,1.186,0,0,0,1.108-.764c.017-.043,1.708-4.391,4.866-5.969a9.124,9.124,0,0,1,6.113-.7,1.192,1.192,0,0,0,1.483-.784,1.186,1.186,0,0,0-.785-1.482,11.368,11.368,0,0,0-7.871.849,11.14,11.14,0,0,0-3.758,3.269c.136-4.947.893-13.089,4.127-18.768a21.441,21.441,0,0,1,7.76-8v6.7h5.237v-4.264h.025v-32.9h-.025v-4.161Z" transform="translate(346.003 -260.683)" fill="#0aafe2"/>
        <path id="Path_63068" data-name="Path 63068" d="M-253.476,259.083v18.661H-288.3v32.9h34.827v34.822h3.272V259.083Z" transform="translate(340.269 -259.083)" fill="#fbab1e"/>
      </g>
    </g>
  </g>
</svg>
