<svg xmlns="http://www.w3.org/2000/svg" width="51.762" height="51.762" viewBox="0 0 51.762 51.762">
  <g id="noun-renewable-energy-8116227" transform="translate(-5.5 -5.5)">
    <path id="Path_63039" data-name="Path 63039" d="M42.423,42.425a.314.314,0,0,1,.227.1.29.29,0,0,1,.059.245L40.458,53.866l11.968-17.25H45.4a.288.288,0,0,1-.286-.35l2.117-10.387L35.27,42.425h7.159Z" transform="translate(-12.456 -8.527)" fill="#fff"/>
    <path id="Path_63040" data-name="Path 63040" d="M5.5,43.8A25.9,25.9,0,0,0,44.276,66.248a.3.3,0,0,1,.35.041l2.2,2.136,4.246-10.569L40.108,61.9l1.622,1.577a.287.287,0,0,1-.07.466,22.392,22.392,0,0,1-10.278,2.46A22.623,22.623,0,0,1,10.044,36.3L6.972,35.175A25.712,25.712,0,0,0,5.5,43.795Z" transform="translate(0 -12.416)" fill="#fff"/>
    <path id="Path_63041" data-name="Path 63041" d="M35.832,5.5a25.887,25.887,0,0,0-12.9,3.431.3.3,0,0,1-.35-.041l-2.2-2.136L16.137,17.323,27.1,13.274,25.483,11.7a.287.287,0,0,1,.07-.466,22.392,22.392,0,0,1,10.278-2.46A22.623,22.623,0,0,1,57.169,38.881L60.24,40A25.894,25.894,0,0,0,35.831,5.5Z" transform="translate(-4.45)" fill="#fff"/>
  </g>
</svg>
