<svg xmlns="http://www.w3.org/2000/svg" width="86.334" height="86.385" viewBox="0 0 86.334 86.385">
  <g id="noun-renewable-7870258" transform="translate(-18.483 -18.464)">
    <path id="Path_63045" data-name="Path 63045" d="M43.749,91.842a42.753,42.753,0,0,0,46.734-7.207c.107.054.193.107.326.166a7.46,7.46,0,0,0,3.044.685,6.963,6.963,0,0,0,2.573-.492,7.337,7.337,0,1,0-9.481-4.3c.166.385.358.765.546,1.124H87.5A39.017,39.017,0,0,1,23.284,45.382a2.059,2.059,0,0,0-4.05-.738,43.04,43.04,0,0,0,24.514,47.2Z" transform="translate(0 9.063)" fill="#0aafe2"/>
    <path id="Path_63046" data-name="Path 63046" d="M71.154,30.813a2.007,2.007,0,0,0-1.723-.958H50.609a2.054,2.054,0,0,0-1.889,1.257L36.56,60.041a1.974,1.974,0,0,0,.161,1.915,2.094,2.094,0,0,0,1.728.931H50.2L46.254,82.554v.005a2.08,2.08,0,0,0,1.15,2.274,2.368,2.368,0,0,0,.877.187,2,2,0,0,0,1.589-.765L73.236,55.327a2.058,2.058,0,0,0,.246-2.161,2.08,2.08,0,0,0-1.862-1.177H62.637L71.32,32.761v-.005a2.042,2.042,0,0,0-.166-1.942Z" transform="translate(6.617 4.211)" fill="#fbab1e"/>
    <path id="Path_63047" data-name="Path 63047" d="M78.58,22.4a42.862,42.862,0,0,0-46.76,7.2c-.107-.054-.193-.107-.3-.166a7.362,7.362,0,1,0-6.11,13.4,7.535,7.535,0,0,0,3.039.658,7.366,7.366,0,0,0,6.383-11.064A39.014,39.014,0,0,1,99.046,68.853a2.051,2.051,0,0,0,1.642,2.386,2.24,2.24,0,0,0,.38.053,2.1,2.1,0,0,0,2.028-1.7A43.029,43.029,0,0,0,78.582,22.4Z" transform="translate(0.971)" fill="#0aafe2"/>
  </g>
</svg>
