<svg xmlns="http://www.w3.org/2000/svg" width="55.476" height="55.508" viewBox="0 0 55.476 55.508">
  <g id="noun-renewable-7870258" transform="translate(-18.483 -18.464)">
    <path id="Path_63042" data-name="Path 63042" d="M34.718,74.378a27.472,27.472,0,0,0,30.03-4.631c.069.034.124.069.21.107a4.794,4.794,0,0,0,1.956.44,4.474,4.474,0,0,0,1.654-.316,4.715,4.715,0,1,0-6.092-2.764c.107.248.23.492.351.722h0A25.071,25.071,0,0,1,21.568,44.524a1.323,1.323,0,0,0-2.6-.474A27.656,27.656,0,0,0,34.718,74.379Z" transform="translate(0 -2.94)" fill="#fff"/>
    <path id="Path_63043" data-name="Path 63043" d="M58.726,30.471a1.29,1.29,0,0,0-1.107-.615H45.525a1.32,1.32,0,0,0-1.214.808L36.5,49.252a1.268,1.268,0,0,0,.1,1.231,1.346,1.346,0,0,0,1.11.6H45.26L42.726,63.718v0a1.336,1.336,0,0,0,.739,1.461,1.521,1.521,0,0,0,.564.12,1.287,1.287,0,0,0,1.021-.492L60.064,46.223a1.323,1.323,0,0,0,.158-1.389,1.336,1.336,0,0,0-1.2-.756H53.253l5.58-12.356v0a1.312,1.312,0,0,0-.107-1.248Z" transform="translate(-2.146 -1.366)" fill="#fff"/>
    <path id="Path_63044" data-name="Path 63044" d="M58.039,20.992a27.542,27.542,0,0,0-30.046,4.627c-.069-.034-.124-.069-.193-.107a4.731,4.731,0,1,0-3.926,8.608,4.842,4.842,0,0,0,1.953.423,4.733,4.733,0,0,0,4.1-7.109A25.069,25.069,0,0,1,71.19,50.842a1.318,1.318,0,0,0,1.055,1.533,1.439,1.439,0,0,0,.244.034,1.349,1.349,0,0,0,1.3-1.093A27.649,27.649,0,0,0,58.04,20.992Z" transform="translate(-0.315 0)" fill="#fff"/>
  </g>
</svg>
