<svg xmlns="http://www.w3.org/2000/svg" width="47.309" height="51.762" viewBox="0 0 47.309 51.762">
  <g id="noun-waste-reduction-8062583" transform="translate(63.448 36.632)">
    <path id="Path_63044" data-name="Path 63044" d="M19.911,47.658a.775.775,0,0,1-.728.827h-.05a.776.776,0,0,1-.775-.73l-1.757-28a.777.777,0,1,1,1.551-.1ZM26.47,19.237a.779.779,0,0,0-.777.777v27.28a.777.777,0,0,0,1.555,0V20.015a.777.777,0,0,0-.777-.777ZM48.12,36.493a1.192,1.192,0,0,1-.137,1.268l-5.064,6.428a1.2,1.2,0,0,1-1.887,0l-5.064-6.428a1.2,1.2,0,0,1,.942-1.946h1.952V27.544a.778.778,0,0,1,.777-.777H44.31a.781.781,0,0,1,.777.777v8.271h1.95a1.2,1.2,0,0,1,1.081.678Zm-1.811.879-2,0a.777.777,0,0,1-.777-.78V28.319H40.419v8.271a.777.777,0,0,1-.777.777h-2l4.334,5.5,4.334-5.5ZM16.3,6.527H36.646V3.948a2.582,2.582,0,0,0-2.58-2.58H18.876a2.585,2.585,0,0,0-2.582,2.58v2.58ZM6.942,14.691H46A1.393,1.393,0,0,0,47.391,13.3V9.477A1.393,1.393,0,0,0,46,8.085H6.942A1.391,1.391,0,0,0,5.551,9.477V13.3a1.391,1.391,0,0,0,1.391,1.393ZM40.608,48.66l.05-.582v0a12.367,12.367,0,0,1-6.149-2.424l-.133,2.106a.778.778,0,0,1-.775.73h-.05a.779.779,0,0,1-.725-.829l.208-3.316v0a12.418,12.418,0,0,1,1.15-18.326l.4-6.361a.777.777,0,1,1,1.551.1l-.322,5.149v0a12.371,12.371,0,0,1,6.168-1.64c.274,0,.545.01.815.027l.6-7.045H9.555L12.7,48.713a4.87,4.87,0,0,0,4.866,4.417H35.737a4.86,4.86,0,0,0,4.871-4.469ZM52.86,35.705A10.9,10.9,0,1,0,49.669,43.4a10.878,10.878,0,0,0,3.191-7.692Z" transform="translate(-69 -38)" fill="#fff" fill-rule="evenodd"/>
  </g>
</svg>
