<svg xmlns="http://www.w3.org/2000/svg" width="40.259" height="51.762" viewBox="0 0 40.259 51.762">
  <g id="noun-water-8091912" transform="translate(-17.188 -7.813)">
    <path id="Path_63042" data-name="Path 63042" d="M33.339,25.625a.965.965,0,0,0-.7.307C29.016,29.8,17.187,43,17.187,50.452a16.152,16.152,0,0,0,32.3,0c0-7.448-11.828-20.647-15.452-24.52a.9.9,0,0,0-.7-.307Zm-2.1,37.853a.941.941,0,0,1-.9.7.817.817,0,0,1-.22-.029A13.573,13.573,0,0,1,20.034,54.1a.932.932,0,0,1,1.812-.441,11.75,11.75,0,0,0,8.713,8.684.946.946,0,0,1,.681,1.131Z" transform="translate(0 -6.885)" fill="#fff"/>
    <path id="Path_63043" data-name="Path 63043" d="M69.109,8.138a.906.906,0,0,0-.709-.326.955.955,0,0,0-.719.326c-3.547,3.949-5.665,7.4-5.665,9.24a6.38,6.38,0,0,0,12.758,0c0-1.84-2.118-5.3-5.665-9.24Z" transform="translate(-17.327)" fill="#fff"/>
  </g>
</svg>
