<svg xmlns="http://www.w3.org/2000/svg" xmlns:xlink="http://www.w3.org/1999/xlink" width="72" height="99" viewBox="0 0 72 99">
  <defs>
    <clipPath id="clip-path">
      <rect id="Rectangle_14221" data-name="Rectangle 14221" width="72" height="99" transform="translate(0 1391)" fill="#fff" stroke="#707070" stroke-width="1" opacity="0.15"/>
    </clipPath>
    <clipPath id="clip-path-2">
      <rect id="Rectangle_14108" data-name="Rectangle 14108" width="91" height="96.749" fill="none"/>
    </clipPath>
  </defs>
  <g id="Mask_Group_292" data-name="Mask Group 292" transform="translate(0 -1391)" clip-path="url(#clip-path)">
    <g id="Group_158259" data-name="Group 158259" transform="translate(-21 1391.77)" opacity="0.1">
      <g id="Group_158258" data-name="Group 158258" clip-path="url(#clip-path-2)">
        <path id="Path_63070" data-name="Path 63070" d="M0,51.833A41.843,41.843,0,0,1,37.587,9.686c1.556-.159,3.308-.323,4.294-1.539,1.379-1.7.385-4.327,1.212-6.355q7.086,6.7,13.728,13.843a4.339,4.339,0,0,1,1.374,2.318c.143,1.3-.876,2.416-1.819,3.328L43.113,34.122q-.214-4.106-.428-8.212a1.5,1.5,0,0,0-.426-1.184,1.459,1.459,0,0,0-1.144-.1,30.9,30.9,0,0,0-17.346,9.512,23.55,23.55,0,0,0-5.887,18.609" transform="translate(0 -0.845)" fill="#bdea96"/>
        <path id="Path_63071" data-name="Path 63071" d="M124.6,24.339a41.842,41.842,0,0,1,16.257,54.08c-.679,1.409-1.455,2.989-.935,4.464.728,2.066,3.487,2.592,4.782,4.358q-9.415,2.536-18.98,4.457a4.335,4.335,0,0,1-2.694-.043c-1.186-.56-1.6-2.01-1.884-3.29q-2-9.01-4.005-18.021l7.222,3.932a1.5,1.5,0,0,0,1.231.256,1.464,1.464,0,0,0,.684-.922,30.9,30.9,0,0,0,.968-19.76A23.549,23.549,0,0,0,114.471,39.1" transform="translate(-53.973 -11.476)" fill="#bdea96"/>
        <path id="Path_63072" data-name="Path 63072" d="M68.305,141.87a41.842,41.842,0,0,1-55.458-10.648c-.934-1.254-1.975-2.674-3.523-2.9-2.168-.312-3.912,1.889-6.078,2.219q2.115-9.518,4.844-18.885a4.335,4.335,0,0,1,1.286-2.368c1.046-.792,2.522-.487,3.789-.146l17.826,4.8-6.83,4.579c-.361.242-.757.541-.8.973a1.465,1.465,0,0,0,.5,1.033,30.9,30.9,0,0,0,17.064,10.012,23.548,23.548,0,0,0,18.995-4.49" transform="translate(-1.53 -51.296)" fill="#bdea96"/>
        <path id="Path_63073" data-name="Path 63073" d="M3.247,50.319c0,.455.011-.144.016-.286q.01-.274.022-.549.021-.438.051-.877.082-1.188.234-2.371.251-1.961.687-3.893a42.708,42.708,0,0,1,2.573-7.815A41.53,41.53,0,0,1,16.06,21.275,42.483,42.483,0,0,1,36.633,10.439q1.973-.413,3.98-.63a10.3,10.3,0,0,0,3.355-.683c2.528-1.2,1.7-4.084,2.1-6.3.021-.118.134-.881.26-.929.084-.031.635.6.735.7q.917.873,1.827,1.754,1.684,1.629,3.342,3.284,3.315,3.31,6.527,6.722a13.339,13.339,0,0,1,2.588,3.3l.051.2q.124-1.664,0-.986c-.039.126-.062.257-.106.383a3.69,3.69,0,0,1-.42.814,10.208,10.208,0,0,1-1.449,1.613q-3.5,3.4-7.01,6.788l-3.506,3.393-1.61,1.56c-.156.152-.715.867-.958.694-.129-.092-.056-1.074-.067-1.283l-.247-4.748c-.037-.708-.042-1.426-.114-2.13-.062-.606-.27-1.142-.961-1.177a7.074,7.074,0,0,0-1.843.329q-1.035.239-2.054.543a33.407,33.407,0,0,0-3.6,1.3,28.3,28.3,0,0,0-12.232,9.691,24.675,24.675,0,0,0-3.41,7.137,26.51,26.51,0,0,0-.915,7.622,25.623,25.623,0,0,0,.221,3.462c-.087-.617.088-1.273,0-1.893-.06-.424-.11-.848-.145-1.275-.016-.2-.029-.4-.04-.605l-.01-.213q-.017-.593-.006.332a9.033,9.033,0,0,0,.076-1.243q.057-.637.153-1.271a23.392,23.392,0,0,1,1.165-4.551,24.917,24.917,0,0,1,4.835-8.05,30.667,30.667,0,0,1,15.96-9.091c.669-.155,1.973-.662,2.522-.04a2.086,2.086,0,0,1,.3,1.283c.03.513.053,1.026.08,1.54q.166,3.208.334,6.416c0,.012,0,.023,0,.034l10.137-9.814,2.463-2.385a11.827,11.827,0,0,0,2.034-2.247,4,4,0,0,0,.469-2.213,4.55,4.55,0,0,0-.4-2.472,14.2,14.2,0,0,0-2.03-2.359q-1.126-1.2-2.266-2.388-2.367-2.467-4.79-4.88Q49.587,3.1,47.157.784L46.606.261A2.31,2.31,0,0,0,46.33,0,1.605,1.605,0,0,0,46.2.364a6.255,6.255,0,0,0-.224,1.344c-.063.855-.011,1.716-.1,2.568a3.638,3.638,0,0,1-3.151,3.358c-1.761.376-3.589.43-5.363.767a42.229,42.229,0,0,0-10.634,3.553A41.742,41.742,0,0,0,9.88,26.924,42.549,42.549,0,0,0,3.243,48.743c-.022.971-.019,1.943-.01,2.915,0,.308.008.308.013,0,.007-.446,0-.892,0-1.338" transform="translate(-1.521 0)" fill="#fff"/>
        <path id="Path_63074" data-name="Path 63074" d="M123.619,27.495a42.433,42.433,0,0,1,17.63,20.973,40.6,40.6,0,0,1,2.026,7.146q.358,1.917.536,3.862.1,1.069.141,2.141.01.229.016.459c0,.128.01.743.011.349s-.008.221-.012.35q-.009.286-.021.573a42.089,42.089,0,0,1-3.586,15.293,13.55,13.55,0,0,0-1.574,4.174,7.508,7.508,0,0,0,.248,3.45c.881,1.976,3.42,2.475,4.691,4.133V88.5q-8.788,2.363-17.706,4.2c-1.224.251-2.762.786-3.968.216a3.725,3.725,0,0,1-1.712-2.581c-.765-2.814-1.285-5.715-1.917-8.561l-2.26-10.169V73.5l5.417,2.949,1.355.737a3.378,3.378,0,0,0,1.27.554c.881.055,1.11-.991,1.341-1.644a33.465,33.465,0,0,0,1.917-10.592,32.991,32.991,0,0,0-1.253-10.582,24.862,24.862,0,0,0-4.376-8.147,22.187,22.187,0,0,0-8.344-6.418,6.739,6.739,0,0,1-.01.947,3.79,3.79,0,0,0,.01.946,23.259,23.259,0,0,1,11.741,11.976,26.611,26.611,0,0,1,2.2,9.6,23.366,23.366,0,0,1-.482,5.1,33.99,33.99,0,0,1-1.324,5.051c-.215.62-.421,1.753-1.21,1.867a2.209,2.209,0,0,1-1.253-.431c-.452-.244-.9-.492-1.355-.737l-5.642-3.072a5.384,5.384,0,0,1-.01.946,4.567,4.567,0,0,0,.01.947c1.335,6.007,2.645,12.02,4.005,18.021a5.735,5.735,0,0,0,1.188,2.783c.981,1.022,2.4.749,3.646.5q4.4-.884,8.765-1.905,5-1.165,9.96-2.5a10.416,10.416,0,0,0,0-1.893c-1.187-1.547-3.319-2.037-4.421-3.65a3.1,3.1,0,0,1-.3-.556c-.051-.123-.082-.248-.127-.374-.156-.448.239-.3-.061.54.24-.672.358-1.36.656-2.025.538-1.2,1.119-2.372,1.6-3.6a42.886,42.886,0,0,0,2.92-15.14A46.312,46.312,0,0,0,142,48.7a42.322,42.322,0,0,0-18.383-23.1,4.916,4.916,0,0,1-.01.946c0,.114-.087.889.01.947" transform="translate(-53.491 -12.071)" fill="#fff"/>
        <path id="Path_63075" data-name="Path 63075" d="M67.084,136.766A41.835,41.835,0,0,1,13.721,128.7c-.866-.982-1.658-2.017-2.451-3.058a5.942,5.942,0,0,0-2.7-2.313c-2.386-.752-4.327,1.719-6.545,2.111v1.893Q4,118.451,6.507,109.7a7.949,7.949,0,0,1,1.36-3.358,3.4,3.4,0,0,1,3.3-.6c2.873.61,5.711,1.519,8.546,2.283l10.059,2.709v-1.893l-5.23,3.506a9.161,9.161,0,0,0-2.181,1.558c-.426.549-.233,1.535-.223,2.178a2.488,2.488,0,0,0,.935,1.707q.939,1.013,1.957,1.949a33.1,33.1,0,0,0,4,3.153,26.947,26.947,0,0,0,19.343,4.514A22.343,22.343,0,0,0,58.7,122.841c.1-.076.01-.816.01-.946s-.1-.87-.01-.947a23.127,23.127,0,0,1-14.984,4.9,27.816,27.816,0,0,1-15.037-5.091,33.173,33.173,0,0,1-3.5-2.771q-.866-.786-1.676-1.629c-.492-.511-1.339-1.171-1.363-1.933q0,.929,0,1.859c.149-.695.894-1.038,1.438-1.4l2.028-1.359,4.163-2.79a11.372,11.372,0,0,0,0-1.893c-5.942-1.6-11.877-3.225-17.826-4.8a5.2,5.2,0,0,0-3.291-.14c-1.175.5-1.531,1.786-1.856,2.9q-1.254,4.306-2.373,8.65-1.284,4.972-2.4,9.985c-.043.192.059,1.883,0,1.893,2.027-.359,3.606-2.3,5.72-2.249,2.313.058,3.628,2.668,4.9,4.239a41.96,41.96,0,0,0,54.437,9.334,3.646,3.646,0,0,0,.01-.946,3.854,3.854,0,0,1-.01-.947" transform="translate(-0.95 -48.886)" fill="#fff"/>
      </g>
    </g>
  </g>
</svg>
