<svg xmlns="http://www.w3.org/2000/svg" xmlns:xlink="http://www.w3.org/1999/xlink" width="71" height="71" viewBox="0 0 71 71">
  <defs>
    <clipPath id="clip-path">
      <rect id="Rectangle_14145" data-name="Rectangle 14145" width="71" height="71" transform="translate(0 0.303)" fill="#06b0e3"/>
    </clipPath>
  </defs>
  <g id="Group_158281" data-name="Group 158281" transform="translate(0 -0.303)">
    <g id="Group_158280" data-name="Group 158280" clip-path="url(#clip-path)">
      <path id="Path_63083" data-name="Path 63083" d="M48.652,7H43.559A12.722,12.722,0,0,0,31.03,17.716C23.391,19.8,16.4,25.073,13.268,31.327A2.548,2.548,0,0,0,17.827,33.6c2.643-5.292,9.145-9.919,15.855-11.324h4.785A12.747,12.747,0,0,0,51.2,9.547,2.544,2.544,0,0,0,48.652,7" transform="translate(20.104 10.826)" fill="#06b0e3"/>
      <path id="Path_63084" data-name="Path 63084" d="M20.079,12.218c5.409.586,11.286,3.267,13.183,8.4a2.548,2.548,0,0,0,4.78-1.767C35.015,10.662,25.707,7,17.826,7H12.733A12.747,12.747,0,0,0,0,19.733a2.544,2.544,0,0,0,2.547,2.547H7.64a12.748,12.748,0,0,0,12.44-10.061" transform="translate(0 10.826)" fill="#06b0e3"/>
      <path id="Path_63085" data-name="Path 63085" d="M41.558,24.937a1.267,1.267,0,0,1-.705-.214L33.918,20.1l-6.934,4.622a1.27,1.27,0,0,1-1.411,0L18.639,20.1,11.7,24.723a1.27,1.27,0,0,1-1.411,0L6.008,21.866a20.371,20.371,0,0,0,40.541,0l-4.286,2.857a1.267,1.267,0,0,1-.705.214" transform="translate(9.292 31.087)" fill="#06b0e3"/>
      <path id="Path_63086" data-name="Path 63086" d="M12.6,11.459V17.13c5.45,2.055,10.273,5.86,12.417,11.663a5.017,5.017,0,0,1,.3,1.785c.833-.555,1.681-1.09,2.564-1.576V11.459A6.32,6.32,0,0,0,30.34,6.366,6.374,6.374,0,0,0,23.974,0h-7.64A6.375,6.375,0,0,0,9.968,6.366,6.472,6.472,0,0,0,12.6,11.459" transform="translate(15.416)" fill="#ffce00"/>
      <path id="Path_63087" data-name="Path 63087" d="M30.928,28.172a5.065,5.065,0,0,1-4.558,2.816,5.172,5.172,0,0,1-2.269-.532,5.1,5.1,0,0,1-2.284-6.837,24.454,24.454,0,0,1,3.833-5.475,5.076,5.076,0,0,1-4.054-3.214,8.337,8.337,0,0,0-2.862-3.682v3.41A20.568,20.568,0,0,0,6,32.486l5.012,3.338,6.934-4.619a1.261,1.261,0,0,1,1.411,0l6.934,4.619,6.934-4.619a1.261,1.261,0,0,1,1.411,0l6.934,4.619,5.012-3.338a20.585,20.585,0,0,0-5.546-13C36.6,21.363,32.713,24.6,30.928,28.172" transform="translate(9.279 17.395)" fill="#06b0e3"/>
    </g>
  </g>
</svg>
