<svg id="Group_158279" data-name="Group 158279" xmlns="http://www.w3.org/2000/svg" xmlns:xlink="http://www.w3.org/1999/xlink" width="65.376" height="71.303" viewBox="0 0 65.376 71.303">
  <defs>
    <clipPath id="clip-path">
      <rect id="Rectangle_14144" data-name="Rectangle 14144" width="65.376" height="71.303" fill="#06b0e3"/>
    </clipPath>
  </defs>
  <g id="Group_158278" data-name="Group 158278" transform="translate(0 0)" clip-path="url(#clip-path)">
    <path id="Path_63081" data-name="Path 63081" d="M72.936,8.63a6.022,6.022,0,0,1-4.121,2.963A12.411,12.411,0,0,0,60.291,0a10.626,10.626,0,0,1-2.756,11.823,8.848,8.848,0,0,0,6.952,15.43C78.978,27.547,74.544,12.084,72.936,8.63Z" transform="translate(-9.472 0)" fill="#ffce00"/>
    <path id="Path_63082" data-name="Path 63082" d="M13.562,42.433H.084A30.236,30.236,0,0,1,5.739,22.448H21.748a.761.761,0,0,1,.774.774,5.994,5.994,0,0,0,5.99,5.99h2.505a2.582,2.582,0,0,1,.051,5.164H21.593a6.6,6.6,0,0,0-6.584,6.61,1.444,1.444,0,0,1-1.446,1.447Zm20.605,19.6a.81.81,0,0,0-.8-.826H30.785a7.747,7.747,0,0,1-.051-15.492h9.528a1.444,1.444,0,0,0,1.446-1.446,6.579,6.579,0,0,1,6.584-6.584H64.145a34.288,34.288,0,0,0-.981-5.448c-7.64,3.8-19.453,1.385-22.438-7.436a13.55,13.55,0,0,1,2.711-14.15,32.209,32.209,0,0,0-33.076,6.636H21.748a5.956,5.956,0,0,1,5.939,5.938c-.007,1.278,2.027.711,3.383.826a7.747,7.747,0,0,1,.077,15.492H21.593a1.438,1.438,0,0,0-1.42,1.446,6.623,6.623,0,0,1-6.61,6.61H.834C5.9,71.765,32.388,78.556,49.532,67.97H40.108a5.94,5.94,0,0,1-5.939-5.938ZM48.291,42.846a1.433,1.433,0,0,0-1.42,1.42,6.623,6.623,0,0,1-6.61,6.61H30.785a2.582,2.582,0,1,0,.078,5.164h2.5a5.989,5.989,0,0,1,5.965,5.99.761.761,0,0,0,.774.774H55.8A32.882,32.882,0,0,0,64.2,42.846Z" transform="translate(0 -1.505)" fill="#06b0e3"/>
  </g>
</svg>
