<svg xmlns="http://www.w3.org/2000/svg" xmlns:xlink="http://www.w3.org/1999/xlink" width="100.562" height="118.271" viewBox="0 0 100.562 118.271">
  <defs>
    <clipPath id="clip-path">
      <rect id="Rectangle_14106" data-name="Rectangle 14106" width="75.546" height="101.374" fill="none"/>
    </clipPath>
  </defs>
  <g id="Group_158255" data-name="Group 158255" transform="translate(0 20.823) rotate(-16)" opacity="0.1">
    <g id="Group_158254" data-name="Group 158254" clip-path="url(#clip-path)">
      <path id="Path_63061" data-name="Path 63061" d="M59.046,52.289C51.81,63.017,44.052,73.746,36.817,84.474a1.519,1.519,0,0,0-.381,1.168c.162.619.987.8,1.66.853a78.9,78.9,0,0,0,9.235.2c.576-.021,1.274.012,1.556.486a1.4,1.4,0,0,1,.12.788A119.616,119.616,0,0,1,46.635,107a60.147,60.147,0,0,0,9.095-9.8L71.407,77.539a1.462,1.462,0,0,0,.456-1.112c-.116-.582-.864-.8-1.485-.891a31.553,31.553,0,0,0-9.865.158c-.582.1-1.318.161-1.629-.315a1.3,1.3,0,0,1-.131-.784c.3-6.949,0-15.357.291-22.307" transform="translate(-15.103 -23.409)" fill="#bdea96"/>
      <path id="Path_63062" data-name="Path 63062" d="M56.392,46.526c-5.7,8.452-11.627,16.766-17.427,25.159q-2.147,3.108-4.267,6.232a7,7,0,0,0-.856,1.358,4.4,4.4,0,0,0-.1,1.487c0,.847-.25,1.912.763,2.3a12.155,12.155,0,0,0,3.529.348q2.02.1,4.043.088.939,0,1.877-.029a6.006,6.006,0,0,1,1.609.036,1.13,1.13,0,0,1,.56.284c.063.067.09.173.148.235.574.605.12-2.577.071-1.632-.033.629-.061,1.259-.1,1.888a120.33,120.33,0,0,1-2.263,16.958,6.545,6.545,0,0,0-.013,1.254c0,.178.15,1.143.013,1.253,4.068-3.286,7.2-7.427,10.4-11.44L64.921,79.088l2.613-3.276c.671-.841,1.683-1.7,1.7-2.808.009-.676.021-1.356,0-2.032a.972.972,0,0,0-.571-.938,4.787,4.787,0,0,0-1.633-.352q-1.124-.134-2.256-.187a31.627,31.627,0,0,0-4.243.087q-1.057.093-2.106.257a4.66,4.66,0,0,1-1.561.138,1,1,0,0,1-.521-.233c-.067-.065-.122-.259-.19-.308a10.353,10.353,0,0,0-.033,1.633c.026-.617.045-1.234.061-1.852q.046-1.719.061-3.439c.059-5.6-.073-11.2.159-16.788.031-.753-.032-1.825-.007-2.418-.211,5.089-.143,10.184-.157,15.276-.008,2.488-.1,4.972-.144,7.459-.011.688-.017,1.379,0,2.067.013.466.074.9.6,1.072a3.13,3.13,0,0,0,1.448-.054c.744-.12,1.492-.22,2.244-.289a31.776,31.776,0,0,1,5.091-.059,23.468,23.468,0,0,1,2.345.254c.624.107,1.356.33,1.4,1.031l0-2.463a3.25,3.25,0,0,1-.817,1.349L67.1,73.851l-2.526,3.167-4.965,6.224c-3.223,4.041-6.363,8.158-9.722,12.1a44.911,44.911,0,0,1-5.9,5.892v2.507a120.727,120.727,0,0,0,2.094-14.578,66.351,66.351,0,0,0,.291-6.988c-.024-.969-.612-1.257-1.591-1.244-1.285.017-2.567.065-3.853.051q-2.166-.024-4.329-.166c-.931-.061-2.69.045-2.838-1.141v2.508a3.322,3.322,0,0,1,.712-1.418q.576-.851,1.153-1.7,1.082-1.589,2.172-3.173,2.227-3.237,4.477-6.459c3.028-4.345,6.072-8.679,9.084-13.033q2.539-3.67,5.037-7.366c.153-.227.013-.984.013-1.254,0-.3,0-.591,0-.886,0-.075-.047-.312-.009-.367" transform="translate(-13.985 -20.829)" fill="#fff"/>
      <path id="Path_63063" data-name="Path 63063" d="M39.15,0c-5.374,7.528-12.277,13.914-18.4,20.879C14.738,27.725,9.085,35.1,5.135,43.211A50.906,50.906,0,0,0,.8,55.926,49.233,49.233,0,0,0,.169,68.971,31.078,31.078,0,0,0,10.391,89.814a36.354,36.354,0,0,0,20.4,9.087A37.144,37.144,0,0,0,54.461,92.84a41.574,41.574,0,0,0,16.01-19.126A34.947,34.947,0,0,0,73.054,61.82a42.634,42.634,0,0,0-1.232-12.629c-2.262-8.422-7.164-16.03-12.556-22.979C53.845,19.226,47.44,12.936,42.5,5.618A56.388,56.388,0,0,1,39.15,0a3.945,3.945,0,0,1-.013,1.254c0,.326-.142.953.013,1.254,3.9,7.533,9.73,13.877,15.283,20.345,5.586,6.506,10.874,13.4,14.5,21.081a43.021,43.021,0,0,1,3.759,11.9q.242,1.608.33,3.232a5.725,5.725,0,0,1,.03.709s.029-1.343,0-.371c0,.114-.009.227-.013.341q-.037.828-.117,1.654A34.272,34.272,0,0,1,71.8,67.312,40.514,40.514,0,0,1,58.561,87.329a39.3,39.3,0,0,1-22.228,9.176,35.7,35.7,0,0,1-20.945-5.437A30.8,30.8,0,0,1,.377,68.409Q.149,66.733.088,65.041a2.748,2.748,0,0,1-.016-.609c.006-.018-.019,1.129.008.51.011-.266.018-.531.031-.8q.048-.961.143-1.92a46.306,46.306,0,0,1,3.14-12.579c3.212-8.046,8.3-15.279,13.825-22.062C22.86,20.66,29.393,14.459,35.152,7.629c1.4-1.66,2.742-3.363,4-5.122.154-.215.013-.993.013-1.254,0-.3,0-.591,0-.886,0-.073-.047-.315-.009-.367" transform="translate(0)" fill="#fff"/>
    </g>
  </g>
</svg>
