<svg xmlns="http://www.w3.org/2000/svg" xmlns:xlink="http://www.w3.org/1999/xlink" width="109.434" height="108.028" viewBox="0 0 109.434 108.028">
  <defs>
    <clipPath id="clip-path">
      <rect id="Rectangle_14107" data-name="Rectangle 14107" width="109.434" height="108.028" fill="none"/>
    </clipPath>
  </defs>
  <g id="Group_158257" data-name="Group 158257" opacity="0.1">
    <g id="Group_158256" data-name="Group 158256" clip-path="url(#clip-path)">
      <path id="Path_63065" data-name="Path 63065" d="M39.218,140.006a26.832,26.832,0,0,0-.491-14.048A20.443,20.443,0,0,0,30.26,114.89a38.871,38.871,0,0,0-8.437-3.462,29.938,29.938,0,0,1-8.3-3.753,10.941,10.941,0,0,1-4.781-7.47C5.015,107.248,2.8,115.242,3.414,123.19S7.676,139,14,143.856s15.378,6.285,22.529,2.762" transform="translate(-1.389 -42.023)" fill="#bdea96"/>
      <path id="Path_63066" data-name="Path 63066" d="M72.829,3.18c-.938,4.786-4.282,8.776-8.078,11.839s-8.119,5.407-12.01,8.348a3.527,3.527,0,0,0-1.618,2.119c-.187,1.387,1.335,2.505,2.734,2.491a8.816,8.816,0,0,0,3.9-1.437,31.138,31.138,0,0,1,31.365,1.611,7.049,7.049,0,0,1,2.8,2.957,2.853,2.853,0,0,1-1.064,3.6c-1.943.944-3.869-1.295-5.938-1.917-2.685-.808-5.311,1.205-7.5,2.954s-5.226,3.414-7.631,1.971c-2.149-1.29-2.52-4.416-4.557-5.878-2.557-1.836-6.139-.11-8.487,1.987a29.259,29.259,0,0,0-8.522,13.483,15.633,15.633,0,0,0-.492,8.195,8.2,8.2,0,0,0,5.26,5.953c4.007,1.187,8.867-1.508,12.271.917,2.816,2.006,2.685,6.128,2.562,9.584-.187,5.216.4,10.708,3.33,15.027s8.749,7.01,13.563,5c5.113-2.14,7.078-8.235,8.349-13.63s2.95-11.494,7.891-14a28.344,28.344,0,0,0,3.845-1.831c1.157-.829,2-2.37,1.429-3.671-.6-1.364-2.332-1.723-3.808-1.942a19.727,19.727,0,0,1-7.652-2.368c-2.281-1.424-4.076-3.9-4-6.589s2.524-5.284,5.19-4.929c2.319.309,3.863,2.454,5.33,4.276s3.648,3.644,5.892,2.98c2.066-.611,2.978-2.986,3.476-5.083s1.046-4.477,2.91-5.558c2.464-1.427,5.693.454,7.071,2.946s1.6,5.446,2.552,8.129,3.152,5.354,6,5.255A50.19,50.19,0,0,0,73.062,2.734" transform="translate(-19.869 -1)" fill="#bdea96"/>
      <path id="Path_63067" data-name="Path 63067" d="M35.918,140.58a33.036,33.036,0,0,0,.712-6.817,35.957,35.957,0,0,0-.495-7.28,21.694,21.694,0,0,0-5.749-11.057c-3.278-3.308-7.536-4.774-11.862-6.194-4.121-1.353-8.493-2.948-11.179-6.562a10.263,10.263,0,0,1-1.428-2.62,8.684,8.684,0,0,1-.377-1.382c-.02-.109-.037-.219-.052-.329-.03-.213.084-.356-.1-.216s-.316.608-.417.809a49.711,49.711,0,0,0-2.727,6.482A42.736,42.736,0,0,0,0,118.994a37.415,37.415,0,0,0,1.8,12.8,28.117,28.117,0,0,0,6.352,10.382c5.665,5.772,14.434,8.506,22.285,6.119a19.176,19.176,0,0,0,2.789-1.1,6.175,6.175,0,0,0,.014-1.385,6.828,6.828,0,0,1-.014-1.385c-6.8,3.3-15.144,2.23-21.348-1.916C5.5,138.244,1.586,130.956.407,123.486Q.165,121.95.074,120.4c-.015-.258-.015-.52-.036-.777-.044-.517.021.656-.012.589a1.616,1.616,0,0,1,.016-.507q.036-.946.121-1.888a40.449,40.449,0,0,1,1.114-6.383,46.545,46.545,0,0,1,2.114-6.293q.625-1.5,1.346-2.966c.059-.121.668-1.4.711-1.391s.228,1.267.268,1.412c1.073,3.837,4.445,6.416,7.922,7.991,3.967,1.8,8.327,2.6,12.191,4.638a19.676,19.676,0,0,1,7.982,7.982,22.317,22.317,0,0,1,2.156,5.667,24.7,24.7,0,0,1,.535,3.3c.032.339.057.68.075,1.02.007.134.007.268.018.4.039.5-.031-.668,0-.658a12.08,12.08,0,0,1-.139,1.961,31.251,31.251,0,0,1-.541,3.314c-.192.886.19,1.893,0,2.77" transform="translate(0 -41.127)" fill="#fff"/>
      <path id="Path_63068" data-name="Path 63068" d="M13.777,77.7A69.216,69.216,0,0,0,31.223,98.705a41.1,41.1,0,0,0,25.9,9.119C67.614,107.65,77.793,103.6,86.6,98.09c7.9-4.943,15.027-11.431,19.831-19.483a46.508,46.508,0,0,0,5.439-13.847,62.164,62.164,0,0,0,1.153-15.674,50.225,50.225,0,0,0-8.912-26.929A52.521,52.521,0,0,0,83.852,4.944,51.931,51.931,0,0,0,54.659.472,50.918,50.918,0,0,0,28.49,12.057,52.8,52.8,0,0,0,13.11,34.124a50.569,50.569,0,0,0-1.835,6.313c-.2.884.195,1.9,0,2.771A52.226,52.226,0,0,1,23.461,19.716,50.9,50.9,0,0,1,46.431,5.028a52.77,52.77,0,0,1,29.3-.363A51.661,51.661,0,0,1,98.78,18.48a50.08,50.08,0,0,1,12.892,23.333,51.92,51.92,0,0,1,1.2,7.567q.089,1.06.133,2.122.021.506.033,1.011c.006.3-.087.824,0-.345-.019.251-.013.505-.022.756q-.073,2.02-.305,4.03a48.3,48.3,0,0,1-4.067,14.7c-3.87,8.366-10.3,15.319-17.692,20.725-8.069,5.9-17.519,10.482-27.437,12.1a39.056,39.056,0,0,1-27.359-5.155C28.465,94.721,22.2,87.984,17.244,80.588q-1.849-2.76-3.467-5.663a2.1,2.1,0,0,1-.01.405c0,.327,0,.653,0,.98s0,.653,0,.98a1.167,1.167,0,0,0,.01.406" transform="translate(-4.704 0)" fill="#fff"/>
      <path id="Path_63069" data-name="Path 63069" d="M66.739,3.688q0-.893,0-1.786c-.008.2-.024.405-.046.607-.016.145-.035.29-.057.434a10.62,10.62,0,0,1-.222,1.068,11.843,11.843,0,0,1-.754,2.055,15.508,15.508,0,0,1-2.426,3.618A27.946,27.946,0,0,1,55.6,15.358c-2.839,1.571-5.919,2.923-8.493,4.923a5.118,5.118,0,0,0-2.249,3.467c-.057.752-.023,1.517-.018,2.269a5.774,5.774,0,0,0,.177,1.772,2.332,2.332,0,0,0,2.85,1.666c1.389-.37,2.4-1.578,3.51-2.409a15.731,15.731,0,0,1,8.691-2.833,39.347,39.347,0,0,1,10.523,1.335,83.981,83.981,0,0,1,10.07,2.7,20.953,20.953,0,0,1,4.557,2.116,5.935,5.935,0,0,1,1.5,1.378,3.761,3.761,0,0,1,.5.894A3.615,3.615,0,0,1,87.33,33a3.465,3.465,0,0,1,.077.377q.157-2.768,0-1.73a2.874,2.874,0,0,1-.8,1.511,2.541,2.541,0,0,1-1.9.553A7.141,7.141,0,0,1,80.9,31.636a6.043,6.043,0,0,0-3.674-1.812,5.689,5.689,0,0,0-3.7,1.666c-2.141,1.87-3.739,4.714-6.737,5.327a3.306,3.306,0,0,1-3.377-1.245,7.853,7.853,0,0,1-1.136-3.027,11.107,11.107,0,0,0-1.061-3.326,3.682,3.682,0,0,0-3.328-1.774,7.137,7.137,0,0,0-4.078,1.677c-1.348,1.013-2.62,2.146-3.892,3.251a39.955,39.955,0,0,0-6.834,7.254,18.65,18.65,0,0,0-3.405,8.914c-.244,2.9-.25,6.1.965,8.8A10.518,10.518,0,0,0,46.2,62.872c2.875,1.126,5.889.276,8.819-.112,2.99-.4,5.923.024,7.783,2.638a9.782,9.782,0,0,1,1.611,4.078c.086.522.125,1.045.171,1.572.032.37-.11.773.012-.491-.017.179-.014.366-.023.547-.045.954-.121,1.906-.176,2.86a49.225,49.225,0,0,0,.207,9.965,15.377,15.377,0,0,0,3.7,8.39,10.484,10.484,0,0,0,7.365,3.519,9.233,9.233,0,0,0,7.084-3.683C86.968,87,86.432,80,88.54,74.011a14.307,14.307,0,0,1,4.612-6.853,13.9,13.9,0,0,1,4.265-1.915,8.057,8.057,0,0,0,3.852-2.162c1.068-1.24.922-2.681.914-4.221a4.2,4.2,0,0,0-1.5-3.574A8.154,8.154,0,0,0,96.409,53.8a26.053,26.053,0,0,1-4.909-.9c-2.865-.941-5.342-2.977-5.9-6.061-.2-1.092-.17,2.223-.018,1.384.03-.165.05-.329.09-.492a4.913,4.913,0,0,1,.294-.854A4.978,4.978,0,0,1,87.2,45.193a3.955,3.955,0,0,1,3.643-.909c2.966.761,4.455,3.939,6.824,5.608a4.646,4.646,0,0,0,4.043.936,3.9,3.9,0,0,0,2.092-1.714c1.785-2.847,1.676-9.708,6.532-9.195,2.891.305,4.769,3.107,5.446,5.683.432,1.645.59,3.344.912,5.011a8.509,8.509,0,0,0,1.636,4.117,7.879,7.879,0,0,0,6.506,2.463c.1-.009-.062-2.765,0-2.771a7.7,7.7,0,0,1-6.908-2.984,11.463,11.463,0,0,1-1.414-4.626,27.18,27.18,0,0,0-1.12-5.222c-.9-2.412-3.549-5.083-6.368-4.351-2.183.567-3.04,2.855-3.628,4.792-.561,1.844-.968,4.175-2.576,5.438-2.632,2.066-5.667-.506-7.426-2.459C93.588,43,90.943,40.245,88,41.854a4.883,4.883,0,0,0-2.371,3.3,11.606,11.606,0,0,0-.1,2.2,15.8,15.8,0,0,0,.07,2.255c.548,3.795,4.255,5.835,7.678,6.523,1.9.382,3.916.332,5.756,1a4.425,4.425,0,0,1,3.132,3.6l-.012-.686q-.007-.365-.015-.73.058-1.191-.056-.531c-.033.1-.055.2-.088.292a3.5,3.5,0,0,1-.3.646,4.684,4.684,0,0,1-1.034,1.179,8.8,8.8,0,0,1-3,1.492A12.984,12.984,0,0,0,91.891,65.5c-3.17,3.283-4.1,7.912-4.887,12.238-.817,4.488-1.732,9.232-5.094,12.582a9.031,9.031,0,0,1-5.281,2.692,9.23,9.23,0,0,1-5.783-1.4c-4.039-2.453-5.882-6.927-6.365-11.461-.07-.661-.093-1.321-.138-1.982-.011-.166-.005-.651-.011.117-.006.828,0,.106.009-.127.01-.34.024-.679.041-1.018.065-1.305.181-2.607.226-3.913A27.178,27.178,0,0,0,64.23,65.8a8.1,8.1,0,0,0-3.346-5.008c-1.947-1.2-4.281-1.044-6.45-.718-2.23.336-4.525.885-6.781.449a9.29,9.29,0,0,1-4.981-2.877,11.469,11.469,0,0,1-2.728-5.12,11.648,11.648,0,0,1-.252-1.537c.022.228-.039-.679-.048-.684.021.012-.062,1.794.011,1.327.06-.384.063-.782.118-1.168a16.7,16.7,0,0,1,.887-3.455c1.722-4.653,5.206-8.305,8.87-11.524.934-.82,1.885-1.622,2.837-2.421a17.187,17.187,0,0,1,2.881-2.107c1.78-.949,4.239-1.165,5.636.557,1.9,2.343.869,8,5,8.153,2.144.081,4.079-1.593,5.413-3.092,1.316-1.479,2.765-3.23,4.74-3.811,2.269-.668,3.937.9,5.558,2.229,1.389,1.139,4.018,2.466,5.378.532a4.65,4.65,0,0,0,.489-2.775,7.457,7.457,0,0,0-.316-3.061c-.924-2.081-3.52-3.058-5.484-3.835a54.88,54.88,0,0,0-7.386-2.223c-2.526-.607-5.061-1.219-7.62-1.669-4.7-.826-9.847-.941-14.1,1.542A21.279,21.279,0,0,0,49.9,25.494a4.428,4.428,0,0,1-2.725,1.276,2.284,2.284,0,0,1-2.024-1.416,3.188,3.188,0,0,1-.181-.512,3.253,3.253,0,0,0-.074-.359q0,.462-.008.926-.075,1.43,0,.835a5.371,5.371,0,0,1,.54-1.414c1.179-1.92,3.533-3.073,5.433-4.136,2.163-1.211,4.389-2.31,6.517-3.585,3.785-2.27,7.44-5.363,8.851-9.7a18.416,18.416,0,0,0,.515-6.394c-.007-.18-.015.228-.011.14-.012.274-.005.553-.006.828,0,.567-.011,1.137.01,1.7" transform="translate(-16.586 -0.407)" fill="#fff"/>
    </g>
  </g>
</svg>
