<svg xmlns="http://www.w3.org/2000/svg" xmlns:xlink="http://www.w3.org/1999/xlink" width="79.948" height="71.303" viewBox="0 0 79.948 71.303">
  <defs>
    <clipPath id="clip-path">
      <rect id="Rectangle_14146" data-name="Rectangle 14146" width="79.948" height="71.303" fill="#06b0e3"/>
    </clipPath>
  </defs>
  <g id="Group_158283" data-name="Group 158283" transform="translate(0 0)">
    <g id="Group_158282" data-name="Group 158282" transform="translate(0 0)" clip-path="url(#clip-path)">
      <path id="Path_63088" data-name="Path 63088" d="M82.687,1.036h0A1.354,1.354,0,0,1,83.84,2.564l0,.021c-4.4,26.639-13.425,31.377-20.619,30.276a16.168,16.168,0,0,1-4.665-1.493,19.572,19.572,0,0,1-5.628-4.2A23.956,23.956,0,0,0,49.009,38.18H39.866a27.272,27.272,0,0,1,1.215-3.752V33.066a14.72,14.72,0,0,0-4.388-9.494l-5.122-5.114a.2.2,0,0,0-.351.139.245.245,0,0,0,0,.049,24.871,24.871,0,0,0,4.38,8.972C30.446,29.55,21.449,29.583,21.18,6.411a.9.9,0,0,1,.9-.9h.008c17.944.212,21.957,5.66,21.957,10.505A10.748,10.748,0,0,1,43.52,19.2a12.883,12.883,0,0,1-1.843,3.662,18.069,18.069,0,0,1,3.67,4.478,27.161,27.161,0,0,1,4.421-4.258l4.249-3.132,8.417-6.191a.31.31,0,0,0-.131-.555h-.082a37.448,37.448,0,0,0-14.339,4.5c-1.7-8.156.3-21.533,34.8-16.672" transform="translate(-3.905 0)" fill="#06b0e3"/>
      <path id="Path_63089" data-name="Path 63089" d="M19.983,75.233H45.17A11.752,11.752,0,0,0,54.028,71.2L69.8,53.17a4.942,4.942,0,0,0-.483-6.974l-.1-.082a4.763,4.763,0,0,0-3.059-1.085,5.271,5.271,0,0,0-3.915,1.77l-7.406,8.254v.114a8.621,8.621,0,0,1-8.654,8.2h-9.07a1.851,1.851,0,1,1-.246-3.695,1.762,1.762,0,0,1,.246,0h9.07a4.894,4.894,0,0,0,4.959-4.616,4.756,4.756,0,0,0-4.615-4.892l-.14,0H31.28L28.833,49.3a17.038,17.038,0,0,0-17.658,3.988L0,64.393,15.6,79.6Z" transform="translate(0 -8.302)" fill="#ffce00"/>
    </g>
  </g>
</svg>
