<svg xmlns="http://www.w3.org/2000/svg" width="81" height="81.5" viewBox="0 0 81 81.5">
  <g id="noun-renewable-electricity-2619333_1_" data-name="noun-renewable-electricity-2619333 (1)" transform="translate(-4 -2)">
    <path id="Path_62634" data-name="Path 62634" d="M16.706,35H5.746L4.2,44.836H15.3Z" transform="translate(0.081 13.371)" fill="#0aafe2"/>
    <path id="Path_62635" data-name="Path 62635" d="M14.1,44.836H25.341L25.763,35H15.505Z" transform="translate(4.092 13.371)" fill="#0aafe2"/>
    <path id="Path_62636" data-name="Path 62636" d="M19,17H8.746L7.2,26.836H17.6Z" transform="translate(1.297 6.078)" fill="#0aafe2"/>
    <path id="Path_62637" data-name="Path 62637" d="M25.734,26.836,26.155,17h-8.15L16.6,26.836Z" transform="translate(5.105 6.078)" fill="#0aafe2"/>
    <path id="Path_62638" data-name="Path 62638" d="M33.593,26H25.022L24.6,35.836h8.993Z" transform="translate(8.347 9.724)" fill="#0aafe2"/>
    <path id="Path_62639" data-name="Path 62639" d="M33.391,17H25.522L25.1,26.836h8.291Z" transform="translate(8.549 6.078)" fill="#0aafe2"/>
    <path id="Path_62640" data-name="Path 62640" d="M41.572,26H33v9.836h8.993Z" transform="translate(11.75 9.724)" fill="#0aafe2"/>
    <path id="Path_62641" data-name="Path 62641" d="M40.869,17H33v9.836h8.291Z" transform="translate(11.75 6.078)" fill="#0aafe2"/>
    <path id="Path_62642" data-name="Path 62642" d="M40.166,8H33v9.836h7.588Z" transform="translate(11.75 2.431)" fill="#0aafe2"/>
    <path id="Path_62643" data-name="Path 62643" d="M33.188,8H26.022L25.6,17.836h7.588Z" transform="translate(8.752 2.431)" fill="#0aafe2"/>
    <path id="Path_62644" data-name="Path 62644" d="M26.331,8H19.305L17.9,17.836h8.009Z" transform="translate(5.632 2.431)" fill="#0aafe2"/>
    <path id="Path_62645" data-name="Path 62645" d="M25.939,26H16.805L15.4,35.836H25.517Z" transform="translate(4.619 9.724)" fill="#0aafe2"/>
    <path id="Path_62646" data-name="Path 62646" d="M33.8,35H24.522L24.1,44.836h9.7Z" transform="translate(8.144 13.371)" fill="#0aafe2"/>
    <path id="Path_62647" data-name="Path 62647" d="M42.274,35H33v9.836h9.7Z" transform="translate(11.75 13.371)" fill="#0aafe2"/>
    <path id="Path_62648" data-name="Path 62648" d="M53.263,44.836,51.858,35H41.6l.422,9.836Z" transform="translate(15.234 13.371)" fill="#0aafe2"/>
    <path id="Path_62649" data-name="Path 62649" d="M63.406,44.836,61.86,35H50.9l1.405,9.836Z" transform="translate(19.003 13.371)" fill="#0aafe2"/>
    <path id="Path_62650" data-name="Path 62650" d="M61.825,35.836,60.279,26H49.6l1.405,9.836Z" transform="translate(18.476 9.724)" fill="#0aafe2"/>
    <path id="Path_62651" data-name="Path 62651" d="M41.1,26l.422,9.836H51.639L50.234,26Z" transform="translate(15.032 9.724)" fill="#0aafe2"/>
    <path id="Path_62652" data-name="Path 62652" d="M41.022,26.836h9.134L48.75,17H40.6Z" transform="translate(14.829 6.078)" fill="#0aafe2"/>
    <path id="Path_62653" data-name="Path 62653" d="M48.531,17.836,47.126,8H40.1l.422,9.836Z" transform="translate(14.627 2.431)" fill="#0aafe2"/>
    <path id="Path_62654" data-name="Path 62654" d="M20.222,8H11.51a1.513,1.513,0,0,0-1.405,1.124L8.7,17.836H18.817Z" transform="translate(1.904 2.431)" fill="#0aafe2"/>
    <path id="Path_62655" data-name="Path 62655" d="M17.925,26H7.246L5.7,35.836H16.52Z" transform="translate(0.689 9.724)" fill="#0aafe2"/>
    <path id="Path_62656" data-name="Path 62656" d="M31.553,48H22.7l5.48,9.836h3.372Z" transform="translate(7.577 18.638)" fill="#0aafe2"/>
    <rect id="Rectangle_10087" data-name="Rectangle 10087" width="3" height="9" transform="translate(42 67)" fill="#0aafe2"/>
    <path id="Path_62657" data-name="Path 62657" d="M55.94,57H19.405A1.328,1.328,0,0,0,18,58.405v2.81H57.345v-2.81A1.328,1.328,0,0,0,55.94,57Z" transform="translate(5.672 22.284)" fill="#0aafe2"/>
    <path id="Path_62658" data-name="Path 62658" d="M35,48v9.836h3.372L43.853,48Z" transform="translate(12.56 18.638)" fill="#0aafe2"/>
    <path id="Path_62659" data-name="Path 62659" d="M4,45.405A1.328,1.328,0,0,0,5.405,46.81H81.284a1.328,1.328,0,0,0,1.405-1.405V44H4Z" transform="translate(0 17.017)" fill="#0aafe2"/>
    <rect id="Rectangle_10088" data-name="Rectangle 10088" width="3" height="6" transform="translate(67 2)" fill="#fbab1e"/>
    <rect id="Rectangle_10089" data-name="Rectangle 10089" width="5" height="3" transform="translate(80 17)" fill="#fbab1e"/>
    <rect id="Rectangle_10090" data-name="Rectangle 10090" width="4.918" height="2.81" transform="translate(76.142 9.47) rotate(-45)" fill="#fbab1e"/>
    <rect id="Rectangle_10091" data-name="Rectangle 10091" width="2.81" height="3.934" transform="translate(76.089 28.301) rotate(-45)" fill="#fbab1e"/>
    <path id="Path_62660" data-name="Path 62660" d="M51.134,24.862A8.431,8.431,0,0,0,51.134,8a7.794,7.794,0,0,0-3.934.984l2.248,15.738A6.841,6.841,0,0,0,51.134,24.862Z" transform="translate(17.503 2.431)" fill="#fbab1e"/>
  </g>
</svg>
