<svg id="Group_158285" data-name="Group 158285" xmlns="http://www.w3.org/2000/svg" xmlns:xlink="http://www.w3.org/1999/xlink" width="63.484" height="71.303" viewBox="0 0 63.484 71.303">
  <defs>
    <clipPath id="clip-path">
      <rect id="Rectangle_14147" data-name="Rectangle 14147" width="63.484" height="71.303" fill="#06b0e3"/>
    </clipPath>
  </defs>
  <g id="Group_158284" data-name="Group 158284" transform="translate(0 0)" clip-path="url(#clip-path)">
    <path id="Path_63090" data-name="Path 63090" d="M49.118,36.145a10.031,10.031,0,0,0-5.235-2.77V53.138a10.069,10.069,0,0,0,5.235-16.993" transform="translate(-9.572 -7.28)" fill="#06b0e3" fill-rule="evenodd"/>
    <path id="Path_63091" data-name="Path 63091" d="M43.879,23.411V5.129h4.856c1.029,4.246,1.509,7.547,5.895,10.088s7.5,1.295,11.694.061l6.731,11.658c-3.155,3.009-5.8,5.095-5.8,10.155s2.642,7.147,5.8,10.155L66.324,58.9c-4.209-1.237-7.3-2.477-11.694.061-4.382,2.532-4.869,5.852-5.895,10.088H43.879V50.775a13.811,13.811,0,0,0,0-27.365Z" transform="translate(-9.571 -1.119)" fill="#ffce00" fill-rule="evenodd"/>
    <path id="Path_63092" data-name="Path 63092" d="M30.557,0,0,8.854V34.677C0,56.96,16.389,63.814,30.557,71.3Z" transform="translate(0 0)" fill="#06b0e3" fill-rule="evenodd"/>
  </g>
</svg>
