<svg xmlns="http://www.w3.org/2000/svg" width="98.308" height="98.306" viewBox="0 0 98.308 98.306">
  <g id="Group_158323" data-name="Group 158323" transform="translate(-3099 -6480.689)">
    <rect id="Rectangle_10128" data-name="Rectangle 10128" width="98.171" height="98.173" transform="translate(3099 6578.86) rotate(-89.921)" fill="#48783e"/>
    <path id="Path_62694" data-name="Path 62694" d="M76.237,29.495a45.173,45.173,0,0,0-72.5-.1c-.112.155-.2.29-.286.406.077.116.174.251.286.41a45.175,45.175,0,0,0,72.5.1c.116-.158.209-.294.282-.413-.073-.112-.166-.247-.282-.406M27.8,20.423c.193-.29.854-1.113.931-1.217a1.142,1.142,0,0,1,.738-.3c.236-.046.545.085.58.259a2.073,2.073,0,0,1-.2.97,2.537,2.537,0,0,1-1.619.726c-.355-.054-.495-.332-.425-.437m-.784,1.553a.863.863,0,0,0,.077-.093,2.049,2.049,0,0,1,1.2-.437c.382-.066.889.127.947.379s-.95.711-1.136.885c-.529.483-1.352,1.468-1.835,1.572a.57.57,0,0,1-.394-.043,15.14,15.14,0,0,1,1.14-2.264m8.164,16.81a4.319,4.319,0,0,1-.939,1.947,3.148,3.148,0,0,1-2.079.8c-.692-.054-.788-1.9-.788-2.855,0-.328-.464.645-.7-1.337-.155-1.267-.97.135-1.028-.711s-.464-.676-.889-1.205-.954.05-1.553.317-.348.4-1.186.135l-.054-.023a15.167,15.167,0,0,1-1.19-5.934c0-.514.031-1.02.077-1.518a.927.927,0,0,1,.1-.143c.807-.954.788-1.175.788-1.175l.892-.309a14.785,14.785,0,0,1,2.5.626c.881.332,2.272,1.086,3.083.757.587-.243,1.043-.56.989-1.051-.066-.61-.545-.753-1.128-.344-.216.151-.672-.92-1.032-.865s.44,1.26.139,1.31-.92-1.26-1.024-1.472-.576-.738-1-.336c-.9.854-2.361.8-2.654,1.016-.892.668-1.128-.22-1.109-.761.039-.124.073-.247.112-.367a1.835,1.835,0,0,1,1.7-.189c.39.263.676-.066.831-.224a.552.552,0,0,0,0-.618c-.1-.216.2-.367.4-.425a10.64,10.64,0,0,0,1.155-.684,3.786,3.786,0,0,1,2.314-.012,1.223,1.223,0,0,0,1.522-.305,4.151,4.151,0,0,1,1.1-.92c.22-.1-.541-.815-1.171-.039s-.954.842-1.248.842-2.055-.44-2.272-1,.549-.97,1.2-1.287a15.669,15.669,0,0,1,2.882-.4c.923-.2,2.1-.665,2.7-.259s-2.484,1.1-1.476,1.642c.363.2,1.99-.931,2.546-1.221,1.31-.676-1.271-.9-.935-2.276.382-1.553-3.164-.958-4.93-.827a15.237,15.237,0,0,1,23.015,9.307,2.41,2.41,0,0,1-.077.707,1,1,0,0,1-1.785.135c-.155-.224-.807-.842-.788.212s1.028,1.167.054,1.8a3.8,3.8,0,0,1-1.6.637,2.064,2.064,0,0,0-.78,1.827c.108.583,1.5,2.175.464,2.109a5.978,5.978,0,0,1-2.361-2.067c-.317-.842-.661-1.665-.908-2.3a.908.908,0,0,0-1.433-.425c-.541.371.151.742-.24,1.538s-.668,1.5-1.244.842c-1.484-1.708-3.647-.869-3.983-2.766-.182-1.028-1.066-.931-1.8-1.515s-1.159-.9-1.283-.475c-.112.367,2.322,2.3,2.5,2.8.259.734-.73,1.383-1.457,1.557s-1.039-.41-1.746-1.151-1.02-1.263-1.07-.688A3.347,3.347,0,0,0,36.686,31.7c.614.394,1.306.568,1.1,1.205s0,.274-.7.958a1.859,1.859,0,0,0-.777,1.855c.05.95-.2,1-.348,1.8s-.491.1-.792,1.267m16.358-6.054c.51-.042,1.279.668.977.939a1.356,1.356,0,0,1-1.449-.131c-.386-.3.24-.792.471-.807m-.649-.471c-.162-.062-.309-.216-.433-.591a.343.343,0,0,1,.5-.437,1.476,1.476,0,0,1,.719.873c0,.251-.614.22-.784.155m-6.723-.035a1.385,1.385,0,0,1-1.46-.135c-.382-.3.247-.792.475-.811.51-.043,1.283.676.985.947m-6.232,3.017c-.209.344-.784,2.905-1.171,2.6s.162-2.971.27-3.172c.607-1.1,1.909-1.051.9.568m2.059,9.937a15.031,15.031,0,0,1-4.281-.622.625.625,0,0,1-.185-.746A3.4,3.4,0,0,1,38.514,42c2.473-.236,5.718,1.611,6.236,1.317s1.565-1.657,3.1-1.6a2.413,2.413,0,0,1,1.391.348,15.186,15.186,0,0,1-9.245,3.11M50.75,40.757a2.628,2.628,0,0,1-.479-.178c-.831-.421-.73.251-1.144.1s.464-1.1-.765-.3-.892-.124-1.426-1.48a2.77,2.77,0,0,1,1.584-3.257,19.922,19.922,0,0,1,2.766-.726c1.831-.456,2.222-1.542,2.554-.881l.174.355a2.354,2.354,0,0,1,.236.993,15.268,15.268,0,0,1-3.5,5.37m4.184-7.688c-.406-.112-2.117-2.48-.761-4.034.224-.255-.452-1.012-.267-1.024a1.236,1.236,0,0,1,1.325,1.066c.015.29.027.583.027.881a15.553,15.553,0,0,1-.325,3.11" transform="translate(3108.885 6512.842)" fill="#fff"/>
    <path id="Path_62695" data-name="Path 62695" d="M7.456,2.075l-.027,19.9-3.346,0L4.1,6.738H4.075L1.722,9.172H1.691l.008-3.5,3.083-3.6Z" transform="translate(3103.843 6486.621)" fill="#fff"/>
    <path id="Path_62696" data-name="Path 62696" d="M12.925,6.569l0,1.731a3.18,3.18,0,0,1-2.291,3.226,3.064,3.064,0,0,1,2.461,3.381l0,2.936c0,2.759-1.476,4.547-4.853,4.544-3.4-.008-4.605-1.947-4.6-4.969V14.806l3.056,0,0,2.847c0,1.175.41,1.936,1.557,1.939,1.024,0,1.491-.73,1.5-1.789l0-3.288c0-1.059-.467-1.615-1.638-1.615l-1.41,0,0-2.554H7.96c1.086,0,1.789-.552,1.789-1.611l0-2.144c0-1.086-.379-1.789-1.433-1.793s-1.437.7-1.441,1.936l0,2.028L3.822,8.756V7c0-2.936,1.213-4.992,4.675-4.984,3.083,0,4.431,1.739,4.428,4.555" transform="translate(3109.403 6486.458)" fill="#fff"/>
    <path id="Path_62697" data-name="Path 62697" d="M7.84,8.3l.008-4.026c0-1.3.614-2.249,2.09-2.245,1.545,0,1.974.862,1.97,2.09V5.1H10.629l0-1.093c0-.518-.17-.811-.676-.811s-.711.355-.711.858L9.239,8.522c0,.506.209.862.711.862s.676-.317.676-.807l0-1.538,1.275,0V8.479c0,1.19-.495,2.075-1.982,2.071A1.965,1.965,0,0,1,7.84,8.3" transform="translate(3121.45 6486.506)" fill="#fff"/>
    <path id="Path_62698" data-name="Path 62698" d="M9.1,2.058l-.012,8.326h3.072V9.24H10.49L10.5,2.058Z" transform="translate(3125.021 6486.583)" fill="#fff"/>
    <rect id="Rectangle_10129" data-name="Rectangle 10129" width="1.401" height="8.324" transform="translate(3137.822 6488.645)" fill="#fff"/>
    <path id="Path_62699" data-name="Path 62699" d="M14.482,4.988h-.035l-.954,5.4h-.649L11.8,4.984h-.023l-.008,5.4H10.619l.012-8.326,1.634,0,.9,4.69h.008L14,2.063l1.77,0-.012,8.326-1.279,0Z" transform="translate(3129.406 6486.587)" fill="#fff"/>
    <path id="Path_62700" data-name="Path 62700" d="M12.1,10.384l1.58-8.322,1.6,0,1.569,8.326H15.407L15.156,8.87l-1.487,0-.247,1.522Zm1.758-2.635,1.117,0-.549-3.342H14.41Z" transform="translate(3133.637 6486.595)" fill="#fff"/>
    <path id="Path_62701" data-name="Path 62701" d="M13.277,3.2l1.155,0-.012,7.178,1.41,0,.012-7.182,1.155,0V2.067l-3.721,0Z" transform="translate(3137.019 6486.599)" fill="#fff"/>
    <path id="Path_62702" data-name="Path 62702" d="M14.406,10.39l3.338,0V9.255l-1.936,0,0-2.531H17.2V5.592l-1.387,0,0-2.38h1.94V2.068l-3.338,0Z" transform="translate(3140.251 6486.602)" fill="#fff"/>
    <path id="Path_62703" data-name="Path 62703" d="M7.778,13.4l1.58-8.322h1.6L12.526,13.4H11.089l-.251-1.522-1.487,0L9.1,13.4Zm1.758-2.639,1.117,0L10.1,7.42h-.012Z" transform="translate(3121.273 6495.223)" fill="#fff"/>
    <path id="Path_62704" data-name="Path 62704" d="M9.109,11.322,9.117,7.3c0-1.3.614-2.249,2.09-2.245,1.545,0,1.974.862,1.97,2.09v.981H11.9l0-1.093c0-.518-.17-.811-.676-.811s-.711.355-.711.858l-.008,4.466c0,.506.209.862.711.862s.676-.317.676-.807l0-1.534h1.275V11.5c0,1.19-.495,2.075-1.982,2.071a1.965,1.965,0,0,1-2.082-2.249" transform="translate(3125.084 6495.154)" fill="#fff"/>
    <path id="Path_62705" data-name="Path 62705" d="M10.286,6.217l1.159,0L11.43,13.4l1.41,0,.012-7.178h1.159V5.081l-3.721,0Z" transform="translate(3128.455 6495.23)" fill="#fff"/>
    <path id="Path_62706" data-name="Path 62706" d="M11.415,13.4l1.4,0,.008-8.326-1.4,0Z" transform="translate(3131.687 6495.23)" fill="#fff"/>
    <path id="Path_62707" data-name="Path 62707" d="M11.988,11.326,12,7.3a1.979,1.979,0,0,1,2.113-2.245A1.984,1.984,0,0,1,16.23,7.3l0,4.03A1.991,1.991,0,0,1,14.1,13.574a1.986,1.986,0,0,1-2.109-2.249m2.836.224.008-4.47c0-.5-.22-.858-.726-.858-.491,0-.711.355-.711.858l-.008,4.466c0,.506.22.862.711.862.506,0,.726-.355.726-.858" transform="translate(3133.328 6495.166)" fill="#fff"/>
    <path id="Path_62708" data-name="Path 62708" d="M14.475,8.176,14.468,13.4H13.289L13.3,5.082h1.375l1.5,4.779.008-4.775h1.167l-.012,8.322H16.113Z" transform="translate(3137.054 6495.242)" fill="#fff"/>
    <rect id="Rectangle_10130" data-name="Rectangle 10130" width="98.308" height="98.304" transform="translate(3099 6480.69)" fill="none"/>
  </g>
</svg>
