<svg xmlns="http://www.w3.org/2000/svg" width="98.306" height="98.306" viewBox="0 0 98.306 98.306">
  <g id="Group_158322" data-name="Group 158322" transform="translate(-3669 -6480.689)">
    <rect id="Rectangle_10131" data-name="Rectangle 10131" width="98.306" height="98.306" transform="translate(3669 6480.689)" fill="#cb8d2a"/>
    <path id="Path_62709" data-name="Path 62709" d="M60.982,15.605a16.22,16.22,0,0,0-12.255-3.014l-.247.058c-2.442.576-6.325,1.534-10.868,7.171l-.077.1-.058.07a.385.385,0,0,0-.027.41l.108.174c.572.95,1.287,2.183,1.9,3.315l.015.031a.4.4,0,0,0,.348.216.367.367,0,0,0,.267-.112,1.218,1.218,0,0,0,.085-.112c4.034-5.579,7.206-6.352,9.35-6.854l.255-.062a11.75,11.75,0,0,1,8.4,2.16c2.388,1.885,3.6,4.884,3.6,8.909,0,6.754-3.284,9.392-6.039,10.42a11.243,11.243,0,0,1-8.4-.556l-.185-.085c-2.345-1.02-5.842-3.137-9.141-9.763C31.364,14.724,25.8,13.465,22.122,12.63l-.2-.042a15.887,15.887,0,0,0-12.07,3C7.467,17.5,4.62,21.2,4.62,28.031c0,4.161.854,6.912,3.052,9.8.479.657,5.405,6.985,14.925,5.158a14.3,14.3,0,0,0,5.857-2.72l2.094,1.889a.346.346,0,0,0,.483-.023.319.319,0,0,0,.081-.228v-.027l1.511-9.3v-.1a.326.326,0,0,0-.108-.247.314.314,0,0,0-.224-.085l-.062,0-.1.012-8.906,2.5-.162.023a.338.338,0,0,0-.143.583l.1.1,1.994,1.8a9.271,9.271,0,0,1-3.269,1.383c-6.885,1.314-10.289-3.2-10.42-3.377l-.046-.066c-1.6-2.1-2.14-3.887-2.14-7.078,0-4.037,1.19-7.036,3.535-8.906A11.415,11.415,0,0,1,20.921,17l.2.046c3.017.684,7.148,1.615,12.839,13.047,2.956,5.935,6.661,9.817,11.317,11.865a16.5,16.5,0,0,0,7.1,1.642,14.13,14.13,0,0,0,4.942-.877c2.7-1,8.983-4.451,8.983-14.659,0-6.827-2.89-10.54-5.316-12.456" transform="translate(3682.23 6516.1)" fill="#fff"/>
    <path id="Path_62710" data-name="Path 62710" d="M60.535,15.619a16.175,16.175,0,0,0-12.143-2.956l-.243.054c-2.422.568-6.267,1.5-10.768,7.039a.941.941,0,0,0-.077.1l-.058.066a.361.361,0,0,0-.023.4l.1.17c.564.939,1.275,2.14,1.882,3.253l.015.035a.388.388,0,0,0,.344.209.355.355,0,0,0,.263-.108.75.75,0,0,0,.081-.112c4-5.475,7.14-6.232,9.265-6.727l.255-.062A11.745,11.745,0,0,1,57.757,19.1c2.365,1.847,3.562,4.787,3.562,8.739,0,6.63-3.253,9.226-5.985,10.231a11.243,11.243,0,0,1-8.314-.541l-.185-.089c-2.322-1-5.788-3.079-9.056-9.582C31.191,14.754,25.681,13.517,22.034,12.7l-.193-.046A15.872,15.872,0,0,0,9.883,15.6c-2.368,1.87-5.189,5.51-5.189,12.217,0,4.084.846,6.781,3.025,9.617.475.645,5.355,6.858,14.786,5.065a14.244,14.244,0,0,0,5.8-2.67l2.075,1.855a.345.345,0,0,0,.479-.023.34.34,0,0,0,.081-.224v-.027l1.5-9.126,0-.1a.335.335,0,0,0-.112-.243.305.305,0,0,0-.22-.085l-.062.008-.1.012-8.824,2.446-.158.027a.294.294,0,0,0-.166.1.326.326,0,0,0,.023.475l.1.093,1.974,1.77a9.23,9.23,0,0,1-3.238,1.36C14.84,39.431,11.471,35,11.343,34.833l-.046-.066C9.709,32.7,9.176,30.95,9.176,27.82c0-3.964,1.178-6.908,3.5-8.747a11.363,11.363,0,0,1,8.172-2.086l.2.043c2.987.668,7.082,1.588,12.719,12.812,2.929,5.822,6.6,9.632,11.212,11.645A16.433,16.433,0,0,0,52,43.1a14.113,14.113,0,0,0,4.9-.858c2.674-.993,8.9-4.37,8.9-14.4,0-6.7-2.863-10.347-5.266-12.224" transform="translate(3682.442 6516.313)" fill="none" stroke="#fff" stroke-miterlimit="10" stroke-width="0.316"/>
    <path id="Path_62711" data-name="Path 62711" d="M4.257,6.762h.031V22H7.633V2.091H4.96L1.877,5.7V9.2h.031Z" transform="translate(3674.374 6486.677)" fill="#fff"/>
    <path id="Path_62712" data-name="Path 62712" d="M3.926,6.378V8.785H6.978v-2.5c0-1.2.591-1.557,1.294-1.557.649,0,1.205.263,1.205,1.5V7.873a3.95,3.95,0,0,1-1.236,3.439l-1.878,2c-1.82,1.94-2.5,3.23-2.5,5.2v3.67h8.693V19.448H7.067v-.939a3.81,3.81,0,0,1,1.41-3.056l2.144-2.264A6.255,6.255,0,0,0,12.739,8.17V6.231c0-2.847-1.379-4.2-4.377-4.2-2.94,0-4.435,1.557-4.435,4.347" transform="translate(3680.076 6486.505)" fill="#fff"/>
    <path id="Path_62713" data-name="Path 62713" d="M9.551,6.593v3.821h-1.4V2.088h2.036c1.414,0,1.928.7,1.928,1.866v1.07c0,.9-.321,1.422-1.117,1.607l1.337,3.782H10.864Zm0-3.361V5.82h.467a.6.6,0,0,0,.684-.688V3.908c0-.456-.2-.676-.684-.676Z" transform="translate(3692.344 6486.668)" fill="#fff"/>
    <path id="Path_62714" data-name="Path 62714" d="M9.33,2.089v8.322h3.342V9.271h-1.94V6.74h1.387V5.612H10.732V3.228h1.94V2.089Z" transform="translate(3695.717 6486.67)" fill="#fff"/>
    <path id="Path_62715" data-name="Path 62715" d="M10.309,8.693V7.576h1.3v1.14c0,.467.209.738.688.738.44,0,.637-.294.637-.738V8.4a1.506,1.506,0,0,0-.626-1.178L11.487,6.4a2.8,2.8,0,0,1-1.167-2.222V3.894a1.739,1.739,0,0,1,1.967-1.831c1.4,0,1.951.688,1.951,1.893v.672H12.959V3.906c0-.479-.22-.715-.661-.715a.616.616,0,0,0-.665.688v.174c0,.467.259.738.665,1.128l.9.885a2.793,2.793,0,0,1,1.128,2.16v.406a1.8,1.8,0,0,1-2.036,1.951,1.733,1.733,0,0,1-1.978-1.889" transform="translate(3698.521 6486.597)" fill="#fff"/>
    <path id="Path_62716" data-name="Path 62716" d="M11.494,2.088h2.075c1.414,0,1.928.7,1.928,1.866V5.712c0,1.163-.514,1.878-1.928,1.878h-.676v2.824h-1.4Zm1.4,1.144V6.508h.518A.6.6,0,0,0,14.1,5.82V3.908c0-.456-.209-.676-.688-.676Z" transform="translate(3701.914 6486.668)" fill="#fff"/>
    <path id="Path_62717" data-name="Path 62717" d="M12.672,8.338V4.308a1.981,1.981,0,0,1,2.113-2.245A1.986,1.986,0,0,1,16.91,4.308v4.03a1.991,1.991,0,0,1-2.125,2.245,1.986,1.986,0,0,1-2.113-2.245m2.836.22V4.088c0-.5-.22-.858-.722-.858s-.715.355-.715.858v4.47c0,.5.224.858.715.858s.722-.355.722-.858" transform="translate(3705.288 6486.597)" fill="#fff"/>
    <path id="Path_62718" data-name="Path 62718" d="M15.109,5.183V10.41H13.931V2.088h1.375l1.511,4.775V2.088H17.98V10.41H16.755Z" transform="translate(3708.892 6486.669)" fill="#fff"/>
    <path id="Path_62719" data-name="Path 62719" d="M15.122,8.693V7.576h1.3v1.14c0,.467.209.738.688.738.44,0,.637-.294.637-.738V8.4a1.506,1.506,0,0,0-.626-1.178L16.3,6.4a2.8,2.8,0,0,1-1.167-2.222V3.894A1.739,1.739,0,0,1,17.1,2.063c1.4,0,1.951.688,1.951,1.893v.672H17.772V3.906c0-.479-.22-.715-.661-.715a.616.616,0,0,0-.665.688v.174c0,.467.259.738.665,1.128l.9.885a2.793,2.793,0,0,1,1.128,2.16v.406A1.8,1.8,0,0,1,17.1,10.582a1.733,1.733,0,0,1-1.978-1.889" transform="translate(3712.303 6486.597)" fill="#fff"/>
    <rect id="Rectangle_10132" data-name="Rectangle 10132" width="1.399" height="8.322" transform="translate(3732.004 6488.757)" fill="#fff"/>
    <path id="Path_62720" data-name="Path 62720" d="M16.834,2.089h2.025c1.4,0,1.866.649,1.866,1.827v.85a1.213,1.213,0,0,1-.835,1.325,1.263,1.263,0,0,1,1.047,1.383V8.584c0,1.178-.529,1.827-1.928,1.827H16.834Zm1.4,3.512h.491a.593.593,0,0,0,.665-.68V3.9a.589.589,0,0,0-.676-.676h-.479Zm0,1.066v2.6h.614a.6.6,0,0,0,.688-.676V7.344c0-.444-.209-.676-.7-.676Z" transform="translate(3717.206 6486.671)" fill="#fff"/>
    <path id="Path_62721" data-name="Path 62721" d="M18.032,2.089v8.322H21.1V9.271H19.431V2.089Z" transform="translate(3720.636 6486.67)" fill="#fff"/>
    <path id="Path_62722" data-name="Path 62722" d="M18.946,2.089v8.322h3.342V9.271H20.345V6.74h1.391V5.612H20.345V3.228h1.943V2.089Z" transform="translate(3723.255 6486.67)" fill="#fff"/>
    <path id="Path_62723" data-name="Path 62723" d="M8.152,11.355V7.329A1.965,1.965,0,0,1,10.238,5.08c1.549,0,1.978.862,1.978,2.09v.981H10.938V7.058c0-.518-.17-.811-.672-.811s-.715.355-.715.862v4.466c0,.5.209.862.715.862s.672-.321.672-.811V10.091h1.279v1.437c0,1.19-.491,2.071-1.978,2.071a1.967,1.967,0,0,1-2.086-2.245" transform="translate(3692.344 6495.237)" fill="#fff"/>
    <path id="Path_62724" data-name="Path 62724" d="M9.355,11.356V7.326a1.981,1.981,0,0,1,2.113-2.245,1.986,1.986,0,0,1,2.125,2.245v4.03A1.991,1.991,0,0,1,11.468,13.6a1.986,1.986,0,0,1-2.113-2.245m2.836.22V7.106c0-.5-.22-.858-.722-.858s-.715.355-.715.858v4.47c0,.5.224.858.715.858s.722-.355.722-.858" transform="translate(3695.789 6495.239)" fill="#fff"/>
    <path id="Path_62725" data-name="Path 62725" d="M11.792,8.2v5.227H10.614V5.106h1.375L13.5,9.881V5.106h1.163v8.322H13.438Z" transform="translate(3699.394 6495.311)" fill="#fff"/>
    <path id="Path_62726" data-name="Path 62726" d="M11.805,11.711V10.594h1.3v1.14c0,.467.209.738.688.738.44,0,.637-.294.637-.738v-.317a1.506,1.506,0,0,0-.626-1.178l-.823-.823a2.8,2.8,0,0,1-1.167-2.222V6.912a1.739,1.739,0,0,1,1.967-1.831c1.4,0,1.951.688,1.951,1.893v.672H14.455V6.92c0-.475-.22-.711-.661-.711a.614.614,0,0,0-.665.688v.174c0,.467.259.734.665,1.128l.9.885a2.793,2.793,0,0,1,1.128,2.16v.406A1.8,1.8,0,0,1,13.783,13.6a1.733,1.733,0,0,1-1.978-1.889" transform="translate(3702.805 6495.239)" fill="#fff"/>
    <path id="Path_62727" data-name="Path 62727" d="M17.055,5.106v6.3c0,1.29-.552,2.125-1.978,2.125A1.878,1.878,0,0,1,12.99,11.4v-6.3h1.4v6.433c0,.491.2.823.688.823s.688-.332.688-.823V5.106Z" transform="translate(3706.198 6495.311)" fill="#fff"/>
    <path id="Path_62728" data-name="Path 62728" d="M18.056,8.03h-.035l-.947,5.4h-.649l-1.043-5.4h-.027v5.4H14.2V5.105h1.63L16.742,9.8h.012l.811-4.694h1.77v8.326H18.056Z" transform="translate(3709.675 6495.309)" fill="#fff"/>
    <path id="Path_62729" data-name="Path 62729" d="M15.693,5.106h2.075c1.414,0,1.928.7,1.928,1.866V8.73c0,1.167-.514,1.878-1.928,1.878h-.676v2.824h-1.4Zm1.4,1.144V9.526h.518a.6.6,0,0,0,.688-.688V6.926c0-.456-.209-.676-.688-.676Z" transform="translate(3713.939 6495.311)" fill="#fff"/>
    <path id="Path_62730" data-name="Path 62730" d="M16.815,5.106v1.14h1.151v7.186h1.414V6.246h1.151V5.106Z" transform="translate(3717.152 6495.312)" fill="#fff"/>
    <rect id="Rectangle_10133" data-name="Rectangle 10133" width="1.399" height="8.326" transform="translate(3738.162 6500.417)" fill="#fff"/>
    <path id="Path_62731" data-name="Path 62731" d="M18.429,11.356V7.326a1.981,1.981,0,0,1,2.113-2.245,1.983,1.983,0,0,1,2.121,2.245v4.03A1.988,1.988,0,0,1,20.542,13.6a1.986,1.986,0,0,1-2.113-2.245m2.836.22V7.106c0-.5-.22-.858-.722-.858s-.715.355-.715.858v4.47c0,.5.224.858.715.858s.722-.355.722-.858" transform="translate(3721.773 6495.239)" fill="#fff"/>
    <path id="Path_62732" data-name="Path 62732" d="M20.865,8.2v5.227H19.687V5.106h1.375l1.511,4.775V5.106h1.163v8.322H22.511Z" transform="translate(3725.375 6495.311)" fill="#fff"/>
    <path id="Path_62733" data-name="Path 62733" d="M8.1,16.45,9.664,8.124h1.6l1.584,8.326H11.41l-.259-1.522H9.664L9.42,16.45Zm1.754-2.639h1.117l-.552-3.338H10.4Z" transform="translate(3692.181 6503.954)" fill="#fff"/>
    <path id="Path_62734" data-name="Path 62734" d="M10.607,11.219V16.45H9.429V8.124H10.8L12.315,12.9V8.124h1.163V16.45H12.253Z" transform="translate(3696 6503.953)" fill="#fff"/>
    <path id="Path_62735" data-name="Path 62735" d="M14.827,10.361v3.852c0,1.279-.529,2.237-2.028,2.237h-2.16V8.124H12.8c1.5,0,2.028.947,2.028,2.237m-2.2,4.945c.576,0,.8-.344.8-.846V10.1a.731.731,0,0,0-.8-.835h-.591v6.039Z" transform="translate(3699.466 6503.954)" fill="#fff"/>
    <path id="Path_62736" data-name="Path 62736" d="M12.385,8.124H14.46c1.41,0,1.928.7,1.928,1.866v1.758c0,1.167-.518,1.878-1.928,1.878h-.676V16.45h-1.4Zm1.4,1.144v3.276H14.3a.6.6,0,0,0,.688-.688V9.944c0-.456-.209-.676-.688-.676Z" transform="translate(3704.466 6503.954)" fill="#fff"/>
    <path id="Path_62737" data-name="Path 62737" d="M14.963,12.629V16.45h-1.4V8.124H15.6c1.414,0,1.928.7,1.928,1.866v1.07c0,.9-.321,1.422-1.117,1.607l1.341,3.782H16.276Zm0-3.361v2.589h.467a.605.605,0,0,0,.688-.688V9.944c0-.456-.209-.676-.688-.676Z" transform="translate(3707.842 6503.954)" fill="#fff"/>
    <path id="Path_62738" data-name="Path 62738" d="M14.742,14.374V10.348A1.982,1.982,0,0,1,16.855,8.1a1.984,1.984,0,0,1,2.121,2.249v4.026a1.986,1.986,0,0,1-2.121,2.245,1.984,1.984,0,0,1-2.113-2.245m2.836.22V10.127c0-.506-.22-.862-.722-.862s-.715.355-.715.862v4.466c0,.5.224.862.715.862s.722-.359.722-.862" transform="translate(3711.215 6503.882)" fill="#fff"/>
    <path id="Path_62739" data-name="Path 62739" d="M20.188,10.361v3.852c0,1.279-.529,2.237-2.025,2.237H16V8.124h2.164c1.5,0,2.025.947,2.025,2.237m-2.2,4.945c.58,0,.8-.344.8-.846V10.1a.729.729,0,0,0-.8-.835H17.4v6.039Z" transform="translate(3714.818 6503.954)" fill="#fff"/>
    <path id="Path_62740" data-name="Path 62740" d="M21.31,8.124v6.3c0,1.29-.552,2.125-1.978,2.125a1.878,1.878,0,0,1-2.086-2.125v-6.3h1.4v6.433c0,.491.2.823.688.823s.688-.332.688-.823V8.124Z" transform="translate(3718.383 6503.954)" fill="#fff"/>
    <path id="Path_62741" data-name="Path 62741" d="M18.459,14.374V10.348A1.965,1.965,0,0,1,20.545,8.1c1.549,0,1.978.862,1.978,2.086v.985H21.245V10.077c0-.518-.17-.811-.672-.811s-.715.355-.715.862v4.466c0,.5.209.862.715.862s.672-.321.672-.811V13.11h1.279v1.437c0,1.19-.491,2.071-1.978,2.071a1.967,1.967,0,0,1-2.086-2.245" transform="translate(3721.859 6503.882)" fill="#fff"/>
    <path id="Path_62742" data-name="Path 62742" d="M19.59,8.124V9.268h1.155V16.45h1.41V9.268h1.151V8.124Z" transform="translate(3725.097 6503.953)" fill="#fff"/>
    <rect id="Rectangle_10134" data-name="Rectangle 10134" width="1.399" height="8.326" transform="translate(3748.884 6512.078)" fill="#fff"/>
    <path id="Path_62743" data-name="Path 62743" d="M21.2,14.374V10.348A1.982,1.982,0,0,1,23.316,8.1a1.987,1.987,0,0,1,2.125,2.249v4.026a1.989,1.989,0,0,1-2.125,2.245A1.984,1.984,0,0,1,21.2,14.374m2.836.22V10.127c0-.506-.22-.862-.722-.862s-.715.355-.715.862v4.466c0,.5.224.862.715.862s.722-.359.722-.862" transform="translate(3729.717 6503.882)" fill="#fff"/>
    <path id="Path_62744" data-name="Path 62744" d="M23.64,11.219V16.45H22.462V8.124h1.375L25.348,12.9V8.124h1.163V16.45H25.286Z" transform="translate(3733.322 6503.953)" fill="#fff"/>
    <rect id="Rectangle_10135" data-name="Rectangle 10135" width="98.306" height="98.306" transform="translate(3669 6480.689)" fill="none"/>
  </g>
</svg>
