<svg xmlns="http://www.w3.org/2000/svg" width="206.613" height="98.305" viewBox="0 0 206.613 98.305">
  <g id="Group_158325" data-name="Group 158325" transform="translate(-3669 -6740.5)">
    <rect id="Rectangle_10140" data-name="Rectangle 10140" width="98.305" height="98.305" transform="translate(3669 6740.5)" fill="#c22234"/>
    <path id="Path_62768" data-name="Path 62768" d="M24.4,21.226,6.69,11V44.083L24.4,49.426Z" transform="translate(3688.158 6771.997)" fill="#fff"/>
    <path id="Path_62769" data-name="Path 62769" d="M11.78,21.292V49.438L29.606,44.08V11Z" transform="translate(3702.732 6771.999)" fill="#fff"/>
    <path id="Path_62770" data-name="Path 62770" d="M19.429,41.228h-.522l2.1,7.325,2.09-7.325h0V11.792H18.907V41.228Z" transform="translate(3723.143 6774.266)" fill="#fff"/>
    <path id="Path_62771" data-name="Path 62771" d="M50.785,12.481l-1.9-1.5V45.043L29.2,51.4h-2L7.613,45.928V10.978l-1.9,1.5v34.78l21.4,5.923H29.3l19.743-6.267,1.746-.514Z" transform="translate(3685.358 6771.936)" fill="#fff"/>
    <path id="Path_62772" data-name="Path 62772" d="M23.1,12.337a2.1,2.1,0,1,0-4.2,0V14.6h4.2Z" transform="translate(3723.142 6769.82)" fill="#fff"/>
    <path id="Path_62773" data-name="Path 62773" d="M8.318,22H11.49V18.762h1.352V16.15H11.49V2.083H8.2L2.418,16.707v2.055h5.9ZM5.354,16.15l2.99-8.195h.035V16.15Z" transform="translate(3675.924 6746.465)" fill="#fff"/>
    <path id="Path_62774" data-name="Path 62774" d="M9.068,11.1v-.564a1.916,1.916,0,0,1-1.6-2.148V4.361A1.981,1.981,0,0,1,9.585,2.116a1.983,1.983,0,0,1,2.121,2.245V8.39a1.994,1.994,0,0,1-1.032,1.963l1.032.2v1.043Zm1.24-2.419V4.144c0-.506-.22-.862-.722-.862s-.715.355-.715.862v4.54c0,.491.224.862.715.862s.722-.371.722-.862" transform="translate(3690.396 6746.559)" fill="#fff"/>
    <path id="Path_62775" data-name="Path 62775" d="M12.838,2.142v6.3c0,1.29-.552,2.125-1.978,2.125A1.878,1.878,0,0,1,8.774,8.44v-6.3h1.4V8.575c0,.491.2.823.688.823s.688-.332.688-.823V2.142Z" transform="translate(3694.125 6746.634)" fill="#fff"/>
    <path id="Path_62776" data-name="Path 62776" d="M9.928,10.467,11.5,2.141h1.6l1.584,8.326H13.243l-.259-1.522H11.5l-.243,1.522Zm1.754-2.639H12.8L12.246,4.49h-.012Z" transform="translate(3697.429 6746.631)" fill="#fff"/>
    <path id="Path_62777" data-name="Path 62777" d="M11.306,2.142v8.326h3.072V9.324H12.7V2.142Z" transform="translate(3701.376 6746.633)" fill="#fff"/>
    <rect id="Rectangle_10141" data-name="Rectangle 10141" width="1.399" height="8.326" transform="translate(3716.391 6748.772)" fill="#fff"/>
    <path id="Path_62778" data-name="Path 62778" d="M12.8,2.142V3.285h1.155v7.182h1.41V3.285h1.151V2.142Z" transform="translate(3705.644 6746.633)" fill="#fff"/>
    <path id="Path_62779" data-name="Path 62779" d="M16.826,7.3v3.168h-1.4V7.3L13.867,2.142h1.464L16.173,5.3h.015l.846-3.157h1.341Z" transform="translate(3708.708 6746.632)" fill="#fff"/>
    <path id="Path_62780" data-name="Path 62780" d="M7.472,5.159v8.326H10.81V12.342H8.871V9.811h1.391V8.687H8.871V6.3h1.94V5.159Z" transform="translate(3690.397 6755.274)" fill="#fff"/>
    <path id="Path_62781" data-name="Path 62781" d="M12.714,7.4v3.852c0,1.275-.525,2.237-2.025,2.237H8.53V5.16h2.16c1.5,0,2.025.947,2.025,2.237m-2.2,4.942c.58,0,.8-.34.8-.846V7.138a.732.732,0,0,0-.8-.838H9.929v6.039Z" transform="translate(3693.426 6755.276)" fill="#fff"/>
    <path id="Path_62782" data-name="Path 62782" d="M13.883,5.16v6.3c0,1.29-.552,2.125-1.978,2.125a1.878,1.878,0,0,1-2.086-2.125V5.16h1.4v6.433c0,.491.2.823.688.823s.688-.332.688-.823V5.16Z" transform="translate(3697.117 6755.276)" fill="#fff"/>
    <path id="Path_62783" data-name="Path 62783" d="M11.078,11.408V7.383c0-1.3.61-2.249,2.086-2.249,1.549,0,1.978.862,1.978,2.086v.985H13.864V7.112c0-.518-.174-.811-.672-.811s-.719.355-.719.862v4.466c0,.5.209.862.719.862s.672-.321.672-.811V10.145h1.279v1.437c0,1.19-.495,2.071-1.978,2.071a1.965,1.965,0,0,1-2.086-2.245" transform="translate(3700.723 6755.202)" fill="#fff"/>
    <path id="Path_62784" data-name="Path 62784" d="M12.237,13.485l1.572-8.326H15.4l1.584,8.326H15.552l-.259-1.522H13.809l-.247,1.522Zm1.754-2.639h1.117l-.552-3.338h-.012Z" transform="translate(3704.042 6755.273)" fill="#fff"/>
    <path id="Path_62785" data-name="Path 62785" d="M13.416,5.159V6.3h1.155v7.182h1.41V6.3h1.155V5.159Z" transform="translate(3707.417 6755.274)" fill="#fff"/>
    <rect id="Rectangle_10142" data-name="Rectangle 10142" width="1.399" height="8.326" transform="translate(3725.203 6760.432)" fill="#fff"/>
    <path id="Path_62786" data-name="Path 62786" d="M15.119,11.409V7.38a1.981,1.981,0,0,1,2.113-2.245A1.986,1.986,0,0,1,19.357,7.38v4.03a1.991,1.991,0,0,1-2.125,2.245,1.986,1.986,0,0,1-2.113-2.245m2.836.22V7.16c0-.5-.22-.858-.722-.858s-.715.355-.715.858v4.47c0,.5.224.858.715.858s.722-.355.722-.858" transform="translate(3712.294 6755.205)" fill="#fff"/>
    <path id="Path_62787" data-name="Path 62787" d="M17.6,8.254v5.227H16.421V5.16H17.8l1.511,4.775V5.16H20.47v8.322H19.246Z" transform="translate(3716.023 6755.274)" fill="#fff"/>
    <rect id="Rectangle_10143" data-name="Rectangle 10143" width="98.305" height="98.305" transform="translate(3669 6740.5)" fill="none"/>
    <rect id="Rectangle_10144" data-name="Rectangle 10144" width="98.305" height="98.305" transform="translate(3777.309 6740.5)" fill="#8f1839"/>
    <path id="Path_62788" data-name="Path 62788" d="M25.438,12.737,15.4,22.283a1.671,1.671,0,0,0-.576,1.437V50.484a.576.576,0,0,0,.576.572h10.37a.572.572,0,0,0,.568-.572V12.976c0-.313-.243-.892-.9-.24" transform="translate(3819.761 6776.12)" fill="#fff"/>
    <path id="Path_62789" data-name="Path 62789" d="M17.953,15.959,7.912,25.505a1.672,1.672,0,0,0-.572,1.433V41.265a.572.572,0,0,0,.572.568H18.285a.569.569,0,0,0,.568-.568V16.2c0-.317-.247-.9-.9-.24" transform="translate(3798.327 6785.339)" fill="#fff"/>
    <path id="Path_62790" data-name="Path 62790" d="M53.941,9.739a.285.285,0,0,0-.27-.3l-.058,0-.081,0-7.685,1.735-.139.012a.331.331,0,0,0-.151.077.3.3,0,0,0,0,.417l.085.085L47.4,13.53,29.983,30.947,21.939,22.9a.229.229,0,0,0-.328,0l-2.183,2.183v0L6.531,37.982a.231.231,0,0,0,0,.325l2.187,2.187a.231.231,0,0,0,.325,0l12.734-12.73L27.615,33.6l.015.027,2.187,2.179a.224.224,0,0,0,.325,0l19.77-19.766,1.843,1.843a.29.29,0,0,0,.495-.189v-.027l1.688-7.843Z" transform="translate(3795.821 6767.538)" fill="#fff"/>
    <path id="Path_62791" data-name="Path 62791" d="M21.664,16.423l-4.857,4.9a.228.228,0,0,1-.313-.012l-4.4-4.486c-.8-.8-.981-.151-.981.166V40.049a.573.573,0,0,0,.568.576H22.055a.576.576,0,0,0,.572-.576V16.6c0-.317-.247-.9-.962-.182" transform="translate(3809.131 6786.551)" fill="#fff"/>
    <path id="Path_62792" data-name="Path 62792" d="M12.287,17.273V15.1c0-1.909-.676-3.288-2.233-3.995A3.5,3.5,0,0,0,11.99,7.637V6.818c0-3.114-1.615-4.787-4.7-4.787-3.052,0-4.64,1.673-4.64,4.787v.819A3.54,3.54,0,0,0,4.529,11.1c-1.553.707-2.2,2.086-2.2,3.995v2.175c0,3.025,1.437,5.139,4.961,5.139,3.554,0,5-2.113,5-5.139M5.793,6.613c0-1.205.413-1.912,1.5-1.912,1.117,0,1.53.707,1.53,1.912V7.962c0,1.2-.413,1.909-1.53,1.909-1.086,0-1.5-.707-1.5-1.909ZM8.938,17.624c0,1.205-.44,2.055-1.646,2.055-1.175,0-1.615-.85-1.615-2.055v-3.23c0-1.205.44-2.055,1.615-2.055,1.205,0,1.646.85,1.646,2.055Z" transform="translate(3783.984 6746.316)" fill="#fff"/>
    <path id="Path_62793" data-name="Path 62793" d="M10.952,4.325V8.177c0,1.279-.529,2.237-2.028,2.237H6.764V2.088h2.16c1.5,0,2.028.947,2.028,2.237M8.754,9.27c.576,0,.8-.344.8-.846V4.066a.731.731,0,0,0-.8-.835H8.166V9.27Z" transform="translate(3796.678 6746.479)" fill="#fff"/>
    <path id="Path_62794" data-name="Path 62794" d="M8.054,2.088v8.326h3.338V9.27H9.457V6.739H10.84V5.611H9.457V3.231h1.936V2.088Z" transform="translate(3800.372 6746.478)" fill="#fff"/>
    <path id="Path_62795" data-name="Path 62795" d="M9.08,8.336V4.311a1.965,1.965,0,0,1,2.086-2.249c1.549,0,1.978.862,1.978,2.09v.981H11.866V4.04c0-.518-.17-.811-.672-.811s-.715.355-.715.862V8.557c0,.5.209.862.715.862s.672-.321.672-.811V7.073h1.279V8.51c0,1.19-.491,2.071-1.978,2.071A1.967,1.967,0,0,1,9.08,8.336" transform="translate(3803.31 6746.405)" fill="#fff"/>
    <path id="Path_62796" data-name="Path 62796" d="M10.329,2.088v8.326h3.338V9.27H11.731V6.739h1.383V5.611H11.731V3.231h1.936V2.088Z" transform="translate(3806.885 6746.478)" fill="#fff"/>
    <path id="Path_62797" data-name="Path 62797" d="M12.565,5.182V10.41H11.387V2.088h1.375l1.507,4.775V2.088H15.44V10.41H14.211Z" transform="translate(3809.915 6746.478)" fill="#fff"/>
    <path id="Path_62798" data-name="Path 62798" d="M12.6,2.088V3.231h1.151v7.182h1.414V3.231h1.155V2.088Z" transform="translate(3813.39 6746.478)" fill="#fff"/>
    <path id="Path_62799" data-name="Path 62799" d="M17.443,5.267l-.784,5.142H15.345l-1.12-8.322h1.352l.653,5.278h.008l.7-5.278h1.14l.773,5.278h.015l.637-5.278h1.178L19.6,10.41H18.278l-.823-5.142Z" transform="translate(3818.042 6746.479)" fill="#fff"/>
    <path id="Path_62800" data-name="Path 62800" d="M16.02,8.336V4.307a1.981,1.981,0,0,1,2.113-2.245,1.986,1.986,0,0,1,2.125,2.245v4.03a1.991,1.991,0,0,1-2.125,2.245A1.986,1.986,0,0,1,16.02,8.336m2.836.22V4.087c0-.5-.22-.858-.722-.858s-.711.355-.711.858v4.47c0,.5.22.858.711.858s.722-.355.722-.858" transform="translate(3823.183 6746.405)" fill="#fff"/>
    <path id="Path_62801" data-name="Path 62801" d="M18.724,6.593V10.41h-1.4V2.088h2.04c1.414,0,1.928.7,1.928,1.866v1.07c0,.9-.321,1.422-1.117,1.607L21.51,10.41H20.038Zm0-3.361V5.82h.464a.6.6,0,0,0,.688-.688V3.908c0-.456-.2-.676-.688-.676Z" transform="translate(3826.911 6746.479)" fill="#fff"/>
    <path id="Path_62802" data-name="Path 62802" d="M19.947,6.361V10.41h-1.4V2.088h1.4V5.746l1.522-3.659h1.375L21.226,5.835,22.88,10.41H21.408Z" transform="translate(3830.413 6746.478)" fill="#fff"/>
    <path id="Path_62803" data-name="Path 62803" d="M20.292,10.41l1.569-8.322h1.6L25.04,10.41H23.6l-.255-1.522H21.861l-.243,1.522Zm1.754-2.639h1.117L22.61,4.433H22.6Z" transform="translate(3835.416 6746.479)" fill="#fff"/>
    <path id="Path_62804" data-name="Path 62804" d="M22.848,5.182V10.41H21.67V2.088h1.375l1.511,4.775V2.088h1.167V10.41H24.494Z" transform="translate(3839.363 6746.478)" fill="#fff"/>
    <path id="Path_62805" data-name="Path 62805" d="M27.113,4.325V8.177c0,1.279-.529,2.237-2.028,2.237h-2.16V2.088h2.16c1.5,0,2.028.947,2.028,2.237m-2.2,4.945c.576,0,.8-.344.8-.846V4.066a.731.731,0,0,0-.8-.835h-.591V9.27Z" transform="translate(3842.956 6746.479)" fill="#fff"/>
    <path id="Path_62806" data-name="Path 62806" d="M6.764,5.105v8.326H10.1V12.288H8.163V9.757H9.55V8.629H8.163V6.249H10.1V5.105Z" transform="translate(3796.679 6755.12)" fill="#fff"/>
    <path id="Path_62807" data-name="Path 62807" d="M7.79,11.354V7.329A1.966,1.966,0,0,1,9.88,5.08c1.545,0,1.974.862,1.974,2.09v.981H10.576V7.058c0-.518-.17-.811-.672-.811s-.711.355-.711.862v4.466c0,.5.2.862.711.862s.672-.321.672-.811V10.091h1.279v1.437c0,1.19-.491,2.071-1.974,2.071a1.968,1.968,0,0,1-2.09-2.245" transform="translate(3799.616 6755.047)" fill="#fff"/>
    <path id="Path_62808" data-name="Path 62808" d="M9.039,11.354V7.325A1.981,1.981,0,0,1,11.152,5.08a1.983,1.983,0,0,1,2.121,2.245v4.03A1.988,1.988,0,0,1,11.152,13.6a1.986,1.986,0,0,1-2.113-2.245m2.836.22V7.1c0-.5-.22-.858-.722-.858s-.711.355-.711.858v4.47c0,.5.216.858.711.858s.722-.355.722-.858" transform="translate(3803.192 6755.047)" fill="#fff"/>
    <path id="Path_62809" data-name="Path 62809" d="M11.52,8.2v5.227H10.341V5.105h1.375l1.507,4.775V5.105h1.171v8.322H13.166Z" transform="translate(3806.922 6755.12)" fill="#fff"/>
    <path id="Path_62810" data-name="Path 62810" d="M11.6,11.354V7.325A1.981,1.981,0,0,1,13.709,5.08a1.986,1.986,0,0,1,2.125,2.245v4.03A1.991,1.991,0,0,1,13.709,13.6,1.986,1.986,0,0,1,11.6,11.354m2.836.22V7.1c0-.5-.22-.858-.722-.858S13,6.6,13,7.1v4.47c0,.5.22.858.711.858s.722-.355.722-.858" transform="translate(3810.515 6755.047)" fill="#fff"/>
    <path id="Path_62811" data-name="Path 62811" d="M16.754,8.03H16.72l-.947,5.4H15.12l-1.043-5.4h-.023v5.4H12.9V5.1h1.634L15.441,9.8h.012L16.264,5.1h1.766v8.326H16.754Z" transform="translate(3814.244 6755.118)" fill="#fff"/>
    <rect id="Rectangle_10145" data-name="Rectangle 10145" width="1.402" height="8.326" transform="translate(3833.068 6760.224)" fill="#fff"/>
    <path id="Path_62812" data-name="Path 62812" d="M15,11.354V7.329A1.965,1.965,0,0,1,17.091,5.08c1.549,0,1.978.862,1.978,2.09v.981H17.791V7.058c0-.518-.17-.811-.672-.811s-.715.355-.715.862v4.466c0,.5.209.862.715.862s.672-.321.672-.811V10.091h1.279v1.437c0,1.19-.491,2.071-1.978,2.071A1.967,1.967,0,0,1,15,11.354" transform="translate(3820.276 6755.047)" fill="#fff"/>
    <path id="Path_62813" data-name="Path 62813" d="M18.911,9.059H20.9V13.5H19.893v-.908a1.256,1.256,0,0,1-1.337,1c-1.2,0-1.758-.954-1.758-2.245V7.329A1.974,1.974,0,0,1,18.9,5.08c1.545,0,2,.862,2,2.09V7.9H19.626V7.058c0-.518-.2-.811-.7-.811s-.722.355-.722.862v4.47c0,.5.209.858.688.858.452,0,.688-.259.688-.8V10.164h-.665Z" transform="translate(3825.411 6755.047)" fill="#fff"/>
    <path id="Path_62814" data-name="Path 62814" d="M19.467,9.61v3.821h-1.4V5.105H20.1c1.41,0,1.928.7,1.928,1.866v1.07c0,.9-.321,1.422-1.117,1.607l1.337,3.782H20.781Zm0-3.361V8.837h.464a.6.6,0,0,0,.688-.688V6.925c0-.456-.2-.676-.688-.676Z" transform="translate(3829.039 6755.119)" fill="#fff"/>
    <path id="Path_62815" data-name="Path 62815" d="M19.289,11.354V7.325A1.981,1.981,0,0,1,21.4,5.08a1.986,1.986,0,0,1,2.125,2.245v4.03A1.991,1.991,0,0,1,21.4,13.6a1.986,1.986,0,0,1-2.113-2.245m2.836.22V7.1c0-.5-.22-.858-.722-.858s-.711.355-.711.858v4.47c0,.5.22.858.711.858s.722-.355.722-.858" transform="translate(3832.544 6755.047)" fill="#fff"/>
    <path id="Path_62816" data-name="Path 62816" d="M23.727,8.285l-.784,5.142H21.629l-1.12-8.322h1.352l.653,5.278h.008l.7-5.278h1.14l.773,5.278h.015l.637-5.278h1.178l-1.082,8.322H24.561l-.823-5.142Z" transform="translate(3836.036 6755.12)" fill="#fff"/>
    <path id="Path_62817" data-name="Path 62817" d="M22.294,5.105V6.249h1.155v7.182h1.41V6.249h1.155V5.105Z" transform="translate(3841.149 6755.12)" fill="#fff"/>
    <rect id="Rectangle_10146" data-name="Rectangle 10146" width="98.305" height="98.305" transform="translate(3777.309 6740.5)" fill="none"/>
  </g>
</svg>
