<svg xmlns="http://www.w3.org/2000/svg" width="98.305" height="98.305" viewBox="0 0 98.305 98.305">
  <g id="Group_158324" data-name="Group 158324" transform="translate(-3099 -6740.5)">
    <rect id="Rectangle_10136" data-name="Rectangle 10136" width="98.305" height="98.305" transform="translate(3099 6740.5)" fill="#00add8"/>
    <path id="Path_62745" data-name="Path 62745" d="M44.376,10.4a.43.43,0,0,0-.325-.143H8.408A.41.41,0,0,0,8,10.733l5.992,36.218a.418.418,0,0,0,.41.352h7.348l.506,5.9-3.094,0,7.2,7.193,7.213-7.209H30.475l.5-5.888h7.479a.412.412,0,0,0,.41-.355l5.6-36.214a.419.419,0,0,0-.093-.336m-13.776,29a5.731,5.731,0,0,1-4.253,1.483,5.74,5.74,0,0,1-4.261-1.483c-2.666-2.67-1.715-5.988-.788-7.7.576-1.074,4.678-7.236,5.03-7.761v-.042l.019.019.015-.019v.042c.34.525,4.45,6.687,5.026,7.761.931,1.715,1.878,5.034-.788,7.7M41.907,18.015a4.439,4.439,0,0,0-3.369.2c-4.423,1.793-7.433,2.438-12.084.981-2.928-.916-5.671-2.84-8.913-1.669a18.348,18.348,0,0,1-6.583,1.491l-1.4-7.2H42.915Z" transform="translate(3121.876 6769.86)" fill="#fff"/>
    <path id="Path_62746" data-name="Path 62746" d="M7.448,22.366c3.535,0,4.91-1.932,4.91-5V14.446c0-3.245-1.286-4.879-3.686-4.879A2.839,2.839,0,0,0,5.93,11.174H5.9V6.909c0-1.2.379-2.048,1.576-2.048s1.553.7,1.553,1.928V8.107h3.037V7.052c0-2.921-.966-4.968-4.648-4.968-3.5,0-4.817,2.252-4.817,5.351v9.639c0,3.071,1.341,5.293,4.848,5.293M5.9,14.037c.058-1.109.525-1.812,1.576-1.812,1.14,0,1.58.7,1.58,1.986v3.45c0,1.256-.467,1.986-1.607,1.986-1.113,0-1.549-.757-1.549-1.986Z" transform="translate(3106.445 6746.467)" fill="#fff"/>
    <path id="Path_62747" data-name="Path 62747" d="M7.387,8.414V4.408A1.954,1.954,0,0,1,9.462,2.171c1.541,0,1.97.858,1.97,2.078v.977H10.161V4.141c0-.518-.17-.807-.672-.807s-.711.352-.711.854V8.634c0,.5.209.854.711.854s.672-.317.672-.8V7.155h1.271V8.584c0,1.186-.491,2.067-1.97,2.067A1.959,1.959,0,0,1,7.387,8.414" transform="translate(3120.151 6746.716)" fill="#fff"/>
    <path id="Path_62748" data-name="Path 62748" d="M8.628,2.2v8.283h3.056V9.344H10.023V2.2Z" transform="translate(3123.706 6746.79)" fill="#fff"/>
    <path id="Path_62749" data-name="Path 62749" d="M9.583,2.2v8.283h3.322V9.344H10.974V6.829h1.383V5.7H10.974V3.332h1.932V2.2Z" transform="translate(3126.44 6746.79)" fill="#fff"/>
    <path id="Path_62750" data-name="Path 62750" d="M10.579,10.48,12.14,2.2h1.592L15.3,10.48H13.878l-.259-1.514H12.14L11.9,10.48Zm1.746-2.627h1.113L12.885,4.53h-.012Z" transform="translate(3129.291 6746.791)" fill="#fff"/>
    <path id="Path_62751" data-name="Path 62751" d="M13.122,5.276v5.2H11.951V2.2h1.368l1.5,4.752V2.2h1.163V10.48H14.76Z" transform="translate(3133.22 6746.791)" fill="#fff"/>
    <path id="Path_62752" data-name="Path 62752" d="M16.68,5.361,15.9,10.48H14.59L13.481,2.2h1.341l.649,5.25h.012l.7-5.25h1.132l.773,5.25H18.1l.634-5.25H19.9l-1.07,8.283H17.511l-.819-5.119Z" transform="translate(3137.601 6746.791)" fill="#fff"/>
    <path id="Path_62753" data-name="Path 62753" d="M15.115,10.48,16.676,2.2h1.592L19.84,10.48H18.414l-.259-1.514h-1.48l-.243,1.514Zm1.746-2.627H17.97L17.421,4.53H17.41Z" transform="translate(3142.278 6746.791)" fill="#fff"/>
    <path id="Path_62754" data-name="Path 62754" d="M16.288,2.2V3.332h1.147v7.147h1.406V3.332h1.147V2.2Z" transform="translate(3145.638 6746.79)" fill="#fff"/>
    <path id="Path_62755" data-name="Path 62755" d="M17.413,2.2v8.283h3.319V9.344H18.8V6.829h1.379V5.7H18.8V3.332h1.928V2.2Z" transform="translate(3148.859 6746.79)" fill="#fff"/>
    <path id="Path_62756" data-name="Path 62756" d="M19.857,6.681v3.8H18.466V2.2h2.028c1.4,0,1.916.7,1.916,1.858V5.117c0,.892-.317,1.418-1.113,1.6l1.333,3.763H21.163Zm0-3.346V5.912h.464A.6.6,0,0,0,21,5.229V4.008c0-.456-.209-.672-.684-.672Z" transform="translate(3151.873 6746.788)" fill="#fff"/>
    <path id="Path_62757" data-name="Path 62757" d="M7.33,13.483,8.895,5.2h1.588l1.572,8.283H10.629l-.259-1.514H8.895l-.243,1.514Zm1.746-2.627h1.113L9.64,7.533H9.625Z" transform="translate(3119.988 6755.389)" fill="#fff"/>
    <path id="Path_62758" data-name="Path 62758" d="M9.873,8.279v5.2H8.7V5.2H10.07l1.5,4.752V5.2h1.163v8.283H11.511Z" transform="translate(3123.917 6755.388)" fill="#fff"/>
    <path id="Path_62759" data-name="Path 62759" d="M14.115,7.425v3.832c0,1.271-.525,2.225-2.017,2.225H9.95V5.2H12.1c1.491,0,2.017.939,2.017,2.225m-2.187,4.922c.572,0,.8-.34.8-.842V7.166a.729.729,0,0,0-.8-.831h-.587v6.011Z" transform="translate(3127.49 6755.389)" fill="#fff"/>
    <path id="Path_62760" data-name="Path 62760" d="M11.546,11.772V10.66H12.84V11.8c0,.467.209.734.684.734.44,0,.634-.294.634-.734v-.317a1.5,1.5,0,0,0-.618-1.174l-.823-.815a2.8,2.8,0,0,1-1.159-2.21V7a1.729,1.729,0,0,1,1.955-1.823c1.391,0,1.943.688,1.943,1.881v.672H14.185V7.009c0-.479-.22-.707-.661-.707a.611.611,0,0,0-.661.68v.174c0,.464.259.734.661,1.124l.892.877a2.786,2.786,0,0,1,1.124,2.152v.4a1.794,1.794,0,0,1-2.028,1.943,1.727,1.727,0,0,1-1.966-1.881" transform="translate(3132.059 6755.314)" fill="#fff"/>
    <path id="Path_62761" data-name="Path 62761" d="M12.681,13.483,14.246,5.2h1.588l1.572,8.283H15.98l-.259-1.514H14.246L14,13.483Zm1.746-2.627H15.54l-.552-3.322h-.012Z" transform="translate(3135.309 6755.389)" fill="#fff"/>
    <path id="Path_62762" data-name="Path 62762" d="M15.224,8.279v5.2H14.053V5.2h1.368l1.5,4.752V5.2h1.163v8.283H16.862Z" transform="translate(3139.238 6755.388)" fill="#fff"/>
    <rect id="Rectangle_10137" data-name="Rectangle 10137" width="1.395" height="8.283" transform="translate(3158.112 6760.589)" fill="#fff"/>
    <path id="Path_62763" data-name="Path 62763" d="M15.829,5.2V6.336h1.147v7.147h1.406V6.336H19.53V5.2Z" transform="translate(3144.324 6755.389)" fill="#fff"/>
    <path id="Path_62764" data-name="Path 62764" d="M16.74,13.483,18.3,5.2h1.592l1.572,8.283H20.039l-.259-1.514H18.3l-.243,1.514Zm1.746-2.627H19.6l-.552-3.322h-.012Z" transform="translate(3146.931 6755.389)" fill="#fff"/>
    <path id="Path_62765" data-name="Path 62765" d="M17.912,5.2V6.336h1.151v7.147h1.4V6.336h1.147V5.2Z" transform="translate(3150.287 6755.389)" fill="#fff"/>
    <rect id="Rectangle_10138" data-name="Rectangle 10138" width="1.391" height="8.283" transform="translate(3172.549 6760.589)" fill="#fff"/>
    <path id="Path_62766" data-name="Path 62766" d="M19.606,11.417V7.411a1.974,1.974,0,0,1,2.1-2.237,1.975,1.975,0,0,1,2.113,2.237v4.006a1.98,1.98,0,0,1-2.113,2.237,1.979,1.979,0,0,1-2.1-2.237m2.824.22V7.191c0-.5-.22-.854-.722-.854-.487,0-.707.355-.707.854v4.447c0,.5.22.854.707.854.5,0,.722-.352.722-.854" transform="translate(3155.137 6755.314)" fill="#fff"/>
    <path id="Path_62767" data-name="Path 62767" d="M22.074,8.279v5.2H20.9V5.2h1.364l1.5,4.752V5.2h1.159v8.283H23.712Z" transform="translate(3158.852 6755.388)" fill="#fff"/>
    <rect id="Rectangle_10139" data-name="Rectangle 10139" width="98.305" height="98.305" transform="translate(3099 6740.5)" fill="none"/>
  </g>
</svg>
