<svg xmlns="http://www.w3.org/2000/svg" width="109.921" height="81.772" viewBox="0 0 109.921 81.772">
  <g id="noun-employee-8005006" transform="translate(-13.84 -23.218)">
    <path id="Path_62684" data-name="Path 62684" d="M22.868,82.186H16.261a2.423,2.423,0,0,1-2.421-2.451c.03-2.558.072-6.5.072-8.706,0-4.437.417-14.139,3.357-21.2,2.624-6.309,7.156-10.6,13.8-10.6H45.809c6.649-.006,11.175,4.294,13.8,10.6.179.435.346.877.513,1.33-6.977.513-11.891,5.188-14.747,12.058-2.487,5.975-3.268,13.763-3.477,18.969H25.32V58.965a.916.916,0,0,0-.918-.918h-.608a.923.923,0,0,0-.918.918V82.186Z" transform="translate(0 8.43)" fill="#0aafe2" fill-rule="evenodd"/>
    <path id="Path_62685" data-name="Path 62685" d="M90.331,82.186H73.747c-.209-5.206-.99-12.994-3.477-18.969-2.862-6.87-7.77-11.545-14.747-12.058.161-.453.334-.894.513-1.33,2.624-6.309,7.156-10.6,13.8-10.6H84.576c6.649-.006,11.175,4.294,13.8,10.6,2.94,7.06,3.357,16.762,3.357,21.2,0,2.206.042,6.148.072,8.706a2.423,2.423,0,0,1-2.421,2.451H92.782V58.965a.916.916,0,0,0-.918-.918h-.608a.919.919,0,0,0-.918.918V82.186Z" transform="translate(21.95 8.43)" fill="#0aafe2" fill-rule="evenodd"/>
    <path id="Path_62686" data-name="Path 62686" d="M42.761,91.569H36.148a2.423,2.423,0,0,1-2.421-2.451c.03-2.558.072-6.5.072-8.706,0-4.437.417-14.139,3.357-21.2,2.624-6.309,7.156-10.6,13.8-10.6H65.7c6.649-.006,11.175,4.294,13.8,10.6,2.94,7.06,3.351,16.762,3.351,21.2,0,2.206.042,6.148.072,8.706A2.423,2.423,0,0,1,80.5,91.569H73.89V68.348a.916.916,0,0,0-.918-.918h-.6a.923.923,0,0,0-.918.918V91.593c-4.824.036-21.438.036-26.262,0V68.348a.919.919,0,0,0-.918-.918h-.6a.916.916,0,0,0-.918.918Z" transform="translate(10.472 13.371)" fill="#fbab1e" fill-rule="evenodd"/>
    <path id="Path_62687" data-name="Path 62687" d="M42.635,32.65A9.431,9.431,0,1,1,33.2,23.222a9.432,9.432,0,0,1,9.434,9.428" transform="translate(5.231 0.002)" fill="#0aafe2" fill-rule="evenodd"/>
    <path id="Path_62688" data-name="Path 62688" d="M62.53,42.035A9.437,9.437,0,1,1,53.1,32.6a9.437,9.437,0,0,1,9.434,9.434" transform="translate(15.701 4.941)" fill="#fbab1e" fill-rule="evenodd"/>
    <path id="Path_62689" data-name="Path 62689" d="M82.416,32.652a9.437,9.437,0,1,1-9.434-9.434,9.437,9.437,0,0,1,9.434,9.434" transform="translate(26.173 0)" fill="#0aafe2" fill-rule="evenodd"/>
  </g>
</svg>
