<svg xmlns="http://www.w3.org/2000/svg" width="85.257" height="81.772" viewBox="0 0 85.257 81.772">
  <g id="noun-outfall-25100" transform="translate(346.003 -259.083)">
    <g id="Group_157989" data-name="Group 157989" transform="translate(-345.855 307.743)">
      <path id="Path_62665" data-name="Path 62665" d="M-328.013,318.685a1.265,1.265,0,0,0,1.263-1.265,1.265,1.265,0,0,0-1.263-1.261,1.263,1.263,0,0,0-1.265,1.261,1.264,1.264,0,0,0,1.265,1.265" transform="translate(343.389 -316.159)" fill="#0aafe2"/>
      <path id="Path_62666" data-name="Path 62666" d="M-337.424,324.782a1.263,1.263,0,0,0,1.264-1.262,1.262,1.262,0,0,0-1.264-1.262,1.261,1.261,0,0,0-1.263,1.262,1.262,1.262,0,0,0,1.263,1.262" transform="translate(344.777 -317.058)" fill="#0aafe2"/>
      <path id="Path_62667" data-name="Path 62667" d="M-333.073,328.4a1.261,1.261,0,0,0,1.264-1.261,1.263,1.263,0,0,0-1.264-1.263,1.263,1.263,0,0,0-1.262,1.263,1.261,1.261,0,0,0,1.262,1.261" transform="translate(344.135 -317.592)" fill="#0aafe2"/>
      <path id="Path_62668" data-name="Path 62668" d="M-337.251,330.879a1.263,1.263,0,0,0,1.265-1.263,1.264,1.264,0,0,0-1.265-1.261,1.262,1.262,0,0,0-1.261,1.261,1.261,1.261,0,0,0,1.261,1.263" transform="translate(344.751 -317.957)" fill="#0aafe2"/>
      <path id="Path_62669" data-name="Path 62669" d="M-344.567,324.259a1.263,1.263,0,0,0,1.263-1.265,1.264,1.264,0,0,0-1.263-1.26,1.263,1.263,0,0,0-1.263,1.26,1.263,1.263,0,0,0,1.263,1.265" transform="translate(345.83 -316.981)" fill="#0aafe2"/>
      <path id="Path_62670" data-name="Path 62670" d="M-328.161,344.443a1.264,1.264,0,0,0,1.262-1.263,1.265,1.265,0,0,0-1.262-1.261,1.263,1.263,0,0,0-1.265,1.261,1.262,1.262,0,0,0,1.265,1.263" transform="translate(343.411 -319.958)" fill="#0aafe2"/>
      <path id="Path_62671" data-name="Path 62671" d="M-328.189,326.351a1.263,1.263,0,0,0,1.262-1.265,1.262,1.262,0,0,0-1.262-1.259,1.264,1.264,0,0,0-1.264,1.259,1.266,1.266,0,0,0,1.264,1.265" transform="translate(343.415 -317.29)" fill="#0aafe2"/>
      <path id="Path_62672" data-name="Path 62672" d="M-305.185,335.983a1.262,1.262,0,0,0,1.262-1.264,1.263,1.263,0,0,0-1.262-1.26,1.265,1.265,0,0,0-1.265,1.26,1.265,1.265,0,0,0,1.265,1.264" transform="translate(340.023 -318.71)" fill="#0aafe2"/>
      <path id="Path_62673" data-name="Path 62673" d="M-300.2,346.191a1.263,1.263,0,0,0,1.262-1.264,1.262,1.262,0,0,0-1.262-1.26,1.265,1.265,0,0,0-1.265,1.26,1.266,1.266,0,0,0,1.265,1.264" transform="translate(339.288 -320.215)" fill="#0aafe2"/>
      <path id="Path_62674" data-name="Path 62674" d="M-299.722,335.983a1.262,1.262,0,0,0,1.262-1.264,1.263,1.263,0,0,0-1.262-1.26,1.265,1.265,0,0,0-1.265,1.26,1.266,1.266,0,0,0,1.265,1.264" transform="translate(339.218 -318.71)" fill="#0aafe2"/>
      <path id="Path_62675" data-name="Path 62675" d="M-302.022,331.383a1.263,1.263,0,0,0,1.262-1.264,1.262,1.262,0,0,0-1.262-1.259,1.264,1.264,0,0,0-1.265,1.259,1.266,1.266,0,0,0,1.265,1.264" transform="translate(339.557 -318.032)" fill="#0aafe2"/>
      <path id="Path_62676" data-name="Path 62676" d="M-294.259,332.964A1.263,1.263,0,0,0-293,331.7a1.262,1.262,0,0,0-1.262-1.26,1.265,1.265,0,0,0-1.264,1.26,1.266,1.266,0,0,0,1.264,1.265" transform="translate(338.412 -318.265)" fill="#0aafe2"/>
      <path id="Path_62677" data-name="Path 62677" d="M-331.675,323.04a1.263,1.263,0,0,0,1.265-1.264,1.263,1.263,0,0,0-1.265-1.26,1.262,1.262,0,0,0-1.263,1.26,1.264,1.264,0,0,0,1.263,1.264" transform="translate(343.929 -316.802)" fill="#0aafe2"/>
      <path id="Path_62678" data-name="Path 62678" d="M-343.42,347.882a1.2,1.2,0,0,1-.4-.068,1.189,1.189,0,0,1-.725-1.517,7.02,7.02,0,0,1,3.154-3.8,5.309,5.309,0,0,1,4.351-.209,7.194,7.194,0,0,1,3.492,3.819,1.188,1.188,0,0,1-.7,1.529,1.187,1.187,0,0,1-1.53-.695,4.812,4.812,0,0,0-2.188-2.46,2.989,2.989,0,0,0-2.449.182,4.733,4.733,0,0,0-1.894,2.43,1.191,1.191,0,0,1-1.12.793Z" transform="translate(345.65 -319.957)" fill="#0aafe2"/>
    </g>
    <g id="Group_157991" data-name="Group 157991" transform="translate(-346.003 259.083)">
      <path id="Path_62679" data-name="Path 62679" d="M-270.605,345.235c-2.127,0-4.079-1.4-5.489-3.837-1.408,2.441-3.36,3.837-5.489,3.837s-4.08-1.4-5.49-3.837c-1.41,2.441-3.361,3.837-5.49,3.837a1.177,1.177,0,0,1-1.177-1.178,1.177,1.177,0,0,1,1.177-1.177c1.692,0,3.369-1.809,4.378-4.722a1.177,1.177,0,0,1,1.113-.793,1.179,1.179,0,0,1,1.113.793c1.008,2.913,2.684,4.722,4.378,4.722s3.369-1.809,4.377-4.722a1.179,1.179,0,0,1,1.113-.793,1.179,1.179,0,0,1,1.113.793c1.009,2.913,2.685,4.722,4.377,4.722s3.371-1.809,4.379-4.722a1.178,1.178,0,0,1,1.113-.793,1.176,1.176,0,0,1,1.111.793c.951,2.749,2.536,4.553,4.137,4.709a1.176,1.176,0,0,1,1.055,1.286,1.178,1.178,0,0,1-1.286,1.055c-1.966-.192-3.72-1.546-5.021-3.808-1.413,2.44-3.364,3.834-5.492,3.834Z" transform="translate(338.296 -270.626)" fill="#0aafe2"/>
      <g id="Group_157990" data-name="Group 157990">
        <path id="Path_62680" data-name="Path 62680" d="M-298.767,275.185h-4.958v23.63a30.73,30.73,0,0,0-18.116,11.052c-3.21,3.921-5.128,9.958-5.946,13.007a5.885,5.885,0,0,0-3.069-.873,5.858,5.858,0,0,0-4.107,1.387,1.189,1.189,0,0,0,0,1.681,1.19,1.19,0,0,0,1.681,0,3.811,3.811,0,0,1,2.428-.693,3.847,3.847,0,0,1,2.824,1.353,1.189,1.189,0,0,0,.944.466,1.2,1.2,0,0,0,.263-.029,1.19,1.19,0,0,0,.9-.913c.019-.09,1.945-9.022,5.923-13.881a28.68,28.68,0,0,1,16.276-10.1v2.734c-3.394.757-8.278,2.911-13.065,8.8-4.329,5.33-6.436,13.285-7.4,18.441-1.119-2.134-2.954-4.139-5.893-4.139-.026,0-.053,0-.079,0a7.922,7.922,0,0,0-4.563,1.813,5.728,5.728,0,0,0-5.968-3.2,6.093,6.093,0,0,0-5.286,4.5,1.189,1.189,0,0,0,.934,1.4,1.186,1.186,0,0,0,1.4-.933,3.749,3.749,0,0,1,3.329-2.622c2.905-.475,3.976,3.023,4.019,3.167a1.189,1.189,0,0,0,.877.829,1.183,1.183,0,0,0,1.15-.366c.02-.021,2.022-2.189,4.137-2.215h.044c4.094,0,5.158,7.029,5.168,7.1a1.187,1.187,0,0,0,1.176,1.017h.033a1.188,1.188,0,0,0,1.152-1.081c.014-.146,1.359-14.511,7.62-22.219a24.844,24.844,0,0,1,7.241-6.258,23.013,23.013,0,0,0-5.32,6.372c-4.98,8.745-4.2,22.528-4.169,23.11a1.124,1.124,0,0,0,.951,1.042,1.045,1.045,0,0,0,.171.013,1.122,1.122,0,0,0,1.049-.723c.016-.041,1.617-4.157,4.606-5.651a8.637,8.637,0,0,1,5.786-.667,1.128,1.128,0,0,0,1.4-.743,1.123,1.123,0,0,0-.743-1.4,10.761,10.761,0,0,0-7.451.8,10.546,10.546,0,0,0-3.558,3.095c.129-4.683.845-12.39,3.906-17.766a20.3,20.3,0,0,1,7.345-7.572v6.34h4.958v-4.036h.024V279.124h-.024v-3.939Z" transform="translate(346.003 -261.457)" fill="#0aafe2"/>
        <path id="Path_62681" data-name="Path 62681" d="M-255.335,259.083v17.665H-288.3v31.145h32.968v32.963h3.1V259.083Z" transform="translate(337.495 -259.083)" fill="#fbab1e"/>
      </g>
    </g>
  </g>
</svg>
