<svg xmlns="http://www.w3.org/2000/svg" width="81.767" height="81.772" viewBox="0 0 81.767 81.772">
  <g id="noun-water-recycling-8004951" transform="translate(-3.475 -3.473)">
    <path id="Path_62661" data-name="Path 62661" d="M74.114,19.284l-13.02-.965a1.066,1.066,0,0,1-.8-1.665L62.436,13.5A35.76,35.76,0,0,0,14.269,63.679a.955.955,0,0,1-.261,1.284l-2.667,1.806A.968.968,0,0,1,10,66.507,40.883,40.883,0,0,1,65.327,9.271l2.327-3.412A1.069,1.069,0,0,1,69.5,6l5.657,11.757a1.066,1.066,0,0,1-1.044,1.528Z" transform="translate(0)" fill="#fbab1e"/>
    <path id="Path_62662" data-name="Path 62662" d="M74.631,75.8A40.838,40.838,0,0,1,24.8,82l-2.327,3.412a1.069,1.069,0,0,1-1.847-.141L14.947,73.511a1.069,1.069,0,0,1,1.044-1.524l13.02.961a1.074,1.074,0,0,1,.824,1.665l-2.145,3.151A35.767,35.767,0,0,0,75.853,27.589a.914.914,0,0,1,.261-1.284L78.761,24.5a.95.95,0,0,1,1.346.261A40.856,40.856,0,0,1,74.631,75.8Z" transform="translate(-1.379 -2.528)" fill="#fbab1e"/>
    <path id="Path_62663" data-name="Path 62663" d="M73.089,48.915c0-5.448-8.365-17.589-10.93-21.18a1.2,1.2,0,0,0-1.909,0c-1.466,2.056-4.232,6.072-6.6,10.2,3.395,5.794,6.309,11.9,6.309,15.787a16.6,16.6,0,0,1-1.435,6.749,11.587,11.587,0,0,0,2.681.34A11.9,11.9,0,0,0,73.089,48.914Z" transform="translate(-6.083 -2.884)" fill="#0aafe2"/>
    <path id="Path_62664" data-name="Path 62664" d="M55.107,53.451c0-7.137-11.091-23.157-14.489-27.9a1.166,1.166,0,0,0-1.9,0c-3.4,4.74-14.489,20.757-14.489,27.9a15.44,15.44,0,1,0,30.88,0Zm-15.44,10.7a10.713,10.713,0,0,1-10.7-10.7.645.645,0,0,1,1.291,0,9.421,9.421,0,0,0,9.409,9.409.645.645,0,0,1,0,1.291Z" transform="translate(-2.516 -2.617)" fill="#0aafe2"/>
  </g>
</svg>
