<svg xmlns="http://www.w3.org/2000/svg" width="55.457" height="71.303" viewBox="0 0 55.457 71.303">
  <g id="noun-water-8091912_2_" data-name="noun-water-8091912 (2)" transform="translate(-17.187 -7.813)">
    <path id="Path_63078" data-name="Path 63078" d="M39.437,25.625a1.329,1.329,0,0,0-.964.423c-4.991,5.334-21.285,23.516-21.285,33.776a22.25,22.25,0,0,0,44.5,0c0-10.26-16.294-28.442-21.285-33.776a1.241,1.241,0,0,0-.964-.423ZM36.545,77.768a1.3,1.3,0,0,1-1.241.964,1.126,1.126,0,0,1-.3-.04A18.7,18.7,0,0,1,21.109,64.854a1.284,1.284,0,0,1,2.5-.607,16.186,16.186,0,0,0,12,11.963,1.3,1.3,0,0,1,.938,1.558Z" transform="translate(0 -2.76)" fill="#06b0e3"/>
    <path id="Path_63079" data-name="Path 63079" d="M71.787,8.261a1.248,1.248,0,0,0-.977-.449,1.315,1.315,0,0,0-.99.449c-4.885,5.44-7.8,10.193-7.8,12.728a8.788,8.788,0,0,0,17.575,0c0-2.535-2.918-7.3-7.8-12.728Z" transform="translate(-6.945)" fill="#06b0e3"/>
    <path id="Path_63080" data-name="Path 63080" d="M22.414,60.789S24.982,73.054,36,74.712" fill="none" stroke="#ffce00" stroke-linecap="round" stroke-width="3.4"/>
  </g>
</svg>
