<svg xmlns="http://www.w3.org/2000/svg" width="61.871" height="81.772" viewBox="0 0 61.871 81.772">
  <g id="noun-women-7641710" transform="translate(-15.875 -5.904)">
    <path id="Path_62690" data-name="Path 62690" d="M76.623,78.1a13.584,13.584,0,0,0-7.962-8.741L58.008,65.393a5.219,5.219,0,0,1-3.372-4.873V55.6a17.041,17.041,0,0,0,2.706-3.131c5.483.064,11.791-4.909,12.906-10.371,2.026-8.146-2.012-12.948-2.182-13.147a1.3,1.3,0,0,0-.34-.283c.085-5.752-1.36-10.03-4.406-13.091a16.469,16.469,0,0,0-7.551-4.112c-3.917-7.763-13.781-7.14-17.889.227C26.429,15.457,25.116,26.734,25,28.176c-3.57,7.9-1.764,15.648,5.823,21.817a13.942,13.942,0,0,0-2.862-7.31c-2.819-4.966-2.277-14.525,3.825-18.63,4.392-2.805,9.691-6.432,11.645-9.605a1.412,1.412,0,0,1,2.408,1.473c-1.771,2.9-5.525,6.049-12.523,10.512a9.494,9.494,0,0,0-3.8,6.233c-.708,3.428-.142,7.041.793,8.429,2.323,3.443,3.811,6.233,3.386,13.5a13.613,13.613,0,0,0,.269,4.023c.73,2.66,1.339,2.377,1.955,2.918a24.384,24.384,0,0,0,1.7-7.14,15.631,15.631,0,0,0,1.374,1.233v4.888a5.219,5.219,0,0,1-3.372,4.873l-10.71,3.981c-6.874,2.621-9.226,10.275-9.024,16.915A1.415,1.415,0,0,0,17.3,87.676H25.52c-.018-1.594.014-5.16,0-6.786a1.417,1.417,0,0,1,2.833,0c.028,1.6-.021,5.192,0,6.786H65.273c.021-1.594-.014-5.16,0-6.786a1.417,1.417,0,0,1,2.833,0c-.043,1.6.032,5.192,0,6.786h8.217a1.415,1.415,0,0,0,1.417-1.388A27.432,27.432,0,0,0,76.621,78.1ZM37.791,50.276c-.2-4.99-2.656-8.638-3.358-12.736-.312-3.528,1.842-8.925,4.774-10.186C54.947,20.4,45.08,19.733,55.67,29.678A8.914,8.914,0,0,1,58.6,34.792c.769-2.3,1.643-5.178,1.388-7.565-.34-2.947-3.23-7.069-4.321-8.4a1.419,1.419,0,0,1,.213-2,1.4,1.4,0,0,1,1.983.213c.184.213,4.42,5.5,4.944,9.846.439,3.513-1.325,8.677-2.663,11.772a1.421,1.421,0,0,0,.963-.326,9.478,9.478,0,0,1-.85,3.8A2.793,2.793,0,0,1,59,43.617a1.433,1.433,0,0,0-.893.935c-3.085,9.9-11.95,16.749-20.315,5.723ZM36.6,68.042a8.046,8.046,0,0,0,5.228-7.523v-3a10.948,10.948,0,0,0,9.974.071v2.933a8.046,8.046,0,0,0,5.228,7.523l.85.312c-7.423,4.052-14.706,4.052-22.129,0Z" transform="translate(0 0)" fill="#0aafe2"/>
  </g>
</svg>
