<svg xmlns="http://www.w3.org/2000/svg" xmlns:xlink="http://www.w3.org/1999/xlink" width="84.99" height="85" viewBox="0 0 84.99 85">
  <defs>
    <clipPath id="clip-path">
      <rect id="Rectangle_9605" data-name="Rectangle 9605" width="84.99" height="85" fill="none"/>
    </clipPath>
  </defs>
  <g id="Group_157806" data-name="Group 157806" transform="translate(-9098.5 -1976.648)">
    <g id="Group_157791" data-name="Group 157791" transform="translate(9098.5 1976.648)">
      <g id="Group_157790" data-name="Group 157790" clip-path="url(#clip-path)">
        <circle id="Ellipse_41" data-name="Ellipse 41" cx="13.621" cy="13.621" r="13.621" transform="translate(28.638 28.677)" fill="#f8cd47"/>
        <path id="Path_62234" data-name="Path 62234" d="M974.479,959.339A15.318,15.318,0,1,0,989.8,974.657a15.335,15.335,0,0,0-15.319-15.318m0,27.147a11.828,11.828,0,1,1,11.829-11.829,11.842,11.842,0,0,1-11.829,11.829" transform="translate(-931.984 -932.158)" fill="#40d4dc"/>
        <path id="Path_62235" data-name="Path 62235" d="M502.835,480.9a1.748,1.748,0,0,0,1.065-1.323,29.81,29.81,0,0,0,0-9.925,1.748,1.748,0,0,0-1.065-1.322l-3.7-1.5a25.767,25.767,0,0,0-1.73-4.2l1.552-3.669a1.748,1.748,0,0,0-.186-1.692,29.925,29.925,0,0,0-7.015-7.015,1.748,1.748,0,0,0-1.692-.186l-3.669,1.552a25.7,25.7,0,0,0-4.2-1.729l-1.5-3.7a1.748,1.748,0,0,0-1.323-1.065,29.934,29.934,0,0,0-9.924,0,1.748,1.748,0,0,0-1.322,1.065l-1.5,3.7a25.75,25.75,0,0,0-4.2,1.729l-3.67-1.552a1.75,1.75,0,0,0-1.693.186,29.916,29.916,0,0,0-7.012,7.015,1.748,1.748,0,0,0-.186,1.692l1.552,3.67a25.76,25.76,0,0,0-1.73,4.2l-3.7,1.5a1.75,1.75,0,0,0-1.065,1.321,29.825,29.825,0,0,0,0,9.927,1.75,1.75,0,0,0,1.065,1.321l3.7,1.5a25.862,25.862,0,0,0,1.729,4.2l-1.551,3.671a1.748,1.748,0,0,0,.186,1.692,29.829,29.829,0,0,0,7.014,7.014,1.747,1.747,0,0,0,1.692.186l3.671-1.551a25.846,25.846,0,0,0,4.2,1.729l1.5,3.7a1.75,1.75,0,0,0,1.321,1.065,29.827,29.827,0,0,0,9.927,0,1.75,1.75,0,0,0,1.321-1.065l1.5-3.7a25.746,25.746,0,0,0,4.2-1.73l3.67,1.552a1.75,1.75,0,0,0,1.692-.186,29.855,29.855,0,0,0,7.015-7.014,1.748,1.748,0,0,0,.186-1.692l-1.552-3.67a25.813,25.813,0,0,0,1.73-4.2Zm-6.8-.325a22.373,22.373,0,0,1-2.1,5.107,1.717,1.717,0,0,0,.04,1.754l1.383,3.271a26.353,26.353,0,0,1-4.848,4.847l-3.193-1.35a1.744,1.744,0,0,0-1.834-.073,22.291,22.291,0,0,1-5.1,2.1,1.7,1.7,0,0,0-1.228,1.338l-1.31,3.232a26.546,26.546,0,0,1-6.845,0l-1.266-3.127a1.746,1.746,0,0,0-1.271-1.444,22.369,22.369,0,0,1-5.107-2.1,1.718,1.718,0,0,0-1.757.041l-3.269,1.382a26.347,26.347,0,0,1-4.847-4.847l1.349-3.19a1.746,1.746,0,0,0,.074-1.835,22.367,22.367,0,0,1-2.1-5.107,1.7,1.7,0,0,0-1.338-1.228l-3.232-1.309a26.545,26.545,0,0,1,0-6.845l3.123-1.266a1.744,1.744,0,0,0,1.448-1.271,22.317,22.317,0,0,1,2.1-5.106,1.721,1.721,0,0,0-.04-1.757l-1.383-3.27a26.356,26.356,0,0,1,4.847-4.848l3.195,1.351a1.747,1.747,0,0,0,1.83.072,22.352,22.352,0,0,1,5.106-2.1,1.7,1.7,0,0,0,1.229-1.338l1.309-3.234a26.751,26.751,0,0,1,6.845,0l1.267,3.128a1.744,1.744,0,0,0,1.273,1.444,22.292,22.292,0,0,1,5.1,2.1,1.72,1.72,0,0,0,1.754-.039l3.272-1.384a26.4,26.4,0,0,1,4.848,4.848l-1.352,3.2a1.745,1.745,0,0,0-.07,1.829,22.323,22.323,0,0,1,2.1,5.106,1.7,1.7,0,0,0,1.342,1.228l3.229,1.309a26.545,26.545,0,0,1,0,6.845l-3.127,1.266a1.746,1.746,0,0,0-1.444,1.271" transform="translate(-431.919 -432.112)" fill="#06b0e3"/>
        <path id="Path_62236" data-name="Path 62236" d="M62.782,576.717A38.96,38.96,0,0,1,6.155,529.406a7.059,7.059,0,0,0,1.383.142,7,7,0,0,0,4.933-11.98h0a7.006,7.006,0,1,0-9.864,9.953c.128.127.276.218.411.333A42.43,42.43,0,0,0,64.6,579.7a1.746,1.746,0,0,0-1.82-2.979M5.04,520.07a3.516,3.516,0,1,1,.022,4.972,3.5,3.5,0,0,1-.022-4.972" transform="translate(0 -500.935)" fill="#40d4dc"/>
        <path id="Path_62237" data-name="Path 62237" d="M752.505,58.054a42.45,42.45,0,0,0-61.6-51.815,1.746,1.746,0,0,0,1.82,2.979,38.96,38.96,0,0,1,56.631,47.3,7.081,7.081,0,0,0-1.386-.137h-.032a7.006,7.006,0,0,0,.031,14.012H748a7.006,7.006,0,0,0,4.9-11.982c-.128-.127-.264-.244-.4-.36m-2.034,7.811a3.492,3.492,0,0,1-2.483,1.041h-.016a3.487,3.487,0,0,1-2.473-1.019h0a3.515,3.515,0,0,1,2.46-6.013h.016a3.516,3.516,0,0,1,2.5,5.991" transform="translate(-670.521 0)" fill="#40d4dc"/>
      </g>
    </g>
  </g>
</svg>
