<svg id="Group_157798" data-name="Group 157798" xmlns="http://www.w3.org/2000/svg" width="77.774" height="90.055" viewBox="0 0 77.774 90.055">
  <path id="Path_62251" data-name="Path 62251" d="M57.182,154.659a12.766,12.766,0,1,1-25.531,0,11.969,11.969,0,0,1,.265-2.562H8.328v6.449a2.783,2.783,0,0,0,2.518,2.783l8.967.927a.812.812,0,0,1,.707.575,21.335,21.335,0,0,0,1.237,2.915.986.986,0,0,1-.088.927l-5.7,6.98a2.84,2.84,0,0,0,.177,3.8l5.477,5.478a2.785,2.785,0,0,0,3.755.176l7.023-5.7a.739.739,0,0,1,.883-.088c.972.441,1.944.884,2.96,1.237a.807.807,0,0,1,.574.662l.883,9.011a2.862,2.862,0,0,0,2.827,2.518h7.73a2.829,2.829,0,0,0,2.827-2.518l.928-9.011a.7.7,0,0,1,.53-.662,29.746,29.746,0,0,0,2.96-1.237.726.726,0,0,1,.883.088l7.023,5.7a2.785,2.785,0,0,0,3.755-.176l5.477-5.478a2.842,2.842,0,0,0,.221-3.8l-5.742-6.98a.987.987,0,0,1-.089-.927,21.337,21.337,0,0,0,1.237-2.915.932.932,0,0,1,.707-.575l8.967-.927a2.822,2.822,0,0,0,2.562-2.783V152.1H56.917a12.012,12.012,0,0,1,.265,2.562" transform="translate(-5.514 -100.693)" fill="#06b0e3"/>
  <path id="Path_62252" data-name="Path 62252" d="M71.994,31.421A33.573,33.573,0,0,0,55.1,7.626l-1.453,11.64a3.828,3.828,0,0,1-4.466,3.3,3.926,3.926,0,0,1-3.13-4.384L48.029,2.327A2.035,2.035,0,0,0,46.121,0H31.655a2.035,2.035,0,0,0-1.909,2.326l1.978,15.858a3.926,3.926,0,0,1-3.13,4.384,3.828,3.828,0,0,1-4.466-3.3L22.676,7.626A33.569,33.569,0,0,0,5.78,31.421,6.957,6.957,0,0,0,0,38.271v2.96a2.685,2.685,0,0,0,2.686,2.685h72.4a2.685,2.685,0,0,0,2.686-2.685v-2.96a6.958,6.958,0,0,0-5.78-6.85" transform="translate(0 -0.001)" fill="#f8cd47"/>
</svg>
