<svg id="Group_157796" data-name="Group 157796" xmlns="http://www.w3.org/2000/svg" xmlns:xlink="http://www.w3.org/1999/xlink" width="92.908" height="85" viewBox="0 0 92.908 85">
  <defs>
    <clipPath id="clip-path">
      <rect id="Rectangle_9608" data-name="Rectangle 9608" width="92.908" height="85" fill="none"/>
    </clipPath>
  </defs>
  <g id="Group_157795" data-name="Group 157795" clip-path="url(#clip-path)">
    <rect id="Rectangle_9607" data-name="Rectangle 9607" width="86.741" height="56.127" transform="translate(3.616 6.94)" fill="#f8cd47"/>
    <path id="Path_62246" data-name="Path 62246" d="M32,93.61a2.211,2.211,0,1,1,0-4.422h5.5L39.048,79.6H7.337A7.345,7.345,0,0,1,0,72.259V20.068a7.353,7.353,0,0,1,7.337-7.352H28.9l-2.246,4.422H7.337a2.925,2.925,0,0,0-2.915,2.929V63.519a2.918,2.918,0,0,0,2.915,2.915H85.572a2.918,2.918,0,0,0,2.915-2.915V20.068a2.925,2.925,0,0,0-2.915-2.929H67.984V12.716H85.572a7.352,7.352,0,0,1,7.337,7.352V72.259A7.345,7.345,0,0,1,85.572,79.6h-31.7l1.53,9.592H60.92a2.211,2.211,0,1,1,0,4.422Z" transform="translate(0 -8.61)" fill="#06b0e3"/>
    <path id="Path_62247" data-name="Path 62247" d="M104.777,90.732v-36.1H89.761l.015,36.1Z" transform="translate(-60.776 -36.992)" fill="#40d4dc"/>
    <path id="Path_62248" data-name="Path 62248" d="M103.952,10.643,99.363,1.626a1.707,1.707,0,0,0-3.045,0L91.75,10.643a12.952,12.952,0,0,0-1.135,3.344h14.471a12.827,12.827,0,0,0-1.133-3.344" transform="translate(-61.354 -0.467)" fill="#40d4dc"/>
    <path id="Path_62249" data-name="Path 62249" d="M167.111,49.628h-4.825a2.059,2.059,0,1,1,0-4.118h4.825V41.7h-4.825a2.059,2.059,0,1,1,0-4.118h4.825V33.777h-4.825a2.059,2.059,0,1,1,0-4.118h4.825V25.852h-4.825a2.059,2.059,0,1,1,0-4.119h4.825V17.911h-4.825a2.052,2.052,0,1,1,0-4.1h4.825V9.985h-4.825a2.052,2.052,0,1,1,0-4.1h4.825V2.193A2.2,2.2,0,0,0,164.918,0H154.637a2.2,2.2,0,0,0-2.193,2.193V53.74h14.667Z" transform="translate(-103.218)" fill="#40d4dc"/>
    <path id="Path_62250" data-name="Path 62250" d="M154.394,154.962V150.53h-3.439a21.025,21.025,0,0,0-.74-3.752l3.177-1.31-1.69-4.1-3.177,1.311a21.179,21.179,0,0,0-2.161-3.232l2.433-2.433-3.134-3.134-2.433,2.433A21.147,21.147,0,0,0,140,134.154l1.31-3.177-4.1-1.69-1.31,3.177a21.058,21.058,0,0,0-3.752-.741v-3.439h-4.432v3.439a21.053,21.053,0,0,0-3.752.741l-1.31-3.177-4.1,1.69,1.311,3.177a21.186,21.186,0,0,0-3.232,2.161l-2.433-2.433-3.134,3.134,2.433,2.433a21.171,21.171,0,0,0-2.13,3.176L108.2,141.3l-1.7,4.092,3.173,1.32a21.03,21.03,0,0,0-.759,3.813h-3.439v4.432h3.439a21.023,21.023,0,0,0,.74,3.752l-3.177,1.31,1.69,4.1,3.177-1.311a21.153,21.153,0,0,0,2.162,3.232l-2.433,2.433,3.134,3.134,2.433-2.433a21.185,21.185,0,0,0,3.232,2.161l-1.311,3.177,4.1,1.69,1.31-3.177a21.025,21.025,0,0,0,3.752.741v3.44h4.432v-3.44a21.025,21.025,0,0,0,3.752-.741l1.31,3.177,4.1-1.69L140,171.338a21.185,21.185,0,0,0,3.232-2.161l2.433,2.433,3.135-3.134-2.434-2.433a21.181,21.181,0,0,0,2.13-3.176l3.173,1.32,1.7-4.092-3.173-1.32a21.039,21.039,0,0,0,.759-3.813Zm-24.462,12.614a14.831,14.831,0,1,1,14.831-14.831,14.831,14.831,0,0,1-14.831,14.831" transform="translate(-41.579 -120.635)" fill="#fff"/>
  </g>
</svg>
