<svg xmlns="http://www.w3.org/2000/svg" xmlns:xlink="http://www.w3.org/1999/xlink" width="1088" height="416.142" viewBox="0 0 1088 416.142">
  <defs>
    <filter id="Path_12950" x="5.965" y="122.479" width="189.894" height="225.957" filterUnits="userSpaceOnUse">
      <feOffset dy="3" input="SourceAlpha"/>
      <feGaussianBlur stdDeviation="3" result="blur"/>
      <feFlood flood-opacity="0.161"/>
      <feComposite operator="in" in2="blur"/>
      <feComposite in="SourceGraphic"/>
    </filter>
    <filter id="Path_12954" x="227.412" y="123.317" width="189.895" height="225.119" filterUnits="userSpaceOnUse">
      <feOffset dy="3" input="SourceAlpha"/>
      <feGaussianBlur stdDeviation="3" result="blur-2"/>
      <feFlood flood-opacity="0.161"/>
      <feComposite operator="in" in2="blur-2"/>
      <feComposite in="SourceGraphic"/>
    </filter>
    <filter id="Path_12954-2" x="448.863" y="123.317" width="189.895" height="225.119" filterUnits="userSpaceOnUse">
      <feOffset dy="3" input="SourceAlpha"/>
      <feGaussianBlur stdDeviation="3" result="blur-3"/>
      <feFlood flood-opacity="0.161"/>
      <feComposite operator="in" in2="blur-3"/>
      <feComposite in="SourceGraphic"/>
    </filter>
    <filter id="Path_12954-3" x="670.315" y="123.317" width="189.895" height="225.119" filterUnits="userSpaceOnUse">
      <feOffset dy="3" input="SourceAlpha"/>
      <feGaussianBlur stdDeviation="3" result="blur-4"/>
      <feFlood flood-opacity="0.161"/>
      <feComposite operator="in" in2="blur-4"/>
      <feComposite in="SourceGraphic"/>
    </filter>
    <filter id="Path_12954-4" x="891.767" y="123.317" width="189.895" height="225.212" filterUnits="userSpaceOnUse">
      <feOffset dy="3" input="SourceAlpha"/>
      <feGaussianBlur stdDeviation="3" result="blur-5"/>
      <feFlood flood-opacity="0.161"/>
      <feComposite operator="in" in2="blur-5"/>
      <feComposite in="SourceGraphic"/>
    </filter>
  </defs>
  <g id="Group_157813" data-name="Group 157813" transform="translate(-10893 -5859.543)">
    <g id="Group_157808" data-name="Group 157808" transform="translate(10754 33.979)">
      <g id="Group_17565" data-name="Group 17565" transform="translate(139 5882.207)">
        <g transform="matrix(1, 0, 0, 1, 0, -56.64)" filter="url(#Path_12950)">
          <path id="Path_12950-2" data-name="Path 12950" d="M522.253,467.322H370.765c-5.634,0-10.2-8.811-10.2-19.677v-168.6c0-10.866,4.568-19.677,10.2-19.677H522.253c5.634,0,10.2,8.811,10.2,19.677v168.6c0,10.866-4.568,19.677-10.2,19.677" transform="translate(-345.6 -130.89)" fill="#fff"/>
        </g>
        <path id="Path_12951" data-name="Path 12951" d="M536.756,521.843H372.744a19.114,19.114,0,0,1-19.09-19.093v-202.2a19.112,19.112,0,0,1,19.09-19.09h22.589l52.326,52.326a10.05,10.05,0,0,0,14.184,0l21.88-21.883a1.47,1.47,0,1,1,2.08,2.08l-21.88,21.883a13,13,0,0,1-18.343,0L394.116,284.4H372.744A16.168,16.168,0,0,0,356.6,300.547v202.2A16.168,16.168,0,0,0,372.744,518.9H536.756a16.17,16.17,0,0,0,16.151-16.151v-202.2A16.17,16.17,0,0,0,536.756,284.4H514.167l-52.326-52.324a10.046,10.046,0,0,0-14.184,0l-21.88,21.883a1.471,1.471,0,1,1-2.079-2.082l21.883-21.88a12.994,12.994,0,0,1,18.343,0l51.464,51.466h21.369a19.113,19.113,0,0,1,19.093,19.09v202.2a19.114,19.114,0,0,1-19.093,19.093" transform="translate(-353.654 -226.202)" fill="#7980be"/>
        <path id="Path_12952" data-name="Path 12952" d="M422.087,322.769l-41.35-41.35a5.826,5.826,0,0,1,0-8.238l41.35-41.348a5.822,5.822,0,0,1,8.238,0l41.35,41.348a5.826,5.826,0,0,1,0,8.238l-41.35,41.35a5.826,5.826,0,0,1-8.238,0" transform="translate(-324.06 -221.627)" fill="#7980be"/>
        <path id="Path_12953" data-name="Path 12953" d="M399.017,241.548a2.053,2.053,0,0,0-2.043,2.043v2.745a3.464,3.464,0,0,0-.661.659h-2.745a2.043,2.043,0,0,0,0,4.085h2.747a3.466,3.466,0,0,0,.658.661v27.935h-6.128a.681.681,0,0,0-.68.68v2.723a.682.682,0,0,0,.68.682h4.768v.68a.68.68,0,0,0,.68.682h5.448a.682.682,0,0,0,.68-.682v-.68h19.062v.68a.682.682,0,0,0,.682.682h5.446a.682.682,0,0,0,.682-.682v-.68h4.763a.682.682,0,0,0,.682-.682v-2.723a.682.682,0,0,0-.682-.68h-8.851v-2.043a.678.678,0,0,0-.548-.667l-.132-.015h-8.169a.68.68,0,0,0-.682.68v2.045H401.06V251.74a3.4,3.4,0,0,0,.658-.661h11.6v.68a.682.682,0,0,0,.68.682h2.045v.713a9.488,9.488,0,0,0-6.113,8.608l-.013.386a9.524,9.524,0,0,0,19.045.009v-.381a9.486,9.486,0,0,0-6.111-8.626v-.708h2.108a.681.681,0,0,0,.615-.676V246.32a.682.682,0,0,0-.548-.667l-.134-.017h-2.015a2.042,2.042,0,0,0-.026-4.083h-6.81a2.042,2.042,0,0,0-.026,4.083h-2.017a.681.681,0,0,0-.68.68V247H401.72a3.482,3.482,0,0,0-.663-.661v-2.745a2.052,2.052,0,0,0-2.041-2.043Zm0,1.363a.667.667,0,0,1,.682.68V245.7a3.383,3.383,0,0,0-1.363,0v-2.112a.665.665,0,0,1,.68-.68m17.022,0h6.808a.68.68,0,1,1,0,1.36h-6.808a.68.68,0,1,1,0-1.36m1.36,2.723h4.085v7.926a.68.68,0,0,0,.47.646,8.151,8.151,0,0,1,5.573,6.732,10.228,10.228,0,0,0-4.549-.76,11.369,11.369,0,0,0-3.821,1.176c-2.134.986-3.906,1.876-7.85.176a8.148,8.148,0,0,1,5.621-7.319.675.675,0,0,0,.47-.646v-2.485h2.043v-1.36H417.4v-1.363h2.043v-1.363H417.4Zm-18.382,1.36a2.043,2.043,0,1,1-2.043,2.045,2.033,2.033,0,0,1,2.043-2.045m15.659,0h1.363v4.085h-1.363Zm8.171,0h1.362v4.085h-1.362Zm-29.278,1.363h2.112a3.49,3.49,0,0,0,0,1.363h-2.112a.681.681,0,0,1,0-1.363m8.784,0h10.961v1.363H402.353a3.382,3.382,0,0,0,0-1.363m-4.016,4.014a3.283,3.283,0,0,0,1.363,0v27.3h-1.363Zm25.76,9.085a10.683,10.683,0,0,1,3.492.966,8.16,8.16,0,0,1-16.244.581,9.553,9.553,0,0,0,8.383-.412,8.4,8.4,0,0,1,4.369-1.135m-8.058,16.859h6.808v1.362h-6.808Zm-24.51,2.723h40.85V282.4h-4.766a.678.678,0,0,0-.68.678v.682h-4.085v-.682a.679.679,0,0,0-.68-.678H401.742a.68.68,0,0,0-.682.678v.682h-4.086v-.682a.679.679,0,0,0-.68-.678h-4.766Z" transform="translate(-311.075 -208.307)" fill="#fff"/>
      </g>
      <g id="Group_17566" data-name="Group 17566" transform="translate(360.451 5883.048)">
        <g transform="matrix(1, 0, 0, 1, -221.45, -57.48)" filter="url(#Path_12954)">
          <path id="Path_12954-5" data-name="Path 12954" d="M435.634,559.311H284.147c-5.637,0-10.205-8.775-10.205-19.6V371.79c0-10.822,4.568-19.6,10.205-19.6H435.634c5.637,0,10.2,8.776,10.2,19.6V539.713c0,10.823-4.566,19.6-10.2,19.6" transform="translate(-37.53 -222.87)" fill="#fff"/>
        </g>
        <path id="Path_12955" data-name="Path 12955" d="M451.359,619.534H287.349a19.113,19.113,0,0,1-19.092-19.09V399.24a19.115,19.115,0,0,1,19.092-19.092h22.589l52.324,52.326a10.048,10.048,0,0,0,14.182,0l21.884-21.882a1.47,1.47,0,0,1,2.079,2.079l-21.882,21.882a12.99,12.99,0,0,1-18.342,0L308.717,383.09H287.349a16.168,16.168,0,0,0-16.15,16.15V600.445a16.166,16.166,0,0,0,16.15,16.147h164.01a16.166,16.166,0,0,0,16.15-16.147V399.24a16.168,16.168,0,0,0-16.15-16.15H428.77l-52.326-52.324a10.038,10.038,0,0,0-14.182,0l-21.882,21.882a1.471,1.471,0,1,1-2.079-2.082l21.882-21.882a12.992,12.992,0,0,1,18.342,0l51.466,51.463h21.368a19.115,19.115,0,0,1,19.092,19.092V600.445a19.113,19.113,0,0,1-19.092,19.09" transform="translate(-268.257 -324.895)" fill="#f47920"/>
        <path id="Path_12956" data-name="Path 12956" d="M332.2,420.767l-41.35-41.35a5.826,5.826,0,0,1,0-8.237l41.35-41.35a5.824,5.824,0,0,1,8.24,0l41.347,41.35a5.821,5.821,0,0,1,0,8.237l-41.347,41.35a5.824,5.824,0,0,1-8.24,0" transform="translate(-234.175 -319.628)" fill="#f47920"/>
        <path id="Path_12957" data-name="Path 12957" d="M320.985,383.138a1.556,1.556,0,0,1-.726-.181,38.318,38.318,0,0,1-20.784-33.4,33.849,33.849,0,0,1,.571-6.268,1.54,1.54,0,0,1,1.892-1.2,18.808,18.808,0,0,0,4.782.592,19.089,19.089,0,0,0,13.2-5.205,1.545,1.545,0,0,1,2.137,0,19.1,19.1,0,0,0,13.2,5.205,18.9,18.9,0,0,0,4.779-.592,1.537,1.537,0,0,1,1.895,1.2,33.894,33.894,0,0,1,.571,6.271,38.318,38.318,0,0,1-20.784,33.4,1.556,1.556,0,0,1-.726.181M302.814,345.42a31.588,31.588,0,0,0-.263,4.139,35.153,35.153,0,0,0,18.434,30.29,35.153,35.153,0,0,0,18.434-30.29,31.593,31.593,0,0,0-.263-4.139,22.868,22.868,0,0,1-3.905.337,22.355,22.355,0,0,1-14.266-5.105,22.36,22.36,0,0,1-14.266,5.105,22.845,22.845,0,0,1-3.905-.337m17.034,21.05,9.218-10.753a1.537,1.537,0,0,0-2.334-2l-7.971,9.3L315.3,358.4a1.537,1.537,0,1,0-2.458,1.845l4.608,6.145a1.545,1.545,0,0,0,1.179.613h.05a1.533,1.533,0,0,0,1.168-.537" transform="translate(-217.324 -305.064)" fill="#fff"/>
      </g>
      <g id="Group_17567" data-name="Group 17567" transform="translate(581.903 5883.048)">
        <g transform="matrix(1, 0, 0, 1, -442.9, -57.48)" filter="url(#Path_12954-2)">
          <path id="Path_12954-6" data-name="Path 12954" d="M435.634,559.311H284.147c-5.637,0-10.205-8.775-10.205-19.6V371.79c0-10.822,4.568-19.6,10.205-19.6H435.634c5.637,0,10.2,8.776,10.2,19.6V539.713c0,10.823-4.566,19.6-10.2,19.6" transform="translate(183.92 -222.87)" fill="#fff"/>
        </g>
        <path id="Path_12955-2" data-name="Path 12955" d="M451.359,619.534H287.349a19.113,19.113,0,0,1-19.092-19.09V399.24a19.115,19.115,0,0,1,19.092-19.092h22.589l52.324,52.326a10.048,10.048,0,0,0,14.182,0l21.884-21.882a1.47,1.47,0,0,1,2.079,2.079l-21.882,21.882a12.99,12.99,0,0,1-18.342,0L308.717,383.09H287.349a16.168,16.168,0,0,0-16.15,16.15V600.445a16.166,16.166,0,0,0,16.15,16.147h164.01a16.166,16.166,0,0,0,16.15-16.147V399.24a16.168,16.168,0,0,0-16.15-16.15H428.77l-52.326-52.324a10.038,10.038,0,0,0-14.182,0l-21.882,21.882a1.471,1.471,0,1,1-2.079-2.082l21.882-21.882a12.992,12.992,0,0,1,18.342,0l51.466,51.463h21.368a19.115,19.115,0,0,1,19.092,19.092V600.445a19.113,19.113,0,0,1-19.092,19.09" transform="translate(-268.257 -324.895)" fill="#008342"/>
        <path id="Path_12956-2" data-name="Path 12956" d="M332.2,420.767l-41.35-41.35a5.826,5.826,0,0,1,0-8.237l41.35-41.35a5.824,5.824,0,0,1,8.24,0l41.347,41.35a5.821,5.821,0,0,1,0,8.237l-41.347,41.35a5.824,5.824,0,0,1-8.24,0" transform="translate(-234.175 -319.628)" fill="#008342"/>
        <g id="Group_17573" data-name="Group 17573" transform="translate(-611.903 -5915.794)">
          <path id="Path_12958" data-name="Path 12958" d="M417.036,372.767l-.155.128h2.91a1.213,1.213,0,1,1,0,2.425h-5.82a1.213,1.213,0,0,1-1.214-1.214v-5.822a1.213,1.213,0,1,1,2.425,0v2.91l.128-.134h0a19.645,19.645,0,0,0-13.877-33.547,1.213,1.213,0,1,1,0-2.425,22.074,22.074,0,0,1,15.605,37.681Z" transform="translate(312.779 5613)" fill="#fff"/>
          <path id="Path_12959" data-name="Path 12959" d="M390.4,355.089a22.075,22.075,0,0,0,22.073,22.073,1.213,1.213,0,0,0,0-2.425,19.649,19.649,0,0,1-13.894-33.542l.125-.142v2.912a1.213,1.213,0,1,0,2.425,0v-5.82a1.212,1.212,0,0,0-1.212-1.216H394.1a1.214,1.214,0,0,0,0,2.427h2.91l-.151.128a21.92,21.92,0,0,0-6.455,15.605" transform="translate(301.732 5615.072)" fill="#fff"/>
          <path id="Path_12960" data-name="Path 12960" d="M423.531,354.2A3.16,3.16,0,0,0,422,352.665l-1.452-.676a12.053,12.053,0,0,0-.865-3.184l.916-1.307a3.157,3.157,0,0,0-.351-4.034l-1.507-1.509a3.165,3.165,0,0,0-1.951-.908,3.065,3.065,0,0,0-2.074.565l-1.318.918a11.532,11.532,0,0,0-3.2-.867l-.676-1.452a3.155,3.155,0,0,0-3.667-1.715l-2.049.557a3.148,3.148,0,0,0-2.317,3.309l.132,1.6a11.951,11.951,0,0,0-2.349,2.351l-1.594-.142a3.113,3.113,0,0,0-3.307,2.3l-.551,2.06a3.13,3.13,0,0,0,.176,2.168,3.092,3.092,0,0,0,1.524,1.524l1.458.674a11.711,11.711,0,0,0,.867,3.184l-.916,1.309a3.143,3.143,0,0,0-.568,2.083,3.175,3.175,0,0,0,.918,1.951l1.507,1.509a3.076,3.076,0,0,0,1.949.908,3.109,3.109,0,0,0,2.077-.559l1.309-.916a11.874,11.874,0,0,0,3.21.859l.674,1.458a3.139,3.139,0,0,0,3.667,1.709l2.051-.551a3.145,3.145,0,0,0,2.317-3.316l-.14-1.592a12.26,12.26,0,0,0,1.256-1.092,11.817,11.817,0,0,0,1.093-1.258l1.592.142a3.132,3.132,0,0,0,3.318-2.31l.551-2.057a3.118,3.118,0,0,0-.176-2.16m-2.157,1.526-.568,2.057a.714.714,0,0,1-.7.534h-.06l-2.283-.208a1.21,1.21,0,0,0-1.127.542,9.6,9.6,0,0,1-2.691,2.684,1.219,1.219,0,0,0-.533,1.124l.2,2.283a.708.708,0,0,1-.491.759l-2.068.559a.717.717,0,0,1-.833-.4l-.976-2.083a1.2,1.2,0,0,0-1.024-.71,9.348,9.348,0,0,1-3.669-.967,1.2,1.2,0,0,0-1.233.091l-1.883,1.32a.726.726,0,0,1-.925-.085l-1.535-1.535a.71.71,0,0,1-.083-.916l1.318-1.883a1.213,1.213,0,0,0,.091-1.241,9.309,9.309,0,0,1-.967-3.66,1.2,1.2,0,0,0-.7-1.024l-2.085-.976a.7.7,0,0,1-.4-.816l.559-2.051a.714.714,0,0,1,.757-.525l2.327.159a1.2,1.2,0,0,0,1.116-.533,10.2,10.2,0,0,1,2.668-2.668,1.212,1.212,0,0,0,.533-1.116l-.2-2.285-.008-.083a.706.706,0,0,1,.525-.684l2.058-.557a.724.724,0,0,1,.818.4l.974,2.083a1.2,1.2,0,0,0,1.052.716,9.362,9.362,0,0,1,3.658.967,1.208,1.208,0,0,0,1.241-.091l1.86-1.324a.708.708,0,0,1,.916.083l1.541,1.533a.692.692,0,0,1,.217.51l-.132.406L417.314,348a1.194,1.194,0,0,0-.091,1.241,9.516,9.516,0,0,1,.967,3.666,1.206,1.206,0,0,0,.7,1.027l2.083.965a.718.718,0,0,1,.4.827" transform="translate(305.446 5616.714)" fill="#fff"/>
          <path id="Path_12961" data-name="Path 12961" d="M408.1,344.414a5.924,5.924,0,1,0,1.734,4.191,5.907,5.907,0,0,0-1.734-4.191m-1.715,6.659a3.488,3.488,0,0,1-5.96-2.468,3.469,3.469,0,0,1,3.492-3.49,3.5,3.5,0,0,1,2.468,1.016v.008a3.482,3.482,0,0,1,0,4.933" transform="translate(310.288 5621.556)" fill="#fff"/>
        </g>
      </g>
      <g id="Group_17569" data-name="Group 17569" transform="translate(803.354 5883.048)">
        <g transform="matrix(1, 0, 0, 1, -664.35, -57.48)" filter="url(#Path_12954-3)">
          <path id="Path_12954-7" data-name="Path 12954" d="M435.634,559.311H284.147c-5.637,0-10.205-8.775-10.205-19.6V371.79c0-10.822,4.568-19.6,10.205-19.6H435.634c5.637,0,10.2,8.776,10.2,19.6V539.713c0,10.823-4.566,19.6-10.2,19.6" transform="translate(405.37 -222.87)" fill="#fff"/>
        </g>
        <path id="Path_12955-3" data-name="Path 12955" d="M451.359,619.534H287.349a19.113,19.113,0,0,1-19.092-19.09V399.24a19.115,19.115,0,0,1,19.092-19.092h22.589l52.324,52.326a10.048,10.048,0,0,0,14.182,0l21.884-21.882a1.47,1.47,0,0,1,2.079,2.079l-21.882,21.882a12.99,12.99,0,0,1-18.342,0L308.717,383.09H287.349a16.168,16.168,0,0,0-16.15,16.15V600.445a16.166,16.166,0,0,0,16.15,16.147h164.01a16.166,16.166,0,0,0,16.15-16.147V399.24a16.168,16.168,0,0,0-16.15-16.15H428.77l-52.326-52.324a10.038,10.038,0,0,0-14.182,0l-21.882,21.882a1.471,1.471,0,1,1-2.079-2.082l21.882-21.882a12.992,12.992,0,0,1,18.342,0l51.466,51.463h21.368a19.115,19.115,0,0,1,19.092,19.092V600.445a19.113,19.113,0,0,1-19.092,19.09" transform="translate(-268.257 -324.895)" fill="#06b0e3"/>
        <path id="Path_12956-3" data-name="Path 12956" d="M332.2,420.767l-41.35-41.35a5.826,5.826,0,0,1,0-8.237l41.35-41.35a5.824,5.824,0,0,1,8.24,0l41.347,41.35a5.821,5.821,0,0,1,0,8.237l-41.347,41.35a5.824,5.824,0,0,1-8.24,0" transform="translate(-234.175 -319.628)" fill="#06b0e3"/>
        <path id="Path_12962" data-name="Path 12962" d="M524.305,338.893H492.327a5.188,5.188,0,0,0-5.2,5.2v31.978a5.192,5.192,0,0,0,5.2,5.2h31.978a5.2,5.2,0,0,0,5.195-5.2V344.091a5.192,5.192,0,0,0-5.195-5.2m-31.978,39.973a2.8,2.8,0,0,1-2.8-2.8V364.075a2.8,2.8,0,0,1,2.8-2.8h11.991a2.8,2.8,0,0,1,2.8,2.8v11.994a2.8,2.8,0,0,1-2.8,2.8Zm34.775-2.8a2.8,2.8,0,0,1-2.8,2.8h-15.63a5.2,5.2,0,0,0,.838-2.8V364.075a5.193,5.193,0,0,0-5.2-5.2H492.327a5.127,5.127,0,0,0-2.8.838V344.091a2.8,2.8,0,0,1,2.8-2.8h31.978a2.8,2.8,0,0,1,2.8,2.8Zm-4.8-28.781v5.595a1.2,1.2,0,1,1-2.4,0v-2.8l-6.755,6.757a1.2,1.2,0,1,1-1.7-1.7l6.855-6.655h-2.8a1.2,1.2,0,0,1,0-2.4h5.595a1.194,1.194,0,0,1,1.2,1.2" transform="translate(-404.622 -305.988)" fill="#fff"/>
      </g>
      <g id="Group_17571" data-name="Group 17571" transform="translate(1024.806 5883.048)">
        <g transform="matrix(1, 0, 0, 1, -885.81, -57.48)" filter="url(#Path_12954-4)">
          <path id="Path_12954-8" data-name="Path 12954" d="M435.634,559.4H284.147c-5.637,0-10.205-8.779-10.205-19.607v-168c0-10.827,4.568-19.607,10.205-19.607H435.634c5.637,0,10.2,8.78,10.2,19.607v168c0,10.827-4.566,19.607-10.2,19.607" transform="translate(626.82 -222.87)" fill="#fff"/>
        </g>
        <path id="Path_12955-4" data-name="Path 12955" d="M451.359,619.534H287.349a19.113,19.113,0,0,1-19.092-19.09V399.24a19.115,19.115,0,0,1,19.092-19.092h22.589l52.324,52.326a10.048,10.048,0,0,0,14.182,0l21.884-21.882a1.47,1.47,0,0,1,2.079,2.079l-21.882,21.882a12.99,12.99,0,0,1-18.342,0L308.717,383.09H287.349a16.168,16.168,0,0,0-16.15,16.15V600.445a16.166,16.166,0,0,0,16.15,16.147h164.01a16.166,16.166,0,0,0,16.15-16.147V399.24a16.168,16.168,0,0,0-16.15-16.15H428.77l-52.326-52.324a10.038,10.038,0,0,0-14.182,0l-21.882,21.882a1.471,1.471,0,1,1-2.079-2.082l21.882-21.882a12.992,12.992,0,0,1,18.342,0l51.466,51.463h21.368a19.115,19.115,0,0,1,19.092,19.092V600.445a19.113,19.113,0,0,1-19.092,19.09" transform="translate(-268.257 -324.895)" fill="#09486c"/>
        <path id="Path_12956-4" data-name="Path 12956" d="M332.2,420.767l-41.35-41.35a5.826,5.826,0,0,1,0-8.237l41.35-41.35a5.824,5.824,0,0,1,8.24,0l41.347,41.35a5.821,5.821,0,0,1,0,8.237l-41.347,41.35a5.824,5.824,0,0,1-8.24,0" transform="translate(-234.175 -319.628)" fill="#09486c"/>
        <path id="Path_12963" data-name="Path 12963" d="M408.2,419.4a.631.631,0,0,0-.445-.183h-8.66a.628.628,0,0,0-.628.628v1.931a.629.629,0,0,0,.628.63h.542v27.915a3.741,3.741,0,0,0,3.739,3.741h.269a3.75,3.75,0,0,0,3.739-3.741V422.409h.37a.625.625,0,0,0,.445-.185.633.633,0,0,0,.185-.445v-1.931a.636.636,0,0,0-.185-.445m-2.068,30.921a2.492,2.492,0,0,1-2.486,2.486h-.269a2.489,2.489,0,0,1-2.486-2.486v-1.367h1.951a.627.627,0,1,0,0-1.255H400.89v-2.827h1.951a.627.627,0,1,0,0-1.253H400.89v-2.827h1.951a.627.627,0,1,0,0-1.255H400.89v-2.182a3.335,3.335,0,0,1,.189-.643h1.762a.627.627,0,1,0,0-1.255H401.69a10.731,10.731,0,0,1,4.441-4.426Zm0-20.638a10.961,10.961,0,0,0-5.242,4.7V422.409h5.242Zm1-8.532h-7.409v-.681h7.409Z" transform="translate(-284.729 -381.612)" fill="#fff"/>
        <path id="Path_12964" data-name="Path 12964" d="M411.452,436.859a3.288,3.288,0,0,0-1.6-1.6l-1.51-.7a12.609,12.609,0,0,0-.9-3.316l.954-1.361a3.287,3.287,0,0,0-.365-4.2l-1.57-1.57a3.3,3.3,0,0,0-2.032-.945,3.207,3.207,0,0,0-2.16.59l-1.37.954a12.035,12.035,0,0,0-3.333-.9l-.7-1.51a3.286,3.286,0,0,0-3.816-1.786l-2.134.581a3.225,3.225,0,0,0-1.832,1.284,3.263,3.263,0,0,0-.581,2.162l.139,1.665a12.543,12.543,0,0,0-2.448,2.448l-1.656-.148a3.243,3.243,0,0,0-3.446,2.394l-.572,2.143a3.259,3.259,0,0,0,.181,2.255,3.208,3.208,0,0,0,1.588,1.588l1.519.7a12.155,12.155,0,0,0,.9,3.316l-.955,1.361a3.254,3.254,0,0,0,.365,4.2l1.572,1.57a3.2,3.2,0,0,0,2.028.945,3.241,3.241,0,0,0,2.162-.583l1.361-.953a12.406,12.406,0,0,0,3.342.892l.7,1.521a3.332,3.332,0,0,0,1.588,1.586,3.284,3.284,0,0,0,2.232.191l2.134-.572a3.279,3.279,0,0,0,2.411-3.453l-.147-1.658a12.876,12.876,0,0,0,1.31-1.136,12.631,12.631,0,0,0,1.136-1.31l1.658.147a3.255,3.255,0,0,0,3.452-2.4l.575-2.142a3.248,3.248,0,0,0-.183-2.248m-2.248,1.587-.59,2.143a.741.741,0,0,1-.729.555h-.06l-2.376-.216a1.255,1.255,0,0,0-1.173.562,9.959,9.959,0,0,1-2.8,2.8,1.272,1.272,0,0,0-.555,1.171l.209,2.378a.742.742,0,0,1-.511.79l-2.153.581a.741.741,0,0,1-.867-.416l-1.017-2.169a1.255,1.255,0,0,0-1.068-.738,9.749,9.749,0,0,1-3.816-1.006,1.248,1.248,0,0,0-1.284.1l-1.96,1.37a.751.751,0,0,1-.964-.086l-1.6-1.6a.738.738,0,0,1-.086-.953l1.37-1.962a1.259,1.259,0,0,0,.1-1.293,9.7,9.7,0,0,1-1.006-3.809,1.245,1.245,0,0,0-.729-1.066l-2.169-1.015a.738.738,0,0,1-.418-.85l.583-2.134a.745.745,0,0,1,.79-.548l2.42.165a1.256,1.256,0,0,0,1.163-.555,10.037,10.037,0,0,1,1.259-1.519,10.148,10.148,0,0,1,1.519-1.259,1.256,1.256,0,0,0,.555-1.163l-.209-2.376-.009-.086a.734.734,0,0,1,.548-.713l2.143-.581a.753.753,0,0,1,.85.416l1.015,2.169a1.251,1.251,0,0,0,1.092.747,9.666,9.666,0,0,1,3.809,1.006,1.263,1.263,0,0,0,1.3-.1l1.933-1.38a.741.741,0,0,1,.956.086l1.6,1.6a.722.722,0,0,1,.225.528.784.784,0,0,1-.139.427l-1.37,1.96a1.239,1.239,0,0,0-.1,1.293,9.9,9.9,0,0,1,1.006,3.818,1.256,1.256,0,0,0,.729,1.066l2.169,1.006a.744.744,0,0,1,.416.859" transform="translate(-299.763 -380.629)" fill="#fff"/>
        <path id="Path_12965" data-name="Path 12965" d="M396.11,427.392a6.17,6.17,0,1,0,1.8,4.364,6.164,6.164,0,0,0-1.8-4.364m-1.788,6.932a3.61,3.61,0,0,1-2.569,1.068,3.637,3.637,0,1,1,2.569-6.214v.009a3.622,3.622,0,0,1,0,5.137" transform="translate(-295.441 -376.307)" fill="#fff"/>
      </g>
    </g>
    <path id="Path_62259" data-name="Path 62259" d="M39.725,17h3.186V12.176h1.926a1.888,1.888,0,0,1,2.142,1.836c.2,1.278.144,2.79.486,2.988h3.1v-.162c-.45-.162-.27-1.782-.54-3.474a2.578,2.578,0,0,0-1.872-2.358v-.054a3.081,3.081,0,0,0,2.232-3.114c0-2.394-1.944-3.708-4.5-3.708H39.725Zm3.186-7.182V6.65h2.466c1.224,0,1.836.666,1.836,1.6,0,.972-.648,1.566-1.908,1.566Zm12.978,7.4a6.111,6.111,0,0,0,3.33-1.026l.63.81h3.582l-2.214-2.772a7.916,7.916,0,0,0,1.4-3.672H60.083a7.3,7.3,0,0,1-.486,1.62l-1.548-1.944c1.314-.63,2.376-1.476,2.376-3.078,0-1.908-1.53-3.1-3.636-3.1-2.232,0-3.618,1.35-3.618,3.132a3.725,3.725,0,0,0,.99,2.484c-1.584.738-2.844,1.8-2.844,3.762C51.317,15.578,52.9,17.216,55.889,17.216Zm.126-2.358a1.512,1.512,0,0,1-1.656-1.494,2.1,2.1,0,0,1,1.224-1.89L57.761,14.3A3.051,3.051,0,0,1,56.015,14.858Zm.774-6.138a2.228,2.228,0,0,1-.9-1.548.931.931,0,0,1,.972-.99.946.946,0,0,1,.954.99A1.747,1.747,0,0,1,56.789,8.72Zm10.746,5.6V6.794h1.908c2,0,3.132,1.512,3.132,3.852,0,2.358-1.08,3.672-3.168,3.672ZM64.349,17h5.292a6.356,6.356,0,0,0,3.924-1.17A6.259,6.259,0,0,0,75.8,10.646C75.8,6.7,73.4,4.13,69.839,4.13h-5.49ZM16.037,37h3.24V32.7h3.006a4.064,4.064,0,0,0,4.356-4.212,4.227,4.227,0,0,0-1.3-3.168,4.884,4.884,0,0,0-3.51-1.188h-5.8Zm3.24-6.822V26.812h2.358a1.593,1.593,0,0,1,1.8,1.656,1.624,1.624,0,0,1-1.8,1.71ZM27.773,37h3.186V32.176h1.926a1.888,1.888,0,0,1,2.142,1.836c.2,1.278.144,2.79.486,2.988h3.1v-.162c-.45-.162-.27-1.782-.54-3.474A2.578,2.578,0,0,0,36.2,31.006v-.054a3.081,3.081,0,0,0,2.232-3.114c0-2.394-1.944-3.708-4.5-3.708H27.773Zm3.186-7.182V26.65h2.466c1.224,0,1.836.666,1.836,1.6,0,.972-.648,1.566-1.908,1.566Zm14.742,4.9c-2.07,0-3.132-1.782-3.132-4.122s1.062-4.14,3.132-4.14c2.088,0,3.114,1.8,3.114,4.14S47.789,34.714,45.7,34.714Zm-.018,2.592c3.906,0,6.372-2.862,6.372-6.714s-2.466-6.714-6.372-6.714c-3.888,0-6.354,2.862-6.354,6.714S41.8,37.306,45.683,37.306Zm13.446-.018a5.61,5.61,0,0,0,4.122-1.458A5.072,5.072,0,0,0,64.8,32.536H61.613a2.368,2.368,0,0,1-2.5,2.142c-1.908,0-3.1-1.71-3.1-4.068,0-2.34.99-4.086,3.078-4.086a2.327,2.327,0,0,1,2.43,2.034h3.186a5.048,5.048,0,0,0-1.926-3.546,5.989,5.989,0,0,0-3.672-1.134c-3.834,0-6.336,2.9-6.336,6.732C52.775,34.462,55.349,37.288,59.129,37.288Zm6.8-.288H75.8V34.3H69.119V31.546h5.634V29.062H69.119v-2.3h6.57V24.13H65.933Zm16.344.306c2.97,0,5.274-1.494,5.274-4.194,0-2.754-2.16-3.492-4.554-4.05-1.926-.432-2.916-.648-2.916-1.548,0-.72.738-1.206,1.854-1.206,1.188,0,1.944.558,2.07,1.548h3.114c-.126-2.7-2.286-3.96-5.076-3.96-2.88,0-5.112,1.206-5.112,3.96,0,2.7,2.358,3.384,4.59,3.906,1.764.432,2.808.648,2.808,1.674,0,.972-1.026,1.35-2.07,1.35-1.53,0-2.376-.54-2.52-1.836h-3.2C76.607,35.794,78.857,37.306,82.277,37.306Zm11.88,0c2.97,0,5.274-1.494,5.274-4.194,0-2.754-2.16-3.492-4.554-4.05-1.926-.432-2.916-.648-2.916-1.548,0-.72.738-1.206,1.854-1.206,1.188,0,1.944.558,2.07,1.548H99c-.126-2.7-2.286-3.96-5.076-3.96-2.88,0-5.112,1.206-5.112,3.96,0,2.7,2.358,3.384,4.59,3.906,1.764.432,2.808.648,2.808,1.674,0,.972-1.026,1.35-2.07,1.35-1.53,0-2.376-.54-2.52-1.836h-3.2C88.487,35.794,90.737,37.306,94.157,37.306Z" transform="translate(10937 6075.979)" fill="#2a72b8"/>
    <path id="Path_62260" data-name="Path 62260" d="M28.691,17.306c2.97,0,5.274-1.494,5.274-4.194,0-2.754-2.16-3.492-4.554-4.05C27.485,8.63,26.5,8.414,26.5,7.514c0-.72.738-1.206,1.854-1.206,1.188,0,1.944.558,2.07,1.548h3.114c-.126-2.7-2.286-3.96-5.076-3.96-2.88,0-5.112,1.206-5.112,3.96,0,2.7,2.358,3.384,4.59,3.906,1.764.432,2.808.648,2.808,1.674,0,.972-1.026,1.35-2.07,1.35-1.53,0-2.376-.54-2.52-1.836h-3.2C23.021,15.794,25.271,17.306,28.691,17.306Zm5.4-.306h3.2l.738-2.322h4.5L43.289,17h3.348L41.993,4.13H38.717Zm4.68-4.608.99-3.114c.216-.666.522-1.818.522-1.818h.036s.288,1.152.5,1.818l.972,3.114ZM47.537,17h3.186V12h5.346V9.422H50.723V6.812h6.39V4.13H47.537Zm10.836,0h9.864V14.3H61.559V11.546h5.634V9.062H61.559v-2.3h6.57V4.13H58.373Zm14.472,0h3.186V6.83h3.78V4.13H69.1v2.7h3.744Zm11.916,0h3.186V12.248L92.3,4.13H88.937L87.3,7.46c-.432.882-.882,1.962-.882,1.962h-.036s-.414-1.08-.846-1.962L83.879,4.13H80.4l4.356,8.118ZM25.766,37.306c2.97,0,5.274-1.494,5.274-4.194,0-2.754-2.16-3.492-4.554-4.05-1.926-.432-2.916-.648-2.916-1.548,0-.72.738-1.206,1.854-1.206,1.188,0,1.944.558,2.07,1.548h3.114c-.126-2.7-2.286-3.96-5.076-3.96-2.88,0-5.112,1.206-5.112,3.96,0,2.7,2.358,3.384,4.59,3.906,1.764.432,2.808.648,2.808,1.674,0,.972-1.026,1.35-2.07,1.35-1.53,0-2.376-.54-2.52-1.836h-3.2C20.1,35.794,22.346,37.306,25.766,37.306ZM35.054,37H38.24V26.83h3.78v-2.7H31.31v2.7h3.744Zm13.464.234c3.582,0,5.364-1.8,5.364-4.77V24.13H50.7v8.388a1.983,1.983,0,0,1-2.178,2.16A1.932,1.932,0,0,1,46.3,32.572V24.13H43.118v8.334C43.118,35.47,44.918,37.234,48.518,37.234Zm10.224-2.916V26.794H60.65c2,0,3.132,1.512,3.132,3.852,0,2.358-1.08,3.672-3.168,3.672ZM55.556,37h5.292a6.356,6.356,0,0,0,3.924-1.17A6.259,6.259,0,0,0,67,30.646c0-3.942-2.394-6.516-5.958-6.516h-5.49Zm12.708,0H71.45V24.13H68.264Zm4.95,0h9.864V34.3H76.4V31.546h5.634V29.062H76.4v-2.3h6.57V24.13H73.214Zm16.344.306c2.97,0,5.274-1.494,5.274-4.194,0-2.754-2.16-3.492-4.554-4.05-1.926-.432-2.916-.648-2.916-1.548,0-.72.738-1.206,1.854-1.206,1.188,0,1.944.558,2.07,1.548H94.4c-.126-2.7-2.286-3.96-5.076-3.96-2.88,0-5.112,1.206-5.112,3.96,0,2.7,2.358,3.384,4.59,3.906,1.764.432,2.808.648,2.808,1.674,0,.972-1.026,1.35-2.07,1.35-1.53,0-2.376-.54-2.52-1.836h-3.2C83.888,35.794,86.138,37.306,89.558,37.306Z" transform="translate(11159 6075.979)" fill="#2a72b8"/>
    <path id="Path_62261" data-name="Path 62261" d="M45.037,17h3.24V12.7h3.006a4.064,4.064,0,0,0,4.356-4.212,4.227,4.227,0,0,0-1.3-3.168,4.884,4.884,0,0,0-3.51-1.188h-5.8Zm3.24-6.822V6.812h2.358a1.593,1.593,0,0,1,1.8,1.656,1.624,1.624,0,0,1-1.8,1.71ZM56.773,17h3.186V12.176h1.926a1.888,1.888,0,0,1,2.142,1.836c.2,1.278.144,2.79.486,2.988h3.1v-.162c-.45-.162-.27-1.782-.54-3.474A2.578,2.578,0,0,0,65.2,11.006v-.054a3.081,3.081,0,0,0,2.232-3.114c0-2.394-1.944-3.708-4.5-3.708H56.773Zm3.186-7.182V6.65h2.466c1.224,0,1.836.666,1.836,1.6,0,.972-.648,1.566-1.908,1.566Zm14.742,4.9c-2.07,0-3.132-1.782-3.132-4.122s1.062-4.14,3.132-4.14c2.088,0,3.114,1.8,3.114,4.14S76.789,14.714,74.7,14.714Zm-.018,2.592c3.906,0,6.372-2.862,6.372-6.714s-2.466-6.714-6.372-6.714c-3.888,0-6.354,2.862-6.354,6.714S70.795,17.306,74.683,17.306Zm13.446-.018a5.61,5.61,0,0,0,4.122-1.458A5.072,5.072,0,0,0,93.8,12.536H90.613a2.368,2.368,0,0,1-2.5,2.142c-1.908,0-3.1-1.71-3.1-4.068,0-2.34.99-4.086,3.078-4.086a2.327,2.327,0,0,1,2.43,2.034h3.186a5.048,5.048,0,0,0-1.926-3.546,5.989,5.989,0,0,0-3.672-1.134c-3.834,0-6.336,2.9-6.336,6.732C81.775,14.462,84.349,17.288,88.129,17.288Zm6.8-.288H104.8V14.3H98.119V11.546h5.634V9.062H98.119v-2.3h6.57V4.13H94.933Zm16.344.306c2.97,0,5.274-1.494,5.274-4.194,0-2.754-2.16-3.492-4.554-4.05-1.926-.432-2.916-.648-2.916-1.548,0-.72.738-1.206,1.854-1.206,1.188,0,1.944.558,2.07,1.548h3.114c-.126-2.7-2.286-3.96-5.076-3.96-2.88,0-5.112,1.206-5.112,3.96,0,2.7,2.358,3.384,4.59,3.906,1.764.432,2.808.648,2.808,1.674,0,.972-1.026,1.35-2.07,1.35-1.53,0-2.376-.54-2.52-1.836h-3.2C105.607,15.794,107.857,17.306,111.277,17.306Zm11.88,0c2.97,0,5.274-1.494,5.274-4.194,0-2.754-2.16-3.492-4.554-4.05-1.926-.432-2.916-.648-2.916-1.548,0-.72.738-1.206,1.854-1.206,1.188,0,1.944.558,2.07,1.548H128c-.126-2.7-2.286-3.96-5.076-3.96-2.88,0-5.112,1.206-5.112,3.96,0,2.7,2.358,3.384,4.59,3.906,1.764.432,2.808.648,2.808,1.674,0,.972-1.026,1.35-2.07,1.35-1.53,0-2.376-.54-2.52-1.836h-3.2C117.487,15.794,119.737,17.306,123.157,17.306ZM30.07,34.714c-2.07,0-3.132-1.782-3.132-4.122s1.062-4.14,3.132-4.14c2.088,0,3.114,1.8,3.114,4.14S32.158,34.714,30.07,34.714Zm-.018,2.592c3.906,0,6.372-2.862,6.372-6.714s-2.466-6.714-6.372-6.714c-3.888,0-6.354,2.862-6.354,6.714S26.164,37.306,30.052,37.306ZM37.666,37h3.24V32.7h3.006a4.064,4.064,0,0,0,4.356-4.212,4.227,4.227,0,0,0-1.3-3.168,4.884,4.884,0,0,0-3.51-1.188h-5.8Zm3.24-6.822V26.812h2.358a1.593,1.593,0,0,1,1.8,1.656,1.624,1.624,0,0,1-1.8,1.71ZM52.57,37h3.186V26.83h3.78v-2.7H48.826v2.7H52.57Zm8.172,0h3.186V24.13H60.742Zm4.95,0h2.862V30.538c0-.522-.054-2.592-.054-2.592h.036s.45,1.944.594,2.412L70.966,37h2.628l1.854-6.66c.144-.468.594-2.394.594-2.394h.036S76.024,30,76.024,30.52V37H78.94V24.13H74.62l-1.584,5.634c-.216.81-.72,2.934-.72,2.934H72.28s-.5-2.124-.738-2.934L69.976,24.13H65.692Zm15.03,0h3.186V24.13H80.722Zm10.08.306c2.97,0,5.274-1.494,5.274-4.194,0-2.754-2.16-3.492-4.554-4.05-1.926-.432-2.916-.648-2.916-1.548,0-.72.738-1.206,1.854-1.206,1.188,0,1.944.558,2.07,1.548h3.114c-.126-2.7-2.286-3.96-5.076-3.96-2.88,0-5.112,1.206-5.112,3.96,0,2.7,2.358,3.384,4.59,3.906,1.764.432,2.808.648,2.808,1.674,0,.972-1.026,1.35-2.07,1.35-1.53,0-2.376-.54-2.52-1.836h-3.2C85.132,35.794,87.382,37.306,90.8,37.306ZM96.2,37h3.2l.738-2.322h4.5L105.4,37h3.348L104.1,24.13h-3.276Zm4.68-4.608.99-3.114c.216-.666.522-1.818.522-1.818h.036s.288,1.152.5,1.818l.972,3.114ZM111.2,37h3.186V26.83h3.78v-2.7h-10.71v2.7H111.2Zm8.172,0h3.186V24.13h-3.186Zm10.8-2.286c-2.07,0-3.132-1.782-3.132-4.122s1.062-4.14,3.132-4.14c2.088,0,3.114,1.8,3.114,4.14S132.256,34.714,130.168,34.714Zm-.018,2.592c3.906,0,6.372-2.862,6.372-6.714s-2.466-6.714-6.372-6.714c-3.888,0-6.354,2.862-6.354,6.714S126.262,37.306,130.15,37.306ZM137.764,37h3.114V31.006c0-.45-.036-2.106-.036-2.106h.036s.7,1.386.918,1.728L145.576,37h3.2V24.13h-3.114v6.1c0,.45.036,2,.036,2h-.036s-.684-1.278-.882-1.638l-3.816-6.462h-3.2Z" transform="translate(11351 6075.979)" fill="#2a72b8"/>
    <path id="Path_62262" data-name="Path 62262" d="M48.5,17.306c2.97,0,5.274-1.494,5.274-4.194,0-2.754-2.16-3.492-4.554-4.05-1.926-.432-2.916-.648-2.916-1.548,0-.72.738-1.206,1.854-1.206,1.188,0,1.944.558,2.07,1.548h3.114c-.126-2.7-2.286-3.96-5.076-3.96-2.88,0-5.112,1.206-5.112,3.96,0,2.7,2.358,3.384,4.59,3.906,1.764.432,2.808.648,2.808,1.674,0,.972-1.026,1.35-2.07,1.35-1.53,0-2.376-.54-2.52-1.836h-3.2C42.832,15.794,45.082,17.306,48.5,17.306Zm12.4-.018a5.61,5.61,0,0,0,4.122-1.458,5.072,5.072,0,0,0,1.548-3.294H63.388a2.368,2.368,0,0,1-2.5,2.142c-1.908,0-3.1-1.71-3.1-4.068,0-2.34.99-4.086,3.078-4.086A2.327,2.327,0,0,1,63.3,8.558h3.186a5.048,5.048,0,0,0-1.926-3.546,5.989,5.989,0,0,0-3.672-1.134c-3.834,0-6.336,2.9-6.336,6.732C54.55,14.462,57.124,17.288,60.9,17.288ZM66.358,17h3.2l.738-2.322h4.5L75.556,17H78.9L74.26,4.13H70.984Zm4.68-4.608.99-3.114c.216-.666.522-1.818.522-1.818h.036s.288,1.152.5,1.818l.972,3.114ZM79.8,17h8.964V14.3H82.99V4.13H79.8Zm10.17,0h9.864V14.3H93.16V11.546h5.634V9.062H93.16v-2.3h6.57V4.13H89.974Zm11-3.258h4.9v-2.52h-4.9Zm11.646,3.492c3.582,0,5.364-1.8,5.364-4.77V4.13H114.8v8.388a1.983,1.983,0,0,1-2.178,2.16,1.932,1.932,0,0,1-2.214-2.106V4.13h-3.186v8.334C107.218,15.47,109.018,17.234,112.618,17.234ZM119.656,17h3.24V12.7H125.9a4.064,4.064,0,0,0,4.356-4.212,4.227,4.227,0,0,0-1.3-3.168,4.884,4.884,0,0,0-3.51-1.188h-5.8Zm3.24-6.822V6.812h2.358a1.593,1.593,0,0,1,1.8,1.656,1.624,1.624,0,0,1-1.8,1.71ZM54.766,37.306c2.97,0,5.274-1.494,5.274-4.194,0-2.754-2.16-3.492-4.554-4.05-1.926-.432-2.916-.648-2.916-1.548,0-.72.738-1.206,1.854-1.206,1.188,0,1.944.558,2.07,1.548h3.114c-.126-2.7-2.286-3.96-5.076-3.96-2.88,0-5.112,1.206-5.112,3.96,0,2.7,2.358,3.384,4.59,3.906,1.764.432,2.808.648,2.808,1.674,0,.972-1.026,1.35-2.07,1.35-1.53,0-2.376-.54-2.52-1.836h-3.2C49.1,35.794,51.346,37.306,54.766,37.306ZM64.054,37H67.24V26.83h3.78v-2.7H60.31v2.7h3.744Zm13.464.234c3.582,0,5.364-1.8,5.364-4.77V24.13H79.7v8.388a1.983,1.983,0,0,1-2.178,2.16A1.932,1.932,0,0,1,75.3,32.572V24.13H72.118v8.334C72.118,35.47,73.918,37.234,77.518,37.234Zm10.224-2.916V26.794H89.65c2,0,3.132,1.512,3.132,3.852,0,2.358-1.08,3.672-3.168,3.672ZM84.556,37h5.292a6.356,6.356,0,0,0,3.924-1.17A6.259,6.259,0,0,0,96,30.646c0-3.942-2.394-6.516-5.958-6.516h-5.49Zm12.708,0h3.186V24.13H97.264Zm4.95,0h9.864V34.3H105.4V31.546h5.634V29.062H105.4v-2.3h6.57V24.13h-9.756Zm16.344.306c2.97,0,5.274-1.494,5.274-4.194,0-2.754-2.16-3.492-4.554-4.05-1.926-.432-2.916-.648-2.916-1.548,0-.72.738-1.206,1.854-1.206,1.188,0,1.944.558,2.07,1.548H123.4c-.126-2.7-2.286-3.96-5.076-3.96-2.88,0-5.112,1.206-5.112,3.96,0,2.7,2.358,3.384,4.59,3.906,1.764.432,2.808.648,2.808,1.674,0,.972-1.026,1.35-2.07,1.35-1.53,0-2.376-.54-2.52-1.836h-3.2C112.888,35.794,115.138,37.306,118.558,37.306ZM61.273,57.216A6.111,6.111,0,0,0,64.6,56.19l.63.81h3.582L66.6,54.228a7.917,7.917,0,0,0,1.4-3.672H65.467a7.3,7.3,0,0,1-.486,1.62l-1.548-1.944c1.314-.63,2.376-1.476,2.376-3.078,0-1.908-1.53-3.1-3.636-3.1-2.232,0-3.618,1.35-3.618,3.132a3.725,3.725,0,0,0,.99,2.484c-1.584.738-2.844,1.8-2.844,3.762C56.7,55.578,58.285,57.216,61.273,57.216Zm.126-2.358a1.512,1.512,0,0,1-1.656-1.494,2.1,2.1,0,0,1,1.224-1.89L63.145,54.3A3.051,3.051,0,0,1,61.4,54.858Zm.774-6.138a2.228,2.228,0,0,1-.9-1.548.931.931,0,0,1,.972-.99.946.946,0,0,1,.954.99A1.747,1.747,0,0,1,62.173,48.72Zm13.536,5.6V46.794h1.908c2,0,3.132,1.512,3.132,3.852,0,2.358-1.08,3.672-3.168,3.672ZM72.523,57h5.292a6.356,6.356,0,0,0,3.924-1.17,6.259,6.259,0,0,0,2.232-5.184c0-3.942-2.394-6.516-5.958-6.516h-5.49ZM83.5,57h3.2l.738-2.322h4.5L92.7,57h3.348L91.4,44.13H88.129Zm4.68-4.608.99-3.114c.216-.666.522-1.818.522-1.818h.036s.288,1.152.5,1.818l.972,3.114ZM98.5,57h3.186V46.83h3.78v-2.7H94.753v2.7H98.5Zm5.634,0h3.2l.738-2.322h4.5L113.329,57h3.348l-4.644-12.87h-3.276Zm4.68-4.608.99-3.114c.216-.666.522-1.818.522-1.818h.036s.288,1.152.5,1.818l.972,3.114Zm-72.99,24.9a4.022,4.022,0,0,0,3.654-1.836h.036L39.691,77h2.232V70.088H36.559v2.34h2.412v.036a2.639,2.639,0,0,1-2.79,2.25c-2.016,0-3.24-1.746-3.24-4.1,0-2.34,1.062-4.1,3.186-4.1a2.371,2.371,0,0,1,2.5,1.836h3.1c-.414-2.7-2.394-4.464-5.706-4.464a5.993,5.993,0,0,0-4.41,1.71A7,7,0,0,0,29.7,70.61a7.1,7.1,0,0,0,1.728,4.878A5.769,5.769,0,0,0,35.821,77.288ZM43.471,77h9.864V74.3H46.657V71.546h5.634V69.062H46.657v-2.3h6.57V64.13H43.471Zm11.3,0h3.114V71.006c0-.45-.036-2.106-.036-2.106h.036s.7,1.386.918,1.728L62.587,77h3.2V64.13H62.677v6.1c0,.45.036,2,.036,2h-.036s-.684-1.278-.882-1.638L57.979,64.13h-3.2Zm12.78,0h9.864V74.3H70.741V71.546h5.634V69.062H70.741v-2.3h6.57V64.13H67.555Zm11.3,0h3.186V72.176h1.926a1.888,1.888,0,0,1,2.142,1.836c.2,1.278.144,2.79.486,2.988h3.1v-.162c-.45-.162-.27-1.782-.54-3.474a2.578,2.578,0,0,0-1.872-2.358v-.054a3.081,3.081,0,0,0,2.232-3.114c0-2.394-1.944-3.708-4.5-3.708H78.859Zm3.186-7.182V66.65h2.466c1.224,0,1.836.666,1.836,1.6,0,.972-.648,1.566-1.908,1.566ZM90.217,77h3.2l.738-2.322h4.5L99.415,77h3.348L98.119,64.13H94.843Zm4.68-4.608.99-3.114c.216-.666.522-1.818.522-1.818h.036s.288,1.152.5,1.818l.972,3.114ZM105.211,77H108.4V66.83h3.78v-2.7h-10.71v2.7h3.744Zm8.172,0h3.186V64.13h-3.186Zm10.8-2.286c-2.07,0-3.132-1.782-3.132-4.122s1.062-4.14,3.132-4.14c2.088,0,3.114,1.8,3.114,4.14S126.271,74.714,124.183,74.714Zm-.018,2.592c3.906,0,6.372-2.862,6.372-6.714s-2.466-6.714-6.372-6.714c-3.888,0-6.354,2.862-6.354,6.714S120.277,77.306,124.165,77.306ZM131.779,77h3.114V71.006c0-.45-.036-2.106-.036-2.106h.036s.7,1.386.918,1.728L139.591,77h3.2V64.13h-3.114v6.1c0,.45.036,2,.036,2h-.036s-.684-1.278-.882-1.638l-3.816-6.462h-3.2Z" transform="translate(11571 6051.979)" fill="#2a72b8"/>
    <path id="Path_62263" data-name="Path 62263" d="M33.31,17.288a5.61,5.61,0,0,0,4.122-1.458,5.072,5.072,0,0,0,1.548-3.294H35.794a2.368,2.368,0,0,1-2.5,2.142c-1.908,0-3.1-1.71-3.1-4.068,0-2.34.99-4.086,3.078-4.086A2.327,2.327,0,0,1,35.7,8.558H38.89a5.048,5.048,0,0,0-1.926-3.546,5.989,5.989,0,0,0-3.672-1.134c-3.834,0-6.336,2.9-6.336,6.732C26.956,14.462,29.53,17.288,33.31,17.288Zm12.654-2.574c-2.07,0-3.132-1.782-3.132-4.122s1.062-4.14,3.132-4.14c2.088,0,3.114,1.8,3.114,4.14S48.052,14.714,45.964,14.714Zm-.018,2.592c3.906,0,6.372-2.862,6.372-6.714s-2.466-6.714-6.372-6.714c-3.888,0-6.354,2.862-6.354,6.714S42.058,17.306,45.946,17.306ZM53.56,17h2.862V10.538c0-.522-.054-2.592-.054-2.592H56.4s.45,1.944.594,2.412L58.834,17h2.628l1.854-6.66c.144-.468.594-2.394.594-2.394h.036S63.892,10,63.892,10.52V17h2.916V4.13h-4.32L60.9,9.764c-.216.81-.72,2.934-.72,2.934h-.036s-.5-2.124-.738-2.934L57.844,4.13H53.56Zm15.012,0h2.862V10.538c0-.522-.054-2.592-.054-2.592h.036s.45,1.944.594,2.412L73.846,17h2.628l1.854-6.66c.144-.468.594-2.394.594-2.394h.036S78.9,10,78.9,10.52V17H81.82V4.13H77.5L75.916,9.764c-.216.81-.72,2.934-.72,2.934H75.16s-.5-2.124-.738-2.934L72.856,4.13H68.572Zm15.012,0h9.864V14.3H86.77V11.546H92.4V9.062H86.77v-2.3h6.57V4.13H83.584Zm11.3,0h3.186V12.176H100a1.888,1.888,0,0,1,2.142,1.836c.2,1.278.144,2.79.486,2.988h3.1v-.162c-.45-.162-.27-1.782-.54-3.474a2.578,2.578,0,0,0-1.872-2.358v-.054a3.081,3.081,0,0,0,2.232-3.114c0-2.394-1.944-3.708-4.5-3.708H94.888Zm3.186-7.182V6.65h2.466c1.224,0,1.836.666,1.836,1.6,0,.972-.648,1.566-1.908,1.566Zm14.724,7.47a5.61,5.61,0,0,0,4.122-1.458,5.072,5.072,0,0,0,1.548-3.294h-3.186a2.368,2.368,0,0,1-2.5,2.142c-1.908,0-3.1-1.71-3.1-4.068,0-2.34.99-4.086,3.078-4.086a2.327,2.327,0,0,1,2.43,2.034h3.186a5.048,5.048,0,0,0-1.926-3.546,5.989,5.989,0,0,0-3.672-1.134c-3.834,0-6.336,2.9-6.336,6.732C106.444,14.462,109.018,17.288,112.8,17.288ZM119.62,17h3.186V4.13H119.62Zm4.05,0h3.2l.738-2.322h4.5L132.868,17h3.348L131.572,4.13H128.3Zm4.68-4.608.99-3.114c.216-.666.522-1.818.522-1.818h.036s.288,1.152.5,1.818l.972,3.114ZM137.116,17h8.964V14.3H140.3V4.13h-3.186ZM45.037,37h3.24V32.7h3.006a4.064,4.064,0,0,0,4.356-4.212,4.227,4.227,0,0,0-1.3-3.168,4.884,4.884,0,0,0-3.51-1.188h-5.8Zm3.24-6.822V26.812h2.358a1.593,1.593,0,0,1,1.8,1.656,1.624,1.624,0,0,1-1.8,1.71ZM56.773,37h3.186V32.176h1.926a1.888,1.888,0,0,1,2.142,1.836c.2,1.278.144,2.79.486,2.988h3.1v-.162c-.45-.162-.27-1.782-.54-3.474A2.578,2.578,0,0,0,65.2,31.006v-.054a3.081,3.081,0,0,0,2.232-3.114c0-2.394-1.944-3.708-4.5-3.708H56.773Zm3.186-7.182V26.65h2.466c1.224,0,1.836.666,1.836,1.6,0,.972-.648,1.566-1.908,1.566Zm14.742,4.9c-2.07,0-3.132-1.782-3.132-4.122s1.062-4.14,3.132-4.14c2.088,0,3.114,1.8,3.114,4.14S76.789,34.714,74.7,34.714Zm-.018,2.592c3.906,0,6.372-2.862,6.372-6.714s-2.466-6.714-6.372-6.714c-3.888,0-6.354,2.862-6.354,6.714S70.795,37.306,74.683,37.306Zm13.446-.018a5.61,5.61,0,0,0,4.122-1.458A5.072,5.072,0,0,0,93.8,32.536H90.613a2.368,2.368,0,0,1-2.5,2.142c-1.908,0-3.1-1.71-3.1-4.068,0-2.34.99-4.086,3.078-4.086a2.327,2.327,0,0,1,2.43,2.034h3.186a5.048,5.048,0,0,0-1.926-3.546,5.989,5.989,0,0,0-3.672-1.134c-3.834,0-6.336,2.9-6.336,6.732C81.775,34.462,84.349,37.288,88.129,37.288Zm6.8-.288H104.8V34.3H98.119V31.546h5.634V29.062H98.119v-2.3h6.57V24.13H94.933Zm16.344.306c2.97,0,5.274-1.494,5.274-4.194,0-2.754-2.16-3.492-4.554-4.05-1.926-.432-2.916-.648-2.916-1.548,0-.72.738-1.206,1.854-1.206,1.188,0,1.944.558,2.07,1.548h3.114c-.126-2.7-2.286-3.96-5.076-3.96-2.88,0-5.112,1.206-5.112,3.96,0,2.7,2.358,3.384,4.59,3.906,1.764.432,2.808.648,2.808,1.674,0,.972-1.026,1.35-2.07,1.35-1.53,0-2.376-.54-2.52-1.836h-3.2C105.607,35.794,107.857,37.306,111.277,37.306Zm11.88,0c2.97,0,5.274-1.494,5.274-4.194,0-2.754-2.16-3.492-4.554-4.05-1.926-.432-2.916-.648-2.916-1.548,0-.72.738-1.206,1.854-1.206,1.188,0,1.944.558,2.07,1.548H128c-.126-2.7-2.286-3.96-5.076-3.96-2.88,0-5.112,1.206-5.112,3.96,0,2.7,2.358,3.384,4.59,3.906,1.764.432,2.808.648,2.808,1.674,0,.972-1.026,1.35-2.07,1.35-1.53,0-2.376-.54-2.52-1.836h-3.2C117.487,35.794,119.737,37.306,123.157,37.306Z" transform="translate(11792 6075.979)" fill="#2a72b8"/>
    <g id="Group_157809" data-name="Group 157809" transform="translate(10754 133.686)">
      <path id="Path_12966" data-name="Path 12966" d="M4556.5,5874.877v-38.021h219.182v41.784" transform="translate(-4316 -110)" fill="none" stroke="#555" stroke-width="2"/>
      <path id="Icon_ionic-ios-arrow-dropdown-circle" data-name="Icon ionic-ios-arrow-dropdown-circle" d="M3.375,11.236a7.861,7.861,0,1,0,7.861-7.861A7.86,7.86,0,0,0,3.375,11.236ZM14.3,9.6a.732.732,0,0,1,1.032,0,.721.721,0,0,1,.212.514.733.733,0,0,1-.215.518l-3.564,3.553a.729.729,0,0,1-1.005-.023L7.143,10.552A.73.73,0,0,1,8.175,9.52l3.065,3.1Z" transform="translate(229.264 5757.901)" fill="#555"/>
      <path id="Icon_ionic-ios-arrow-dropdown-circle-2" data-name="Icon ionic-ios-arrow-dropdown-circle" d="M3.375,11.236a7.861,7.861,0,1,0,7.861-7.861A7.86,7.86,0,0,0,3.375,11.236ZM14.3,9.6a.732.732,0,0,1,1.032,0,.721.721,0,0,1,.212.514.733.733,0,0,1-.215.518l-3.564,3.553a.729.729,0,0,1-1.005-.023L7.143,10.552A.73.73,0,0,1,8.175,9.52l3.065,3.1Z" transform="translate(448.446 5757.901)" fill="#555"/>
    </g>
    <g id="Group_157811" data-name="Group 157811" transform="translate(11684.043 12001.542) rotate(180)">
      <path id="Path_12966-2" data-name="Path 12966" d="M4556.5,5874.877v-38.021h219.182v41.784" transform="translate(-4316 -110)" fill="none" stroke="#555" stroke-width="2"/>
      <path id="Icon_ionic-ios-arrow-dropdown-circle-3" data-name="Icon ionic-ios-arrow-dropdown-circle" d="M3.375,11.236a7.861,7.861,0,1,0,7.861-7.861A7.86,7.86,0,0,0,3.375,11.236ZM14.3,9.6a.732.732,0,0,1,1.032,0,.721.721,0,0,1,.212.514.733.733,0,0,1-.215.518l-3.564,3.553a.729.729,0,0,1-1.005-.023L7.143,10.552A.73.73,0,0,1,8.175,9.52l3.065,3.1Z" transform="translate(229.264 5757.901)" fill="#555"/>
      <path id="Icon_ionic-ios-arrow-dropdown-circle-4" data-name="Icon ionic-ios-arrow-dropdown-circle" d="M3.375,11.236a7.861,7.861,0,1,0,7.861-7.861A7.86,7.86,0,0,0,3.375,11.236ZM14.3,9.6a.732.732,0,0,1,1.032,0,.721.721,0,0,1,.212.514.733.733,0,0,1-.215.518l-3.564,3.553a.729.729,0,0,1-1.005-.023L7.143,10.552A.73.73,0,0,1,8.175,9.52l3.065,3.1Z" transform="translate(448.446 5757.901)" fill="#555"/>
    </g>
    <g id="Group_157810" data-name="Group 157810" transform="translate(11194 133.686)">
      <path id="Path_12966-3" data-name="Path 12966" d="M4556.5,5874.877v-38.021h219.182v41.784" transform="translate(-4316 -110)" fill="none" stroke="#555" stroke-width="2"/>
      <path id="Icon_ionic-ios-arrow-dropdown-circle-5" data-name="Icon ionic-ios-arrow-dropdown-circle" d="M3.375,11.236a7.861,7.861,0,1,0,7.861-7.861A7.86,7.86,0,0,0,3.375,11.236ZM14.3,9.6a.732.732,0,0,1,1.032,0,.721.721,0,0,1,.212.514.733.733,0,0,1-.215.518l-3.564,3.553a.729.729,0,0,1-1.005-.023L7.143,10.552A.73.73,0,0,1,8.175,9.52l3.065,3.1Z" transform="translate(229.264 5757.901)" fill="#555"/>
      <path id="Icon_ionic-ios-arrow-dropdown-circle-6" data-name="Icon ionic-ios-arrow-dropdown-circle" d="M3.375,11.236a7.861,7.861,0,1,0,7.861-7.861A7.86,7.86,0,0,0,3.375,11.236ZM14.3,9.6a.732.732,0,0,1,1.032,0,.721.721,0,0,1,.212.514.733.733,0,0,1-.215.518l-3.564,3.553a.729.729,0,0,1-1.005-.023L7.143,10.552A.73.73,0,0,1,8.175,9.52l3.065,3.1Z" transform="translate(448.446 5757.901)" fill="#555"/>
    </g>
    <g id="Group_157812" data-name="Group 157812" transform="translate(12117.043 12001.542) rotate(180)">
      <path id="Path_12966-4" data-name="Path 12966" d="M4556.5,5874.877v-38.021h219.182v41.784" transform="translate(-4316 -110)" fill="none" stroke="#555" stroke-width="2"/>
      <path id="Icon_ionic-ios-arrow-dropdown-circle-7" data-name="Icon ionic-ios-arrow-dropdown-circle" d="M3.375,11.236a7.861,7.861,0,1,0,7.861-7.861A7.86,7.86,0,0,0,3.375,11.236ZM14.3,9.6a.732.732,0,0,1,1.032,0,.721.721,0,0,1,.212.514.733.733,0,0,1-.215.518l-3.564,3.553a.729.729,0,0,1-1.005-.023L7.143,10.552A.73.73,0,0,1,8.175,9.52l3.065,3.1Z" transform="translate(229.264 5757.901)" fill="#555"/>
      <path id="Icon_ionic-ios-arrow-dropdown-circle-8" data-name="Icon ionic-ios-arrow-dropdown-circle" d="M3.375,11.236a7.861,7.861,0,1,0,7.861-7.861A7.86,7.86,0,0,0,3.375,11.236ZM14.3,9.6a.732.732,0,0,1,1.032,0,.721.721,0,0,1,.212.514.733.733,0,0,1-.215.518l-3.564,3.553a.729.729,0,0,1-1.005-.023L7.143,10.552A.73.73,0,0,1,8.175,9.52l3.065,3.1Z" transform="translate(448.446 5757.901)" fill="#555"/>
    </g>
  </g>
</svg>
