<svg xmlns="http://www.w3.org/2000/svg" width="91.667" height="91.636" viewBox="0 0 91.667 91.636">
  <g id="Group_157802" data-name="Group 157802" transform="translate(0.532 0.504)">
    <ellipse id="Ellipse_43" data-name="Ellipse 43" cx="32" cy="32.5" rx="32" ry="32.5" transform="translate(13.056 13.176)" fill="#f8cd47"/>
    <path id="Path_62253" data-name="Path 62253" d="M14.114,9.494a4.62,4.62,0,1,1-4.62,4.62,4.625,4.625,0,0,1,4.62-4.62m0,11.09a6.47,6.47,0,1,0-6.47-6.47,6.477,6.477,0,0,0,6.47,6.47m0,60.554a4.621,4.621,0,1,1,4.62-4.62,4.627,4.627,0,0,1-4.62,4.62m0-11.092a6.471,6.471,0,1,0,6.47,6.472,6.478,6.478,0,0,0-6.47-6.472m62.4,11.092a4.621,4.621,0,1,1,4.622-4.62,4.626,4.626,0,0,1-4.622,4.62m0-11.092a6.471,6.471,0,1,0,6.472,6.472,6.479,6.479,0,0,0-6.472-6.472m0-60.552a4.62,4.62,0,1,1-4.62,4.62,4.627,4.627,0,0,1,4.62-4.62m0,11.09a6.47,6.47,0,1,0-6.47-6.47,6.478,6.478,0,0,0,6.47,6.47M89.963,66.338l-5.969,1.727a.878.878,0,0,1-.257.037.924.924,0,0,1-.888-.668l-1.728-5.969a.925.925,0,0,1,1.778-.514l1.095,3.788a43.33,43.33,0,0,0-1.06-40.826A.925.925,0,0,1,84.541,23a45.188,45.188,0,0,1,1.053,42.681l3.855-1.115a.924.924,0,0,1,.514,1.776M67.98,83.28a.924.924,0,0,1-.346,1.261A45.193,45.193,0,0,1,24.955,85.6l1.115,3.852a.926.926,0,0,1-.633,1.147.952.952,0,0,1-.257.037.925.925,0,0,1-.888-.67l-1.727-5.969a.925.925,0,0,1,.633-1.145l5.969-1.727a.925.925,0,0,1,.514,1.777L25.891,84a43.34,43.34,0,0,0,40.828-1.061.924.924,0,0,1,1.261.346M7.35,67.982a.928.928,0,0,1-1.261-.346,45.181,45.181,0,0,1-1.05-42.681L1.182,26.07a.925.925,0,0,1-.514-1.777l5.969-1.726a.926.926,0,0,1,1.147.631l1.726,5.969a.924.924,0,0,1-1.776.514l-1.1-3.788A43.334,43.334,0,0,0,7.7,66.721a.924.924,0,0,1-.346,1.261m15.3-60.63A.926.926,0,0,1,23,6.091,45.176,45.176,0,0,1,65.678,5.038L64.562,1.182A.924.924,0,1,1,66.338.668l1.728,5.969a.925.925,0,0,1-.631,1.147L61.466,9.509a.887.887,0,0,1-.257.037.925.925,0,0,1-.257-1.813l3.788-1.1A43.326,43.326,0,0,0,23.912,7.7a.925.925,0,0,1-1.261-.346m29.2,68.184a21.524,21.524,0,0,0,6.026-7.457A35.8,35.8,0,0,0,59.5,64.512a52.2,52.2,0,0,1,7.77,2.552,30.89,30.89,0,0,1-15.42,8.471M23.364,67.065a52.185,52.185,0,0,1,7.77-2.552,35.85,35.85,0,0,0,1.622,3.566,21.53,21.53,0,0,0,6.028,7.457,30.89,30.89,0,0,1-15.42-8.471M38.784,15.1a21.53,21.53,0,0,0-6.028,7.457,35.85,35.85,0,0,0-1.622,3.566,52.185,52.185,0,0,1-7.77-2.552A30.888,30.888,0,0,1,38.784,15.1m28.484,8.471A52.194,52.194,0,0,1,59.5,26.12a35.8,35.8,0,0,0-1.624-3.566A21.523,21.523,0,0,0,51.848,15.1a30.888,30.888,0,0,1,15.42,8.471M62.835,44.39H76.218a30.793,30.793,0,0,0-7.611-19.384,53.5,53.5,0,0,1-8.471,2.858,54.2,54.2,0,0,1,2.7,16.526m0,1.85a54.182,54.182,0,0,1-2.7,16.526,53.9,53.9,0,0,1,8.471,2.858A30.788,30.788,0,0,0,76.218,46.24ZM46.24,60.992V46.24H60.985a52.147,52.147,0,0,1-2.658,16.106A61.838,61.838,0,0,0,46.24,60.992m0,1.849V75.917c3.734-.433,7.254-3.483,10-8.7A33.99,33.99,0,0,0,57.671,64.1,59.969,59.969,0,0,0,46.24,62.842m-1.849,0A59.985,59.985,0,0,0,32.96,64.1,34.065,34.065,0,0,0,34.4,67.218c2.741,5.216,6.263,8.266,10,8.7ZM29.646,46.24H44.391V60.992a61.824,61.824,0,0,0-12.086,1.354A52.154,52.154,0,0,1,29.646,46.24m-1.85,0H14.414a30.779,30.779,0,0,0,7.611,19.384A53.9,53.9,0,0,1,30.5,62.766,54.174,54.174,0,0,1,27.8,46.24m0-1.85a54.19,54.19,0,0,1,2.7-16.526,53.5,53.5,0,0,1-8.471-2.858A30.784,30.784,0,0,0,14.414,44.39ZM44.391,29.64V44.39H29.646a52.154,52.154,0,0,1,2.659-16.106A61.684,61.684,0,0,0,44.391,29.64m0-1.849V14.715c-3.733.433-7.254,3.483-10,8.7a33.84,33.84,0,0,0-1.435,3.118A60.156,60.156,0,0,0,44.391,27.79m1.849,0a60.139,60.139,0,0,0,11.431-1.258,33.766,33.766,0,0,0-1.434-3.118c-2.743-5.216-6.263-8.266-10-8.7Zm0,1.849a61.7,61.7,0,0,0,12.087-1.356A52.147,52.147,0,0,1,60.985,44.39H46.24Zm-.925-17.09A32.767,32.767,0,1,0,78.083,45.315,32.8,32.8,0,0,0,45.315,12.55" transform="translate(0.041 0)" fill="#40d4dc" fill-rule="evenodd"/>
    <g id="Group_157801" data-name="Group 157801" transform="translate(0)">
      <g id="Group_157800" data-name="Group 157800">
        <path id="Path_62254" data-name="Path 62254" d="M317.181,129.471l-5.969,1.727a.878.878,0,0,1-.257.037.924.924,0,0,1-.888-.668L308.34,124.6a.925.925,0,0,1,1.778-.514l1.095,3.788a43.33,43.33,0,0,0-1.06-40.826.925.925,0,0,1,1.607-.917,45.187,45.187,0,0,1,1.053,42.681l3.855-1.115a.924.924,0,0,1,.514,1.776" transform="translate(-227.218 -63.134)" fill="#06b0e3" stroke="#06b0e3" stroke-width="1" fill-rule="evenodd"/>
        <path id="Path_62255" data-name="Path 62255" d="M131.111,310.5a.924.924,0,0,1-.346,1.261,45.193,45.193,0,0,1-42.68,1.054l1.115,3.853a.925.925,0,0,1-.633,1.147.943.943,0,0,1-.257.037.925.925,0,0,1-.888-.67L85.7,311.213a.926.926,0,0,1,.633-1.145L92.3,308.34a.925.925,0,0,1,.514,1.777l-3.79,1.1a43.341,43.341,0,0,0,40.828-1.062.924.924,0,0,1,1.261.346" transform="translate(-63.131 -227.219)" fill="#06b0e3" stroke="#06b0e3" stroke-width="1" fill-rule="evenodd"/>
        <path id="Path_62256" data-name="Path 62256" d="M7.35,131.116a.928.928,0,0,1-1.261-.346A45.182,45.182,0,0,1,5.038,88.089L1.182,89.2a.925.925,0,0,1-.514-1.777L6.636,85.7a.926.926,0,0,1,1.147.631L9.509,92.3a.924.924,0,1,1-1.776.514l-1.1-3.788A43.334,43.334,0,0,0,7.7,129.855a.924.924,0,0,1-.346,1.261" transform="translate(0 -63.134)" fill="#06b0e3" stroke="#06b0e3" stroke-width="1" fill-rule="evenodd"/>
        <path id="Path_62257" data-name="Path 62257" d="M85.782,7.352a.926.926,0,0,1,.346-1.261A45.176,45.176,0,0,1,128.81,5.038l-1.115-3.856A.924.924,0,0,1,129.47.667L131.2,6.636a.925.925,0,0,1-.631,1.147L124.6,9.508a.894.894,0,0,1-.257.037.925.925,0,0,1-.257-1.813l3.788-1.1A43.327,43.327,0,0,0,87.044,7.7a.925.925,0,0,1-1.261-.346" transform="translate(-63.132 0)" fill="#06b0e3" stroke="#06b0e3" stroke-width="1" fill-rule="evenodd"/>
      </g>
    </g>
  </g>
</svg>
