<svg xmlns="http://www.w3.org/2000/svg" width="128.5" height="85.291" viewBox="0 0 128.5 85.291">
  <g id="Group_157805" data-name="Group 157805" transform="translate(-8781.5 -1976.874)">
    <g id="Group_157788" data-name="Group 157788" transform="translate(8781.5 1976.874)">
      <g id="Group_157787" data-name="Group 157787">
        <path id="Path_62229" data-name="Path 62229" d="M154.552,155.048V150.6H151.1a21.094,21.094,0,0,0-.743-3.764l3.187-1.314-1.7-4.111-3.187,1.315a21.248,21.248,0,0,0-2.168-3.242l2.441-2.441-3.144-3.144-2.441,2.441a21.217,21.217,0,0,0-3.242-2.168l1.314-3.187-4.111-1.7L136,132.477a21.124,21.124,0,0,0-3.764-.743v-3.45h-4.446v3.45a21.119,21.119,0,0,0-3.764.743l-1.314-3.187-4.111,1.7,1.315,3.187a21.256,21.256,0,0,0-3.242,2.168L114.23,133.9l-3.144,3.144,2.441,2.441a21.24,21.24,0,0,0-2.137,3.186l-3.184-1.324-1.708,4.105,3.183,1.324a21.1,21.1,0,0,0-.761,3.825h-3.45v4.447h3.45a21.09,21.09,0,0,0,.743,3.764l-3.187,1.314,1.7,4.111,3.187-1.315a21.221,21.221,0,0,0,2.169,3.242l-2.441,2.441,3.144,3.144,2.441-2.441a21.253,21.253,0,0,0,3.242,2.168l-1.315,3.187,4.111,1.695,1.314-3.187a21.093,21.093,0,0,0,3.764.743v3.451h4.446v-3.451a21.093,21.093,0,0,0,3.764-.743l1.314,3.187,4.111-1.695-1.314-3.187a21.254,21.254,0,0,0,3.242-2.168l2.441,2.441,3.145-3.144-2.442-2.441a21.246,21.246,0,0,0,2.137-3.186l3.183,1.325,1.708-4.105-3.183-1.324a21.107,21.107,0,0,0,.761-3.825ZM130.011,167.7a14.878,14.878,0,1,1,14.879-14.879A14.878,14.878,0,0,1,130.011,167.7" transform="translate(-45.278 -92.075)" fill="#555"/>
        <path id="Path_62230" data-name="Path 62230" d="M7.24,29.92h4.694v-6.2h5.8V19.325h-5.8V13.156H7.24v6.169H1.44v4.392h5.8Z" transform="translate(110.765 39.284)" fill="#555"/>
        <path id="Path_62231" data-name="Path 62231" d="M416.465,1196.789h10.379V1211.6l18.511,33.791H397.6l18.865-33.791Z" transform="translate(-391.602 -1180.855)" fill="#f8cd47"/>
        <path id="Path_62232" data-name="Path 62232" d="M55.3,70.04H4.9A4.9,4.9,0,0,1,.654,62.694L19.509,30.038V0h5.645V30.794a2.824,2.824,0,0,1-.378,1.411L6.191,64.395H54L35.418,32.206a2.821,2.821,0,0,1-.378-1.411V0h5.645V30.038L59.539,62.695A4.9,4.9,0,0,1,55.3,70.04" transform="translate(0)" fill="#06b0e3"/>
      </g>
      <path id="Path_62233" data-name="Path 62233" d="M.867,2.128c10.142,0,19.087-4.789,19.087-15.143,0-6.48-3.451-10.213-8.734-11.833v-.141c4.3-1.69,7.325-4.719,7.325-9.649,0-8.522-7.254-13.593-17.89-13.593-11.973,0-18.664,6.691-18.876,16.27H-7.163c.282-4.155,2.536-7.4,7.677-7.4,4.015,0,6.339,2.183,6.339,5.494,0,3.662-2.958,5.635-7.466,5.635H-3.218v8.241H-.331c5.282,0,8.241,2.113,8.241,6.339,0,4.015-2.676,6.691-7.536,6.691-6.057,0-8.593-3.592-8.874-8.734H-19.7c0,5.564,1.831,10.072,5.353,13.171C-10.966.508-5.965,2.128.867,2.128Z" transform="translate(38.876 83.163)" fill="#555"/>
    </g>
  </g>
</svg>
