<svg xmlns="http://www.w3.org/2000/svg" width="98.994" height="98.995" viewBox="0 0 98.994 98.995">
  <g id="Group_157809" data-name="Group 157809" transform="translate(-10962.503 -4817.254)">
    <rect id="Rectangle_624" data-name="Rectangle 624" width="70" height="70" transform="translate(11012 4817.254) rotate(45)" fill="#2a72b8"/>
    <g id="pressure-svgrepo-com" transform="translate(10991.637 4848.764)">
      <path id="Path_6959" data-name="Path 6959" d="M37.136,27.858a17.364,17.364,0,1,0-33.544,0" transform="translate(0 0)" fill="none" stroke="#fff" stroke-linecap="round" stroke-width="3"/>
      <path id="Path_6960" data-name="Path 6960" d="M19.029,21.209c.941,1.368.279,3.456-1.477,4.663s-3.942,1.076-4.883-.293c-1-1.459-4.462-9.66-6.563-14.733A.942.942,0,0,1,7.628,9.8C11.611,13.58,18.027,19.75,19.029,21.209Z" transform="translate(2.812 3.278)" fill="none" stroke="#fff" stroke-width="3"/>
      <path id="Path_6961" data-name="Path 6961" d="M12,6V9.859" transform="translate(8.364 0)" fill="none" stroke="#fff" stroke-linecap="round" stroke-width="3"/>
      <path id="Path_6962" data-name="Path 6962" d="M5.636,8.636l2.728,2.729" transform="translate(2.45 2.449)" fill="none" stroke="#fff" stroke-linecap="round" stroke-width="3"/>
      <path id="Path_6963" data-name="Path 6963" d="M19.678,8.636,16.95,11.364" transform="translate(12.963 2.449)" fill="none" stroke="#fff" stroke-linecap="round" stroke-width="3"/>
      <path id="Path_6964" data-name="Path 6964" d="M22.489,17.81l-3.727-1" transform="translate(14.647 10.047)" fill="none" stroke="#fff" stroke-linecap="round" stroke-width="3"/>
      <path id="Path_6965" data-name="Path 6965" d="M3.307,17.81l3.727-1" transform="translate(0.285 10.047)" fill="none" stroke="#fff" stroke-linecap="round" stroke-width="3"/>
    </g>
  </g>
</svg>
