<svg xmlns="http://www.w3.org/2000/svg" width="84.562" height="85" viewBox="0 0 84.562 85">
  <g id="Group_157807" data-name="Group 157807" transform="translate(-9402.5 -1976.874)">
    <g id="Group_157793" data-name="Group 157793" transform="translate(9402.5 1976.874)">
      <path id="Subtraction_31" data-name="Subtraction 31" d="M49.223,59.609H13.7a13.308,13.308,0,0,0,.163-2.079A13.185,13.185,0,0,0,.693,44.36c-.23,0-.463.006-.693.018V9A9.01,9.01,0,0,1,9,0H49.223a9.01,9.01,0,0,1,9,9V50.609A9.01,9.01,0,0,1,49.223,59.609Z" transform="translate(22.873 3.211)" fill="#f8cd47"/>
      <path id="Path_62238" data-name="Path 62238" d="M23.548,65.934v2.355a2.355,2.355,0,0,1-4.71,0v-4.71a2.355,2.355,0,0,1,2.355-2.355H58.87a7.064,7.064,0,0,0,7.064-7.064V11.774A7.064,7.064,0,0,0,58.87,4.71H16.484a7.064,7.064,0,0,0-7.064,7.064V49.451a2.355,2.355,0,0,1-2.355,2.355H2.355a2.355,2.355,0,1,1,0-4.71H4.71V11.774A11.774,11.774,0,0,1,16.484,0H58.87A11.774,11.774,0,0,1,70.644,11.774V54.16A11.774,11.774,0,0,1,58.87,65.934Z" transform="translate(13.918)" fill="#06b0e3"/>
      <path id="Path_62239" data-name="Path 62239" d="M23.651,8.075,4.038,27.688A2.365,2.365,0,1,1,.693,24.344L20.306,4.73H7.1A2.365,2.365,0,0,1,7.1,0H26.016a2.365,2.365,0,0,1,2.365,2.365V21.286a2.365,2.365,0,1,1-4.73,0Z" transform="translate(41.625 14.301)" fill="#fff"/>
      <path id="Path_62240" data-name="Path 62240" d="M7.071,0a2.357,2.357,0,1,1,0,4.714A2.357,2.357,0,0,0,4.714,7.071,2.357,2.357,0,1,1,0,7.071,7.071,7.071,0,0,1,7.071,0" transform="translate(0 47.287)" fill="#40d4dc"/>
      <path id="Path_62241" data-name="Path 62241" d="M202.357,4.715a2.357,2.357,0,1,1,0-4.714,7.071,7.071,0,0,1,7.071,7.071,2.357,2.357,0,0,1-4.714,0,2.357,2.357,0,0,0-2.357-2.357" transform="translate(-171.715 47.286)" fill="#40d4dc"/>
      <path id="Path_62242" data-name="Path 62242" d="M204.714,202.357a2.357,2.357,0,1,1,4.714,0,7.071,7.071,0,0,1-7.071,7.071,2.357,2.357,0,0,1,0-4.714,2.357,2.357,0,0,0,2.357-2.357" transform="translate(-171.715 -124.428)" fill="#40d4dc"/>
      <path id="Path_62243" data-name="Path 62243" d="M0,202.357a2.357,2.357,0,1,1,4.714,0,2.357,2.357,0,0,0,2.357,2.357,2.357,2.357,0,1,1,0,4.714A7.071,7.071,0,0,1,0,202.357" transform="translate(0 -124.428)" fill="#40d4dc"/>
      <path id="Path_62244" data-name="Path 62244" d="M0,102.357a2.357,2.357,0,1,1,4.714,0v4.714a2.357,2.357,0,1,1-4.714,0Z" transform="translate(0 -38.57)" fill="#40d4dc"/>
      <path id="Path_62245" data-name="Path 62245" d="M102.357,238.048a2.357,2.357,0,1,1,0-4.714h4.714a2.357,2.357,0,1,1,0,4.714Z" transform="translate(-85.858 -153.048)" fill="#40d4dc"/>
    </g>
  </g>
</svg>
