<svg xmlns="http://www.w3.org/2000/svg" width="98.994" height="98.995" viewBox="0 0 98.994 98.995">
  <g id="Group_157806" data-name="Group 157806" transform="translate(-11666.503 -4817.254)">
    <rect id="Rectangle_627" data-name="Rectangle 627" width="70" height="70" transform="translate(11716 4817.254) rotate(45)" fill="#2a72b8"/>
    <g id="food-steamer-svgrepo-com" transform="translate(11695.464 4846.752)">
      <g id="Group_415" data-name="Group 415">
        <g id="Group_414" data-name="Group 414">
          <path id="Path_6966" data-name="Path 6966" d="M197.134,330.268A5.134,5.134,0,1,0,192,325.134,5.133,5.133,0,0,0,197.134,330.268Zm0-6.846a1.711,1.711,0,1,1-1.711,1.711A1.71,1.71,0,0,1,197.134,323.423Z" transform="translate(-176.598 -294.329)" fill="#fff"/>
          <path id="Path_6967" data-name="Path 6967" d="M39.362,13.691H37.651V10.268h1.711a1.711,1.711,0,1,0,0-3.423H37.479A8.56,8.56,0,0,0,29.094,0H11.98A8.56,8.56,0,0,0,3.594,6.846H1.711a1.711,1.711,0,0,0,0,3.423H3.423v3.423H1.711a1.711,1.711,0,0,0,0,3.423H3.423v5.134a1.711,1.711,0,0,0,1.711,1.711H6.845v15.4a1.711,1.711,0,0,0,1.711,1.711H32.516a1.711,1.711,0,0,0,1.711-1.711v-15.4h1.712a1.711,1.711,0,0,0,1.711-1.711V17.114h1.711a1.711,1.711,0,0,0,0-3.423ZM6.846,10.268H34.228v3.423H6.846ZM11.98,3.423H29.094a5.137,5.137,0,0,1,4.842,3.423H7.138A5.137,5.137,0,0,1,11.98,3.423ZM30.8,37.651H10.268V23.959H30.8Zm3.423-17.114H6.846V17.114H34.228v3.423Z" fill="#fff"/>
        </g>
      </g>
    </g>
  </g>
</svg>
