<svg xmlns="http://www.w3.org/2000/svg" xmlns:xlink="http://www.w3.org/1999/xlink" width="20.722" height="20.722" viewBox="0 0 20.722 20.722">
  <defs>
    <clipPath id="clip-path">
      <rect id="Rectangle_993" data-name="Rectangle 993" width="20.722" height="20.722" fill="#555"/>
    </clipPath>
  </defs>
  <g id="Group_155465" data-name="Group 155465" transform="translate(0 0)">
    <g id="Group_155464" data-name="Group 155464" transform="translate(0 0)" clip-path="url(#clip-path)">
      <path id="Path_54567" data-name="Path 54567" d="M6.87,13.076l6.2-6.2a.548.548,0,0,1,.775.775l-6.2,6.2a.548.548,0,0,1-.775-.775Zm4.265.615a.549.549,0,0,0-.548.547h0A3.175,3.175,0,0,1,9.651,16.5L7.645,18.506a3.84,3.84,0,0,1-5.43-5.431l2.005-2.005a3.173,3.173,0,0,1,2.261-.936.548.548,0,0,0,0-1.1A4.265,4.265,0,0,0,3.445,10.3L1.44,12.3a4.936,4.936,0,0,0,6.981,6.982l2.005-2.005a4.265,4.265,0,0,0,1.257-3.037.547.547,0,0,0-.546-.548ZM12.3,1.442,10.293,3.447A4.271,4.271,0,0,0,9.035,6.485a.548.548,0,1,0,1.1,0,3.177,3.177,0,0,1,.937-2.262l2.005-2.005a3.839,3.839,0,0,1,5.43,5.43l-2,2.005a3.177,3.177,0,0,1-2.262.937.548.548,0,0,0,0,1.1,4.264,4.264,0,0,0,3.036-1.258l2.005-2.005A4.936,4.936,0,0,0,12.3,1.442Z" transform="translate(0 0)" fill="#555"/>
    </g>
  </g>
</svg>
