<svg xmlns="http://www.w3.org/2000/svg" xmlns:xlink="http://www.w3.org/1999/xlink" width="71" height="71" viewBox="0 0 71 71">
  <defs>
    <clipPath id="clip-path">
      <rect id="Rectangle_9564" data-name="Rectangle 9564" width="71" height="71" transform="translate(-22096 2166)" fill="#fff"/>
    </clipPath>
    <clipPath id="clip-path-2">
      <rect id="Rectangle_8513" data-name="Rectangle 8513" width="71" height="71" fill="#fff" stroke="#fff" stroke-width="1"/>
    </clipPath>
  </defs>
  <g id="Mask_Group_86" data-name="Mask Group 86" transform="translate(22096 -2166)" clip-path="url(#clip-path)">
    <g id="Group_155499" data-name="Group 155499" transform="translate(-22096 2166)">
      <g id="Group_155499-2" data-name="Group 155499" clip-path="url(#clip-path-2)">
        <path id="Path_61369" data-name="Path 61369" d="M147.253,17.919a1,1,0,0,0-.369-.366l-7.913-4.527a1,1,0,0,0-1.358.36.977.977,0,0,0-.133.493V22.93a.979.979,0,0,0,.5.861,1,1,0,0,0,.994,0l7.913-4.528a.98.98,0,0,0,.369-1.343m-7.781,3.306V15.588l4.929,2.819Z" transform="translate(-89.82 -8.467)" fill="#fff" stroke="#fff" stroke-width="1"/>
        <path id="Path_61370" data-name="Path 61370" d="M16.277,39.1a.988.988,0,0,1,.991-.985H33.077a.987.987,0,1,1,0,1.973H17.269a.987.987,0,0,1-.994-.98V39.1Z" transform="translate(-10.633 -25.031)" fill="#fff" stroke="#fff" stroke-width="1"/>
        <path id="Path_61371" data-name="Path 61371" d="M33.075,59.964H17.266a.986.986,0,1,1,0-1.972H33.074a.986.986,0,1,1,0,1.972Z" transform="translate(-10.63 -38.08)" fill="#fff" stroke="#fff" stroke-width="1"/>
        <path id="Path_61372" data-name="Path 61372" d="M70.48,45.988h0a1.015,1.015,0,0,0-1.015.039L61.388,51.2V49.524a3.093,3.093,0,0,0-2.313-2.975l-1.74-6.431A7.949,7.949,0,0,0,61.389,36.4a9.059,9.059,0,0,0,.69-6.625,8.727,8.727,0,0,0-9.332-6.614l-.886-3.274H62.884a4.282,4.282,0,0,0,4.294-4.253V4.253A4.278,4.278,0,0,0,62.88,0H42.347a4.283,4.283,0,0,0-4.294,4.253v11.38a4.242,4.242,0,0,0,.448,1.9,49.787,49.787,0,0,1-9.42,5.488V11.69A4.275,4.275,0,0,0,24.79,7.44H4.288A4.272,4.272,0,0,0,0,11.69V23.052A4.275,4.275,0,0,0,4.288,27.3h7.841l2.481,1.421c-1,.378-2.013.767-3.01,1.162l-4.142,1.1a5.3,5.3,0,0,0-3.78,6.484L7.62,52.026a5.345,5.345,0,0,0,6.535,3.748l.011,0,.574-.153L23.412,70.5a1,1,0,0,0,.861.492.906.906,0,0,0,.259-.034l6.361-1.681a.988.988,0,0,0,.7-1.213,1.01,1.01,0,0,0-.041-.118L25.473,53.538c2.633-.43,5.332-.87,8.009-1.206v9.854a3.1,3.1,0,0,0,3.109,3.075H58.28a3.094,3.094,0,0,0,3.107-3.075V60.517l8.079,5.169a1,1,0,0,0,1.373-.293A.978.978,0,0,0,71,64.855v-18a.99.99,0,0,0-.518-.867M60.151,30.277l0,0a7.124,7.124,0,0,1-.529,5.2,6.008,6.008,0,0,1-2.811,2.711L53.967,27.669l-.7-2.593a6.769,6.769,0,0,1,6.884,5.2M56.985,46.452H50.66L43.473,19.889H49.8l1.263,4.662.259.967ZM42.346,1.972H62.879a2.3,2.3,0,0,1,2.3,2.281v11.38a2.3,2.3,0,0,1-2.3,2.282H42.5a1,1,0,0,0-.553-.035,2.3,2.3,0,0,1-1.9-2.246l0-11.38a2.3,2.3,0,0,1,2.306-2.281M12.895,25.459a1.013,1.013,0,0,0-.5-.13H4.287a2.285,2.285,0,0,1-2.3-2.271V11.693a2.287,2.287,0,0,1,2.3-2.278H24.792a2.291,2.291,0,0,1,2.3,2.278V23.055a2.29,2.29,0,0,1-2.3,2.274H23.84a.994.994,0,0,0-1,.989v4.831Zm.752,28.405a3.373,3.373,0,0,1-4.108-2.347L5.6,36.957A3.325,3.325,0,0,1,7.97,32.89l3.238-.859,5.681,20.977Zm15.637,13.8-4.527,1.193L16.736,55.09l1.578-.419c1.694-.24,3.431-.52,5.146-.8Zm4.2-18.145v.818c-3.024.375-6.056.878-9,1.363h0c-1.859.309-3.773.62-5.637.9L13.1,31.413c1.245-.49,2.513-.967,3.728-1.421l6.5,3.72a1,1,0,0,0,1.358-.359.979.979,0,0,0,.133-.493V27.3a4.312,4.312,0,0,0,3.433-1.75,54.755,54.755,0,0,0,11.52-6.509,4.308,4.308,0,0,0,1.6.732l7.218,26.674h-12a3.1,3.1,0,0,0-3.112,3.075M59.392,62.184a1.113,1.113,0,0,1-1.113,1.106H36.588a1.113,1.113,0,0,1-1.117-1.106V49.523a1.113,1.113,0,0,1,1.117-1.106H58.279A1.114,1.114,0,0,1,59.4,49.523Zm9.614.859-7.623-4.874V53.542l7.627-4.874Z" fill="#fff" stroke="#fff" stroke-width="1"/>
      </g>
    </g>
  </g>
</svg>
