<svg xmlns="http://www.w3.org/2000/svg" xmlns:xlink="http://www.w3.org/1999/xlink" width="71" height="71" viewBox="0 0 71 71">
  <defs>
    <clipPath id="clip-path">
      <rect id="Rectangle_9564" data-name="Rectangle 9564" width="71" height="71" transform="translate(-21741 2169)" fill="#fff"/>
    </clipPath>
    <clipPath id="clip-path-2">
      <rect id="Rectangle_8514" data-name="Rectangle 8514" width="66.683" height="66.683" fill="#fff" stroke="#fff" stroke-width="1.5"/>
    </clipPath>
  </defs>
  <g id="Mask_Group_86" data-name="Mask Group 86" transform="translate(21741 -2169)" clip-path="url(#clip-path)">
    <g id="Group_155500" data-name="Group 155500" transform="translate(-21739 2171)">
      <g id="Group_155500-2" data-name="Group 155500" clip-path="url(#clip-path-2)">
        <path id="Path_61373" data-name="Path 61373" d="M33.345,0A33.341,33.341,0,1,0,66.683,33.345,33.342,33.342,0,0,0,33.345,0m-.007,65.016A31.674,31.674,0,1,1,65.015,33.345,31.674,31.674,0,0,1,33.338,65.016" transform="translate(0 0)" fill="#fff" stroke="#fff" stroke-width="1.5" fill-rule="evenodd"/>
        <path id="Path_61374" data-name="Path 61374" d="M63.084,50.767a3.333,3.333,0,0,0-.405-.344l-5.2-3.729a3.27,3.27,0,0,0-4.232.346l-1.974,1.975a3.351,3.351,0,0,1-4.326.391A47.847,47.847,0,0,1,34.94,37.395a3.352,3.352,0,0,1,.39-4.325L37.3,31.094a3.266,3.266,0,0,0,.346-4.231l-3.726-5.2a3.264,3.264,0,0,0-4.549-.784,3.4,3.4,0,0,0-.439.373l-5.254,5.257A7.95,7.95,0,0,0,21.9,35.236,49.2,49.2,0,0,0,49.11,62.444h0a7.955,7.955,0,0,0,8.725-1.775l5.256-5.256a3.285,3.285,0,0,0-.006-4.645m-1.1,3.307-5.256,5.256a6.374,6.374,0,0,1-7.036,1.437,47.518,47.518,0,0,1-15.856-10.5v0a47.532,47.532,0,0,1-10.5-15.855,6.376,6.376,0,0,1,1.437-7.037l5.258-5.256a1.586,1.586,0,0,1,.251-.213,1.7,1.7,0,0,1,2.361.424l3.729,5.2a1.7,1.7,0,0,1-.181,2.218l-1.974,1.98a4.927,4.927,0,0,0-.567,6.314A49.1,49.1,0,0,0,46.059,50.456a4.929,4.929,0,0,0,6.317-.566l1.979-1.975a1.7,1.7,0,0,1,2.219-.181l5.2,3.729a1.7,1.7,0,0,1,.211,2.612" transform="translate(-9.33 -8.887)" fill="#fff" stroke="#fff" stroke-width="1.5" fill-rule="evenodd"/>
        <path id="Path_61375" data-name="Path 61375" d="M63.693,47.148h0a3.375,3.375,0,0,1,3.374,3.37.781.781,0,0,0,1.563,0A4.933,4.933,0,0,0,63.7,45.585a.782.782,0,0,0-.805.758v.023a.785.785,0,0,0,.787.782h.016Z" transform="translate(-27.555 -19.972)" fill="#fff" stroke="#fff" stroke-width="1.5" fill-rule="evenodd"/>
        <path id="Path_61376" data-name="Path 61376" d="M63.71,37.563h0a8.76,8.76,0,0,1,8.761,8.759.781.781,0,0,0,1.562,0A10.323,10.323,0,0,0,63.711,36a.782.782,0,0,0,0,1.564Z" transform="translate(-27.572 -15.774)" fill="#fff" stroke="#fff" stroke-width="1.5" fill-rule="evenodd"/>
        <path id="Path_61377" data-name="Path 61377" d="M63.69,27.974h0A14.149,14.149,0,0,1,77.836,42.118a.781.781,0,0,0,1.562,0A15.705,15.705,0,0,0,63.692,26.413h-.005a.763.763,0,0,0-.565.22.777.777,0,0,0-.024,1.1l.024.023a.763.763,0,0,0,.565.22Z" transform="translate(-27.552 -11.572)" fill="#fff" stroke="#fff" stroke-width="1.5" fill-rule="evenodd"/>
      </g>
    </g>
  </g>
</svg>
