<svg id="Group_155448" data-name="Group 155448" xmlns="http://www.w3.org/2000/svg" xmlns:xlink="http://www.w3.org/1999/xlink" width="14.979" height="14.977" viewBox="0 0 14.979 14.977">
  <defs>
    <clipPath id="clip-path">
      <rect id="Rectangle_975" data-name="Rectangle 975" width="14.979" height="14.977" transform="translate(0 0)" fill="#555"/>
    </clipPath>
  </defs>
  <g id="Group_155446" data-name="Group 155446" transform="translate(0 0)" clip-path="url(#clip-path)">
    <path id="Path_54565" data-name="Path 54565" d="M14.961.2A.111.111,0,0,0,14.95.176a.313.313,0,0,0-.058-.088.291.291,0,0,0-.09-.06.13.13,0,0,0-.024-.009A.334.334,0,0,0,14.691,0l-.017,0a.262.262,0,0,0-.092.015L.206,4.806a.3.3,0,0,0-.013.567l6.8,2.614,2.614,6.8a.3.3,0,0,0,.281.193h.007a.3.3,0,0,0,.279-.206L14.965.393A.376.376,0,0,0,14.98.3c0-.007,0-.013,0-.021A.326.326,0,0,0,14.961.2M1.193,5.114,13.564.99,7.149,7.4Zm8.673,8.673L7.576,7.83l6.415-6.415Z" transform="translate(0 0)" fill="#555"/>
  </g>
</svg>
